<?xml version="1.0" encoding="UTF-8" standalone="no"?>
<!-- Created with Inkscape (http://www.inkscape.org/) -->

<svg
   xmlns:dc="http://purl.org/dc/elements/1.1/"
   xmlns:cc="http://creativecommons.org/ns#"
   xmlns:rdf="http://www.w3.org/1999/02/22-rdf-syntax-ns#"
   xmlns:svg="http://www.w3.org/2000/svg"
   xmlns="http://www.w3.org/2000/svg"
   version="1.1"
   width="210mm"
   height="297mm"
   id="svg3298">
  <defs
     id="defs3300">
    <marker
       refX="0"
       refY="0"
       orient="auto"
       id="Arrow1Lstart"
       style="overflow:visible">
      <path
         d="M 0,0 5,-5 -12.5,0 5,5 0,0 z"
         transform="matrix(0.8,0,0,0.8,10,0)"
         id="path4526"
         style="fill-rule:evenodd;stroke:#000000;stroke-width:1pt" />
    </marker>
    <marker
       refX="0"
       refY="0"
       orient="auto"
       id="Arrow1Lend"
       style="overflow:visible">
      <path
         d="M 0,0 5,-5 -12.5,0 5,5 0,0 z"
         transform="matrix(-0.8,0,0,-0.8,-10,0)"
         id="path3952"
         style="fill-rule:evenodd;stroke:#000000;stroke-width:1pt" />
    </marker>
    <marker
       refX="0"
       refY="0"
       orient="auto"
       id="marker3318"
       style="overflow:visible">
      <path
         d="M 0,0 5,-5 -12.5,0 5,5 0,0 z"
         transform="matrix(-0.8,0,0,-0.8,-10,0)"
         id="path3320"
         style="fill-rule:evenodd;stroke:#000000;stroke-width:1pt" />
    </marker>
    <marker
       refX="0"
       refY="0"
       orient="auto"
       id="marker3322"
       style="overflow:visible">
      <path
         d="M 0,0 5,-5 -12.5,0 5,5 0,0 z"
         transform="matrix(-0.8,0,0,-0.8,-10,0)"
         id="path3324"
         style="fill-rule:evenodd;stroke:#000000;stroke-width:1pt" />
    </marker>
    <marker
       refX="0"
       refY="0"
       orient="auto"
       id="marker3326"
       style="overflow:visible">
      <path
         d="M 0,0 5,-5 -12.5,0 5,5 0,0 z"
         transform="matrix(-0.8,0,0,-0.8,-10,0)"
         id="path3328"
         style="fill-rule:evenodd;stroke:#000000;stroke-width:1pt" />
    </marker>
    <marker
       refX="0"
       refY="0"
       orient="auto"
       id="marker3330"
       style="overflow:visible">
      <path
         d="M 0,0 5,-5 -12.5,0 5,5 0,0 z"
         transform="matrix(-0.8,0,0,-0.8,-10,0)"
         id="path3332"
         style="fill-rule:evenodd;stroke:#000000;stroke-width:1pt" />
    </marker>
  </defs>
  <metadata
     id="metadata3303">
    <rdf:RDF>
      <cc:Work
         rdf:about="">
        <dc:format>image/svg+xml</dc:format>
        <dc:type
           rdf:resource="http://purl.org/dc/dcmitype/StillImage" />
        <dc:title></dc:title>
      </cc:Work>
    </rdf:RDF>
  </metadata>
  <g
     id="layer1">
    <g
       transform="translate(-256.57194,245.59576)"
       id="g2996">
      <g
         transform="matrix(1.0629921,0,0,-1.0629921,-186.02362,789.27165)"
         id="content"
         xml:space="preserve"
         style="font-style:normal;font-variant:normal;font-weight:normal;font-stretch:normal;letter-spacing:normal;word-spacing:normal;text-anchor:start;fill:none;stroke:#000000;stroke-linecap:butt;stroke-linejoin:miter;stroke-miterlimit:10.43299961;stroke-opacity:1;stroke-dasharray:none;stroke-dashoffset:0"><path
           d="m 464.44,411.93 -0.19,-0.3 -0.18,-0.29 -0.19,-0.28 -0.19,-0.26 -0.18,-0.25 -0.19,-0.23 -0.19,-0.22 -0.18,-0.21 -0.19,-0.2 -0.19,-0.18 -0.18,-0.17 -0.19,-0.16 -0.19,-0.15 -0.18,-0.14 -0.19,-0.13 -0.19,-0.12 -0.19,-0.11 -0.19,-0.1 -0.19,-0.09 -0.19,-0.09 -0.19,-0.07 -0.2,-0.07 -0.19,-0.07 -0.2,-0.05 -0.19,-0.05 -0.2,-0.04 -0.2,-0.04 -0.19,-0.03 -0.41,-0.05 -0.4,-0.03 c -0.61,-0.05 -1.05,-0.05 -1.05,-1 0,-0.3 0.25,-0.55 0.64,-0.55 1.34,0 2.89,0.16 4.28,0.16 1.64,0 3.39,-0.16 4.99,-0.16 0.29,0 0.95,0 0.95,0.95 0,0.55 -0.45,0.6 -0.8,0.6 -1.15,0.09 -2.34,0.5 -2.34,1.73 0,0.61 0.3,1.16 0.69,1.84 l 3.79,6.39 h 12.5 l -0.14,1.54 h -11.42 l 9.83,16.45 1.59,-16.45 0.14,-1.54 c 0.11,-1.04 0.8,-7.82 0.8,-8.32 0,-1.5 -2.59,-1.64 -3.58,-1.64 -0.7,0 -1.2,0 -1.2,-1 0,-0.55 0.59,-0.55 0.7,-0.55 2.03,0 4.19,0.16 6.22,0.16 1.25,0 4.39,-0.16 5.64,-0.16 0.3,0 0.89,0 0.89,1 0,0.55 -0.5,0.55 -1.14,0.55 -3.09,0 -3.09,0.34 -3.25,1.79 l -3.03,31.13 c -0.11,1 -0.11,1.2 -0.95,1.2 -0.8,0 -0.99,-0.34 -1.3,-0.84 z"
           id="path2999"
           style="fill:#000000;stroke-width:0" /></g>    </g>
    <g
       transform="translate(373.42806,245.59576)"
       id="g3015"
       style="fill:#000000;stroke:#000000">
      <g
         transform="matrix(1.0629921,0,0,-1.0629921,-186.02362,789.27165)"
         id="g3017"
         xml:space="preserve"
         style="font-style:normal;font-variant:normal;font-weight:normal;font-stretch:normal;letter-spacing:normal;word-spacing:normal;text-anchor:start;fill:#000000;stroke:#000000;stroke-linecap:butt;stroke-linejoin:miter;stroke-miterlimit:10.43299961;stroke-opacity:1;stroke-dasharray:none;stroke-dashoffset:0"><path
           d="m 463.49,410.09 -0.05,-0.18 -0.04,-0.17 -0.05,-0.16 -0.04,-0.15 -0.04,-0.15 -0.05,-0.13 -0.05,-0.13 -0.05,-0.12 -0.05,-0.11 -0.06,-0.11 -0.07,-0.1 -0.07,-0.09 -0.07,-0.09 -0.09,-0.07 -0.09,-0.08 -0.11,-0.06 -0.11,-0.07 -0.13,-0.05 -0.13,-0.05 -0.15,-0.05 -0.16,-0.04 -0.09,-0.02 -0.09,-0.01 -0.09,-0.02 -0.1,-0.02 -0.1,-0.01 -0.1,-0.01 -0.11,-0.01 -0.12,-0.02 -0.11,-0.01 -0.13,-0.01 -0.12,0 -0.13,-0.01 -0.14,-0.01 -0.14,0 -0.14,-0.01 -0.15,0 -0.16,-0.01 -0.16,0 -0.16,0 -0.17,0 -0.18,0 -0.18,0 c -0.85,0 -1.35,0 -1.35,-1 0,-0.55 0.46,-0.55 1.35,-0.55 h 17.78 c 7.87,0 13.75,5.87 13.75,10.76 0,3.58 -2.89,6.47 -7.72,7.02 5.19,0.95 10.42,4.64 10.42,9.38 0,3.68 -3.3,6.87 -9.28,6.87 l -0.69,-1.55 c 4.38,0 5.42,-2.93 5.42,-5.12 0,-4.39 -4.28,-9.13 -10.35,-9.13 h -7.27 l -0.3,-1.09 h 9.41 c 4.78,0 5.73,-3.69 5.73,-5.83 0,-4.94 -4.43,-9.76 -10.31,-9.76 h -6.78 c -0.69,0 -0.8,0 -1.09,0.04 -0.5,0.05 -0.64,0.1 -0.64,0.5 0,0.14 0,0.25 0.25,1.14 l 3.43,13.91 0.3,1.09 3.08,12.36 c 0.45,1.74 0.54,1.89 2.7,1.89 h 6.42 l 0.69,1.55 h -16.73 c -0.94,0 -1.44,0 -1.44,-1 0,-0.55 0.44,-0.55 1.39,-0.55 0.09,0 1.05,0 1.89,-0.09 0.89,-0.11 1.34,-0.16 1.34,-0.8 0,-0.2 -0.04,-0.36 -0.2,-0.95 z"
           id="path3019"
           style="fill:#000000;stroke:#000000;stroke-width:0" /></g>    </g>
    <path
       d="m 346.28521,584.99321 -255.714287,0"
       id="path3175"
       style="fill:none;stroke:#000000;stroke-width:1px;stroke-linecap:butt;stroke-linejoin:miter;stroke-opacity:1;marker-start:url(#Arrow1Lstart);marker-end:none" />
    <path
       d="m 404.86315,584.99321 262.84412,0"
       id="path4389"
       style="fill:#000000;stroke:#000000;stroke-width:1.0130198px;stroke-linecap:butt;stroke-linejoin:miter;stroke-opacity:1;marker-start:url(#Arrow1Lstart);marker-end:none" />
    <rect
       width="778.99457"
       height="352.09595"
       ry="0"
       x="-1.0982993"
       y="286.04446"
       id="rect4573"
       style="fill:none;stroke:none" />
    <g
       transform="translate(58.096779,-12.02059)"
       id="g3414">
      <g
         transform="matrix(1.0629921,0,0,-1.0629921,-186.02362,789.27165)"
         id="content-6"
         xml:space="preserve"
         style="font-style:normal;font-variant:normal;font-weight:normal;font-stretch:normal;letter-spacing:normal;word-spacing:normal;text-anchor:start;fill:none;stroke:#000000;stroke-linecap:butt;stroke-linejoin:miter;stroke-miterlimit:10.43299961;stroke-opacity:1;stroke-dasharray:none;stroke-dashoffset:0"><path
           d="m 479.68,426.68 -4.18,9.91 c -0.15,0.41 -0.25,0.59 -0.25,0.64 0,0.31 0.85,1.25 2.94,1.45 0.5,0.05 1,0.1 1,0.96 0,0.59 -0.61,0.59 -0.75,0.59 -2.05,0 -4.19,-0.16 -6.28,-0.16 -1.25,0 -4.33,0.16 -5.58,0.16 -0.29,0 -0.9,0 -0.9,-1 0,-0.55 0.5,-0.55 1.15,-0.55 2.99,0 3.28,-0.5 3.74,-1.59 l 5.87,-13.91 -10.51,-11.31 -0.64,-0.55 c -2.44,-2.64 -4.79,-3.43 -7.33,-3.57 -0.64,-0.05 -1.1,-0.05 -1.1,-1 0,-0.05 0,-0.55 0.66,-0.55 1.48,0 3.12,0.16 4.67,0.16 1.85,0 3.8,-0.16 5.58,-0.16 0.31,0 0.91,0 0.91,1 0,0.5 -0.5,0.55 -0.6,0.55 -0.45,0.04 -2,0.14 -2,1.54 0,0.8 0.75,1.6 1.35,2.24 l 5.07,5.39 4.49,4.87 5.03,-11.9 c 0.2,-0.55 0.25,-0.6 0.25,-0.71 0,-0.39 -0.94,-1.23 -2.89,-1.43 -0.55,-0.05 -0.99,-0.11 -0.99,-0.96 0,-0.59 0.55,-0.59 0.74,-0.59 1.41,0 4.89,0.16 6.28,0.16 1.25,0 4.28,-0.16 5.53,-0.16 0.35,0 0.95,0 0.95,0.95 0,0.6 -0.5,0.6 -0.9,0.6 -3.33,0.04 -3.44,0.2 -4.28,2.18 -1.94,4.64 -5.28,12.41 -6.42,15.39 3.39,3.5 8.6,9.43 10.2,10.82 1.45,1.2 3.34,2.39 6.33,2.54 0.65,0.05 1.09,0.05 1.09,1 0,0.05 0,0.55 -0.64,0.55 -1.5,0 -3.14,-0.16 -4.69,-0.16 -1.84,0 -3.73,0.16 -5.53,0.16 -0.3,0 -0.94,0 -0.94,-1 0,-0.34 0.25,-0.5 0.6,-0.55 0.45,-0.04 2,-0.15 2,-1.54 0,-0.71 -0.55,-1.35 -0.96,-1.8 z"
           id="path3417"
           style="fill:#000000;stroke-width:0" /></g>    </g>
    <path
       d="M 342.85698,342.14703 79.751746,554.54969"
       id="path6829"
       style="fill:none;stroke:#000000;stroke-width:1px;stroke-linecap:butt;stroke-linejoin:miter;stroke-opacity:1;marker-start:url(#Arrow1Lstart);marker-end:none" />
    <path
       d="M 410.00362,342.14703 684.07157,551.80901"
       id="path7013"
       style="fill:#000000;stroke:#000000;stroke-width:1px;stroke-linecap:butt;stroke-linejoin:miter;stroke-opacity:1;marker-start:url(#Arrow1Lstart);marker-end:none" />
    <g
       transform="translate(-110.12298,65.04367)"
       id="g3290">
      <g
         transform="matrix(1.0629921,0,0,-1.0629921,-186.02362,789.27165)"
         id="content-3"
         xml:space="preserve"
         style="font-style:normal;font-variant:normal;font-weight:normal;font-stretch:normal;letter-spacing:normal;word-spacing:normal;text-anchor:start;fill:none;stroke:#000000;stroke-linecap:butt;stroke-linejoin:miter;stroke-miterlimit:10.43299961;stroke-opacity:1;stroke-dasharray:none;stroke-dashoffset:0"><path
           d="m 473.8,426.12 h 4.28 c 1,0 1.5,0 1.5,1 0,0.55 -0.5,0.55 -1.34,0.55 h -4.14 l 1.04,5.69 c 0.21,1.04 0.91,4.57 1.21,5.17 0.45,0.95 1.29,1.7 2.34,1.7 0.19,0 1.49,0 2.44,-0.91 -2.19,-0.18 -2.69,-1.93 -2.69,-2.68 0,-1.14 0.89,-1.74 1.85,-1.74 1.29,0 2.73,1.1 2.73,2.99 0,2.29 -2.3,3.43 -4.33,3.43 -1.7,0 -4.84,-0.89 -6.33,-5.82 -0.29,-1.05 -0.45,-1.55 -1.64,-7.83 h -3.43 c -0.96,0 -1.5,0 -1.5,-0.94 0,-0.61 0.45,-0.61 1.39,-0.61 h 3.29 l -3.75,-19.67 c -0.89,-4.83 -1.73,-9.38 -4.33,-9.38 -0.2,0 -1.43,0 -2.39,0.91 2.3,0.14 2.74,1.94 2.74,2.69 0,1.14 -0.89,1.75 -1.85,1.75 -1.29,0 -2.73,-1.1 -2.73,-3 0,-2.24 2.19,-3.44 4.23,-3.44 2.74,0 4.74,2.94 5.63,4.84 1.59,3.14 2.75,9.16 2.8,9.52 z"
           id="path3293"
           style="fill:#000000;stroke-width:0" /></g>    </g>
    <g
       transform="translate(239.75773,58.07576)"
       id="g3309"
       style="fill:#000000;stroke:#000000">
      <g
         transform="matrix(1.0629921,0,0,-1.0629921,-186.02362,789.27165)"
         id="g3311"
         xml:space="preserve"
         style="font-style:normal;font-variant:normal;font-weight:normal;font-stretch:normal;letter-spacing:normal;word-spacing:normal;text-anchor:start;fill:#000000;stroke:#000000;stroke-linecap:butt;stroke-linejoin:miter;stroke-miterlimit:10.43299961;stroke-opacity:1;stroke-dasharray:none;stroke-dashoffset:0"><path
           d="m 478.99,424.98 0.01,0.06 0.01,0.05 0.01,0.05 0.01,0.06 0.02,0.1 0.01,0.05 0.02,0.06 0.01,0.05 0.01,0.06 0.01,0.05 0,0.06 0.01,0.06 0,0.06 0.01,0.03 0,0.03 0,0.03 0,0.03 c 0,0.86 -0.59,1.36 -1.44,1.36 -0.5,0 -1.84,-0.36 -2.05,-2.16 -0.89,1.85 -2.64,3.14 -4.62,3.14 l 0.05,-1.09 c 3.28,0 3.98,-4.03 3.98,-4.28 0,-0.25 -0.09,-0.55 -0.16,-0.75 l -2.39,-9.52 c -0.29,-1.29 -1.43,-2.53 -2.53,-3.48 -1.04,-0.89 -2.59,-1.8 -4.04,-1.8 -2.49,0 -3.24,2.6 -3.24,4.58 0,2.41 1.45,8.28 2.8,10.81 1.34,2.46 3.48,4.44 5.58,4.44 l -0.05,1.09 c -5.69,0 -11.86,-6.96 -11.86,-14.14 0,-4.93 3.03,-7.87 6.63,-7.87 2.93,0 5.28,2.34 5.78,2.89 l 0.04,-0.05 c -1.04,-4.43 -1.64,-6.48 -1.64,-6.58 -0.2,-0.45 -1.89,-5.39 -7.17,-5.39 -0.95,0 -2.59,0.07 -4,0.5 1.5,0.46 2.05,1.75 2.05,2.6 0,0.79 -0.55,1.75 -1.89,1.75 -1.1,0 -2.69,-0.91 -2.69,-2.89 0,-2.05 1.84,-3.05 6.62,-3.05 6.22,0 9.82,3.89 10.57,6.88 z"
           id="path3313"
           style="fill:#000000;stroke:#000000;stroke-width:0" /></g>    </g>
    <path
       d="m 378.48581,355.85043 1.37034,195.95858"
       id="path3357"
       style="fill:none;stroke:#000000;stroke-width:1px;stroke-linecap:butt;stroke-linejoin:miter;stroke-opacity:1;marker-start:url(#Arrow1Lstart);marker-end:none" />
    <g
       transform="translate(92.559736,109.80687)"
       id="g4328"
       style="fill:#000000;stroke:#000000">
      <g
         transform="matrix(1.0629921,0,0,-1.0629921,-186.02362,789.27165)"
         id="content-0"
         xml:space="preserve"
         style="font-style:normal;font-variant:normal;font-weight:normal;font-stretch:normal;letter-spacing:normal;word-spacing:normal;text-anchor:start;fill:#000000;stroke:#000000;stroke-linecap:butt;stroke-linejoin:miter;stroke-miterlimit:10.43299961;stroke-opacity:1;stroke-dasharray:none;stroke-dashoffset:0"><path
           d="m 472.96,409 0.05,-0.19 0.06,-0.19 0.07,-0.18 0.08,-0.18 0.08,-0.17 0.09,-0.16 0.09,-0.16 0.1,-0.16 0.11,-0.15 0.11,-0.15 0.11,-0.14 0.13,-0.13 0.12,-0.13 0.14,-0.12 0.14,-0.12 0.14,-0.11 0.15,-0.11 0.15,-0.1 0.15,-0.09 0.16,-0.09 0.17,-0.08 0.17,-0.07 0.17,-0.07 0.18,-0.06 0.17,-0.06 0.19,-0.04 0.18,-0.05 0.19,-0.03 0.19,-0.02 0.2,-0.02 0.2,-0.01 0.19,-0.01 c 1.74,0 2.9,1.14 3.69,2.74 0.85,1.79 1.49,4.84 1.49,4.93 0,0.5 -0.44,0.5 -0.6,0.5 -0.5,0 -0.54,-0.2 -0.7,-0.9 -0.69,-2.78 -1.64,-6.17 -3.73,-6.17 -1.05,0 -1.54,0.65 -1.54,2.29 0,1.1 0.6,3.44 0.99,5.17 l 1.4,5.4 c 0.15,0.75 0.65,2.64 0.85,3.39 0.25,1.14 0.75,3.03 0.75,3.32 0,0.91 -0.7,1.35 -1.45,1.35 -0.25,0 -1.55,-0.05 -1.94,-1.74 -0.96,-3.64 -3.14,-12.36 -3.74,-15 -0.06,-0.2 -2.04,-4.18 -5.68,-4.18 -2.6,0 -3.1,2.25 -3.1,4.09 0,2.78 1.41,6.72 2.71,10.16 0.59,1.5 0.84,2.18 0.84,3.14 0,2.23 -1.59,4.07 -4.09,4.07 -4.74,0 -6.58,-7.21 -6.58,-7.67 0,-0.5 0.5,-0.5 0.61,-0.5 0.5,0 0.54,0.11 0.79,0.91 1.24,4.33 3.14,6.17 5.03,6.17 0.44,0 1.25,-0.05 1.25,-1.64 0,-1.2 -0.56,-2.64 -0.85,-3.39 -1.85,-4.94 -2.9,-8.02 -2.9,-10.45 0,-4.74 3.44,-5.99 6.15,-5.99 3.28,0 5.07,2.24 5.92,3.35 z"
           id="path4331"
           style="fill:#000000;stroke:#000000;stroke-width:0" /></g>    </g>
    <g
       transform="translate(56.568543,248.49752)"
       id="g5622">
      <g
         transform="matrix(1.0629921,0,0,-1.0629921,-186.02362,789.27165)"
         id="g5624"
         xml:space="preserve"
         style="font-style:normal;font-variant:normal;font-weight:normal;font-stretch:normal;letter-spacing:normal;word-spacing:normal;text-anchor:start;fill:none;stroke:#000000;stroke-linecap:butt;stroke-linejoin:miter;stroke-miterlimit:10.43299961;stroke-opacity:1;stroke-dasharray:none;stroke-dashoffset:0"><path
           d="m 470.61,421.95 0.21,1.28 3.39,13.56 c 0.43,1.74 0.54,1.89 2.68,1.89 h 4.79 c 4.14,0 6.78,-1.34 6.78,-4.78 0,-1.95 -1,-6.23 -2.94,-8.03 -2.5,-2.23 -5.48,-2.64 -7.69,-2.64 h -7.01 l -0.21,-1.28 h 8.47 c 7.08,0 14,5.17 14,10.75 0,3.84 -3.28,7.53 -9.81,7.53 h -16.14 c -0.95,0 -1.5,0 -1.5,-0.95 0,-0.6 0.45,-0.6 1.45,-0.6 0.64,0 1.55,-0.04 2.14,-0.09 0.8,-0.11 1.1,-0.25 1.1,-0.8 0,-0.2 -0.05,-0.36 -0.21,-0.95 l -6.67,-26.75 c -0.5,-1.95 -0.59,-2.34 -4.53,-2.34 -0.84,0 -1.39,0 -1.39,-0.96 0,-0.59 0.59,-0.59 0.73,-0.59 1.41,0 4.94,0.16 6.33,0.16 1.05,0 2.14,-0.07 3.19,-0.07 1.11,0 2.2,-0.09 3.25,-0.09 0.34,0 0.98,0 0.98,1 0,0.55 -0.43,0.55 -1.39,0.55 -1.84,0 -3.23,0 -3.23,0.89 0,0.29 0.09,0.54 0.14,0.84 z"
           id="path5626"
           style="fill:#000000;stroke-width:0" /></g>    </g>
    <g
       transform="translate(-131.31983,220.21325)"
       id="g6835">
      <g
         transform="matrix(1.0629921,0,0,-1.0629921,-186.02362,789.27165)"
         id="g6837"
         xml:space="preserve"
         style="font-style:normal;font-variant:normal;font-weight:normal;font-stretch:normal;letter-spacing:normal;word-spacing:normal;text-anchor:start;fill:none;stroke:#000000;stroke-linecap:butt;stroke-linejoin:miter;stroke-miterlimit:10.43299961;stroke-opacity:1;stroke-dasharray:none;stroke-dashoffset:0"><path
           d="m 464.33,440.78 -7.17,-0.55 v -1.55 c 3.48,0 3.89,-0.34 3.89,-2.79 v -25.91 c 0,-2.23 -0.55,-2.23 -3.89,-2.23 v -1.55 c 1.64,0.05 4.28,0.16 5.53,0.16 1.25,0 3.69,-0.11 5.53,-0.16 v 1.55 c -3.34,0 -3.89,0 -3.89,2.23 z"
           id="path6839"
           style="fill:#000000;stroke-width:0" /><path
           d="m 474.85,417.71 0.04,1.05 c 0.3,7.42 4.49,8.66 6.19,8.66 5.13,0 5.63,-6.72 5.63,-8.66 h -11.82 l -0.04,-1.05 h 13.9 c 1.1,0 1.24,0 1.24,1.05 0,4.92 -2.69,9.75 -8.91,9.75 -5.78,0 -10.37,-5.12 -10.37,-11.36 0,-6.67 5.23,-11.5 10.97,-11.5 6.07,0 8.31,5.53 8.31,6.47 0,0.5 -0.39,0.61 -0.64,0.61 -0.46,0 -0.55,-0.3 -0.66,-0.7 -1.73,-5.13 -6.22,-5.13 -6.72,-5.13 -2.5,0 -4.48,1.49 -5.62,3.33 -1.5,2.39 -1.5,5.69 -1.5,7.48 z"
           id="path6841"
           style="fill:#000000;stroke-width:0" /><path
           d="m 500.11,427.67 v 5.78 c 0,4.39 2.39,6.78 4.58,6.78 0.16,0 0.91,0 1.66,-0.36 -0.61,-0.19 -1.5,-0.84 -1.5,-2.08 0,-1.15 0.79,-2.15 2.14,-2.15 1.44,0 2.19,1 2.19,2.2 0,1.84 -1.85,3.48 -4.49,3.48 -3.48,0 -7.72,-2.64 -7.72,-7.92 v -5.73 h -3.93 v -1.55 h 3.93 v -16.14 c 0,-2.23 -0.54,-2.23 -3.89,-2.23 v -1.55 c 1.96,0.05 4.3,0.16 5.69,0.16 1.98,0 4.33,0 6.33,-0.16 v 1.55 h -1.05 c -3.69,0 -3.78,0.54 -3.78,2.34 v 16.03 h 5.67 v 1.55 z"
           id="path6843"
           style="fill:#000000;stroke-width:0" /><path
           d="m 515.26,426.12 h 7.12 v 1.55 h -7.12 v 9.17 h -1.25 c -0.05,-4.08 -1.55,-9.42 -6.42,-9.61 v -1.11 h 4.23 v -13.75 c 0,-6.12 4.63,-6.72 6.42,-6.72 3.53,0 4.94,3.53 4.94,6.72 v 2.84 h -1.25 v -2.73 c 0,-3.69 -1.5,-5.58 -3.34,-5.58 -3.33,0 -3.33,4.53 -3.33,5.38 z"
           id="path6845"
           style="fill:#000000;stroke-width:0" /></g>    </g>
    <g
       transform="translate(187.88837,212.13203)"
       id="g6945">
      <g
         transform="matrix(1.0629921,0,0,-1.0629921,-186.02362,789.27165)"
         id="g6947"
         xml:space="preserve"
         style="font-style:normal;font-variant:normal;font-weight:normal;font-stretch:normal;letter-spacing:normal;word-spacing:normal;text-anchor:start;fill:none;stroke:#000000;stroke-linecap:butt;stroke-linejoin:miter;stroke-miterlimit:10.43299961;stroke-opacity:1;stroke-dasharray:none;stroke-dashoffset:0"><path
           d="m 463.83,422.75 v 5.46 l -6.92,-0.54 v -1.55 c 3.48,0 3.89,-0.34 3.89,-2.78 v -13.36 c 0,-2.23 -0.55,-2.23 -3.89,-2.23 v -1.55 c 1.95,0.05 4.28,0.16 5.69,0.16 1.98,0 4.33,0 6.33,-0.16 v 1.55 h -1.05 c -3.69,0 -3.8,0.54 -3.8,2.34 v 7.67 c 0,4.92 2.1,9.36 5.89,9.36 0.35,0 0.44,0 0.55,-0.05 -0.16,-0.04 -1.16,-0.64 -1.16,-1.93 0,-1.41 1.05,-2.14 2.16,-2.14 0.89,0 2.14,0.59 2.14,2.18 0,1.6 -1.55,3.03 -3.69,3.03 -3.64,0 -5.43,-3.32 -6.14,-5.46 z"
           id="path6949"
           style="fill:#000000;stroke-width:0" /><path
           d="m 483.89,428.21 -6.97,-0.54 v -1.55 c 3.24,0 3.69,-0.3 3.69,-2.73 v -13.41 c 0,-2.23 -0.55,-2.23 -3.89,-2.23 v -1.55 c 1.59,0.05 4.28,0.16 5.48,0.16 1.75,0 3.49,-0.11 5.19,-0.16 v 1.55 c -3.3,0 -3.5,0.25 -3.5,2.18 z"
           id="path6951"
           style="fill:#000000;stroke-width:0" /><path
           d="m 484.09,436.89 0,0.14 -0.01,0.15 -0.02,0.14 -0.02,0.14 -0.03,0.13 -0.04,0.13 -0.04,0.13 -0.05,0.12 -0.06,0.12 -0.06,0.12 -0.06,0.11 -0.07,0.1 -0.08,0.1 -0.08,0.1 -0.09,0.1 -0.08,0.08 -0.1,0.09 -0.1,0.08 -0.1,0.07 -0.1,0.07 -0.11,0.07 -0.11,0.06 -0.11,0.05 -0.12,0.05 -0.12,0.04 -0.12,0.04 -0.12,0.03 -0.12,0.03 -0.13,0.02 -0.13,0.01 -0.13,0.01 -0.13,0.01 c -1.54,0 -2.64,-1.35 -2.64,-2.64 0,-1.35 1.1,-2.64 2.64,-2.64 1.39,0 2.64,1.04 2.64,2.64 z"
           id="path6953"
           style="fill:#000000;stroke-width:0" /><path
           d="m 494.16,412.82 0,0.03 0,0.02 0,0.03 0,0.04 0,0.04 0,0.05 0,0.05 0.01,0.06 0,0.05 0.01,0.07 0.01,0.06 0.01,0.07 0.01,0.07 0.02,0.08 0.01,0.08 0.02,0.08 0.02,0.08 0.03,0.08 0.02,0.09 0.03,0.09 0.03,0.09 0.04,0.09 0.04,0.09 0.04,0.1 0.05,0.09 0.05,0.1 0.05,0.09 0.06,0.1 0.06,0.09 0.07,0.1 0.07,0.09 0.08,0.1 c 1.95,-1.39 3.98,-1.55 4.94,-1.55 v 1.14 c -4.35,0 -4.35,4.99 -4.35,6.14 0,1.35 0.07,2.94 0.8,4.17 0.41,0.61 1.55,2 3.55,2 4.33,0 4.33,-4.98 4.33,-6.12 0,-1.34 -0.05,-2.94 -0.8,-4.19 -0.39,-0.59 -1.55,-2 -3.53,-2 h 0 v -1.14 c 4.62,0 8.06,3.44 8.06,7.28 0,1.85 -0.8,3.69 -2.03,4.83 1.78,1.69 3.58,1.94 4.48,1.94 0.1,0 0.35,0 0.5,-0.05 -0.56,-0.2 -0.79,-0.75 -0.79,-1.34 0,-0.85 0.64,-1.44 1.43,-1.44 0.5,0 1.44,0.34 1.44,1.48 0,0.85 -0.59,2.44 -2.53,2.44 -1,0 -3.19,-0.3 -5.28,-2.33 -2.1,1.64 -4.19,1.78 -5.28,1.78 -4.64,0 -8.08,-3.43 -8.08,-7.26 0,-2.19 1.09,-4.09 2.34,-5.14 -0.64,-0.74 -1.54,-2.39 -1.54,-4.13 0,-1.54 0.65,-3.43 2.2,-4.43 -3,-0.85 -4.59,-2.99 -4.59,-4.99 0,-3.58 4.93,-6.33 11.01,-6.33 l 0.05,1.14 c -5.03,0 -8.47,2.55 -8.47,5.19 0,2.3 1.89,4.14 4.09,4.28 h 2.94 c 4.28,0 9.86,0 9.86,-4.28 0,-2.69 -3.53,-5.19 -8.42,-5.19 h 0 l -0.05,-1.14 c 5.88,0 11.06,2.55 11.06,6.43 0,1.75 -0.7,4.29 -3.23,5.68 -2.64,1.39 -5.53,1.39 -8.58,1.39 -1.25,0 -3.39,0 -3.73,0.05 -1.6,0.2 -2.64,1.75 -2.64,3.34 z"
           id="path6955"
           style="fill:#000000;stroke-width:0" /><path
           d="m 519.32,409.98 0,-0.1 -0.01,-0.1 0,-0.19 -0.01,-0.18 -0.01,-0.17 -0.02,-0.15 -0.03,-0.15 -0.03,-0.13 -0.03,-0.12 -0.04,-0.11 -0.05,-0.11 -0.06,-0.09 -0.06,-0.09 -0.08,-0.08 -0.08,-0.07 -0.09,-0.06 -0.1,-0.05 -0.1,-0.05 -0.12,-0.05 -0.13,-0.03 -0.14,-0.04 -0.16,-0.02 -0.16,-0.03 -0.18,-0.01 -0.09,-0.01 -0.1,-0.01 -0.09,-0.01 -0.11,0 -0.1,-0.01 -0.11,0 -0.12,0 -0.11,-0.01 -0.12,0 -0.13,0 -0.12,0 -0.14,0 -0.13,0 -0.14,0 -0.14,0 -0.15,0 -0.15,0 -0.15,0 v -1.55 c 1.75,0.05 4.28,0.16 5.62,0.16 1.3,0 3.89,-0.11 5.58,-0.16 v 1.55 c -3.33,0 -3.88,0 -3.88,2.23 v 9.17 c 0,5.19 3.53,7.97 6.72,7.97 3.14,0 3.69,-2.69 3.69,-5.53 v -11.61 c 0,-2.23 -0.55,-2.23 -3.89,-2.23 v -1.55 c 1.75,0.05 4.3,0.16 5.64,0.16 1.3,0 3.87,-0.11 5.58,-0.16 v 1.55 c -2.59,0 -3.84,0 -3.89,1.5 v 9.51 c 0,4.28 0,5.83 -1.55,7.61 -0.69,0.86 -2.34,1.84 -5.22,1.84 -4.18,0 -6.39,-2.98 -7.23,-4.87 v 17.44 l -7.17,-0.55 v -1.55 c 3.48,0 3.89,-0.34 3.89,-2.79 z"
           id="path6957"
           style="fill:#000000;stroke-width:0" /><path
           d="m 548.73,426.12 h 7.13 v 1.55 h -7.13 v 9.17 h -1.25 c -0.04,-4.08 -1.54,-9.42 -6.42,-9.61 v -1.11 h 4.24 v -13.75 c 0,-6.12 4.62,-6.72 6.42,-6.72 3.53,0 4.94,3.53 4.94,6.72 v 2.84 h -1.25 v -2.73 c 0,-3.69 -1.5,-5.58 -3.35,-5.58 -3.33,0 -3.33,4.53 -3.33,5.38 z"
           id="path6959"
           style="fill:#000000;stroke-width:0" /></g>    </g>
  </g>
</svg>
