<?xml version="1.0" encoding="UTF-8" standalone="no"?>
<!-- Created with Inkscape (http://www.inkscape.org/) -->

<svg
   xmlns:dc="http://purl.org/dc/elements/1.1/"
   xmlns:cc="http://creativecommons.org/ns#"
   xmlns:rdf="http://www.w3.org/1999/02/22-rdf-syntax-ns#"
   xmlns:svg="http://www.w3.org/2000/svg"
   xmlns="http://www.w3.org/2000/svg"
   xmlns:sodipodi="http://sodipodi.sourceforge.net/DTD/sodipodi-0.dtd"
   xmlns:inkscape="http://www.inkscape.org/namespaces/inkscape"
   width="210mm"
   height="297mm"
   id="svg3199"
   version="1.1"
   inkscape:version="0.48.3.1 r9886"
   sodipodi:docname="新規ドキュメント 5">
  <sodipodi:namedview
     id="base"
     pagecolor="#ffffff"
     bordercolor="#666666"
     borderopacity="1.0"
     inkscape:pageopacity="0.0"
     inkscape:pageshadow="2"
     inkscape:zoom="0.98994949"
     inkscape:cx="-186.68283"
     inkscape:cy="750.16435"
     inkscape:document-units="px"
     inkscape:current-layer="layer1"
     showgrid="false"
     inkscape:window-width="1920"
     inkscape:window-height="1058"
     inkscape:window-x="0"
     inkscape:window-y="22"
     inkscape:window-maximized="0" />
  <defs
     id="defs3201">
    <marker
       style="overflow:visible"
       id="Arrow1Lend"
       orient="auto"
       refY="0"
       refX="0">
      <path
         style="fill-rule:evenodd;stroke:#000000;stroke-width:1pt"
         id="path4800"
         transform="matrix(-0.8,0,0,-0.8,-10,0)"
         d="M 0,0 5,-5 -12.5,0 5,5 0,0 z"
         inkscape:connector-curvature="0" />
    </marker>
    <marker
       style="overflow:visible"
       id="Arrow1Lstart"
       orient="auto"
       refY="0"
       refX="0">
      <path
         style="fill-rule:evenodd;stroke:#000000;stroke-width:1pt"
         id="path8130"
         transform="matrix(0.8,0,0,0.8,10,0)"
         d="M 0,0 5,-5 -12.5,0 5,5 0,0 z"
         inkscape:connector-curvature="0" />
    </marker>
    <marker
       style="overflow:visible"
       id="Arrow1Lend-2"
       orient="auto"
       refY="0"
       refX="0">
      <path
         style="fill-rule:evenodd;stroke:#000000;stroke-width:1pt"
         id="path4800-6"
         transform="matrix(-0.8,0,0,-0.8,-10,0)"
         d="M 0,0 5,-5 -12.5,0 5,5 0,0 z"
         inkscape:connector-curvature="0" />
    </marker>
    <marker
       style="overflow:visible"
       id="Arrow1Lend-5"
       orient="auto"
       refY="0"
       refX="0">
      <path
         style="fill-rule:evenodd;stroke:#000000;stroke-width:1pt"
         id="path4800-5"
         transform="matrix(-0.8,0,0,-0.8,-10,0)"
         d="M 0,0 5,-5 -12.5,0 5,5 0,0 z"
         inkscape:connector-curvature="0" />
    </marker>
    <marker
       style="overflow:visible"
       id="Arrow1LendJ"
       orient="auto"
       refY="0"
       refX="0"
       inkscape:stockid="Arrow1LendJ">
      <path
         style="stroke:#00ff00;stroke-width:1pt;fill:#00ff00;fill-rule:evenodd"
         id="path5042"
         transform="matrix(-0.8,0,0,-0.8,-10,0)"
         d="M 0,0 5,-5 -12.5,0 5,5 0,0 z"
         inkscape:connector-curvature="0" />
    </marker>
    <marker
       style="overflow:visible"
       id="Arrow1LendG"
       orient="auto"
       refY="0"
       refX="0"
       inkscape:stockid="Arrow1LendG">
      <path
         style="stroke:#00ff00;stroke-width:1pt;fill:#00ff00;fill-rule:evenodd"
         id="path5045"
         transform="matrix(-0.8,0,0,-0.8,-10,0)"
         d="M 0,0 5,-5 -12.5,0 5,5 0,0 z"
         inkscape:connector-curvature="0" />
    </marker>
    <marker
       style="overflow:visible"
       id="Arrow1LendJR"
       orient="auto"
       refY="0"
       refX="0"
       inkscape:stockid="Arrow1LendJR">
      <path
         style="fill-rule:evenodd;stroke:#008000;stroke-width:1pt;fill:#008000"
         id="path5197"
         transform="matrix(-0.8,0,0,-0.8,-10,0)"
         d="M 0,0 5,-5 -12.5,0 5,5 0,0 z"
         inkscape:connector-curvature="0" />
    </marker>
    <marker
       style="overflow:visible"
       id="Arrow1LendGw"
       orient="auto"
       refY="0"
       refX="0"
       inkscape:stockid="Arrow1LendGw">
      <path
         style="fill-rule:evenodd;stroke:#008000;stroke-width:1pt;fill:#008000"
         id="path5200"
         transform="matrix(-0.8,0,0,-0.8,-10,0)"
         d="M 0,0 5,-5 -12.5,0 5,5 0,0 z"
         inkscape:connector-curvature="0" />
    </marker>
  </defs>
  <metadata
     id="metadata3204">
    <rdf:RDF>
      <cc:Work
         rdf:about="">
        <dc:format>image/svg+xml</dc:format>
        <dc:type
           rdf:resource="http://purl.org/dc/dcmitype/StillImage" />
        <dc:title></dc:title>
      </cc:Work>
    </rdf:RDF>
  </metadata>
  <g
     id="layer1"
     inkscape:groupmode="layer"
     inkscape:label="レイヤー 1">
    <path
       style="font-style:normal;font-variant:normal;font-weight:normal;font-stretch:normal;letter-spacing:normal;word-spacing:normal;text-anchor:start;fill:#ff0000;stroke:#000000;stroke-width:0;stroke-linecap:butt;stroke-linejoin:miter;stroke-miterlimit:10.43299960999999954;stroke-opacity:1;stroke-dasharray:none;stroke-dashoffset:0"
       id="path6408"
       d="m -476.93537,105.72041 h 5.13425 c 3.98622,0 4.40079,0.85039 4.40079,2.3811 0,0.38268 0,1.00984 -0.36142,2.5937 -0.11693,0.26575 -0.17007,0.47835 -0.17007,0.59528 0,0.41456 0.31889,0.62716 0.63779,0.62716 0.5315,0 0.5315,-0.15945 0.79724,-1.11614 l 2.92323,-11.490945 c 0.14882,-0.574016 0.14882,-0.690945 0.14882,-0.839764 0,-0.106299 -0.1063,-0.584646 -0.63779,-0.584646 -0.5315,0 -0.57402,0.265748 -0.79725,1.116142 -1.10551,4.113783 -2.31732,5.081103 -6.82441,5.081103 h -4.81535 l 3.39094,-13.457481 c 0.45709,-1.860236 0.5315,-2.062205 2.84882,-2.062205 h 6.99449 c 6.51614,0 7.72795,1.743307 7.72795,5.814567 0,1.233071 0,1.43504 -0.14882,2.870079 -0.11692,0.690945 -0.11692,0.786614 -0.11692,0.956693 0,0.265748 0.15944,0.627165 0.64842,0.627165 0.57402,0 0.62717,-0.318898 0.73346,-1.32874 l 1.063,-9.152362 c 0.15945,-1.424409 -0.1063,-1.424409 -1.43504,-1.424409 h -25.93701 c -1.06299,0 -1.59449,0 -1.59449,1.062992 0,0.574015 0.47835,0.574015 1.47756,0.574015 1.95591,0 3.43347,0 3.43347,0.946063 0,0.223229 0,0.318898 -0.26575,1.286221 l -6.97323,27.999212 c -0.5315,2.07283 -0.64843,2.4874 -4.83661,2.4874 -0.89292,0 -1.47756,0 -1.47756,1.02047 0,0.62717 0.62716,0.62717 0.79724,0.62717 1.53071,0 5.45315,-0.17008 6.99449,-0.17008 1.74331,0 6.14409,0.17008 7.8874,0.17008 0.47835,0 1.11614,0 1.11614,-1.00984 0,-0.41457 -0.3189,-0.52087 -0.3189,-0.58465 -0.17007,-0.0531 -0.26574,-0.0531 -1.47756,-0.0531 -1.17992,0 -1.44566,0 -2.75314,-0.0957 -1.55197,-0.17008 -1.70079,-0.38268 -1.70079,-1.06299 0,-0.0957 0,-0.43583 0.20197,-1.21181 z"
       inkscape:connector-curvature="0" />
    <path
       style="font-style:normal;font-variant:normal;font-weight:normal;font-stretch:normal;letter-spacing:normal;word-spacing:normal;text-anchor:start;fill:#000000;stroke:#000000;stroke-width:0;stroke-linecap:butt;stroke-linejoin:miter;stroke-miterlimit:10.43299961;stroke-opacity:1;stroke-dasharray:none;stroke-dashoffset:0"
       id="path6410"
       d="m -434.00112,135.633 0,-0.0213 0,-0.0319 0,-0.0106 0,-0.0213 0,-0.0106 -0.0106,-0.0213 0,-0.0106 -0.0106,-0.0213 -0.0106,-0.0213 -0.0106,-0.0213 -0.0106,-0.0213 -0.0213,-0.0319 -0.0106,-0.0213 -0.0213,-0.0319 -0.0213,-0.0319 -0.0319,-0.0319 -0.0213,-0.0319 -0.0319,-0.0425 -0.0213,-0.0213 -0.0106,-0.0213 -0.0213,-0.0213 -0.0213,-0.0213 -0.0213,-0.0213 -0.0213,-0.0319 -0.0213,-0.0213 -0.0213,-0.0213 -0.0213,-0.0319 -0.0319,-0.0213 -0.0213,-0.0319 -0.0319,-0.0319 -0.0319,-0.0319 -0.0213,-0.0319 -0.0319,-0.0319 -0.0319,-0.0319 -0.0319,-0.0319 -0.0319,-0.0319 -0.0425,-0.0425 -0.0319,-0.0319 -0.0425,-0.0425 -0.0319,-0.0319 -0.0425,-0.0425 -0.0425,-0.0425 c -6.61181,-6.67559 -8.30197,-16.67834 -8.30197,-24.77834 0,-9.21614 2.00906,-18.442916 8.51457,-25.044097 0.68031,-0.648425 0.68031,-0.754724 0.68031,-0.914173 0,-0.372047 -0.19134,-0.520866 -0.51023,-0.520866 -0.5315,0 -5.2937,3.592913 -8.4189,10.311023 -2.71063,5.835827 -3.3378,11.714173 -3.3378,16.168113 0,4.13504 0.57402,10.52362 3.48662,16.51889 3.16771,6.51615 7.73858,9.94961 8.27008,9.94961 0.31889,0 0.51023,-0.14882 0.51023,-0.5315 z"
       inkscape:connector-curvature="0" />
    <path
       style="font-style:normal;font-variant:normal;font-weight:normal;font-stretch:normal;letter-spacing:normal;word-spacing:normal;text-anchor:start;fill:#000000;stroke:#000000;stroke-width:0;stroke-linecap:butt;stroke-linejoin:miter;stroke-miterlimit:10.43299961;stroke-opacity:1;stroke-dasharray:none;stroke-dashoffset:0"
       id="path6412"
       d="m -405.31096,101.16017 -4.43268,-10.534251 c -0.17008,-0.435827 -0.26575,-0.627165 -0.26575,-0.680315 0,-0.329527 0.89292,-1.32874 3.1252,-1.541338 0.5315,-0.05315 1.06299,-0.1063 1.06299,-1.020473 0,-0.627165 -0.64842,-0.627165 -0.79724,-0.627165 -2.17913,0 -4.45394,0.170079 -6.67559,0.170079 -1.32874,0 -4.60276,-0.170079 -5.9315,-0.170079 -0.31889,0 -0.96732,0 -0.96732,1.062992 0,0.584646 0.5315,0.584646 1.23307,0.584646 3.16772,0 3.48662,0.531496 3.96496,1.690157 l 6.2504,14.786217 -11.18268,12.02244 -0.68032,0.58465 c -2.5937,2.8063 -5.0811,3.64606 -7.79173,3.79488 -0.68031,0.0531 -1.15866,0.0531 -1.15866,1.06299 0,0.0532 0,0.58465 0.70157,0.58465 1.57323,0 3.31654,-0.17008 4.96418,-0.17008 1.9559,0 4.02874,0.17008 5.93149,0.17008 0.32953,0 0.9567,0 0.9567,-1.06299 0,-0.5315 -0.5315,-0.58465 -0.62717,-0.58465 -0.47835,-0.0425 -2.12598,-0.14882 -2.12598,-1.63701 0,-0.85039 0.79724,-1.70078 1.42441,-2.3811 l 5.4,-5.72953 4.7622,-5.17677 5.35748,12.64961 c 0.2126,0.58464 0.26575,0.63779 0.26575,0.75472 0,0.41457 -0.99921,1.30748 -3.07205,1.52008 -0.58464,0.0531 -1.05236,0.11693 -1.05236,1.02047 0,0.62717 0.58465,0.62717 0.78661,0.62717 1.48819,0 5.19804,-0.17008 6.67559,-0.17008 1.32874,0 4.54961,0.17008 5.87835,0.17008 0.36142,0 1.00984,0 1.00984,-1.00984 0,-0.6378 -0.53149,-0.6378 -0.96732,-0.6378 -3.52913,-0.0425 -3.64606,-0.2126 -4.54961,-2.31732 -2.05157,-4.93228 -5.61259,-13.19173 -6.8244,-16.35945 3.60354,-3.720472 9.15236,-10.024015 10.84251,-11.501574 1.55197,-1.275591 3.56103,-2.540552 6.72874,-2.7 0.70158,-0.05315 1.1693,-0.05315 1.1693,-1.062993 0,-0.05315 0,-0.584645 -0.68032,-0.584645 -1.59449,0 -3.33779,0.170079 -4.98543,0.170079 -1.96654,0 -3.97559,-0.170079 -5.87835,-0.170079 -0.3189,0 -0.99921,0 -0.99921,1.062992 0,0.361417 0.26575,0.531496 0.62716,0.584646 0.48898,0.04252 2.12599,0.159448 2.12599,1.637007 0,0.754725 -0.57402,1.43504 -1.00984,1.913386 z"
       inkscape:connector-curvature="0" />
    <path
       style="font-style:normal;font-variant:normal;font-weight:normal;font-stretch:normal;letter-spacing:normal;word-spacing:normal;text-anchor:start;fill:#000000;stroke:#000000;stroke-width:0;stroke-linecap:butt;stroke-linejoin:miter;stroke-miterlimit:10.43299961;stroke-opacity:1;stroke-dasharray:none;stroke-dashoffset:0"
       id="path6414"
       d="m -367.596,109.696 -0.0106,-0.39331 0,-0.41457 -0.0106,-0.41456 -0.0106,-0.43583 -0.0425,-0.89291 -0.0638,-0.93544 -0.0957,-0.97795 -0.1063,-1.00984 -0.14882,-1.0311 -0.17008,-1.07363 -0.21259,-1.08425 -0.24449,-1.09488 -0.27638,-1.116142 -0.32953,-1.126771 -0.37204,-1.137402 -0.41457,-1.137402 -0.22323,-0.563385 -0.24449,-0.563386 -0.25512,-0.563386 -0.26574,-0.563386 c -3.16772,-6.505511 -7.71733,-9.949606 -8.24882,-9.949606 -0.3189,0 -0.5315,0.201969 -0.5315,0.520866 0,0.159449 0,0.265748 0.98858,1.222441 5.20866,5.229921 8.22756,13.659449 8.22756,24.735829 0,9.04606 -1.9559,18.3685 -8.53582,25.04409 -0.68032,0.62717 -0.68032,0.7441 -0.68032,0.89291 0,0.3189 0.2126,0.5315 0.5315,0.5315 0.53149,0 5.28307,-3.60354 8.41889,-10.32165 2.68937,-5.81457 3.32717,-11.69292 3.32717,-16.14685 z"
       inkscape:connector-curvature="0" />
    <g
       id="g6532"
       transform="translate(-404.64396,-229.70677)">
      <g
         style="font-style:normal;font-variant:normal;font-weight:normal;font-stretch:normal;letter-spacing:normal;word-spacing:normal;text-anchor:start;fill:none;stroke:#000000;stroke-linecap:butt;stroke-linejoin:miter;stroke-miterlimit:10.43299961;stroke-opacity:1;stroke-dasharray:none;stroke-dashoffset:0"
         xml:space="preserve"
         id="g6534"
         transform="matrix(1.0629921,0,0,-1.0629921,-186.02362,789.27165)"><path
           style="fill:#000000;stroke-width:0"
           id="path6536"
           d="m 485.27,434.54 0.69,0.71 c 1.5,1.5 3.14,3.18 6.53,3.43 0.55,0.05 1,0.05 1,0.96 0,0.39 -0.25,0.59 -0.66,0.59 -1.29,0 -2.73,-0.16 -4.08,-0.16 -1.64,0 -3.39,0.16 -4.98,0.16 -0.3,0 -0.95,0 -0.95,-0.95 0,-0.55 0.5,-0.6 0.75,-0.6 0.34,0 1.79,-0.09 1.79,-1.14 0,-0.86 -1.14,-2.14 -1.34,-2.39 l -11.56,-13.31 -5.49,14.8 c -0.29,0.7 -0.29,0.79 -0.29,0.84 0,1.2 2.43,1.2 2.93,1.2 0.71,0 1.21,0 1.21,1 0,0.55 -0.6,0.55 -0.75,0.55 -1.39,0 -4.88,-0.16 -6.28,-0.16 -1.24,0 -4.33,0.16 -5.58,0.16 -0.3,0 -0.94,0 -0.94,-1 0,-0.55 0.48,-0.55 1.14,-0.55 2.98,0 3.19,-0.45 3.64,-1.68 l 6.13,-16.41 c 0.04,-0.14 0.2,-0.69 0.2,-0.84 0,-0.14 -2,-8.18 -2.25,-9.07 -0.64,-2.73 -0.69,-2.89 -4.69,-2.93 -0.94,0 -1.34,0 -1.34,-1 0,-0.55 0.61,-0.55 0.7,-0.55 1.39,0 4.88,0.16 6.28,0.16 1.39,0 4.99,-0.16 6.38,-0.16 0.34,0 0.93,0 0.93,1 0,0.55 -0.43,0.55 -1.39,0.55 -0.09,0 -1.04,0 -1.89,0.09 -1.04,0.11 -1.34,0.2 -1.34,0.8 0,0.36 0.45,2.09 0.7,3.14 l 1.74,7.03 c 0.25,0.94 0.29,1.09 0.7,1.55 z"
           inkscape:connector-curvature="0" /></g>    </g>
    <g
       id="g7202"
       transform="translate(-267.02032,-229.63236)">
      <g
         style="font-style:normal;font-variant:normal;font-weight:normal;font-stretch:normal;letter-spacing:normal;word-spacing:normal;text-anchor:start;fill:none;stroke:#000000;stroke-linecap:butt;stroke-linejoin:miter;stroke-miterlimit:10.43299961;stroke-opacity:1;stroke-dasharray:none;stroke-dashoffset:0"
         xml:space="preserve"
         id="g7204"
         transform="matrix(1.0629921,0,0,-1.0629921,-186.02362,789.27165)"><path
           style="fill:#000000;stroke-width:0"
           id="path7206"
           d="m 464.33,428.21 -6.97,-0.54 v -1.55 c 3.24,0 3.69,-0.3 3.69,-2.73 v -13.41 c 0,-2.23 -0.55,-2.23 -3.89,-2.23 v -1.55 c 1.59,0.05 4.28,0.16 5.48,0.16 1.75,0 3.49,-0.11 5.19,-0.16 v 1.55 c -3.29,0 -3.5,0.25 -3.5,2.18 z"
           inkscape:connector-curvature="0" /><path
           style="fill:#000000;stroke-width:0"
           id="path7208"
           d="m 464.54,436.89 -0.01,0.14 -0.01,0.15 -0.02,0.14 -0.02,0.14 -0.03,0.13 -0.04,0.13 -0.04,0.13 -0.05,0.12 -0.06,0.12 -0.06,0.12 -0.06,0.11 -0.07,0.1 -0.08,0.1 -0.08,0.1 -0.08,0.1 -0.09,0.08 -0.1,0.09 -0.09,0.08 -0.1,0.07 -0.11,0.07 -0.11,0.07 -0.11,0.06 -0.11,0.05 -0.12,0.05 -0.11,0.04 -0.13,0.04 -0.12,0.03 -0.12,0.03 -0.13,0.02 -0.13,0.01 -0.13,0.01 -0.13,0.01 c -1.54,0 -2.64,-1.35 -2.64,-2.64 0,-1.35 1.1,-2.64 2.64,-2.64 1.4,0 2.65,1.04 2.65,2.64 z"
           inkscape:connector-curvature="0" /><path
           style="fill:#000000;stroke-width:0"
           id="path7210"
           d="m 474.8,423.34 v -13.36 c 0,-2.23 -0.55,-2.23 -3.89,-2.23 v -1.55 c 1.75,0.05 4.28,0.16 5.63,0.16 1.29,0 3.89,-0.11 5.57,-0.16 v 1.55 c -3.32,0 -3.87,0 -3.87,2.23 v 9.17 c 0,5.19 3.53,7.97 6.72,7.97 3.14,0 3.68,-2.69 3.68,-5.53 v -11.61 c 0,-2.23 -0.54,-2.23 -3.89,-2.23 v -1.55 c 1.75,0.05 4.3,0.16 5.64,0.16 1.3,0 3.88,-0.11 5.58,-0.16 v 1.55 c -2.59,0 -3.84,0 -3.89,1.5 v 9.51 c 0,4.28 0,5.83 -1.54,7.61 -0.69,0.86 -2.35,1.84 -5.22,1.84 -3.64,0 -5.99,-2.14 -7.38,-5.21 v 5.21 l -7.03,-0.54 v -1.55 c 3.48,0 3.89,-0.34 3.89,-2.78 z"
           inkscape:connector-curvature="0" /><path
           style="fill:#000000;stroke-width:0"
           id="path7212"
           d="m 521.04,438.03 v -29.49 h -5.39 v -2.34 h 21.49 c 9.81,0 17.28,6.12 17.28,16.8 0,10.95 -7.47,17.37 -17.35,17.37 l -1.98,-2.34 c 3.28,0 7.42,-0.94 9.86,-4.42 1.75,-2.55 2.14,-5.94 2.14,-10.57 0,-5.43 -0.59,-8.08 -2.19,-10.31 -2.39,-3.39 -6.78,-4.19 -9.81,-4.19 h -7.28 v 29.49 h 7.28 l 1.98,2.34 h -21.42 v -2.34 z"
           inkscape:connector-curvature="0" /></g>    </g>
    <path
       style="fill:none;stroke:#000000;stroke-width:1px;stroke-linecap:butt;stroke-linejoin:miter;stroke-opacity:1;marker-end:url(#Arrow1Lend)"
       id="path8619"
       d="m -348.74046,109.69068 182.85715,0"
       inkscape:connector-curvature="0" />
    <g
       id="g7078"
       transform="translate(-255.66501,-82.675125)">
      <g
         style="font-style:normal;font-variant:normal;font-weight:normal;font-stretch:normal;letter-spacing:normal;word-spacing:normal;text-anchor:start;fill:none;stroke:#000000;stroke-linecap:butt;stroke-linejoin:miter;stroke-miterlimit:10.43299961;stroke-opacity:1;stroke-dasharray:none;stroke-dashoffset:0"
         xml:space="preserve"
         id="g7080"
         transform="matrix(1.0629921,0,0,-1.0629921,-196.02362,760.70022)"><path
           style="fill:#000000;stroke-width:0"
           id="path7082"
           d="m 464.33,428.21 -6.97,-0.54 v -1.55 c 3.24,0 3.69,-0.3 3.69,-2.73 v -13.41 c 0,-2.23 -0.55,-2.23 -3.89,-2.23 v -1.55 c 1.59,0.05 4.28,0.16 5.48,0.16 1.75,0 3.49,-0.11 5.19,-0.16 v 1.55 c -3.29,0 -3.5,0.25 -3.5,2.18 z"
           inkscape:connector-curvature="0" /><path
           style="fill:#000000;stroke-width:0"
           id="path7084"
           d="m 464.54,436.89 -0.01,0.14 -0.01,0.15 -0.02,0.14 -0.02,0.14 -0.03,0.13 -0.04,0.13 -0.04,0.13 -0.05,0.12 -0.06,0.12 -0.06,0.12 -0.06,0.11 -0.07,0.1 -0.08,0.1 -0.08,0.1 -0.08,0.1 -0.09,0.08 -0.1,0.09 -0.09,0.08 -0.1,0.07 -0.11,0.07 -0.11,0.07 -0.11,0.06 -0.11,0.05 -0.12,0.05 -0.11,0.04 -0.13,0.04 -0.12,0.03 -0.12,0.03 -0.13,0.02 -0.13,0.01 -0.13,0.01 -0.13,0.01 c -1.54,0 -2.64,-1.35 -2.64,-2.64 0,-1.35 1.1,-2.64 2.64,-2.64 1.4,0 2.65,1.04 2.65,2.64 z"
           inkscape:connector-curvature="0" /><path
           style="fill:#000000;stroke-width:0"
           id="path7086"
           d="m 474.8,423.34 v -13.36 c 0,-2.23 -0.55,-2.23 -3.89,-2.23 v -1.55 c 1.75,0.05 4.28,0.16 5.63,0.16 1.29,0 3.89,-0.11 5.57,-0.16 v 1.55 c -3.32,0 -3.87,0 -3.87,2.23 v 9.17 c 0,5.19 3.53,7.97 6.72,7.97 3.14,0 3.68,-2.69 3.68,-5.53 v -11.61 c 0,-2.23 -0.54,-2.23 -3.89,-2.23 v -1.55 c 1.75,0.05 4.3,0.16 5.64,0.16 1.3,0 3.88,-0.11 5.58,-0.16 v 1.55 c -2.59,0 -3.84,0 -3.89,1.5 v 9.51 c 0,4.28 0,5.83 -1.54,7.61 -0.69,0.86 -2.35,1.84 -5.22,1.84 -3.64,0 -5.99,-2.14 -7.38,-5.21 v 5.21 l -7.03,-0.54 v -1.55 c 3.48,0 3.89,-0.34 3.89,-2.78 z"
           inkscape:connector-curvature="0" /><path
           style="fill:#000000;stroke-width:0"
           id="path7088"
           d="m 551.87,439.53 0,0.08 0,0.09 0,0.08 0,0.08 0,0.08 0,0.07 -0.01,0.07 0,0.07 -0.01,0.06 -0.01,0.06 -0.01,0.06 -0.01,0.06 -0.01,0.05 -0.01,0.05 -0.02,0.05 -0.02,0.04 -0.02,0.04 -0.03,0.04 -0.03,0.04 -0.03,0.03 -0.03,0.03 -0.04,0.03 -0.04,0.02 -0.04,0.02 -0.05,0.02 -0.03,0.01 -0.03,0.01 -0.03,0.01 -0.02,0.01 -0.03,0 -0.04,0.01 -0.03,0 -0.03,0.01 -0.04,0 -0.03,0 -0.04,0.01 -0.04,0 -0.04,0 -0.04,0 c -0.45,0 -0.55,-0.1 -0.95,-0.44 l -3.28,-2.94 c -3.1,2.49 -6.43,3.38 -9.82,3.38 -12.4,0 -20.03,-7.42 -20.03,-17.63 0,-10.22 7.63,-17.64 20.03,-17.64 9.32,0 14.94,6.13 14.94,11.86 0,1 -0.34,1.05 -1.19,1.05 -0.65,0 -1.09,0 -1.14,-0.85 -0.36,-6.68 -6.39,-9.71 -11.42,-9.71 -3.87,0 -8.06,1.18 -10.65,4.23 -2.35,2.84 -2.94,6.58 -2.94,11.06 0,2.78 0.14,8.17 3.28,11.46 3.25,3.28 7.58,3.84 10.17,3.84 5.37,0 10.11,-3.8 11.2,-10.13 0.16,-0.93 0.21,-1.04 1.35,-1.04 1.29,0 1.34,0.11 1.34,1.4 z"
           inkscape:connector-curvature="0" /></g>    </g>
    <path
       style="font-style:normal;font-variant:normal;font-weight:normal;font-stretch:normal;letter-spacing:normal;word-spacing:normal;text-anchor:start;fill:#000000;stroke:#000000;stroke-width:0;stroke-linecap:butt;stroke-linejoin:miter;stroke-miterlimit:10.43299961;stroke-opacity:1;stroke-dasharray:none;stroke-dashoffset:0"
       id="path6472"
       d="m -426.84187,224.39322 -4.44331,-10.53425 c -0.15945,-0.43583 -0.26574,-0.62717 -0.26574,-0.68032 0,-0.32952 0.90354,-1.32874 3.12519,-1.54133 0.5315,-0.0531 1.06299,-0.1063 1.06299,-1.02048 0,-0.62716 -0.64842,-0.62716 -0.79724,-0.62716 -2.17913,0 -4.45394,0.17008 -6.67559,0.17008 -1.32874,0 -4.60276,-0.17008 -5.9315,-0.17008 -0.30826,0 -0.95669,0 -0.95669,1.06299 0,0.58465 0.5315,0.58465 1.22244,0.58465 3.17835,0 3.48662,0.53149 3.97559,1.69015 l 6.23977,14.78622 -11.17205,12.02244 -0.68032,0.58465 c -2.5937,2.8063 -5.09173,3.64606 -7.79173,3.79488 -0.68031,0.0532 -1.16929,0.0532 -1.16929,1.06299 0,0.0531 0,0.58465 0.70158,0.58465 1.57322,0 3.31653,-0.17008 4.96417,-0.17008 1.96653,0 4.03937,0.17008 5.93149,0.17008 0.32953,0 0.96733,0 0.96733,-1.06299 0,-0.5315 -0.5315,-0.58465 -0.6378,-0.58465 -0.47834,-0.0425 -2.12598,-0.14882 -2.12598,-1.63701 0,-0.85039 0.79724,-1.70078 1.43504,-2.3811 l 5.38937,-5.72953 4.77283,-5.17677 5.34685,12.64961 c 0.2126,0.58464 0.26575,0.63779 0.26575,0.75472 0,0.41457 -0.99921,1.30748 -3.07205,1.52008 -0.58464,0.0532 -1.05236,0.11693 -1.05236,1.02047 0,0.62717 0.58465,0.62717 0.78661,0.62717 1.49882,0 5.19804,-0.17008 6.6756,-0.17008 1.32874,0 4.5496,0.17008 5.87834,0.17008 0.37205,0 1.00984,0 1.00984,-1.00984 0,-0.6378 -0.53149,-0.6378 -0.95669,-0.6378 -3.53976,-0.0425 -3.65669,-0.2126 -4.54961,-2.31732 -2.0622,-4.93228 -5.61259,-13.19173 -6.8244,-16.35945 3.60354,-3.72047 9.14173,-10.02402 10.84252,-11.50157 1.54133,-1.2756 3.55039,-2.54056 6.72874,-2.7 0.69094,-0.0531 1.15866,-0.0531 1.15866,-1.063 0,-0.0531 0,-0.58464 -0.68032,-0.58464 -1.59449,0 -3.33779,0.17008 -4.98543,0.17008 -1.95591,0 -3.96496,-0.17008 -5.87835,-0.17008 -0.3189,0 -0.99921,0 -0.99921,1.06299 0,0.36142 0.26575,0.5315 0.63779,0.58465 0.47835,0.0425 2.12599,0.15944 2.12599,1.637 0,0.75473 -0.58465,1.43504 -1.02047,1.91339 z"
       inkscape:connector-curvature="0" />
    <path
       style="font-style:normal;font-variant:normal;font-weight:normal;font-stretch:normal;letter-spacing:normal;word-spacing:normal;text-anchor:start;fill:#0000ff;stroke:#000000;stroke-width:0;stroke-linecap:butt;stroke-linejoin:miter;stroke-miterlimit:10.43299960999999954;stroke-opacity:1;stroke-dasharray:none;stroke-dashoffset:0"
       id="path6606"
       d="m -106.42153,204.51526 0,-0.0213 0,-0.0213 0,-0.0106 -0.0106,-0.0213 0,-0.0213 0,-0.0213 -0.0106,-0.0213 0,-0.0213 -0.0106,-0.0213 -0.0106,-0.0213 -0.0106,-0.0213 0,-0.0213 -0.0213,-0.0213 -0.0106,-0.0213 -0.0106,-0.0213 -0.0106,-0.0213 -0.0213,-0.0213 -0.0213,-0.0213 -0.0213,-0.0213 -0.0213,-0.0213 -0.0213,-0.0106 -0.0213,-0.0213 -0.0319,-0.0106 -0.0213,-0.0213 -0.0319,-0.0106 -0.0106,-0.0106 -0.0213,0 -0.0106,-0.0106 -0.0212,0 -0.0213,-0.0106 -0.0106,0 -0.0213,0 -0.0213,-0.0106 -0.0213,0 -0.0213,0 -0.0213,0 -0.0213,0 -0.0213,0 -0.0213,0 c -0.14882,0 -0.2126,0.0425 -0.79725,0.62716 l -3.69921,4.08189 c -0.46772,-0.74409 -2.9126,-4.70905 -8.79094,-4.70905 -11.80985,0 -23.73662,11.70354 -23.73662,23.9811 0,8.4189 5.88898,14.50984 14.46732,14.50984 2.32796,0 4.71969,-0.47835 6.61182,-1.25433 2.65748,-1.06299 3.65669,-2.17913 4.62401,-3.24213 0.47835,1.32874 1.83898,3.28465 2.37047,3.28465 0.26575,0 0.38268,-0.15945 0.38268,-0.2126 0.0957,-0.0957 0.62717,-2.10472 0.89291,-3.22087 l 0.99922,-4.08188 c 0.21259,-0.90355 0.47834,-1.79646 0.70157,-2.71063 0.57402,-2.38111 0.62717,-2.47678 3.64606,-2.54056 0.26575,0 0.8504,-0.0532 0.8504,-1.05236 0,-0.38268 -0.26575,-0.57401 -0.68032,-0.57401 -1.23307,0 -4.34764,0.14882 -5.55945,0.14882 -1.64763,0 -5.78267,-0.14882 -7.43031,-0.14882 -0.46772,0 -1.10551,0 -1.10551,1.04173 0,0.58464 0.42519,0.58464 1.59449,0.58464 0.0425,0 1.59448,0 2.80629,0.11693 1.37126,0.14882 1.63701,0.30827 1.63701,0.99922 0,0.47834 -0.57401,2.87007 -1.10551,4.81535 -1.47756,5.8252 -8.37638,6.40984 -10.23661,6.40984 -5.08111,0 -10.62992,-3.00827 -10.62992,-11.11889 0,-1.63701 0.52086,-10.37481 6.08031,-17.27363 2.85945,-3.60354 8.00433,-6.82441 13.23425,-6.82441 5.42126,0 8.53583,4.07126 8.53583,10.21536 0,2.12598 -0.15945,2.17913 -0.15945,2.71063 0,0.53149 0.57402,0.53149 0.79724,0.53149 0.68032,0 0.68032,-0.11692 0.94607,-1.06299 z"
       inkscape:connector-curvature="0" />
    <path
       style="font-style:normal;font-variant:normal;font-weight:normal;font-stretch:normal;letter-spacing:normal;word-spacing:normal;text-anchor:start;fill:#000000;stroke:#000000;stroke-width:0;stroke-linecap:butt;stroke-linejoin:miter;stroke-miterlimit:10.43299961;stroke-opacity:1;stroke-dasharray:none;stroke-dashoffset:0"
       id="path6608"
       d="m -87.564048,254.0188 0,-0.0213 0,-0.0319 0,-0.0106 0,-0.0213 -0.01063,-0.0106 0,-0.0213 -0.01063,-0.0106 0,-0.0213 -0.01063,-0.0213 -0.01063,-0.0213 -0.02126,-0.0213 -0.01063,-0.0319 -0.02126,-0.0213 -0.01063,-0.0319 -0.03189,-0.0319 -0.02126,-0.0319 -0.03189,-0.0319 -0.03189,-0.0425 -0.01063,-0.0213 -0.02126,-0.0213 -0.01063,-0.0213 -0.02126,-0.0213 -0.02126,-0.0213 -0.02126,-0.0319 -0.02126,-0.0213 -0.03189,-0.0213 -0.02126,-0.0319 -0.02126,-0.0213 -0.03189,-0.0319 -0.02126,-0.0319 -0.03189,-0.0319 -0.03189,-0.0319 -0.02126,-0.0319 -0.03189,-0.0319 -0.04252,-0.0319 -0.03189,-0.0319 -0.03189,-0.0425 -0.03189,-0.0319 -0.04252,-0.0425 -0.04252,-0.0319 -0.03189,-0.0425 -0.04252,-0.0425 c -6.611811,-6.67559 -8.312598,-16.67834 -8.312598,-24.77834 0,-9.21614 2.019685,-18.44292 8.525196,-25.0441 0.680315,-0.64842 0.680315,-0.75472 0.680315,-0.91417 0,-0.37205 -0.201968,-0.52087 -0.510236,-0.52087 -0.531496,0 -5.304331,3.59292 -8.429527,10.31103 -2.7,5.83582 -3.337796,11.71417 -3.337796,16.16811 0,4.13504 0.584646,10.52362 3.497244,16.51889 3.167717,6.51615 7.738583,9.94961 8.270079,9.94961 0.308268,0 0.510236,-0.14882 0.510236,-0.5315 z"
       inkscape:connector-curvature="0" />
    <path
       style="font-style:normal;font-variant:normal;font-weight:normal;font-stretch:normal;letter-spacing:normal;word-spacing:normal;text-anchor:start;fill:#000000;stroke:#000000;stroke-width:0;stroke-linecap:butt;stroke-linejoin:miter;stroke-miterlimit:10.43299961;stroke-opacity:1;stroke-dasharray:none;stroke-dashoffset:0"
       id="path6610"
       d="m -52.931765,211.19085 0.733464,-0.75472 c 1.594488,-1.59449 3.337796,-3.38032 6.941339,-3.64606 0.584645,-0.0531 1.062992,-0.0531 1.062992,-1.02048 0,-0.41456 -0.265748,-0.62716 -0.690945,-0.62716 -1.38189,0 -2.912598,0.17008 -4.337008,0.17008 -1.743307,0 -3.603543,-0.17008 -5.30433,-0.17008 -0.308268,0 -1.009843,0 -1.009843,1.00984 0,0.58465 0.531496,0.6378 0.797244,0.6378 0.361418,0 1.913386,0.0957 1.913386,1.21181 0,0.91417 -1.211811,2.2748 -1.435039,2.54055 l -12.288189,14.14842 -5.825197,-15.73228 c -0.318897,-0.7441 -0.318897,-0.83976 -0.318897,-0.89291 0,-1.27559 2.5937,-1.27559 3.125196,-1.27559 0.744095,0 1.275591,0 1.275591,-1.063 0,-0.58464 -0.627165,-0.58464 -0.797244,-0.58464 -1.477559,0 -5.187402,0.17008 -6.675591,0.17008 -1.31811,0 -4.602755,-0.17008 -5.931495,-0.17008 -0.318898,0 -0.999213,0 -0.999213,1.06299 0,0.58465 0.520866,0.58465 1.211811,0.58465 3.178346,0 3.390945,0.47834 3.869291,1.78582 l 6.516142,17.4437 c 0.05315,0.14882 0.212598,0.73347 0.212598,0.89292 0,0.14881 -2.125984,8.69527 -2.391732,9.64133 -0.680315,2.90197 -0.722835,3.07205 -4.974803,3.11457 -0.999213,0 -1.435039,0 -1.435039,1.06299 0,0.58465 0.648425,0.58465 0.744094,0.58465 1.477559,0 5.187402,-0.17008 6.68622,-0.17008 1.477559,0 5.293701,0.17008 6.77126,0.17008 0.361417,0 0.999213,0 0.999213,-1.06299 0,-0.58465 -0.467717,-0.58465 -1.477559,-0.58465 -0.1063,0 -1.116142,0 -2.009055,-0.0957 -1.116142,-0.11693 -1.43504,-0.2126 -1.43504,-0.85039 0,-0.38268 0.488977,-2.22166 0.754725,-3.3378 l 1.838976,-7.47283 c 0.265748,-0.99921 0.318898,-1.15866 0.744094,-1.64764 z"
       inkscape:connector-curvature="0" />
    <path
       style="font-style:normal;font-variant:normal;font-weight:normal;font-stretch:normal;letter-spacing:normal;word-spacing:normal;text-anchor:start;fill:#000000;stroke:#000000;stroke-width:0;stroke-linecap:butt;stroke-linejoin:miter;stroke-miterlimit:10.43299961;stroke-opacity:1;stroke-dasharray:none;stroke-dashoffset:0"
       id="path6612"
       d="m -26.654601,228.0818 0,-0.39331 0,-0.41457 -0.01063,-0.41456 -0.02126,-0.43583 -0.04252,-0.89291 -0.06378,-0.93544 -0.08504,-0.97795 -0.116929,-1.00984 -0.138189,-1.0311 -0.170079,-1.07363 -0.212598,-1.08425 -0.244488,-1.09488 -0.287008,-1.11614 -0.318898,-1.12677 -0.372047,-1.13741 -0.414567,-1.1374 -0.233858,-0.56338 -0.233858,-0.56339 -0.255119,-0.56338 -0.265748,-0.56339 c -3.167716,-6.50551 -7.717322,-9.94961 -8.248818,-9.94961 -0.318898,0 -0.531496,0.20197 -0.531496,0.52087 0,0.15945 0,0.26575 0.988582,1.22244 5.198032,5.22992 8.227559,13.65945 8.227559,24.73583 0,9.04606 -1.966535,18.3685 -8.535826,25.04409 -0.680315,0.62717 -0.680315,0.7441 -0.680315,0.89291 0,0.3189 0.212598,0.5315 0.531496,0.5315 0.531496,0 5.272441,-3.60354 8.418897,-10.32165 2.68937,-5.81457 3.316535,-11.69292 3.316535,-16.14685 z"
       inkscape:connector-curvature="0" />
    <path
       style="fill:none;stroke:#000000;stroke-width:1px;stroke-linecap:butt;stroke-linejoin:miter;stroke-opacity:1;marker-start:url(#Arrow1Lstart);marker-end:none"
       id="path8619-7"
       d="m -348.74046,228.07648 182.85715,0"
       inkscape:connector-curvature="0" />
    <path
       inkscape:connector-curvature="0"
       d="m -497.85716,168.88357 494.28571,0"
       id="path9409"
       style="fill:none;stroke:#000000;stroke-width:1px;stroke-linecap:butt;stroke-linejoin:miter;stroke-opacity:1" />
    <rect
       width="720.44824"
       height="211.97824"
       x="-523.39813"
       y="64.496338"
       id="rect9411"
       style="fill:none;stroke:none" />
    <path
       inkscape:connector-curvature="0"
       id="path4401"
       d="m -297.995,134.13352 0,72.73098"
       style="stroke-linejoin:miter;marker-end:url(#Arrow1LendGw);stroke-opacity:1;stroke-dashoffset:0;stroke:#008000;stroke-linecap:butt;stroke-miterlimit:4;stroke-dasharray:4.00039999999999996, 4.00039999999999996;stroke-width:1.00010000000000021;fill:#008000" />
    <path
       inkscape:connector-curvature="0"
       id="path4401-8"
       d="m -230.31478,206.8645 0,-72.73098"
       style="stroke-linejoin:miter;marker-end:url(#Arrow1LendJR);stroke-opacity:1;stroke-dashoffset:0;stroke:#008000;stroke-linecap:butt;stroke-miterlimit:4;stroke-dasharray:4.00039999999999996, 4.00039999999999996;stroke-width:1.00010002000000009;fill:#008000" />
    <g
       style="font-style:normal;font-variant:normal;font-weight:normal;font-stretch:normal;letter-spacing:normal;word-spacing:normal;text-anchor:start;fill:#008000;stroke:#00ff00;stroke-linecap:butt;stroke-linejoin:miter;stroke-miterlimit:10.43299960999999954;stroke-opacity:1;stroke-dasharray:none;stroke-dashoffset:0"
       word-spacing="normal"
       letter-spacing="normal"
       font-size-adjust="none"
       font-stretch="normal"
       font-weight="normal"
       font-variant="normal"
       font-style="normal"
       stroke-miterlimit="10.433"
       xml:space="preserve"
       transform="matrix(0.80730707,0,0,-0.80730707,-703.3059,486.44268)"
       id="g4793"><path
         style="fill:#008000;stroke-width:0;stroke:#00ff00"
         inkscape:connector-curvature="0"
         id="path4795"
         d="m 477.29,439.57 0,0.01 0,0.01 0,0 0,0.01 0,0.01 0,0.01 0,0 0,0.01 0.01,0.02 0,0.03 0,0.02 0.01,0.02 0.01,0.03 0,0.03 0.01,0.02 0,0.03 0.01,0.03 0.01,0.03 0.01,0.06 0.02,0.06 0,0.03 0.01,0.02 0.01,0.03 0,0.03 0.01,0.02 0.01,0.02 0,0.02 0.01,0.02 0,0.01 0,0.01 0,0.01 0,0.01 0.01,0 0,0.01 0,0.01 0,0 0,0.01 0,0 0,0 0,0.01 c 0,0.04 0,0.5 -0.59,0.5 -0.5,0 -0.55,-0.16 -0.75,-1 l -2.89,-11.5 c -7.92,-0.25 -15.25,-6.88 -15.25,-13.66 0,-4.73 3.48,-8.67 9.56,-9.01 l 0.25,1.09 c -2.98,0.14 -6.58,1.89 -6.58,6.87 0,5.99 4.3,12.96 11.72,13.6 l -5.14,-20.47 -0.25,-1.09 c -0.39,-1.55 -0.73,-3.15 -1.14,-4.69 -0.59,-2.35 -1.09,-4.24 -1.09,-4.39 0,-0.49 0.34,-0.55 0.59,-0.55 0.25,0 0.36,0.06 0.5,0.2 0.09,0.1 0.41,1.3 0.55,2 l 1.89,7.43 0.25,1.09 5.14,20.47 c 3.78,-0.19 6.62,-2.49 6.62,-6.88 0,-5.87 -4.28,-13 -11.76,-13.59 l -0.25,-1.09 c 8.03,0.25 15.25,6.96 15.25,13.64 0,3.93 -2.64,8.53 -9.57,9.03 z" /></g>    <g
       style="font-style:normal;font-variant:normal;font-weight:normal;font-stretch:normal;letter-spacing:normal;word-spacing:normal;text-anchor:start;fill:#008000;stroke:#00ff00;stroke-linecap:butt;stroke-linejoin:miter;stroke-miterlimit:10.43299960999999954;stroke-opacity:1;stroke-dasharray:none;stroke-dashoffset:0"
       id="g4919"
       transform="matrix(0.80730707,0,0,-0.80730707,-592.66592,530.4417)"
       xml:space="preserve"
       stroke-miterlimit="10.433"
       font-style="normal"
       font-variant="normal"
       font-weight="normal"
       font-stretch="normal"
       font-size-adjust="none"
       letter-spacing="normal"
       word-spacing="normal"><path
         style="fill:#008000;stroke-width:0;stroke:#00ff00"
         inkscape:connector-curvature="0"
         d="m 477.29,439.57 0,0.01 0,0.01 0,0 0,0.01 0,0.01 0,0.01 0,0 0,0.01 0.01,0.02 0,0.03 0,0.02 0.01,0.02 0.01,0.03 0,0.03 0.01,0.02 0,0.03 0.01,0.03 0.01,0.03 0.01,0.06 0.02,0.06 0,0.03 0.01,0.02 0.01,0.03 0,0.03 0.01,0.02 0.01,0.02 0,0.02 0.01,0.02 0,0.01 0,0.01 0,0.01 0,0.01 0.01,0 0,0.01 0,0.01 0,0 0,0.01 0,0 0,0 0,0.01 c 0,0.04 0,0.5 -0.59,0.5 -0.5,0 -0.55,-0.16 -0.75,-1 l -2.89,-11.5 c -7.92,-0.25 -15.25,-6.88 -15.25,-13.66 0,-4.73 3.48,-8.67 9.56,-9.01 l 0.25,1.09 c -2.98,0.14 -6.58,1.89 -6.58,6.87 0,5.99 4.3,12.96 11.72,13.6 l -5.14,-20.47 -0.25,-1.09 c -0.39,-1.55 -0.73,-3.15 -1.14,-4.69 -0.59,-2.35 -1.09,-4.24 -1.09,-4.39 0,-0.49 0.34,-0.55 0.59,-0.55 0.25,0 0.36,0.06 0.5,0.2 0.09,0.1 0.41,1.3 0.55,2 l 1.89,7.43 0.25,1.09 5.14,20.47 c 3.78,-0.19 6.62,-2.49 6.62,-6.88 0,-5.87 -4.28,-13 -11.76,-13.59 l -0.25,-1.09 c 8.03,0.25 15.25,6.96 15.25,13.64 0,3.93 -2.64,8.53 -9.57,9.03 z"
         id="path4921" /><path
         style="fill:#008000;stroke-width:0;stroke:#00ff00"
         inkscape:connector-curvature="0"
         d="m 511.08,432.07 0.06,0 0.05,0 0.11,0.01 0.12,0 0.06,0 0.06,0.01 0.06,0 0.05,0.01 0.06,0.01 0.06,0.01 0.06,0.01 0.05,0.01 0.06,0.02 0.05,0.02 0.05,0.02 0.05,0.02 0.05,0.03 0.04,0.03 0.04,0.03 0.04,0.04 0.04,0.04 0.02,0.02 0.01,0.02 0.02,0.02 0.02,0.03 0.01,0.02 0.01,0.03 0.02,0.02 0.01,0.03 0.01,0.03 0.01,0.03 0,0.03 0.01,0.03 0.01,0.04 0,0.03 0.01,0.03 0,0.04 0,0.04 0,0.04 c 0,0.86 -0.79,0.86 -1.39,0.86 h -20.76 c -0.57,0 -1.39,0 -1.39,-0.83 0,-0.88 0.79,-0.88 1.39,-0.88 z"
         id="path4923" /><path
         style="fill:#008000;stroke-width:0;stroke:#00ff00"
         inkscape:connector-curvature="0"
         d="m 527.91,446.36 0,0.04 0,0.04 0,0.04 0,0.04 0,0.04 0,0.04 0,0.04 0,0.03 -0.01,0.04 0,0.03 0,0.03 0,0.03 0,0.03 -0.01,0.03 0,0.03 -0.01,0.02 0,0.03 0,0.02 -0.01,0.02 0,0.03 -0.02,0.04 -0.01,0.04 -0.02,0.03 -0.02,0.03 -0.02,0.03 -0.02,0.03 -0.03,0.02 -0.03,0.02 -0.04,0.01 -0.03,0.02 -0.04,0.01 -0.05,0.01 -0.02,0.01 -0.03,0 -0.02,0.01 -0.03,0 -0.03,0 -0.02,0.01 -0.03,0 -0.03,0 -0.04,0 -0.03,0 -0.03,0.01 -0.04,0 -0.04,0 -0.03,0 -0.04,0 -0.04,0 -0.04,0 -0.05,0 -0.04,0 -0.05,0 c -2.23,-2.2 -5.39,-2.23 -6.83,-2.23 v -1.25 c 0.85,0 3.15,0 5.05,0.96 v -17.76 c 0,-1.16 0,-1.61 -3.48,-1.61 h -1.32 v -1.25 c 0.63,0.03 4.91,0.14 6.21,0.14 1.08,0 5.47,-0.11 6.23,-0.14 v 1.25 h -1.32 c -3.49,0 -3.49,0.45 -3.49,1.61 z"
         id="path4925" /></g>  </g>
</svg>
