<?xml version="1.0" encoding="UTF-8" standalone="no"?>
<!-- Created with Inkscape (http://www.inkscape.org/) -->

<svg
   xmlns:dc="http://purl.org/dc/elements/1.1/"
   xmlns:cc="http://creativecommons.org/ns#"
   xmlns:rdf="http://www.w3.org/1999/02/22-rdf-syntax-ns#"
   xmlns:svg="http://www.w3.org/2000/svg"
   xmlns="http://www.w3.org/2000/svg"
   xmlns:sodipodi="http://sodipodi.sourceforge.net/DTD/sodipodi-0.dtd"
   xmlns:inkscape="http://www.inkscape.org/namespaces/inkscape"
   width="1052.3622"
   height="744.09448"
   id="svg40073"
   version="1.1"
   inkscape:version="0.48.3.1 r9886"
   sodipodi:docname="新規ドキュメント 131">
  <sodipodi:namedview
     id="base"
     pagecolor="#ffffff"
     bordercolor="#666666"
     borderopacity="1.0"
     inkscape:pageopacity="0.0"
     inkscape:pageshadow="2"
     inkscape:zoom="0.79421346"
     inkscape:cx="469.14614"
     inkscape:cy="378.40808"
     inkscape:document-units="px"
     inkscape:current-layer="layer1"
     showgrid="false"
     inkscape:window-width="1366"
     inkscape:window-height="746"
     inkscape:window-x="0"
     inkscape:window-y="22"
     inkscape:window-maximized="0" />
  <defs
     id="defs40075">
    <marker
       inkscape:stockid="Arrow1Lend"
       orient="auto"
       refY="0.0"
       refX="0.0"
       id="Arrow1Lend"
       style="overflow:visible;">
      <path
         id="path3965"
         d="M 0.0,0.0 L 5.0,-5.0 L -12.5,0.0 L 5.0,5.0 L 0.0,0.0 z "
         style="fill-rule:evenodd;stroke:#000000;stroke-width:1.0pt;"
         transform="scale(0.8) rotate(180) translate(12.5,0)" />
    </marker>
    <marker
       inkscape:stockid="Arrow1Lend"
       orient="auto"
       refY="0"
       refX="0"
       id="Arrow1Lend-8"
       style="overflow:visible">
      <path
         id="path3965-0"
         d="M 0,0 5,-5 -12.5,0 5,5 0,0 z"
         style="fill-rule:evenodd;stroke:#000000;stroke-width:1pt"
         transform="matrix(-0.8,0,0,-0.8,-10,0)"
         inkscape:connector-curvature="0" />
    </marker>
  </defs>
  <metadata
     id="metadata40078">
    <rdf:RDF>
      <cc:Work
         rdf:about="">
        <dc:format>image/svg+xml</dc:format>
        <dc:type
           rdf:resource="http://purl.org/dc/dcmitype/StillImage" />
        <dc:title></dc:title>
      </cc:Work>
    </rdf:RDF>
  </metadata>
  <g
     inkscape:label="レイヤー 1"
     inkscape:groupmode="layer"
     id="layer1"
     transform="translate(0,-308.2677)">
    <path
       style="fill:none;stroke:#000000;stroke-width:1px;stroke-linecap:butt;stroke-linejoin:miter;stroke-opacity:1;marker-end:url(#Arrow1Lend)"
       d="m 115.83787,410.43104 50.3643,-37.77322"
       id="path40081"
       inkscape:connector-curvature="0"
       transform="translate(0,308.2677)" />
    <path
       style="fill:none;stroke:#000000;stroke-width:1px;stroke-linecap:butt;stroke-linejoin:miter;stroke-opacity:1;marker-end:url(#Arrow1Lend)"
       d="M 167.46128,360.06674 148.57467,303.40691"
       id="path40083"
       inkscape:connector-curvature="0"
       transform="translate(0,308.2677)" />
    <path
       style="fill:none;stroke:#000000;stroke-width:1px;stroke-linecap:butt;stroke-linejoin:miter;stroke-opacity:1;marker-end:url(#Arrow1Lend)"
       d="m 181.31146,360.06674 42.80965,-35.255"
       id="path40085"
       inkscape:connector-curvature="0"
       transform="translate(0,308.2677)" />
    <path
       style="fill:none;stroke:#000000;stroke-width:1px;stroke-linecap:butt;stroke-linejoin:miter;stroke-opacity:1;marker-end:url(#Arrow1Lend)"
       d="M 478.46079,419.24479 468.38793,363.84407"
       id="path40087"
       inkscape:connector-curvature="0"
       transform="translate(0,308.2677)" />
    <path
       style="fill:none;stroke:#000000;stroke-width:1px;stroke-linecap:butt;stroke-linejoin:miter;stroke-opacity:1;marker-end:url(#Arrow1Lend)"
       d="m 473.42436,352.5121 32.73679,-31.47768"
       id="path40089"
       inkscape:connector-curvature="0"
       transform="translate(0,308.2677)" />
    <path
       style="fill:none;stroke:#000000;stroke-width:1px;stroke-linecap:butt;stroke-linejoin:miter;stroke-opacity:1;marker-end:url(#Arrow1Lend)"
       d="m 745.39154,317.2571 23.92304,47.84607"
       id="path40091"
       inkscape:connector-curvature="0"
       transform="translate(0,308.2677)" />
    <path
       style="fill:none;stroke:#000000;stroke-width:1px;stroke-linecap:butt;stroke-linejoin:miter;stroke-opacity:1;marker-end:url(#Arrow1Lend)"
       d="m 780.64655,377.69425 20.14572,32.73679"
       id="path40093"
       inkscape:connector-curvature="0"
       transform="translate(0,308.2677)" />
    <path
       sodipodi:type="arc"
       style="fill:#000000;stroke:none"
       id="path40971"
       sodipodi:cx="282.04004"
       sodipodi:cy="191.97592"
       sodipodi:rx="7.5546441"
       sodipodi:ry="7.5546441"
       d="m 278.60751,185.24611 c 3.71677,-1.89574 8.26661,-0.41949 10.16234,3.29728 1.89574,3.71677 0.41949,8.26661 -3.29728,10.16234 -3.71677,1.89574 -8.26661,0.4195 -10.16234,-3.29728 -1.88932,-3.70419 -0.43001,-8.2388 3.2651,-10.14583"
       transform="matrix(0.49367275,0,0,0.49367275,34.521327,579.60534)"
       sodipodi:start="4.2407348"
       sodipodi:end="10.519133"
       sodipodi:open="true" />
    <path
       sodipodi:type="arc"
       style="fill:#000000;stroke:none"
       id="path40971-0"
       sodipodi:cx="282.04004"
       sodipodi:cy="191.97592"
       sodipodi:rx="7.5546441"
       sodipodi:ry="7.5546441"
       d="m 278.60751,185.24611 c 3.71677,-1.89574 8.26661,-0.41949 10.16234,3.29728 1.89574,3.71677 0.41949,8.26661 -3.29728,10.16234 -3.71677,1.89574 -8.26661,0.4195 -10.16234,-3.29728 -1.88932,-3.70419 -0.43001,-8.2388 3.2651,-10.14583"
       transform="matrix(0.49367275,0,0,0.49367275,326.63422,568.52474)"
       sodipodi:start="4.2407348"
       sodipodi:end="10.519133"
       sodipodi:open="true" />
    <path
       sodipodi:type="arc"
       style="fill:#000000;stroke:none"
       id="path40971-0-0"
       sodipodi:cx="282.04004"
       sodipodi:cy="191.97592"
       sodipodi:rx="7.5546441"
       sodipodi:ry="7.5546441"
       d="m 278.60751,185.24611 c 3.71677,-1.89574 8.26661,-0.41949 10.16234,3.29728 1.89574,3.71677 0.41949,8.26661 -3.29728,10.16234 -3.71677,1.89574 -8.26661,0.4195 -10.16234,-3.29728 -1.88932,-3.70419 -0.43001,-8.2388 3.2651,-10.14583"
       transform="matrix(0.49367275,0,0,0.49367275,632.59731,586.15224)"
       sodipodi:start="4.2407348"
       sodipodi:end="10.519133"
       sodipodi:open="true" />
    <path
       sodipodi:type="arc"
       style="fill:none;stroke:#000000"
       id="path41009"
       sodipodi:cx="174.38637"
       sodipodi:cy="358.17807"
       sodipodi:rx="132.83583"
       sodipodi:ry="96.321709"
       d="m 114.03102,272.37297 c 65.35325,-24.17062 145.35454,-5.34853 178.68789,42.04032 33.33334,47.38885 7.37607,105.39926 -57.97719,129.56988 C 169.38846,468.15379 89.387171,449.3317 56.05383,401.94285 22.833267,354.71433 48.49287,296.89811 113.46524,272.58346"
       transform="matrix(0.91127259,0,0,1,10.067477,308.2677)"
       sodipodi:start="4.2407348"
       sodipodi:end="10.519133"
       sodipodi:open="true" />
    <path
       sodipodi:type="arc"
       style="fill:none;stroke:#000000"
       id="path41009-9"
       sodipodi:cx="174.38637"
       sodipodi:cy="358.17807"
       sodipodi:rx="88.621361"
       sodipodi:ry="71.139565"
       d="m 134.12032,294.80567 c 43.6004,-17.8515 96.97322,-3.95022 119.21154,31.04939 22.23833,34.99961 4.92095,77.8439 -38.67945,95.69541 -43.60039,17.8515 -96.97322,3.95022 -119.211538,-31.04939 -22.163083,-34.8812 -5.044291,-77.58207 38.301998,-95.53995"
       transform="matrix(0.91127259,0,0,1,330.87893,316.45191)"
       sodipodi:start="4.2407348"
       sodipodi:end="10.519133"
       sodipodi:open="true" />
    <path
       sodipodi:type="arc"
       style="fill:none;stroke:#000000"
       id="path41009-9-8"
       sodipodi:cx="174.38637"
       sodipodi:cy="358.17807"
       sodipodi:rx="88.621361"
       sodipodi:ry="81.212425"
       d="m 134.12032,285.83259 c 43.6004,-20.37915 96.97322,-4.50954 119.21154,35.44576 22.23833,39.95531 4.92095,88.86605 -38.67945,109.2452 -43.60039,20.37915 -96.97322,4.50954 -119.211538,-35.44576 -22.163083,-39.82013 -5.044291,-88.56714 38.301998,-109.06773"
       transform="matrix(0.91127259,0,0,1,611.65996,308.89727)"
       sodipodi:start="4.2407348"
       sodipodi:end="10.519133"
       sodipodi:open="true" />
    <path
       inkscape:connector-curvature="0"
       id="path41219"
       d="m 300.92665,667.07534 18.92561,-5.03643 14.1942,10.07286 14.1942,-10.07286 14.19421,10.07286 9.4628,-5.03643 18.9256,-1.25911"
       style="fill:none;stroke:#000000;stroke-width:1.11918759px;stroke-linecap:butt;stroke-linejoin:miter;stroke-opacity:1;marker-end:url(#Arrow1Lend)" />
    <path
       inkscape:connector-curvature="0"
       id="path41219-2"
       d="m 582.08715,667.07534 18.92561,-5.03643 14.1942,10.07286 14.1942,-10.07286 14.19421,10.07286 9.4628,-5.03643 18.9256,-1.25911"
       style="fill:none;stroke:#000000;stroke-width:1.11918759px;stroke-linecap:butt;stroke-linejoin:miter;stroke-opacity:1;marker-end:url(#Arrow1Lend)" />
    <g
       id="g41451"
       transform="matrix(0.8450098,0,0,0.8450098,-101.83248,258.69814)">
      <g
         word-spacing="normal"
         letter-spacing="normal"
         font-size-adjust="none"
         font-stretch="normal"
         font-weight="normal"
         font-variant="normal"
         font-style="normal"
         stroke-miterlimit="10.433"
         xml:space="preserve"
         transform="matrix(1.0629921,0,0,-1.0629921,-186.02362,789.27165)"
         id="content"
         style="font-style:normal;font-variant:normal;font-weight:normal;font-stretch:normal;letter-spacing:normal;word-spacing:normal;text-anchor:start;fill:none;stroke:#000000;stroke-linecap:butt;stroke-linejoin:miter;stroke-miterlimit:10.43299961;stroke-opacity:1;stroke-dasharray:none;stroke-dashoffset:0"><path
           id="path41454"
           d="m 493.68,439.53 0,0.08 0,0.09 0,0.08 -0.01,0.08 0,0.08 0,0.07 0,0.07 -0.01,0.07 0,0.06 -0.01,0.06 -0.01,0.06 -0.01,0.06 -0.01,0.05 -0.02,0.05 -0.02,0.05 -0.02,0.04 -0.02,0.04 -0.02,0.04 -0.03,0.04 -0.03,0.03 -0.04,0.03 -0.03,0.03 -0.04,0.02 -0.05,0.02 -0.05,0.02 -0.02,0.01 -0.03,0.01 -0.03,0.01 -0.03,0.01 -0.03,0 -0.03,0.01 -0.03,0 -0.04,0.01 -0.03,0 -0.04,0 -0.04,0.01 -0.03,0 -0.04,0 -0.04,0 c -0.46,0 -0.55,-0.1 -0.96,-0.44 l -3.28,-2.94 c -3.09,2.49 -6.42,3.38 -9.81,3.38 -12.41,0 -20.03,-7.42 -20.03,-17.63 0,-10.22 7.62,-17.64 20.03,-17.64 9.31,0 14.94,6.13 14.94,11.86 0,1 -0.35,1.05 -1.19,1.05 -0.66,0 -1.1,0 -1.14,-0.85 -0.36,-6.68 -6.39,-9.71 -11.42,-9.71 -3.88,0 -8.07,1.18 -10.66,4.23 -2.34,2.84 -2.94,6.58 -2.94,11.06 0,2.78 0.14,8.17 3.28,11.46 3.25,3.28 7.58,3.84 10.18,3.84 5.37,0 10.1,-3.8 11.2,-10.13 0.15,-0.93 0.2,-1.04 1.34,-1.04 1.3,0 1.35,0.11 1.35,1.4 z"
           inkscape:connector-curvature="0"
           style="fill:#000000;stroke-width:0" /></g>    </g>
    <g
       id="g41508"
       transform="matrix(0.8450098,0,0,0.8450098,214.87416,292.37322)">
      <g
         id="g41510"
         transform="matrix(1.0629921,0,0,-1.0629921,-186.02362,789.27165)"
         xml:space="preserve"
         stroke-miterlimit="10.433"
         font-style="normal"
         font-variant="normal"
         font-weight="normal"
         font-stretch="normal"
         font-size-adjust="none"
         letter-spacing="normal"
         word-spacing="normal"
         style="font-style:normal;font-variant:normal;font-weight:normal;font-stretch:normal;letter-spacing:normal;word-spacing:normal;text-anchor:start;fill:none;stroke:#000000;stroke-linecap:butt;stroke-linejoin:miter;stroke-miterlimit:10.43299961;stroke-opacity:1;stroke-dasharray:none;stroke-dashoffset:0"><path
           d="m 462.85,438.03 v -29.49 h -5.39 v -2.34 h 21.48 c 9.81,0 17.28,6.12 17.28,16.8 0,10.95 -7.47,17.37 -17.34,17.37 l -1.99,-2.34 c 3.29,0 7.43,-0.94 9.86,-4.42 1.75,-2.55 2.14,-5.94 2.14,-10.57 0,-5.43 -0.59,-8.08 -2.18,-10.31 -2.39,-3.39 -6.78,-4.19 -9.82,-4.19 h -7.28 v 29.49 h 7.28 l 1.99,2.34 h -21.42 v -2.34 z"
           id="path41512"
           inkscape:connector-curvature="0"
           style="fill:#000000;stroke-width:0" /></g>    </g>
    <g
       id="g41572"
       transform="matrix(0.8450098,0,0,0.8450098,492.81853,273.7887)">
      <g
         word-spacing="normal"
         letter-spacing="normal"
         font-size-adjust="none"
         font-stretch="normal"
         font-weight="normal"
         font-variant="normal"
         font-style="normal"
         stroke-miterlimit="10.433"
         xml:space="preserve"
         transform="matrix(1.0629921,0,0,-1.0629921,-186.02362,789.27165)"
         id="g41574"
         style="font-style:normal;font-variant:normal;font-weight:normal;font-stretch:normal;letter-spacing:normal;word-spacing:normal;text-anchor:start;fill:none;stroke:#000000;stroke-linecap:butt;stroke-linejoin:miter;stroke-miterlimit:10.43299961;stroke-opacity:1;stroke-dasharray:none;stroke-dashoffset:0"><path
           id="path41576"
           d="m 491.54,419.86 h -2.35 c -1.09,-6.88 -2.48,-11.32 -11.7,-11.32 h -7.58 v 14.05 h 2.75 c 4.78,0 5.28,-2.14 5.28,-5.83 h 2.35 v 14 h -2.35 c 0,-3.69 -0.45,-5.83 -5.28,-5.83 h -2.75 v 12.8 h 7.58 c 8.03,0 9.31,-3.62 10.11,-9.66 h 2.34 l -1.55,12 h -30.93 v -2.34 h 5.39 v -29.19 h -5.39 v -2.34 h 31.79 z"
           inkscape:connector-curvature="0"
           style="fill:#000000;stroke-width:0" /></g>    </g>
    <g
       id="g41642"
       transform="matrix(0.8450098,0,0,0.8450098,77.321485,353.32093)">
      <g
         id="g41644"
         transform="matrix(1.0629921,0,0,-1.0629921,-186.02362,789.27165)"
         xml:space="preserve"
         stroke-miterlimit="10.433"
         font-style="normal"
         font-variant="normal"
         font-weight="normal"
         font-stretch="normal"
         font-size-adjust="none"
         letter-spacing="normal"
         word-spacing="normal"
         style="font-style:normal;font-variant:normal;font-weight:normal;font-stretch:normal;letter-spacing:normal;word-spacing:normal;text-anchor:start;fill:none;stroke:#000000;stroke-linecap:butt;stroke-linejoin:miter;stroke-miterlimit:10.43299961;stroke-opacity:1;stroke-dasharray:none;stroke-dashoffset:0"><path
           d="m 470.61,422.39 h 4.83 c 3.75,0 4.14,-0.8 4.14,-2.24 0,-0.36 0,-0.95 -0.34,-2.44 -0.11,-0.25 -0.16,-0.45 -0.16,-0.56 0,-0.39 0.3,-0.59 0.6,-0.59 0.5,0 0.5,0.15 0.75,1.05 l 2.75,10.81 c 0.14,0.54 0.14,0.65 0.14,0.79 0,0.1 -0.1,0.55 -0.6,0.55 -0.5,0 -0.54,-0.25 -0.75,-1.05 -1.04,-3.87 -2.18,-4.78 -6.42,-4.78 h -4.53 l 3.19,12.66 c 0.43,1.75 0.5,1.94 2.68,1.94 h 6.58 c 6.13,0 7.27,-1.64 7.27,-5.47 0,-1.16 0,-1.35 -0.14,-2.7 -0.11,-0.65 -0.11,-0.74 -0.11,-0.9 0,-0.25 0.15,-0.59 0.61,-0.59 0.54,0 0.59,0.3 0.69,1.25 l 1,8.61 c 0.15,1.34 -0.1,1.34 -1.35,1.34 h -24.4 c -1,0 -1.5,0 -1.5,-1 0,-0.54 0.45,-0.54 1.39,-0.54 1.84,0 3.23,0 3.23,-0.89 0,-0.21 0,-0.3 -0.25,-1.21 l -6.56,-26.34 c -0.5,-1.95 -0.61,-2.34 -4.55,-2.34 -0.84,0 -1.39,0 -1.39,-0.96 0,-0.59 0.59,-0.59 0.75,-0.59 1.44,0 5.13,0.16 6.58,0.16 1.64,0 5.78,-0.16 7.42,-0.16 0.45,0 1.05,0 1.05,0.95 0,0.39 -0.3,0.49 -0.3,0.55 -0.16,0.05 -0.25,0.05 -1.39,0.05 -1.11,0 -1.36,0 -2.59,0.09 -1.46,0.16 -1.6,0.36 -1.6,1 0,0.09 0,0.41 0.19,1.14 z"
           id="path41646"
           inkscape:connector-curvature="0"
           style="fill:#000000;stroke-width:0" /></g>    </g>
    <g
       id="g41718"
       transform="matrix(0.8450098,0,0,0.8450098,356.61318,353.39279)">
      <g
         word-spacing="normal"
         letter-spacing="normal"
         font-size-adjust="none"
         font-stretch="normal"
         font-weight="normal"
         font-variant="normal"
         font-style="normal"
         stroke-miterlimit="10.433"
         xml:space="preserve"
         transform="matrix(1.0629921,0,0,-1.0629921,-186.02362,789.27165)"
         id="g41720"
         style="font-style:normal;font-variant:normal;font-weight:normal;font-stretch:normal;letter-spacing:normal;word-spacing:normal;text-anchor:start;fill:none;stroke:#000000;stroke-linecap:butt;stroke-linejoin:miter;stroke-miterlimit:10.43299961;stroke-opacity:1;stroke-dasharray:none;stroke-dashoffset:0"><path
           id="path41722"
           d="m 493.38,440.82 0,0.02 0,0.02 0,0.01 -0.01,0.02 0,0.02 0,0.02 -0.01,0.02 0,0.02 -0.01,0.02 -0.01,0.02 -0.01,0.02 0,0.02 -0.02,0.02 -0.01,0.02 -0.01,0.02 -0.01,0.02 -0.02,0.02 -0.02,0.02 -0.02,0.02 -0.02,0.02 -0.02,0.01 -0.02,0.02 -0.03,0.01 -0.02,0.02 -0.03,0.01 -0.01,0.01 -0.02,0 -0.01,0.01 -0.02,0 -0.02,0.01 -0.01,0 -0.02,0 -0.02,0.01 -0.02,0 -0.02,0 -0.02,0 -0.02,0 -0.02,0 -0.02,0 c -0.14,0 -0.2,-0.04 -0.75,-0.59 l -3.48,-3.84 c -0.44,0.7 -2.74,4.43 -8.27,4.43 -11.11,0 -22.33,-11.01 -22.33,-22.56 0,-7.92 5.54,-13.65 13.61,-13.65 2.19,0 4.44,0.45 6.22,1.18 2.5,1 3.44,2.05 4.35,3.05 0.45,-1.25 1.73,-3.09 2.23,-3.09 0.25,0 0.36,0.15 0.36,0.2 0.09,0.09 0.59,1.98 0.84,3.03 l 0.94,3.84 c 0.2,0.85 0.45,1.69 0.66,2.55 0.54,2.24 0.59,2.33 3.43,2.39 0.25,0 0.8,0.05 0.8,0.99 0,0.36 -0.25,0.54 -0.64,0.54 -1.16,0 -4.09,-0.14 -5.23,-0.14 -1.55,0 -5.44,0.14 -6.99,0.14 -0.44,0 -1.04,0 -1.04,-0.98 0,-0.55 0.4,-0.55 1.5,-0.55 0.04,0 1.5,0 2.64,-0.11 1.29,-0.14 1.54,-0.29 1.54,-0.94 0,-0.45 -0.54,-2.7 -1.04,-4.53 -1.39,-5.48 -7.88,-6.03 -9.63,-6.03 -4.78,0 -10,2.83 -10,10.46 0,1.54 0.49,9.76 5.72,16.25 2.69,3.39 7.53,6.42 12.45,6.42 5.1,0 8.03,-3.83 8.03,-9.61 0,-2 -0.15,-2.05 -0.15,-2.55 0,-0.5 0.54,-0.5 0.75,-0.5 0.64,0 0.64,0.11 0.89,1 z"
           inkscape:connector-curvature="0"
           style="fill:#000000;stroke-width:0" /></g>    </g>
    <rect
       style="fill:none;stroke:none;stroke-width:1;stroke-linecap:round;stroke-miterlimit:4;stroke-dasharray:none;stroke-dashoffset:0"
       id="rect41761"
       width="839.82458"
       height="260.63519"
       x="28.959469"
       y="205.19653"
       transform="translate(0,308.2677)" />
  </g>
</svg>
