<?xml version="1.0" encoding="UTF-8" standalone="no"?>
<!-- Created with Inkscape (http://www.inkscape.org/) -->

<svg
   xmlns:dc="http://purl.org/dc/elements/1.1/"
   xmlns:cc="http://creativecommons.org/ns#"
   xmlns:rdf="http://www.w3.org/1999/02/22-rdf-syntax-ns#"
   xmlns:svg="http://www.w3.org/2000/svg"
   xmlns="http://www.w3.org/2000/svg"
   xmlns:sodipodi="http://sodipodi.sourceforge.net/DTD/sodipodi-0.dtd"
   xmlns:inkscape="http://www.inkscape.org/namespaces/inkscape"
   width="210mm"
   height="297mm"
   id="svg2"
   version="1.1"
   inkscape:version="0.48.4 r9939"
   sodipodi:docname="新規ドキュメント 1">
  <defs
     id="defs4">
    <marker
       inkscape:stockid="Arrow1Lend"
       orient="auto"
       refY="0.0"
       refX="0.0"
       id="Arrow1Lend"
       style="overflow:visible;">
      <path
         id="path3776"
         d="M 0.0,0.0 L 5.0,-5.0 L -12.5,0.0 L 5.0,5.0 L 0.0,0.0 z "
         style="fill-rule:evenodd;stroke:#000000;stroke-width:1.0pt;"
         transform="scale(0.8) rotate(180) translate(12.5,0)" />
    </marker>
    <marker
       inkscape:stockid="Arrow1Lend"
       orient="auto"
       refY="0"
       refX="0"
       id="Arrow1Lend-1"
       style="overflow:visible">
      <path
         inkscape:connector-curvature="0"
         id="path3776-7"
         d="M 0,0 5,-5 -12.5,0 5,5 0,0 z"
         style="fill-rule:evenodd;stroke:#000000;stroke-width:1pt"
         transform="matrix(-0.8,0,0,-0.8,-10,0)" />
    </marker>
    <marker
       inkscape:stockid="Arrow1Lend"
       orient="auto"
       refY="0"
       refX="0"
       id="Arrow1Lend-0"
       style="overflow:visible">
      <path
         inkscape:connector-curvature="0"
         id="path3776-9"
         d="M 0,0 5,-5 -12.5,0 5,5 0,0 z"
         style="fill-rule:evenodd;stroke:#000000;stroke-width:1pt"
         transform="matrix(-0.8,0,0,-0.8,-10,0)" />
    </marker>
  </defs>
  <sodipodi:namedview
     id="base"
     pagecolor="#ffffff"
     bordercolor="#666666"
     borderopacity="1.0"
     inkscape:pageopacity="0.0"
     inkscape:pageshadow="2"
     inkscape:zoom="0.98994949"
     inkscape:cx="388.79336"
     inkscape:cy="673.05053"
     inkscape:document-units="px"
     inkscape:current-layer="layer1"
     showgrid="false"
     inkscape:window-width="1366"
     inkscape:window-height="746"
     inkscape:window-x="-8"
     inkscape:window-y="-8"
     inkscape:window-maximized="1" />
  <metadata
     id="metadata7">
    <rdf:RDF>
      <cc:Work
         rdf:about="">
        <dc:format>image/svg+xml</dc:format>
        <dc:type
           rdf:resource="http://purl.org/dc/dcmitype/StillImage" />
        <dc:title></dc:title>
      </cc:Work>
    </rdf:RDF>
  </metadata>
  <g
     inkscape:label="レイヤー 1"
     inkscape:groupmode="layer"
     id="layer1">
    <path
       sodipodi:type="arc"
       style="opacity:0.5;fill:none;stroke:#000000"
       id="path2985"
       sodipodi:cx="357.14285"
       sodipodi:cy="403.79074"
       sodipodi:rx="121.42857"
       sodipodi:ry="121.42857"
       d="m 327.777,285.96653 a 121.42857,121.42857 0 1 1 -0.0757,0.0189"
       sodipodi:start="4.468131"
       sodipodi:end="10.750674"
       sodipodi:open="true" />
    <path
       style="opacity:0.5;fill:none;stroke:none"
       d="m 341.00465,523.09046 c -43.91873,-5.71003 -83.27042,-38.22669 -97.73738,-80.7613 -4.51405,-13.27188 -5.96897,-22.74241 -5.97218,-38.87486 -0.004,-19.73168 2.75726,-32.63803 10.67281,-49.8871 19.54053,-42.58147 62.2545,-69.81598 109.49775,-69.81598 32.30507,0 60.94653,11.94732 84.33339,35.17831 15.79844,15.69314 26.06103,33.49429 31.84101,55.23034 3.55562,13.37124 4.51229,35.84025 2.10744,49.49748 -11.2672,63.98699 -70.60125,107.77238 -134.74284,99.43311 l 0,0 z"
       id="path2993"
       inkscape:connector-curvature="0" />
    <path
       style="opacity:0.50000000000000000;fill:#ff8080;stroke:none"
       d="m 341.00465,523.09046 c -43.91873,-5.71003 -83.27042,-38.22669 -97.73738,-80.7613 -4.51405,-13.27188 -5.96897,-22.74241 -5.97218,-38.87486 -0.004,-19.73168 2.75726,-32.63803 10.67281,-49.8871 19.54053,-42.58147 62.2545,-69.81598 109.49775,-69.81598 32.30507,0 60.94653,11.94732 84.33339,35.17831 15.79844,15.69314 26.06103,33.49429 31.84101,55.23034 3.55562,13.37124 4.51229,35.84025 2.10744,49.49748 -11.2672,63.98699 -70.60125,107.77238 -134.74284,99.43311 l 0,0 z"
       id="path2995"
       inkscape:connector-curvature="0" />
    <text
       xml:space="preserve"
       style="font-size:40px;font-style:normal;font-variant:normal;font-weight:normal;font-stretch:normal;text-align:start;line-height:125%;letter-spacing:0px;word-spacing:0px;writing-mode:lr-tb;text-anchor:start;fill:#000000;fill-opacity:1;stroke:none;font-family:HGGothicM;-inkscape-font-specification:HGGothicM"
       x="253.22479"
       y="415.88287"
       id="text2987"
       sodipodi:linespacing="125%"><tspan
         sodipodi:role="line"
         id="tspan2989"
         x="253.22479"
         y="415.88287">文章の集合</tspan></text>
    <path
       sodipodi:type="arc"
       style="opacity:0.5;fill:none;stroke:#000000;marker-end:url(#Arrow1Lend)"
       id="path2997"
       sodipodi:cx="540.43164"
       sodipodi:cy="291.71732"
       sodipodi:rx="65.65992"
       sodipodi:ry="65.65992"
       d="m 475.55049,281.63456 a 65.65992,65.65992 0 1 1 34.58982,68.33789"
       sodipodi:start="3.2957629"
       sodipodi:end="8.3334828"
       sodipodi:open="true"
       transform="translate(-22.223356,19.192898)" />
    <text
       xml:space="preserve"
       style="font-size:27.73008728px;font-style:normal;font-variant:normal;font-weight:normal;font-stretch:normal;text-align:start;line-height:125%;letter-spacing:0px;word-spacing:0px;writing-mode:lr-tb;text-anchor:start;fill:#000000;fill-opacity:1;stroke:none;font-family:HGGothicM;-inkscape-font-specification:HGGothicM"
       x="456.57086"
       y="228.20993"
       id="text4213"
       sodipodi:linespacing="125%"><tspan
         sodipodi:role="line"
         id="tspan4215"
         x="456.57086"
         y="228.20993">鍵aで暗号化</tspan></text>
    <text
       xml:space="preserve"
       style="font-size:27.73008728px;font-style:normal;font-variant:normal;font-weight:normal;font-stretch:normal;text-align:start;line-height:125%;letter-spacing:0px;word-spacing:0px;writing-mode:lr-tb;text-anchor:start;fill:#000000;fill-opacity:1;stroke:none;font-family:HGGothicM;-inkscape-font-specification:HGGothicM"
       x="498.54483"
       y="551.60132"
       id="text4217"
       sodipodi:linespacing="125%"><tspan
         sodipodi:role="line"
         id="tspan4219"
         x="498.54483"
         y="551.60132">鍵bで暗号化</tspan></text>
    <text
       xml:space="preserve"
       style="font-size:27.73008728px;font-style:normal;font-variant:normal;font-weight:normal;font-stretch:normal;text-align:start;line-height:125%;letter-spacing:0px;word-spacing:0px;writing-mode:lr-tb;text-anchor:start;fill:#000000;fill-opacity:1;stroke:none;font-family:HGGothicM;-inkscape-font-specification:HGGothicM"
       x="46.99424"
       y="364.63641"
       id="text4221"
       sodipodi:linespacing="125%"><tspan
         sodipodi:role="line"
         id="tspan4223"
         x="46.99424"
         y="364.63641">鍵？で復号化</tspan></text>
    <path
       sodipodi:type="arc"
       style="opacity:0.5;fill:none;stroke:#000000;marker-end:url(#Arrow1Lend)"
       id="path2997-4"
       sodipodi:cx="540.43164"
       sodipodi:cy="291.71732"
       sodipodi:rx="65.65992"
       sodipodi:ry="65.65992"
       d="m 475.55049,281.63456 a 65.65992,65.65992 0 1 1 34.58982,68.33789"
       sodipodi:start="3.2957629"
       sodipodi:end="8.3334828"
       sodipodi:open="true"
       transform="matrix(0.76604444,0.64278761,-0.64278761,0.76604444,311.1145,-119.33172)" />
    <path
       sodipodi:type="arc"
       style="opacity:0.5;fill:none;stroke:#000000;marker-end:url(#Arrow1Lend)"
       id="path2997-48"
       sodipodi:cx="540.43164"
       sodipodi:cy="291.71732"
       sodipodi:rx="65.65992"
       sodipodi:ry="65.65992"
       d="m 475.55049,281.63456 a 65.65992,65.65992 0 1 1 34.58982,68.33789"
       sodipodi:start="3.2957629"
       sodipodi:end="8.3334828"
       sodipodi:open="true"
       transform="matrix(-0.93969262,-0.34202015,0.34202015,-0.93969262,587.01163,897.50392)" />
    <rect
       style="opacity:0.50000000000000000;fill:none;stroke:none;stroke-width:2;stroke-miterlimit:4;stroke-dasharray:none"
       id="rect4273"
       width="658.61945"
       height="408.10162"
       x="20.203051"
       y="174.53963" />
  </g>
</svg>
