<?xml version="1.0" encoding="UTF-8" standalone="no"?>
<!-- Created with Inkscape (http://www.inkscape.org/) -->

<svg
   xmlns:dc="http://purl.org/dc/elements/1.1/"
   xmlns:cc="http://creativecommons.org/ns#"
   xmlns:rdf="http://www.w3.org/1999/02/22-rdf-syntax-ns#"
   xmlns:svg="http://www.w3.org/2000/svg"
   xmlns="http://www.w3.org/2000/svg"
   xmlns:sodipodi="http://sodipodi.sourceforge.net/DTD/sodipodi-0.dtd"
   xmlns:inkscape="http://www.inkscape.org/namespaces/inkscape"
   width="210mm"
   height="297mm"
   id="svg35162"
   version="1.1"
   inkscape:version="0.48.3.1 r9886"
   sodipodi:docname="新規ドキュメント 14">
  <sodipodi:namedview
     id="base"
     pagecolor="#ffffff"
     bordercolor="#666666"
     borderopacity="1.0"
     inkscape:pageopacity="0.0"
     inkscape:pageshadow="2"
     inkscape:zoom="0.7"
     inkscape:cx="199.18986"
     inkscape:cy="400.18141"
     inkscape:document-units="px"
     inkscape:current-layer="layer1"
     showgrid="false"
     inkscape:window-width="1366"
     inkscape:window-height="746"
     inkscape:window-x="0"
     inkscape:window-y="22"
     inkscape:window-maximized="0" />
  <defs
     id="defs35164">
    <marker
       inkscape:stockid="Arrow1Lend"
       orient="auto"
       refY="0.0"
       refX="0.0"
       id="Arrow1Lend"
       style="overflow:visible;">
      <path
         id="path30867"
         d="M 0.0,0.0 L 5.0,-5.0 L -12.5,0.0 L 5.0,5.0 L 0.0,0.0 z "
         style="fill-rule:evenodd;stroke:#000000;stroke-width:1.0pt;"
         transform="scale(0.8) rotate(180) translate(12.5,0)" />
    </marker>
    <marker
       inkscape:stockid="Arrow1Lend"
       orient="auto"
       refY="0"
       refX="0"
       id="Arrow1Lend-3"
       style="overflow:visible">
      <path
         inkscape:connector-curvature="0"
         id="path30867-3"
         d="M 0,0 5,-5 -12.5,0 5,5 0,0 z"
         style="fill-rule:evenodd;stroke:#000000;stroke-width:1pt"
         transform="matrix(-0.8,0,0,-0.8,-10,0)" />
    </marker>
    <marker
       inkscape:stockid="Arrow1Lend"
       orient="auto"
       refY="0"
       refX="0"
       id="Arrow1Lend-9"
       style="overflow:visible">
      <path
         inkscape:connector-curvature="0"
         id="path30867-1"
         d="M 0,0 5,-5 -12.5,0 5,5 0,0 z"
         style="fill-rule:evenodd;stroke:#000000;stroke-width:1pt"
         transform="matrix(-0.8,0,0,-0.8,-10,0)" />
    </marker>
    <marker
       inkscape:stockid="Arrow1Lend"
       orient="auto"
       refY="0"
       refX="0"
       id="Arrow1Lend-8"
       style="overflow:visible">
      <path
         inkscape:connector-curvature="0"
         id="path30867-9"
         d="M 0,0 5,-5 -12.5,0 5,5 0,0 z"
         style="fill-rule:evenodd;stroke:#000000;stroke-width:1pt"
         transform="matrix(-0.8,0,0,-0.8,-10,0)" />
    </marker>
    <marker
       inkscape:stockid="Arrow1Lend"
       orient="auto"
       refY="0"
       refX="0"
       id="Arrow1Lend-0"
       style="overflow:visible">
      <path
         inkscape:connector-curvature="0"
         id="path30867-4"
         d="M 0,0 5,-5 -12.5,0 5,5 0,0 z"
         style="fill-rule:evenodd;stroke:#000000;stroke-width:1pt"
         transform="matrix(-0.8,0,0,-0.8,-10,0)" />
    </marker>
    <marker
       inkscape:stockid="Arrow1Lend"
       orient="auto"
       refY="0"
       refX="0"
       id="Arrow1Lend-32"
       style="overflow:visible">
      <path
         inkscape:connector-curvature="0"
         id="path30867-8"
         d="M 0,0 5,-5 -12.5,0 5,5 0,0 z"
         style="fill-rule:evenodd;stroke:#000000;stroke-width:1pt"
         transform="matrix(-0.8,0,0,-0.8,-10,0)" />
    </marker>
    <marker
       inkscape:stockid="Arrow1Lend"
       orient="auto"
       refY="0"
       refX="0"
       id="Arrow1Lend-4"
       style="overflow:visible">
      <path
         inkscape:connector-curvature="0"
         id="path30867-13"
         d="M 0,0 5,-5 -12.5,0 5,5 0,0 z"
         style="fill-rule:evenodd;stroke:#000000;stroke-width:1pt"
         transform="matrix(-0.8,0,0,-0.8,-10,0)" />
    </marker>
    <marker
       inkscape:stockid="Arrow1Lend"
       orient="auto"
       refY="0"
       refX="0"
       id="Arrow1Lend-6"
       style="overflow:visible">
      <path
         inkscape:connector-curvature="0"
         id="path30867-16"
         d="M 0,0 5,-5 -12.5,0 5,5 0,0 z"
         style="fill-rule:evenodd;stroke:#000000;stroke-width:1pt"
         transform="matrix(-0.8,0,0,-0.8,-10,0)" />
    </marker>
    <marker
       inkscape:stockid="Arrow1Lend"
       orient="auto"
       refY="0"
       refX="0"
       id="Arrow1Lend-7"
       style="overflow:visible">
      <path
         inkscape:connector-curvature="0"
         id="path30867-6"
         d="M 0,0 5,-5 -12.5,0 5,5 0,0 z"
         style="fill-rule:evenodd;stroke:#000000;stroke-width:1pt"
         transform="matrix(-0.8,0,0,-0.8,-10,0)" />
    </marker>
    <marker
       inkscape:stockid="Arrow1Lend"
       orient="auto"
       refY="0"
       refX="0"
       id="Arrow1Lend-94"
       style="overflow:visible">
      <path
         inkscape:connector-curvature="0"
         id="path30867-5"
         d="M 0,0 5,-5 -12.5,0 5,5 0,0 z"
         style="fill-rule:evenodd;stroke:#000000;stroke-width:1pt"
         transform="matrix(-0.8,0,0,-0.8,-10,0)" />
    </marker>
    <marker
       inkscape:stockid="Arrow1LendQ"
       orient="auto"
       refY="0.0"
       refX="0.0"
       id="Arrow1LendQ"
       style="overflow:visible;">
      <path
         id="path36478"
         d="M 0.0,0.0 L 5.0,-5.0 L -12.5,0.0 L 5.0,5.0 L 0.0,0.0 z "
         style="stroke:#ff0000;stroke-width:1.0pt;fill:#ff0000;fill-rule:evenodd"
         transform="scale(0.8) rotate(180) translate(12.5,0)" />
    </marker>
    <marker
       inkscape:stockid="Arrow1Lend2"
       orient="auto"
       refY="0.0"
       refX="0.0"
       id="Arrow1Lend2"
       style="overflow:visible;">
      <path
         id="path36481"
         d="M 0.0,0.0 L 5.0,-5.0 L -12.5,0.0 L 5.0,5.0 L 0.0,0.0 z "
         style="stroke:#ff0000;stroke-width:1.0pt;fill:#ff0000;fill-rule:evenodd"
         transform="scale(0.8) rotate(180) translate(12.5,0)" />
    </marker>
    <marker
       inkscape:stockid="Arrow1LendQx"
       orient="auto"
       refY="0.0"
       refX="0.0"
       id="Arrow1LendQx"
       style="overflow:visible;">
      <path
         id="path36484"
         d="M 0.0,0.0 L 5.0,-5.0 L -12.5,0.0 L 5.0,5.0 L 0.0,0.0 z "
         style="stroke:#ff0000;stroke-width:1.0pt;fill:#ff0000;fill-rule:evenodd"
         transform="scale(0.8) rotate(180) translate(12.5,0)" />
    </marker>
    <marker
       inkscape:stockid="Arrow1Lendf"
       orient="auto"
       refY="0.0"
       refX="0.0"
       id="Arrow1Lendf"
       style="overflow:visible;">
      <path
         id="path36487"
         d="M 0.0,0.0 L 5.0,-5.0 L -12.5,0.0 L 5.0,5.0 L 0.0,0.0 z "
         style="stroke:#ff0000;stroke-width:1.0pt;fill:#ff0000;fill-rule:evenodd"
         transform="scale(0.8) rotate(180) translate(12.5,0)" />
    </marker>
    <marker
       inkscape:stockid="Arrow1LendX"
       orient="auto"
       refY="0.0"
       refX="0.0"
       id="Arrow1LendX"
       style="overflow:visible;">
      <path
         id="path36490"
         d="M 0.0,0.0 L 5.0,-5.0 L -12.5,0.0 L 5.0,5.0 L 0.0,0.0 z "
         style="stroke:#ff0000;stroke-width:1.0pt;fill:#ff0000;fill-rule:evenodd"
         transform="scale(0.8) rotate(180) translate(12.5,0)" />
    </marker>
    <marker
       inkscape:stockid="Arrow1LendA"
       orient="auto"
       refY="0.0"
       refX="0.0"
       id="Arrow1LendA"
       style="overflow:visible;">
      <path
         id="path36493"
         d="M 0.0,0.0 L 5.0,-5.0 L -12.5,0.0 L 5.0,5.0 L 0.0,0.0 z "
         style="stroke:#ff0000;stroke-width:1.0pt;fill:#ff0000;fill-rule:evenodd"
         transform="scale(0.8) rotate(180) translate(12.5,0)" />
    </marker>
    <marker
       inkscape:stockid="Arrow1Lend6"
       orient="auto"
       refY="0.0"
       refX="0.0"
       id="Arrow1Lend6"
       style="overflow:visible;">
      <path
         id="path36496"
         d="M 0.0,0.0 L 5.0,-5.0 L -12.5,0.0 L 5.0,5.0 L 0.0,0.0 z "
         style="stroke:#ff0000;stroke-width:1.0pt;fill:#ff0000;fill-rule:evenodd"
         transform="scale(0.8) rotate(180) translate(12.5,0)" />
    </marker>
    <marker
       inkscape:stockid="Arrow1Lends"
       orient="auto"
       refY="0.0"
       refX="0.0"
       id="Arrow1Lends"
       style="overflow:visible;">
      <path
         id="path36499"
         d="M 0.0,0.0 L 5.0,-5.0 L -12.5,0.0 L 5.0,5.0 L 0.0,0.0 z "
         style="stroke:#ff0000;stroke-width:1.0pt;fill:#ff0000;fill-rule:evenodd"
         transform="scale(0.8) rotate(180) translate(12.5,0)" />
    </marker>
    <marker
       inkscape:stockid="Arrow1Lendq"
       orient="auto"
       refY="0.0"
       refX="0.0"
       id="Arrow1Lendq"
       style="overflow:visible;">
      <path
         id="path36502"
         d="M 0.0,0.0 L 5.0,-5.0 L -12.5,0.0 L 5.0,5.0 L 0.0,0.0 z "
         style="stroke:#ff0000;stroke-width:1.0pt;fill:#ff0000;fill-rule:evenodd"
         transform="scale(0.8) rotate(180) translate(12.5,0)" />
    </marker>
    <marker
       inkscape:stockid="Arrow1LendT"
       orient="auto"
       refY="0.0"
       refX="0.0"
       id="Arrow1LendT"
       style="overflow:visible;">
      <path
         id="path36505"
         d="M 0.0,0.0 L 5.0,-5.0 L -12.5,0.0 L 5.0,5.0 L 0.0,0.0 z "
         style="stroke:#ff0000;stroke-width:1.0pt;fill:#ff0000;fill-rule:evenodd"
         transform="scale(0.8) rotate(180) translate(12.5,0)" />
    </marker>
    <marker
       inkscape:stockid="Arrow1Lend"
       orient="auto"
       refY="0"
       refX="0"
       id="Arrow1Lend-94-7"
       style="overflow:visible">
      <path
         inkscape:connector-curvature="0"
         id="path30867-5-9"
         d="M 0,0 5,-5 -12.5,0 5,5 0,0 z"
         style="fill-rule:evenodd;stroke:#000000;stroke-width:1pt"
         transform="matrix(-0.8,0,0,-0.8,-10,0)" />
    </marker>
    <marker
       inkscape:stockid="Arrow1Lend"
       orient="auto"
       refY="0"
       refX="0"
       id="Arrow1Lend-94-8"
       style="overflow:visible">
      <path
         inkscape:connector-curvature="0"
         id="path30867-5-2"
         d="M 0,0 5,-5 -12.5,0 5,5 0,0 z"
         style="fill-rule:evenodd;stroke:#000000;stroke-width:1pt"
         transform="matrix(-0.8,0,0,-0.8,-10,0)" />
    </marker>
    <marker
       inkscape:stockid="Arrow1Lend"
       orient="auto"
       refY="0"
       refX="0"
       id="Arrow1Lend-94-6"
       style="overflow:visible">
      <path
         inkscape:connector-curvature="0"
         id="path30867-5-1"
         d="M 0,0 5,-5 -12.5,0 5,5 0,0 z"
         style="fill-rule:evenodd;stroke:#000000;stroke-width:1pt"
         transform="matrix(-0.8,0,0,-0.8,-10,0)" />
    </marker>
    <marker
       inkscape:stockid="Arrow1Lend"
       orient="auto"
       refY="0"
       refX="0"
       id="Arrow1Lend-94-88"
       style="overflow:visible">
      <path
         inkscape:connector-curvature="0"
         id="path30867-5-0"
         d="M 0,0 5,-5 -12.5,0 5,5 0,0 z"
         style="fill-rule:evenodd;stroke:#000000;stroke-width:1pt"
         transform="matrix(-0.8,0,0,-0.8,-10,0)" />
    </marker>
    <marker
       inkscape:stockid="Arrow1Lend"
       orient="auto"
       refY="0"
       refX="0"
       id="Arrow1Lend-94-0"
       style="overflow:visible">
      <path
         inkscape:connector-curvature="0"
         id="path30867-5-8"
         d="M 0,0 5,-5 -12.5,0 5,5 0,0 z"
         style="fill-rule:evenodd;stroke:#000000;stroke-width:1pt"
         transform="matrix(-0.8,0,0,-0.8,-10,0)" />
    </marker>
    <marker
       inkscape:stockid="Arrow1Lend"
       orient="auto"
       refY="0"
       refX="0"
       id="Arrow1Lend-94-4"
       style="overflow:visible">
      <path
         inkscape:connector-curvature="0"
         id="path30867-5-93"
         d="M 0,0 5,-5 -12.5,0 5,5 0,0 z"
         style="fill-rule:evenodd;stroke:#000000;stroke-width:1pt"
         transform="matrix(-0.8,0,0,-0.8,-10,0)" />
    </marker>
    <marker
       inkscape:stockid="Arrow1Lend-94j"
       orient="auto"
       refY="0"
       refX="0"
       id="Arrow1Lend-94j"
       style="overflow:visible">
      <path
         inkscape:connector-curvature="0"
         id="path37120"
         d="M 0,0 5,-5 -12.5,0 5,5 0,0 z"
         style="stroke:#0000ff;stroke-width:1pt;fill:#0000ff;fill-rule:evenodd"
         transform="matrix(-0.8,0,0,-0.8,-10,0)" />
    </marker>
    <marker
       inkscape:stockid="Arrow1Lend-94i"
       orient="auto"
       refY="0"
       refX="0"
       id="Arrow1Lend-94i"
       style="overflow:visible">
      <path
         inkscape:connector-curvature="0"
         id="path37123"
         d="M 0,0 5,-5 -12.5,0 5,5 0,0 z"
         style="stroke:#0000ff;stroke-width:1pt;fill:#0000ff;fill-rule:evenodd"
         transform="matrix(-0.8,0,0,-0.8,-10,0)" />
    </marker>
    <marker
       inkscape:stockid="Arrow1Lend-94l"
       orient="auto"
       refY="0"
       refX="0"
       id="Arrow1Lend-94l"
       style="overflow:visible">
      <path
         inkscape:connector-curvature="0"
         id="path37126"
         d="M 0,0 5,-5 -12.5,0 5,5 0,0 z"
         style="stroke:#0000ff;stroke-width:1pt;fill:#0000ff;fill-rule:evenodd"
         transform="matrix(-0.8,0,0,-0.8,-10,0)" />
    </marker>
    <marker
       inkscape:stockid="Arrow1Lend-94W"
       orient="auto"
       refY="0"
       refX="0"
       id="Arrow1Lend-94W"
       style="overflow:visible">
      <path
         inkscape:connector-curvature="0"
         id="path37129"
         d="M 0,0 5,-5 -12.5,0 5,5 0,0 z"
         style="stroke:#0000ff;stroke-width:1pt;fill:#0000ff;fill-rule:evenodd"
         transform="matrix(-0.8,0,0,-0.8,-10,0)" />
    </marker>
    <marker
       inkscape:stockid="Arrow1Lend-941"
       orient="auto"
       refY="0"
       refX="0"
       id="Arrow1Lend-941"
       style="overflow:visible">
      <path
         inkscape:connector-curvature="0"
         id="path37132"
         d="M 0,0 5,-5 -12.5,0 5,5 0,0 z"
         style="stroke:#0000ff;stroke-width:1pt;fill:#0000ff;fill-rule:evenodd"
         transform="matrix(-0.8,0,0,-0.8,-10,0)" />
    </marker>
    <marker
       inkscape:stockid="Arrow1Lend-94Z"
       orient="auto"
       refY="0"
       refX="0"
       id="Arrow1Lend-94Z"
       style="overflow:visible">
      <path
         inkscape:connector-curvature="0"
         id="path37135"
         d="M 0,0 5,-5 -12.5,0 5,5 0,0 z"
         style="stroke:#0000ff;stroke-width:1pt;fill:#0000ff;fill-rule:evenodd"
         transform="matrix(-0.8,0,0,-0.8,-10,0)" />
    </marker>
    <marker
       inkscape:stockid="Arrow1Lend-94c"
       orient="auto"
       refY="0"
       refX="0"
       id="Arrow1Lend-94c"
       style="overflow:visible">
      <path
         inkscape:connector-curvature="0"
         id="path37138"
         d="M 0,0 5,-5 -12.5,0 5,5 0,0 z"
         style="stroke:#0000ff;stroke-width:1pt;fill:#0000ff;fill-rule:evenodd"
         transform="matrix(-0.8,0,0,-0.8,-10,0)" />
    </marker>
    <marker
       inkscape:stockid="Arrow1Lend-94W"
       orient="auto"
       refY="0"
       refX="0"
       id="Arrow1Lend-94W-8"
       style="overflow:visible">
      <path
         inkscape:connector-curvature="0"
         id="path37129-6"
         d="M 0,0 5,-5 -12.5,0 5,5 0,0 z"
         style="fill:#0000ff;fill-rule:evenodd;stroke:#0000ff;stroke-width:1pt"
         transform="matrix(-0.8,0,0,-0.8,-10,0)" />
    </marker>
    <marker
       inkscape:stockid="Arrow1Lend-94W"
       orient="auto"
       refY="0"
       refX="0"
       id="Arrow1Lend-94W-2"
       style="overflow:visible">
      <path
         inkscape:connector-curvature="0"
         id="path37129-3"
         d="M 0,0 5,-5 -12.5,0 5,5 0,0 z"
         style="fill:#0000ff;fill-rule:evenodd;stroke:#0000ff;stroke-width:1pt"
         transform="matrix(-0.8,0,0,-0.8,-10,0)" />
    </marker>
    <marker
       inkscape:stockid="Arrow1Lend-94W"
       orient="auto"
       refY="0"
       refX="0"
       id="Arrow1Lend-94W-1"
       style="overflow:visible">
      <path
         inkscape:connector-curvature="0"
         id="path37129-4"
         d="M 0,0 5,-5 -12.5,0 5,5 0,0 z"
         style="fill:#0000ff;fill-rule:evenodd;stroke:#0000ff;stroke-width:1pt"
         transform="matrix(-0.8,0,0,-0.8,-10,0)" />
    </marker>
    <marker
       inkscape:stockid="Arrow1Lend-94W"
       orient="auto"
       refY="0"
       refX="0"
       id="Arrow1Lend-94W-7"
       style="overflow:visible">
      <path
         inkscape:connector-curvature="0"
         id="path37129-2"
         d="M 0,0 5,-5 -12.5,0 5,5 0,0 z"
         style="fill:#0000ff;fill-rule:evenodd;stroke:#0000ff;stroke-width:1pt"
         transform="matrix(-0.8,0,0,-0.8,-10,0)" />
    </marker>
    <marker
       inkscape:stockid="Arrow1Lend-94W"
       orient="auto"
       refY="0"
       refX="0"
       id="Arrow1Lend-94W-88"
       style="overflow:visible">
      <path
         inkscape:connector-curvature="0"
         id="path37129-1"
         d="M 0,0 5,-5 -12.5,0 5,5 0,0 z"
         style="fill:#0000ff;fill-rule:evenodd;stroke:#0000ff;stroke-width:1pt"
         transform="matrix(-0.8,0,0,-0.8,-10,0)" />
    </marker>
    <marker
       inkscape:stockid="Arrow1Lend-94W"
       orient="auto"
       refY="0"
       refX="0"
       id="Arrow1Lend-94W-0"
       style="overflow:visible">
      <path
         inkscape:connector-curvature="0"
         id="path37129-9"
         d="M 0,0 5,-5 -12.5,0 5,5 0,0 z"
         style="fill:#0000ff;fill-rule:evenodd;stroke:#0000ff;stroke-width:1pt"
         transform="matrix(-0.8,0,0,-0.8,-10,0)" />
    </marker>
    <marker
       inkscape:stockid="Arrow1Lend"
       orient="auto"
       refY="0"
       refX="0"
       id="Arrow1Lend-94-4-1"
       style="overflow:visible">
      <path
         inkscape:connector-curvature="0"
         id="path30867-5-93-7"
         d="M 0,0 5,-5 -12.5,0 5,5 0,0 z"
         style="fill-rule:evenodd;stroke:#000000;stroke-width:1pt"
         transform="matrix(-0.8,0,0,-0.8,-10,0)" />
    </marker>
    <marker
       inkscape:stockid="Arrow1Lend"
       orient="auto"
       refY="0"
       refX="0"
       id="marker37801"
       style="overflow:visible">
      <path
         inkscape:connector-curvature="0"
         id="path37803"
         d="M 0,0 5,-5 -12.5,0 5,5 0,0 z"
         style="fill-rule:evenodd;stroke:#000000;stroke-width:1pt"
         transform="matrix(-0.8,0,0,-0.8,-10,0)" />
    </marker>
    <marker
       inkscape:stockid="Arrow1Lend"
       orient="auto"
       refY="0"
       refX="0"
       id="marker37805"
       style="overflow:visible">
      <path
         inkscape:connector-curvature="0"
         id="path37807"
         d="M 0,0 5,-5 -12.5,0 5,5 0,0 z"
         style="fill-rule:evenodd;stroke:#000000;stroke-width:1pt"
         transform="matrix(-0.8,0,0,-0.8,-10,0)" />
    </marker>
    <marker
       inkscape:stockid="Arrow1Lend"
       orient="auto"
       refY="0"
       refX="0"
       id="marker37809"
       style="overflow:visible">
      <path
         inkscape:connector-curvature="0"
         id="path37811"
         d="M 0,0 5,-5 -12.5,0 5,5 0,0 z"
         style="fill-rule:evenodd;stroke:#000000;stroke-width:1pt"
         transform="matrix(-0.8,0,0,-0.8,-10,0)" />
    </marker>
    <marker
       inkscape:stockid="Arrow1Lend"
       orient="auto"
       refY="0"
       refX="0"
       id="Arrow1Lend-94-4-9"
       style="overflow:visible">
      <path
         inkscape:connector-curvature="0"
         id="path30867-5-93-8"
         d="M 0,0 5,-5 -12.5,0 5,5 0,0 z"
         style="fill-rule:evenodd;stroke:#000000;stroke-width:1pt"
         transform="matrix(-0.8,0,0,-0.8,-10,0)" />
    </marker>
    <marker
       inkscape:stockid="Arrow1Lend"
       orient="auto"
       refY="0"
       refX="0"
       id="marker37858"
       style="overflow:visible">
      <path
         inkscape:connector-curvature="0"
         id="path37860"
         d="M 0,0 5,-5 -12.5,0 5,5 0,0 z"
         style="fill-rule:evenodd;stroke:#000000;stroke-width:1pt"
         transform="matrix(-0.8,0,0,-0.8,-10,0)" />
    </marker>
    <marker
       inkscape:stockid="Arrow1Lend"
       orient="auto"
       refY="0"
       refX="0"
       id="marker37862"
       style="overflow:visible">
      <path
         inkscape:connector-curvature="0"
         id="path37864"
         d="M 0,0 5,-5 -12.5,0 5,5 0,0 z"
         style="fill-rule:evenodd;stroke:#000000;stroke-width:1pt"
         transform="matrix(-0.8,0,0,-0.8,-10,0)" />
    </marker>
    <marker
       inkscape:stockid="Arrow1Lend"
       orient="auto"
       refY="0"
       refX="0"
       id="marker37866"
       style="overflow:visible">
      <path
         inkscape:connector-curvature="0"
         id="path37868"
         d="M 0,0 5,-5 -12.5,0 5,5 0,0 z"
         style="fill-rule:evenodd;stroke:#000000;stroke-width:1pt"
         transform="matrix(-0.8,0,0,-0.8,-10,0)" />
    </marker>
  </defs>
  <metadata
     id="metadata35167">
    <rdf:RDF>
      <cc:Work
         rdf:about="">
        <dc:format>image/svg+xml</dc:format>
        <dc:type
           rdf:resource="http://purl.org/dc/dcmitype/StillImage" />
        <dc:title></dc:title>
      </cc:Work>
    </rdf:RDF>
  </metadata>
  <g
     id="layer1"
     inkscape:groupmode="layer"
     inkscape:label="レイヤー 1">
    <g
       id="g35175"
       transform="translate(-234.28571,325.71429)">
      <g
         word-spacing="normal"
         letter-spacing="normal"
         font-size-adjust="none"
         font-stretch="normal"
         font-weight="normal"
         font-variant="normal"
         font-style="normal"
         stroke-miterlimit="10.433"
         xml:space="preserve"
         transform="matrix(1.0629921,0,0,-1.0629921,-186.02362,789.27165)"
         id="content"
         style="font-style:normal;font-variant:normal;font-weight:normal;font-stretch:normal;letter-spacing:normal;word-spacing:normal;text-anchor:start;fill:none;stroke:#000000;stroke-linecap:butt;stroke-linejoin:miter;stroke-miterlimit:10.43299961;stroke-opacity:1;stroke-dasharray:none;stroke-dashoffset:0"><path
           id="path35178"
           d="m 469.61,436.93 0.01,0.19 0.01,0.2 0.02,0.2 0.03,0.21 0.04,0.21 0.05,0.22 0.06,0.21 0.07,0.22 0.08,0.22 0.1,0.22 0.11,0.22 0.12,0.22 0.14,0.22 0.15,0.21 0.16,0.21 0.18,0.21 0.2,0.2 0.21,0.2 0.23,0.19 0.25,0.18 0.26,0.18 0.29,0.16 0.3,0.16 0.32,0.15 0.34,0.13 0.37,0.13 0.38,0.11 0.41,0.1 0.21,0.05 0.22,0.04 0.22,0.03 0.23,0.04 0.23,0.03 0.24,0.02 0.25,0.03 0.25,0.01 c 0.25,0.05 0.45,0.25 0.45,0.55 0,0.55 -0.41,0.55 -0.95,0.55 -4.99,0 -9.52,-2.53 -9.56,-6.22 v -11.36 c 0,-1.94 0,-3.55 -2,-5.19 -1.74,-1.43 -3.65,-1.54 -4.74,-1.59 -0.25,-0.05 -0.44,-0.25 -0.44,-0.55 0,-0.5 0.3,-0.5 0.8,-0.54 3.28,-0.21 5.67,-1.99 6.22,-4.44 0.16,-0.55 0.16,-0.64 0.16,-2.44 v -9.86 c 0,-2.09 0,-3.69 2.39,-5.58 1.93,-1.5 5.23,-2.04 7.17,-2.04 0.54,0 0.95,0 0.95,0.54 0,0.5 -0.31,0.5 -0.8,0.55 -3.14,0.2 -5.59,1.8 -6.23,4.33 -0.16,0.45 -0.16,0.54 -0.16,2.34 v 10.47 c 0,2.3 -0.39,3.14 -1.98,4.73 -1.05,1.05 -2.5,1.55 -3.89,1.94 4.09,1.14 5.87,3.44 5.87,6.33 z"
           inkscape:connector-curvature="0"
           style="fill:#000000;stroke-width:0" /><path
           id="path35180"
           d="m 503.4,422.14 -0.01,0.74 -0.01,0.75 -0.02,0.75 -0.03,0.74 -0.04,0.75 -0.06,0.74 -0.08,0.74 -0.1,0.73 -0.11,0.73 -0.14,0.73 -0.16,0.72 -0.19,0.72 -0.22,0.72 -0.24,0.7 -0.28,0.7 -0.15,0.35 -0.16,0.34 c -2.28,4.8 -6.38,5.6 -8.47,5.6 -2.98,0 -6.63,-1.3 -8.67,-5.94 -1.6,-3.44 -1.85,-7.33 -1.85,-11.31 0,-3.74 0.21,-8.22 2.25,-12 2.14,-4.03 5.79,-5.03 8.22,-5.03 v 1.09 c -1.93,0 -4.89,1.25 -5.78,6.03 -0.55,2.98 -0.55,7.56 -0.55,10.52 0,3.18 0,6.46 0.41,9.15 0.94,5.94 4.67,6.38 5.92,6.38 1.64,0 4.94,-0.89 5.88,-5.83 0.5,-2.78 0.5,-6.58 0.5,-9.7 0,-3.75 0,-7.13 -0.55,-10.32 -0.75,-4.73 -3.59,-6.23 -5.83,-6.23 h 0 v -1.09 c 2.69,0 6.47,1.04 8.67,5.78 1.6,3.43 1.85,7.31 1.85,11.25 z"
           inkscape:connector-curvature="0"
           style="fill:#000000;stroke-width:0" /><path
           id="path35182"
           d="m 515.54,406.25 0,0.3 -0.01,0.3 -0.02,0.29 -0.02,0.28 -0.04,0.27 -0.03,0.26 -0.05,0.26 -0.05,0.24 -0.06,0.24 -0.06,0.23 -0.07,0.22 -0.08,0.21 -0.08,0.2 -0.09,0.19 -0.1,0.19 -0.1,0.17 -0.1,0.16 -0.12,0.16 -0.11,0.14 -0.13,0.13 -0.13,0.13 -0.13,0.11 -0.14,0.1 -0.14,0.1 -0.15,0.08 -0.16,0.07 -0.15,0.06 -0.17,0.05 -0.16,0.04 -0.18,0.03 -0.17,0.01 -0.19,0.01 c -1.64,0 -2.64,-1.25 -2.64,-2.64 0,-1.34 1,-2.64 2.64,-2.64 0.6,0 1.25,0.2 1.75,0.64 0.15,0.11 0.21,0.16 0.25,0.16 0.05,0 0.1,-0.05 0.1,-0.75 0,-3.69 -1.73,-6.68 -3.39,-8.32 -0.55,-0.54 -0.55,-0.65 -0.55,-0.79 0,-0.36 0.25,-0.55 0.5,-0.55 0.55,0 4.53,3.83 4.53,9.66 z"
           inkscape:connector-curvature="0"
           style="fill:#000000;stroke-width:0" /><path
           id="path35184"
           d="m 542.15,438.09 0,0.05 0,0.06 0,0.05 0,0.05 0,0.05 0,0.05 0,0.04 0,0.05 0,0.04 0,0.04 0,0.04 -0.01,0.04 0,0.04 0,0.03 0,0.04 -0.01,0.03 0,0.07 -0.01,0.06 -0.01,0.05 -0.02,0.05 -0.01,0.05 -0.02,0.04 -0.03,0.04 -0.02,0.03 -0.03,0.03 -0.03,0.03 -0.04,0.03 -0.04,0.02 -0.04,0.02 -0.02,0.01 -0.03,0.01 -0.02,0 -0.03,0.01 -0.03,0.01 -0.03,0 -0.03,0.01 -0.03,0 -0.03,0.01 -0.04,0 -0.04,0 -0.03,0.01 -0.04,0 -0.04,0 -0.04,0 -0.05,0 -0.04,0 -0.05,0.01 -0.05,0 -0.04,0 -0.06,0 -0.05,0 c -3.09,-3.19 -7.47,-3.19 -9.06,-3.19 v -1.55 c 1,0 3.94,0 6.52,1.3 v -25.81 c 0,-1.8 -0.15,-2.39 -4.63,-2.39 h -1.59 v -1.55 c 1.75,0.16 6.07,0.16 8.06,0.16 2,0 6.33,0 8.08,-0.16 v 1.55 h -1.6 c -4.48,0 -4.64,0.54 -4.64,2.39 z"
           inkscape:connector-curvature="0"
           style="fill:#000000;stroke-width:0" /><path
           id="path35186"
           d="m 562.58,406.25 -0.01,0.3 -0.01,0.3 -0.01,0.29 -0.03,0.28 -0.03,0.27 -0.04,0.26 -0.04,0.26 -0.06,0.24 -0.05,0.24 -0.07,0.23 -0.07,0.22 -0.08,0.21 -0.08,0.2 -0.09,0.19 -0.09,0.19 -0.1,0.17 -0.11,0.16 -0.11,0.16 -0.12,0.14 -0.12,0.13 -0.13,0.13 -0.13,0.11 -0.14,0.1 -0.15,0.1 -0.15,0.08 -0.15,0.07 -0.16,0.06 -0.16,0.05 -0.17,0.04 -0.17,0.03 -0.18,0.01 -0.18,0.01 c -1.64,0 -2.64,-1.25 -2.64,-2.64 0,-1.34 1,-2.64 2.64,-2.64 0.59,0 1.25,0.2 1.75,0.64 0.14,0.11 0.2,0.16 0.25,0.16 0.05,0 0.09,-0.05 0.09,-0.75 0,-3.69 -1.73,-6.68 -3.39,-8.32 -0.54,-0.54 -0.54,-0.65 -0.54,-0.79 0,-0.36 0.25,-0.55 0.5,-0.55 0.54,0 4.53,3.83 4.53,9.66 z"
           inkscape:connector-curvature="0"
           style="fill:#000000;stroke-width:0" /><path
           id="path35188"
           d="m 580.87,410.04 5.28,5.13 c 7.77,6.87 10.77,9.56 10.77,14.54 0,5.69 -4.49,9.68 -10.57,9.68 -5.63,0 -9.32,-4.6 -9.32,-9.03 0,-2.79 2.5,-2.79 2.64,-2.79 0.86,0 2.59,0.6 2.59,2.64 0,1.3 -0.89,2.6 -2.64,2.6 -0.39,0 -0.5,0 -0.64,-0.05 1.14,3.24 3.83,5.08 6.72,5.08 4.53,0 6.69,-4.05 6.69,-8.13 0,-3.98 -2.5,-7.92 -5.24,-11.01 l -9.56,-10.66 c -0.56,-0.54 -0.56,-0.64 -0.56,-1.84 h 18.48 l 1.41,8.67 h -1.25 c -0.25,-1.5 -0.6,-3.69 -1.1,-4.44 -0.35,-0.39 -3.64,-0.39 -4.73,-0.39 z"
           inkscape:connector-curvature="0"
           style="fill:#000000;stroke-width:0" /><path
           id="path35190"
           d="m 609.61,406.25 0,0.3 -0.02,0.3 -0.01,0.29 -0.03,0.28 -0.03,0.27 -0.04,0.26 -0.04,0.26 -0.05,0.24 -0.06,0.24 -0.07,0.23 -0.07,0.22 -0.07,0.21 -0.09,0.2 -0.09,0.19 -0.09,0.19 -0.1,0.17 -0.11,0.16 -0.11,0.16 -0.12,0.14 -0.12,0.13 -0.13,0.13 -0.13,0.11 -0.14,0.1 -0.15,0.1 -0.14,0.08 -0.16,0.07 -0.16,0.06 -0.16,0.05 -0.17,0.04 -0.17,0.03 -0.18,0.01 -0.18,0.01 c -1.64,0 -2.64,-1.25 -2.64,-2.64 0,-1.34 1,-2.64 2.64,-2.64 0.6,0 1.25,0.2 1.75,0.64 0.14,0.11 0.21,0.16 0.25,0.16 0.05,0 0.1,-0.05 0.1,-0.75 0,-3.69 -1.74,-6.68 -3.4,-8.32 -0.54,-0.54 -0.54,-0.65 -0.54,-0.79 0,-0.36 0.25,-0.55 0.5,-0.55 0.54,0 4.53,3.83 4.53,9.66 z"
           inkscape:connector-curvature="0"
           style="fill:#000000;stroke-width:0" /><path
           id="path35192"
           d="m 636.03,423.73 0.38,0.13 0.37,0.15 0.37,0.15 0.35,0.17 0.35,0.18 0.34,0.19 0.33,0.2 0.32,0.22 0.31,0.22 0.3,0.23 0.3,0.24 0.28,0.25 0.27,0.26 0.26,0.27 0.25,0.27 0.23,0.29 0.23,0.29 0.21,0.3 0.2,0.3 0.19,0.32 0.17,0.32 0.17,0.32 0.14,0.33 0.13,0.34 0.12,0.34 0.11,0.34 0.08,0.35 0.08,0.36 0.06,0.36 0.04,0.36 0.02,0.36 0.01,0.37 c 0,4.08 -4.39,6.88 -9.17,6.88 -5.03,0 -8.81,-3 -8.81,-6.78 0,-1.65 1.09,-2.6 2.54,-2.6 1.53,0 2.53,1.1 2.53,2.55 0,2.48 -2.34,2.48 -3.07,2.48 1.53,2.44 4.82,3.1 6.62,3.1 2.03,0 4.78,-1.1 4.78,-5.58 0,-0.61 -0.11,-3.49 -1.4,-5.69 -1.49,-2.39 -3.19,-2.53 -4.43,-2.59 -0.4,-0.05 -1.59,-0.14 -1.95,-0.14 -0.39,-0.05 -0.75,-0.1 -0.75,-0.6 0,-0.54 0.36,-0.54 1.2,-0.54 h 2.19 c 4.1,0 5.94,-3.39 5.94,-8.29 0,-6.76 -3.44,-8.21 -5.64,-8.21 -2.14,0 -5.88,0.84 -7.61,3.78 1.73,-0.24 3.28,0.86 3.28,2.75 0,1.79 -1.34,2.78 -2.8,2.78 -1.18,0 -2.78,-0.69 -2.78,-2.89 0,-4.53 4.63,-7.81 10.06,-7.81 6.08,0 10.61,4.53 10.61,9.6 0,4.1 -3.14,7.97 -8.31,9.02 z"
           inkscape:connector-curvature="0"
           style="fill:#000000;stroke-width:0" /><path
           id="path35194"
           d="m 656.65,406.25 -0.01,0.3 -0.01,0.3 -0.02,0.29 -0.02,0.28 -0.03,0.27 -0.04,0.26 -0.05,0.26 -0.05,0.24 -0.06,0.24 -0.06,0.23 -0.07,0.22 -0.08,0.21 -0.08,0.2 -0.09,0.19 -0.1,0.19 -0.1,0.17 -0.1,0.16 -0.12,0.16 -0.11,0.14 -0.13,0.13 -0.12,0.13 -0.14,0.11 -0.14,0.1 -0.14,0.1 -0.15,0.08 -0.15,0.07 -0.16,0.06 -0.17,0.05 -0.16,0.04 -0.18,0.03 -0.17,0.01 -0.18,0.01 c -1.64,0 -2.64,-1.25 -2.64,-2.64 0,-1.34 1,-2.64 2.64,-2.64 0.59,0 1.25,0.2 1.75,0.64 0.14,0.11 0.2,0.16 0.25,0.16 0.04,0 0.09,-0.05 0.09,-0.75 0,-3.69 -1.73,-6.68 -3.39,-8.32 -0.55,-0.54 -0.55,-0.65 -0.55,-0.79 0,-0.36 0.25,-0.55 0.5,-0.55 0.55,0 4.54,3.83 4.54,9.66 z"
           inkscape:connector-curvature="0"
           style="fill:#000000;stroke-width:0" /><path
           id="path35196"
           d="m 683.25,414.42 v -4.33 c 0,-1.8 -0.09,-2.34 -3.78,-2.34 h -1.04 v -1.55 c 2.04,0.16 4.64,0.16 6.73,0.16 2.09,0 4.74,0 6.77,-0.16 v 1.55 h -1.05 c -3.69,0 -3.78,0.54 -3.78,2.34 v 4.33 h 4.98 v 1.54 h -4.98 v 22.68 c 0,1 0,1.29 -0.8,1.29 -0.45,0 -0.59,0 -1,-0.61 L 670,415.96 h 1.41 l 12.16,18.58 V 415.96 H 671.41 670 v -1.54 z"
           inkscape:connector-curvature="0"
           style="fill:#000000;stroke-width:0" /><path
           id="path35198"
           d="m 703.68,406.25 0,0.3 -0.01,0.3 -0.02,0.29 -0.03,0.28 -0.03,0.27 -0.04,0.26 -0.04,0.26 -0.05,0.24 -0.06,0.24 -0.07,0.23 -0.07,0.22 -0.07,0.21 -0.09,0.2 -0.09,0.19 -0.09,0.19 -0.1,0.17 -0.11,0.16 -0.11,0.16 -0.12,0.14 -0.12,0.13 -0.13,0.13 -0.13,0.11 -0.14,0.1 -0.15,0.1 -0.14,0.08 -0.16,0.07 -0.16,0.06 -0.16,0.05 -0.17,0.04 -0.17,0.03 -0.18,0.01 -0.18,0.01 c -1.64,0 -2.64,-1.25 -2.64,-2.64 0,-1.34 1,-2.64 2.64,-2.64 0.6,0 1.25,0.2 1.75,0.64 0.14,0.11 0.21,0.16 0.25,0.16 0.05,0 0.1,-0.05 0.1,-0.75 0,-3.69 -1.74,-6.68 -3.39,-8.32 -0.55,-0.54 -0.55,-0.65 -0.55,-0.79 0,-0.36 0.25,-0.55 0.5,-0.55 0.55,0 4.53,3.83 4.53,9.66 z"
           inkscape:connector-curvature="0"
           style="fill:#000000;stroke-width:0" /><path
           id="path35200"
           d="m 738.02,416.21 -0.01,0.56 -0.03,0.54 -0.06,0.54 -0.08,0.53 -0.11,0.53 -0.12,0.51 -0.15,0.5 -0.16,0.5 -0.19,0.48 -0.2,0.47 -0.22,0.46 -0.25,0.44 -0.26,0.43 -0.27,0.41 -0.3,0.4 -0.31,0.38 -0.32,0.36 -0.34,0.35 -0.36,0.32 -0.37,0.31 -0.38,0.29 -0.4,0.26 -0.41,0.25 -0.42,0.22 -0.43,0.2 -0.45,0.17 -0.45,0.15 -0.46,0.13 -0.48,0.09 -0.48,0.07 -0.49,0.05 -0.51,0.01 c -2.39,0 -4.53,-0.8 -6.32,-2.53 v 9.7 c 1,-0.29 2.64,-0.64 4.23,-0.64 6.13,0 9.61,4.53 9.61,5.19 0,0.3 -0.14,0.55 -0.5,0.55 -0.05,0 -0.14,0 -0.39,-0.16 -1,-0.45 -3.44,-1.44 -6.78,-1.44 -1.99,0 -4.28,0.35 -6.63,1.39 -0.39,0.14 -0.5,0.14 -0.59,0.14 -0.5,0 -0.5,-0.39 -0.5,-1.18 v -14.75 c 0,-0.89 0,-1.3 0.7,-1.3 0.35,0 0.44,0.16 0.64,0.45 0.55,0.8 2.39,3.49 6.43,3.49 2.59,0 3.84,-2.3 4.23,-3.19 0.81,-1.84 0.91,-3.78 0.91,-6.28 0,-1.74 0,-4.74 -1.21,-6.83 -1.18,-1.94 -3.03,-3.23 -5.33,-3.23 -3.64,0 -6.46,2.64 -7.32,5.57 0.15,-0.04 0.31,-0.09 0.86,-0.09 1.64,0 2.48,1.25 2.48,2.44 0,1.2 -0.84,2.44 -2.48,2.44 -0.71,0 -2.46,-0.35 -2.46,-2.65 0,-4.28 3.44,-9.1 9.03,-9.1 5.77,0 10.86,4.78 10.86,11.1 z"
           inkscape:connector-curvature="0"
           style="fill:#000000;stroke-width:0" /><path
           id="path35202"
           d="m 750.72,406.25 -0.01,0.3 -0.01,0.3 -0.02,0.29 -0.02,0.28 -0.03,0.27 -0.04,0.26 -0.05,0.26 -0.05,0.24 -0.06,0.24 -0.06,0.23 -0.07,0.22 -0.08,0.21 -0.08,0.2 -0.09,0.19 -0.1,0.19 -0.1,0.17 -0.1,0.16 -0.12,0.16 -0.11,0.14 -0.13,0.13 -0.12,0.13 -0.14,0.11 -0.14,0.1 -0.14,0.1 -0.15,0.08 -0.15,0.07 -0.16,0.06 -0.17,0.05 -0.16,0.04 -0.18,0.03 -0.17,0.01 -0.18,0.01 c -1.64,0 -2.64,-1.25 -2.64,-2.64 0,-1.34 1,-2.64 2.64,-2.64 0.59,0 1.25,0.2 1.75,0.64 0.14,0.11 0.2,0.16 0.25,0.16 0.04,0 0.09,-0.05 0.09,-0.75 0,-3.69 -1.73,-6.68 -3.39,-8.32 -0.55,-0.54 -0.55,-0.65 -0.55,-0.79 0,-0.36 0.25,-0.55 0.5,-0.55 0.55,0 4.54,3.83 4.54,9.66 z"
           inkscape:connector-curvature="0"
           style="fill:#000000;stroke-width:0" /><path
           id="path35204"
           d="m 769.26,422.54 v 1.19 c 0,12.61 6.17,14.41 8.72,14.41 1.18,0 3.28,-0.3 4.37,-2 -0.73,0 -2.73,0 -2.73,-2.24 0,-1.54 1.2,-2.29 2.29,-2.29 0.8,0 2.29,0.45 2.29,2.39 0,3 -2.19,5.39 -6.32,5.39 -6.39,0 -13.11,-6.44 -13.11,-17.44 0,-13.31 5.78,-16.84 10.41,-16.84 5.53,0 10.27,4.68 10.27,11.25 0,6.32 -4.44,11.12 -9.97,11.12 l -0.05,-1.16 c 0.8,0 3.09,0 4.64,-3.09 0.89,-1.83 0.89,-4.37 0.89,-6.81 0,-2.39 0,-4.89 -0.84,-6.69 -1.5,-2.98 -3.78,-3.23 -4.94,-3.23 h 0 c -3.14,0 -4.63,2.98 -4.92,3.73 -0.91,2.34 -0.91,6.33 -0.91,7.23 0,3.88 1.6,8.86 6.08,8.86 l 0.05,1.16 c -3.38,0 -5.22,-2.55 -6.22,-4.94 z"
           inkscape:connector-curvature="0"
           style="fill:#000000;stroke-width:0" /><path
           id="path35206"
           d="m 797.75,406.25 -0.01,0.3 -0.01,0.3 -0.02,0.29 -0.02,0.28 -0.03,0.27 -0.04,0.26 -0.05,0.26 -0.05,0.24 -0.06,0.24 -0.06,0.23 -0.07,0.22 -0.08,0.21 -0.08,0.2 -0.09,0.19 -0.09,0.19 -0.11,0.17 -0.1,0.16 -0.11,0.16 -0.12,0.14 -0.12,0.13 -0.13,0.13 -0.14,0.11 -0.14,0.1 -0.14,0.1 -0.15,0.08 -0.15,0.07 -0.16,0.06 -0.16,0.05 -0.17,0.04 -0.17,0.03 -0.18,0.01 -0.18,0.01 c -1.64,0 -2.64,-1.25 -2.64,-2.64 0,-1.34 1,-2.64 2.64,-2.64 0.59,0 1.25,0.2 1.75,0.64 0.14,0.11 0.2,0.16 0.25,0.16 0.04,0 0.09,-0.05 0.09,-0.75 0,-3.69 -1.73,-6.68 -3.39,-8.32 -0.54,-0.54 -0.54,-0.65 -0.54,-0.79 0,-0.36 0.25,-0.55 0.5,-0.55 0.54,0 4.53,3.83 4.53,9.66 z"
           inkscape:connector-curvature="0"
           style="fill:#000000;stroke-width:0" /><path
           id="path35208"
           d="m 833.43,436.54 0.04,0.06 0.04,0.05 0.04,0.05 0.03,0.05 0.03,0.04 0.03,0.04 0.02,0.05 0.03,0.04 0.02,0.04 0.02,0.04 0.02,0.04 0.01,0.04 0.02,0.04 0.01,0.04 0.02,0.04 0.01,0.04 0.01,0.04 0,0.05 0.01,0.05 0.01,0.04 0,0.06 0.01,0.05 0,0.06 0,0.06 0.01,0.06 0,0.07 0,0.07 0,0.08 0,0.08 0,0.08 0,0.09 0,0.05 0,0.05 h -12.09 c -6.08,0 -6.19,0.65 -6.39,1.59 h -1.24 l -1.64,-10.25 h 1.24 c 0.15,0.8 0.6,3.94 1.25,4.53 0.34,0.3 4.23,0.3 4.87,0.3 h 10.33 c -0.56,-0.8 -4.48,-6.24 -5.6,-7.88 -4.48,-6.71 -6.12,-13.65 -6.12,-18.73 0,-0.5 0,-2.73 2.3,-2.73 2.29,0 2.29,2.23 2.29,2.73 v 2.55 c 0,2.73 0.15,5.48 0.55,8.17 0.19,1.14 0.89,5.42 3.08,8.51 z"
           inkscape:connector-curvature="0"
           style="fill:#000000;stroke-width:0" /><path
           id="path35210"
           d="m 844.78,406.25 0,0.3 -0.01,0.3 -0.02,0.29 -0.03,0.28 -0.03,0.27 -0.04,0.26 -0.04,0.26 -0.05,0.24 -0.06,0.24 -0.06,0.23 -0.08,0.22 -0.07,0.21 -0.09,0.2 -0.08,0.19 -0.1,0.19 -0.1,0.17 -0.11,0.16 -0.11,0.16 -0.12,0.14 -0.12,0.13 -0.13,0.13 -0.13,0.11 -0.14,0.1 -0.14,0.1 -0.15,0.08 -0.16,0.07 -0.16,0.06 -0.16,0.05 -0.17,0.04 -0.17,0.03 -0.18,0.01 -0.18,0.01 c -1.64,0 -2.64,-1.25 -2.64,-2.64 0,-1.34 1,-2.64 2.64,-2.64 0.6,0 1.25,0.2 1.75,0.64 0.14,0.11 0.21,0.16 0.25,0.16 0.05,0 0.1,-0.05 0.1,-0.75 0,-3.69 -1.74,-6.68 -3.39,-8.32 -0.55,-0.54 -0.55,-0.65 -0.55,-0.79 0,-0.36 0.25,-0.55 0.5,-0.55 0.55,0 4.53,3.83 4.53,9.66 z"
           inkscape:connector-curvature="0"
           style="fill:#000000;stroke-width:0" /><path
           id="path35212"
           d="m 872.14,424.23 0.33,0.18 0.33,0.17 0.32,0.19 0.31,0.19 0.31,0.19 0.29,0.2 0.29,0.2 0.28,0.2 0.27,0.21 0.26,0.22 0.25,0.21 0.25,0.23 0.23,0.22 0.23,0.24 0.21,0.23 0.2,0.24 0.2,0.24 0.18,0.25 0.17,0.25 0.16,0.26 0.15,0.26 0.14,0.27 0.12,0.27 0.11,0.27 0.11,0.28 0.08,0.28 0.08,0.28 0.06,0.29 0.05,0.29 0.03,0.3 0.02,0.3 0.01,0.31 c 0,4.59 -4.44,7.44 -8.97,7.44 l -0.04,-1.25 c 3.64,0 6.82,-2.6 6.82,-6.19 0,-2.83 -1.95,-5.22 -4.93,-6.97 l -6.17,3.98 c -2.3,1.5 -2.5,3.19 -2.5,4.04 0,3.04 3.24,5.14 6.78,5.14 l 0.04,1.25 c -4.98,0 -9.01,-3.69 -9.01,-8.33 0,-0.89 0.09,-3.14 2.19,-5.49 0.54,-0.59 2.39,-1.84 3.64,-2.68 l 1.14,-0.75 6.14,-3.88 c 1.39,-0.95 3.73,-2.45 3.73,-5.48 0,-3.69 -3.73,-6.28 -7.83,-6.28 -4.28,0 -7.87,3.09 -7.87,7.21 0,2.9 1.59,6.08 5.83,8.43 h 0 l -1.14,0.75 c -2.9,-1.44 -7.18,-4.24 -7.18,-9.18 0,-5.28 5.08,-8.6 10.32,-8.6 5.62,0 10.36,4.14 10.36,9.46 0,1.79 -0.55,4.04 -2.44,6.13 -0.96,1.05 -1.75,1.55 -4.94,3.53 z"
           inkscape:connector-curvature="0"
           style="fill:#000000;stroke-width:0" /><path
           id="path35214"
           d="m 891.82,406.25 -0.01,0.3 -0.01,0.3 -0.02,0.29 -0.02,0.28 -0.03,0.27 -0.04,0.26 -0.05,0.26 -0.05,0.24 -0.06,0.24 -0.06,0.23 -0.07,0.22 -0.08,0.21 -0.08,0.2 -0.09,0.19 -0.09,0.19 -0.11,0.17 -0.1,0.16 -0.11,0.16 -0.12,0.14 -0.12,0.13 -0.13,0.13 -0.14,0.11 -0.14,0.1 -0.14,0.1 -0.15,0.08 -0.15,0.07 -0.16,0.06 -0.16,0.05 -0.17,0.04 -0.17,0.03 -0.18,0.01 -0.18,0.01 c -1.64,0 -2.64,-1.25 -2.64,-2.64 0,-1.34 1,-2.64 2.64,-2.64 0.59,0 1.25,0.2 1.75,0.64 0.14,0.11 0.2,0.16 0.25,0.16 0.05,0 0.09,-0.05 0.09,-0.75 0,-3.69 -1.73,-6.68 -3.39,-8.32 -0.55,-0.54 -0.55,-0.65 -0.55,-0.79 0,-0.36 0.25,-0.55 0.5,-0.55 0.55,0 4.54,3.83 4.54,9.66 z"
           inkscape:connector-curvature="0"
           style="fill:#000000;stroke-width:0" /><path
           id="path35216"
           d="m 922.06,422.04 v -1.59 c 0,-11.66 -5.17,-13.95 -8.06,-13.95 -0.86,0 -3.55,0.11 -4.89,1.79 2.19,0 2.59,1.44 2.59,2.3 0,1.53 -1.2,2.28 -2.29,2.28 -0.8,0 -2.29,-0.44 -2.29,-2.39 0,-3.33 2.69,-5.37 6.93,-5.37 6.42,0 12.5,6.76 12.5,17.48 0,13.41 -5.74,16.8 -10.16,16.8 -2.75,0 -5.19,-0.91 -7.33,-3.14 -2.04,-2.25 -3.18,-4.35 -3.18,-8.08 0,-6.22 4.39,-11.11 9.96,-11.11 l 0.05,1.14 c -0.8,0 -3.09,0 -4.64,3.14 -0.89,1.84 -0.89,4.34 -0.89,6.78 0,2.69 0,5.03 1.05,6.88 1.34,2.48 3.23,3.14 4.98,3.14 2.28,0 3.94,-1.71 4.78,-3.94 0.6,-1.59 0.8,-4.74 0.8,-7.03 0,-4.13 -1.7,-8.97 -6.08,-8.97 h 0 l -0.05,-1.14 c 3.04,0 5.08,2.09 6.22,4.98 z"
           inkscape:connector-curvature="0"
           style="fill:#000000;stroke-width:0" /><path
           id="path35218"
           d="m 938.85,406.25 -0.01,0.3 -0.01,0.3 -0.01,0.29 -0.03,0.28 -0.03,0.27 -0.04,0.26 -0.04,0.26 -0.06,0.24 -0.05,0.24 -0.07,0.23 -0.07,0.22 -0.08,0.21 -0.08,0.2 -0.09,0.19 -0.09,0.19 -0.1,0.17 -0.11,0.16 -0.11,0.16 -0.12,0.14 -0.12,0.13 -0.13,0.13 -0.14,0.11 -0.13,0.1 -0.15,0.1 -0.15,0.08 -0.15,0.07 -0.16,0.06 -0.16,0.05 -0.17,0.04 -0.17,0.03 -0.18,0.01 -0.18,0.01 c -1.64,0 -2.64,-1.25 -2.64,-2.64 0,-1.34 1,-2.64 2.64,-2.64 0.59,0 1.25,0.2 1.75,0.64 0.14,0.11 0.2,0.16 0.25,0.16 0.05,0 0.09,-0.05 0.09,-0.75 0,-3.69 -1.73,-6.68 -3.39,-8.32 -0.54,-0.54 -0.54,-0.65 -0.54,-0.79 0,-0.36 0.25,-0.55 0.5,-0.55 0.54,0 4.53,3.83 4.53,9.66 z"
           inkscape:connector-curvature="0"
           style="fill:#000000;stroke-width:0" /><path
           id="path35220"
           d="m 960.38,418.65 0,0.14 -0.01,0.13 -0.02,0.13 -0.02,0.13 -0.03,0.13 -0.04,0.13 -0.04,0.12 -0.05,0.12 -0.05,0.11 -0.06,0.12 -0.06,0.11 -0.07,0.11 -0.08,0.1 -0.08,0.1 -0.08,0.1 -0.09,0.09 -0.09,0.08 -0.09,0.09 -0.1,0.08 -0.11,0.07 -0.11,0.07 -0.11,0.06 -0.11,0.06 -0.12,0.05 -0.12,0.05 -0.12,0.04 -0.12,0.04 -0.13,0.03 -0.13,0.02 -0.13,0.02 -0.14,0.01 -0.13,0 c -1.44,0 -2.64,-1.18 -2.64,-2.64 0,-1.44 1.2,-2.64 2.64,-2.64 1.45,0 2.64,1.2 2.64,2.64 z"
           inkscape:connector-curvature="0"
           style="fill:#000000;stroke-width:0" /><path
           id="path35222"
           d="m 982.46,418.65 -0.01,0.14 -0.01,0.13 -0.01,0.13 -0.03,0.13 -0.03,0.13 -0.03,0.13 -0.04,0.12 -0.05,0.12 -0.05,0.11 -0.06,0.12 -0.07,0.11 -0.07,0.11 -0.07,0.1 -0.08,0.1 -0.08,0.1 -0.09,0.09 -0.09,0.08 -0.1,0.09 -0.1,0.08 -0.1,0.07 -0.11,0.07 -0.11,0.06 -0.11,0.06 -0.12,0.05 -0.12,0.05 -0.12,0.04 -0.13,0.04 -0.12,0.03 -0.13,0.02 -0.13,0.02 -0.14,0.01 -0.13,0 c -1.44,0 -2.64,-1.18 -2.64,-2.64 0,-1.44 1.2,-2.64 2.64,-2.64 1.45,0 2.64,1.2 2.64,2.64 z"
           inkscape:connector-curvature="0"
           style="fill:#000000;stroke-width:0" /><path
           id="path35224"
           d="m 1004.5,418.65 0,0.14 0,0.13 0,0.13 0,0.13 -0.1,0.13 0,0.13 0,0.12 -0.1,0.12 0,0.11 -0.1,0.12 -0.1,0.11 0,0.11 -0.1,0.1 -0.1,0.1 -0.1,0.1 0,0.09 -0.1,0.08 -0.1,0.09 -0.1,0.08 -0.1,0.07 -0.1,0.07 -0.2,0.06 -0.1,0.06 -0.1,0.05 -0.1,0.05 -0.1,0.04 -0.2,0.04 -0.1,0.03 -0.1,0.02 -0.1,0.02 -0.2,0.01 -0.1,0 c -1.4,0 -2.65,-1.18 -2.65,-2.64 0,-1.44 1.25,-2.64 2.65,-2.64 1.4,0 2.6,1.2 2.6,2.64 z"
           inkscape:connector-curvature="0"
           style="fill:#000000;stroke-width:0" /><path
           id="path35226"
           d="m 1028.1,400.37 -0.1,-0.19 0,-0.2 0,-0.2 0,-0.21 -0.1,-0.21 0,-0.21 -0.1,-0.22 0,-0.22 -0.1,-0.22 -0.1,-0.22 -0.1,-0.22 -0.1,-0.22 -0.2,-0.21 -0.1,-0.22 -0.2,-0.21 -0.2,-0.21 -0.2,-0.2 -0.2,-0.19 -0.2,-0.19 -0.3,-0.19 -0.2,-0.17 -0.3,-0.17 -0.3,-0.15 -0.3,-0.15 -0.4,-0.14 -0.3,-0.12 -0.4,-0.12 -0.4,-0.1 -0.2,-0.04 -0.3,-0.04 -0.2,-0.04 -0.2,-0.03 -0.2,-0.03 -0.3,-0.03 -0.2,-0.02 -0.3,-0.02 c -0.2,-0.05 -0.4,-0.25 -0.4,-0.55 0,-0.54 0.5,-0.54 1,-0.54 4.8,0 9.4,2.43 9.5,6.21 v 11.36 c 0,1.96 0,3.55 2,5.19 1.7,1.45 3.6,1.55 4.7,1.6 0.3,0.04 0.5,0.25 0.5,0.54 0,0.5 -0.4,0.5 -0.8,0.55 -3.3,0.2 -5.7,2 -6.3,4.44 -0.1,0.54 -0.1,0.64 -0.1,2.43 v 9.88 c 0,2.08 0,3.69 -2.4,5.58 -2,1.54 -5.4,2.03 -7.1,2.03 -0.5,0 -1,0 -1,-0.55 0,-0.5 0.3,-0.5 0.8,-0.55 3.1,-0.18 5.5,-1.79 6.2,-4.32 0.2,-0.46 0.2,-0.55 0.2,-2.35 v -10.47 c 0,-2.28 0.3,-3.12 1.9,-4.73 1.1,-1.03 2.5,-1.53 3.9,-1.94 -4.1,-1.14 -5.8,-3.44 -5.8,-6.33 z"
           inkscape:connector-curvature="0"
           style="fill:#000000;stroke-width:0" /></g>    </g>
    <g
       id="g35290"
       transform="translate(-234.28571,142.85714)">
      <g
         id="g35292"
         transform="matrix(1.0629921,0,0,-1.0629921,-186.02362,789.27165)"
         xml:space="preserve"
         stroke-miterlimit="10.433"
         font-style="normal"
         font-variant="normal"
         font-weight="normal"
         font-stretch="normal"
         font-size-adjust="none"
         letter-spacing="normal"
         word-spacing="normal"
         style="font-style:normal;font-variant:normal;font-weight:normal;font-stretch:normal;letter-spacing:normal;word-spacing:normal;text-anchor:start;fill:none;stroke:#000000;stroke-linecap:butt;stroke-linejoin:miter;stroke-miterlimit:10.43299961;stroke-opacity:1;stroke-dasharray:none;stroke-dashoffset:0"><path
           d="m 469.61,436.93 0.01,0.19 0.01,0.2 0.02,0.2 0.03,0.21 0.04,0.21 0.05,0.22 0.06,0.21 0.07,0.22 0.08,0.22 0.1,0.22 0.11,0.22 0.12,0.22 0.14,0.22 0.15,0.21 0.16,0.21 0.18,0.21 0.2,0.2 0.21,0.2 0.23,0.19 0.25,0.18 0.26,0.18 0.29,0.16 0.3,0.16 0.32,0.15 0.34,0.13 0.37,0.13 0.38,0.11 0.41,0.1 0.21,0.05 0.22,0.04 0.22,0.03 0.23,0.04 0.23,0.03 0.24,0.02 0.25,0.03 0.25,0.01 c 0.25,0.05 0.45,0.25 0.45,0.55 0,0.55 -0.41,0.55 -0.95,0.55 -4.99,0 -9.52,-2.53 -9.56,-6.22 v -11.36 c 0,-1.94 0,-3.55 -2,-5.19 -1.74,-1.43 -3.65,-1.54 -4.74,-1.59 -0.25,-0.05 -0.44,-0.25 -0.44,-0.55 0,-0.5 0.3,-0.5 0.8,-0.54 3.28,-0.21 5.67,-1.99 6.22,-4.44 0.16,-0.55 0.16,-0.64 0.16,-2.44 v -9.86 c 0,-2.09 0,-3.69 2.39,-5.58 1.93,-1.5 5.23,-2.04 7.17,-2.04 0.54,0 0.95,0 0.95,0.54 0,0.5 -0.31,0.5 -0.8,0.55 -3.14,0.2 -5.59,1.8 -6.23,4.33 -0.16,0.45 -0.16,0.54 -0.16,2.34 v 10.47 c 0,2.3 -0.39,3.14 -1.98,4.73 -1.05,1.05 -2.5,1.55 -3.89,1.94 4.09,1.14 5.87,3.44 5.87,6.33 z"
           id="path35294"
           inkscape:connector-curvature="0"
           style="fill:#000000;stroke-width:0" /><path
           d="m 503.4,422.14 -0.01,0.74 -0.01,0.75 -0.02,0.75 -0.03,0.74 -0.04,0.75 -0.06,0.74 -0.08,0.74 -0.1,0.73 -0.11,0.73 -0.14,0.73 -0.16,0.72 -0.19,0.72 -0.22,0.72 -0.24,0.7 -0.28,0.7 -0.15,0.35 -0.16,0.34 c -2.28,4.8 -6.38,5.6 -8.47,5.6 -2.98,0 -6.63,-1.3 -8.67,-5.94 -1.6,-3.44 -1.85,-7.33 -1.85,-11.31 0,-3.74 0.21,-8.22 2.25,-12 2.14,-4.03 5.79,-5.03 8.22,-5.03 v 1.09 c -1.93,0 -4.89,1.25 -5.78,6.03 -0.55,2.98 -0.55,7.56 -0.55,10.52 0,3.18 0,6.46 0.41,9.15 0.94,5.94 4.67,6.38 5.92,6.38 1.64,0 4.94,-0.89 5.88,-5.83 0.5,-2.78 0.5,-6.58 0.5,-9.7 0,-3.75 0,-7.13 -0.55,-10.32 -0.75,-4.73 -3.59,-6.23 -5.83,-6.23 h 0 v -1.09 c 2.69,0 6.47,1.04 8.67,5.78 1.6,3.43 1.85,7.31 1.85,11.25 z"
           id="path35296"
           inkscape:connector-curvature="0"
           style="fill:#000000;stroke-width:0" /><path
           d="m 515.54,406.25 0,0.3 -0.01,0.3 -0.02,0.29 -0.02,0.28 -0.04,0.27 -0.03,0.26 -0.05,0.26 -0.05,0.24 -0.06,0.24 -0.06,0.23 -0.07,0.22 -0.08,0.21 -0.08,0.2 -0.09,0.19 -0.1,0.19 -0.1,0.17 -0.1,0.16 -0.12,0.16 -0.11,0.14 -0.13,0.13 -0.13,0.13 -0.13,0.11 -0.14,0.1 -0.14,0.1 -0.15,0.08 -0.16,0.07 -0.15,0.06 -0.17,0.05 -0.16,0.04 -0.18,0.03 -0.17,0.01 -0.19,0.01 c -1.64,0 -2.64,-1.25 -2.64,-2.64 0,-1.34 1,-2.64 2.64,-2.64 0.6,0 1.25,0.2 1.75,0.64 0.15,0.11 0.21,0.16 0.25,0.16 0.05,0 0.1,-0.05 0.1,-0.75 0,-3.69 -1.73,-6.68 -3.39,-8.32 -0.55,-0.54 -0.55,-0.65 -0.55,-0.79 0,-0.36 0.25,-0.55 0.5,-0.55 0.55,0 4.53,3.83 4.53,9.66 z"
           id="path35298"
           inkscape:connector-curvature="0"
           style="fill:#000000;stroke-width:0" /><path
           d="m 542.15,438.09 0,0.05 0,0.06 0,0.05 0,0.05 0,0.05 0,0.05 0,0.04 0,0.05 0,0.04 0,0.04 0,0.04 -0.01,0.04 0,0.04 0,0.03 0,0.04 -0.01,0.03 0,0.07 -0.01,0.06 -0.01,0.05 -0.02,0.05 -0.01,0.05 -0.02,0.04 -0.03,0.04 -0.02,0.03 -0.03,0.03 -0.03,0.03 -0.04,0.03 -0.04,0.02 -0.04,0.02 -0.02,0.01 -0.03,0.01 -0.02,0 -0.03,0.01 -0.03,0.01 -0.03,0 -0.03,0.01 -0.03,0 -0.03,0.01 -0.04,0 -0.04,0 -0.03,0.01 -0.04,0 -0.04,0 -0.04,0 -0.05,0 -0.04,0 -0.05,0.01 -0.05,0 -0.04,0 -0.06,0 -0.05,0 c -3.09,-3.19 -7.47,-3.19 -9.06,-3.19 v -1.55 c 1,0 3.94,0 6.52,1.3 v -25.81 c 0,-1.8 -0.15,-2.39 -4.63,-2.39 h -1.59 v -1.55 c 1.75,0.16 6.07,0.16 8.06,0.16 2,0 6.33,0 8.08,-0.16 v 1.55 h -1.6 c -4.48,0 -4.64,0.54 -4.64,2.39 z"
           id="path35300"
           inkscape:connector-curvature="0"
           style="fill:#000000;stroke-width:0" /><path
           d="m 562.58,406.25 -0.01,0.3 -0.01,0.3 -0.01,0.29 -0.03,0.28 -0.03,0.27 -0.04,0.26 -0.04,0.26 -0.06,0.24 -0.05,0.24 -0.07,0.23 -0.07,0.22 -0.08,0.21 -0.08,0.2 -0.09,0.19 -0.09,0.19 -0.1,0.17 -0.11,0.16 -0.11,0.16 -0.12,0.14 -0.12,0.13 -0.13,0.13 -0.13,0.11 -0.14,0.1 -0.15,0.1 -0.15,0.08 -0.15,0.07 -0.16,0.06 -0.16,0.05 -0.17,0.04 -0.17,0.03 -0.18,0.01 -0.18,0.01 c -1.64,0 -2.64,-1.25 -2.64,-2.64 0,-1.34 1,-2.64 2.64,-2.64 0.59,0 1.25,0.2 1.75,0.64 0.14,0.11 0.2,0.16 0.25,0.16 0.05,0 0.09,-0.05 0.09,-0.75 0,-3.69 -1.73,-6.68 -3.39,-8.32 -0.54,-0.54 -0.54,-0.65 -0.54,-0.79 0,-0.36 0.25,-0.55 0.5,-0.55 0.54,0 4.53,3.83 4.53,9.66 z"
           id="path35302"
           inkscape:connector-curvature="0"
           style="fill:#000000;stroke-width:0" /><path
           d="m 580.87,410.04 5.28,5.13 c 7.77,6.87 10.77,9.56 10.77,14.54 0,5.69 -4.49,9.68 -10.57,9.68 -5.63,0 -9.32,-4.6 -9.32,-9.03 0,-2.79 2.5,-2.79 2.64,-2.79 0.86,0 2.59,0.6 2.59,2.64 0,1.3 -0.89,2.6 -2.64,2.6 -0.39,0 -0.5,0 -0.64,-0.05 1.14,3.24 3.83,5.08 6.72,5.08 4.53,0 6.69,-4.05 6.69,-8.13 0,-3.98 -2.5,-7.92 -5.24,-11.01 l -9.56,-10.66 c -0.56,-0.54 -0.56,-0.64 -0.56,-1.84 h 18.48 l 1.41,8.67 h -1.25 c -0.25,-1.5 -0.6,-3.69 -1.1,-4.44 -0.35,-0.39 -3.64,-0.39 -4.73,-0.39 z"
           id="path35304"
           inkscape:connector-curvature="0"
           style="fill:#000000;stroke-width:0" /><path
           d="m 609.61,406.25 0,0.3 -0.02,0.3 -0.01,0.29 -0.03,0.28 -0.03,0.27 -0.04,0.26 -0.04,0.26 -0.05,0.24 -0.06,0.24 -0.07,0.23 -0.07,0.22 -0.07,0.21 -0.09,0.2 -0.09,0.19 -0.09,0.19 -0.1,0.17 -0.11,0.16 -0.11,0.16 -0.12,0.14 -0.12,0.13 -0.13,0.13 -0.13,0.11 -0.14,0.1 -0.15,0.1 -0.14,0.08 -0.16,0.07 -0.16,0.06 -0.16,0.05 -0.17,0.04 -0.17,0.03 -0.18,0.01 -0.18,0.01 c -1.64,0 -2.64,-1.25 -2.64,-2.64 0,-1.34 1,-2.64 2.64,-2.64 0.6,0 1.25,0.2 1.75,0.64 0.14,0.11 0.21,0.16 0.25,0.16 0.05,0 0.1,-0.05 0.1,-0.75 0,-3.69 -1.74,-6.68 -3.4,-8.32 -0.54,-0.54 -0.54,-0.65 -0.54,-0.79 0,-0.36 0.25,-0.55 0.5,-0.55 0.54,0 4.53,3.83 4.53,9.66 z"
           id="path35306"
           inkscape:connector-curvature="0"
           style="fill:#000000;stroke-width:0" /><path
           d="m 636.03,423.73 0.38,0.13 0.37,0.15 0.37,0.15 0.35,0.17 0.35,0.18 0.34,0.19 0.33,0.2 0.32,0.22 0.31,0.22 0.3,0.23 0.3,0.24 0.28,0.25 0.27,0.26 0.26,0.27 0.25,0.27 0.23,0.29 0.23,0.29 0.21,0.3 0.2,0.3 0.19,0.32 0.17,0.32 0.17,0.32 0.14,0.33 0.13,0.34 0.12,0.34 0.11,0.34 0.08,0.35 0.08,0.36 0.06,0.36 0.04,0.36 0.02,0.36 0.01,0.37 c 0,4.08 -4.39,6.88 -9.17,6.88 -5.03,0 -8.81,-3 -8.81,-6.78 0,-1.65 1.09,-2.6 2.54,-2.6 1.53,0 2.53,1.1 2.53,2.55 0,2.48 -2.34,2.48 -3.07,2.48 1.53,2.44 4.82,3.1 6.62,3.1 2.03,0 4.78,-1.1 4.78,-5.58 0,-0.61 -0.11,-3.49 -1.4,-5.69 -1.49,-2.39 -3.19,-2.53 -4.43,-2.59 -0.4,-0.05 -1.59,-0.14 -1.95,-0.14 -0.39,-0.05 -0.75,-0.1 -0.75,-0.6 0,-0.54 0.36,-0.54 1.2,-0.54 h 2.19 c 4.1,0 5.94,-3.39 5.94,-8.29 0,-6.76 -3.44,-8.21 -5.64,-8.21 -2.14,0 -5.88,0.84 -7.61,3.78 1.73,-0.24 3.28,0.86 3.28,2.75 0,1.79 -1.34,2.78 -2.8,2.78 -1.18,0 -2.78,-0.69 -2.78,-2.89 0,-4.53 4.63,-7.81 10.06,-7.81 6.08,0 10.61,4.53 10.61,9.6 0,4.1 -3.14,7.97 -8.31,9.02 z"
           id="path35308"
           inkscape:connector-curvature="0"
           style="fill:#000000;stroke-width:0" /><path
           d="m 656.65,406.25 -0.01,0.3 -0.01,0.3 -0.02,0.29 -0.02,0.28 -0.03,0.27 -0.04,0.26 -0.05,0.26 -0.05,0.24 -0.06,0.24 -0.06,0.23 -0.07,0.22 -0.08,0.21 -0.08,0.2 -0.09,0.19 -0.1,0.19 -0.1,0.17 -0.1,0.16 -0.12,0.16 -0.11,0.14 -0.13,0.13 -0.12,0.13 -0.14,0.11 -0.14,0.1 -0.14,0.1 -0.15,0.08 -0.15,0.07 -0.16,0.06 -0.17,0.05 -0.16,0.04 -0.18,0.03 -0.17,0.01 -0.18,0.01 c -1.64,0 -2.64,-1.25 -2.64,-2.64 0,-1.34 1,-2.64 2.64,-2.64 0.59,0 1.25,0.2 1.75,0.64 0.14,0.11 0.2,0.16 0.25,0.16 0.04,0 0.09,-0.05 0.09,-0.75 0,-3.69 -1.73,-6.68 -3.39,-8.32 -0.55,-0.54 -0.55,-0.65 -0.55,-0.79 0,-0.36 0.25,-0.55 0.5,-0.55 0.55,0 4.54,3.83 4.54,9.66 z"
           id="path35310"
           inkscape:connector-curvature="0"
           style="fill:#000000;stroke-width:0" /><path
           d="m 683.25,414.42 v -4.33 c 0,-1.8 -0.09,-2.34 -3.78,-2.34 h -1.04 v -1.55 c 2.04,0.16 4.64,0.16 6.73,0.16 2.09,0 4.74,0 6.77,-0.16 v 1.55 h -1.05 c -3.69,0 -3.78,0.54 -3.78,2.34 v 4.33 h 4.98 v 1.54 h -4.98 v 22.68 c 0,1 0,1.29 -0.8,1.29 -0.45,0 -0.59,0 -1,-0.61 L 670,415.96 h 1.41 l 12.16,18.58 V 415.96 H 671.41 670 v -1.54 z"
           id="path35312"
           inkscape:connector-curvature="0"
           style="fill:#000000;stroke-width:0" /><path
           d="m 703.68,406.25 0,0.3 -0.01,0.3 -0.02,0.29 -0.03,0.28 -0.03,0.27 -0.04,0.26 -0.04,0.26 -0.05,0.24 -0.06,0.24 -0.07,0.23 -0.07,0.22 -0.07,0.21 -0.09,0.2 -0.09,0.19 -0.09,0.19 -0.1,0.17 -0.11,0.16 -0.11,0.16 -0.12,0.14 -0.12,0.13 -0.13,0.13 -0.13,0.11 -0.14,0.1 -0.15,0.1 -0.14,0.08 -0.16,0.07 -0.16,0.06 -0.16,0.05 -0.17,0.04 -0.17,0.03 -0.18,0.01 -0.18,0.01 c -1.64,0 -2.64,-1.25 -2.64,-2.64 0,-1.34 1,-2.64 2.64,-2.64 0.6,0 1.25,0.2 1.75,0.64 0.14,0.11 0.21,0.16 0.25,0.16 0.05,0 0.1,-0.05 0.1,-0.75 0,-3.69 -1.74,-6.68 -3.39,-8.32 -0.55,-0.54 -0.55,-0.65 -0.55,-0.79 0,-0.36 0.25,-0.55 0.5,-0.55 0.55,0 4.53,3.83 4.53,9.66 z"
           id="path35314"
           inkscape:connector-curvature="0"
           style="fill:#000000;stroke-width:0" /><path
           d="m 738.02,416.21 -0.01,0.56 -0.03,0.54 -0.06,0.54 -0.08,0.53 -0.11,0.53 -0.12,0.51 -0.15,0.5 -0.16,0.5 -0.19,0.48 -0.2,0.47 -0.22,0.46 -0.25,0.44 -0.26,0.43 -0.27,0.41 -0.3,0.4 -0.31,0.38 -0.32,0.36 -0.34,0.35 -0.36,0.32 -0.37,0.31 -0.38,0.29 -0.4,0.26 -0.41,0.25 -0.42,0.22 -0.43,0.2 -0.45,0.17 -0.45,0.15 -0.46,0.13 -0.48,0.09 -0.48,0.07 -0.49,0.05 -0.51,0.01 c -2.39,0 -4.53,-0.8 -6.32,-2.53 v 9.7 c 1,-0.29 2.64,-0.64 4.23,-0.64 6.13,0 9.61,4.53 9.61,5.19 0,0.3 -0.14,0.55 -0.5,0.55 -0.05,0 -0.14,0 -0.39,-0.16 -1,-0.45 -3.44,-1.44 -6.78,-1.44 -1.99,0 -4.28,0.35 -6.63,1.39 -0.39,0.14 -0.5,0.14 -0.59,0.14 -0.5,0 -0.5,-0.39 -0.5,-1.18 v -14.75 c 0,-0.89 0,-1.3 0.7,-1.3 0.35,0 0.44,0.16 0.64,0.45 0.55,0.8 2.39,3.49 6.43,3.49 2.59,0 3.84,-2.3 4.23,-3.19 0.81,-1.84 0.91,-3.78 0.91,-6.28 0,-1.74 0,-4.74 -1.21,-6.83 -1.18,-1.94 -3.03,-3.23 -5.33,-3.23 -3.64,0 -6.46,2.64 -7.32,5.57 0.15,-0.04 0.31,-0.09 0.86,-0.09 1.64,0 2.48,1.25 2.48,2.44 0,1.2 -0.84,2.44 -2.48,2.44 -0.71,0 -2.46,-0.35 -2.46,-2.65 0,-4.28 3.44,-9.1 9.03,-9.1 5.77,0 10.86,4.78 10.86,11.1 z"
           id="path35316"
           inkscape:connector-curvature="0"
           style="fill:#000000;stroke-width:0" /><path
           d="m 750.72,406.25 -0.01,0.3 -0.01,0.3 -0.02,0.29 -0.02,0.28 -0.03,0.27 -0.04,0.26 -0.05,0.26 -0.05,0.24 -0.06,0.24 -0.06,0.23 -0.07,0.22 -0.08,0.21 -0.08,0.2 -0.09,0.19 -0.1,0.19 -0.1,0.17 -0.1,0.16 -0.12,0.16 -0.11,0.14 -0.13,0.13 -0.12,0.13 -0.14,0.11 -0.14,0.1 -0.14,0.1 -0.15,0.08 -0.15,0.07 -0.16,0.06 -0.17,0.05 -0.16,0.04 -0.18,0.03 -0.17,0.01 -0.18,0.01 c -1.64,0 -2.64,-1.25 -2.64,-2.64 0,-1.34 1,-2.64 2.64,-2.64 0.59,0 1.25,0.2 1.75,0.64 0.14,0.11 0.2,0.16 0.25,0.16 0.04,0 0.09,-0.05 0.09,-0.75 0,-3.69 -1.73,-6.68 -3.39,-8.32 -0.55,-0.54 -0.55,-0.65 -0.55,-0.79 0,-0.36 0.25,-0.55 0.5,-0.55 0.55,0 4.54,3.83 4.54,9.66 z"
           id="path35318"
           inkscape:connector-curvature="0"
           style="fill:#000000;stroke-width:0" /><path
           d="m 769.26,422.54 v 1.19 c 0,12.61 6.17,14.41 8.72,14.41 1.18,0 3.28,-0.3 4.37,-2 -0.73,0 -2.73,0 -2.73,-2.24 0,-1.54 1.2,-2.29 2.29,-2.29 0.8,0 2.29,0.45 2.29,2.39 0,3 -2.19,5.39 -6.32,5.39 -6.39,0 -13.11,-6.44 -13.11,-17.44 0,-13.31 5.78,-16.84 10.41,-16.84 5.53,0 10.27,4.68 10.27,11.25 0,6.32 -4.44,11.12 -9.97,11.12 l -0.05,-1.16 c 0.8,0 3.09,0 4.64,-3.09 0.89,-1.83 0.89,-4.37 0.89,-6.81 0,-2.39 0,-4.89 -0.84,-6.69 -1.5,-2.98 -3.78,-3.23 -4.94,-3.23 h 0 c -3.14,0 -4.63,2.98 -4.92,3.73 -0.91,2.34 -0.91,6.33 -0.91,7.23 0,3.88 1.6,8.86 6.08,8.86 l 0.05,1.16 c -3.38,0 -5.22,-2.55 -6.22,-4.94 z"
           id="path35320"
           inkscape:connector-curvature="0"
           style="fill:#000000;stroke-width:0" /><path
           d="m 797.75,406.25 -0.01,0.3 -0.01,0.3 -0.02,0.29 -0.02,0.28 -0.03,0.27 -0.04,0.26 -0.05,0.26 -0.05,0.24 -0.06,0.24 -0.06,0.23 -0.07,0.22 -0.08,0.21 -0.08,0.2 -0.09,0.19 -0.09,0.19 -0.11,0.17 -0.1,0.16 -0.11,0.16 -0.12,0.14 -0.12,0.13 -0.13,0.13 -0.14,0.11 -0.14,0.1 -0.14,0.1 -0.15,0.08 -0.15,0.07 -0.16,0.06 -0.16,0.05 -0.17,0.04 -0.17,0.03 -0.18,0.01 -0.18,0.01 c -1.64,0 -2.64,-1.25 -2.64,-2.64 0,-1.34 1,-2.64 2.64,-2.64 0.59,0 1.25,0.2 1.75,0.64 0.14,0.11 0.2,0.16 0.25,0.16 0.04,0 0.09,-0.05 0.09,-0.75 0,-3.69 -1.73,-6.68 -3.39,-8.32 -0.54,-0.54 -0.54,-0.65 -0.54,-0.79 0,-0.36 0.25,-0.55 0.5,-0.55 0.54,0 4.53,3.83 4.53,9.66 z"
           id="path35322"
           inkscape:connector-curvature="0"
           style="fill:#000000;stroke-width:0" /><path
           d="m 833.43,436.54 0.04,0.06 0.04,0.05 0.04,0.05 0.03,0.05 0.03,0.04 0.03,0.04 0.02,0.05 0.03,0.04 0.02,0.04 0.02,0.04 0.02,0.04 0.01,0.04 0.02,0.04 0.01,0.04 0.02,0.04 0.01,0.04 0.01,0.04 0,0.05 0.01,0.05 0.01,0.04 0,0.06 0.01,0.05 0,0.06 0,0.06 0.01,0.06 0,0.07 0,0.07 0,0.08 0,0.08 0,0.08 0,0.09 0,0.05 0,0.05 h -12.09 c -6.08,0 -6.19,0.65 -6.39,1.59 h -1.24 l -1.64,-10.25 h 1.24 c 0.15,0.8 0.6,3.94 1.25,4.53 0.34,0.3 4.23,0.3 4.87,0.3 h 10.33 c -0.56,-0.8 -4.48,-6.24 -5.6,-7.88 -4.48,-6.71 -6.12,-13.65 -6.12,-18.73 0,-0.5 0,-2.73 2.3,-2.73 2.29,0 2.29,2.23 2.29,2.73 v 2.55 c 0,2.73 0.15,5.48 0.55,8.17 0.19,1.14 0.89,5.42 3.08,8.51 z"
           id="path35324"
           inkscape:connector-curvature="0"
           style="fill:#000000;stroke-width:0" /><path
           d="m 844.78,406.25 0,0.3 -0.01,0.3 -0.02,0.29 -0.03,0.28 -0.03,0.27 -0.04,0.26 -0.04,0.26 -0.05,0.24 -0.06,0.24 -0.06,0.23 -0.08,0.22 -0.07,0.21 -0.09,0.2 -0.08,0.19 -0.1,0.19 -0.1,0.17 -0.11,0.16 -0.11,0.16 -0.12,0.14 -0.12,0.13 -0.13,0.13 -0.13,0.11 -0.14,0.1 -0.14,0.1 -0.15,0.08 -0.16,0.07 -0.16,0.06 -0.16,0.05 -0.17,0.04 -0.17,0.03 -0.18,0.01 -0.18,0.01 c -1.64,0 -2.64,-1.25 -2.64,-2.64 0,-1.34 1,-2.64 2.64,-2.64 0.6,0 1.25,0.2 1.75,0.64 0.14,0.11 0.21,0.16 0.25,0.16 0.05,0 0.1,-0.05 0.1,-0.75 0,-3.69 -1.74,-6.68 -3.39,-8.32 -0.55,-0.54 -0.55,-0.65 -0.55,-0.79 0,-0.36 0.25,-0.55 0.5,-0.55 0.55,0 4.53,3.83 4.53,9.66 z"
           id="path35326"
           inkscape:connector-curvature="0"
           style="fill:#000000;stroke-width:0" /><path
           d="m 872.14,424.23 0.33,0.18 0.33,0.17 0.32,0.19 0.31,0.19 0.31,0.19 0.29,0.2 0.29,0.2 0.28,0.2 0.27,0.21 0.26,0.22 0.25,0.21 0.25,0.23 0.23,0.22 0.23,0.24 0.21,0.23 0.2,0.24 0.2,0.24 0.18,0.25 0.17,0.25 0.16,0.26 0.15,0.26 0.14,0.27 0.12,0.27 0.11,0.27 0.11,0.28 0.08,0.28 0.08,0.28 0.06,0.29 0.05,0.29 0.03,0.3 0.02,0.3 0.01,0.31 c 0,4.59 -4.44,7.44 -8.97,7.44 l -0.04,-1.25 c 3.64,0 6.82,-2.6 6.82,-6.19 0,-2.83 -1.95,-5.22 -4.93,-6.97 l -6.17,3.98 c -2.3,1.5 -2.5,3.19 -2.5,4.04 0,3.04 3.24,5.14 6.78,5.14 l 0.04,1.25 c -4.98,0 -9.01,-3.69 -9.01,-8.33 0,-0.89 0.09,-3.14 2.19,-5.49 0.54,-0.59 2.39,-1.84 3.64,-2.68 l 1.14,-0.75 6.14,-3.88 c 1.39,-0.95 3.73,-2.45 3.73,-5.48 0,-3.69 -3.73,-6.28 -7.83,-6.28 -4.28,0 -7.87,3.09 -7.87,7.21 0,2.9 1.59,6.08 5.83,8.43 h 0 l -1.14,0.75 c -2.9,-1.44 -7.18,-4.24 -7.18,-9.18 0,-5.28 5.08,-8.6 10.32,-8.6 5.62,0 10.36,4.14 10.36,9.46 0,1.79 -0.55,4.04 -2.44,6.13 -0.96,1.05 -1.75,1.55 -4.94,3.53 z"
           id="path35328"
           inkscape:connector-curvature="0"
           style="fill:#000000;stroke-width:0" /><path
           d="m 891.82,406.25 -0.01,0.3 -0.01,0.3 -0.02,0.29 -0.02,0.28 -0.03,0.27 -0.04,0.26 -0.05,0.26 -0.05,0.24 -0.06,0.24 -0.06,0.23 -0.07,0.22 -0.08,0.21 -0.08,0.2 -0.09,0.19 -0.09,0.19 -0.11,0.17 -0.1,0.16 -0.11,0.16 -0.12,0.14 -0.12,0.13 -0.13,0.13 -0.14,0.11 -0.14,0.1 -0.14,0.1 -0.15,0.08 -0.15,0.07 -0.16,0.06 -0.16,0.05 -0.17,0.04 -0.17,0.03 -0.18,0.01 -0.18,0.01 c -1.64,0 -2.64,-1.25 -2.64,-2.64 0,-1.34 1,-2.64 2.64,-2.64 0.59,0 1.25,0.2 1.75,0.64 0.14,0.11 0.2,0.16 0.25,0.16 0.05,0 0.09,-0.05 0.09,-0.75 0,-3.69 -1.73,-6.68 -3.39,-8.32 -0.55,-0.54 -0.55,-0.65 -0.55,-0.79 0,-0.36 0.25,-0.55 0.5,-0.55 0.55,0 4.54,3.83 4.54,9.66 z"
           id="path35330"
           inkscape:connector-curvature="0"
           style="fill:#000000;stroke-width:0" /><path
           d="m 922.06,422.04 v -1.59 c 0,-11.66 -5.17,-13.95 -8.06,-13.95 -0.86,0 -3.55,0.11 -4.89,1.79 2.19,0 2.59,1.44 2.59,2.3 0,1.53 -1.2,2.28 -2.29,2.28 -0.8,0 -2.29,-0.44 -2.29,-2.39 0,-3.33 2.69,-5.37 6.93,-5.37 6.42,0 12.5,6.76 12.5,17.48 0,13.41 -5.74,16.8 -10.16,16.8 -2.75,0 -5.19,-0.91 -7.33,-3.14 -2.04,-2.25 -3.18,-4.35 -3.18,-8.08 0,-6.22 4.39,-11.11 9.96,-11.11 l 0.05,1.14 c -0.8,0 -3.09,0 -4.64,3.14 -0.89,1.84 -0.89,4.34 -0.89,6.78 0,2.69 0,5.03 1.05,6.88 1.34,2.48 3.23,3.14 4.98,3.14 2.28,0 3.94,-1.71 4.78,-3.94 0.6,-1.59 0.8,-4.74 0.8,-7.03 0,-4.13 -1.7,-8.97 -6.08,-8.97 h 0 l -0.05,-1.14 c 3.04,0 5.08,2.09 6.22,4.98 z"
           id="path35332"
           inkscape:connector-curvature="0"
           style="fill:#000000;stroke-width:0" /><path
           d="m 938.85,406.25 -0.01,0.3 -0.01,0.3 -0.01,0.29 -0.03,0.28 -0.03,0.27 -0.04,0.26 -0.04,0.26 -0.06,0.24 -0.05,0.24 -0.07,0.23 -0.07,0.22 -0.08,0.21 -0.08,0.2 -0.09,0.19 -0.09,0.19 -0.1,0.17 -0.11,0.16 -0.11,0.16 -0.12,0.14 -0.12,0.13 -0.13,0.13 -0.14,0.11 -0.13,0.1 -0.15,0.1 -0.15,0.08 -0.15,0.07 -0.16,0.06 -0.16,0.05 -0.17,0.04 -0.17,0.03 -0.18,0.01 -0.18,0.01 c -1.64,0 -2.64,-1.25 -2.64,-2.64 0,-1.34 1,-2.64 2.64,-2.64 0.59,0 1.25,0.2 1.75,0.64 0.14,0.11 0.2,0.16 0.25,0.16 0.05,0 0.09,-0.05 0.09,-0.75 0,-3.69 -1.73,-6.68 -3.39,-8.32 -0.54,-0.54 -0.54,-0.65 -0.54,-0.79 0,-0.36 0.25,-0.55 0.5,-0.55 0.54,0 4.53,3.83 4.53,9.66 z"
           id="path35334"
           inkscape:connector-curvature="0"
           style="fill:#000000;stroke-width:0" /><path
           d="m 960.38,418.65 0,0.14 -0.01,0.13 -0.02,0.13 -0.02,0.13 -0.03,0.13 -0.04,0.13 -0.04,0.12 -0.05,0.12 -0.05,0.11 -0.06,0.12 -0.06,0.11 -0.07,0.11 -0.08,0.1 -0.08,0.1 -0.08,0.1 -0.09,0.09 -0.09,0.08 -0.09,0.09 -0.1,0.08 -0.11,0.07 -0.11,0.07 -0.11,0.06 -0.11,0.06 -0.12,0.05 -0.12,0.05 -0.12,0.04 -0.12,0.04 -0.13,0.03 -0.13,0.02 -0.13,0.02 -0.14,0.01 -0.13,0 c -1.44,0 -2.64,-1.18 -2.64,-2.64 0,-1.44 1.2,-2.64 2.64,-2.64 1.45,0 2.64,1.2 2.64,2.64 z"
           id="path35336"
           inkscape:connector-curvature="0"
           style="fill:#000000;stroke-width:0" /><path
           d="m 982.46,418.65 -0.01,0.14 -0.01,0.13 -0.01,0.13 -0.03,0.13 -0.03,0.13 -0.03,0.13 -0.04,0.12 -0.05,0.12 -0.05,0.11 -0.06,0.12 -0.07,0.11 -0.07,0.11 -0.07,0.1 -0.08,0.1 -0.08,0.1 -0.09,0.09 -0.09,0.08 -0.1,0.09 -0.1,0.08 -0.1,0.07 -0.11,0.07 -0.11,0.06 -0.11,0.06 -0.12,0.05 -0.12,0.05 -0.12,0.04 -0.13,0.04 -0.12,0.03 -0.13,0.02 -0.13,0.02 -0.14,0.01 -0.13,0 c -1.44,0 -2.64,-1.18 -2.64,-2.64 0,-1.44 1.2,-2.64 2.64,-2.64 1.45,0 2.64,1.2 2.64,2.64 z"
           id="path35338"
           inkscape:connector-curvature="0"
           style="fill:#000000;stroke-width:0" /><path
           d="m 1004.5,418.65 0,0.14 0,0.13 0,0.13 0,0.13 -0.1,0.13 0,0.13 0,0.12 -0.1,0.12 0,0.11 -0.1,0.12 -0.1,0.11 0,0.11 -0.1,0.1 -0.1,0.1 -0.1,0.1 0,0.09 -0.1,0.08 -0.1,0.09 -0.1,0.08 -0.1,0.07 -0.1,0.07 -0.2,0.06 -0.1,0.06 -0.1,0.05 -0.1,0.05 -0.1,0.04 -0.2,0.04 -0.1,0.03 -0.1,0.02 -0.1,0.02 -0.2,0.01 -0.1,0 c -1.4,0 -2.65,-1.18 -2.65,-2.64 0,-1.44 1.25,-2.64 2.65,-2.64 1.4,0 2.6,1.2 2.6,2.64 z"
           id="path35340"
           inkscape:connector-curvature="0"
           style="fill:#000000;stroke-width:0" /><path
           d="m 1028.1,400.37 -0.1,-0.19 0,-0.2 0,-0.2 0,-0.21 -0.1,-0.21 0,-0.21 -0.1,-0.22 0,-0.22 -0.1,-0.22 -0.1,-0.22 -0.1,-0.22 -0.1,-0.22 -0.2,-0.21 -0.1,-0.22 -0.2,-0.21 -0.2,-0.21 -0.2,-0.2 -0.2,-0.19 -0.2,-0.19 -0.3,-0.19 -0.2,-0.17 -0.3,-0.17 -0.3,-0.15 -0.3,-0.15 -0.4,-0.14 -0.3,-0.12 -0.4,-0.12 -0.4,-0.1 -0.2,-0.04 -0.3,-0.04 -0.2,-0.04 -0.2,-0.03 -0.2,-0.03 -0.3,-0.03 -0.2,-0.02 -0.3,-0.02 c -0.2,-0.05 -0.4,-0.25 -0.4,-0.55 0,-0.54 0.5,-0.54 1,-0.54 4.8,0 9.4,2.43 9.5,6.21 v 11.36 c 0,1.96 0,3.55 2,5.19 1.7,1.45 3.6,1.55 4.7,1.6 0.3,0.04 0.5,0.25 0.5,0.54 0,0.5 -0.4,0.5 -0.8,0.55 -3.3,0.2 -5.7,2 -6.3,4.44 -0.1,0.54 -0.1,0.64 -0.1,2.43 v 9.88 c 0,2.08 0,3.69 -2.4,5.58 -2,1.54 -5.4,2.03 -7.1,2.03 -0.5,0 -1,0 -1,-0.55 0,-0.5 0.3,-0.5 0.8,-0.55 3.1,-0.18 5.5,-1.79 6.2,-4.32 0.2,-0.46 0.2,-0.55 0.2,-2.35 v -10.47 c 0,-2.28 0.3,-3.12 1.9,-4.73 1.1,-1.03 2.5,-1.53 3.9,-1.94 -4.1,-1.14 -5.8,-3.44 -5.8,-6.33 z"
           id="path35342"
           inkscape:connector-curvature="0"
           style="fill:#000000;stroke-width:0" /></g>    </g>
    <g
       id="g35460"
       transform="translate(-22.857143,498.57143)">
      <g
         word-spacing="normal"
         letter-spacing="normal"
         font-size-adjust="none"
         font-stretch="normal"
         font-weight="normal"
         font-variant="normal"
         font-style="normal"
         stroke-miterlimit="10.433"
         xml:space="preserve"
         transform="matrix(1.0629921,0,0,-1.0629921,-186.02362,789.27165)"
         id="g35462"
         style="font-style:normal;font-variant:normal;font-weight:normal;font-stretch:normal;letter-spacing:normal;word-spacing:normal;text-anchor:start;fill:none;stroke:#000000;stroke-linecap:butt;stroke-linejoin:miter;stroke-miterlimit:10.43299961;stroke-opacity:1;stroke-dasharray:none;stroke-dashoffset:0"><path
           id="path35464"
           d="m 469.61,436.93 0.01,0.19 0.01,0.2 0.02,0.2 0.03,0.21 0.04,0.21 0.05,0.22 0.06,0.21 0.07,0.22 0.08,0.22 0.1,0.22 0.11,0.22 0.12,0.22 0.14,0.22 0.15,0.21 0.16,0.21 0.18,0.21 0.2,0.2 0.21,0.2 0.23,0.19 0.25,0.18 0.26,0.18 0.29,0.16 0.3,0.16 0.32,0.15 0.34,0.13 0.37,0.13 0.38,0.11 0.41,0.1 0.21,0.05 0.22,0.04 0.22,0.03 0.23,0.04 0.23,0.03 0.24,0.02 0.25,0.03 0.25,0.01 c 0.25,0.05 0.45,0.25 0.45,0.55 0,0.55 -0.41,0.55 -0.95,0.55 -4.99,0 -9.52,-2.53 -9.56,-6.22 v -11.36 c 0,-1.94 0,-3.55 -2,-5.19 -1.74,-1.43 -3.65,-1.54 -4.74,-1.59 -0.25,-0.05 -0.44,-0.25 -0.44,-0.55 0,-0.5 0.3,-0.5 0.8,-0.54 3.28,-0.21 5.67,-1.99 6.22,-4.44 0.16,-0.55 0.16,-0.64 0.16,-2.44 v -9.86 c 0,-2.09 0,-3.69 2.39,-5.58 1.93,-1.5 5.23,-2.04 7.17,-2.04 0.54,0 0.95,0 0.95,0.54 0,0.5 -0.31,0.5 -0.8,0.55 -3.14,0.2 -5.59,1.8 -6.23,4.33 -0.16,0.45 -0.16,0.54 -0.16,2.34 v 10.47 c 0,2.3 -0.39,3.14 -1.98,4.73 -1.05,1.05 -2.5,1.55 -3.89,1.94 4.09,1.14 5.87,3.44 5.87,6.33 z"
           inkscape:connector-curvature="0"
           style="fill:#000000;stroke-width:0" /><path
           id="path35466"
           d="m 503.4,422.14 -0.01,0.74 -0.01,0.75 -0.02,0.75 -0.03,0.74 -0.04,0.75 -0.06,0.74 -0.08,0.74 -0.1,0.73 -0.11,0.73 -0.14,0.73 -0.16,0.72 -0.19,0.72 -0.22,0.72 -0.24,0.7 -0.28,0.7 -0.15,0.35 -0.16,0.34 c -2.28,4.8 -6.38,5.6 -8.47,5.6 -2.98,0 -6.63,-1.3 -8.67,-5.94 -1.6,-3.44 -1.85,-7.33 -1.85,-11.31 0,-3.74 0.21,-8.22 2.25,-12 2.14,-4.03 5.79,-5.03 8.22,-5.03 v 1.09 c -1.93,0 -4.89,1.25 -5.78,6.03 -0.55,2.98 -0.55,7.56 -0.55,10.52 0,3.18 0,6.46 0.41,9.15 0.94,5.94 4.67,6.38 5.92,6.38 1.64,0 4.94,-0.89 5.88,-5.83 0.5,-2.78 0.5,-6.58 0.5,-9.7 0,-3.75 0,-7.13 -0.55,-10.32 -0.75,-4.73 -3.59,-6.23 -5.83,-6.23 h 0 v -1.09 c 2.69,0 6.47,1.04 8.67,5.78 1.6,3.43 1.85,7.31 1.85,11.25 z"
           inkscape:connector-curvature="0"
           style="fill:#000000;stroke-width:0" /><path
           id="path35468"
           d="m 515.54,406.25 0,0.3 -0.01,0.3 -0.02,0.29 -0.02,0.28 -0.04,0.27 -0.03,0.26 -0.05,0.26 -0.05,0.24 -0.06,0.24 -0.06,0.23 -0.07,0.22 -0.08,0.21 -0.08,0.2 -0.09,0.19 -0.1,0.19 -0.1,0.17 -0.1,0.16 -0.12,0.16 -0.11,0.14 -0.13,0.13 -0.13,0.13 -0.13,0.11 -0.14,0.1 -0.14,0.1 -0.15,0.08 -0.16,0.07 -0.15,0.06 -0.17,0.05 -0.16,0.04 -0.18,0.03 -0.17,0.01 -0.19,0.01 c -1.64,0 -2.64,-1.25 -2.64,-2.64 0,-1.34 1,-2.64 2.64,-2.64 0.6,0 1.25,0.2 1.75,0.64 0.15,0.11 0.21,0.16 0.25,0.16 0.05,0 0.1,-0.05 0.1,-0.75 0,-3.69 -1.73,-6.68 -3.39,-8.32 -0.55,-0.54 -0.55,-0.65 -0.55,-0.79 0,-0.36 0.25,-0.55 0.5,-0.55 0.55,0 4.53,3.83 4.53,9.66 z"
           inkscape:connector-curvature="0"
           style="fill:#000000;stroke-width:0" /><path
           id="path35470"
           d="m 542.15,438.09 0,0.05 0,0.06 0,0.05 0,0.05 0,0.05 0,0.05 0,0.04 0,0.05 0,0.04 0,0.04 0,0.04 -0.01,0.04 0,0.04 0,0.03 0,0.04 -0.01,0.03 0,0.07 -0.01,0.06 -0.01,0.05 -0.02,0.05 -0.01,0.05 -0.02,0.04 -0.03,0.04 -0.02,0.03 -0.03,0.03 -0.03,0.03 -0.04,0.03 -0.04,0.02 -0.04,0.02 -0.02,0.01 -0.03,0.01 -0.02,0 -0.03,0.01 -0.03,0.01 -0.03,0 -0.03,0.01 -0.03,0 -0.03,0.01 -0.04,0 -0.04,0 -0.03,0.01 -0.04,0 -0.04,0 -0.04,0 -0.05,0 -0.04,0 -0.05,0.01 -0.05,0 -0.04,0 -0.06,0 -0.05,0 c -3.09,-3.19 -7.47,-3.19 -9.06,-3.19 v -1.55 c 1,0 3.94,0 6.52,1.3 v -25.81 c 0,-1.8 -0.15,-2.39 -4.63,-2.39 h -1.59 v -1.55 c 1.75,0.16 6.07,0.16 8.06,0.16 2,0 6.33,0 8.08,-0.16 v 1.55 h -1.6 c -4.48,0 -4.64,0.54 -4.64,2.39 z"
           inkscape:connector-curvature="0"
           style="fill:#000000;stroke-width:0" /><path
           id="path35472"
           d="m 562.58,406.25 -0.01,0.3 -0.01,0.3 -0.01,0.29 -0.03,0.28 -0.03,0.27 -0.04,0.26 -0.04,0.26 -0.06,0.24 -0.05,0.24 -0.07,0.23 -0.07,0.22 -0.08,0.21 -0.08,0.2 -0.09,0.19 -0.09,0.19 -0.1,0.17 -0.11,0.16 -0.11,0.16 -0.12,0.14 -0.12,0.13 -0.13,0.13 -0.13,0.11 -0.14,0.1 -0.15,0.1 -0.15,0.08 -0.15,0.07 -0.16,0.06 -0.16,0.05 -0.17,0.04 -0.17,0.03 -0.18,0.01 -0.18,0.01 c -1.64,0 -2.64,-1.25 -2.64,-2.64 0,-1.34 1,-2.64 2.64,-2.64 0.59,0 1.25,0.2 1.75,0.64 0.14,0.11 0.2,0.16 0.25,0.16 0.05,0 0.09,-0.05 0.09,-0.75 0,-3.69 -1.73,-6.68 -3.39,-8.32 -0.54,-0.54 -0.54,-0.65 -0.54,-0.79 0,-0.36 0.25,-0.55 0.5,-0.55 0.54,0 4.53,3.83 4.53,9.66 z"
           inkscape:connector-curvature="0"
           style="fill:#000000;stroke-width:0" /><path
           id="path35474"
           d="m 580.87,410.04 5.28,5.13 c 7.77,6.87 10.77,9.56 10.77,14.54 0,5.69 -4.49,9.68 -10.57,9.68 -5.63,0 -9.32,-4.6 -9.32,-9.03 0,-2.79 2.5,-2.79 2.64,-2.79 0.86,0 2.59,0.6 2.59,2.64 0,1.3 -0.89,2.6 -2.64,2.6 -0.39,0 -0.5,0 -0.64,-0.05 1.14,3.24 3.83,5.08 6.72,5.08 4.53,0 6.69,-4.05 6.69,-8.13 0,-3.98 -2.5,-7.92 -5.24,-11.01 l -9.56,-10.66 c -0.56,-0.54 -0.56,-0.64 -0.56,-1.84 h 18.48 l 1.41,8.67 h -1.25 c -0.25,-1.5 -0.6,-3.69 -1.1,-4.44 -0.35,-0.39 -3.64,-0.39 -4.73,-0.39 z"
           inkscape:connector-curvature="0"
           style="fill:#000000;stroke-width:0" /><path
           id="path35476"
           d="m 610.27,400.37 -0.01,-0.19 -0.01,-0.2 -0.02,-0.2 -0.03,-0.21 -0.04,-0.21 -0.05,-0.21 -0.06,-0.22 -0.07,-0.22 -0.09,-0.22 -0.09,-0.22 -0.11,-0.22 -0.12,-0.22 -0.14,-0.21 -0.15,-0.22 -0.16,-0.21 -0.18,-0.21 -0.2,-0.2 -0.21,-0.19 -0.23,-0.19 -0.25,-0.19 -0.26,-0.17 -0.29,-0.17 -0.3,-0.15 -0.32,-0.15 -0.35,-0.14 -0.36,-0.12 -0.38,-0.12 -0.41,-0.1 -0.21,-0.04 -0.22,-0.04 -0.22,-0.04 -0.23,-0.03 -0.23,-0.03 -0.24,-0.03 -0.25,-0.02 -0.25,-0.02 c -0.25,-0.05 -0.44,-0.25 -0.44,-0.55 0,-0.54 0.55,-0.54 0.99,-0.54 4.84,0 9.47,2.43 9.51,6.21 v 11.36 c 0,1.96 0,3.55 2,5.19 1.75,1.45 3.64,1.55 4.74,1.6 0.25,0.04 0.45,0.25 0.45,0.54 0,0.5 -0.31,0.5 -0.8,0.55 -3.29,0.2 -5.68,2 -6.23,4.44 -0.16,0.54 -0.16,0.64 -0.16,2.43 v 9.88 c 0,2.08 0,3.69 -2.39,5.58 -1.98,1.54 -5.42,2.03 -7.12,2.03 -0.44,0 -0.99,0 -0.99,-0.55 0,-0.5 0.3,-0.5 0.8,-0.55 3.13,-0.18 5.58,-1.79 6.22,-4.32 0.16,-0.46 0.16,-0.55 0.16,-2.35 v -10.47 c 0,-2.28 0.39,-3.12 1.98,-4.73 1.05,-1.03 2.5,-1.53 3.89,-1.94 -4.08,-1.14 -5.87,-3.44 -5.87,-6.33 z"
           inkscape:connector-curvature="0"
           style="fill:#000000;stroke-width:0" /></g>    </g>
    <path
       style="stroke-linejoin:miter;marker-end:url(#Arrow1LendQx);stroke-opacity:1;stroke:#ff0000;stroke-linecap:butt;stroke-width:1px;fill:none"
       d="m 502.53968,523.07646 0,101.42857"
       id="path35544"
       inkscape:connector-curvature="0" />
    <path
       style="stroke-linejoin:miter;marker-end:url(#Arrow1Lends);stroke-opacity:1;stroke:#ff0000;stroke-linecap:butt;stroke-width:1px;fill:none"
       d="m 452.22223,523.07646 0,101.42857"
       id="path35544-9"
       inkscape:connector-curvature="0" />
    <path
       style="stroke-linejoin:miter;marker-end:url(#Arrow1Lend6);stroke-opacity:1;stroke:#ff0000;stroke-linecap:butt;stroke-width:1px;fill:none"
       d="m 401.90475,523.07646 0,101.42857"
       id="path35544-9-3"
       inkscape:connector-curvature="0" />
    <path
       style="stroke-linejoin:miter;marker-end:url(#Arrow1Lendq);stroke-opacity:1;stroke:#ff0000;stroke-linecap:butt;stroke-width:1px;fill:none"
       d="m 351.58728,523.07646 0,101.42857"
       id="path35544-9-3-9"
       inkscape:connector-curvature="0" />
    <path
       style="stroke-linejoin:miter;marker-end:url(#Arrow1LendX);stroke-opacity:1;stroke:#ff0000;stroke-linecap:butt;stroke-width:1px;fill:none"
       d="m 301.26984,523.07646 0,101.42857"
       id="path35544-9-3-9-7"
       inkscape:connector-curvature="0" />
    <path
       style="stroke-linejoin:miter;marker-end:url(#Arrow1LendA);stroke-opacity:1;stroke:#ff0000;stroke-linecap:butt;stroke-width:1px;fill:none"
       d="m 250.95238,523.07646 0,101.42857"
       id="path35544-9-3-9-7-6"
       inkscape:connector-curvature="0" />
    <path
       style="stroke-linejoin:miter;marker-end:url(#Arrow1LendT);stroke-opacity:1;stroke:#ff0000;stroke-linecap:butt;stroke-width:1px;fill:none"
       d="m 200.63492,523.07646 0,101.42857"
       id="path35544-9-3-9-7-6-9"
       inkscape:connector-curvature="0" />
    <path
       style="stroke-linejoin:miter;marker-end:url(#Arrow1LendQ);stroke-opacity:1;stroke:#ff0000;stroke-linecap:butt;stroke-width:1px;fill:none"
       d="m 150.31746,523.07646 0,101.42857"
       id="path35544-9-3-9-7-6-9-4"
       inkscape:connector-curvature="0" />
    <path
       style="stroke-linejoin:miter;marker-end:url(#Arrow1Lend2);stroke-opacity:1;stroke:#ff0000;stroke-linecap:butt;stroke-width:1px;fill:none"
       d="m 100,523.07646 0,101.42857"
       id="path35544-9-3-9-7-6-9-4-7"
       inkscape:connector-curvature="0" />
    <path
       style="stroke-linejoin:miter;marker-end:url(#Arrow1Lendf);stroke-opacity:1;stroke:#ff0000;stroke-linecap:butt;stroke-width:1px;fill:none"
       d="m 552.85714,523.07646 0,101.42857"
       id="path35544-9-3-9-7-6-9-4-7-5"
       inkscape:connector-curvature="0" />
    <path
       inkscape:connector-curvature="0"
       id="path36698"
       d="m 100,524.50504 145.71428,98.57143"
       style="fill:none;stroke:#0000ff;stroke-width:1px;stroke-linecap:butt;stroke-linejoin:miter;stroke-opacity:1;marker-end:url(#Arrow1Lend-94W)"
       sodipodi:nodetypes="cc" />
    <path
       inkscape:connector-curvature="0"
       id="path36698-2"
       d="m 150.2381,524.50504 145.71428,98.57143"
       style="fill:none;stroke:#0000ff;stroke-width:1px;stroke-linecap:butt;stroke-linejoin:miter;stroke-opacity:1;marker-end:url(#Arrow1Lend-94W)"
       sodipodi:nodetypes="cc" />
    <path
       inkscape:connector-curvature="0"
       id="path36698-2-0"
       d="m 200.4762,524.50504 145.71428,98.57143"
       style="fill:none;stroke:#0000ff;stroke-width:1px;stroke-linecap:butt;stroke-linejoin:miter;stroke-opacity:1;marker-end:url(#Arrow1Lend-94W)"
       sodipodi:nodetypes="cc" />
    <path
       inkscape:connector-curvature="0"
       id="path36698-2-0-4"
       d="m 250.71427,524.50504 145.71428,98.57143"
       style="fill:none;stroke:#0000ff;stroke-width:1px;stroke-linecap:butt;stroke-linejoin:miter;stroke-opacity:1;marker-end:url(#Arrow1Lend-94W)"
       sodipodi:nodetypes="cc" />
    <path
       inkscape:connector-curvature="0"
       id="path36698-2-0-4-3"
       d="m 300.95236,524.50504 145.71428,98.57143"
       style="fill:none;stroke:#0000ff;stroke-width:1px;stroke-linecap:butt;stroke-linejoin:miter;stroke-opacity:1;marker-end:url(#Arrow1Lend-94W)"
       sodipodi:nodetypes="cc" />
    <path
       inkscape:connector-curvature="0"
       id="path36698-2-0-4-3-0"
       d="m 351.19047,524.50504 145.71428,98.57143"
       style="fill:none;stroke:#0000ff;stroke-width:1px;stroke-linecap:butt;stroke-linejoin:miter;stroke-opacity:1;marker-end:url(#Arrow1Lend-94W)"
       sodipodi:nodetypes="cc" />
    <path
       inkscape:connector-curvature="0"
       id="path36698-2-0-4-3-0-1"
       d="m 401.42858,524.50504 145.71428,98.57143"
       style="fill:none;stroke:#0000ff;stroke-width:1px;stroke-linecap:butt;stroke-linejoin:miter;stroke-opacity:1;marker-end:url(#Arrow1Lend-94W)"
       sodipodi:nodetypes="cc" />
    <path
       style="fill:none;stroke:#000000;stroke-width:1px;stroke-linecap:butt;stroke-linejoin:miter;stroke-opacity:1;marker-end:url(#Arrow1Lend-94-4)"
       d="M 104.28571,702.36218 308.57143,809.50504"
       id="path37519"
       inkscape:connector-curvature="0" />
    <path
       style="fill:none;stroke:#000000;stroke-width:1px;stroke-linecap:butt;stroke-linejoin:miter;stroke-opacity:1;marker-end:url(#Arrow1Lend-94-4)"
       d="m 254.28571,700.93361 58.57144,108.57143"
       id="path37521"
       inkscape:connector-curvature="0"
       sodipodi:nodetypes="cc" />
    <path
       style="fill:none;stroke:#000000;stroke-width:1px;stroke-linecap:butt;stroke-linejoin:miter;stroke-opacity:1;marker-end:url(#Arrow1Lend-94-4)"
       d="M 404.28571,702.36218 317.14286,809.50504"
       id="path37523"
       inkscape:connector-curvature="0"
       sodipodi:nodetypes="cc" />
    <path
       style="fill:none;stroke:#000000;stroke-width:1px;stroke-linecap:butt;stroke-linejoin:miter;stroke-opacity:1;marker-end:url(#Arrow1Lend-94-4)"
       d="M 555.71429,702.36218 321.42857,809.50504"
       id="path37525"
       inkscape:connector-curvature="0"
       sodipodi:nodetypes="cc" />
    <path
       style="fill:none;stroke:#000000;stroke-width:1px;stroke-linecap:butt;stroke-linejoin:miter;stroke-opacity:1;marker-end:url(#Arrow1Lend-94-4)"
       d="M 154.28571,702.36218 358.57143,809.505"
       id="path37519-9"
       inkscape:connector-curvature="0" />
    <path
       style="fill:none;stroke:#000000;stroke-width:1px;stroke-linecap:butt;stroke-linejoin:miter;stroke-opacity:1;marker-end:url(#Arrow1Lend-94-4)"
       d="M 304.28571,700.93361 362.85715,809.505"
       id="path37521-1"
       inkscape:connector-curvature="0"
       sodipodi:nodetypes="cc" />
    <path
       style="fill:none;stroke:#000000;stroke-width:1px;stroke-linecap:butt;stroke-linejoin:miter;stroke-opacity:1;marker-end:url(#Arrow1Lend-94-4)"
       d="M 454.28571,702.36218 367.14286,809.505"
       id="path37523-8"
       inkscape:connector-curvature="0"
       sodipodi:nodetypes="cc" />
    <path
       style="fill:none;stroke:#000000;stroke-width:1px;stroke-linecap:butt;stroke-linejoin:miter;stroke-opacity:1;marker-end:url(#Arrow1Lend-94-4)"
       d="M 202.85713,702.3622 407.14285,809.50502"
       id="path37519-9-6"
       inkscape:connector-curvature="0" />
    <path
       style="fill:none;stroke:#000000;stroke-width:1px;stroke-linecap:butt;stroke-linejoin:miter;stroke-opacity:1;marker-end:url(#Arrow1Lend-94-4)"
       d="m 352.85713,700.93363 58.57144,108.57139"
       id="path37521-1-1"
       inkscape:connector-curvature="0"
       sodipodi:nodetypes="cc" />
    <path
       style="fill:none;stroke:#000000;stroke-width:1px;stroke-linecap:butt;stroke-linejoin:miter;stroke-opacity:1;marker-end:url(#Arrow1Lend-94-4)"
       d="M 502.85713,702.3622 415.71428,809.50502"
       id="path37523-8-3"
       inkscape:connector-curvature="0"
       sodipodi:nodetypes="cc" />
    <rect
       style="fill:none;stroke:none;stroke-width:1;stroke-linecap:round;stroke-miterlimit:4;stroke-dasharray:8, 8;stroke-dashoffset:0"
       id="rect37903"
       width="632.85712"
       height="421.42859"
       x="55.714283"
       y="453.79077" />
  </g>
</svg>
