<?xml version="1.0" encoding="UTF-8" standalone="no"?>
<!-- Created with Inkscape (http://www.inkscape.org/) -->

<svg
   xmlns:dc="http://purl.org/dc/elements/1.1/"
   xmlns:cc="http://creativecommons.org/ns#"
   xmlns:rdf="http://www.w3.org/1999/02/22-rdf-syntax-ns#"
   xmlns:svg="http://www.w3.org/2000/svg"
   xmlns="http://www.w3.org/2000/svg"
   xmlns:sodipodi="http://sodipodi.sourceforge.net/DTD/sodipodi-0.dtd"
   xmlns:inkscape="http://www.inkscape.org/namespaces/inkscape"
   width="1052.3622"
   height="744.09448"
   id="svg10601"
   version="1.1"
   inkscape:version="0.48.3.1 r9886"
   sodipodi:docname="coequaliser_in_sets2.svg"
   inkscape:export-filename="/home/nineties/projects/category-seminar/fig/coequaliser_in_sets2.png"
   inkscape:export-xdpi="90"
   inkscape:export-ydpi="90">
  <sodipodi:namedview
     id="base"
     pagecolor="#ffffff"
     bordercolor="#666666"
     borderopacity="1.0"
     inkscape:pageopacity="0.0"
     inkscape:pageshadow="2"
     inkscape:zoom="0.5"
     inkscape:cx="852.88589"
     inkscape:cy="490.1154"
     inkscape:document-units="px"
     inkscape:current-layer="layer1"
     showgrid="false"
     inkscape:window-width="1366"
     inkscape:window-height="746"
     inkscape:window-x="0"
     inkscape:window-y="22"
     inkscape:window-maximized="0" />
  <defs
     id="defs10603">
    <marker
       inkscape:stockid="Arrow1Lend"
       orient="auto"
       refY="0.0"
       refX="0.0"
       id="Arrow1Lend"
       style="overflow:visible;">
      <path
         id="path4042"
         d="M 0.0,0.0 L 5.0,-5.0 L -12.5,0.0 L 5.0,5.0 L 0.0,0.0 z "
         style="fill-rule:evenodd;stroke:#000000;stroke-width:1.0pt;"
         transform="scale(0.8) rotate(180) translate(12.5,0)" />
    </marker>
    <marker
       inkscape:stockid="Arrow1Lstart"
       orient="auto"
       refY="0.0"
       refX="0.0"
       id="Arrow1Lstart"
       style="overflow:visible">
      <path
         id="path4039"
         d="M 0.0,0.0 L 5.0,-5.0 L -12.5,0.0 L 5.0,5.0 L 0.0,0.0 z "
         style="fill-rule:evenodd;stroke:#000000;stroke-width:1.0pt"
         transform="scale(0.8) translate(12.5,0)" />
    </marker>
    <marker
       inkscape:stockid="Arrow1Lend5"
       orient="auto"
       refY="0.0"
       refX="0.0"
       id="Arrow1Lend5"
       style="overflow:visible;">
      <path
         id="path4486"
         d="M 0.0,0.0 L 5.0,-5.0 L -12.5,0.0 L 5.0,5.0 L 0.0,0.0 z "
         style="stroke:#ff0000;stroke-width:1.0pt;fill:#ff0000;fill-rule:evenodd"
         transform="scale(0.8) rotate(180) translate(12.5,0)" />
    </marker>
    <marker
       inkscape:stockid="Arrow1Lend5N"
       orient="auto"
       refY="0.0"
       refX="0.0"
       id="Arrow1Lend5N"
       style="overflow:visible;">
      <path
         id="path4489"
         d="M 0.0,0.0 L 5.0,-5.0 L -12.5,0.0 L 5.0,5.0 L 0.0,0.0 z "
         style="stroke:#ff0000;stroke-width:1.0pt;fill:#ff0000;fill-rule:evenodd"
         transform="scale(0.8) rotate(180) translate(12.5,0)" />
    </marker>
    <marker
       inkscape:stockid="Arrow1LendA"
       orient="auto"
       refY="0.0"
       refX="0.0"
       id="Arrow1LendA"
       style="overflow:visible;">
      <path
         id="path4492"
         d="M 0.0,0.0 L 5.0,-5.0 L -12.5,0.0 L 5.0,5.0 L 0.0,0.0 z "
         style="stroke:#ff0000;stroke-width:1.0pt;fill:#ff0000;fill-rule:evenodd"
         transform="scale(0.8) rotate(180) translate(12.5,0)" />
    </marker>
    <marker
       inkscape:stockid="Arrow1LendH"
       orient="auto"
       refY="0.0"
       refX="0.0"
       id="Arrow1LendH"
       style="overflow:visible;">
      <path
         id="path4495"
         d="M 0.0,0.0 L 5.0,-5.0 L -12.5,0.0 L 5.0,5.0 L 0.0,0.0 z "
         style="stroke:#ff0000;stroke-width:1.0pt;fill:#ff0000;fill-rule:evenodd"
         transform="scale(0.8) rotate(180) translate(12.5,0)" />
    </marker>
    <marker
       inkscape:stockid="Arrow1Lend8"
       orient="auto"
       refY="0.0"
       refX="0.0"
       id="Arrow1Lend8"
       style="overflow:visible;">
      <path
         id="path4498"
         d="M 0.0,0.0 L 5.0,-5.0 L -12.5,0.0 L 5.0,5.0 L 0.0,0.0 z "
         style="stroke:#ff0000;stroke-width:1.0pt;fill:#ff0000;fill-rule:evenodd"
         transform="scale(0.8) rotate(180) translate(12.5,0)" />
    </marker>
    <marker
       inkscape:stockid="Arrow1Lend5"
       orient="auto"
       refY="0"
       refX="0"
       id="Arrow1Lend5-3"
       style="overflow:visible">
      <path
         id="path4486-1"
         d="M 0,0 5,-5 -12.5,0 5,5 0,0 z"
         style="fill:#ff0000;fill-rule:evenodd;stroke:#ff0000;stroke-width:1pt"
         transform="matrix(-0.8,0,0,-0.8,-10,0)"
         inkscape:connector-curvature="0" />
    </marker>
    <marker
       inkscape:stockid="Arrow1LendA"
       orient="auto"
       refY="0"
       refX="0"
       id="Arrow1LendA-4"
       style="overflow:visible">
      <path
         id="path4492-6"
         d="M 0,0 5,-5 -12.5,0 5,5 0,0 z"
         style="fill:#ff0000;fill-rule:evenodd;stroke:#ff0000;stroke-width:1pt"
         transform="matrix(-0.8,0,0,-0.8,-10,0)"
         inkscape:connector-curvature="0" />
    </marker>
    <marker
       inkscape:stockid="Arrow1LendH"
       orient="auto"
       refY="0"
       refX="0"
       id="Arrow1LendH-7"
       style="overflow:visible">
      <path
         id="path4495-4"
         d="M 0,0 5,-5 -12.5,0 5,5 0,0 z"
         style="fill:#ff0000;fill-rule:evenodd;stroke:#ff0000;stroke-width:1pt"
         transform="matrix(-0.8,0,0,-0.8,-10,0)"
         inkscape:connector-curvature="0" />
    </marker>
    <marker
       inkscape:stockid="Arrow1Lend5T"
       orient="auto"
       refY="0.0"
       refX="0.0"
       id="Arrow1Lend5T"
       style="overflow:visible;">
      <path
         id="path4687"
         d="M 0.0,0.0 L 5.0,-5.0 L -12.5,0.0 L 5.0,5.0 L 0.0,0.0 z "
         style="fill-rule:evenodd;stroke:#0000ff;stroke-width:1.0pt;fill:#0000ff"
         transform="scale(0.8) rotate(180) translate(12.5,0)" />
    </marker>
    <marker
       inkscape:stockid="Arrow1LendAH"
       orient="auto"
       refY="0.0"
       refX="0.0"
       id="Arrow1LendAH"
       style="overflow:visible;">
      <path
         id="path4690"
         d="M 0.0,0.0 L 5.0,-5.0 L -12.5,0.0 L 5.0,5.0 L 0.0,0.0 z "
         style="fill-rule:evenodd;stroke:#0000ff;stroke-width:1.0pt;fill:#0000ff"
         transform="scale(0.8) rotate(180) translate(12.5,0)" />
    </marker>
    <marker
       inkscape:stockid="Arrow1LendHe"
       orient="auto"
       refY="0.0"
       refX="0.0"
       id="Arrow1LendHe"
       style="overflow:visible;">
      <path
         id="path4693"
         d="M 0.0,0.0 L 5.0,-5.0 L -12.5,0.0 L 5.0,5.0 L 0.0,0.0 z "
         style="fill-rule:evenodd;stroke:#0000ff;stroke-width:1.0pt;fill:#0000ff"
         transform="scale(0.8) rotate(180) translate(12.5,0)" />
    </marker>
    <marker
       inkscape:stockid="Arrow1Lendd"
       orient="auto"
       refY="0.0"
       refX="0.0"
       id="Arrow1Lendd"
       style="overflow:visible;">
      <path
         id="path5074"
         d="M 0.0,0.0 L 5.0,-5.0 L -12.5,0.0 L 5.0,5.0 L 0.0,0.0 z "
         style="stroke:#0000ff;stroke-width:1.0pt;fill:#0000ff;fill-rule:evenodd"
         transform="scale(0.8) rotate(180) translate(12.5,0)" />
    </marker>
    <marker
       inkscape:stockid="Arrow1Lendw"
       orient="auto"
       refY="0.0"
       refX="0.0"
       id="Arrow1Lendw"
       style="overflow:visible;">
      <path
         id="path5077"
         d="M 0.0,0.0 L 5.0,-5.0 L -12.5,0.0 L 5.0,5.0 L 0.0,0.0 z "
         style="stroke:#0000ff;stroke-width:1.0pt;fill:#0000ff;fill-rule:evenodd"
         transform="scale(0.8) rotate(180) translate(12.5,0)" />
    </marker>
    <marker
       inkscape:stockid="Arrow1Lend"
       orient="auto"
       refY="0"
       refX="0"
       id="Arrow1Lend-7"
       style="overflow:visible">
      <path
         id="path4042-9"
         d="M 0,0 5,-5 -12.5,0 5,5 0,0 z"
         style="fill-rule:evenodd;stroke:#000000;stroke-width:1pt"
         transform="matrix(-0.8,0,0,-0.8,-10,0)"
         inkscape:connector-curvature="0" />
    </marker>
    <marker
       inkscape:stockid="Arrow1Lendu"
       orient="auto"
       refY="0.0"
       refX="0.0"
       id="Arrow1Lendu"
       style="overflow:visible;">
      <path
         id="path5286"
         d="M 0.0,0.0 L 5.0,-5.0 L -12.5,0.0 L 5.0,5.0 L 0.0,0.0 z "
         style="stroke:#ff0000;stroke-width:1.0pt;fill:#ff0000;fill-rule:evenodd"
         transform="scale(0.8) rotate(180) translate(12.5,0)" />
    </marker>
    <marker
       inkscape:stockid="Arrow1Lendy"
       orient="auto"
       refY="0.0"
       refX="0.0"
       id="Arrow1Lendy"
       style="overflow:visible;">
      <path
         id="path5479"
         d="M 0.0,0.0 L 5.0,-5.0 L -12.5,0.0 L 5.0,5.0 L 0.0,0.0 z "
         style="stroke:#000000;stroke-width:1.0pt;fill:#000000;fill-rule:evenodd"
         transform="scale(0.8) rotate(180) translate(12.5,0)" />
    </marker>
    <marker
       inkscape:stockid="Arrow1Lendyi"
       orient="auto"
       refY="0.0"
       refX="0.0"
       id="Arrow1Lendyi"
       style="overflow:visible;">
      <path
         id="path5676"
         d="M 0.0,0.0 L 5.0,-5.0 L -12.5,0.0 L 5.0,5.0 L 0.0,0.0 z "
         style="fill-rule:evenodd;stroke:#0000ff;stroke-width:1.0pt;fill:#0000ff"
         transform="scale(0.8) rotate(180) translate(12.5,0)" />
    </marker>
    <marker
       inkscape:stockid="Arrow1Lendu"
       orient="auto"
       refY="0"
       refX="0"
       id="Arrow1Lendu-5"
       style="overflow:visible">
      <path
         id="path5286-7"
         d="M 0,0 5,-5 -12.5,0 5,5 0,0 z"
         style="fill:#ff0000;fill-rule:evenodd;stroke:#ff0000;stroke-width:1pt"
         transform="matrix(-0.8,0,0,-0.8,-10,0)"
         inkscape:connector-curvature="0" />
    </marker>
    <marker
       inkscape:stockid="Arrow1LenduF"
       orient="auto"
       refY="0.0"
       refX="0.0"
       id="Arrow1LenduF"
       style="overflow:visible;">
      <path
         id="path6110"
         d="M 0.0,0.0 L 5.0,-5.0 L -12.5,0.0 L 5.0,5.0 L 0.0,0.0 z "
         style="fill-rule:evenodd;stroke:#000000;stroke-width:1.0pt;fill:#000000"
         transform="scale(0.8) rotate(180) translate(12.5,0)" />
    </marker>
  </defs>
  <metadata
     id="metadata10606">
    <rdf:RDF>
      <cc:Work
         rdf:about="">
        <dc:format>image/svg+xml</dc:format>
        <dc:type
           rdf:resource="http://purl.org/dc/dcmitype/StillImage" />
        <dc:title></dc:title>
      </cc:Work>
    </rdf:RDF>
  </metadata>
  <g
     inkscape:label="レイヤー 1"
     inkscape:groupmode="layer"
     id="layer1"
     transform="translate(0,-308.2677)">
    <path
       sodipodi:type="arc"
       style="fill:#d5d5ff;stroke:#000000;stroke-width:1;stroke-linecap:round;stroke-miterlimit:4;stroke-dasharray:none;stroke-dashoffset:0"
       id="path10609-4"
       sodipodi:cx="225.71428"
       sodipodi:cy="476.23734"
       sodipodi:rx="99.714279"
       sodipodi:ry="167"
       d="m 180.40805,327.47074 a 99.714279,167 0 1 1 -0.4247,0.36494"
       transform="translate(3.1425203,146.69627)"
       sodipodi:start="4.2407348"
       sodipodi:end="10.519133"
       sodipodi:open="true" />
    <path
       transform="translate(31.85713,488.98199)"
       sodipodi:type="arc"
       style="fill:#000000;stroke:#000000;stroke-width:1;stroke-linecap:round;stroke-miterlimit:4;stroke-dasharray:none;stroke-dashoffset:0"
       id="path11137-7"
       sodipodi:cx="193.57143"
       sodipodi:cy="26.237339"
       sodipodi:rx="6.4285712"
       sodipodi:ry="6.4285712"
       d="m 190.65054,20.510653 a 6.4285712,6.4285712 0 1 1 -0.0274,0.01405"
       sodipodi:start="4.2407348"
       sodipodi:end="10.519133"
       sodipodi:open="true" />
    <path
       style="fill:none;stroke:#ff0000;stroke-width:1px;stroke-linecap:butt;stroke-linejoin:miter;stroke-opacity:1;marker-end:url(#Arrow1Lendu)"
       d="m 358.14285,384.54031 275.71425,0"
       id="path11596"
       inkscape:connector-curvature="0" />
    <g
       transform="translate(-95.14286,63.718897)"
       id="g11805">
      <g
         style="font-style:normal;font-variant:normal;font-weight:normal;font-stretch:normal;letter-spacing:normal;word-spacing:normal;text-anchor:start;fill:none;stroke:#000000;stroke-linecap:butt;stroke-linejoin:miter;stroke-miterlimit:10.43299961;stroke-opacity:1;stroke-dasharray:none;stroke-dashoffset:0"
         id="content"
         transform="matrix(1.0629921,0,0,-1.0629921,-186.02362,789.27165)"
         xml:space="preserve"
         stroke-miterlimit="10.433"
         font-style="normal"
         font-variant="normal"
         font-weight="normal"
         font-stretch="normal"
         font-size-adjust="none"
         letter-spacing="normal"
         word-spacing="normal"><path
           style="fill:#000000;stroke-width:0"
           inkscape:connector-curvature="0"
           d="m 464.44,411.93 -0.19,-0.3 -0.18,-0.29 -0.19,-0.28 -0.19,-0.26 -0.18,-0.25 -0.19,-0.23 -0.19,-0.22 -0.18,-0.21 -0.19,-0.2 -0.19,-0.18 -0.18,-0.17 -0.19,-0.16 -0.19,-0.15 -0.18,-0.14 -0.19,-0.13 -0.19,-0.12 -0.19,-0.11 -0.19,-0.1 -0.19,-0.09 -0.19,-0.09 -0.19,-0.07 -0.2,-0.07 -0.19,-0.07 -0.2,-0.05 -0.19,-0.05 -0.2,-0.04 -0.2,-0.04 -0.19,-0.03 -0.41,-0.05 -0.4,-0.03 c -0.61,-0.05 -1.05,-0.05 -1.05,-1 0,-0.3 0.25,-0.55 0.64,-0.55 1.34,0 2.89,0.16 4.28,0.16 1.64,0 3.39,-0.16 4.99,-0.16 0.29,0 0.95,0 0.95,0.95 0,0.55 -0.45,0.6 -0.8,0.6 -1.15,0.09 -2.34,0.5 -2.34,1.73 0,0.61 0.3,1.16 0.69,1.84 l 3.79,6.39 h 12.5 l -0.14,1.54 h -11.42 l 9.83,16.45 1.59,-16.45 0.14,-1.54 c 0.11,-1.04 0.8,-7.82 0.8,-8.32 0,-1.5 -2.59,-1.64 -3.58,-1.64 -0.7,0 -1.2,0 -1.2,-1 0,-0.55 0.59,-0.55 0.7,-0.55 2.03,0 4.19,0.16 6.22,0.16 1.25,0 4.39,-0.16 5.64,-0.16 0.3,0 0.89,0 0.89,1 0,0.55 -0.5,0.55 -1.14,0.55 -3.09,0 -3.09,0.34 -3.25,1.79 l -3.03,31.13 c -0.11,1 -0.11,1.2 -0.95,1.2 -0.8,0 -0.99,-0.34 -1.3,-0.84 z"
           id="path11808" /></g>    </g>
    <g
       transform="translate(409.42857,62.847244)"
       id="g11860">
      <g
         style="font-style:normal;font-variant:normal;font-weight:normal;font-stretch:normal;letter-spacing:normal;word-spacing:normal;text-anchor:start;fill:none;stroke:#000000;stroke-linecap:butt;stroke-linejoin:miter;stroke-miterlimit:10.43299961;stroke-opacity:1;stroke-dasharray:none;stroke-dashoffset:0"
         word-spacing="normal"
         letter-spacing="normal"
         font-size-adjust="none"
         font-stretch="normal"
         font-weight="normal"
         font-variant="normal"
         font-style="normal"
         stroke-miterlimit="10.433"
         xml:space="preserve"
         transform="matrix(1.0629921,0,0,-1.0629921,-186.02362,789.27165)"
         id="g11862"><path
           style="fill:#000000;stroke-width:0"
           inkscape:connector-curvature="0"
           id="path11864"
           d="m 463.49,410.09 -0.05,-0.18 -0.04,-0.17 -0.05,-0.16 -0.04,-0.15 -0.04,-0.15 -0.05,-0.13 -0.05,-0.13 -0.05,-0.12 -0.05,-0.11 -0.06,-0.11 -0.07,-0.1 -0.07,-0.09 -0.07,-0.09 -0.09,-0.07 -0.09,-0.08 -0.11,-0.06 -0.11,-0.07 -0.13,-0.05 -0.13,-0.05 -0.15,-0.05 -0.16,-0.04 -0.09,-0.02 -0.09,-0.01 -0.09,-0.02 -0.1,-0.02 -0.1,-0.01 -0.1,-0.01 -0.11,-0.01 -0.12,-0.02 -0.11,-0.01 -0.13,-0.01 -0.12,0 -0.13,-0.01 -0.14,-0.01 -0.14,0 -0.14,-0.01 -0.15,0 -0.16,-0.01 -0.16,0 -0.16,0 -0.17,0 -0.18,0 -0.18,0 c -0.85,0 -1.35,0 -1.35,-1 0,-0.55 0.46,-0.55 1.35,-0.55 h 17.78 c 7.87,0 13.75,5.87 13.75,10.76 0,3.58 -2.89,6.47 -7.72,7.02 5.19,0.95 10.42,4.64 10.42,9.38 0,3.68 -3.3,6.87 -9.28,6.87 l -0.69,-1.55 c 4.38,0 5.42,-2.93 5.42,-5.12 0,-4.39 -4.28,-9.13 -10.35,-9.13 h -7.27 l -0.3,-1.09 h 9.41 c 4.78,0 5.73,-3.69 5.73,-5.83 0,-4.94 -4.43,-9.76 -10.31,-9.76 h -6.78 c -0.69,0 -0.8,0 -1.09,0.04 -0.5,0.05 -0.64,0.1 -0.64,0.5 0,0.14 0,0.25 0.25,1.14 l 3.43,13.91 0.3,1.09 3.08,12.36 c 0.45,1.74 0.54,1.89 2.7,1.89 h 6.42 l 0.69,1.55 h -16.73 c -0.94,0 -1.44,0 -1.44,-1 0,-0.55 0.44,-0.55 1.39,-0.55 0.09,0 1.05,0 1.89,-0.09 0.89,-0.11 1.34,-0.16 1.34,-0.8 0,-0.2 -0.04,-0.36 -0.2,-0.95 z" /></g>    </g>
    <g
       transform="translate(193.14286,1.9999999)"
       id="g11922">
      <g
         style="font-style:normal;font-variant:normal;font-weight:normal;font-stretch:normal;letter-spacing:normal;word-spacing:normal;text-anchor:start;fill:none;stroke:#000000;stroke-linecap:butt;stroke-linejoin:miter;stroke-miterlimit:10.43299961;stroke-opacity:1;stroke-dasharray:none;stroke-dashoffset:0"
         id="g11924"
         transform="matrix(1.0629921,0,0,-1.0629921,-186.02362,789.27165)"
         xml:space="preserve"
         stroke-miterlimit="10.433"
         font-style="normal"
         font-variant="normal"
         font-weight="normal"
         font-stretch="normal"
         font-size-adjust="none"
         letter-spacing="normal"
         word-spacing="normal"><path
           style="fill:#000000;stroke-width:0"
           inkscape:connector-curvature="0"
           d="m 473.8,426.12 h 4.28 c 1,0 1.5,0 1.5,1 0,0.55 -0.5,0.55 -1.34,0.55 h -4.14 l 1.04,5.69 c 0.21,1.04 0.91,4.57 1.21,5.17 0.45,0.95 1.29,1.7 2.34,1.7 0.19,0 1.49,0 2.44,-0.91 -2.19,-0.18 -2.69,-1.93 -2.69,-2.68 0,-1.14 0.89,-1.74 1.85,-1.74 1.29,0 2.73,1.1 2.73,2.99 0,2.29 -2.3,3.43 -4.33,3.43 -1.7,0 -4.84,-0.89 -6.33,-5.82 -0.29,-1.05 -0.45,-1.55 -1.64,-7.83 h -3.43 c -0.96,0 -1.5,0 -1.5,-0.94 0,-0.61 0.45,-0.61 1.39,-0.61 h 3.29 l -3.75,-19.67 c -0.89,-4.83 -1.73,-9.38 -4.33,-9.38 -0.2,0 -1.43,0 -2.39,0.91 2.3,0.14 2.74,1.94 2.74,2.69 0,1.14 -0.89,1.75 -1.85,1.75 -1.29,0 -2.73,-1.1 -2.73,-3 0,-2.24 2.19,-3.44 4.23,-3.44 2.74,0 4.74,2.94 5.63,4.84 1.59,3.14 2.75,9.16 2.8,9.52 z"
           id="path11926" /></g>    </g>
    <rect
       transform="translate(0,308.2677)"
       y="6.3801975"
       x="108.36549"
       height="495.67651"
       width="1196.274"
       id="rect11958"
       style="fill:none;stroke:none" />
    <path
       transform="translate(58.99999,686.12484)"
       sodipodi:type="arc"
       style="fill:#000000;stroke:#000000;stroke-width:1;stroke-linecap:round;stroke-miterlimit:4;stroke-dasharray:none;stroke-dashoffset:0"
       id="path11137-5"
       sodipodi:cx="193.57143"
       sodipodi:cy="26.237339"
       sodipodi:rx="6.4285712"
       sodipodi:ry="6.4285712"
       d="m 190.65054,20.510653 a 6.4285712,6.4285712 0 1 1 -0.0274,0.01405"
       sodipodi:start="4.2407348"
       sodipodi:end="10.519133"
       sodipodi:open="true" />
    <path
       transform="translate(4.7142703,580.41056)"
       sodipodi:type="arc"
       style="fill:#000000;stroke:#000000;stroke-width:1;stroke-linecap:round;stroke-miterlimit:4;stroke-dasharray:none;stroke-dashoffset:0"
       id="path11137-6"
       sodipodi:cx="193.57143"
       sodipodi:cy="26.237339"
       sodipodi:rx="6.4285712"
       sodipodi:ry="6.4285712"
       d="m 190.65054,20.510653 a 6.4285712,6.4285712 0 1 1 -0.0274,0.01405"
       sodipodi:start="4.2407348"
       sodipodi:end="10.519133"
       sodipodi:open="true" />
    <g
       transform="translate(192,90)"
       id="g3293">
      <g
         style="font-style:normal;font-variant:normal;font-weight:normal;font-stretch:normal;letter-spacing:normal;word-spacing:normal;text-anchor:start;fill:none;stroke:#000000;stroke-linecap:butt;stroke-linejoin:miter;stroke-miterlimit:10.43299961;stroke-opacity:1;stroke-dasharray:none;stroke-dashoffset:0"
         id="g3295"
         transform="matrix(1.0629921,0,0,-1.0629921,-186.02362,789.27165)"
         xml:space="preserve"
         stroke-miterlimit="10.433"
         font-style="normal"
         font-variant="normal"
         font-weight="normal"
         font-stretch="normal"
         font-size-adjust="none"
         letter-spacing="normal"
         word-spacing="normal"><path
           style="fill:#000000;stroke-width:0"
           inkscape:connector-curvature="0"
           d="m 478.99,424.98 0.01,0.06 0.01,0.05 0.01,0.05 0.01,0.06 0.02,0.1 0.01,0.05 0.02,0.06 0.01,0.05 0.01,0.06 0.01,0.05 0,0.06 0.01,0.06 0,0.06 0.01,0.03 0,0.03 0,0.03 0,0.03 c 0,0.86 -0.59,1.36 -1.44,1.36 -0.5,0 -1.84,-0.36 -2.05,-2.16 -0.89,1.85 -2.64,3.14 -4.62,3.14 l 0.05,-1.09 c 3.28,0 3.98,-4.03 3.98,-4.28 0,-0.25 -0.09,-0.55 -0.16,-0.75 l -2.39,-9.52 c -0.29,-1.29 -1.43,-2.53 -2.53,-3.48 -1.04,-0.89 -2.59,-1.8 -4.04,-1.8 -2.49,0 -3.24,2.6 -3.24,4.58 0,2.41 1.45,8.28 2.8,10.81 1.34,2.46 3.48,4.44 5.58,4.44 l -0.05,1.09 c -5.69,0 -11.86,-6.96 -11.86,-14.14 0,-4.93 3.03,-7.87 6.63,-7.87 2.93,0 5.28,2.34 5.78,2.89 l 0.04,-0.05 c -1.04,-4.43 -1.64,-6.48 -1.64,-6.58 -0.2,-0.45 -1.89,-5.39 -7.17,-5.39 -0.95,0 -2.59,0.07 -4,0.5 1.5,0.46 2.05,1.75 2.05,2.6 0,0.79 -0.55,1.75 -1.89,1.75 -1.1,0 -2.69,-0.91 -2.69,-2.89 0,-2.05 1.84,-3.05 6.62,-3.05 6.22,0 9.82,3.89 10.57,6.88 z"
           id="path3297" /></g>    </g>
    <path
       sodipodi:type="arc"
       style="fill:#ffd5d5;stroke:#000000;stroke-width:1;stroke-linecap:round;stroke-miterlimit:4;stroke-dasharray:none;stroke-dashoffset:0"
       id="path10609-4-8"
       sodipodi:cx="225.71428"
       sodipodi:cy="476.23734"
       sodipodi:rx="101.71428"
       sodipodi:ry="167"
       d="m 179.49933,327.47074 c 50.04192,-41.90637 111.30004,-9.27312 136.82385,72.8884 25.52381,82.16151 5.64796,182.73841 -44.39395,224.64479 -50.04192,41.90637 -111.30004,9.27313 -136.82385,-72.88839 -25.43746,-81.88355 -5.78954,-182.12376 43.96073,-224.27986"
       transform="translate(506.2854,157.59203)"
       sodipodi:start="4.2407348"
       sodipodi:end="10.519133"
       sodipodi:open="true" />
    <path
       transform="translate(523,491.87775)"
       sodipodi:type="arc"
       style="fill:#000000;stroke:#000000;stroke-width:1;stroke-linecap:round;stroke-miterlimit:4;stroke-dasharray:none;stroke-dashoffset:0"
       id="path11137-7-4"
       sodipodi:cx="193.57143"
       sodipodi:cy="26.237339"
       sodipodi:rx="6.4285712"
       sodipodi:ry="6.4285712"
       d="m 190.65054,20.510653 c 3.16276,-1.613163 7.03441,-0.356964 8.64757,2.805797 1.61317,3.162762 0.35697,7.034413 -2.80579,8.647575 -3.16277,1.613163 -7.03442,0.356964 -8.64758,-2.805797 -1.6077,-3.152061 -0.36591,-7.010752 2.77842,-8.633527"
       sodipodi:start="4.2407348"
       sodipodi:end="10.519133"
       sodipodi:open="true" />
    <path
       transform="translate(570.1428,681.0206)"
       sodipodi:type="arc"
       style="fill:#000000;stroke:#000000;stroke-width:1;stroke-linecap:round;stroke-miterlimit:4;stroke-dasharray:none;stroke-dashoffset:0"
       id="path11137-5-0"
       sodipodi:cx="193.57143"
       sodipodi:cy="26.237339"
       sodipodi:rx="6.4285712"
       sodipodi:ry="6.4285712"
       d="m 190.65054,20.510653 c 3.16276,-1.613163 7.03441,-0.356964 8.64757,2.805797 1.61317,3.162762 0.35697,7.034413 -2.80579,8.647575 -3.16277,1.613163 -7.03442,0.356964 -8.64758,-2.805797 -1.6077,-3.152061 -0.36591,-7.010752 2.77842,-8.633527"
       sodipodi:start="4.2407348"
       sodipodi:end="10.519133"
       sodipodi:open="true" />
    <path
       transform="translate(545.8571,579.30632)"
       sodipodi:type="arc"
       style="fill:#000000;stroke:#000000;stroke-width:1;stroke-linecap:round;stroke-miterlimit:4;stroke-dasharray:none;stroke-dashoffset:0"
       id="path11137-6-3"
       sodipodi:cx="193.57143"
       sodipodi:cy="26.237339"
       sodipodi:rx="6.4285712"
       sodipodi:ry="6.4285712"
       d="m 190.65054,20.510653 c 3.16276,-1.613163 7.03441,-0.356964 8.64757,2.805797 1.61317,3.162762 0.35697,7.034413 -2.80579,8.647575 -3.16277,1.613163 -7.03442,0.356964 -8.64758,-2.805797 -1.6077,-3.152061 -0.36591,-7.010752 2.77842,-8.633527"
       sodipodi:start="4.2407348"
       sodipodi:end="10.519133"
       sodipodi:open="true" />
    <path
       style="fill:none;stroke:#ff0000;stroke-width:1px;stroke-linecap:butt;stroke-linejoin:miter;stroke-opacity:1;marker-end:url(#Arrow1Lend8)"
       d="m 258,498.36218 436,16"
       id="path4284"
       inkscape:connector-curvature="0" />
    <path
       style="fill:none;stroke:#ff0000;stroke-width:1px;stroke-linecap:butt;stroke-linejoin:miter;stroke-opacity:1;marker-end:url(#Arrow1LendH)"
       d="m 236,590.36218 482,12"
       id="path4286"
       inkscape:connector-curvature="0" />
    <path
       style="fill:none;stroke:#ff0000;stroke-width:1px;stroke-linecap:butt;stroke-linejoin:miter;stroke-opacity:1;marker-end:url(#Arrow1LendA)"
       d="m 266,700.36218 434,-42"
       id="path4288"
       inkscape:connector-curvature="0"
       sodipodi:nodetypes="cc" />
    <path
       style="fill:none;stroke:#0000ff;stroke-width:1px;stroke-linecap:butt;stroke-linejoin:miter;stroke-opacity:1;marker-end:url(#Arrow1LendHe)"
       d="m 235,582.36218 464,-56"
       id="path4286-1"
       inkscape:connector-curvature="0"
       sodipodi:nodetypes="cc" />
    <path
       style="fill:none;stroke:#0000ff;stroke-width:1px;stroke-linecap:butt;stroke-linejoin:miter;stroke-opacity:1;marker-end:url(#Arrow1LendAH)"
       d="m 269,710.36218 478,-2"
       id="path4288-0"
       inkscape:connector-curvature="0"
       sodipodi:nodetypes="cc" />
    <path
       style="fill:none;stroke:#0000ff;stroke-width:1px;stroke-linecap:butt;stroke-linejoin:miter;stroke-opacity:1;marker-end:url(#Arrow1Lendd)"
       d="m 260,508.36218 460,82"
       id="path4834"
       inkscape:connector-curvature="0"
       sodipodi:nodetypes="cc" />
    <path
       style="fill:#0000ff;stroke:#0000ff;stroke-width:1px;stroke-linecap:butt;stroke-linejoin:miter;stroke-opacity:1;marker-end:url(#Arrow1Lendyi)"
       d="m 358.14285,408.36218 275.71425,0"
       id="path11596-3"
       inkscape:connector-curvature="0" />
    <path
       transform="translate(540.4286,732.12484)"
       sodipodi:type="arc"
       style="fill:#000000;stroke:#000000;stroke-width:1;stroke-linecap:round;stroke-miterlimit:4;stroke-dasharray:none;stroke-dashoffset:0"
       id="path11137-5-0-2"
       sodipodi:cx="193.57143"
       sodipodi:cy="26.237339"
       sodipodi:rx="6.4285712"
       sodipodi:ry="6.4285712"
       d="m 190.65054,20.510653 c 3.16276,-1.613163 7.03441,-0.356964 8.64757,2.805797 1.61317,3.162762 0.35697,7.034413 -2.80579,8.647575 -3.16277,1.613163 -7.03442,0.356964 -8.64758,-2.805797 -1.6077,-3.152061 -0.36591,-7.010752 2.77842,-8.633527"
       sodipodi:start="4.2407348"
       sodipodi:end="10.519133"
       sodipodi:open="true" />
    <path
       transform="translate(525.8572,627.83914)"
       sodipodi:type="arc"
       style="fill:#000000;stroke:#000000;stroke-width:1;stroke-linecap:round;stroke-miterlimit:4;stroke-dasharray:none;stroke-dashoffset:0"
       id="path11137-6-3-5"
       sodipodi:cx="193.57143"
       sodipodi:cy="26.237339"
       sodipodi:rx="6.4285712"
       sodipodi:ry="6.4285712"
       d="m 190.65054,20.510653 a 6.4285712,6.4285712 0 1 1 -0.0274,0.01405"
       sodipodi:start="4.2407348"
       sodipodi:end="10.519133"
       sodipodi:open="true" />
  </g>
</svg>
