<?xml version="1.0" encoding="UTF-8" standalone="no"?>
<!-- Created with Inkscape (http://www.inkscape.org/) -->

<svg
   xmlns:dc="http://purl.org/dc/elements/1.1/"
   xmlns:cc="http://creativecommons.org/ns#"
   xmlns:rdf="http://www.w3.org/1999/02/22-rdf-syntax-ns#"
   xmlns:svg="http://www.w3.org/2000/svg"
   xmlns="http://www.w3.org/2000/svg"
   xmlns:sodipodi="http://sodipodi.sourceforge.net/DTD/sodipodi-0.dtd"
   xmlns:inkscape="http://www.inkscape.org/namespaces/inkscape"
   width="210mm"
   height="297mm"
   id="svg2"
   version="1.1"
   inkscape:version="0.48.3.1 r9886"
   sodipodi:docname="computational_effect.svg"
   inkscape:export-filename="/home/nineties/projects/category-seminar/fig/computational_effect.png"
   inkscape:export-xdpi="90"
   inkscape:export-ydpi="90">
  <sodipodi:namedview
     id="base"
     pagecolor="#ffffff"
     bordercolor="#666666"
     borderopacity="1.0"
     inkscape:pageopacity="0.0"
     inkscape:pageshadow="2"
     inkscape:zoom="0.39710673"
     inkscape:cx="498.15444"
     inkscape:cy="516.95865"
     inkscape:document-units="px"
     inkscape:current-layer="layer1"
     showgrid="false"
     inkscape:window-width="1366"
     inkscape:window-height="746"
     inkscape:window-x="0"
     inkscape:window-y="22"
     inkscape:window-maximized="0" />
  <defs
     id="defs4">
    <marker
       style="overflow:visible"
       id="StopL"
       refX="0.0"
       refY="0.0"
       orient="auto"
       inkscape:stockid="StopL">
      <path
         transform="scale(0.8)"
         style="fill:none;fill-opacity:0.75000000;fill-rule:evenodd;stroke:#000000;stroke-width:1.0pt"
         d="M 0.0,5.65 L 0.0,-5.65"
         id="path4619" />
    </marker>
    <marker
       inkscape:stockid="Arrow1Lstart"
       orient="auto"
       refY="0.0"
       refX="0.0"
       id="Arrow1Lstart"
       style="overflow:visible">
      <path
         id="path4450"
         d="M 0.0,0.0 L 5.0,-5.0 L -12.5,0.0 L 5.0,5.0 L 0.0,0.0 z "
         style="fill-rule:evenodd;stroke:#000000;stroke-width:1.0pt"
         transform="scale(0.8) translate(12.5,0)" />
    </marker>
    <marker
       style="overflow:visible;"
       id="Arrow1Lend"
       refX="0.0"
       refY="0.0"
       orient="auto"
       inkscape:stockid="Arrow1Lend">
      <path
         transform="scale(0.8) rotate(180) translate(12.5,0)"
         style="fill-rule:evenodd;stroke:#000000;stroke-width:1.0pt;"
         d="M 0.0,0.0 L 5.0,-5.0 L -12.5,0.0 L 5.0,5.0 L 0.0,0.0 z "
         id="path4453" />
    </marker>
  </defs>
  <metadata
     id="metadata7">
    <rdf:RDF>
      <cc:Work
         rdf:about="">
        <dc:format>image/svg+xml</dc:format>
        <dc:type
           rdf:resource="http://purl.org/dc/dcmitype/StillImage" />
        <dc:title></dc:title>
      </cc:Work>
    </rdf:RDF>
  </metadata>
  <g
     id="layer1"
     inkscape:groupmode="layer"
     inkscape:label="レイヤー 1">
    <g
       transform="translate(-5.0364293,-135.98359)"
       id="g32939">
      <g
         style="font-style:normal;font-variant:normal;font-weight:normal;font-stretch:normal;letter-spacing:normal;word-spacing:normal;text-anchor:start;fill:none;stroke:#000000;stroke-linecap:butt;stroke-linejoin:miter;stroke-miterlimit:10.43299961;stroke-opacity:1;stroke-dasharray:none;stroke-dashoffset:0"
         word-spacing="normal"
         letter-spacing="normal"
         font-size-adjust="none"
         font-stretch="normal"
         font-weight="normal"
         font-variant="normal"
         font-style="normal"
         stroke-miterlimit="10.433"
         xml:space="preserve"
         transform="matrix(1.0629921,0,0,-1.0629921,-186.02362,789.27165)"
         id="content"><path
           style="fill:#000000;stroke-width:0"
           inkscape:connector-curvature="0"
           id="path32942"
           d="m 464.44,411.93 -0.19,-0.3 -0.18,-0.29 -0.19,-0.28 -0.19,-0.26 -0.18,-0.25 -0.19,-0.23 -0.19,-0.22 -0.18,-0.21 -0.19,-0.2 -0.19,-0.18 -0.18,-0.17 -0.19,-0.16 -0.19,-0.15 -0.18,-0.14 -0.19,-0.13 -0.19,-0.12 -0.19,-0.11 -0.19,-0.1 -0.19,-0.09 -0.19,-0.09 -0.19,-0.07 -0.2,-0.07 -0.19,-0.07 -0.2,-0.05 -0.19,-0.05 -0.2,-0.04 -0.2,-0.04 -0.19,-0.03 -0.41,-0.05 -0.4,-0.03 c -0.61,-0.05 -1.05,-0.05 -1.05,-1 0,-0.3 0.25,-0.55 0.64,-0.55 1.34,0 2.89,0.16 4.28,0.16 1.64,0 3.39,-0.16 4.99,-0.16 0.29,0 0.95,0 0.95,0.95 0,0.55 -0.45,0.6 -0.8,0.6 -1.15,0.09 -2.34,0.5 -2.34,1.73 0,0.61 0.3,1.16 0.69,1.84 l 3.79,6.39 h 12.5 l -0.14,1.54 h -11.42 l 9.83,16.45 1.59,-16.45 0.14,-1.54 c 0.11,-1.04 0.8,-7.82 0.8,-8.32 0,-1.5 -2.59,-1.64 -3.58,-1.64 -0.7,0 -1.2,0 -1.2,-1 0,-0.55 0.59,-0.55 0.7,-0.55 2.03,0 4.19,0.16 6.22,0.16 1.25,0 4.39,-0.16 5.64,-0.16 0.3,0 0.89,0 0.89,1 0,0.55 -0.5,0.55 -1.14,0.55 -3.09,0 -3.09,0.34 -3.25,1.79 l -3.03,31.13 c -0.11,1 -0.11,1.2 -0.95,1.2 -0.8,0 -0.99,-0.34 -1.3,-0.84 z" /></g>    </g>
    <path
       inkscape:connector-curvature="0"
       id="path32993"
       d="m 297.14933,238.97884 521.27044,0"
       style="fill:none;stroke:#000000;stroke-width:1px;stroke-linecap:butt;stroke-linejoin:miter;stroke-opacity:1;marker-end:url(#Arrow1Lend)" />
    <rect
       ry="0"
       y="183.57812"
       x="402.91434"
       height="113.31966"
       width="264.41254"
       id="rect32991"
       style="fill:#ffffff;stroke:#000000;stroke-width:1;stroke-linecap:round;stroke-miterlimit:4;stroke-dasharray:none;stroke-dashoffset:0" />
    <g
       transform="translate(458.31507,-146.05645)"
       id="g33295">
      <g
         style="font-style:normal;font-variant:normal;font-weight:normal;font-stretch:normal;letter-spacing:normal;word-spacing:normal;text-anchor:start;fill:none;stroke:#000000;stroke-linecap:butt;stroke-linejoin:miter;stroke-miterlimit:10.43299961;stroke-opacity:1;stroke-dasharray:none;stroke-dashoffset:0"
         id="g33297"
         transform="matrix(1.0629921,0,0,-1.0629921,-186.02362,789.27165)"
         xml:space="preserve"
         stroke-miterlimit="10.433"
         font-style="normal"
         font-variant="normal"
         font-weight="normal"
         font-stretch="normal"
         font-size-adjust="none"
         letter-spacing="normal"
         word-spacing="normal"><path
           style="fill:#000000;stroke-width:0"
           inkscape:connector-curvature="0"
           d="m 476.8,436.43 0.02,0.07 0.01,0.06 0.03,0.12 0.03,0.12 0.03,0.11 0.03,0.11 0.03,0.09 0.03,0.1 0.03,0.09 0.03,0.08 0.03,0.08 0.03,0.07 0.03,0.07 0.03,0.06 0.03,0.06 0.03,0.06 0.03,0.05 0.03,0.05 0.03,0.04 0.04,0.04 0.03,0.04 0.04,0.04 0.03,0.03 0.04,0.03 0.04,0.03 0.04,0.02 0.05,0.03 0.04,0.02 0.05,0.02 0.04,0.01 0.05,0.02 0.06,0.01 0.05,0.02 c 0.45,0.11 2.1,0.11 3.14,0.11 5.03,0 7.27,-0.21 7.27,-4.1 0,-0.73 -0.19,-2.68 -0.39,-3.98 -0.05,-0.19 -0.16,-0.8 -0.16,-0.94 0,-0.3 0.16,-0.66 0.59,-0.66 0.57,0 0.66,0.41 0.75,1.16 l 1.35,8.66 c 0.06,0.2 0.11,0.7 0.11,0.86 0,0.54 -0.5,0.54 -1.35,0.54 H 461.6 c -1.21,0 -1.25,-0.06 -1.6,-1 l -2.98,-8.76 c -0.06,-0.11 -0.3,-0.8 -0.3,-0.91 0,-0.3 0.24,-0.55 0.6,-0.55 0.5,0 0.54,0.25 0.84,1.05 2.69,7.72 3.98,8.63 11.36,8.63 h 1.94 c 1.4,0 1.4,-0.21 1.4,-0.6 0,-0.31 -0.15,-0.9 -0.2,-1.04 l -6.67,-26.61 c -0.45,-1.85 -0.61,-2.39 -5.94,-2.39 -1.8,0 -2.09,0 -2.09,-0.96 0,-0.59 0.54,-0.59 0.84,-0.59 1.36,0 2.75,0.09 4.09,0.09 1.4,0 2.85,0.07 4.24,0.07 1.39,0 2.78,-0.07 4.14,-0.07 1.44,0 2.94,-0.09 4.33,-0.09 0.5,0 1.09,0 1.09,1 0,0.55 -0.39,0.55 -1.69,0.55 -1.25,0 -1.89,0 -3.18,0.09 -1.46,0.16 -1.85,0.3 -1.85,1.09 0,0.07 0,0.32 0.19,1.05 z"
           id="path33299" /><path
           style="fill:#000000;stroke-width:0"
           inkscape:connector-curvature="0"
           d="m 508.12,394.25 0,0.02 0,0.03 0,0.01 0,0.02 -0.01,0.01 0,0.02 -0.01,0.01 0,0.02 -0.01,0.02 -0.01,0.02 -0.02,0.02 -0.01,0.03 -0.02,0.02 -0.01,0.03 -0.03,0.03 -0.02,0.03 -0.03,0.03 -0.03,0.04 -0.01,0.02 -0.02,0.02 -0.01,0.02 -0.02,0.02 -0.02,0.02 -0.02,0.03 -0.02,0.02 -0.03,0.02 -0.02,0.03 -0.02,0.02 -0.03,0.03 -0.02,0.03 -0.03,0.03 -0.03,0.03 -0.02,0.03 -0.03,0.03 -0.04,0.03 -0.03,0.03 -0.03,0.04 -0.03,0.03 -0.04,0.04 -0.04,0.03 -0.03,0.04 -0.04,0.04 c -6.22,6.28 -7.82,15.69 -7.82,23.31 0,8.67 1.9,17.35 8.02,23.56 0.64,0.61 0.64,0.71 0.64,0.86 0,0.35 -0.19,0.49 -0.48,0.49 -0.5,0 -4.99,-3.38 -7.93,-9.7 -2.54,-5.49 -3.14,-11.02 -3.14,-15.21 0,-3.89 0.55,-9.9 3.29,-15.54 2.98,-6.13 7.28,-9.36 7.78,-9.36 0.29,0 0.48,0.14 0.48,0.5 z"
           id="path33301" /><path
           style="fill:#000000;stroke-width:0"
           inkscape:connector-curvature="0"
           d="m 519.88,411.93 -0.19,-0.3 -0.19,-0.29 -0.19,-0.28 -0.18,-0.26 -0.19,-0.25 -0.19,-0.23 -0.18,-0.22 -0.19,-0.21 -0.18,-0.2 -0.19,-0.18 -0.19,-0.17 -0.18,-0.16 -0.19,-0.15 -0.19,-0.14 -0.19,-0.13 -0.19,-0.12 -0.19,-0.11 -0.19,-0.1 -0.19,-0.09 -0.19,-0.09 -0.19,-0.07 -0.19,-0.07 -0.2,-0.07 -0.19,-0.05 -0.2,-0.05 -0.19,-0.04 -0.2,-0.04 -0.2,-0.03 -0.4,-0.05 -0.41,-0.03 c -0.61,-0.05 -1.05,-0.05 -1.05,-1 0,-0.3 0.25,-0.55 0.64,-0.55 1.35,0 2.89,0.16 4.28,0.16 1.65,0 3.4,-0.16 4.99,-0.16 0.3,0 0.95,0 0.95,0.95 0,0.55 -0.45,0.6 -0.79,0.6 -1.16,0.09 -2.35,0.5 -2.35,1.73 0,0.61 0.3,1.16 0.69,1.84 l 3.8,6.39 h 12.5 l -0.14,1.54 h -11.43 l 9.83,16.45 1.6,-16.45 0.14,-1.54 c 0.11,-1.04 0.79,-7.82 0.79,-8.32 0,-1.5 -2.59,-1.64 -3.58,-1.64 -0.7,0 -1.2,0 -1.2,-1 0,-0.55 0.6,-0.55 0.7,-0.55 2.04,0 4.19,0.16 6.22,0.16 1.25,0 4.39,-0.16 5.64,-0.16 0.3,0 0.9,0 0.9,1 0,0.55 -0.5,0.55 -1.15,0.55 -3.09,0 -3.09,0.34 -3.25,1.79 l -3.03,31.13 c -0.11,1 -0.11,1.2 -0.95,1.2 -0.8,0 -0.98,-0.34 -1.3,-0.84 z"
           id="path33303" /><path
           style="fill:#000000;stroke-width:0"
           inkscape:connector-curvature="0"
           d="m 562.66,418.65 0,0.37 -0.01,0.39 -0.01,0.39 -0.01,0.41 -0.04,0.84 -0.06,0.88 -0.08,0.92 -0.11,0.95 -0.13,0.97 -0.17,1.01 -0.19,1.02 -0.23,1.03 -0.27,1.05 -0.3,1.06 -0.35,1.07 -0.4,1.07 -0.21,0.53 -0.22,0.53 -0.24,0.53 -0.25,0.53 c -2.98,6.12 -7.27,9.36 -7.77,9.36 -0.29,0 -0.5,-0.19 -0.5,-0.49 0,-0.15 0,-0.25 0.94,-1.15 4.89,-4.92 7.73,-12.85 7.73,-23.27 0,-8.51 -1.84,-17.28 -8.03,-23.56 -0.64,-0.59 -0.64,-0.7 -0.64,-0.84 0,-0.3 0.21,-0.5 0.5,-0.5 0.5,0 4.97,3.39 7.92,9.71 2.54,5.47 3.13,11 3.13,15.19 z"
           id="path33305" /></g>    </g>
    <g
       id="g33355"
       transform="translate(201.45717,-108.28323)">
      <g
         word-spacing="normal"
         letter-spacing="normal"
         font-size-adjust="none"
         font-stretch="normal"
         font-weight="normal"
         font-variant="normal"
         font-style="normal"
         stroke-miterlimit="10.433"
         xml:space="preserve"
         transform="matrix(1.0629921,0,0,-1.0629921,-186.02362,789.27165)"
         id="g33357"
         style="font-style:normal;font-variant:normal;font-weight:normal;font-stretch:normal;letter-spacing:normal;word-spacing:normal;text-anchor:start;fill:none;stroke:#000000;stroke-linecap:butt;stroke-linejoin:miter;stroke-miterlimit:10.43299961;stroke-opacity:1;stroke-dasharray:none;stroke-dashoffset:0"><path
           id="path33359"
           d="m 479.83,420 0.05,0.16 0.04,0.17 0.04,0.15 0.04,0.16 0.04,0.16 0.03,0.15 0.03,0.16 0.03,0.17 0.02,0.17 0.03,0.17 0.01,0.09 0,0.09 0.01,0.1 0.01,0.1 0.01,0.1 0,0.1 0.01,0.1 0,0.11 0,0.12 0.01,0.11 0,0.12 0,0.13 c 0,3.23 -2,5.32 -5.74,5.32 -3.93,0 -6.53,-2.57 -7.71,-4.32 -0.25,2.84 -2.35,4.32 -4.6,4.32 -2.28,0 -3.23,-1.93 -3.69,-2.82 -0.89,-1.71 -1.54,-4.69 -1.54,-4.85 0,-0.5 0.5,-0.5 0.61,-0.5 0.5,0 0.54,0.07 0.84,1.16 0.84,3.53 1.84,5.92 3.64,5.92 0.84,0 1.55,-0.39 1.55,-2.28 0,-1.05 -0.16,-1.61 -0.8,-4.19 l -2.89,-11.51 c -0.16,-0.75 -0.45,-1.89 -0.45,-2.14 0,-0.89 0.7,-1.35 1.43,-1.35 0.61,0 1.5,0.39 1.85,1.39 0.06,0.11 0.65,2.44 0.95,3.69 l 1.1,4.48 c 0.29,1.1 0.59,2.19 0.84,3.35 0.11,0.3 0.5,1.94 0.55,2.23 0.15,0.46 1.7,3.25 3.39,4.6 1.09,0.79 2.64,1.73 4.78,1.73 2.14,0 2.69,-1.69 2.69,-3.48 0,-0.25 0,-1.14 -0.49,-3.14 l -5.69,-22.93 c -0.14,-0.59 -0.14,-0.68 -0.14,-0.79 0,-0.74 0.55,-1.35 1.39,-1.35 1.55,0 1.89,1.46 2.05,2 z"
           inkscape:connector-curvature="0"
           style="fill:#000000;stroke-width:0" /><path
           id="path33361"
           d="m 487.41,402.95 -0.11,-0.18 -0.12,-0.16 -0.11,-0.17 -0.11,-0.15 -0.12,-0.16 -0.11,-0.14 -0.12,-0.14 -0.11,-0.14 -0.12,-0.13 -0.11,-0.12 -0.12,-0.12 -0.12,-0.11 -0.12,-0.11 -0.13,-0.11 -0.12,-0.09 -0.13,-0.1 -0.13,-0.08 -0.13,-0.09 -0.14,-0.07 -0.14,-0.08 -0.14,-0.06 -0.14,-0.07 -0.15,-0.05 -0.16,-0.06 -0.15,-0.04 -0.16,-0.05 -0.17,-0.04 -0.17,-0.03 -0.17,-0.03 -0.18,-0.02 -0.19,-0.02 -0.19,-0.02 c -0.34,-0.03 -0.8,-0.03 -0.8,-0.73 0,-0.38 0.32,-0.52 0.49,-0.52 0.9,0 2.06,0.14 3,0.14 1.11,0 2.54,-0.14 3.59,-0.14 0.17,0 0.69,0 0.69,0.77 0,0.45 -0.45,0.48 -0.58,0.48 -0.28,0.05 -1.55,0.11 -1.55,1.05 0,0.42 0.36,1.01 0.53,1.33 l 2.79,4.31 h 9.96 l -0.17,1.26 h -8.95 l 7.31,11.4 1.64,-11.4 0.17,-1.26 0.85,-5.78 c -0.14,-0.35 -0.36,-0.91 -2.41,-0.91 -0.42,0 -0.9,0 -0.9,-0.76 0,-0.14 0.09,-0.49 0.54,-0.49 1.02,0 3.49,0.14 4.5,0.14 0.63,0 1.42,-0.03 2.07,-0.03 0.62,-0.05 1.35,-0.11 1.98,-0.11 0.45,0 0.69,0.28 0.69,0.74 0,0.51 -0.41,0.51 -0.97,0.51 -2.02,0 -2.1,0.28 -2.2,1.13 l -3.07,21.5 c -0.11,0.72 -0.17,0.97 -0.83,0.97 -0.67,0 -0.87,-0.32 -1.18,-0.8 z"
           inkscape:connector-curvature="0"
           style="fill:#000000;stroke-width:0" /></g>    </g>
  </g>
</svg>
