<?xml version="1.0" encoding="UTF-8" standalone="no"?>
<!-- Created with Inkscape (http://www.inkscape.org/) -->

<svg
   xmlns:dc="http://purl.org/dc/elements/1.1/"
   xmlns:cc="http://creativecommons.org/ns#"
   xmlns:rdf="http://www.w3.org/1999/02/22-rdf-syntax-ns#"
   xmlns:svg="http://www.w3.org/2000/svg"
   xmlns="http://www.w3.org/2000/svg"
   xmlns:sodipodi="http://sodipodi.sourceforge.net/DTD/sodipodi-0.dtd"
   xmlns:inkscape="http://www.inkscape.org/namespaces/inkscape"
   inkscape:export-ydpi="90"
   inkscape:export-xdpi="90"
   inkscape:export-filename="/home/nineties/projects/category-seminar/fig/adjunction.png"
   sodipodi:docname="adjunction.svg"
   inkscape:version="0.48.3.1 r9886"
   version="1.1"
   id="svg2"
   height="297mm"
   width="210mm">
  <sodipodi:namedview
     id="base"
     pagecolor="#ffffff"
     bordercolor="#666666"
     borderopacity="1.0"
     inkscape:pageopacity="0.0"
     inkscape:pageshadow="2"
     inkscape:zoom="1.0889787"
     inkscape:cx="377.53374"
     inkscape:cy="798.82187"
     inkscape:document-units="px"
     inkscape:current-layer="layer1"
     showgrid="false"
     inkscape:window-width="1366"
     inkscape:window-height="746"
     inkscape:window-x="0"
     inkscape:window-y="22"
     inkscape:window-maximized="0" />
  <defs
     id="defs4">
    <marker
       style="overflow:visible"
       id="Arrow1Lstart"
       refX="0.0"
       refY="0.0"
       orient="auto"
       inkscape:stockid="Arrow1Lstart">
      <path
         transform="scale(0.8) translate(12.5,0)"
         style="fill-rule:evenodd;stroke:#000000;stroke-width:1.0pt"
         d="M 0.0,0.0 L 5.0,-5.0 L -12.5,0.0 L 5.0,5.0 L 0.0,0.0 z "
         id="path4737" />
    </marker>
    <marker
       style="overflow:visible;"
       id="Arrow1Lend"
       refX="0.0"
       refY="0.0"
       orient="auto"
       inkscape:stockid="Arrow1Lend">
      <path
         transform="scale(0.8) rotate(180) translate(12.5,0)"
         style="fill-rule:evenodd;stroke:#000000;stroke-width:1.0pt;"
         d="M 0.0,0.0 L 5.0,-5.0 L -12.5,0.0 L 5.0,5.0 L 0.0,0.0 z "
         id="path4740" />
    </marker>
    <marker
       inkscape:stockid="Arrow1Lendo"
       refX="0"
       refY="0"
       orient="auto"
       id="Arrow1Lendo"
       style="overflow:visible">
      <path
         inkscape:connector-curvature="0"
         d="M 0,0 5,-5 -12.5,0 5,5 0,0 z"
         transform="matrix(-0.8,0,0,-0.8,-10,0)"
         id="path7302"
         style="fill:#000000;fill-rule:evenodd;stroke:#000000;stroke-width:1pt" />
    </marker>
    <marker
       inkscape:stockid="Arrow1Lend3"
       refX="0"
       refY="0"
       orient="auto"
       id="Arrow1Lend3"
       style="overflow:visible">
      <path
         inkscape:connector-curvature="0"
         d="M 0,0 5,-5 -12.5,0 5,5 0,0 z"
         transform="matrix(-0.8,0,0,-0.8,-10,0)"
         id="path7278"
         style="fill:#1a1a1a;fill-rule:evenodd;stroke:#1a1a1a;stroke-width:1pt" />
    </marker>
    <marker
       inkscape:stockid="Arrow1LendZ"
       refX="0"
       refY="0"
       orient="auto"
       id="Arrow1LendZ"
       style="overflow:visible">
      <path
         inkscape:connector-curvature="0"
         d="M 0,0 5,-5 -12.5,0 5,5 0,0 z"
         transform="matrix(-0.8,0,0,-0.8,-10,0)"
         id="path7272"
         style="fill:#4d4d4d;fill-rule:evenodd;stroke:#4d4d4d;stroke-width:1pt" />
    </marker>
    <marker
       inkscape:stockid="Arrow1Lendh"
       refX="0"
       refY="0"
       orient="auto"
       id="Arrow1Lendh"
       style="overflow:visible">
      <path
         inkscape:connector-curvature="0"
         d="M 0,0 5,-5 -12.5,0 5,5 0,0 z"
         transform="matrix(-0.8,0,0,-0.8,-10,0)"
         id="path7296"
         style="fill:#808080;fill-rule:evenodd;stroke:#808080;stroke-width:1pt" />
    </marker>
    <marker
       inkscape:stockid="Arrow1LendH"
       refX="0"
       refY="0"
       orient="auto"
       id="Arrow1LendH"
       style="overflow:visible">
      <path
         inkscape:connector-curvature="0"
         d="M 0,0 5,-5 -12.5,0 5,5 0,0 z"
         transform="matrix(-0.8,0,0,-0.8,-10,0)"
         id="path7284"
         style="fill:#b3b3b3;fill-rule:evenodd;stroke:#b3b3b3;stroke-width:1pt" />
    </marker>
    <marker
       inkscape:stockid="Arrow1LendM"
       refX="0"
       refY="0"
       orient="auto"
       id="Arrow1LendM"
       style="overflow:visible">
      <path
         inkscape:connector-curvature="0"
         d="M 0,0 5,-5 -12.5,0 5,5 0,0 z"
         transform="matrix(-0.8,0,0,-0.8,-10,0)"
         id="path7269"
         style="fill:#e6e6e6;fill-rule:evenodd;stroke:#e6e6e6;stroke-width:1pt" />
    </marker>
    <marker
       inkscape:stockid="Arrow1Lend3"
       refX="0"
       refY="0"
       orient="auto"
       id="marker9881"
       style="overflow:visible">
      <path
         inkscape:connector-curvature="0"
         d="M 0,0 5,-5 -12.5,0 5,5 0,0 z"
         transform="matrix(-0.8,0,0,-0.8,-10,0)"
         id="path9883"
         style="fill:#1a1a1a;fill-rule:evenodd;stroke:#1a1a1a;stroke-width:1pt" />
    </marker>
    <marker
       inkscape:stockid="Arrow1LendZ"
       refX="0"
       refY="0"
       orient="auto"
       id="marker9885"
       style="overflow:visible">
      <path
         inkscape:connector-curvature="0"
         d="M 0,0 5,-5 -12.5,0 5,5 0,0 z"
         transform="matrix(-0.8,0,0,-0.8,-10,0)"
         id="path9887"
         style="fill:#4d4d4d;fill-rule:evenodd;stroke:#4d4d4d;stroke-width:1pt" />
    </marker>
    <marker
       inkscape:stockid="Arrow1Lendh"
       refX="0"
       refY="0"
       orient="auto"
       id="marker9889"
       style="overflow:visible">
      <path
         inkscape:connector-curvature="0"
         d="M 0,0 5,-5 -12.5,0 5,5 0,0 z"
         transform="matrix(-0.8,0,0,-0.8,-10,0)"
         id="path9891"
         style="fill:#808080;fill-rule:evenodd;stroke:#808080;stroke-width:1pt" />
    </marker>
    <marker
       inkscape:stockid="Arrow1LendH"
       refX="0"
       refY="0"
       orient="auto"
       id="marker9893"
       style="overflow:visible">
      <path
         inkscape:connector-curvature="0"
         d="M 0,0 5,-5 -12.5,0 5,5 0,0 z"
         transform="matrix(-0.8,0,0,-0.8,-10,0)"
         id="path9895"
         style="fill:#b3b3b3;fill-rule:evenodd;stroke:#b3b3b3;stroke-width:1pt" />
    </marker>
    <marker
       inkscape:stockid="Arrow1LendM"
       refX="0"
       refY="0"
       orient="auto"
       id="marker9897"
       style="overflow:visible">
      <path
         inkscape:connector-curvature="0"
         d="M 0,0 5,-5 -12.5,0 5,5 0,0 z"
         transform="matrix(-0.8,0,0,-0.8,-10,0)"
         id="path9899"
         style="fill:#e6e6e6;fill-rule:evenodd;stroke:#e6e6e6;stroke-width:1pt" />
    </marker>
    <marker
       inkscape:stockid="Arrow1Lendo"
       refX="0"
       refY="0"
       orient="auto"
       id="Arrow1Lendo-1"
       style="overflow:visible">
      <path
         inkscape:connector-curvature="0"
         d="M 0,0 5,-5 -12.5,0 5,5 0,0 z"
         transform="matrix(-0.8,0,0,-0.8,-10,0)"
         id="path7302-3"
         style="fill:#000000;fill-rule:evenodd;stroke:#000000;stroke-width:1pt" />
    </marker>
    <marker
       inkscape:stockid="Arrow1Lend3"
       refX="0"
       refY="0"
       orient="auto"
       id="Arrow1Lend3-5"
       style="overflow:visible">
      <path
         inkscape:connector-curvature="0"
         d="M 0,0 5,-5 -12.5,0 5,5 0,0 z"
         transform="matrix(-0.8,0,0,-0.8,-10,0)"
         id="path7278-4"
         style="fill:#1a1a1a;fill-rule:evenodd;stroke:#1a1a1a;stroke-width:1pt" />
    </marker>
    <marker
       inkscape:stockid="Arrow1LendZ"
       refX="0"
       refY="0"
       orient="auto"
       id="Arrow1LendZ-7"
       style="overflow:visible">
      <path
         inkscape:connector-curvature="0"
         d="M 0,0 5,-5 -12.5,0 5,5 0,0 z"
         transform="matrix(-0.8,0,0,-0.8,-10,0)"
         id="path7272-0"
         style="fill:#4d4d4d;fill-rule:evenodd;stroke:#4d4d4d;stroke-width:1pt" />
    </marker>
    <marker
       inkscape:stockid="Arrow1Lendh"
       refX="0"
       refY="0"
       orient="auto"
       id="Arrow1Lendh-9"
       style="overflow:visible">
      <path
         inkscape:connector-curvature="0"
         d="M 0,0 5,-5 -12.5,0 5,5 0,0 z"
         transform="matrix(-0.8,0,0,-0.8,-10,0)"
         id="path7296-3"
         style="fill:#808080;fill-rule:evenodd;stroke:#808080;stroke-width:1pt" />
    </marker>
    <marker
       inkscape:stockid="Arrow1LendH"
       refX="0"
       refY="0"
       orient="auto"
       id="Arrow1LendH-4"
       style="overflow:visible">
      <path
         inkscape:connector-curvature="0"
         d="M 0,0 5,-5 -12.5,0 5,5 0,0 z"
         transform="matrix(-0.8,0,0,-0.8,-10,0)"
         id="path7284-4"
         style="fill:#b3b3b3;fill-rule:evenodd;stroke:#b3b3b3;stroke-width:1pt" />
    </marker>
    <marker
       inkscape:stockid="Arrow1LendM"
       refX="0"
       refY="0"
       orient="auto"
       id="Arrow1LendM-9"
       style="overflow:visible">
      <path
         inkscape:connector-curvature="0"
         d="M 0,0 5,-5 -12.5,0 5,5 0,0 z"
         transform="matrix(-0.8,0,0,-0.8,-10,0)"
         id="path7269-6"
         style="fill:#e6e6e6;fill-rule:evenodd;stroke:#e6e6e6;stroke-width:1pt" />
    </marker>
    <marker
       inkscape:stockid="Arrow1Lend3"
       refX="0"
       refY="0"
       orient="auto"
       id="marker10008"
       style="overflow:visible">
      <path
         inkscape:connector-curvature="0"
         d="M 0,0 5,-5 -12.5,0 5,5 0,0 z"
         transform="matrix(-0.8,0,0,-0.8,-10,0)"
         id="path10010"
         style="fill:#1a1a1a;fill-rule:evenodd;stroke:#1a1a1a;stroke-width:1pt" />
    </marker>
    <marker
       inkscape:stockid="Arrow1LendZ"
       refX="0"
       refY="0"
       orient="auto"
       id="marker10012"
       style="overflow:visible">
      <path
         inkscape:connector-curvature="0"
         d="M 0,0 5,-5 -12.5,0 5,5 0,0 z"
         transform="matrix(-0.8,0,0,-0.8,-10,0)"
         id="path10014"
         style="fill:#4d4d4d;fill-rule:evenodd;stroke:#4d4d4d;stroke-width:1pt" />
    </marker>
    <marker
       inkscape:stockid="Arrow1Lendh"
       refX="0"
       refY="0"
       orient="auto"
       id="marker10016"
       style="overflow:visible">
      <path
         inkscape:connector-curvature="0"
         d="M 0,0 5,-5 -12.5,0 5,5 0,0 z"
         transform="matrix(-0.8,0,0,-0.8,-10,0)"
         id="path10018"
         style="fill:#808080;fill-rule:evenodd;stroke:#808080;stroke-width:1pt" />
    </marker>
    <marker
       inkscape:stockid="Arrow1LendH"
       refX="0"
       refY="0"
       orient="auto"
       id="marker10020"
       style="overflow:visible">
      <path
         inkscape:connector-curvature="0"
         d="M 0,0 5,-5 -12.5,0 5,5 0,0 z"
         transform="matrix(-0.8,0,0,-0.8,-10,0)"
         id="path10022"
         style="fill:#b3b3b3;fill-rule:evenodd;stroke:#b3b3b3;stroke-width:1pt" />
    </marker>
    <marker
       inkscape:stockid="Arrow1LendM"
       refX="0"
       refY="0"
       orient="auto"
       id="marker10024"
       style="overflow:visible">
      <path
         inkscape:connector-curvature="0"
         d="M 0,0 5,-5 -12.5,0 5,5 0,0 z"
         transform="matrix(-0.8,0,0,-0.8,-10,0)"
         id="path10026"
         style="fill:#e6e6e6;fill-rule:evenodd;stroke:#e6e6e6;stroke-width:1pt" />
    </marker>
    <marker
       inkscape:stockid="Arrow1Lendo"
       refX="0"
       refY="0"
       orient="auto"
       id="Arrow1Lendo-8"
       style="overflow:visible">
      <path
         inkscape:connector-curvature="0"
         d="M 0,0 5,-5 -12.5,0 5,5 0,0 z"
         transform="matrix(-0.8,0,0,-0.8,-10,0)"
         id="path7302-9"
         style="fill:#000000;fill-rule:evenodd;stroke:#000000;stroke-width:1pt" />
    </marker>
    <marker
       inkscape:stockid="Arrow1Lend3"
       refX="0"
       refY="0"
       orient="auto"
       id="Arrow1Lend3-9"
       style="overflow:visible">
      <path
         inkscape:connector-curvature="0"
         d="M 0,0 5,-5 -12.5,0 5,5 0,0 z"
         transform="matrix(-0.8,0,0,-0.8,-10,0)"
         id="path7278-3"
         style="fill:#1a1a1a;fill-rule:evenodd;stroke:#1a1a1a;stroke-width:1pt" />
    </marker>
    <marker
       inkscape:stockid="Arrow1LendZ"
       refX="0"
       refY="0"
       orient="auto"
       id="Arrow1LendZ-2"
       style="overflow:visible">
      <path
         inkscape:connector-curvature="0"
         d="M 0,0 5,-5 -12.5,0 5,5 0,0 z"
         transform="matrix(-0.8,0,0,-0.8,-10,0)"
         id="path7272-4"
         style="fill:#4d4d4d;fill-rule:evenodd;stroke:#4d4d4d;stroke-width:1pt" />
    </marker>
    <marker
       inkscape:stockid="Arrow1Lendh"
       refX="0"
       refY="0"
       orient="auto"
       id="Arrow1Lendh-0"
       style="overflow:visible">
      <path
         inkscape:connector-curvature="0"
         d="M 0,0 5,-5 -12.5,0 5,5 0,0 z"
         transform="matrix(-0.8,0,0,-0.8,-10,0)"
         id="path7296-7"
         style="fill:#808080;fill-rule:evenodd;stroke:#808080;stroke-width:1pt" />
    </marker>
    <marker
       inkscape:stockid="Arrow1LendH"
       refX="0"
       refY="0"
       orient="auto"
       id="Arrow1LendH-3"
       style="overflow:visible">
      <path
         inkscape:connector-curvature="0"
         d="M 0,0 5,-5 -12.5,0 5,5 0,0 z"
         transform="matrix(-0.8,0,0,-0.8,-10,0)"
         id="path7284-1"
         style="fill:#b3b3b3;fill-rule:evenodd;stroke:#b3b3b3;stroke-width:1pt" />
    </marker>
    <marker
       inkscape:stockid="Arrow1LendM"
       refX="0"
       refY="0"
       orient="auto"
       id="Arrow1LendM-8"
       style="overflow:visible">
      <path
         inkscape:connector-curvature="0"
         d="M 0,0 5,-5 -12.5,0 5,5 0,0 z"
         transform="matrix(-0.8,0,0,-0.8,-10,0)"
         id="path7269-9"
         style="fill:#e6e6e6;fill-rule:evenodd;stroke:#e6e6e6;stroke-width:1pt" />
    </marker>
    <marker
       inkscape:stockid="Arrow1Lend3"
       refX="0"
       refY="0"
       orient="auto"
       id="marker10159"
       style="overflow:visible">
      <path
         inkscape:connector-curvature="0"
         d="M 0,0 5,-5 -12.5,0 5,5 0,0 z"
         transform="matrix(-0.8,0,0,-0.8,-10,0)"
         id="path10161"
         style="fill:#1a1a1a;fill-rule:evenodd;stroke:#1a1a1a;stroke-width:1pt" />
    </marker>
    <marker
       inkscape:stockid="Arrow1LendZ"
       refX="0"
       refY="0"
       orient="auto"
       id="marker10163"
       style="overflow:visible">
      <path
         inkscape:connector-curvature="0"
         d="M 0,0 5,-5 -12.5,0 5,5 0,0 z"
         transform="matrix(-0.8,0,0,-0.8,-10,0)"
         id="path10165"
         style="fill:#4d4d4d;fill-rule:evenodd;stroke:#4d4d4d;stroke-width:1pt" />
    </marker>
    <marker
       inkscape:stockid="Arrow1Lendh"
       refX="0"
       refY="0"
       orient="auto"
       id="marker10167"
       style="overflow:visible">
      <path
         inkscape:connector-curvature="0"
         d="M 0,0 5,-5 -12.5,0 5,5 0,0 z"
         transform="matrix(-0.8,0,0,-0.8,-10,0)"
         id="path10169"
         style="fill:#808080;fill-rule:evenodd;stroke:#808080;stroke-width:1pt" />
    </marker>
    <marker
       inkscape:stockid="Arrow1LendH"
       refX="0"
       refY="0"
       orient="auto"
       id="marker10171"
       style="overflow:visible">
      <path
         inkscape:connector-curvature="0"
         d="M 0,0 5,-5 -12.5,0 5,5 0,0 z"
         transform="matrix(-0.8,0,0,-0.8,-10,0)"
         id="path10173"
         style="fill:#b3b3b3;fill-rule:evenodd;stroke:#b3b3b3;stroke-width:1pt" />
    </marker>
    <marker
       inkscape:stockid="Arrow1LendM"
       refX="0"
       refY="0"
       orient="auto"
       id="marker10175"
       style="overflow:visible">
      <path
         inkscape:connector-curvature="0"
         d="M 0,0 5,-5 -12.5,0 5,5 0,0 z"
         transform="matrix(-0.8,0,0,-0.8,-10,0)"
         id="path10177"
         style="fill:#e6e6e6;fill-rule:evenodd;stroke:#e6e6e6;stroke-width:1pt" />
    </marker>
    <marker
       style="overflow:visible;"
       id="Arrow1LendoV"
       refX="0.0"
       refY="0.0"
       orient="auto"
       inkscape:stockid="Arrow1LendoV">
      <path
         transform="scale(0.8) rotate(180) translate(12.5,0)"
         style="stroke:#ff0000;stroke-width:1.0pt;fill:#ff0000;fill-rule:evenodd"
         d="M 0.0,0.0 L 5.0,-5.0 L -12.5,0.0 L 5.0,5.0 L 0.0,0.0 z "
         id="path10590" />
    </marker>
    <marker
       style="overflow:visible"
       id="Arrow1LendJR"
       orient="auto"
       refY="0"
       refX="0"
       inkscape:stockid="Arrow1LendJR">
      <path
         style="fill:#008000;fill-rule:evenodd;stroke:#008000;stroke-width:1pt"
         id="path5197"
         transform="matrix(-0.8,0,0,-0.8,-10,0)"
         d="M 0,0 5,-5 -12.5,0 5,5 0,0 z"
         inkscape:connector-curvature="0" />
    </marker>
    <marker
       style="overflow:visible"
       id="Arrow1LendGw"
       orient="auto"
       refY="0"
       refX="0"
       inkscape:stockid="Arrow1LendGw">
      <path
         style="fill:#008000;fill-rule:evenodd;stroke:#008000;stroke-width:1pt"
         id="path5200"
         transform="matrix(-0.8,0,0,-0.8,-10,0)"
         d="M 0,0 5,-5 -12.5,0 5,5 0,0 z"
         inkscape:connector-curvature="0" />
    </marker>
    <marker
       style="overflow:visible"
       id="Arrow1Lstart-5"
       orient="auto"
       refY="0"
       refX="0">
      <path
         style="fill-rule:evenodd;stroke:#000000;stroke-width:1pt"
         id="path8130"
         transform="matrix(0.8,0,0,0.8,10,0)"
         d="M 0,0 5,-5 -12.5,0 5,5 0,0 z"
         inkscape:connector-curvature="0" />
    </marker>
    <marker
       style="overflow:visible"
       id="Arrow1Lend-5"
       orient="auto"
       refY="0"
       refX="0">
      <path
         style="fill-rule:evenodd;stroke:#000000;stroke-width:1pt"
         id="path4800"
         transform="matrix(-0.8,0,0,-0.8,-10,0)"
         d="M 0,0 5,-5 -12.5,0 5,5 0,0 z"
         inkscape:connector-curvature="0" />
    </marker>
    <marker
       style="overflow:visible"
       id="Arrow1LendJRj"
       orient="auto"
       refY="0"
       refX="0"
       inkscape:stockid="Arrow1LendJRj">
      <path
         style="stroke-width:1pt;stroke:#000000;fill-rule:evenodd;fill:#000000"
         id="path13180"
         transform="matrix(-0.8,0,0,-0.8,-10,0)"
         d="M 0,0 5,-5 -12.5,0 5,5 0,0 z"
         inkscape:connector-curvature="0" />
    </marker>
    <marker
       style="overflow:visible"
       id="Arrow1LendGw0"
       orient="auto"
       refY="0"
       refX="0"
       inkscape:stockid="Arrow1LendGw0">
      <path
         style="stroke-width:1pt;stroke:#000000;fill-rule:evenodd;fill:#000000"
         id="path13183"
         transform="matrix(-0.8,0,0,-0.8,-10,0)"
         d="M 0,0 5,-5 -12.5,0 5,5 0,0 z"
         inkscape:connector-curvature="0" />
    </marker>
  </defs>
  <metadata
     id="metadata7">
    <rdf:RDF>
      <cc:Work
         rdf:about="">
        <dc:format>image/svg+xml</dc:format>
        <dc:type
           rdf:resource="http://purl.org/dc/dcmitype/StillImage" />
        <dc:title></dc:title>
      </cc:Work>
    </rdf:RDF>
  </metadata>
  <g
     inkscape:label="レイヤー 1"
     inkscape:groupmode="layer"
     id="layer1">
    <g
       id="g3069"
       transform="translate(-462.28099,106.77686)" />
    <g
       id="g6532"
       transform="translate(148.80398,-138.47913)">
      <g
         style="font-style:normal;font-variant:normal;font-weight:normal;font-stretch:normal;letter-spacing:normal;word-spacing:normal;text-anchor:start;fill:none;stroke:#000000;stroke-linecap:butt;stroke-linejoin:miter;stroke-miterlimit:10.43299961;stroke-opacity:1;stroke-dasharray:none;stroke-dashoffset:0"
         xml:space="preserve"
         id="g6534"
         transform="matrix(1.0629921,0,0,-1.0629921,-186.02362,789.27165)"><path
           style="fill:#000000;stroke-width:0"
           id="path6536"
           d="m 485.27,434.54 0.69,0.71 c 1.5,1.5 3.14,3.18 6.53,3.43 0.55,0.05 1,0.05 1,0.96 0,0.39 -0.25,0.59 -0.66,0.59 -1.29,0 -2.73,-0.16 -4.08,-0.16 -1.64,0 -3.39,0.16 -4.98,0.16 -0.3,0 -0.95,0 -0.95,-0.95 0,-0.55 0.5,-0.6 0.75,-0.6 0.34,0 1.79,-0.09 1.79,-1.14 0,-0.86 -1.14,-2.14 -1.34,-2.39 l -11.56,-13.31 -5.49,14.8 c -0.29,0.7 -0.29,0.79 -0.29,0.84 0,1.2 2.43,1.2 2.93,1.2 0.71,0 1.21,0 1.21,1 0,0.55 -0.6,0.55 -0.75,0.55 -1.39,0 -4.88,-0.16 -6.28,-0.16 -1.24,0 -4.33,0.16 -5.58,0.16 -0.3,0 -0.94,0 -0.94,-1 0,-0.55 0.48,-0.55 1.14,-0.55 2.98,0 3.19,-0.45 3.64,-1.68 l 6.13,-16.41 c 0.04,-0.14 0.2,-0.69 0.2,-0.84 0,-0.14 -2,-8.18 -2.25,-9.07 -0.64,-2.73 -0.69,-2.89 -4.69,-2.93 -0.94,0 -1.34,0 -1.34,-1 0,-0.55 0.61,-0.55 0.7,-0.55 1.39,0 4.88,0.16 6.28,0.16 1.39,0 4.99,-0.16 6.38,-0.16 0.34,0 0.93,0 0.93,1 0,0.55 -0.43,0.55 -1.39,0.55 -0.09,0 -1.04,0 -1.89,0.09 -1.04,0.11 -1.34,0.2 -1.34,0.8 0,0.36 0.45,2.09 0.7,3.14 l 1.74,7.03 c 0.25,0.94 0.29,1.09 0.7,1.55 z"
           inkscape:connector-curvature="0" /></g>    </g>
    <g
       id="g7202"
       transform="translate(286.42762,-138.40472)">
      <g
         style="font-style:normal;font-variant:normal;font-weight:normal;font-stretch:normal;letter-spacing:normal;word-spacing:normal;text-anchor:start;fill:none;stroke:#000000;stroke-linecap:butt;stroke-linejoin:miter;stroke-miterlimit:10.43299961;stroke-opacity:1;stroke-dasharray:none;stroke-dashoffset:0"
         xml:space="preserve"
         id="g7204"
         transform="matrix(1.0629921,0,0,-1.0629921,-186.02362,789.27165)"><path
           style="fill:#000000;stroke-width:0"
           id="path7206"
           d="m 464.33,428.21 -6.97,-0.54 v -1.55 c 3.24,0 3.69,-0.3 3.69,-2.73 v -13.41 c 0,-2.23 -0.55,-2.23 -3.89,-2.23 v -1.55 c 1.59,0.05 4.28,0.16 5.48,0.16 1.75,0 3.49,-0.11 5.19,-0.16 v 1.55 c -3.29,0 -3.5,0.25 -3.5,2.18 z"
           inkscape:connector-curvature="0" /><path
           style="fill:#000000;stroke-width:0"
           id="path7208"
           d="m 464.54,436.89 -0.01,0.14 -0.01,0.15 -0.02,0.14 -0.02,0.14 -0.03,0.13 -0.04,0.13 -0.04,0.13 -0.05,0.12 -0.06,0.12 -0.06,0.12 -0.06,0.11 -0.07,0.1 -0.08,0.1 -0.08,0.1 -0.08,0.1 -0.09,0.08 -0.1,0.09 -0.09,0.08 -0.1,0.07 -0.11,0.07 -0.11,0.07 -0.11,0.06 -0.11,0.05 -0.12,0.05 -0.11,0.04 -0.13,0.04 -0.12,0.03 -0.12,0.03 -0.13,0.02 -0.13,0.01 -0.13,0.01 -0.13,0.01 c -1.54,0 -2.64,-1.35 -2.64,-2.64 0,-1.35 1.1,-2.64 2.64,-2.64 1.4,0 2.65,1.04 2.65,2.64 z"
           inkscape:connector-curvature="0" /><path
           style="fill:#000000;stroke-width:0"
           id="path7210"
           d="m 474.8,423.34 v -13.36 c 0,-2.23 -0.55,-2.23 -3.89,-2.23 v -1.55 c 1.75,0.05 4.28,0.16 5.63,0.16 1.29,0 3.89,-0.11 5.57,-0.16 v 1.55 c -3.32,0 -3.87,0 -3.87,2.23 v 9.17 c 0,5.19 3.53,7.97 6.72,7.97 3.14,0 3.68,-2.69 3.68,-5.53 v -11.61 c 0,-2.23 -0.54,-2.23 -3.89,-2.23 v -1.55 c 1.75,0.05 4.3,0.16 5.64,0.16 1.3,0 3.88,-0.11 5.58,-0.16 v 1.55 c -2.59,0 -3.84,0 -3.89,1.5 v 9.51 c 0,4.28 0,5.83 -1.54,7.61 -0.69,0.86 -2.35,1.84 -5.22,1.84 -3.64,0 -5.99,-2.14 -7.38,-5.21 v 5.21 l -7.03,-0.54 v -1.55 c 3.48,0 3.89,-0.34 3.89,-2.78 z"
           inkscape:connector-curvature="0" /><path
           style="fill:#000000;stroke-width:0"
           id="path7212"
           d="m 521.04,438.03 v -29.49 h -5.39 v -2.34 h 21.49 c 9.81,0 17.28,6.12 17.28,16.8 0,10.95 -7.47,17.37 -17.35,17.37 l -1.98,-2.34 c 3.28,0 7.42,-0.94 9.86,-4.42 1.75,-2.55 2.14,-5.94 2.14,-10.57 0,-5.43 -0.59,-8.08 -2.19,-10.31 -2.39,-3.39 -6.78,-4.19 -9.81,-4.19 h -7.28 v 29.49 h 7.28 l 1.98,2.34 h -21.42 v -2.34 z"
           inkscape:connector-curvature="0" /></g>    </g>
    <path
       style="fill:none;stroke:#000000;stroke-width:1px;stroke-linecap:butt;stroke-linejoin:miter;stroke-opacity:1;marker-end:url(#Arrow1Lend)"
       id="path8619"
       d="m 261.64156,200.91833 125.92307,0"
       inkscape:connector-curvature="0"
       sodipodi:nodetypes="cc" />
    <g
       id="g7078"
       transform="translate(297.78293,8.5525225)">
      <g
         style="font-style:normal;font-variant:normal;font-weight:normal;font-stretch:normal;letter-spacing:normal;word-spacing:normal;text-anchor:start;fill:none;stroke:#000000;stroke-linecap:butt;stroke-linejoin:miter;stroke-miterlimit:10.43299961;stroke-opacity:1;stroke-dasharray:none;stroke-dashoffset:0"
         xml:space="preserve"
         id="g7080"
         transform="matrix(1.0629921,0,0,-1.0629921,-196.02362,760.70022)"><path
           style="fill:#000000;stroke-width:0"
           id="path7082"
           d="m 464.33,428.21 -6.97,-0.54 v -1.55 c 3.24,0 3.69,-0.3 3.69,-2.73 v -13.41 c 0,-2.23 -0.55,-2.23 -3.89,-2.23 v -1.55 c 1.59,0.05 4.28,0.16 5.48,0.16 1.75,0 3.49,-0.11 5.19,-0.16 v 1.55 c -3.29,0 -3.5,0.25 -3.5,2.18 z"
           inkscape:connector-curvature="0" /><path
           style="fill:#000000;stroke-width:0"
           id="path7084"
           d="m 464.54,436.89 -0.01,0.14 -0.01,0.15 -0.02,0.14 -0.02,0.14 -0.03,0.13 -0.04,0.13 -0.04,0.13 -0.05,0.12 -0.06,0.12 -0.06,0.12 -0.06,0.11 -0.07,0.1 -0.08,0.1 -0.08,0.1 -0.08,0.1 -0.09,0.08 -0.1,0.09 -0.09,0.08 -0.1,0.07 -0.11,0.07 -0.11,0.07 -0.11,0.06 -0.11,0.05 -0.12,0.05 -0.11,0.04 -0.13,0.04 -0.12,0.03 -0.12,0.03 -0.13,0.02 -0.13,0.01 -0.13,0.01 -0.13,0.01 c -1.54,0 -2.64,-1.35 -2.64,-2.64 0,-1.35 1.1,-2.64 2.64,-2.64 1.4,0 2.65,1.04 2.65,2.64 z"
           inkscape:connector-curvature="0" /><path
           style="fill:#000000;stroke-width:0"
           id="path7086"
           d="m 474.8,423.34 v -13.36 c 0,-2.23 -0.55,-2.23 -3.89,-2.23 v -1.55 c 1.75,0.05 4.28,0.16 5.63,0.16 1.29,0 3.89,-0.11 5.57,-0.16 v 1.55 c -3.32,0 -3.87,0 -3.87,2.23 v 9.17 c 0,5.19 3.53,7.97 6.72,7.97 3.14,0 3.68,-2.69 3.68,-5.53 v -11.61 c 0,-2.23 -0.54,-2.23 -3.89,-2.23 v -1.55 c 1.75,0.05 4.3,0.16 5.64,0.16 1.3,0 3.88,-0.11 5.58,-0.16 v 1.55 c -2.59,0 -3.84,0 -3.89,1.5 v 9.51 c 0,4.28 0,5.83 -1.54,7.61 -0.69,0.86 -2.35,1.84 -5.22,1.84 -3.64,0 -5.99,-2.14 -7.38,-5.21 v 5.21 l -7.03,-0.54 v -1.55 c 3.48,0 3.89,-0.34 3.89,-2.78 z"
           inkscape:connector-curvature="0" /><path
           style="fill:#000000;stroke-width:0"
           id="path7088"
           d="m 551.87,439.53 0,0.08 0,0.09 0,0.08 0,0.08 0,0.08 0,0.07 -0.01,0.07 0,0.07 -0.01,0.06 -0.01,0.06 -0.01,0.06 -0.01,0.06 -0.01,0.05 -0.01,0.05 -0.02,0.05 -0.02,0.04 -0.02,0.04 -0.03,0.04 -0.03,0.04 -0.03,0.03 -0.03,0.03 -0.04,0.03 -0.04,0.02 -0.04,0.02 -0.05,0.02 -0.03,0.01 -0.03,0.01 -0.03,0.01 -0.02,0.01 -0.03,0 -0.04,0.01 -0.03,0 -0.03,0.01 -0.04,0 -0.03,0 -0.04,0.01 -0.04,0 -0.04,0 -0.04,0 c -0.45,0 -0.55,-0.1 -0.95,-0.44 l -3.28,-2.94 c -3.1,2.49 -6.43,3.38 -9.82,3.38 -12.4,0 -20.03,-7.42 -20.03,-17.63 0,-10.22 7.63,-17.64 20.03,-17.64 9.32,0 14.94,6.13 14.94,11.86 0,1 -0.34,1.05 -1.19,1.05 -0.65,0 -1.09,0 -1.14,-0.85 -0.36,-6.68 -6.39,-9.71 -11.42,-9.71 -3.87,0 -8.06,1.18 -10.65,4.23 -2.35,2.84 -2.94,6.58 -2.94,11.06 0,2.78 0.14,8.17 3.28,11.46 3.25,3.28 7.58,3.84 10.17,3.84 5.37,0 10.11,-3.8 11.2,-10.13 0.16,-0.93 0.21,-1.04 1.35,-1.04 1.29,0 1.34,0.11 1.34,1.4 z"
           inkscape:connector-curvature="0" /></g>    </g>
    <path
       style="font-style:normal;font-variant:normal;font-weight:normal;font-stretch:normal;letter-spacing:normal;word-spacing:normal;text-anchor:start;fill:#000000;stroke:#000000;stroke-width:0;stroke-linecap:butt;stroke-linejoin:miter;stroke-miterlimit:10.43299960999999954;stroke-opacity:1;stroke-dasharray:none;stroke-dashoffset:0"
       id="path6606"
       d="m 447.02641,295.74291 0,-0.0213 0,-0.0213 0,-0.0106 -0.0106,-0.0213 0,-0.0213 0,-0.0213 -0.0106,-0.0213 0,-0.0213 -0.0106,-0.0213 -0.0106,-0.0213 -0.0106,-0.0213 0,-0.0213 -0.0213,-0.0213 -0.0106,-0.0213 -0.0106,-0.0213 -0.0106,-0.0213 -0.0213,-0.0213 -0.0213,-0.0213 -0.0213,-0.0213 -0.0213,-0.0213 -0.0213,-0.0106 -0.0213,-0.0213 -0.0319,-0.0106 -0.0213,-0.0213 -0.0319,-0.0106 -0.0106,-0.0106 -0.0213,0 -0.0106,-0.0106 -0.0212,0 -0.0213,-0.0106 -0.0106,0 -0.0213,0 -0.0213,-0.0106 -0.0213,0 -0.0213,0 -0.0213,0 -0.0213,0 -0.0213,0 -0.0213,0 c -0.14882,0 -0.2126,0.0425 -0.79725,0.62716 l -3.69921,4.08189 c -0.46772,-0.74409 -2.9126,-4.70905 -8.79094,-4.70905 -11.80985,0 -23.73662,11.70354 -23.73662,23.9811 0,8.4189 5.88898,14.50984 14.46732,14.50984 2.32796,0 4.71969,-0.47835 6.61182,-1.25433 2.65748,-1.06299 3.65669,-2.17913 4.62401,-3.24213 0.47835,1.32874 1.83898,3.28465 2.37047,3.28465 0.26575,0 0.38268,-0.15945 0.38268,-0.2126 0.0957,-0.0957 0.62717,-2.10472 0.89291,-3.22087 l 0.99922,-4.08188 c 0.21259,-0.90355 0.47834,-1.79646 0.70157,-2.71063 0.57402,-2.38111 0.62717,-2.47678 3.64606,-2.54056 0.26575,0 0.8504,-0.0532 0.8504,-1.05236 0,-0.38268 -0.26575,-0.57401 -0.68032,-0.57401 -1.23307,0 -4.34764,0.14882 -5.55945,0.14882 -1.64763,0 -5.78267,-0.14882 -7.43031,-0.14882 -0.46772,0 -1.10551,0 -1.10551,1.04173 0,0.58464 0.42519,0.58464 1.59449,0.58464 0.0425,0 1.59448,0 2.80629,0.11693 1.37126,0.14882 1.63701,0.30827 1.63701,0.99922 0,0.47834 -0.57401,2.87007 -1.10551,4.81535 -1.47756,5.8252 -8.37638,6.40984 -10.23661,6.40984 -5.08111,0 -10.62992,-3.00827 -10.62992,-11.11889 0,-1.63701 0.52086,-10.37481 6.08031,-17.27363 2.85945,-3.60354 8.00433,-6.82441 13.23425,-6.82441 5.42126,0 8.53583,4.07126 8.53583,10.21536 0,2.12598 -0.15945,2.17913 -0.15945,2.71063 0,0.53149 0.57402,0.53149 0.79724,0.53149 0.68032,0 0.68032,-0.11692 0.94607,-1.06299 z"
       inkscape:connector-curvature="0" />
    <path
       style="font-style:normal;font-variant:normal;font-weight:normal;font-stretch:normal;letter-spacing:normal;word-spacing:normal;text-anchor:start;fill:#000000;stroke:#000000;stroke-width:0;stroke-linecap:butt;stroke-linejoin:miter;stroke-miterlimit:10.43299961;stroke-opacity:1;stroke-dasharray:none;stroke-dashoffset:0"
       id="path6608"
       d="m 465.88389,345.24645 0,-0.0213 0,-0.0319 0,-0.0106 0,-0.0213 -0.0106,-0.0106 0,-0.0213 -0.0106,-0.0106 0,-0.0213 -0.0106,-0.0213 -0.0106,-0.0213 -0.0213,-0.0213 -0.0106,-0.0319 -0.0213,-0.0213 -0.0106,-0.0319 -0.0319,-0.0319 -0.0213,-0.0319 -0.0319,-0.0319 -0.0319,-0.0425 -0.0106,-0.0213 -0.0213,-0.0213 -0.0106,-0.0213 -0.0213,-0.0213 -0.0213,-0.0213 -0.0213,-0.0319 -0.0213,-0.0213 -0.0319,-0.0213 -0.0213,-0.0319 -0.0213,-0.0213 -0.0319,-0.0319 -0.0213,-0.0319 -0.0319,-0.0319 -0.0319,-0.0319 -0.0213,-0.0319 -0.0319,-0.0319 -0.0425,-0.0319 -0.0319,-0.0319 -0.0319,-0.0425 -0.0319,-0.0319 -0.0425,-0.0425 -0.0425,-0.0319 -0.0319,-0.0425 -0.0425,-0.0425 c -6.61181,-6.67559 -8.31259,-16.67834 -8.31259,-24.77834 0,-9.21614 2.01968,-18.44292 8.52519,-25.0441 0.68032,-0.64842 0.68032,-0.75472 0.68032,-0.91417 0,-0.37205 -0.20197,-0.52087 -0.51024,-0.52087 -0.53149,0 -5.30433,3.59292 -8.42953,10.31103 -2.7,5.83582 -3.33779,11.71417 -3.33779,16.16811 0,4.13504 0.58464,10.52362 3.49724,16.51889 3.16772,6.51615 7.73859,9.94961 8.27008,9.94961 0.30827,0 0.51024,-0.14882 0.51024,-0.5315 z"
       inkscape:connector-curvature="0" />
    <path
       style="font-style:normal;font-variant:normal;font-weight:normal;font-stretch:normal;letter-spacing:normal;word-spacing:normal;text-anchor:start;fill:#000000;stroke:#000000;stroke-width:0;stroke-linecap:butt;stroke-linejoin:miter;stroke-miterlimit:10.43299961;stroke-opacity:1;stroke-dasharray:none;stroke-dashoffset:0"
       id="path6610"
       d="m 500.51618,302.4185 0.73346,-0.75472 c 1.59449,-1.59449 3.3378,-3.38032 6.94134,-3.64606 0.58465,-0.0531 1.06299,-0.0531 1.06299,-1.02048 0,-0.41456 -0.26575,-0.62716 -0.69094,-0.62716 -1.38189,0 -2.9126,0.17008 -4.33701,0.17008 -1.74331,0 -3.60354,-0.17008 -5.30433,-0.17008 -0.30827,0 -1.00984,0 -1.00984,1.00984 0,0.58465 0.53149,0.6378 0.79724,0.6378 0.36142,0 1.91339,0.0957 1.91339,1.21181 0,0.91417 -1.21181,2.2748 -1.43504,2.54055 l -12.28819,14.14842 -5.8252,-15.73228 c -0.3189,-0.7441 -0.3189,-0.83976 -0.3189,-0.89291 0,-1.27559 2.5937,-1.27559 3.1252,-1.27559 0.7441,0 1.27559,0 1.27559,-1.063 0,-0.58464 -0.62716,-0.58464 -0.79724,-0.58464 -1.47756,0 -5.1874,0.17008 -6.67559,0.17008 -1.31811,0 -4.60276,-0.17008 -5.9315,-0.17008 -0.3189,0 -0.99921,0 -0.99921,1.06299 0,0.58465 0.52086,0.58465 1.21181,0.58465 3.17835,0 3.39094,0.47834 3.86929,1.78582 l 6.51614,17.4437 c 0.0532,0.14882 0.2126,0.73347 0.2126,0.89292 0,0.14881 -2.12598,8.69527 -2.39173,9.64133 -0.68032,2.90197 -0.72284,3.07205 -4.9748,3.11457 -0.99922,0 -1.43504,0 -1.43504,1.06299 0,0.58465 0.64842,0.58465 0.74409,0.58465 1.47756,0 5.1874,-0.17008 6.68622,-0.17008 1.47756,0 5.2937,0.17008 6.77126,0.17008 0.36142,0 0.99921,0 0.99921,-1.06299 0,-0.58465 -0.46771,-0.58465 -1.47756,-0.58465 -0.1063,0 -1.11614,0 -2.00905,-0.0957 -1.11614,-0.11693 -1.43504,-0.2126 -1.43504,-0.85039 0,-0.38268 0.48898,-2.22166 0.75472,-3.3378 l 1.83898,-7.47283 c 0.26575,-0.99921 0.3189,-1.15866 0.74409,-1.64764 z"
       inkscape:connector-curvature="0" />
    <path
       style="font-style:normal;font-variant:normal;font-weight:normal;font-stretch:normal;letter-spacing:normal;word-spacing:normal;text-anchor:start;fill:#000000;stroke:#000000;stroke-width:0;stroke-linecap:butt;stroke-linejoin:miter;stroke-miterlimit:10.43299961;stroke-opacity:1;stroke-dasharray:none;stroke-dashoffset:0"
       id="path6612"
       d="m 526.79334,319.30945 0,-0.39331 0,-0.41457 -0.0106,-0.41456 -0.0213,-0.43583 -0.0425,-0.89291 -0.0638,-0.93544 -0.085,-0.97795 -0.11693,-1.00984 -0.13819,-1.0311 -0.17008,-1.07363 -0.21259,-1.08425 -0.24449,-1.09488 -0.28701,-1.11614 -0.3189,-1.12677 -0.37204,-1.13741 -0.41457,-1.1374 -0.23386,-0.56338 -0.23386,-0.56339 -0.25512,-0.56338 -0.26574,-0.56339 c -3.16772,-6.50551 -7.71733,-9.94961 -8.24882,-9.94961 -0.3189,0 -0.5315,0.20197 -0.5315,0.52087 0,0.15945 0,0.26575 0.98858,1.22244 5.19804,5.22992 8.22756,13.65945 8.22756,24.73583 0,9.04606 -1.96653,18.3685 -8.53582,25.04409 -0.68032,0.62717 -0.68032,0.7441 -0.68032,0.89291 0,0.3189 0.2126,0.5315 0.5315,0.5315 0.53149,0 5.27244,-3.60354 8.41889,-10.32165 2.68937,-5.81457 3.31654,-11.69292 3.31654,-16.14685 z"
       inkscape:connector-curvature="0" />
    <path
       style="fill:none;stroke:#000000;stroke-width:1px;stroke-linecap:butt;stroke-linejoin:miter;stroke-opacity:1;marker-start:url(#Arrow1Lstart);marker-end:none"
       id="path8619-7"
       d="m 387.56463,319.30413 -124.08649,0"
       inkscape:connector-curvature="0"
       sodipodi:nodetypes="cc" />
    <path
       inkscape:connector-curvature="0"
       d="m 55.590789,260.11122 494.285701,0"
       id="path9409"
       style="fill:none;stroke:#000000;stroke-width:1px;stroke-linecap:butt;stroke-linejoin:miter;stroke-opacity:1" />
    <rect
       width="720.44824"
       height="211.97824"
       x="30.049807"
       y="155.72398"
       id="rect9411"
       style="fill:none;stroke:none" />
    <path
       inkscape:connector-curvature="0"
       id="path4401-8"
       d="m 323.13316,298.09215 0,-72.73098"
       style="stroke-linejoin:miter;marker-end:url(#Arrow1LendJRj);stroke-opacity:1;stroke-dashoffset:0;stroke:#000000;stroke-linecap:butt;stroke-miterlimit:4;stroke-dasharray:4.00039999999999996, 4.00039999999999996;stroke-width:1.00010002000000009;fill:#008000" />
    <g
       style="font-style:normal;font-variant:normal;font-weight:normal;font-stretch:normal;letter-spacing:normal;word-spacing:normal;text-anchor:start;fill:#000000;stroke:#00ff00;stroke-linecap:butt;stroke-linejoin:miter;stroke-miterlimit:10.43299960999999954;stroke-opacity:1;stroke-dasharray:none;stroke-dashoffset:0"
       id="g4919"
       transform="matrix(0.80730707,0,0,-0.80730707,-39.217971,621.66934)"
       xml:space="preserve"
       stroke-miterlimit="10.433"
       font-style="normal"
       font-variant="normal"
       font-weight="normal"
       font-stretch="normal"
       font-size-adjust="none"
       letter-spacing="normal"
       word-spacing="normal"><path
         style="fill:#000000;stroke:#00ff00;stroke-width:0"
         inkscape:connector-curvature="0"
         d="m 477.29,439.57 0,0.01 0,0.01 0,0 0,0.01 0,0.01 0,0.01 0,0 0,0.01 0.01,0.02 0,0.03 0,0.02 0.01,0.02 0.01,0.03 0,0.03 0.01,0.02 0,0.03 0.01,0.03 0.01,0.03 0.01,0.06 0.02,0.06 0,0.03 0.01,0.02 0.01,0.03 0,0.03 0.01,0.02 0.01,0.02 0,0.02 0.01,0.02 0,0.01 0,0.01 0,0.01 0,0.01 0.01,0 0,0.01 0,0.01 0,0 0,0.01 0,0 0,0 0,0.01 c 0,0.04 0,0.5 -0.59,0.5 -0.5,0 -0.55,-0.16 -0.75,-1 l -2.89,-11.5 c -7.92,-0.25 -15.25,-6.88 -15.25,-13.66 0,-4.73 3.48,-8.67 9.56,-9.01 l 0.25,1.09 c -2.98,0.14 -6.58,1.89 -6.58,6.87 0,5.99 4.3,12.96 11.72,13.6 l -5.14,-20.47 -0.25,-1.09 c -0.39,-1.55 -0.73,-3.15 -1.14,-4.69 -0.59,-2.35 -1.09,-4.24 -1.09,-4.39 0,-0.49 0.34,-0.55 0.59,-0.55 0.25,0 0.36,0.06 0.5,0.2 0.09,0.1 0.41,1.3 0.55,2 l 1.89,7.43 0.25,1.09 5.14,20.47 c 3.78,-0.19 6.62,-2.49 6.62,-6.88 0,-5.87 -4.28,-13 -11.76,-13.59 l -0.25,-1.09 c 8.03,0.25 15.25,6.96 15.25,13.64 0,3.93 -2.64,8.53 -9.57,9.03 z"
         id="path4921" /><path
         style="fill:#000000;stroke:#00ff00;stroke-width:0"
         inkscape:connector-curvature="0"
         d="m 511.08,432.07 0.06,0 0.05,0 0.11,0.01 0.12,0 0.06,0 0.06,0.01 0.06,0 0.05,0.01 0.06,0.01 0.06,0.01 0.06,0.01 0.05,0.01 0.06,0.02 0.05,0.02 0.05,0.02 0.05,0.02 0.05,0.03 0.04,0.03 0.04,0.03 0.04,0.04 0.04,0.04 0.02,0.02 0.01,0.02 0.02,0.02 0.02,0.03 0.01,0.02 0.01,0.03 0.02,0.02 0.01,0.03 0.01,0.03 0.01,0.03 0,0.03 0.01,0.03 0.01,0.04 0,0.03 0.01,0.03 0,0.04 0,0.04 0,0.04 c 0,0.86 -0.79,0.86 -1.39,0.86 h -20.76 c -0.57,0 -1.39,0 -1.39,-0.83 0,-0.88 0.79,-0.88 1.39,-0.88 z"
         id="path4923" /><path
         style="fill:#000000;stroke:#00ff00;stroke-width:0"
         inkscape:connector-curvature="0"
         d="m 527.91,446.36 0,0.04 0,0.04 0,0.04 0,0.04 0,0.04 0,0.04 0,0.04 0,0.03 -0.01,0.04 0,0.03 0,0.03 0,0.03 0,0.03 -0.01,0.03 0,0.03 -0.01,0.02 0,0.03 0,0.02 -0.01,0.02 0,0.03 -0.02,0.04 -0.01,0.04 -0.02,0.03 -0.02,0.03 -0.02,0.03 -0.02,0.03 -0.03,0.02 -0.03,0.02 -0.04,0.01 -0.03,0.02 -0.04,0.01 -0.05,0.01 -0.02,0.01 -0.03,0 -0.02,0.01 -0.03,0 -0.03,0 -0.02,0.01 -0.03,0 -0.03,0 -0.04,0 -0.03,0 -0.03,0.01 -0.04,0 -0.04,0 -0.03,0 -0.04,0 -0.04,0 -0.04,0 -0.05,0 -0.04,0 -0.05,0 c -2.23,-2.2 -5.39,-2.23 -6.83,-2.23 v -1.25 c 0.85,0 3.15,0 5.05,0.96 v -17.76 c 0,-1.16 0,-1.61 -3.48,-1.61 h -1.32 v -1.25 c 0.63,0.03 4.91,0.14 6.21,0.14 1.08,0 5.47,-0.11 6.23,-0.14 v 1.25 h -1.32 c -3.49,0 -3.49,0.45 -3.49,1.61 z"
         id="path4925" /></g>    <g
       id="g13493"
       transform="translate(-219.47169,-26.630457)">
      <g
         id="content"
         transform="matrix(1.0629921,0,0,-1.0629921,-186.02362,789.27165)"
         xml:space="preserve"
         stroke-miterlimit="10.433"
         font-style="normal"
         font-variant="normal"
         font-weight="normal"
         font-stretch="normal"
         font-size-adjust="none"
         letter-spacing="normal"
         word-spacing="normal"
         style="font-style:normal;font-variant:normal;font-weight:normal;font-stretch:normal;letter-spacing:normal;word-spacing:normal;text-anchor:start;fill:none;stroke:#000000;stroke-linecap:butt;stroke-linejoin:miter;stroke-miterlimit:10.43299961;stroke-opacity:1;stroke-dasharray:none;stroke-dashoffset:0"><path
           d="m 493.38,440.82 0,0.02 0,0.02 0,0.01 -0.01,0.02 0,0.02 0,0.02 -0.01,0.02 0,0.02 -0.01,0.02 -0.01,0.02 -0.01,0.02 0,0.02 -0.02,0.02 -0.01,0.02 -0.01,0.02 -0.01,0.02 -0.02,0.02 -0.02,0.02 -0.02,0.02 -0.02,0.02 -0.02,0.01 -0.02,0.02 -0.03,0.01 -0.02,0.02 -0.03,0.01 -0.01,0.01 -0.02,0 -0.01,0.01 -0.02,0 -0.02,0.01 -0.01,0 -0.02,0 -0.02,0.01 -0.02,0 -0.02,0 -0.02,0 -0.02,0 -0.02,0 -0.02,0 c -0.14,0 -0.2,-0.04 -0.75,-0.59 l -3.48,-3.84 c -0.44,0.7 -2.74,4.43 -8.27,4.43 -11.11,0 -22.33,-11.01 -22.33,-22.56 0,-7.92 5.54,-13.65 13.61,-13.65 2.19,0 4.44,0.45 6.22,1.18 2.5,1 3.44,2.05 4.35,3.05 0.45,-1.25 1.73,-3.09 2.23,-3.09 0.25,0 0.36,0.15 0.36,0.2 0.09,0.09 0.59,1.98 0.84,3.03 l 0.94,3.84 c 0.2,0.85 0.45,1.69 0.66,2.55 0.54,2.24 0.59,2.33 3.43,2.39 0.25,0 0.8,0.05 0.8,0.99 0,0.36 -0.25,0.54 -0.64,0.54 -1.16,0 -4.09,-0.14 -5.23,-0.14 -1.55,0 -5.44,0.14 -6.99,0.14 -0.44,0 -1.04,0 -1.04,-0.98 0,-0.55 0.4,-0.55 1.5,-0.55 0.04,0 1.5,0 2.64,-0.11 1.29,-0.14 1.54,-0.29 1.54,-0.94 0,-0.45 -0.54,-2.7 -1.04,-4.53 -1.39,-5.48 -7.88,-6.03 -9.63,-6.03 -4.78,0 -10,2.83 -10,10.46 0,1.54 0.49,9.76 5.72,16.25 2.69,3.39 7.53,6.42 12.45,6.42 5.1,0 8.03,-3.83 8.03,-9.61 0,-2 -0.15,-2.05 -0.15,-2.55 0,-0.5 0.54,-0.5 0.75,-0.5 0.64,0 0.64,0.11 0.89,1 z"
           id="path13496"
           inkscape:connector-curvature="0"
           style="fill:#000000;stroke-width:0" /><path
           d="m 511.12,394.25 0,0.02 0,0.03 0,0.01 0,0.02 -0.01,0.01 0,0.02 -0.01,0.01 0,0.02 -0.01,0.02 -0.01,0.02 -0.02,0.02 -0.01,0.03 -0.02,0.02 -0.01,0.03 -0.03,0.03 -0.02,0.03 -0.03,0.03 -0.03,0.04 -0.01,0.02 -0.02,0.02 -0.01,0.02 -0.02,0.02 -0.02,0.02 -0.02,0.03 -0.02,0.02 -0.03,0.02 -0.02,0.03 -0.02,0.02 -0.03,0.03 -0.02,0.03 -0.03,0.03 -0.03,0.03 -0.02,0.03 -0.03,0.03 -0.04,0.03 -0.03,0.03 -0.03,0.04 -0.03,0.03 -0.04,0.04 -0.04,0.03 -0.03,0.04 -0.04,0.04 c -6.22,6.28 -7.82,15.69 -7.82,23.31 0,8.67 1.9,17.35 8.02,23.56 0.64,0.61 0.64,0.71 0.64,0.86 0,0.35 -0.19,0.49 -0.48,0.49 -0.5,0 -4.99,-3.38 -7.93,-9.7 -2.54,-5.49 -3.14,-11.02 -3.14,-15.21 0,-3.89 0.55,-9.9 3.29,-15.54 2.98,-6.13 7.28,-9.36 7.78,-9.36 0.29,0 0.48,0.14 0.48,0.5 z"
           id="path13498"
           inkscape:connector-curvature="0"
           style="fill:#000000;stroke-width:0" /><path
           d="m 543.7,434.54 0.69,0.71 c 1.5,1.5 3.14,3.18 6.53,3.43 0.55,0.05 1,0.05 1,0.96 0,0.39 -0.25,0.59 -0.65,0.59 -1.3,0 -2.74,-0.16 -4.08,-0.16 -1.64,0 -3.39,0.16 -4.99,0.16 -0.29,0 -0.95,0 -0.95,-0.95 0,-0.55 0.5,-0.6 0.75,-0.6 0.34,0 1.8,-0.09 1.8,-1.14 0,-0.86 -1.14,-2.14 -1.35,-2.39 l -11.56,-13.31 -5.48,14.8 c -0.3,0.7 -0.3,0.79 -0.3,0.84 0,1.2 2.44,1.2 2.94,1.2 0.7,0 1.2,0 1.2,1 0,0.55 -0.59,0.55 -0.75,0.55 -1.39,0 -4.88,-0.16 -6.28,-0.16 -1.24,0 -4.33,0.16 -5.58,0.16 -0.3,0 -0.94,0 -0.94,-1 0,-0.55 0.49,-0.55 1.14,-0.55 2.99,0 3.19,-0.45 3.64,-1.68 l 6.13,-16.41 c 0.05,-0.14 0.2,-0.69 0.2,-0.84 0,-0.14 -2,-8.18 -2.25,-9.07 -0.64,-2.73 -0.68,-2.89 -4.68,-2.93 -0.94,0 -1.35,0 -1.35,-1 0,-0.55 0.61,-0.55 0.7,-0.55 1.39,0 4.88,0.16 6.29,0.16 1.39,0 4.98,-0.16 6.37,-0.16 0.34,0 0.94,0 0.94,1 0,0.55 -0.44,0.55 -1.39,0.55 -0.1,0 -1.05,0 -1.89,0.09 -1.05,0.11 -1.35,0.2 -1.35,0.8 0,0.36 0.46,2.09 0.71,3.14 l 1.73,7.03 c 0.25,0.94 0.3,1.09 0.7,1.55 z"
           id="path13500"
           inkscape:connector-curvature="0"
           style="fill:#000000;stroke-width:0" /><path
           d="m 568.42,418.65 0,0.37 0,0.39 -0.01,0.39 -0.02,0.41 -0.04,0.84 -0.06,0.88 -0.08,0.92 -0.11,0.95 -0.13,0.97 -0.16,1.01 -0.2,1.02 -0.23,1.03 -0.27,1.05 -0.3,1.06 -0.35,1.07 -0.39,1.07 -0.22,0.53 -0.22,0.53 -0.24,0.53 -0.25,0.53 c -2.98,6.12 -7.26,9.36 -7.76,9.36 -0.3,0 -0.5,-0.19 -0.5,-0.49 0,-0.15 0,-0.25 0.93,-1.15 4.89,-4.92 7.74,-12.85 7.74,-23.27 0,-8.51 -1.85,-17.28 -8.03,-23.56 -0.64,-0.59 -0.64,-0.7 -0.64,-0.84 0,-0.3 0.2,-0.5 0.5,-0.5 0.5,0 4.96,3.39 7.92,9.71 2.53,5.47 3.12,11 3.12,15.19 z"
           id="path13502"
           inkscape:connector-curvature="0"
           style="fill:#000000;stroke-width:0" /></g>    </g>
    <g
       id="g13766"
       transform="translate(-266.30456,-143.25349)">
      <g
         word-spacing="normal"
         letter-spacing="normal"
         font-size-adjust="none"
         font-stretch="normal"
         font-weight="normal"
         font-variant="normal"
         font-style="normal"
         stroke-miterlimit="10.433"
         xml:space="preserve"
         transform="matrix(1.0629921,0,0,-1.0629921,-186.02362,789.27165)"
         id="g13768"
         style="font-style:normal;font-variant:normal;font-weight:normal;font-stretch:normal;letter-spacing:normal;word-spacing:normal;text-anchor:start;fill:none;stroke:#000000;stroke-linecap:butt;stroke-linejoin:miter;stroke-miterlimit:10.43299961;stroke-opacity:1;stroke-dasharray:none;stroke-dashoffset:0"><path
           id="path13770"
           d="m 470.61,422.39 h 4.83 c 3.75,0 4.14,-0.8 4.14,-2.24 0,-0.36 0,-0.95 -0.34,-2.44 -0.11,-0.25 -0.16,-0.45 -0.16,-0.56 0,-0.39 0.3,-0.59 0.6,-0.59 0.5,0 0.5,0.15 0.75,1.05 l 2.75,10.81 c 0.14,0.54 0.14,0.65 0.14,0.79 0,0.1 -0.1,0.55 -0.6,0.55 -0.5,0 -0.54,-0.25 -0.75,-1.05 -1.04,-3.87 -2.18,-4.78 -6.42,-4.78 h -4.53 l 3.19,12.66 c 0.43,1.75 0.5,1.94 2.68,1.94 h 6.58 c 6.13,0 7.27,-1.64 7.27,-5.47 0,-1.16 0,-1.35 -0.14,-2.7 -0.11,-0.65 -0.11,-0.74 -0.11,-0.9 0,-0.25 0.15,-0.59 0.61,-0.59 0.54,0 0.59,0.3 0.69,1.25 l 1,8.61 c 0.15,1.34 -0.1,1.34 -1.35,1.34 h -24.4 c -1,0 -1.5,0 -1.5,-1 0,-0.54 0.45,-0.54 1.39,-0.54 1.84,0 3.23,0 3.23,-0.89 0,-0.21 0,-0.3 -0.25,-1.21 l -6.56,-26.34 c -0.5,-1.95 -0.61,-2.34 -4.55,-2.34 -0.84,0 -1.39,0 -1.39,-0.96 0,-0.59 0.59,-0.59 0.75,-0.59 1.44,0 5.13,0.16 6.58,0.16 1.64,0 5.78,-0.16 7.42,-0.16 0.45,0 1.05,0 1.05,0.95 0,0.39 -0.3,0.49 -0.3,0.55 -0.16,0.05 -0.25,0.05 -1.39,0.05 -1.11,0 -1.36,0 -2.59,0.09 -1.46,0.16 -1.6,0.36 -1.6,1 0,0.09 0,0.41 0.19,1.14 z"
           inkscape:connector-curvature="0"
           style="fill:#000000;stroke-width:0" /><path
           id="path13772"
           d="m 527.68,418.65 -0.01,0.5 -0.04,0.49 -0.06,0.48 -0.09,0.48 -0.11,0.46 -0.13,0.46 -0.15,0.45 -0.18,0.44 -0.2,0.43 -0.22,0.42 -0.23,0.4 -0.26,0.39 -0.27,0.38 -0.29,0.37 -0.31,0.35 -0.32,0.34 -0.34,0.32 -0.35,0.3 -0.37,0.29 -0.38,0.27 -0.39,0.25 -0.41,0.23 -0.41,0.22 -0.43,0.19 -0.44,0.18 -0.44,0.15 -0.46,0.13 -0.46,0.11 -0.47,0.08 -0.48,0.06 -0.48,0.04 -0.49,0.01 c -5.37,0 -9.72,-4.43 -9.72,-9.67 0,-5.28 4.35,-9.65 9.72,-9.65 v 1.98 c -4.33,0 -7.72,3.48 -7.72,7.67 0,4.19 3.44,7.67 7.72,7.67 4.14,0 7.67,-3.39 7.67,-7.67 0,-4.28 -3.53,-7.67 -7.67,-7.67 h 0 V 409 c 5.24,0 9.67,4.32 9.67,9.65 z"
           inkscape:connector-curvature="0"
           style="fill:#000000;stroke-width:0" /><path
           id="path13774"
           d="m 579.41,440.82 0,0.02 0,0.02 0,0.01 0,0.02 0,0.02 -0.01,0.02 0,0.02 -0.01,0.02 0,0.02 -0.01,0.02 -0.01,0.02 -0.01,0.02 -0.01,0.02 -0.01,0.02 -0.02,0.02 -0.01,0.02 -0.02,0.02 -0.01,0.02 -0.02,0.02 -0.02,0.02 -0.02,0.01 -0.03,0.02 -0.02,0.01 -0.03,0.02 -0.02,0.01 -0.02,0.01 -0.01,0 -0.02,0.01 -0.02,0 -0.01,0.01 -0.02,0 -0.02,0 -0.01,0.01 -0.02,0 -0.02,0 -0.02,0 -0.02,0 -0.02,0 -0.02,0 c -0.14,0 -0.21,-0.04 -0.75,-0.59 l -3.49,-3.84 c -0.43,0.7 -2.73,4.43 -8.26,4.43 -11.11,0 -22.33,-11.01 -22.33,-22.56 0,-7.92 5.53,-13.65 13.61,-13.65 2.19,0 4.44,0.45 6.22,1.18 2.5,1 3.43,2.05 4.34,3.05 0.45,-1.25 1.74,-3.09 2.24,-3.09 0.25,0 0.35,0.15 0.35,0.2 0.1,0.09 0.6,1.98 0.85,3.03 l 0.94,3.84 c 0.2,0.85 0.45,1.69 0.65,2.55 0.55,2.24 0.6,2.33 3.44,2.39 0.25,0 0.8,0.05 0.8,0.99 0,0.36 -0.25,0.54 -0.64,0.54 -1.16,0 -4.1,-0.14 -5.24,-0.14 -1.55,0 -5.44,0.14 -6.98,0.14 -0.44,0 -1.05,0 -1.05,-0.98 0,-0.55 0.41,-0.55 1.5,-0.55 0.05,0 1.5,0 2.64,-0.11 1.3,-0.14 1.55,-0.29 1.55,-0.94 0,-0.45 -0.55,-2.7 -1.05,-4.53 -1.39,-5.48 -7.87,-6.03 -9.62,-6.03 -4.79,0 -10,2.83 -10,10.46 0,1.54 0.48,9.76 5.71,16.25 2.69,3.39 7.54,6.42 12.46,6.42 5.09,0 8.03,-3.83 8.03,-9.61 0,-2 -0.16,-2.05 -0.16,-2.55 0,-0.5 0.55,-0.5 0.75,-0.5 0.64,0 0.64,0.11 0.89,1 z"
           inkscape:connector-curvature="0"
           style="fill:#000000;stroke-width:0" /><path
           id="path13776"
           d="m 597.16,394.25 0,0.02 -0.01,0.03 0,0.01 0,0.02 0,0.01 -0.01,0.02 0,0.01 -0.01,0.02 -0.01,0.02 -0.01,0.02 -0.01,0.02 -0.01,0.03 -0.02,0.02 -0.02,0.03 -0.02,0.03 -0.02,0.03 -0.03,0.03 -0.03,0.04 -0.02,0.02 -0.01,0.02 -0.02,0.02 -0.02,0.02 -0.02,0.02 -0.02,0.03 -0.02,0.02 -0.02,0.02 -0.02,0.03 -0.03,0.02 -0.02,0.03 -0.03,0.03 -0.02,0.03 -0.03,0.03 -0.03,0.03 -0.03,0.03 -0.03,0.03 -0.03,0.03 -0.04,0.04 -0.03,0.03 -0.03,0.04 -0.04,0.03 -0.04,0.04 -0.04,0.04 c -6.22,6.28 -7.81,15.69 -7.81,23.31 0,8.67 1.89,17.35 8.02,23.56 0.64,0.61 0.64,0.71 0.64,0.86 0,0.35 -0.19,0.49 -0.49,0.49 -0.5,0 -4.98,-3.38 -7.92,-9.7 -2.55,-5.49 -3.14,-11.02 -3.14,-15.21 0,-3.89 0.55,-9.9 3.28,-15.54 2.99,-6.13 7.28,-9.36 7.78,-9.36 0.3,0 0.49,0.14 0.49,0.5 z"
           inkscape:connector-curvature="0"
           style="fill:#000000;stroke-width:0" /><path
           id="path13778"
           d="m 629.74,434.54 0.69,0.71 c 1.5,1.5 3.14,3.18 6.53,3.43 0.54,0.05 1,0.05 1,0.96 0,0.39 -0.25,0.59 -0.66,0.59 -1.3,0 -2.73,-0.16 -4.08,-0.16 -1.64,0 -3.39,0.16 -4.98,0.16 -0.3,0 -0.96,0 -0.96,-0.95 0,-0.55 0.5,-0.6 0.75,-0.6 0.35,0 1.8,-0.09 1.8,-1.14 0,-0.86 -1.14,-2.14 -1.34,-2.39 l -11.56,-13.31 -5.49,14.8 c -0.29,0.7 -0.29,0.79 -0.29,0.84 0,1.2 2.43,1.2 2.93,1.2 0.7,0 1.2,0 1.2,1 0,0.55 -0.59,0.55 -0.75,0.55 -1.38,0 -4.87,-0.16 -6.28,-0.16 -1.23,0 -4.32,0.16 -5.57,0.16 -0.3,0 -0.94,0 -0.94,-1 0,-0.55 0.48,-0.55 1.14,-0.55 2.98,0 3.19,-0.45 3.64,-1.68 l 6.13,-16.41 c 0.04,-0.14 0.2,-0.69 0.2,-0.84 0,-0.14 -2,-8.18 -2.25,-9.07 -0.64,-2.73 -0.69,-2.89 -4.69,-2.93 -0.94,0 -1.34,0 -1.34,-1 0,-0.55 0.61,-0.55 0.7,-0.55 1.39,0 4.88,0.16 6.28,0.16 1.39,0 4.98,-0.16 6.38,-0.16 0.34,0 0.93,0 0.93,1 0,0.55 -0.43,0.55 -1.39,0.55 -0.09,0 -1.04,0 -1.89,0.09 -1.05,0.11 -1.34,0.2 -1.34,0.8 0,0.36 0.45,2.09 0.7,3.14 l 1.74,7.03 c 0.25,0.94 0.29,1.09 0.7,1.55 z"
           inkscape:connector-curvature="0"
           style="fill:#000000;stroke-width:0" /><path
           id="path13780"
           d="m 654.46,418.65 0,0.37 -0.01,0.39 -0.01,0.39 -0.01,0.41 -0.04,0.84 -0.06,0.88 -0.08,0.92 -0.11,0.95 -0.13,0.97 -0.17,1.01 -0.19,1.02 -0.23,1.03 -0.27,1.05 -0.31,1.06 -0.35,1.07 -0.39,1.07 -0.21,0.53 -0.23,0.53 -0.23,0.53 -0.25,0.53 c -2.99,6.12 -7.27,9.36 -7.77,9.36 -0.3,0 -0.5,-0.19 -0.5,-0.49 0,-0.15 0,-0.25 0.94,-1.15 4.89,-4.92 7.73,-12.85 7.73,-23.27 0,-8.51 -1.84,-17.28 -8.03,-23.56 -0.64,-0.59 -0.64,-0.7 -0.64,-0.84 0,-0.3 0.2,-0.5 0.5,-0.5 0.5,0 4.97,3.39 7.92,9.71 2.53,5.47 3.13,11 3.13,15.19 z"
           inkscape:connector-curvature="0"
           style="fill:#000000;stroke-width:0" /></g>    </g>
    <g
       id="g14060"
       transform="matrix(0.8,0,0,0.8,63.340543,-97.229937)">
      <g
         id="g14062"
         transform="matrix(1.0629921,0,0,-1.0629921,-186.02362,789.27165)"
         xml:space="preserve"
         stroke-miterlimit="10.433"
         font-style="normal"
         font-variant="normal"
         font-weight="normal"
         font-stretch="normal"
         font-size-adjust="none"
         letter-spacing="normal"
         word-spacing="normal"
         style="font-style:normal;font-variant:normal;font-weight:normal;font-stretch:normal;letter-spacing:normal;word-spacing:normal;text-anchor:start;fill:none;stroke:#000000;stroke-linecap:butt;stroke-linejoin:miter;stroke-miterlimit:10.43299961;stroke-opacity:1;stroke-dasharray:none;stroke-dashoffset:0"><path
           d="m 470.36,417.46 0.15,0.01 0.16,0 0.15,0 0.07,0 0.08,0.01 0.07,0 0.07,0.01 0.07,0.01 0.07,0.01 0.07,0.01 0.07,0.02 0.06,0.01 0.06,0.02 0.06,0.02 0.06,0.03 0.06,0.02 0.05,0.03 0.05,0.03 0.04,0.04 0.04,0.04 0.04,0.04 0.04,0.05 0.01,0.02 0.02,0.03 0.01,0.02 0.01,0.03 0.02,0.03 0.01,0.03 0,0.03 0.01,0.03 0.01,0.04 0.01,0.03 0,0.04 0,0.03 0.01,0.04 0,0.04 c 0,0.69 -0.61,0.69 -1.46,0.69 h -8.06 c 1.19,4.23 3.99,7.12 8.52,7.12 h 1.54 c 0.85,0 1.64,0 1.64,0.86 0,0.69 -0.65,0.69 -1.5,0.69 h -1.73 c -6.48,0 -13.16,-4.99 -13.16,-12.6 0,-5.48 3.74,-9.42 9.02,-9.42 3.23,0 6.48,1.99 6.48,2.55 0,0.14 -0.06,0.69 -0.5,0.69 -0.11,0 -0.2,0 -0.65,-0.3 -1.55,-1 -3.39,-1.84 -5.24,-1.84 -2.89,0 -5.37,2.09 -5.37,6.48 0,1.73 0.4,3.63 0.54,4.23 z"
           id="path14064"
           inkscape:connector-curvature="0"
           style="fill:#000000;stroke-width:0" /><path
           d="m 499.3,418.39 0.25,0.25 0.26,0.25 0.12,0.12 0.13,0.12 0.13,0.12 0.14,0.12 0.13,0.11 0.13,0.11 0.14,0.12 0.14,0.1 0.14,0.11 0.14,0.11 0.14,0.1 0.14,0.1 c 1.42,0.97 2.72,1.05 3.17,1.08 0.38,0.03 0.8,0.03 0.8,0.76 0,0.25 -0.2,0.49 -0.49,0.49 -0.87,0 -1.92,-0.14 -2.82,-0.14 -1.11,0 -2.58,0.14 -3.63,0.14 -0.17,0 -0.69,0 -0.69,-0.77 0,-0.45 0.46,-0.48 0.63,-0.48 1.01,-0.08 1.01,-0.45 1.01,-0.67 0,-0.32 -0.21,-0.58 -0.45,-0.91 -0.22,-0.31 -0.39,-0.55 -0.59,-0.77 l -8.72,-9.09 -4.6,10.22 c -0.25,0.48 -0.25,0.55 -0.25,0.59 0,0.63 1.68,0.63 1.9,0.63 0.45,0 0.9,0 0.9,0.76 0,0.04 0,0.49 -0.56,0.49 -1.05,0 -3.63,-0.14 -4.67,-0.14 -0.88,0 -3.1,0.14 -3.97,0.14 -0.28,0 -0.7,-0.11 -0.7,-0.77 0,-0.48 0.45,-0.48 0.95,-0.48 2.01,0 2.15,-0.31 2.5,-1.08 l 5.4,-11.92 -1.57,-6.38 c -0.46,-1.78 -0.49,-1.87 -3.21,-1.92 -0.59,0 -1.04,0 -1.04,-0.73 0,-0.35 0.25,-0.52 0.56,-0.52 0.66,0 1.47,0.11 2.16,0.11 0.67,0 1.67,0.03 2.29,0.03 0.71,0 1.5,-0.03 2.24,-0.03 0.73,0 1.61,-0.11 2.34,-0.11 0.2,0 0.77,0 0.77,0.77 0,0.48 -0.43,0.48 -1.19,0.48 -0.56,0 -0.7,0 -1.33,0.08 -0.66,0.06 -0.77,0.14 -0.77,0.48 0,0.21 0.43,1.88 0.66,2.83 0.28,1.11 1.02,4.14 1.09,4.28 0.13,0.52 0.13,0.6 0.49,0.94 z"
           id="path14066"
           inkscape:connector-curvature="0"
           style="fill:#000000;stroke-width:0" /></g>    </g>
    <g
       id="g14354"
       transform="matrix(0.8,0,0,0.8,44.791053,68.613528)">
      <g
         word-spacing="normal"
         letter-spacing="normal"
         font-size-adjust="none"
         font-stretch="normal"
         font-weight="normal"
         font-variant="normal"
         font-style="normal"
         stroke-miterlimit="10.433"
         xml:space="preserve"
         transform="matrix(1.0629921,0,0,-1.0629921,-186.02362,789.27165)"
         id="g14356"
         style="font-style:normal;font-variant:normal;font-weight:normal;font-stretch:normal;letter-spacing:normal;word-spacing:normal;text-anchor:start;fill:none;stroke:#000000;stroke-linecap:butt;stroke-linejoin:miter;stroke-miterlimit:10.43299961;stroke-opacity:1;stroke-dasharray:none;stroke-dashoffset:0"><path
           id="path14358"
           d="m 470.16,438.09 0,0.05 0,0.06 0,0.05 0,0.05 0,0.05 0,0.05 0,0.04 0,0.05 0,0.04 0,0.04 -0.01,0.04 0,0.04 0,0.04 0,0.03 0,0.04 -0.01,0.03 -0.01,0.07 0,0.06 -0.02,0.05 -0.01,0.05 -0.02,0.05 -0.02,0.04 -0.02,0.04 -0.02,0.03 -0.03,0.03 -0.03,0.03 -0.04,0.03 -0.04,0.02 -0.04,0.02 -0.03,0.01 -0.02,0.01 -0.03,0 -0.02,0.01 -0.03,0.01 -0.03,0 -0.03,0.01 -0.03,0 -0.04,0.01 -0.03,0 -0.04,0 -0.03,0.01 -0.04,0 -0.04,0 -0.05,0 -0.04,0 -0.04,0 -0.05,0.01 -0.05,0 -0.05,0 -0.05,0 -0.05,0 c -3.09,-3.19 -7.47,-3.19 -9.06,-3.19 v -1.55 c 1,0 3.93,0 6.51,1.3 v -25.81 c 0,-1.8 -0.14,-2.39 -4.62,-2.39 h -1.6 v -1.55 c 1.75,0.16 6.08,0.16 8.07,0.16 2,0 6.32,0 8.07,-0.16 v 1.55 h -1.59 c -4.48,0 -4.64,0.54 -4.64,2.39 z"
           inkscape:connector-curvature="0"
           style="fill:#000000;stroke-width:0" /><path
           id="path14360"
           d="m 509.86,421.25 -0.01,0.01 0,0.02 0,0.02 0,0.01 0,0.02 -0.01,0.02 0,0.02 -0.01,0.02 0,0.02 -0.01,0.02 -0.01,0.02 -0.01,0.01 -0.01,0.02 -0.01,0.02 -0.01,0.02 -0.01,0.02 -0.02,0.01 -0.01,0.02 -0.02,0.02 -0.01,0.01 -0.02,0.02 -0.02,0.01 -0.02,0.01 -0.02,0.01 -0.02,0.01 -0.03,0.01 -0.02,0.01 -0.03,0.01 -0.01,0 -0.02,0 -0.01,0 -0.02,0.01 -0.01,0 -0.02,0 -0.01,0 -0.02,0 c -0.25,0 -0.31,-0.08 -0.62,-0.42 l -2.55,-2.69 c -0.31,0.42 -2.27,3.11 -6.55,3.11 -8.47,0 -16.76,-7.5 -16.76,-15.38 0,-5.39 4.11,-9.82 10.79,-9.82 3.08,0 6.32,0.81 8.13,2.76 0.34,-0.76 1.3,-2.03 1.7,-2.03 0.32,0 0.39,0.14 0.57,0.88 l 0.65,2.68 c 0.17,0.63 0.67,2.72 0.77,3.13 0.42,1.58 0.45,1.61 2.51,1.64 0.25,0 0.77,0 0.77,0.73 0,0.35 -0.25,0.52 -0.52,0.52 -1.15,0 -2.62,-0.13 -3.84,-0.13 -0.86,0 -2.02,0 -2.89,0.03 -0.88,0.04 -1.88,0.1 -2.75,0.1 -0.25,0 -0.77,0 -0.77,-0.77 0,-0.48 0.38,-0.48 1.25,-0.48 0.67,0 1.36,0 2.03,-0.06 1.11,-0.11 1.14,-0.25 1.14,-0.68 0,-0.14 0,-0.2 -0.23,-1.11 -0.25,-0.96 -0.64,-2.54 -0.78,-2.89 -1,-2.12 -4.25,-3.06 -6.97,-3.06 -3.48,0 -8.05,1.67 -8.05,7.56 0,3.72 1.75,8.39 4.33,11 3.6,3.57 7.31,4.11 9.27,4.11 4.04,0 6.4,-2.92 6.4,-6.82 0,-0.97 -0.09,-1.22 -0.09,-1.43 0,-0.45 0.45,-0.45 0.62,-0.45 0.57,0 0.57,0.11 0.74,0.77 z"
           inkscape:connector-curvature="0"
           style="fill:#000000;stroke-width:0" /><path
           id="path14362"
           d="m 523.81,423.34 -0.6,-0.45 -0.58,-0.46 -0.56,-0.47 -0.52,-0.49 -0.5,-0.5 -0.47,-0.51 -0.45,-0.53 -0.42,-0.53 -0.4,-0.54 -0.38,-0.55 -0.35,-0.56 -0.33,-0.56 -0.31,-0.57 -0.28,-0.57 -0.27,-0.58 -0.25,-0.58 -0.23,-0.58 -0.21,-0.58 -0.19,-0.59 -0.17,-0.58 -0.15,-0.58 -0.14,-0.58 -0.13,-0.57 -0.11,-0.57 -0.09,-0.57 -0.08,-0.56 -0.06,-0.55 -0.05,-0.55 -0.04,-0.53 -0.03,-0.53 -0.02,-0.52 0,-0.5 c 0,-4.92 1.47,-12.55 8.37,-17.42 0.28,0 0.69,0 0.69,0.4 0,0.22 -0.09,0.28 -0.34,0.53 -4.64,4.19 -6.35,10.11 -6.35,16.46 0,9.4 3.6,14 6.46,16.58 0.14,0.14 0.23,0.25 0.23,0.42 0,0.42 -0.41,0.42 -0.69,0.42 z"
           inkscape:connector-curvature="0"
           style="fill:#000000;stroke-width:0" /><path
           id="path14364"
           d="m 550.66,416.82 0.25,0.26 0.25,0.25 0.13,0.12 0.13,0.12 0.13,0.12 0.13,0.11 0.13,0.12 0.14,0.11 0.14,0.11 0.13,0.11 0.14,0.11 0.14,0.1 0.14,0.11 0.14,0.1 c 1.43,0.97 2.72,1.04 3.18,1.08 0.37,0.03 0.79,0.03 0.79,0.76 0,0.25 -0.2,0.49 -0.48,0.49 -0.87,0 -1.92,-0.14 -2.83,-0.14 -1.11,0 -2.58,0.14 -3.62,0.14 -0.17,0 -0.69,0 -0.69,-0.77 0,-0.45 0.45,-0.48 0.62,-0.48 1.02,-0.08 1.02,-0.46 1.02,-0.68 0,-0.31 -0.22,-0.57 -0.45,-0.9 -0.22,-0.31 -0.39,-0.55 -0.6,-0.77 l -8.72,-9.09 -4.59,10.22 c -0.25,0.48 -0.25,0.54 -0.25,0.59 0,0.63 1.67,0.63 1.89,0.63 0.45,0 0.91,0 0.91,0.76 0,0.03 0,0.49 -0.56,0.49 -1.05,0 -3.63,-0.14 -4.68,-0.14 -0.87,0 -3.09,0.14 -3.97,0.14 -0.28,0 -0.7,-0.11 -0.7,-0.77 0,-0.48 0.45,-0.48 0.95,-0.48 2.02,0 2.16,-0.32 2.5,-1.08 l 5.41,-11.92 -1.58,-6.38 c -0.45,-1.78 -0.48,-1.87 -3.2,-1.92 -0.6,0 -1.05,0 -1.05,-0.74 0,-0.34 0.25,-0.51 0.57,-0.51 0.65,0 1.46,0.11 2.15,0.11 0.67,0 1.67,0.03 2.3,0.03 0.7,0 1.5,-0.03 2.23,-0.03 0.74,0 1.61,-0.11 2.35,-0.11 0.2,0 0.76,0 0.76,0.76 0,0.49 -0.42,0.49 -1.19,0.49 -0.56,0 -0.7,0 -1.32,0.08 -0.66,0.06 -0.77,0.14 -0.77,0.48 0,0.2 0.42,1.88 0.66,2.83 0.28,1.11 1.01,4.14 1.09,4.28 0.12,0.52 0.12,0.59 0.49,0.94 z"
           inkscape:connector-curvature="0"
           style="fill:#000000;stroke-width:0" /><path
           id="path14366"
           d="m 562.22,423.34 -0.03,0 -0.02,0 -0.03,0 -0.03,0 -0.02,0 -0.03,0 -0.03,0 -0.03,-0.01 -0.02,0 -0.03,0 -0.03,-0.01 -0.03,0 -0.02,-0.01 -0.03,-0.01 -0.03,0 -0.02,-0.01 -0.03,-0.01 -0.02,-0.02 -0.03,-0.01 -0.02,-0.01 -0.02,-0.02 -0.02,-0.02 -0.02,-0.02 -0.01,-0.01 -0.01,-0.01 -0.01,-0.01 0,-0.01 -0.01,-0.01 -0.01,-0.02 0,-0.01 -0.01,-0.01 0,-0.02 -0.01,-0.01 0,-0.02 -0.01,-0.01 0,-0.02 0,-0.02 0,-0.02 -0.01,-0.01 0,-0.02 0,-0.02 c 0,-0.17 0.11,-0.28 0.31,-0.53 3,-2.75 6.35,-7.46 6.35,-16.44 0,-7.28 -2.27,-12.8 -6.03,-16.2 -0.58,-0.6 -0.63,-0.63 -0.63,-0.82 0,-0.17 0.11,-0.4 0.46,-0.4 0.42,0 3.73,2.29 6.03,6.65 1.53,2.89 2.54,6.66 2.54,10.74 0,4.9 -1.47,12.53 -8.35,17.42 z"
           inkscape:connector-curvature="0"
           style="fill:#000000;stroke-width:0" /></g>    </g>
  </g>
</svg>
