<?xml version="1.0" encoding="UTF-8" standalone="no"?>
<!-- Created with Inkscape (http://www.inkscape.org/) -->

<svg
   xmlns:dc="http://purl.org/dc/elements/1.1/"
   xmlns:cc="http://creativecommons.org/ns#"
   xmlns:rdf="http://www.w3.org/1999/02/22-rdf-syntax-ns#"
   xmlns:svg="http://www.w3.org/2000/svg"
   xmlns="http://www.w3.org/2000/svg"
   version="1.1"
   width="210mm"
   height="297mm"
   id="svg5803">
  <defs
     id="defs5805">
    <marker
       refX="0"
       refY="0"
       orient="auto"
       id="Arrow1Lstart"
       style="overflow:visible">
      <path
         d="M 0,0 5,-5 -12.5,0 5,5 0,0 z"
         transform="matrix(0.8,0,0,0.8,10,0)"
         id="path4407"
         style="fill-rule:evenodd;stroke:#000000;stroke-width:1pt" />
    </marker>
    <marker
       refX="0"
       refY="0"
       orient="auto"
       id="Arrow1Lend"
       style="overflow:visible">
      <path
         d="M 0,0 5,-5 -12.5,0 5,5 0,0 z"
         transform="matrix(-0.8,0,0,-0.8,-10,0)"
         id="path3804"
         style="fill-rule:evenodd;stroke:#000000;stroke-width:1pt" />
    </marker>
    <marker
       refX="0"
       refY="0"
       orient="auto"
       id="marker5787"
       style="overflow:visible">
      <path
         d="M 0,0 5,-5 -12.5,0 5,5 0,0 z"
         transform="matrix(-0.8,0,0,-0.8,-10,0)"
         id="path5789"
         style="fill-rule:evenodd;stroke:#000000;stroke-width:1pt" />
    </marker>
  </defs>
  <metadata
     id="metadata5808">
    <rdf:RDF>
      <cc:Work
         rdf:about="">
        <dc:format>image/svg+xml</dc:format>
        <dc:type
           rdf:resource="http://purl.org/dc/dcmitype/StillImage" />
        <dc:title></dc:title>
      </cc:Work>
    </rdf:RDF>
  </metadata>
  <g
     id="layer1">
    <path
       d="m 282.53541,396.70575 a 54.285713,18.57143 0 1 1 49.69393,-0.2789"
       id="path3027"
       style="fill:none;stroke:#000000;stroke-width:1;stroke-miterlimit:4;stroke-dasharray:none;stroke-dashoffset:0;marker-start:url(#Arrow1Lstart);marker-mid:none;marker-end:none" />
    <path
       d="m 497.47957,742.25313 -190.33671,0 -190.33672,0 95.16836,-164.83643 95.16836,-164.83643 95.16835,164.83643 z"
       id="path2987"
       style="fill:none;stroke:#000000;stroke-width:2;stroke-miterlimit:4;stroke-dasharray:none;stroke-dashoffset:0" />
    <path
       d="m 307.14286,349.50502 0,471.42858"
       id="path2989"
       style="fill:none;stroke:#000000;stroke-width:1;stroke-linecap:butt;stroke-linejoin:miter;stroke-miterlimit:4;stroke-opacity:1;stroke-dasharray:6, 6;stroke-dashoffset:0" />
    <path
       d="m 530.00001,663.79074 c 0,0 -1.64745,-55.58792 -52.85714,-140.00001 -53.12272,-87.56545 -88.57143,-101.42856 -88.57143,-101.42856"
       id="path4241"
       style="fill:none;stroke:#000000;stroke-width:1px;stroke-linecap:butt;stroke-linejoin:miter;stroke-opacity:1;marker-end:url(#Arrow1Lend)" />
    <g
       transform="translate(54.28571,4.2857)"
       id="g4436">
      <g
         transform="matrix(1.0629921,0,0,-1.0629921,-186.02362,789.27165)"
         id="content"
         xml:space="preserve"
         style="font-style:normal;font-variant:normal;font-weight:normal;font-stretch:normal;letter-spacing:normal;word-spacing:normal;text-anchor:start;fill:none;stroke:#000000;stroke-linecap:butt;stroke-linejoin:miter;stroke-miterlimit:10.43299961;stroke-opacity:1;stroke-dasharray:none;stroke-dashoffset:0"><path
           d="m 479.29,417.96 -0.01,0.37 -0.01,0.35 -0.02,0.35 -0.02,0.34 -0.06,0.65 -0.09,0.63 -0.11,0.59 -0.14,0.57 -0.15,0.54 -0.18,0.51 -0.19,0.49 -0.21,0.45 -0.23,0.44 -0.25,0.4 -0.26,0.38 -0.27,0.36 -0.29,0.33 -0.3,0.31 -0.31,0.29 -0.31,0.26 -0.33,0.24 -0.34,0.22 -0.34,0.2 -0.35,0.18 -0.35,0.16 -0.36,0.14 -0.35,0.12 -0.36,0.11 -0.37,0.09 -0.36,0.06 -0.36,0.06 -0.35,0.04 -0.35,0.02 -0.35,0 -0.05,-1.09 c 4.94,0 4.94,-6.53 4.94,-10.41 0,-1.84 0,-4.73 0.09,-5.57 h 0 c -4.37,-3.85 -8.22,-4.39 -10.2,-4.39 -3,0 -4.49,2.25 -4.49,5.43 0,2.44 1.3,7.82 2.89,10.36 2.33,3.64 5.04,4.58 6.77,4.58 l 0.05,1.09 c -6.82,0 -13.39,-7.12 -13.39,-14.14 0,-4.64 2.98,-8.42 8.06,-8.42 3.14,0 6.73,1.14 10.51,4.19 0.66,-2.64 2.3,-4.19 4.54,-4.19 2.64,0 4.18,2.74 4.18,3.53 0,0.36 -0.29,0.5 -0.59,0.5 -0.36,0 -0.5,-0.14 -0.66,-0.5 -0.89,-2.43 -2.68,-2.43 -2.78,-2.43 -1.54,0 -1.54,3.89 -1.54,5.07 0,1.05 0,1.16 0.5,1.75 4.68,5.88 5.73,11.66 5.73,11.71 0,0.11 -0.06,0.5 -0.61,0.5 -0.5,0 -0.5,-0.14 -0.75,-1.05 -0.89,-3.14 -2.53,-6.92 -4.87,-9.86 z"
           id="path4439"
           style="fill:#000000;stroke-width:0" /></g>    </g>
    <g
       transform="translate(194.28571,158.57141)"
       id="g4467">
      <g
         transform="matrix(1.0629921,0,0,-1.0629921,-186.02362,789.27165)"
         id="g4469"
         xml:space="preserve"
         style="font-style:normal;font-variant:normal;font-weight:normal;font-stretch:normal;letter-spacing:normal;word-spacing:normal;text-anchor:start;fill:none;stroke:#000000;stroke-linecap:butt;stroke-linejoin:miter;stroke-miterlimit:10.43299961;stroke-opacity:1;stroke-dasharray:none;stroke-dashoffset:0"><path
           d="m 484.16,434.54 -0.01,0.35 -0.02,0.35 -0.04,0.33 -0.06,0.34 -0.06,0.33 -0.09,0.32 -0.1,0.32 -0.11,0.31 -0.13,0.3 -0.14,0.29 -0.15,0.29 -0.17,0.27 -0.18,0.27 -0.19,0.26 -0.2,0.25 -0.22,0.24 -0.23,0.22 -0.24,0.22 -0.25,0.2 -0.26,0.2 -0.28,0.17 -0.28,0.17 -0.29,0.15 -0.31,0.14 -0.31,0.12 -0.32,0.11 -0.34,0.09 -0.34,0.08 -0.35,0.06 -0.35,0.05 -0.37,0.02 -0.38,0.01 c -2.89,0 -4.28,-0.8 -6.03,-2.09 -2.73,-1.99 -5.48,-6.83 -6.42,-10.61 l -7.92,-31.64 c -0.06,-0.19 0.19,-0.5 0.59,-0.5 0.39,0 0.55,0.11 0.6,0.25 l 3.48,13.75 c 0.95,-2.99 3.14,-4.83 6.78,-4.83 l -0.15,1.09 c -3.78,0 -5.68,2.89 -5.68,6.44 0,0.48 0,1.23 0.25,2.19 l 3.19,12.61 c 1.1,4.28 4.69,12.2 10.66,12.2 2.89,0 4.64,-1.55 4.64,-4.53 h 0 c 0,-3.5 -1.89,-7.08 -4.49,-8.63 -1.34,0.5 -2.34,0.6 -3.84,0.6 -1.05,0 -3.83,0.04 -3.83,-1.6 -0.04,-1.39 2.53,-1.23 3.44,-1.23 l 0.14,1.09 c -0.69,0 -1.69,-0.06 -2.19,0.19 0.11,0.5 1.89,0.41 2.44,0.41 1.05,0 1.5,0 2.14,-0.25 h 0 c -0.64,-0.25 -1.19,-0.35 -2.39,-0.35 l -0.14,-1.09 c 1.84,0 2.59,0.05 4.08,0.64 1.89,-1.8 2.14,-3.34 2.2,-5.62 0.1,-2.9 -1.11,-6.63 -2.5,-8.58 -1.94,-2.69 -5.28,-4.49 -8.12,-4.49 l 0.15,-1.09 c 3.64,0 7.38,1.75 9.61,3.94 2.39,2.29 4,5.48 4,9.17 0,3.58 -1.84,6.17 -3.64,7.42 2.89,1.64 5.72,4.73 5.72,8.31 z"
           id="path4471"
           style="fill:#000000;stroke-width:0" /></g>    </g>
    <rect
       width="605.71429"
       height="568.57147"
       x="19.999996"
       y="290.93359"
       id="rect4488"
       style="fill:none;stroke:none" />
  </g>
</svg>
