<?xml version="1.0" encoding="UTF-8" standalone="no"?>
<!-- Created with Inkscape (http://www.inkscape.org/) -->

<svg
   xmlns:dc="http://purl.org/dc/elements/1.1/"
   xmlns:cc="http://creativecommons.org/ns#"
   xmlns:rdf="http://www.w3.org/1999/02/22-rdf-syntax-ns#"
   xmlns:svg="http://www.w3.org/2000/svg"
   xmlns="http://www.w3.org/2000/svg"
   xmlns:sodipodi="http://sodipodi.sourceforge.net/DTD/sodipodi-0.dtd"
   xmlns:inkscape="http://www.inkscape.org/namespaces/inkscape"
   width="1052.3622"
   height="744.09448"
   id="svg3114"
   version="1.1"
   inkscape:version="0.48.3.1 r9886"
   sodipodi:docname="discrete_category.svg"
   inkscape:export-filename="/home/koichi/work/category-seminar/fig/discrete_category.png"
   inkscape:export-xdpi="90"
   inkscape:export-ydpi="90">
  <defs
     id="defs3116">
    <marker
       inkscape:stockid="Arrow1Lend"
       orient="auto"
       refY="0"
       refX="0"
       id="Arrow1Lend"
       style="overflow:visible">
      <path
         inkscape:connector-curvature="0"
         id="path4016"
         d="M 0,0 5,-5 -12.5,0 5,5 0,0 z"
         style="fill-rule:evenodd;stroke:#000000;stroke-width:1pt"
         transform="matrix(-0.8,0,0,-0.8,-10,0)" />
    </marker>
    <marker
       inkscape:stockid="Arrow1Lend"
       orient="auto"
       refY="0"
       refX="0"
       id="marker3086"
       style="overflow:visible">
      <path
         inkscape:connector-curvature="0"
         id="path3088"
         d="M 0,0 5,-5 -12.5,0 5,5 0,0 z"
         style="fill-rule:evenodd;stroke:#000000;stroke-width:1pt"
         transform="matrix(-0.8,0,0,-0.8,-10,0)" />
    </marker>
    <marker
       inkscape:stockid="Arrow1Lend"
       orient="auto"
       refY="0"
       refX="0"
       id="marker3090"
       style="overflow:visible">
      <path
         inkscape:connector-curvature="0"
         id="path3092"
         d="M 0,0 5,-5 -12.5,0 5,5 0,0 z"
         style="fill-rule:evenodd;stroke:#000000;stroke-width:1pt"
         transform="matrix(-0.8,0,0,-0.8,-10,0)" />
    </marker>
    <marker
       inkscape:stockid="Arrow1Lend"
       orient="auto"
       refY="0"
       refX="0"
       id="marker3094"
       style="overflow:visible">
      <path
         inkscape:connector-curvature="0"
         id="path3096"
         d="M 0,0 5,-5 -12.5,0 5,5 0,0 z"
         style="fill-rule:evenodd;stroke:#000000;stroke-width:1pt"
         transform="matrix(-0.8,0,0,-0.8,-10,0)" />
    </marker>
    <marker
       inkscape:stockid="Arrow1Lend"
       orient="auto"
       refY="0"
       refX="0"
       id="marker3098"
       style="overflow:visible">
      <path
         inkscape:connector-curvature="0"
         id="path3100"
         d="M 0,0 5,-5 -12.5,0 5,5 0,0 z"
         style="fill-rule:evenodd;stroke:#000000;stroke-width:1pt"
         transform="matrix(-0.8,0,0,-0.8,-10,0)" />
    </marker>
  </defs>
  <sodipodi:namedview
     id="base"
     pagecolor="#ffffff"
     bordercolor="#666666"
     borderopacity="1.0"
     inkscape:pageopacity="0.0"
     inkscape:pageshadow="2"
     inkscape:zoom="0.35"
     inkscape:cx="29.285714"
     inkscape:cy="540"
     inkscape:document-units="px"
     inkscape:current-layer="layer1"
     showgrid="false"
     inkscape:window-width="1920"
     inkscape:window-height="1058"
     inkscape:window-x="0"
     inkscape:window-y="22"
     inkscape:window-maximized="0" />
  <metadata
     id="metadata3119">
    <rdf:RDF>
      <cc:Work
         rdf:about="">
        <dc:format>image/svg+xml</dc:format>
        <dc:type
           rdf:resource="http://purl.org/dc/dcmitype/StillImage" />
        <dc:title></dc:title>
      </cc:Work>
    </rdf:RDF>
  </metadata>
  <g
     inkscape:label="レイヤー 1"
     inkscape:groupmode="layer"
     id="layer1"
     transform="translate(0,-308.2677)">
    <rect
       style="fill:none;stroke:none"
       id="rect2985"
       width="1051.5688"
       height="743.47229"
       x="0.39666504"
       y="308.5788" />
    <path
       style="fill:none;stroke:#000000;stroke-width:1px;stroke-linecap:butt;stroke-linejoin:miter;stroke-opacity:1"
       d="M 568.17257,976.9922 C 401.08167,1003.6854 215.1314,892.01424 211.33502,712.05029 174.8583,562.17194 270.0124,401.02333 425.31744,376.77254 580.61489,335.70517 761.13931,411.89473 824.05907,563.479 917.01089,709.72181 835.99374,910.91423 665.92355,948.95056 634.20705,961.0452 601.387,970.0897 568.17257,976.9922 z"
       id="path3099"
       inkscape:connector-curvature="0" />
    <path
       sodipodi:type="arc"
       style="fill:#000000;stroke:none"
       id="path3127"
       sodipodi:cx="43.436558"
       sodipodi:cy="276.39386"
       sodipodi:rx="13.131982"
       sodipodi:ry="13.131982"
       d="m 37.469904,264.69566 a 13.131982,13.131982 0 1 1 -0.05593,0.0287"
       transform="translate(331.79688,316.74042)"
       sodipodi:start="4.2407348"
       sodipodi:end="10.519133"
       sodipodi:open="true" />
    <path
       sodipodi:type="arc"
       style="fill:#000000;stroke:none"
       id="path3127-9"
       sodipodi:cx="43.436558"
       sodipodi:cy="276.39386"
       sodipodi:rx="13.131982"
       sodipodi:ry="13.131982"
       d="m 37.469904,264.69566 a 13.131982,13.131982 0 1 1 -0.05593,0.0287"
       transform="translate(443.92377,560.18717)"
       sodipodi:start="4.2407348"
       sodipodi:end="10.519133"
       sodipodi:open="true" />
    <path
       sodipodi:type="arc"
       style="fill:#000000;stroke:none"
       id="path3127-9-9"
       sodipodi:cx="43.436558"
       sodipodi:cy="276.39386"
       sodipodi:rx="13.131982"
       sodipodi:ry="13.131982"
       d="m 37.469904,264.69566 a 13.131982,13.131982 0 1 1 -0.05593,0.0287"
       transform="translate(607.56849,305.62874)"
       sodipodi:start="4.2407348"
       sodipodi:end="10.519133"
       sodipodi:open="true" />
    <path
       sodipodi:type="arc"
       style="fill:#000000;stroke:none"
       id="path3127-9-9-2"
       sodipodi:cx="43.436558"
       sodipodi:cy="276.39386"
       sodipodi:rx="13.131982"
       sodipodi:ry="13.131982"
       d="m 37.469904,264.69566 a 13.131982,13.131982 0 1 1 -0.05593,0.0287"
       transform="translate(628.78169,434.92825)"
       sodipodi:start="4.2407348"
       sodipodi:end="10.519133"
       sodipodi:open="true" />
    <path
       sodipodi:type="arc"
       style="fill:#000000;stroke:none"
       id="path3127-1"
       sodipodi:cx="43.436558"
       sodipodi:cy="276.39386"
       sodipodi:rx="13.131982"
       sodipodi:ry="13.131982"
       d="m 37.469904,264.69566 a 13.131982,13.131982 0 1 1 -0.05593,0.0287"
       transform="translate(466.14713,386.44094)"
       sodipodi:start="4.2407348"
       sodipodi:end="10.519133"
       sodipodi:open="true" />
  </g>
</svg>
