<?xml version="1.0" encoding="UTF-8" standalone="no"?>
<!-- Created with Inkscape (http://www.inkscape.org/) -->

<svg
   xmlns:dc="http://purl.org/dc/elements/1.1/"
   xmlns:cc="http://creativecommons.org/ns#"
   xmlns:rdf="http://www.w3.org/1999/02/22-rdf-syntax-ns#"
   xmlns:svg="http://www.w3.org/2000/svg"
   xmlns="http://www.w3.org/2000/svg"
   version="1.1"
   width="210mm"
   height="297mm"
   id="svg3409">
  <defs
     id="defs3411">
    <marker
       refX="0"
       refY="0"
       orient="auto"
       id="Arrow1Lend"
       style="overflow:visible">
      <path
         d="M 0,0 5,-5 -12.5,0 5,5 0,0 z"
         transform="matrix(-0.8,0,0,-0.8,-10,0)"
         id="path6964"
         style="fill-rule:evenodd;stroke:#000000;stroke-width:1pt" />
    </marker>
    <marker
       refX="0"
       refY="0"
       orient="auto"
       id="marker3330"
       style="overflow:visible">
      <path
         d="M 0,0 5,-5 -12.5,0 5,5 0,0 z"
         transform="matrix(-0.8,0,0,-0.8,-10,0)"
         id="path3332"
         style="fill-rule:evenodd;stroke:#000000;stroke-width:1pt" />
    </marker>
    <marker
       refX="0"
       refY="0"
       orient="auto"
       id="marker3334"
       style="overflow:visible">
      <path
         d="M 0,0 5,-5 -12.5,0 5,5 0,0 z"
         transform="matrix(-0.8,0,0,-0.8,-10,0)"
         id="path3336"
         style="fill-rule:evenodd;stroke:#000000;stroke-width:1pt" />
    </marker>
    <marker
       refX="0"
       refY="0"
       orient="auto"
       id="marker3338"
       style="overflow:visible">
      <path
         d="M 0,0 5,-5 -12.5,0 5,5 0,0 z"
         transform="matrix(-0.8,0,0,-0.8,-10,0)"
         id="path3340"
         style="fill-rule:evenodd;stroke:#000000;stroke-width:1pt" />
    </marker>
    <marker
       refX="0"
       refY="0"
       orient="auto"
       id="marker3342"
       style="overflow:visible">
      <path
         d="M 0,0 5,-5 -12.5,0 5,5 0,0 z"
         transform="matrix(-0.8,0,0,-0.8,-10,0)"
         id="path3344"
         style="fill-rule:evenodd;stroke:#000000;stroke-width:1pt" />
    </marker>
    <marker
       refX="0"
       refY="0"
       orient="auto"
       id="Arrow1Lstart"
       style="overflow:visible">
      <path
         d="M 0,0 5,-5 -12.5,0 5,5 0,0 z"
         transform="matrix(0.8,0,0,0.8,10,0)"
         id="path6961"
         style="fill-rule:evenodd;stroke:#000000;stroke-width:1pt" />
    </marker>
    <marker
       refX="0"
       refY="0"
       orient="auto"
       id="marker3348"
       style="overflow:visible">
      <path
         d="M 0,0 5,-5 -12.5,0 5,5 0,0 z"
         transform="matrix(0.8,0,0,0.8,10,0)"
         id="path3350"
         style="fill-rule:evenodd;stroke:#000000;stroke-width:1pt" />
    </marker>
    <marker
       refX="0"
       refY="0"
       orient="auto"
       id="marker3352"
       style="overflow:visible">
      <path
         d="M 0,0 5,-5 -12.5,0 5,5 0,0 z"
         transform="matrix(0.8,0,0,0.8,10,0)"
         id="path3354"
         style="fill-rule:evenodd;stroke:#000000;stroke-width:1pt" />
    </marker>
    <marker
       refX="0"
       refY="0"
       orient="auto"
       id="marker3356"
       style="overflow:visible">
      <path
         d="M 0,0 5,-5 -12.5,0 5,5 0,0 z"
         transform="matrix(0.8,0,0,0.8,10,0)"
         id="path3358"
         style="fill-rule:evenodd;stroke:#000000;stroke-width:1pt" />
    </marker>
    <marker
       refX="0"
       refY="0"
       orient="auto"
       id="marker3360"
       style="overflow:visible">
      <path
         d="M 0,0 5,-5 -12.5,0 5,5 0,0 z"
         transform="matrix(0.8,0,0,0.8,10,0)"
         id="path3362"
         style="fill-rule:evenodd;stroke:#000000;stroke-width:1pt" />
    </marker>
    <marker
       refX="0"
       refY="0"
       orient="auto"
       id="marker3364"
       style="overflow:visible">
      <path
         d="M 0,0 5,-5 -12.5,0 5,5 0,0 z"
         transform="matrix(0.8,0,0,0.8,10,0)"
         id="path3366"
         style="fill-rule:evenodd;stroke:#000000;stroke-width:1pt" />
    </marker>
    <marker
       refX="0"
       refY="0"
       orient="auto"
       id="Arrow1Lend-0"
       style="overflow:visible">
      <path
         d="M 0,0 5,-5 -12.5,0 5,5 0,0 z"
         transform="matrix(-0.8,0,0,-0.8,-10,0)"
         id="path6964-0"
         style="fill-rule:evenodd;stroke:#000000;stroke-width:1pt" />
    </marker>
    <marker
       refX="0"
       refY="0"
       orient="auto"
       id="Arrow1Lend-2"
       style="overflow:visible">
      <path
         d="M 0,0 5,-5 -12.5,0 5,5 0,0 z"
         transform="matrix(-0.8,0,0,-0.8,-10,0)"
         id="path6964-7"
         style="fill-rule:evenodd;stroke:#000000;stroke-width:1pt" />
    </marker>
    <marker
       refX="0"
       refY="0"
       orient="auto"
       id="Arrow1Lstart-6"
       style="overflow:visible">
      <path
         d="M 0,0 5,-5 -12.5,0 5,5 0,0 z"
         transform="matrix(0.8,0,0,0.8,10,0)"
         id="path6961-2"
         style="fill-rule:evenodd;stroke:#000000;stroke-width:1pt" />
    </marker>
    <marker
       refX="0"
       refY="0"
       orient="auto"
       id="Arrow1Lstart-64"
       style="overflow:visible">
      <path
         d="M 0,0 5,-5 -12.5,0 5,5 0,0 z"
         transform="matrix(0.8,0,0,0.8,10,0)"
         id="path6961-6"
         style="fill-rule:evenodd;stroke:#000000;stroke-width:1pt" />
    </marker>
  </defs>
  <metadata
     id="metadata3414">
    <rdf:RDF>
      <cc:Work
         rdf:about="">
        <dc:format>image/svg+xml</dc:format>
        <dc:type
           rdf:resource="http://purl.org/dc/dcmitype/StillImage" />
        <dc:title></dc:title>
      </cc:Work>
    </rdf:RDF>
  </metadata>
  <g
     id="layer1">
    <g
       transform="translate(-196.86198,-155.20277)"
       id="g5781">
      <g
         transform="matrix(1.0629921,0,0,-1.0629921,-186.02362,789.27165)"
         id="g5783"
         xml:space="preserve"
         style="font-style:normal;font-variant:normal;font-weight:normal;font-stretch:normal;letter-spacing:normal;word-spacing:normal;text-anchor:start;fill:none;stroke:#000000;stroke-linecap:butt;stroke-linejoin:miter;stroke-miterlimit:10.43299961;stroke-opacity:1;stroke-dasharray:none;stroke-dashoffset:0"><path
           d="m 470.16,438.09 0,0.05 0,0.06 0,0.05 0,0.05 0,0.05 0,0.05 0,0.04 0,0.05 0,0.04 0,0.04 -0.01,0.04 0,0.04 0,0.04 0,0.03 0,0.04 -0.01,0.03 -0.01,0.07 0,0.06 -0.02,0.05 -0.01,0.05 -0.02,0.05 -0.02,0.04 -0.02,0.04 -0.02,0.03 -0.03,0.03 -0.03,0.03 -0.04,0.03 -0.04,0.02 -0.04,0.02 -0.03,0.01 -0.02,0.01 -0.03,0 -0.02,0.01 -0.03,0.01 -0.03,0 -0.03,0.01 -0.03,0 -0.04,0.01 -0.03,0 -0.04,0 -0.03,0.01 -0.04,0 -0.04,0 -0.05,0 -0.04,0 -0.04,0 -0.05,0.01 -0.05,0 -0.05,0 -0.05,0 -0.05,0 c -3.09,-3.19 -7.47,-3.19 -9.06,-3.19 v -1.55 c 1,0 3.93,0 6.51,1.3 v -25.81 c 0,-1.8 -0.14,-2.39 -4.62,-2.39 h -1.6 v -1.55 c 1.75,0.16 6.08,0.16 8.07,0.16 2,0 6.32,0 8.07,-0.16 v 1.55 h -1.59 c -4.48,0 -4.64,0.54 -4.64,2.39 z"
           id="path5785"
           style="fill:#000000;stroke-width:0" /></g>    </g>
    <g
       transform="translate(-120.32981,-155.20277)"
       id="g5807">
      <g
         transform="matrix(1.0629921,0,0,-1.0629921,-186.02362,789.27165)"
         id="g5809"
         xml:space="preserve"
         style="font-style:normal;font-variant:normal;font-weight:normal;font-stretch:normal;letter-spacing:normal;word-spacing:normal;text-anchor:start;fill:none;stroke:#000000;stroke-linecap:butt;stroke-linejoin:miter;stroke-miterlimit:10.43299961;stroke-opacity:1;stroke-dasharray:none;stroke-dashoffset:0"><path
           d="m 461.85,410.04 5.28,5.13 c 7.76,6.87 10.76,9.56 10.76,14.54 0,5.69 -4.48,9.68 -10.56,9.68 -5.64,0 -9.33,-4.6 -9.33,-9.03 0,-2.79 2.5,-2.79 2.64,-2.79 0.86,0 2.6,0.6 2.6,2.64 0,1.3 -0.89,2.6 -2.64,2.6 -0.39,0 -0.5,0 -0.64,-0.05 1.14,3.24 3.83,5.08 6.72,5.08 4.53,0 6.68,-4.05 6.68,-8.13 0,-3.98 -2.5,-7.92 -5.23,-11.01 l -9.56,-10.66 C 458,407.5 458,407.4 458,406.2 h 18.49 l 1.4,8.67 h -1.25 c -0.25,-1.5 -0.59,-3.69 -1.09,-4.44 -0.36,-0.39 -3.64,-0.39 -4.73,-0.39 z"
           id="path5811"
           style="fill:#000000;stroke-width:0" /></g>    </g>
    <g
       transform="translate(-44.04744,-155.7821)"
       id="g5839">
      <g
         transform="matrix(1.0629921,0,0,-1.0629921,-186.02362,789.27165)"
         id="g5841"
         xml:space="preserve"
         style="font-style:normal;font-variant:normal;font-weight:normal;font-stretch:normal;letter-spacing:normal;word-spacing:normal;text-anchor:start;fill:none;stroke:#000000;stroke-linecap:butt;stroke-linejoin:miter;stroke-miterlimit:10.43299961;stroke-opacity:1;stroke-dasharray:none;stroke-dashoffset:0"><path
           d="m 469.97,423.73 0.38,0.13 0.37,0.15 0.37,0.15 0.35,0.17 0.35,0.18 0.34,0.19 0.33,0.2 0.32,0.22 0.31,0.22 0.31,0.23 0.29,0.24 0.28,0.25 0.27,0.26 0.26,0.27 0.25,0.27 0.24,0.29 0.22,0.29 0.21,0.3 0.2,0.3 0.19,0.32 0.18,0.32 0.16,0.32 0.14,0.33 0.14,0.34 0.11,0.34 0.11,0.34 0.09,0.35 0.07,0.36 0.06,0.36 0.04,0.36 0.02,0.36 0.01,0.37 c 0,4.08 -4.39,6.88 -9.17,6.88 -5.03,0 -8.81,-3 -8.81,-6.78 0,-1.65 1.09,-2.6 2.54,-2.6 1.54,0 2.54,1.1 2.54,2.55 0,2.48 -2.35,2.48 -3.08,2.48 1.53,2.44 4.83,3.1 6.62,3.1 2.03,0 4.78,-1.1 4.78,-5.58 0,-0.61 -0.11,-3.49 -1.4,-5.69 -1.49,-2.39 -3.19,-2.53 -4.42,-2.59 -0.41,-0.05 -1.6,-0.14 -1.96,-0.14 -0.39,-0.05 -0.75,-0.1 -0.75,-0.6 0,-0.54 0.36,-0.54 1.21,-0.54 h 2.18 c 4.1,0 5.94,-3.39 5.94,-8.29 0,-6.76 -3.44,-8.21 -5.64,-8.21 -2.14,0 -5.88,0.84 -7.61,3.78 1.73,-0.24 3.28,0.86 3.28,2.75 0,1.79 -1.34,2.78 -2.8,2.78 -1.18,0 -2.78,-0.69 -2.78,-2.89 0,-4.53 4.63,-7.81 10.07,-7.81 6.07,0 10.61,4.53 10.61,9.6 0,4.1 -3.15,7.97 -8.32,9.02 z"
           id="path5843"
           style="fill:#000000;stroke-width:0" /></g>    </g>
    <g
       transform="translate(32.240233,-154.91576)"
       id="g5877">
      <g
         transform="matrix(1.0629921,0,0,-1.0629921,-186.02362,789.27165)"
         id="g5879"
         xml:space="preserve"
         style="font-style:normal;font-variant:normal;font-weight:normal;font-stretch:normal;letter-spacing:normal;word-spacing:normal;text-anchor:start;fill:none;stroke:#000000;stroke-linecap:butt;stroke-linejoin:miter;stroke-miterlimit:10.43299961;stroke-opacity:1;stroke-dasharray:none;stroke-dashoffset:0"><path
           d="m 470.16,414.42 v -4.33 c 0,-1.8 -0.09,-2.34 -3.78,-2.34 h -1.05 v -1.55 c 2.05,0.16 4.64,0.16 6.74,0.16 2.09,0 4.73,0 6.76,-0.16 v 1.55 h -1.04 c -3.69,0 -3.79,0.54 -3.79,2.34 v 4.33 h 4.99 v 1.54 H 474 v 22.68 c 0,1 0,1.29 -0.79,1.29 -0.46,0 -0.6,0 -1,-0.61 l -15.3,-23.36 h 1.41 l 12.15,18.58 v -18.58 h -12.15 -1.41 v -1.54 z"
           id="path5881"
           style="fill:#000000;stroke-width:0" /></g>    </g>
    <g
       transform="translate(108.53324,-155.7821)"
       id="g5921">
      <g
         transform="matrix(1.0629921,0,0,-1.0629921,-186.02362,789.27165)"
         id="g5923"
         xml:space="preserve"
         style="font-style:normal;font-variant:normal;font-weight:normal;font-stretch:normal;letter-spacing:normal;word-spacing:normal;text-anchor:start;fill:none;stroke:#000000;stroke-linecap:butt;stroke-linejoin:miter;stroke-miterlimit:10.43299961;stroke-opacity:1;stroke-dasharray:none;stroke-dashoffset:0"><path
           d="m 477.89,416.21 -0.01,0.56 -0.03,0.54 -0.06,0.54 -0.08,0.53 -0.1,0.53 -0.13,0.51 -0.14,0.5 -0.17,0.5 -0.18,0.48 -0.21,0.47 -0.22,0.46 -0.24,0.44 -0.26,0.43 -0.28,0.41 -0.29,0.4 -0.31,0.38 -0.33,0.36 -0.34,0.35 -0.36,0.32 -0.37,0.31 -0.38,0.29 -0.4,0.26 -0.41,0.25 -0.42,0.22 -0.43,0.2 -0.44,0.17 -0.46,0.15 -0.46,0.13 -0.48,0.09 -0.48,0.07 -0.49,0.05 -0.5,0.01 c -2.39,0 -4.54,-0.8 -6.33,-2.53 v 9.7 c 1,-0.29 2.64,-0.64 4.23,-0.64 6.13,0 9.61,4.53 9.61,5.19 0,0.3 -0.14,0.55 -0.5,0.55 -0.05,0 -0.14,0 -0.39,-0.16 -1,-0.45 -3.44,-1.44 -6.78,-1.44 -1.98,0 -4.28,0.35 -6.63,1.39 -0.39,0.14 -0.5,0.14 -0.59,0.14 -0.5,0 -0.5,-0.39 -0.5,-1.18 v -14.75 c 0,-0.89 0,-1.3 0.7,-1.3 0.35,0 0.44,0.16 0.64,0.45 0.55,0.8 2.4,3.49 6.43,3.49 2.59,0 3.84,-2.3 4.23,-3.19 0.81,-1.84 0.91,-3.78 0.91,-6.28 0,-1.74 0,-4.74 -1.21,-6.83 -1.18,-1.94 -3.03,-3.23 -5.32,-3.23 -3.64,0 -6.47,2.64 -7.33,5.57 0.15,-0.04 0.31,-0.09 0.86,-0.09 1.64,0 2.48,1.25 2.48,2.44 0,1.2 -0.84,2.44 -2.48,2.44 -0.71,0 -2.46,-0.35 -2.46,-2.65 0,-4.28 3.44,-9.1 9.04,-9.1 5.76,0 10.85,4.78 10.85,11.1 z"
           id="path5925"
           style="fill:#000000;stroke-width:0" /></g>    </g>
    <g
       transform="translate(184.81562,-155.7821)"
       id="g5971">
      <g
         transform="matrix(1.0629921,0,0,-1.0629921,-186.02362,789.27165)"
         id="g5973"
         xml:space="preserve"
         style="font-style:normal;font-variant:normal;font-weight:normal;font-stretch:normal;letter-spacing:normal;word-spacing:normal;text-anchor:start;fill:none;stroke:#000000;stroke-linecap:butt;stroke-linejoin:miter;stroke-miterlimit:10.43299961;stroke-opacity:1;stroke-dasharray:none;stroke-dashoffset:0"><path
           d="m 462.1,422.54 v 1.19 c 0,12.61 6.17,14.41 8.72,14.41 1.18,0 3.28,-0.3 4.37,-2 -0.73,0 -2.73,0 -2.73,-2.24 0,-1.54 1.2,-2.29 2.29,-2.29 0.8,0 2.29,0.45 2.29,2.39 0,3 -2.19,5.39 -6.32,5.39 -6.39,0 -13.11,-6.44 -13.11,-17.44 0,-13.31 5.78,-16.84 10.41,-16.84 5.53,0 10.27,4.68 10.27,11.25 0,6.32 -4.44,11.12 -9.97,11.12 l -0.05,-1.16 c 0.8,0 3.09,0 4.64,-3.09 0.89,-1.83 0.89,-4.37 0.89,-6.81 0,-2.39 0,-4.89 -0.84,-6.69 -1.5,-2.98 -3.78,-3.23 -4.94,-3.23 h 0 c -3.14,0 -4.63,2.98 -4.92,3.73 -0.91,2.34 -0.91,6.33 -0.91,7.23 0,3.88 1.6,8.86 6.08,8.86 l 0.05,1.16 c -3.38,0 -5.22,-2.55 -6.22,-4.94 z"
           id="path5975"
           style="fill:#000000;stroke-width:0" /></g>    </g>
    <g
       transform="translate(-274.89534,-159.60887)"
       id="g6083">
      <g
         transform="matrix(1.0629921,0,0,-1.0629921,-186.02362,789.27165)"
         id="content"
         xml:space="preserve"
         style="font-style:normal;font-variant:normal;font-weight:normal;font-stretch:normal;letter-spacing:normal;word-spacing:normal;text-anchor:start;fill:none;stroke:#000000;stroke-linecap:butt;stroke-linejoin:miter;stroke-miterlimit:10.43299961;stroke-opacity:1;stroke-dasharray:none;stroke-dashoffset:0"><path
           d="m 465.08,418.65 0,0.14 -0.01,0.13 -0.02,0.13 -0.02,0.13 -0.03,0.13 -0.04,0.13 -0.04,0.12 -0.05,0.12 -0.05,0.11 -0.06,0.12 -0.06,0.11 -0.07,0.11 -0.07,0.1 -0.08,0.1 -0.09,0.1 -0.08,0.09 -0.1,0.08 -0.09,0.09 -0.1,0.08 -0.1,0.07 -0.11,0.07 -0.11,0.06 -0.12,0.06 -0.11,0.05 -0.12,0.05 -0.13,0.04 -0.12,0.04 -0.13,0.03 -0.13,0.02 -0.13,0.02 -0.13,0.01 -0.14,0 c -1.44,0 -2.64,-1.18 -2.64,-2.64 0,-1.44 1.2,-2.64 2.64,-2.64 1.45,0 2.64,1.2 2.64,2.64 z"
           id="path6086"
           style="fill:#000000;stroke-width:0" /><path
           d="m 487.16,418.65 0,0.14 -0.01,0.13 -0.02,0.13 -0.02,0.13 -0.03,0.13 -0.04,0.13 -0.04,0.12 -0.05,0.12 -0.05,0.11 -0.06,0.12 -0.06,0.11 -0.07,0.11 -0.08,0.1 -0.07,0.1 -0.09,0.1 -0.09,0.09 -0.09,0.08 -0.09,0.09 -0.1,0.08 -0.11,0.07 -0.1,0.07 -0.11,0.06 -0.12,0.06 -0.11,0.05 -0.12,0.05 -0.13,0.04 -0.12,0.04 -0.13,0.03 -0.13,0.02 -0.13,0.02 -0.13,0.01 -0.14,0 c -1.44,0 -2.64,-1.18 -2.64,-2.64 0,-1.44 1.2,-2.64 2.64,-2.64 1.45,0 2.64,1.2 2.64,2.64 z"
           id="path6088"
           style="fill:#000000;stroke-width:0" /><path
           d="m 509.23,418.65 0,0.14 -0.01,0.13 -0.02,0.13 -0.02,0.13 -0.03,0.13 -0.04,0.13 -0.04,0.12 -0.04,0.12 -0.06,0.11 -0.06,0.12 -0.06,0.11 -0.07,0.11 -0.07,0.1 -0.08,0.1 -0.08,0.1 -0.09,0.09 -0.09,0.08 -0.1,0.09 -0.1,0.08 -0.1,0.07 -0.11,0.07 -0.11,0.06 -0.11,0.06 -0.12,0.05 -0.12,0.05 -0.12,0.04 -0.13,0.04 -0.13,0.03 -0.13,0.02 -0.13,0.02 -0.13,0.01 -0.14,0 c -1.43,0 -2.64,-1.18 -2.64,-2.64 0,-1.44 1.21,-2.64 2.64,-2.64 1.46,0 2.64,1.2 2.64,2.64 z"
           id="path6090"
           style="fill:#000000;stroke-width:0" /></g>    </g>
    <g
       transform="translate(379.05758,-159.60887)"
       id="g6146">
      <g
         transform="matrix(1.0629921,0,0,-1.0629921,-186.02362,789.27165)"
         id="g6148"
         xml:space="preserve"
         style="font-style:normal;font-variant:normal;font-weight:normal;font-stretch:normal;letter-spacing:normal;word-spacing:normal;text-anchor:start;fill:none;stroke:#000000;stroke-linecap:butt;stroke-linejoin:miter;stroke-miterlimit:10.43299961;stroke-opacity:1;stroke-dasharray:none;stroke-dashoffset:0"><path
           d="m 465.08,418.65 0,0.14 -0.01,0.13 -0.02,0.13 -0.02,0.13 -0.03,0.13 -0.04,0.13 -0.04,0.12 -0.05,0.12 -0.05,0.11 -0.06,0.12 -0.06,0.11 -0.07,0.11 -0.07,0.1 -0.08,0.1 -0.09,0.1 -0.08,0.09 -0.1,0.08 -0.09,0.09 -0.1,0.08 -0.1,0.07 -0.11,0.07 -0.11,0.06 -0.12,0.06 -0.11,0.05 -0.12,0.05 -0.13,0.04 -0.12,0.04 -0.13,0.03 -0.13,0.02 -0.13,0.02 -0.13,0.01 -0.14,0 c -1.44,0 -2.64,-1.18 -2.64,-2.64 0,-1.44 1.2,-2.64 2.64,-2.64 1.45,0 2.64,1.2 2.64,2.64 z"
           id="path6150"
           style="fill:#000000;stroke-width:0" /><path
           d="m 487.16,418.65 0,0.14 -0.01,0.13 -0.02,0.13 -0.02,0.13 -0.03,0.13 -0.04,0.13 -0.04,0.12 -0.05,0.12 -0.05,0.11 -0.06,0.12 -0.06,0.11 -0.07,0.11 -0.08,0.1 -0.07,0.1 -0.09,0.1 -0.09,0.09 -0.09,0.08 -0.09,0.09 -0.1,0.08 -0.11,0.07 -0.1,0.07 -0.11,0.06 -0.12,0.06 -0.11,0.05 -0.12,0.05 -0.13,0.04 -0.12,0.04 -0.13,0.03 -0.13,0.02 -0.13,0.02 -0.13,0.01 -0.14,0 c -1.44,0 -2.64,-1.18 -2.64,-2.64 0,-1.44 1.2,-2.64 2.64,-2.64 1.45,0 2.64,1.2 2.64,2.64 z"
           id="path6152"
           style="fill:#000000;stroke-width:0" /><path
           d="m 509.23,418.65 0,0.14 -0.01,0.13 -0.02,0.13 -0.02,0.13 -0.03,0.13 -0.04,0.13 -0.04,0.12 -0.04,0.12 -0.06,0.11 -0.06,0.12 -0.06,0.11 -0.07,0.11 -0.07,0.1 -0.08,0.1 -0.08,0.1 -0.09,0.09 -0.09,0.08 -0.1,0.09 -0.1,0.08 -0.1,0.07 -0.11,0.07 -0.11,0.06 -0.11,0.06 -0.12,0.05 -0.12,0.05 -0.12,0.04 -0.13,0.04 -0.13,0.03 -0.13,0.02 -0.13,0.02 -0.13,0.01 -0.14,0 c -1.43,0 -2.64,-1.18 -2.64,-2.64 0,-1.44 1.21,-2.64 2.64,-2.64 1.46,0 2.64,1.2 2.64,2.64 z"
           id="path6154"
           style="fill:#000000;stroke-width:0" /></g>    </g>
    <path
       d="m 135.42456,184.64114 c 35,0 35,0 35,0"
       id="path6187"
       style="fill:none;stroke:#000000;stroke-width:1px;stroke-linecap:butt;stroke-linejoin:miter;stroke-opacity:1;marker-end:url(#Arrow1Lend)" />
    <path
       d="m 211.71226,184.64114 c 35,0 35,0 35,0"
       id="path6187-3"
       style="fill:none;stroke:#000000;stroke-width:1px;stroke-linecap:butt;stroke-linejoin:miter;stroke-opacity:1;marker-end:url(#Arrow1Lend)" />
    <path
       d="m 287.99994,184.64114 c 35,0 35,0 35,0"
       id="path6187-3-7"
       style="fill:none;stroke:#000000;stroke-width:1px;stroke-linecap:butt;stroke-linejoin:miter;stroke-opacity:1;marker-end:url(#Arrow1Lend)" />
    <path
       d="m 364.28764,184.64114 c 35,0 35,0 35,0"
       id="path6187-3-7-9"
       style="fill:none;stroke:#000000;stroke-width:1px;stroke-linecap:butt;stroke-linejoin:miter;stroke-opacity:1;marker-end:url(#Arrow1Lend)" />
    <path
       d="m 440.57529,184.64114 c 35,0 35,0 35,0"
       id="path6187-3-7-9-4"
       style="fill:none;stroke:#000000;stroke-width:1px;stroke-linecap:butt;stroke-linejoin:miter;stroke-opacity:1;marker-end:url(#Arrow1Lend)" />
    <path
       d="m 120.52821,214.14688 a 14.999999,14.999999 0 1 1 -15.45496,0.0106"
       id="path7689"
       style="fill:none;stroke:#000000;stroke-width:1;stroke-miterlimit:4;stroke-dasharray:none;stroke-dashoffset:0;marker-start:url(#Arrow1Lstart)" />
    <path
       d="m 197.85303,214.14688 a 14.999999,14.999999 0 1 1 -15.45496,0.0106"
       id="path7689-0"
       style="fill:none;stroke:#000000;stroke-width:1;stroke-miterlimit:4;stroke-dasharray:none;stroke-dashoffset:0;marker-start:url(#Arrow1Lstart)" />
    <path
       d="m 273.56732,214.14688 a 14.999999,14.999999 0 1 1 -15.45496,0.0106"
       id="path7689-0-5"
       style="fill:none;stroke:#000000;stroke-width:1;stroke-miterlimit:4;stroke-dasharray:none;stroke-dashoffset:0;marker-start:url(#Arrow1Lstart)" />
    <path
       d="m 346.42446,214.14688 a 14.999999,14.999999 0 1 1 -15.45496,0.0106"
       id="path7689-0-5-4"
       style="fill:none;stroke:#000000;stroke-width:1;stroke-miterlimit:4;stroke-dasharray:none;stroke-dashoffset:0;marker-start:url(#Arrow1Lstart)" />
    <path
       d="m 425.71017,214.14688 a 14.999999,14.999999 0 1 1 -15.45496,0.0106"
       id="path7689-0-5-4-4"
       style="fill:none;stroke:#000000;stroke-width:1;stroke-miterlimit:4;stroke-dasharray:none;stroke-dashoffset:0;marker-start:url(#Arrow1Lstart)" />
    <path
       d="m 502.85303,214.14688 a 14.999999,14.999999 0 1 1 -15.45496,0.0106"
       id="path7689-0-5-4-4-7"
       style="fill:none;stroke:#000000;stroke-width:1;stroke-miterlimit:4;stroke-dasharray:none;stroke-dashoffset:0;marker-start:url(#Arrow1Lstart)" />
    <rect
       width="657.60931"
       height="134.3503"
       x="-20.233232"
       y="130.90132"
       id="rect8214"
       style="fill:none;stroke:none" />
    <g
       transform="translate(259.9871,-155.52698)"
       id="g3655">
      <g
         transform="matrix(1.0629921,0,0,-1.0629921,-186.02362,789.27165)"
         id="g3657"
         xml:space="preserve"
         style="font-style:normal;font-variant:normal;font-weight:normal;font-stretch:normal;letter-spacing:normal;word-spacing:normal;text-anchor:start;fill:none;stroke:#000000;stroke-linecap:butt;stroke-linejoin:miter;stroke-miterlimit:10.43299961;stroke-opacity:1;stroke-dasharray:none;stroke-dashoffset:0"><path
           d="m 479.24,436.54 0.04,0.06 0.04,0.05 0.03,0.05 0.03,0.05 0.03,0.04 0.03,0.04 0.03,0.05 0.02,0.04 0.02,0.04 0.02,0.04 0.02,0.04 0.02,0.04 0.01,0.04 0.02,0.04 0.01,0.04 0.01,0.04 0.01,0.04 0.01,0.05 0.01,0.05 0,0.04 0.01,0.06 0,0.05 0.01,0.06 0,0.06 0,0.06 0,0.07 0,0.07 0.01,0.08 0,0.08 0,0.08 0,0.09 0,0.05 0,0.05 h -12.1 c -6.08,0 -6.19,0.65 -6.39,1.59 h -1.23 l -1.64,-10.25 h 1.23 c 0.16,0.8 0.61,3.94 1.25,4.53 0.34,0.3 4.24,0.3 4.88,0.3 H 476 c -0.56,-0.8 -4.48,-6.24 -5.59,-7.88 -4.48,-6.71 -6.12,-13.65 -6.12,-18.73 0,-0.5 0,-2.73 2.29,-2.73 2.3,0 2.3,2.23 2.3,2.73 v 2.55 c 0,2.73 0.14,5.48 0.55,8.17 0.18,1.14 0.89,5.42 3.07,8.51 z"
           id="path3659"
           style="fill:#000000;stroke-width:0" /></g>    </g>
    <g
       transform="translate(337.39095,-155.7821)"
       id="g3799">
      <g
         transform="matrix(1.0629921,0,0,-1.0629921,-186.02362,789.27165)"
         id="g3801"
         xml:space="preserve"
         style="font-style:normal;font-variant:normal;font-weight:normal;font-stretch:normal;letter-spacing:normal;word-spacing:normal;text-anchor:start;fill:none;stroke:#000000;stroke-linecap:butt;stroke-linejoin:miter;stroke-miterlimit:10.43299961;stroke-opacity:1;stroke-dasharray:none;stroke-dashoffset:0"><path
           d="m 470.91,424.23 0.33,0.18 0.33,0.17 0.32,0.19 0.31,0.19 0.31,0.19 0.29,0.2 0.29,0.2 0.28,0.2 0.27,0.21 0.26,0.22 0.25,0.21 0.25,0.23 0.23,0.22 0.23,0.24 0.21,0.23 0.2,0.24 0.2,0.24 0.18,0.25 0.17,0.25 0.16,0.26 0.15,0.26 0.14,0.27 0.12,0.27 0.11,0.27 0.1,0.28 0.09,0.28 0.08,0.28 0.06,0.29 0.05,0.29 0.03,0.3 0.02,0.3 0.01,0.31 c 0,4.59 -4.44,7.44 -8.97,7.44 l -0.04,-1.25 c 3.64,0 6.82,-2.6 6.82,-6.19 0,-2.83 -1.95,-5.22 -4.93,-6.97 l -6.18,3.98 c -2.29,1.5 -2.5,3.19 -2.5,4.04 0,3.04 3.25,5.14 6.79,5.14 l 0.04,1.25 c -4.98,0 -9.01,-3.69 -9.01,-8.33 0,-0.89 0.09,-3.14 2.18,-5.49 0.55,-0.59 2.4,-1.84 3.65,-2.68 l 1.14,-0.75 6.14,-3.88 c 1.39,-0.95 3.73,-2.45 3.73,-5.48 0,-3.69 -3.73,-6.28 -7.83,-6.28 -4.28,0 -7.87,3.09 -7.87,7.21 0,2.9 1.59,6.08 5.83,8.43 h 0 l -1.14,0.75 c -2.9,-1.44 -7.18,-4.24 -7.18,-9.18 0,-5.28 5.08,-8.6 10.32,-8.6 5.62,0 10.36,4.14 10.36,9.46 0,1.79 -0.55,4.04 -2.44,6.13 -0.96,1.05 -1.75,1.55 -4.94,3.53 z"
           id="path3803"
           style="fill:#000000;stroke-width:0" /></g>    </g>
    <path
       d="m 516.86301,184.64114 c 35,0 35,0 35,0"
       id="path6187-3-7-9-4-7"
       style="fill:none;stroke:#000000;stroke-width:1px;stroke-linecap:butt;stroke-linejoin:miter;stroke-opacity:1;marker-end:url(#Arrow1Lend)" />
    <path
       d="m 593.15065,184.64114 c 35,0 35,0 35,0"
       id="path6187-3-7-9-4-7-8"
       style="fill:none;stroke:#000000;stroke-width:1px;stroke-linecap:butt;stroke-linejoin:miter;stroke-opacity:1;marker-end:url(#Arrow1Lend)" />
    <path
       d="m 577.08456,214.14688 a 14.999999,14.999999 0 1 1 -15.45496,0.0106"
       id="path7689-0-5-4-4-7-7"
       style="fill:none;stroke:#000000;stroke-width:1;stroke-miterlimit:4;stroke-dasharray:none;stroke-dashoffset:0;marker-start:url(#Arrow1Lstart)" />
    <path
       d="m 654.86631,214.14688 a 14.999999,14.999999 0 1 1 -15.45496,0.0106"
       id="path7689-0-5-4-4-7-7-2"
       style="fill:none;stroke:#000000;stroke-width:1;stroke-miterlimit:4;stroke-dasharray:none;stroke-dashoffset:0;marker-start:url(#Arrow1Lstart)" />
  </g>
</svg>
