<?xml version="1.0" encoding="UTF-8" standalone="no"?>
<!-- Created with Inkscape (http://www.inkscape.org/) -->

<svg
   xmlns:dc="http://purl.org/dc/elements/1.1/"
   xmlns:cc="http://creativecommons.org/ns#"
   xmlns:rdf="http://www.w3.org/1999/02/22-rdf-syntax-ns#"
   xmlns:svg="http://www.w3.org/2000/svg"
   xmlns="http://www.w3.org/2000/svg"
   xmlns:sodipodi="http://sodipodi.sourceforge.net/DTD/sodipodi-0.dtd"
   xmlns:inkscape="http://www.inkscape.org/namespaces/inkscape"
   width="210mm"
   height="297mm"
   id="svg2"
   version="1.1"
   inkscape:version="0.48.3.1 r9886"
   sodipodi:docname="hom_set.svg"
   inkscape:export-filename="/home/nineties/projects/category-seminar/fig/hom_set.png"
   inkscape:export-xdpi="90"
   inkscape:export-ydpi="90">
  <sodipodi:namedview
     id="base"
     pagecolor="#ffffff"
     bordercolor="#666666"
     borderopacity="1.0"
     inkscape:pageopacity="0.0"
     inkscape:pageshadow="2"
     inkscape:zoom="0.49497475"
     inkscape:cx="389.01464"
     inkscape:cy="517.47508"
     inkscape:document-units="px"
     inkscape:current-layer="layer1"
     showgrid="false"
     inkscape:window-width="1362"
     inkscape:window-height="742"
     inkscape:window-x="0"
     inkscape:window-y="22"
     inkscape:window-maximized="0" />
  <defs
     id="defs4">
    <marker
       inkscape:stockid="Arrow1Lend"
       orient="auto"
       refY="0.0"
       refX="0.0"
       id="Arrow1Lend"
       style="overflow:visible;">
      <path
         id="path4069"
         d="M 0.0,0.0 L 5.0,-5.0 L -12.5,0.0 L 5.0,5.0 L 0.0,0.0 z "
         style="fill-rule:evenodd;stroke:#000000;stroke-width:1.0pt;"
         transform="scale(0.8) rotate(180) translate(12.5,0)" />
    </marker>
    <marker
       inkscape:stockid="Arrow1Lend"
       orient="auto"
       refY="0"
       refX="0"
       id="Arrow1Lend-6"
       style="overflow:visible">
      <path
         inkscape:connector-curvature="0"
         id="path4069-0"
         d="M 0,0 5,-5 -12.5,0 5,5 0,0 z"
         style="fill-rule:evenodd;stroke:#000000;stroke-width:1pt"
         transform="matrix(-0.8,0,0,-0.8,-10,0)" />
    </marker>
    <marker
       style="overflow:visible"
       id="Arrow1LendM"
       orient="auto"
       refY="0"
       refX="0"
       inkscape:stockid="Arrow1LendM">
      <path
         style="fill:#e6e6e6;fill-rule:evenodd;stroke:#e6e6e6;stroke-width:1pt"
         id="path7269"
         transform="matrix(-0.8,0,0,-0.8,-10,0)"
         d="M 0,0 5,-5 -12.5,0 5,5 0,0 z"
         inkscape:connector-curvature="0" />
    </marker>
    <marker
       style="overflow:visible"
       id="Arrow1LendH"
       orient="auto"
       refY="0"
       refX="0"
       inkscape:stockid="Arrow1LendH">
      <path
         style="fill:#b3b3b3;fill-rule:evenodd;stroke:#b3b3b3;stroke-width:1pt"
         id="path7284"
         transform="matrix(-0.8,0,0,-0.8,-10,0)"
         d="M 0,0 5,-5 -12.5,0 5,5 0,0 z"
         inkscape:connector-curvature="0" />
    </marker>
    <marker
       style="overflow:visible"
       id="Arrow1Lendh"
       orient="auto"
       refY="0"
       refX="0"
       inkscape:stockid="Arrow1Lendh">
      <path
         style="fill:#808080;fill-rule:evenodd;stroke:#808080;stroke-width:1pt"
         id="path7296"
         transform="matrix(-0.8,0,0,-0.8,-10,0)"
         d="M 0,0 5,-5 -12.5,0 5,5 0,0 z"
         inkscape:connector-curvature="0" />
    </marker>
    <marker
       style="overflow:visible"
       id="Arrow1LendZ"
       orient="auto"
       refY="0"
       refX="0"
       inkscape:stockid="Arrow1LendZ">
      <path
         style="fill:#4d4d4d;fill-rule:evenodd;stroke:#4d4d4d;stroke-width:1pt"
         id="path7272"
         transform="matrix(-0.8,0,0,-0.8,-10,0)"
         d="M 0,0 5,-5 -12.5,0 5,5 0,0 z"
         inkscape:connector-curvature="0" />
    </marker>
    <marker
       style="overflow:visible"
       id="Arrow1Lend3"
       orient="auto"
       refY="0"
       refX="0"
       inkscape:stockid="Arrow1Lend3">
      <path
         style="fill:#1a1a1a;fill-rule:evenodd;stroke:#1a1a1a;stroke-width:1pt"
         id="path7278"
         transform="matrix(-0.8,0,0,-0.8,-10,0)"
         d="M 0,0 5,-5 -12.5,0 5,5 0,0 z"
         inkscape:connector-curvature="0" />
    </marker>
    <marker
       style="overflow:visible"
       id="marker7099"
       orient="auto"
       refY="0"
       refX="0"
       inkscape:stockid="Arrow1LendM">
      <path
         style="fill:#e6e6e6;fill-rule:evenodd;stroke:#e6e6e6;stroke-width:1pt"
         id="path7101"
         transform="matrix(-0.8,0,0,-0.8,-10,0)"
         d="M 0,0 5,-5 -12.5,0 5,5 0,0 z"
         inkscape:connector-curvature="0" />
    </marker>
    <marker
       style="overflow:visible"
       id="marker7103"
       orient="auto"
       refY="0"
       refX="0"
       inkscape:stockid="Arrow1LendH">
      <path
         style="fill:#b3b3b3;fill-rule:evenodd;stroke:#b3b3b3;stroke-width:1pt"
         id="path7105"
         transform="matrix(-0.8,0,0,-0.8,-10,0)"
         d="M 0,0 5,-5 -12.5,0 5,5 0,0 z"
         inkscape:connector-curvature="0" />
    </marker>
    <marker
       style="overflow:visible"
       id="marker7107"
       orient="auto"
       refY="0"
       refX="0"
       inkscape:stockid="Arrow1Lendh">
      <path
         style="fill:#808080;fill-rule:evenodd;stroke:#808080;stroke-width:1pt"
         id="path7109"
         transform="matrix(-0.8,0,0,-0.8,-10,0)"
         d="M 0,0 5,-5 -12.5,0 5,5 0,0 z"
         inkscape:connector-curvature="0" />
    </marker>
    <marker
       style="overflow:visible"
       id="marker7111"
       orient="auto"
       refY="0"
       refX="0"
       inkscape:stockid="Arrow1LendZ">
      <path
         style="fill:#4d4d4d;fill-rule:evenodd;stroke:#4d4d4d;stroke-width:1pt"
         id="path7113"
         transform="matrix(-0.8,0,0,-0.8,-10,0)"
         d="M 0,0 5,-5 -12.5,0 5,5 0,0 z"
         inkscape:connector-curvature="0" />
    </marker>
    <marker
       style="overflow:visible"
       id="marker7115"
       orient="auto"
       refY="0"
       refX="0"
       inkscape:stockid="Arrow1Lend3">
      <path
         style="fill:#1a1a1a;fill-rule:evenodd;stroke:#1a1a1a;stroke-width:1pt"
         id="path7117"
         transform="matrix(-0.8,0,0,-0.8,-10,0)"
         d="M 0,0 5,-5 -12.5,0 5,5 0,0 z"
         inkscape:connector-curvature="0" />
    </marker>
    <marker
       style="overflow:visible"
       id="Arrow1Lendo"
       orient="auto"
       refY="0"
       refX="0"
       inkscape:stockid="Arrow1Lendo">
      <path
         style="fill:#000000;fill-rule:evenodd;stroke:#000000;stroke-width:1pt"
         id="path7302"
         transform="matrix(-0.8,0,0,-0.8,-10,0)"
         d="M 0,0 5,-5 -12.5,0 5,5 0,0 z"
         inkscape:connector-curvature="0" />
    </marker>
    <marker
       inkscape:stockid="marker51608"
       orient="auto"
       refY="0"
       refX="0"
       id="marker51608"
       style="overflow:visible">
      <path
         id="path7034"
         d="M 0,0 5,-5 -12.5,0 5,5 0,0 z"
         style="fill:#0000ff;fill-rule:evenodd;stroke:#0000ff;stroke-width:1pt"
         transform="matrix(-0.8,0,0,-0.8,-10,0)"
         inkscape:connector-curvature="0" />
    </marker>
    <marker
       inkscape:stockid="marker5160v"
       orient="auto"
       refY="0"
       refX="0"
       id="marker5160v"
       style="overflow:visible">
      <path
         id="path6841"
         d="M 0,0 5,-5 -12.5,0 5,5 0,0 z"
         style="fill:#ff0000;fill-rule:evenodd;stroke:#ff0000;stroke-width:1pt"
         transform="matrix(-0.8,0,0,-0.8,-10,0)"
         inkscape:connector-curvature="0" />
    </marker>
    <marker
       inkscape:stockid="marker5160-81"
       orient="auto"
       refY="0"
       refX="0"
       id="marker5160-81"
       style="overflow:visible">
      <path
         id="path7231"
         d="M 0,0 5,-5 -12.5,0 5,5 0,0 z"
         style="fill:#00ff00;fill-rule:evenodd;stroke:#00ff00;stroke-width:1pt"
         transform="matrix(-0.8,0,0,-0.8,-10,0)"
         inkscape:connector-curvature="0" />
    </marker>
    <marker
       inkscape:stockid="Arrow1Lend"
       orient="auto"
       refY="0"
       refX="0"
       id="marker5160"
       style="overflow:visible">
      <path
         id="path5162"
         d="M 0,0 5,-5 -12.5,0 5,5 0,0 z"
         style="fill-rule:evenodd;stroke:#000000;stroke-width:1pt"
         transform="matrix(-0.8,0,0,-0.8,-10,0)"
         inkscape:connector-curvature="0" />
    </marker>
    <marker
       inkscape:stockid="Arrow1Lend"
       orient="auto"
       refY="0"
       refX="0"
       id="marker8753"
       style="overflow:visible">
      <path
         id="path8755"
         d="M 0,0 5,-5 -12.5,0 5,5 0,0 z"
         style="fill-rule:evenodd;stroke:#000000;stroke-width:1pt"
         transform="matrix(-0.8,0,0,-0.8,-10,0)"
         inkscape:connector-curvature="0" />
    </marker>
    <marker
       inkscape:stockid="Arrow1Lend"
       orient="auto"
       refY="0"
       refX="0"
       id="Arrow1Lend-7"
       style="overflow:visible">
      <path
         id="path3965"
         d="M 0,0 5,-5 -12.5,0 5,5 0,0 z"
         style="fill-rule:evenodd;stroke:#000000;stroke-width:1pt"
         transform="matrix(-0.8,0,0,-0.8,-10,0)"
         inkscape:connector-curvature="0" />
    </marker>
    <marker
       inkscape:stockid="Arrow1Lend"
       orient="auto"
       refY="0"
       refX="0"
       id="marker8759"
       style="overflow:visible">
      <path
         id="path8761"
         d="M 0,0 5,-5 -12.5,0 5,5 0,0 z"
         style="fill-rule:evenodd;stroke:#000000;stroke-width:1pt"
         transform="matrix(-0.8,0,0,-0.8,-10,0)"
         inkscape:connector-curvature="0" />
    </marker>
  </defs>
  <metadata
     id="metadata7">
    <rdf:RDF>
      <cc:Work
         rdf:about="">
        <dc:format>image/svg+xml</dc:format>
        <dc:type
           rdf:resource="http://purl.org/dc/dcmitype/StillImage" />
        <dc:title></dc:title>
      </cc:Work>
    </rdf:RDF>
  </metadata>
  <g
     inkscape:label="レイヤー 1"
     inkscape:groupmode="layer"
     id="layer1">
    <rect
       style="fill:none;stroke:none"
       id="rect4575"
       width="430"
       height="225.71429"
       x="189.28571"
       y="498.07648" />
    <path
       style="fill:none;stroke:#000000;stroke-width:1px;stroke-linecap:butt;stroke-linejoin:miter;stroke-opacity:1;marker-end:url(#Arrow1Lendo)"
       id="path3175-7-8"
       d="m 314.19481,618.76656 255.71429,0"
       inkscape:connector-curvature="0" />
    <path
       style="fill:none;stroke:#1a1a1a;stroke-width:1px;stroke-linecap:butt;stroke-linejoin:miter;stroke-opacity:1;marker-end:url(#Arrow1Lend3)"
       d="m 314.76206,611.27778 c 0,0 54.54824,-8.08122 129.29952,-8.08122 74.75129,0 124.24877,11.11168 124.24877,11.11168"
       id="path5841-3"
       inkscape:connector-curvature="0" />
    <path
       style="fill:none;stroke:#4d4d4d;stroke-width:1px;stroke-linecap:butt;stroke-linejoin:miter;stroke-opacity:1;marker-end:url(#Arrow1LendZ)"
       d="m 315.77221,602.18641 c 0,0 64.64976,-13.13198 128.28937,-13.13198 63.63961,0 124.24877,17.17259 124.24877,17.17259"
       id="path6051-7"
       inkscape:connector-curvature="0" />
    <path
       style="fill:none;stroke:#808080;stroke-width:1px;stroke-linecap:butt;stroke-linejoin:miter;stroke-opacity:1;marker-end:url(#Arrow1Lendh)"
       d="m 315.77221,593.09504 c 0,0 53.53809,-17.1726 127.27922,-17.1726 73.74114,0 125.25892,23.23351 125.25892,23.23351"
       id="path6261-3"
       inkscape:connector-curvature="0" />
    <path
       style="fill:none;stroke:#b3b3b3;stroke-width:1px;stroke-linecap:butt;stroke-linejoin:miter;stroke-opacity:1;marker-end:url(#Arrow1LendH)"
       d="m 314.76206,582.99351 c 0,0 58.58885,-22.22335 128.28937,-22.22335 69.70053,0 124.24876,30.30457 124.24876,30.30457"
       id="path6471-3"
       inkscape:connector-curvature="0" />
    <path
       style="fill:none;stroke:#e6e6e6;stroke-width:1px;stroke-linecap:butt;stroke-linejoin:miter;stroke-opacity:1;marker-end:url(#Arrow1LendM)"
       d="m 314.26765,573.90214 c 0,0 50.50763,-31.31473 123.23861,-31.31473 72.73099,0 128.28938,40.4061 128.28938,40.4061"
       id="path6981-4"
       inkscape:connector-curvature="0" />
    <path
       style="fill:none;stroke:#1a1a1a;stroke-width:1px;stroke-linecap:butt;stroke-linejoin:miter;stroke-opacity:1;marker-end:url(#Arrow1Lend3)"
       d="m 314.45771,627.7323 c 0,0 54.54824,8.08122 129.29952,8.08122 74.75129,0 124.24877,-11.11168 124.24877,-11.11168"
       id="path5841-3-1"
       inkscape:connector-curvature="0" />
    <path
       style="fill:none;stroke:#4d4d4d;stroke-width:1px;stroke-linecap:butt;stroke-linejoin:miter;stroke-opacity:1;marker-end:url(#Arrow1LendZ)"
       d="m 315.46786,636.82367 c 0,0 64.64976,13.13198 128.28937,13.13198 63.63961,0 124.24877,-17.17259 124.24877,-17.17259"
       id="path6051-7-6"
       inkscape:connector-curvature="0" />
    <path
       style="fill:none;stroke:#808080;stroke-width:1px;stroke-linecap:butt;stroke-linejoin:miter;stroke-opacity:1;marker-end:url(#Arrow1Lendh)"
       d="m 315.46786,645.91504 c 0,0 53.53809,17.1726 127.27922,17.1726 73.74114,0 125.25892,-23.23351 125.25892,-23.23351"
       id="path6261-3-5"
       inkscape:connector-curvature="0" />
    <path
       style="fill:none;stroke:#b3b3b3;stroke-width:1px;stroke-linecap:butt;stroke-linejoin:miter;stroke-opacity:1;marker-end:url(#Arrow1LendH)"
       d="m 314.45771,656.01657 c 0,0 58.58885,22.22335 128.28937,22.22335 69.70053,0 124.24876,-30.30457 124.24876,-30.30457"
       id="path6471-3-8"
       inkscape:connector-curvature="0" />
    <path
       style="fill:none;stroke:#e6e6e6;stroke-width:1px;stroke-linecap:butt;stroke-linejoin:miter;stroke-opacity:1;marker-end:url(#Arrow1LendM)"
       d="m 313.9633,665.10794 c 0,0 50.50763,31.31473 123.23861,31.31473 72.73099,0 128.28938,-40.4061 128.28938,-40.4061"
       id="path6981-4-1"
       inkscape:connector-curvature="0" />
    <g
       id="g8904"
       transform="matrix(0.79217472,0,0,0.79217472,-81.047219,272.6936)">
      <g
         id="g5135"
         transform="translate(-31.42951,-248.19992)">
        <path
           style="fill:none;stroke:#000000;stroke-width:1;stroke-linecap:butt;stroke-linejoin:miter;stroke-miterlimit:4;stroke-opacity:1;stroke-dasharray:none;marker-end:url(#Arrow1Lend)"
           d="m 67.033854,840.46237 0,-356.4487"
           id="path3186"
           inkscape:connector-curvature="0"
           sodipodi:nodetypes="cc" />
        <path
           style="fill:none;stroke:#000000;stroke-width:1;stroke-linecap:butt;stroke-linejoin:miter;stroke-miterlimit:4;stroke-opacity:1;stroke-dasharray:none;marker-end:url(#Arrow1Lend)"
           d="m 11.356347,790.30475 407.289183,0"
           id="path3188"
           inkscape:connector-curvature="0"
           sodipodi:nodetypes="cc" />
        <g
           id="g4461"
           transform="matrix(0.79354994,0,0,0.79354994,-208.43438,545.4556)">
          <g
             id="content-4"
             transform="matrix(1.0629921,0,0,-1.0629921,-186.02362,789.27165)"
             xml:space="preserve"
             stroke-miterlimit="10.433"
             font-style="normal"
             font-variant="normal"
             font-weight="normal"
             font-stretch="normal"
             font-size-adjust="none"
             letter-spacing="normal"
             word-spacing="normal"
             style="font-style:normal;font-variant:normal;font-weight:normal;font-stretch:normal;letter-spacing:normal;word-spacing:normal;text-anchor:start;fill:none;stroke:#000000;stroke-linecap:butt;stroke-linejoin:miter;stroke-miterlimit:10.43299961;stroke-opacity:1;stroke-dasharray:none;stroke-dashoffset:0"><path
               d="m 492.39,427.92 -0.01,0.74 -0.05,0.73 -0.07,0.71 -0.11,0.7 -0.13,0.68 -0.16,0.66 -0.19,0.64 -0.22,0.62 -0.24,0.6 -0.27,0.59 -0.29,0.56 -0.32,0.54 -0.34,0.52 -0.37,0.5 -0.38,0.47 -0.42,0.45 -0.43,0.43 -0.45,0.41 -0.48,0.38 -0.49,0.35 -0.52,0.33 -0.53,0.3 -0.55,0.28 -0.57,0.25 -0.59,0.22 -0.6,0.2 -0.62,0.16 -0.63,0.14 -0.65,0.1 -0.67,0.08 -0.67,0.05 -0.69,0.01 -0.3,-1.25 c 4.09,0 8.58,-2.78 8.58,-10.2 0,-3.59 -1.35,-11.36 -6.28,-17.5 -2.39,-3.03 -6.49,-5.97 -10.66,-5.97 h 0 c -4.94,0 -8.42,4.03 -8.42,10.61 0,2.19 0.69,9.47 4.53,15.3 3.44,5.17 8.31,7.76 12.25,7.76 l 0.3,1.25 c -10.75,0 -21.72,-11.31 -21.72,-22.92 0,-8.26 5.58,-13.29 12.76,-13.29 10.55,0 21.67,10.9 21.67,22.81 z"
               id="path4464"
               inkscape:connector-curvature="0"
               style="fill:#000000;stroke-width:0" /></g>        </g>
        <g
           id="g4504"
           transform="matrix(0.79354994,0,0,0.79354994,159.52279,546.83802)">
          <g
             word-spacing="normal"
             letter-spacing="normal"
             font-size-adjust="none"
             font-stretch="normal"
             font-weight="normal"
             font-variant="normal"
             font-style="normal"
             stroke-miterlimit="10.433"
             xml:space="preserve"
             transform="matrix(1.0629921,0,0,-1.0629921,-186.02362,789.27165)"
             id="g4506"
             style="font-style:normal;font-variant:normal;font-weight:normal;font-stretch:normal;letter-spacing:normal;word-spacing:normal;text-anchor:start;fill:none;stroke:#000000;stroke-linecap:butt;stroke-linejoin:miter;stroke-miterlimit:10.43299961;stroke-opacity:1;stroke-dasharray:none;stroke-dashoffset:0"><path
               id="path4508"
               d="m 472.16,421.25 0.03,0.13 0.04,0.15 0.04,0.16 0.04,0.18 0.06,0.19 0.06,0.21 0.06,0.22 0.07,0.22 0.08,0.23 0.09,0.24 0.1,0.25 0.1,0.24 0.11,0.25 0.12,0.25 0.13,0.25 0.14,0.25 0.15,0.24 0.15,0.24 0.17,0.23 0.18,0.22 0.18,0.22 0.2,0.2 0.21,0.19 0.22,0.18 0.23,0.16 0.25,0.14 0.12,0.07 0.13,0.06 0.14,0.05 0.13,0.05 0.14,0.05 0.14,0.04 0.15,0.03 0.15,0.03 0.15,0.02 0.16,0.02 0.16,0.01 0.16,0 c 0.25,0 1.44,0 2.48,-0.64 -1.39,-0.25 -2.39,-1.5 -2.39,-2.69 0,-0.79 0.55,-1.75 1.89,-1.75 1.1,0 2.69,0.89 2.69,2.89 0,2.6 -2.94,3.28 -4.63,3.28 -2.89,0 -4.64,-2.64 -5.23,-3.78 -1.25,3.28 -3.94,3.78 -5.37,3.78 -5.19,0 -8.04,-6.42 -8.04,-7.67 0,-0.5 0.5,-0.5 0.61,-0.5 0.39,0 0.55,0.11 0.64,0.55 1.69,5.28 4.99,6.53 6.68,6.53 0.95,0 2.68,-0.44 2.68,-3.33 0,-1.54 -0.84,-4.89 -2.68,-11.86 -0.8,-3.09 -2.54,-5.18 -4.74,-5.18 -0.3,0 -1.44,0 -2.48,0.65 1.25,0.24 2.34,1.28 2.34,2.69 0,1.34 -1.09,1.73 -1.84,1.73 -1.5,0 -2.75,-1.29 -2.75,-2.89 0,-2.28 2.5,-3.28 4.68,-3.28 3.3,0 5.08,3.49 5.24,3.78 0.59,-1.84 2.39,-3.78 5.37,-3.78 5.14,0 7.99,6.42 7.99,7.67 0,0.5 -0.45,0.5 -0.61,0.5 -0.44,0 -0.55,-0.2 -0.64,-0.54 -1.64,-5.33 -5.03,-6.53 -6.63,-6.53 -1.95,0 -2.75,1.59 -2.75,3.29 0,1.1 0.3,2.19 0.86,4.38 z"
               inkscape:connector-curvature="0"
               style="fill:#000000;stroke-width:0" /></g>        </g>
        <g
           id="g4554"
           transform="matrix(0.79354994,0,0,0.79354994,-205.3846,216.47506)">
          <g
             id="g4556"
             transform="matrix(1.0629921,0,0,-1.0629921,-186.02362,789.27165)"
             xml:space="preserve"
             stroke-miterlimit="10.433"
             font-style="normal"
             font-variant="normal"
             font-weight="normal"
             font-stretch="normal"
             font-size-adjust="none"
             letter-spacing="normal"
             word-spacing="normal"
             style="font-style:normal;font-variant:normal;font-weight:normal;font-stretch:normal;letter-spacing:normal;word-spacing:normal;text-anchor:start;fill:none;stroke:#000000;stroke-linecap:butt;stroke-linejoin:miter;stroke-miterlimit:10.43299961;stroke-opacity:1;stroke-dasharray:none;stroke-dashoffset:0"><path
               d="m 479.74,425.18 0.01,0.04 0.01,0.03 0.01,0.06 0.02,0.05 0.01,0.06 0.01,0.05 0.02,0.04 0.01,0.05 0.01,0.04 0.01,0.04 0,0.04 0.01,0.04 0.01,0.04 0.01,0.03 0,0.03 0.01,0.03 0,0.03 0.01,0.03 0,0.03 0.01,0.05 0,0.06 0,0.05 0,0.05 0.01,0.05 0,0.03 0,0.03 0,0.03 0,0.03 c 0,0.91 -0.69,1.35 -1.44,1.35 -0.5,0 -1.3,-0.3 -1.75,-1.05 -0.1,-0.25 -0.5,-1.78 -0.69,-2.69 -0.36,-1.29 -0.7,-2.64 -1,-3.98 l -2.25,-8.97 c -0.19,-0.75 -2.33,-4.23 -5.62,-4.23 -2.54,0 -3.1,2.18 -3.1,4.03 0,2.29 0.86,5.39 2.55,9.76 0.8,2.05 1,2.6 1,3.6 0,2.23 -1.59,4.07 -4.09,4.07 -4.74,0 -6.58,-7.21 -6.58,-7.67 0,-0.5 0.5,-0.5 0.61,-0.5 0.5,0 0.54,0.11 0.79,0.91 1.35,4.69 3.33,6.17 5.03,6.17 0.4,0 1.25,0 1.25,-1.59 0,-1.25 -0.5,-2.53 -0.85,-3.49 -1.99,-5.28 -2.9,-8.12 -2.9,-10.47 0,-4.42 3.15,-5.92 6.08,-5.92 1.96,0 3.64,0.85 5.03,2.24 -0.64,-2.58 -1.23,-5.03 -3.23,-7.68 -1.3,-1.68 -3.19,-3.14 -5.48,-3.14 -0.69,0 -2.94,0.16 -3.79,2.1 0.8,0 1.46,0 2.14,0.61 0.5,0.43 1,1.09 1,2.03 0,1.55 -1.34,1.75 -1.84,1.75 -1.14,0 -2.8,-0.8 -2.8,-3.24 0,-2.5 2.21,-4.34 5.29,-4.34 5.14,0 10.26,4.55 11.67,10.17 z"
               id="path4558"
               inkscape:connector-curvature="0"
               style="fill:#000000;stroke-width:0" /></g>        </g>
      </g>
      <g
         transform="matrix(0.61856362,0,0,0.61856362,0.04800717,114.9886)"
         id="g4750">
        <g
           style="font-style:normal;font-variant:normal;font-weight:normal;font-stretch:normal;letter-spacing:normal;word-spacing:normal;text-anchor:start;fill:none;stroke:#000000;stroke-linecap:butt;stroke-linejoin:miter;stroke-miterlimit:10.43299961;stroke-opacity:1;stroke-dasharray:none;stroke-dashoffset:0"
           id="g4752"
           transform="matrix(1.0629921,0,0,-1.0629921,-186.02362,789.27165)"
           xml:space="preserve"
           stroke-miterlimit="10.433"
           font-style="normal"
           font-variant="normal"
           font-weight="normal"
           font-stretch="normal"
           font-size-adjust="none"
           letter-spacing="normal"
           word-spacing="normal"><path
             style="fill:#000000;stroke-width:0"
             inkscape:connector-curvature="0"
             d="m 475,424.84 -0.13,-0.01 -0.12,-0.01 -0.13,-0.02 -0.12,-0.03 -0.12,-0.03 -0.12,-0.04 -0.11,-0.04 -0.11,-0.04 -0.11,-0.05 -0.1,-0.06 -0.1,-0.06 -0.1,-0.06 -0.09,-0.07 -0.09,-0.07 -0.09,-0.07 -0.08,-0.08 -0.08,-0.08 -0.07,-0.08 -0.07,-0.09 -0.06,-0.08 -0.06,-0.09 -0.06,-0.1 -0.05,-0.09 -0.04,-0.1 -0.04,-0.09 -0.04,-0.1 -0.03,-0.1 -0.02,-0.1 -0.02,-0.1 -0.02,-0.11 0,-0.1 -0.01,-0.1 c 0,-0.7 0.44,-1.44 1.55,-1.44 1.09,0 2.28,0.85 2.28,2.78 0,2.25 -2.14,4.28 -5.92,4.28 -6.58,0 -8.42,-5.07 -8.42,-7.26 0,-3.89 3.69,-4.64 5.12,-4.94 2.6,-0.5 5.19,-1.05 5.19,-3.78 0,-1.3 -1.14,-5.48 -7.12,-5.48 -0.71,0 -4.54,0 -5.69,2.64 1.9,-0.25 3.14,1.25 3.14,2.64 0,1.14 -0.8,1.75 -1.85,1.75 -1.29,0 -2.78,-1.05 -2.78,-3.3 0,-2.84 2.85,-4.83 7.13,-4.83 8.06,0 10.01,6.03 10.01,8.27 0,1.79 -0.95,3.04 -1.54,3.64 -1.35,1.39 -2.8,1.64 -4.99,2.09 -1.79,0.39 -3.78,0.75 -3.78,2.99 0,1.45 1.19,4.48 5.58,4.48 1.23,0 3.73,-0.34 4.48,-2.28 z"
             id="path4754" /><path
             style="fill:#000000;stroke-width:0"
             inkscape:connector-curvature="0"
             d="m 502.55,435.84 -0.07,-0.06 -0.07,-0.07 -0.08,-0.07 -0.08,-0.07 -0.09,-0.08 -0.08,-0.08 -0.1,-0.09 -0.09,-0.08 -0.09,-0.09 -0.1,-0.1 -0.2,-0.19 -0.19,-0.19 -0.19,-0.21 -0.1,-0.1 -0.09,-0.1 -0.08,-0.1 -0.09,-0.11 -0.08,-0.1 -0.07,-0.1 -0.07,-0.1 -0.07,-0.1 -0.06,-0.1 -0.05,-0.1 -0.05,-0.1 -0.03,-0.09 -0.04,-0.09 -0.02,-0.1 -0.01,-0.08 -0.01,-0.09 c 0,-0.5 0.5,-1 1,-1 0.46,0 0.71,0.36 0.96,0.66 0.59,0.75 1.73,2.14 3.93,3.23 0.35,0.21 0.85,0.46 0.85,1.05 0,0.5 -0.35,0.75 -0.71,1 -1.09,0.75 -1.64,1.64 -2.04,2.83 -0.1,0.45 -0.3,1.11 -0.99,1.11 -0.7,0 -1,-0.66 -1,-1.05 0,-0.25 0.39,-1.84 1.19,-2.89 h -16.78 c -0.84,0 -1.75,0 -1.75,-1 0,-1 0.91,-1 1.75,-1 z"
             id="path4756" /><path
             style="fill:#000000;stroke-width:0"
             inkscape:connector-curvature="0"
             d="m 497.49,425.03 -0.08,0.17 -0.09,0.17 -0.09,0.16 -0.1,0.16 -0.1,0.16 -0.1,0.16 -0.11,0.15 -0.1,0.14 -0.12,0.15 -0.11,0.13 -0.12,0.14 -0.13,0.13 -0.13,0.12 -0.13,0.12 -0.13,0.11 -0.14,0.11 -0.15,0.11 -0.14,0.09 -0.16,0.1 -0.15,0.08 -0.16,0.08 -0.16,0.08 -0.17,0.06 -0.17,0.07 -0.18,0.05 -0.18,0.05 -0.19,0.04 -0.18,0.03 -0.2,0.03 -0.2,0.02 -0.2,0.01 -0.21,0 0.05,-1.09 c 3.24,0 3.94,-4.08 3.94,-4.37 0,-0.32 -0.1,-0.61 -0.14,-0.86 l -2.5,-9.77 c -0.25,-0.89 -0.25,-0.98 -1,-1.84 -2.19,-2.74 -4.24,-3.53 -5.63,-3.53 -2.48,0 -3.18,2.73 -3.18,4.68 0,2.49 1.59,8.61 2.73,10.91 1.55,2.94 3.8,4.78 5.78,4.78 l -0.05,1.09 c -5.82,0 -12,-7.31 -12,-14.59 0,-4.69 2.74,-7.97 6.63,-7.97 0.98,0 3.48,0.21 6.47,3.74 0.4,-2.1 2.14,-3.74 4.53,-3.74 1.75,0 2.89,1.14 3.69,2.74 0.84,1.79 1.5,4.84 1.5,4.93 0,0.5 -0.46,0.5 -0.6,0.5 -0.5,0 -0.54,-0.2 -0.7,-0.9 -0.84,-3.24 -1.75,-6.17 -3.78,-6.17 -1.35,0 -1.5,1.29 -1.5,2.29 0,1.1 0.09,1.49 0.64,3.69 0.56,2.09 0.66,2.59 1.11,4.48 l 1.78,6.97 c 0.36,1.39 0.36,1.5 0.36,1.69 0,0.86 -0.61,1.36 -1.45,1.36 -1.19,0 -1.94,-1.11 -2.1,-2.2 z"
             id="path4758" /><path
             style="fill:#000000;stroke-width:0"
             inkscape:connector-curvature="0"
             d="m 536.73,417.65 h 13.9 c 0.69,0 1.64,0 1.64,1 0,1 -0.95,1 -1.64,1 h -13.9 v 13.96 c 0,0.68 0,1.64 -1,1.64 -0.99,0 -0.99,-0.96 -0.99,-1.64 v -13.96 h -13.95 c -0.7,0 -1.64,0 -1.64,-1 0,-1 0.94,-1 1.64,-1 h 13.95 v -13.94 c 0,-0.7 0,-1.65 0.99,-1.65 1,0 1,0.95 1,1.65 z"
             id="path4760" /><path
             style="fill:#000000;stroke-width:0"
             inkscape:connector-curvature="0"
             d="m 576.42,426.12 h 4.68 c 0.99,0 1.49,0 1.49,1 0,0.55 -0.5,0.55 -1.39,0.55 h -4.39 c 1.79,7.08 2.04,8.08 2.04,8.37 0,0.85 -0.59,1.35 -1.43,1.35 -0.16,0 -1.55,-0.05 -2,-1.8 l -1.94,-7.92 h -4.69 c -1,0 -1.5,0 -1.5,-0.94 0,-0.61 0.41,-0.61 1.41,-0.61 h 4.37 c -3.57,-14.14 -3.78,-14.98 -3.78,-15.89 0,-2.69 1.89,-4.58 4.58,-4.58 5.08,0 7.92,7.27 7.92,7.67 0,0.5 -0.39,0.5 -0.59,0.5 -0.45,0 -0.5,-0.15 -0.75,-0.7 -2.14,-5.17 -4.78,-6.37 -6.47,-6.37 -1.05,0 -1.55,0.65 -1.55,2.29 0,1.19 0.1,1.55 0.3,2.39 z"
             id="path4762" /><path
             style="fill:#000000;stroke-width:0"
             inkscape:connector-curvature="0"
             d="m 605.27,448.92 -0.07,-0.06 -0.07,-0.07 -0.08,-0.07 -0.08,-0.07 -0.08,-0.08 -0.09,-0.08 -0.09,-0.09 -0.1,-0.08 -0.09,-0.09 -0.1,-0.09 -0.19,-0.19 -0.2,-0.2 -0.19,-0.2 -0.09,-0.11 -0.09,-0.1 -0.09,-0.1 -0.08,-0.1 -0.08,-0.11 -0.08,-0.1 -0.07,-0.1 -0.06,-0.1 -0.06,-0.1 -0.06,-0.1 -0.04,-0.1 -0.04,-0.09 -0.03,-0.09 -0.03,-0.09 -0.01,-0.09 0,-0.09 c 0,-0.5 0.5,-1 1,-1 0.45,0 0.7,0.36 0.95,0.66 0.59,0.75 1.73,2.14 3.94,3.24 0.34,0.2 0.84,0.45 0.84,1.04 0,0.5 -0.34,0.75 -0.7,1 -1.1,0.75 -1.64,1.64 -2.05,2.83 -0.09,0.45 -0.3,1.11 -0.98,1.11 -0.71,0 -1,-0.66 -1,-1.05 0,-0.25 0.39,-1.84 1.18,-2.89 h -16.78 c -0.84,0 -1.75,0 -1.75,-1 0,-1 0.91,-1 1.75,-1 z"
             id="path4764" /><path
             style="fill:#000000;stroke-width:0"
             inkscape:connector-curvature="0"
             d="m 596.07,440.23 0,0 0,0.01 0,0 0,0.01 -0.01,0.02 0,0.01 0,0.02 0,0.02 0,0.02 -0.01,0.02 0,0.02 -0.01,0.02 -0.01,0.02 -0.01,0.03 -0.01,0.02 -0.01,0.03 -0.01,0.02 -0.02,0.03 -0.02,0.02 -0.02,0.02 -0.02,0.03 -0.01,0.01 -0.01,0.01 -0.02,0.01 -0.01,0.01 -0.02,0.01 -0.01,0.01 -0.02,0.01 -0.01,0.01 -0.02,0.01 -0.02,0.01 -0.02,0 -0.02,0.01 -0.02,0.01 -0.02,0 -0.02,0.01 -0.02,0.01 -0.03,0 -0.02,0 -0.03,0.01 -0.02,0 -0.03,0 -0.03,0.01 -0.02,0 -0.03,0 c -1.16,0 -4.78,-0.41 -6.08,-0.5 -0.41,-0.05 -0.95,-0.1 -0.95,-1 0,-0.6 0.45,-0.6 1.2,-0.6 2.39,0 2.48,-0.34 2.48,-0.84 0,-0.36 -0.45,-2.05 -0.7,-3.09 l -4.08,-16.24 c -0.59,-2.5 -0.8,-3.3 -0.8,-5.03 0,-4.73 2.65,-7.83 6.33,-7.83 v 1.1 c -1.7,0 -3.34,1.34 -3.34,5.03 0,0.95 0,1.89 0.79,5.03 l 1.1,4.59 c 0.3,1.1 0.3,1.19 0.75,1.74 2.44,3.23 4.69,3.98 5.98,3.98 1.8,0 3.14,-1.48 3.14,-4.69 0,-2.93 -1.65,-8.65 -2.54,-10.56 -1.64,-3.33 -3.94,-5.12 -5.88,-5.12 v -1.1 c 5.88,0 12,7.42 12,14.6 0,4.53 -2.64,7.96 -6.62,7.96 -2.28,0 -4.33,-1.43 -5.83,-2.98 z"
             id="path4766" /></g>      </g>
      <g
         transform="matrix(0.61856362,0,0,0.61856362,-31.950203,316.1827)"
         id="g4610">
        <g
           style="font-style:normal;font-variant:normal;font-weight:normal;font-stretch:normal;letter-spacing:normal;word-spacing:normal;text-anchor:start;fill:none;stroke:#000000;stroke-linecap:butt;stroke-linejoin:miter;stroke-miterlimit:10.43299961;stroke-opacity:1;stroke-dasharray:none;stroke-dashoffset:0"
           id="g4612"
           transform="matrix(1.0629921,0,0,-1.0629921,-186.02362,789.27165)"
           xml:space="preserve"
           stroke-miterlimit="10.433"
           font-style="normal"
           font-variant="normal"
           font-weight="normal"
           font-stretch="normal"
           font-size-adjust="none"
           letter-spacing="normal"
           word-spacing="normal"><path
             style="fill:#000000;stroke-width:0"
             inkscape:connector-curvature="0"
             d="m 479.15,435.84 -0.07,-0.06 -0.07,-0.07 -0.08,-0.07 -0.08,-0.07 -0.08,-0.08 -0.09,-0.08 -0.09,-0.09 -0.1,-0.08 -0.09,-0.09 -0.1,-0.1 -0.2,-0.19 -0.19,-0.19 -0.19,-0.21 -0.09,-0.1 -0.09,-0.1 -0.09,-0.1 -0.08,-0.11 -0.08,-0.1 -0.08,-0.1 -0.07,-0.1 -0.07,-0.1 -0.05,-0.1 -0.06,-0.1 -0.04,-0.1 -0.04,-0.09 -0.03,-0.09 -0.03,-0.1 -0.01,-0.08 -0.01,-0.09 c 0,-0.5 0.5,-1 1,-1 0.46,0 0.71,0.36 0.96,0.66 0.59,0.75 1.73,2.14 3.94,3.23 0.34,0.21 0.84,0.46 0.84,1.05 0,0.5 -0.34,0.75 -0.7,1 -1.1,0.75 -1.64,1.64 -2.05,2.83 -0.09,0.45 -0.3,1.11 -0.99,1.11 -0.7,0 -1,-0.66 -1,-1.05 0,-0.25 0.4,-1.84 1.19,-2.89 h -16.78 c -0.84,0 -1.75,0 -1.75,-1 0,-1 0.91,-1 1.75,-1 z"
             id="path4614" /><path
             style="fill:#000000;stroke-width:0"
             inkscape:connector-curvature="0"
             d="m 474.09,425.03 -0.08,0.17 -0.09,0.17 -0.09,0.16 -0.1,0.16 -0.1,0.16 -0.1,0.16 -0.1,0.15 -0.11,0.14 -0.12,0.15 -0.11,0.13 -0.12,0.14 -0.13,0.13 -0.12,0.12 -0.14,0.12 -0.13,0.11 -0.14,0.11 -0.14,0.11 -0.15,0.09 -0.15,0.1 -0.16,0.08 -0.16,0.08 -0.16,0.08 -0.17,0.06 -0.17,0.07 -0.18,0.05 -0.18,0.05 -0.18,0.04 -0.19,0.03 -0.2,0.03 -0.19,0.02 -0.21,0.01 -0.2,0 0.04,-1.09 c 3.24,0 3.94,-4.08 3.94,-4.37 0,-0.32 -0.09,-0.61 -0.14,-0.86 l -2.5,-9.77 c -0.25,-0.89 -0.25,-0.98 -1,-1.84 -2.19,-2.74 -4.24,-3.53 -5.63,-3.53 -2.48,0 -3.18,2.73 -3.18,4.68 0,2.49 1.59,8.61 2.73,10.91 1.55,2.94 3.8,4.78 5.78,4.78 l -0.04,1.09 c -5.83,0 -12,-7.31 -12,-14.59 0,-4.69 2.73,-7.97 6.62,-7.97 0.98,0 3.48,0.21 6.47,3.74 0.41,-2.1 2.14,-3.74 4.53,-3.74 1.75,0 2.89,1.14 3.69,2.74 0.84,1.79 1.5,4.84 1.5,4.93 0,0.5 -0.45,0.5 -0.6,0.5 -0.5,0 -0.54,-0.2 -0.7,-0.9 -0.84,-3.24 -1.75,-6.17 -3.78,-6.17 -1.34,0 -1.5,1.29 -1.5,2.29 0,1.1 0.09,1.49 0.64,3.69 0.56,2.09 0.66,2.59 1.11,4.48 l 1.78,6.97 c 0.36,1.39 0.36,1.5 0.36,1.69 0,0.86 -0.61,1.36 -1.45,1.36 -1.19,0 -1.94,-1.11 -2.1,-2.2 z"
             id="path4616" /></g>      </g>
      <g
         transform="matrix(0.61856362,0,0,0.61856362,-145.07002,256.89044)"
         id="g4676">
        <g
           style="font-style:normal;font-variant:normal;font-weight:normal;font-stretch:normal;letter-spacing:normal;word-spacing:normal;text-anchor:start;fill:none;stroke:#000000;stroke-linecap:butt;stroke-linejoin:miter;stroke-miterlimit:10.43299961;stroke-opacity:1;stroke-dasharray:none;stroke-dashoffset:0"
           word-spacing="normal"
           letter-spacing="normal"
           font-size-adjust="none"
           font-stretch="normal"
           font-weight="normal"
           font-variant="normal"
           font-style="normal"
           stroke-miterlimit="10.433"
           xml:space="preserve"
           transform="matrix(1.0629921,0,0,-1.0629921,-186.02362,789.27165)"
           id="g4678"><path
             style="fill:#000000;stroke-width:0"
             inkscape:connector-curvature="0"
             id="path4680"
             d="m 476.75,448.92 -0.07,-0.06 -0.07,-0.07 -0.08,-0.07 -0.08,-0.07 -0.08,-0.08 -0.09,-0.08 -0.09,-0.09 -0.1,-0.08 -0.09,-0.09 -0.1,-0.09 -0.19,-0.19 -0.2,-0.2 -0.19,-0.2 -0.09,-0.11 -0.09,-0.1 -0.09,-0.1 -0.08,-0.1 -0.08,-0.11 -0.08,-0.1 -0.07,-0.1 -0.06,-0.1 -0.06,-0.1 -0.06,-0.1 -0.04,-0.1 -0.04,-0.09 -0.03,-0.09 -0.03,-0.09 -0.01,-0.09 0,-0.09 c 0,-0.5 0.5,-1 1,-1 0.45,0 0.7,0.36 0.95,0.66 0.59,0.75 1.73,2.14 3.94,3.24 0.34,0.2 0.84,0.45 0.84,1.04 0,0.5 -0.34,0.75 -0.7,1 -1.1,0.75 -1.64,1.64 -2.05,2.83 -0.09,0.45 -0.3,1.11 -0.98,1.11 -0.71,0 -1,-0.66 -1,-1.05 0,-0.25 0.39,-1.84 1.18,-2.89 h -16.78 c -0.84,0 -1.75,0 -1.75,-1 0,-1 0.91,-1 1.75,-1 z" /><path
             style="fill:#000000;stroke-width:0"
             inkscape:connector-curvature="0"
             id="path4682"
             d="m 467.43,440.23 0,0 0,0.01 0,0 0,0.01 -0.01,0.02 0,0.01 0,0.02 0,0.02 0,0.02 -0.01,0.02 0,0.02 -0.01,0.02 -0.01,0.02 -0.01,0.03 -0.01,0.02 -0.01,0.03 -0.01,0.02 -0.02,0.03 -0.02,0.02 -0.02,0.02 -0.02,0.03 -0.01,0.01 -0.02,0.01 -0.01,0.01 -0.01,0.01 -0.02,0.01 -0.01,0.01 -0.02,0.01 -0.01,0.01 -0.02,0.01 -0.02,0.01 -0.02,0 -0.02,0.01 -0.02,0.01 -0.02,0 -0.02,0.01 -0.02,0.01 -0.03,0 -0.02,0 -0.03,0.01 -0.02,0 -0.03,0 -0.03,0.01 -0.03,0 -0.02,0 c -1.16,0 -4.79,-0.41 -6.08,-0.5 -0.41,-0.05 -0.96,-0.1 -0.96,-1 0,-0.6 0.46,-0.6 1.21,-0.6 2.39,0 2.48,-0.34 2.48,-0.84 0,-0.36 -0.45,-2.05 -0.7,-3.09 l -4.08,-16.24 c -0.59,-2.5 -0.8,-3.3 -0.8,-5.03 0,-4.73 2.64,-7.83 6.33,-7.83 v 1.1 c -1.7,0 -3.34,1.34 -3.34,5.03 0,0.95 0,1.89 0.79,5.03 l 1.1,4.59 c 0.3,1.1 0.3,1.19 0.75,1.74 2.44,3.23 4.69,3.98 5.98,3.98 1.8,0 3.14,-1.48 3.14,-4.69 0,-2.93 -1.65,-8.65 -2.54,-10.56 -1.64,-3.33 -3.94,-5.12 -5.88,-5.12 v -1.1 c 5.88,0 12,7.42 12,14.6 0,4.53 -2.64,7.96 -6.62,7.96 -2.28,0 -4.33,-1.43 -5.83,-2.98 z" /></g>      </g>
      <path
         inkscape:connector-curvature="0"
         id="path5423"
         d="M 35.605777,541.99001 237.17079,490.10653"
         style="fill:none;stroke:#000000;stroke-width:1px;stroke-linecap:butt;stroke-linejoin:miter;stroke-opacity:1;marker-end:url(#marker5160)" />
      <path
         inkscape:connector-curvature="0"
         id="path5807"
         d="M 35.605777,541.99001 89.325837,390.47189"
         style="fill:none;stroke:#000000;stroke-width:1px;stroke-linecap:butt;stroke-linejoin:miter;stroke-opacity:1;marker-end:url(#marker5160)" />
      <path
         inkscape:connector-curvature="0"
         id="path5423-1"
         d="M 90.014557,389.9751 291.57957,338.09162"
         style="fill:none;stroke:#000000;stroke-width:1;stroke-linecap:butt;stroke-linejoin:miter;stroke-miterlimit:4;stroke-opacity:1;stroke-dasharray:8, 8;stroke-dashoffset:0;marker-end:none" />
      <path
         inkscape:connector-curvature="0"
         id="path5807-0"
         d="M 237.8595,490.10654 291.57956,338.58842"
         style="fill:none;stroke:#000000;stroke-width:1;stroke-linecap:butt;stroke-linejoin:miter;stroke-miterlimit:4;stroke-opacity:1;stroke-dasharray:8, 8;stroke-dashoffset:0;marker-end:none" />
      <path
         inkscape:connector-curvature="0"
         id="path6433"
         d="M 35.605777,541.99001 291.34999,338.58842"
         style="fill:none;stroke:#00ff00;stroke-width:1px;stroke-linecap:butt;stroke-linejoin:miter;stroke-opacity:1;marker-end:url(#marker5160-81)" />
      <path
         inkscape:connector-curvature="0"
         id="path5213"
         d="M 35.720465,541.83285 157.79454,510.665"
         style="fill:none;stroke:#ff0000;stroke-width:1px;stroke-linecap:butt;stroke-linejoin:miter;stroke-opacity:1;marker-end:url(#marker5160v)" />
      <path
         inkscape:connector-curvature="0"
         id="path5615"
         d="M 36.064924,541.99001 66.827693,453.37487"
         style="fill:none;stroke:#0000ff;stroke-width:1px;stroke-linecap:butt;stroke-linejoin:miter;stroke-opacity:1;marker-end:url(#marker51608)" />
    </g>
    <path
       sodipodi:type="arc"
       style="fill:none;stroke:#000000;stroke-width:1;stroke-linecap:round;stroke-miterlimit:4;stroke-dasharray:none;stroke-dashoffset:0"
       id="path8942"
       sodipodi:cx="48.487324"
       sodipodi:cy="613.95599"
       sodipodi:rx="242.43661"
       sodipodi:ry="200.01019"
       d="m -61.666293,435.78333 a 242.43661,200.01019 0 1 1 -1.03259,0.43708"
       sodipodi:start="4.2407348"
       sodipodi:end="10.519133"
       sodipodi:open="true"
       transform="translate(4.0406102,-4.0406102)" />
    <g
       transform="matrix(0.59910039,0,0,0.59910039,180.85252,302.1641)"
       style="fill:#ff0000"
       id="g9050">
      <g
         style="font-style:normal;font-variant:normal;font-weight:normal;font-stretch:normal;letter-spacing:normal;word-spacing:normal;text-anchor:start;fill:#ff0000;fill-opacity:1;fill-rule:evenodd;stroke:#000000;stroke-linecap:butt;stroke-linejoin:miter;stroke-miterlimit:10.43299961;stroke-opacity:1;stroke-dasharray:none;stroke-dashoffset:0"
         id="g9052"
         transform="matrix(1.0629921,0,0,-1.0629921,-186.02362,789.27165)"
         xml:space="preserve"
         stroke-miterlimit="10.433"
         font-style="normal"
         font-variant="normal"
         font-weight="normal"
         font-stretch="normal"
         font-size-adjust="none"
         letter-spacing="normal"
         word-spacing="normal"><path
           inkscape:connector-curvature="0"
           style="fill:#ff0000;stroke-width:0"
           d="m 486.07,436.34 0,0.16 0,0.16 0,0.15 0.01,0.15 0.01,0.13 0.01,0.13 0.02,0.13 0.02,0.11 0.03,0.12 0.03,0.1 0.05,0.1 0.05,0.09 0.06,0.09 0.06,0.08 0.08,0.08 0.09,0.07 0.1,0.06 0.11,0.06 0.06,0.03 0.07,0.03 0.06,0.02 0.07,0.03 0.08,0.02 0.08,0.02 0.08,0.02 0.08,0.02 0.09,0.02 0.09,0.02 0.1,0.02 0.1,0.01 0.1,0.01 0.11,0.02 0.12,0.01 0.11,0.01 0.13,0.01 0.12,0.01 0.13,0.01 0.14,0.01 0.14,0 0.15,0.01 0.15,0 0.15,0.01 0.16,0 0.17,0 0.17,0 0.18,0 h 1.2 v 1.55 c -1.75,-0.16 -5.44,-0.16 -7.33,-0.16 -1.89,0 -5.62,0 -7.37,0.16 v -1.55 h 1.2 c 3.83,0 3.94,-0.54 3.94,-2.34 v -11.66 h -14.91 v 11.66 c 0,1.8 0.11,2.34 3.94,2.34 h 1.2 v 1.55 c -1.75,-0.16 -5.43,-0.16 -7.32,-0.16 -1.9,0 -5.63,0 -7.38,0.16 v -1.55 h 1.2 c 3.83,0 3.94,-0.54 3.94,-2.34 v -26.25 c 0,-1.8 -0.11,-2.34 -3.94,-2.34 h -1.2 v -1.55 c 1.75,0.16 5.44,0.16 7.33,0.16 1.89,0 5.62,0 7.37,-0.16 v 1.55 h -1.2 c -3.83,0 -3.94,0.54 -3.94,2.34 v 13.05 h 14.91 v -13.05 c 0,-1.8 -0.11,-2.34 -3.94,-2.34 h -1.2 v -1.55 c 1.75,0.16 5.44,0.16 7.33,0.16 1.89,0 5.62,0 7.37,-0.16 v 1.55 h -1.2 c -3.83,0 -3.92,0.54 -3.92,2.34 z"
           id="path9054" /><path
           inkscape:connector-curvature="0"
           style="fill:#ff0000;stroke-width:0"
           d="m 516.3,416.86 -0.01,0.59 -0.04,0.59 -0.07,0.58 -0.1,0.57 -0.13,0.56 -0.14,0.55 -0.18,0.54 -0.2,0.53 -0.22,0.51 -0.25,0.5 -0.26,0.49 -0.29,0.47 -0.31,0.46 -0.33,0.44 -0.35,0.43 -0.36,0.4 -0.39,0.39 -0.4,0.37 -0.41,0.35 -0.44,0.32 -0.44,0.31 -0.46,0.28 -0.48,0.26 -0.49,0.24 -0.49,0.21 -0.51,0.18 -0.53,0.16 -0.53,0.13 -0.54,0.11 -0.54,0.07 -0.56,0.05 -0.56,0.01 -0.05,-1.09 c 2.19,0 4.33,-1.1 5.63,-3.24 1.29,-2.14 1.29,-5.03 1.29,-6.92 0,-1.8 0,-4.48 -1.09,-6.67 -1.09,-2.25 -3.28,-3.69 -5.78,-3.69 h 0 c -2.14,0 -4.33,1.05 -5.67,3.33 -1.25,2.2 -1.25,5.23 -1.25,7.03 0,1.94 0,4.63 1.18,6.83 1.36,2.28 3.69,3.33 5.69,3.33 l 0.05,1.09 c -6.22,0 -11.06,-5.42 -11.06,-11.65 0,-6.43 5.18,-11.21 11.01,-11.21 6.03,0 11.06,4.88 11.06,11.21 z"
           id="path9056" /><path
           inkscape:connector-curvature="0"
           style="fill:#ff0000;stroke-width:0"
           d="m 523.28,423.34 v -13.36 c 0,-2.23 -0.55,-2.23 -3.89,-2.23 v -1.55 c 1.75,0.05 4.28,0.16 5.62,0.16 1.3,0 3.89,-0.11 5.58,-0.16 v 1.55 c -3.33,0 -3.87,0 -3.87,2.23 v 9.17 c 0,5.19 3.53,7.97 6.71,7.97 3.14,0 3.69,-2.69 3.69,-5.53 v -11.61 c 0,-2.23 -0.55,-2.23 -3.89,-2.23 v -1.55 c 1.75,0.05 4.3,0.16 5.64,0.16 1.3,0 3.88,-0.11 5.58,-0.16 v 1.55 c -3.35,0 -3.89,0 -3.89,2.23 v 9.17 c 0,5.19 3.54,7.97 6.73,7.97 3.14,0 3.69,-2.69 3.69,-5.53 v -11.61 c 0,-2.23 -0.55,-2.23 -3.89,-2.23 v -1.55 c 1.73,0.05 4.28,0.16 5.63,0.16 1.29,0 3.88,-0.11 5.57,-0.16 v 1.55 c -2.57,0 -3.82,0 -3.87,1.5 v 9.51 c 0,4.28 0,5.83 -1.55,7.61 -0.7,0.86 -2.34,1.84 -5.23,1.84 -4.19,0 -6.38,-2.98 -7.22,-4.87 -0.7,4.33 -4.39,4.87 -6.63,4.87 -3.64,0 -5.98,-2.14 -7.37,-5.21 v 5.21 l -7.03,-0.54 v -1.55 c 3.48,0 3.89,-0.34 3.89,-2.78 z"
           id="path9058" /><path
           inkscape:connector-curvature="0"
           style="fill:#ff0000;stroke-width:0"
           d="m 588.21,420.09 0.04,0.08 0.04,0.08 0.02,0.03 0.02,0.04 0.02,0.03 0.03,0.03 0.03,0.03 0.03,0.03 0.04,0.02 0.04,0.03 0.05,0.02 0.05,0.02 0.05,0.02 0.06,0.02 0.07,0.02 0.08,0.02 0.08,0.01 0.09,0.02 0.04,0 0.05,0.01 0.05,0.01 0.06,0 0.05,0.01 0.06,0 0.06,0.01 0.07,0 0.06,0.01 0.07,0 0.07,0 0.07,0.01 0.08,0 0.07,0 0.08,0 0.09,0.01 0.08,0 0.09,0 0.1,0 0.09,0 0.1,0 0.1,0 0.1,0 0.11,0 h 0.94 v 1.96 c -0.52,-0.03 -2.95,-0.14 -4.14,-0.14 -1.33,0 -4.77,0.14 -4.95,0.14 v -1.96 c 1.35,0 2.03,-0.03 2.93,-0.2 l -8.04,-16.7 -8.16,16.9 h 3.06 v 1.96 c -1.84,-0.14 -4.5,-0.14 -6.37,-0.14 -1.67,0 -5.05,0.11 -5.58,0.14 v -1.96 h 3.28 l 10.34,-21.35 c 0.49,-1.02 0.94,-1.02 1.74,-1.02 h 0.53 c 1.16,0 1.36,0.25 1.73,1.05 z"
           id="path9060" /><path
           inkscape:connector-curvature="0"
           style="fill:#ff0000;stroke-width:0"
           d="m 611.68,402.73 0,0.03 0,0.03 0,0.02 -0.01,0.03 0,0.03 -0.01,0.02 0,0.02 -0.01,0.03 0,0.02 -0.01,0.02 -0.01,0.02 -0.01,0.02 -0.01,0.02 -0.01,0.02 -0.01,0.01 -0.01,0.02 -0.03,0.03 -0.02,0.03 -0.03,0.03 -0.04,0.02 -0.03,0.02 -0.03,0.02 -0.04,0.02 -0.04,0.02 -0.04,0.01 -0.04,0.01 -0.05,0.01 -0.04,0.01 -0.05,0.01 -0.04,0.01 -0.05,0 -0.05,0.01 -0.05,0 -0.05,0 -0.09,0 -0.1,0 -0.1,0.01 c -0.81,0 -0.87,-0.04 -1.12,-0.55 -0.52,-1.16 -1.63,-2.49 -4.32,-2.49 -5.61,0 -5.61,4.89 -5.61,6.32 0,2.61 0.43,6.12 5.08,6.12 0.22,0 2.2,-0.03 2.2,-0.17 0,-0.06 -0.03,-0.09 -0.07,-0.14 -0.07,-0.09 -0.38,-0.63 -0.38,-1.39 0,-1.42 1.05,-2.41 2.41,-2.41 1.42,0 2.44,0.99 2.44,2.44 0,3.36 -4.68,3.45 -6.69,3.45 -7.78,0 -9.83,-4.81 -9.83,-8.04 0,-4.08 3.03,-7.94 9.61,-7.94 1.72,0 3.48,0.26 4.89,1.08 1.98,1.18 2.5,2.89 2.5,3.09 z"
           id="path9062" /><path
           inkscape:connector-curvature="0"
           style="fill:#ff0000;stroke-width:0"
           d="m 621.61,412.28 h 5.69 v 1.95 h -5.69 v 6.66 h -2.19 c -0.03,-3.24 -1.67,-6.89 -5.37,-7 v -1.61 h 3.14 v -9.3 c 0,-3.45 2.83,-4.42 5.86,-4.42 2.75,0 4.98,1.59 4.98,4.42 v 1.81 h -2.2 v -1.67 c 0,-2.41 -1.45,-2.8 -2.16,-2.8 -2.01,0 -2.06,1.72 -2.06,2.66 z"
           id="path9064" /><path
           inkscape:connector-curvature="0"
           style="fill:#ff0000;stroke-width:0"
           d="m 649.72,394.25 0,0.02 0,0.03 0,0.01 0,0.02 -0.01,0.01 0,0.02 -0.01,0.01 0,0.02 -0.01,0.02 -0.01,0.02 -0.01,0.02 -0.02,0.03 -0.01,0.02 -0.02,0.03 -0.02,0.03 -0.03,0.03 -0.02,0.03 -0.03,0.04 -0.02,0.02 -0.02,0.02 -0.01,0.02 -0.02,0.02 -0.02,0.02 -0.02,0.03 -0.02,0.02 -0.02,0.02 -0.03,0.03 -0.02,0.02 -0.02,0.03 -0.03,0.03 -0.03,0.03 -0.02,0.03 -0.03,0.03 -0.03,0.03 -0.03,0.03 -0.04,0.03 -0.03,0.04 -0.03,0.03 -0.04,0.04 -0.03,0.03 -0.04,0.04 -0.04,0.04 c -6.22,6.28 -7.81,15.69 -7.81,23.31 0,8.67 1.89,17.35 8.01,23.56 0.64,0.61 0.64,0.71 0.64,0.86 0,0.35 -0.19,0.49 -0.48,0.49 -0.5,0 -4.99,-3.38 -7.92,-9.7 -2.55,-5.49 -3.14,-11.02 -3.14,-15.21 0,-3.89 0.54,-9.9 3.28,-15.54 2.98,-6.13 7.28,-9.36 7.78,-9.36 0.29,0 0.48,0.14 0.48,0.5 z"
           id="path9066" /><path
           inkscape:connector-curvature="0"
           style="fill:#ff0000;stroke-width:0"
           d="m 683.84,434.54 0.22,0.36 0.23,0.33 0.23,0.31 0.22,0.29 0.22,0.28 0.22,0.25 0.22,0.24 0.21,0.22 0.21,0.2 0.21,0.19 0.21,0.17 0.21,0.16 0.21,0.14 0.2,0.13 0.2,0.12 0.2,0.11 0.2,0.09 0.19,0.09 0.2,0.07 0.19,0.07 0.19,0.06 0.19,0.05 0.19,0.04 0.19,0.03 0.18,0.03 0.18,0.03 0.36,0.04 0.36,0.02 0.35,0.02 c 0.59,0.05 0.64,0.89 0.64,0.96 0,0.39 -0.25,0.59 -0.64,0.59 -1.3,0 -2.75,-0.16 -4.1,-0.16 -1.64,0 -3.34,0.16 -4.93,0.16 -0.3,0 -0.94,0 -0.94,-0.95 0,-0.55 0.45,-0.6 0.79,-0.6 1.35,-0.09 2.3,-0.59 2.3,-1.64 0,-0.75 -0.75,-1.84 -0.75,-1.89 l -15.3,-24.31 -3.39,26.34 c 0,0.85 1.14,1.5 3.44,1.5 0.7,0 1.25,0 1.25,1 0,0.44 -0.4,0.55 -0.7,0.55 -1.99,0 -4.14,-0.16 -6.17,-0.16 -0.91,0 -1.85,0.05 -2.75,0.05 -0.89,0 -1.85,0.11 -2.69,0.11 -0.34,0 -0.94,0 -0.94,-0.95 0,-0.6 0.44,-0.6 1.24,-0.6 2.79,0 2.84,-0.45 3,-1.68 l 3.92,-30.75 c 0.15,-1 0.36,-1.14 1,-1.14 0.79,0 1,0.25 1.4,0.89 z"
           id="path9068" /><path
           inkscape:connector-curvature="0"
           style="fill:#ff0000;stroke-width:0"
           d="m 694.47,406.25 -0.01,0.3 -0.01,0.3 -0.02,0.29 -0.02,0.28 -0.03,0.27 -0.04,0.26 -0.05,0.26 -0.05,0.24 -0.06,0.24 -0.06,0.23 -0.07,0.22 -0.08,0.21 -0.08,0.2 -0.09,0.19 -0.1,0.19 -0.1,0.17 -0.1,0.16 -0.12,0.16 -0.11,0.14 -0.13,0.13 -0.12,0.13 -0.14,0.11 -0.14,0.1 -0.14,0.1 -0.15,0.08 -0.15,0.07 -0.16,0.06 -0.17,0.05 -0.16,0.04 -0.18,0.03 -0.17,0.01 -0.18,0.01 c -1.64,0 -2.64,-1.25 -2.64,-2.64 0,-1.34 1,-2.64 2.64,-2.64 0.59,0 1.25,0.2 1.75,0.64 0.14,0.11 0.2,0.16 0.25,0.16 0.04,0 0.09,-0.05 0.09,-0.75 0,-3.69 -1.73,-6.68 -3.39,-8.32 -0.55,-0.54 -0.55,-0.65 -0.55,-0.79 0,-0.36 0.25,-0.55 0.5,-0.55 0.55,0 4.54,3.83 4.54,9.66 z"
           id="path9070" /><path
           inkscape:connector-curvature="0"
           style="fill:#ff0000;stroke-width:0"
           d="m 719.79,421.84 v 1.75 12.3 c 0,1.04 0,2.7 3.08,2.7 4.23,0 6.33,-1.75 6.33,-7.63 0,-6.43 -1.55,-7.37 -9.41,-7.37 v -1.75 h 1.78 l 7.49,-11.56 c 0.48,-0.8 1.69,-2.74 2.23,-3.49 l 1.3,1.16 -8.97,13.89 c 0.35,0.05 0.55,0.11 0.95,0.11 0.74,0 1.85,0.09 2.58,0.19 0.75,-1.19 6.14,-10.07 10.27,-14.19 h -4.83 l -1.3,-1.16 c 0.35,-0.59 0.5,-0.59 1.64,-0.59 h 6.88 c 0.91,0 1.66,0 1.66,0.89 0,0.41 -0.32,0.75 -0.75,0.86 -1.85,0.39 -4.29,3.69 -5.49,5.28 -0.34,0.48 -2.84,3.78 -6.17,9.16 4.42,0.79 8.72,2.68 8.72,8.62 h -1.75 c 0,-3.23 -1.5,-5.78 -6.63,-6.73 h 0 c 1.39,1.84 1.55,4.48 1.55,6.68 0,2.4 -0.3,5.04 -1.89,7.07 2.03,-0.44 6.97,-1.99 6.97,-7.02 h 1.75 c 0,6.92 -7.33,9.31 -13.21,9.31 h -15.65 c -0.89,0 -1.69,0 -1.69,-0.89 0,-0.84 0.95,-0.84 1.34,-0.84 2.85,0 3.1,-0.36 3.1,-2.84 v -24.97 l 1.73,-0.1 v 25.16 c 0,0.5 0,1.84 -0.39,2.75 h 5.67 c -0.64,-0.8 -0.64,-1.8 -0.64,-2.55 v -25.36 c 0,-0.5 0,-1.84 0.39,-2.73 h -5.42 c 0.39,0.89 0.39,2.28 0.39,2.73 l -1.73,0.1 c 0,-2.49 -0.25,-2.83 -3.1,-2.83 -0.39,0 -1.34,0 -1.34,-0.86 0,-0.89 0.8,-0.89 1.69,-0.89 h 13.65 c 0.9,0 1.65,0 1.65,0.89 0,0.86 -0.85,0.86 -1.4,0.86 -2.84,0 -3.03,0.39 -3.03,2.83 z"
           id="path9072" /><path
           inkscape:connector-curvature="0"
           style="fill:#ff0000;stroke-width:0"
           d="m 756.82,418.65 0,0.37 0,0.39 -0.01,0.39 -0.01,0.41 -0.04,0.84 -0.06,0.88 -0.09,0.92 -0.1,0.95 -0.14,0.97 -0.16,1.01 -0.2,1.02 -0.23,1.03 -0.26,1.05 -0.31,1.06 -0.35,1.07 -0.39,1.07 -0.21,0.53 -0.23,0.53 -0.24,0.53 -0.25,0.53 c -2.98,6.12 -7.26,9.36 -7.76,9.36 -0.3,0 -0.5,-0.19 -0.5,-0.49 0,-0.15 0,-0.25 0.94,-1.15 4.88,-4.92 7.73,-12.85 7.73,-23.27 0,-8.51 -1.85,-17.28 -8.03,-23.56 -0.64,-0.59 -0.64,-0.7 -0.64,-0.84 0,-0.3 0.2,-0.5 0.5,-0.5 0.5,0 4.97,3.39 7.92,9.71 2.53,5.47 3.12,11 3.12,15.19 z"
           id="path9074" /></g>    </g>
    <path
       inkscape:connector-curvature="0"
       id="path9193"
       d="m 636.3961,624.0575 286.88325,0"
       style="fill:none;stroke:#000000;stroke-width:1px;stroke-linecap:butt;stroke-linejoin:miter;stroke-opacity:1;marker-end:url(#marker8759)"
       sodipodi:nodetypes="cc" />
    <g
       id="g9524"
       transform="translate(610.13214,309.10668)">
      <g
         word-spacing="normal"
         letter-spacing="normal"
         font-size-adjust="none"
         font-stretch="normal"
         font-weight="normal"
         font-variant="normal"
         font-style="normal"
         stroke-miterlimit="10.433"
         xml:space="preserve"
         transform="matrix(1.0629921,0,0,-1.0629921,-186.02362,789.27165)"
         id="content"
         style="font-style:normal;font-variant:normal;font-weight:normal;font-stretch:normal;letter-spacing:normal;word-spacing:normal;text-anchor:start;fill:none;stroke:#000000;stroke-linecap:butt;stroke-linejoin:miter;stroke-miterlimit:10.43299961;stroke-opacity:1;stroke-dasharray:none;stroke-dashoffset:0"><path
           id="path9527"
           d="m 472.16,421.25 0.03,0.13 0.04,0.15 0.04,0.16 0.04,0.18 0.06,0.19 0.06,0.21 0.06,0.22 0.07,0.22 0.08,0.23 0.09,0.24 0.1,0.25 0.1,0.24 0.11,0.25 0.12,0.25 0.13,0.25 0.14,0.25 0.15,0.24 0.15,0.24 0.17,0.23 0.18,0.22 0.18,0.22 0.2,0.2 0.21,0.19 0.22,0.18 0.23,0.16 0.25,0.14 0.12,0.07 0.13,0.06 0.14,0.05 0.13,0.05 0.14,0.05 0.14,0.04 0.15,0.03 0.15,0.03 0.15,0.02 0.16,0.02 0.16,0.01 0.16,0 c 0.25,0 1.44,0 2.48,-0.64 -1.39,-0.25 -2.39,-1.5 -2.39,-2.69 0,-0.79 0.55,-1.75 1.89,-1.75 1.1,0 2.69,0.89 2.69,2.89 0,2.6 -2.94,3.28 -4.63,3.28 -2.89,0 -4.64,-2.64 -5.23,-3.78 -1.25,3.28 -3.94,3.78 -5.37,3.78 -5.19,0 -8.04,-6.42 -8.04,-7.67 0,-0.5 0.5,-0.5 0.61,-0.5 0.39,0 0.55,0.11 0.64,0.55 1.69,5.28 4.99,6.53 6.68,6.53 0.95,0 2.68,-0.44 2.68,-3.33 0,-1.54 -0.84,-4.89 -2.68,-11.86 -0.8,-3.09 -2.54,-5.18 -4.74,-5.18 -0.3,0 -1.44,0 -2.48,0.65 1.25,0.24 2.34,1.28 2.34,2.69 0,1.34 -1.09,1.73 -1.84,1.73 -1.5,0 -2.75,-1.29 -2.75,-2.89 0,-2.28 2.5,-3.28 4.68,-3.28 3.3,0 5.08,3.49 5.24,3.78 0.59,-1.84 2.39,-3.78 5.37,-3.78 5.14,0 7.99,6.42 7.99,7.67 0,0.5 -0.45,0.5 -0.61,0.5 -0.44,0 -0.55,-0.2 -0.64,-0.54 -1.64,-5.33 -5.03,-6.53 -6.63,-6.53 -1.95,0 -2.75,1.59 -2.75,3.29 0,1.1 0.3,2.19 0.86,4.38 z"
           inkscape:connector-curvature="0"
           style="fill:#000000;stroke-width:0" /></g>    </g>
    <path
       sodipodi:type="arc"
       style="fill:none;stroke:#000000;stroke-width:1;stroke-linecap:round;stroke-miterlimit:4;stroke-dasharray:none;stroke-dashoffset:0"
       id="path8942-8"
       sodipodi:cx="48.487324"
       sodipodi:cy="613.95599"
       sodipodi:rx="202.03052"
       sodipodi:ry="78.791901"
       d="m -43.307359,543.76676 a 202.03052,78.791901 0 1 1 -0.860492,0.17218"
       sodipodi:start="4.2407348"
       sodipodi:end="10.519133"
       sodipodi:open="true"
       transform="translate(745.49197,12.121813)" />
    <rect
       style="fill:none;stroke:none"
       id="rect9657"
       width="1218.2438"
       height="436.38589"
       x="-208.09143"
       y="387.68182" />
  </g>
</svg>
