<?xml version="1.0" encoding="UTF-8" standalone="no"?>
<!-- Created with Inkscape (http://www.inkscape.org/) -->

<svg
   xmlns:dc="http://purl.org/dc/elements/1.1/"
   xmlns:cc="http://creativecommons.org/ns#"
   xmlns:rdf="http://www.w3.org/1999/02/22-rdf-syntax-ns#"
   xmlns:svg="http://www.w3.org/2000/svg"
   xmlns="http://www.w3.org/2000/svg"
   xmlns:sodipodi="http://sodipodi.sourceforge.net/DTD/sodipodi-0.dtd"
   xmlns:inkscape="http://www.inkscape.org/namespaces/inkscape"
   inkscape:export-ydpi="90"
   inkscape:export-xdpi="90"
   inkscape:export-filename="/home/nineties/projects/category-seminar/fig/exponential_prop2.png"
   sodipodi:docname="exponential_prop2.svg"
   inkscape:version="0.48.3.1 r9886"
   version="1.1"
   id="svg2"
   height="744.09448"
   width="1052.3622">
  <sodipodi:namedview
     id="base"
     pagecolor="#ffffff"
     bordercolor="#666666"
     borderopacity="1.0"
     inkscape:pageopacity="0.0"
     inkscape:pageshadow="2"
     inkscape:zoom="0.7"
     inkscape:cx="514.48431"
     inkscape:cy="432.6776"
     inkscape:document-units="px"
     inkscape:current-layer="layer1"
     showgrid="false"
     inkscape:window-width="1366"
     inkscape:window-height="746"
     inkscape:window-x="0"
     inkscape:window-y="22"
     inkscape:window-maximized="0"
     showguides="true"
     inkscape:guide-bbox="true" />
  <defs
     id="defs4">
    <marker
       style="overflow:visible;"
       id="Arrow1Lend"
       refX="0.0"
       refY="0.0"
       orient="auto"
       inkscape:stockid="Arrow1Lend">
      <path
         transform="scale(0.8) rotate(180) translate(12.5,0)"
         style="fill-rule:evenodd;stroke:#000000;stroke-width:1.0pt;"
         d="M 0.0,0.0 L 5.0,-5.0 L -12.5,0.0 L 5.0,5.0 L 0.0,0.0 z "
         id="path4068" />
    </marker>
  </defs>
  <metadata
     id="metadata7">
    <rdf:RDF>
      <cc:Work
         rdf:about="">
        <dc:format>image/svg+xml</dc:format>
        <dc:type
           rdf:resource="http://purl.org/dc/dcmitype/StillImage" />
        <dc:title></dc:title>
      </cc:Work>
    </rdf:RDF>
  </metadata>
  <g
     inkscape:label="レイヤー 1"
     inkscape:groupmode="layer"
     id="layer1"
     transform="translate(0,-308.2677)">
    <g
       transform="translate(-42.074946,132.85714)"
       id="g3123" />
    <path
       inkscape:connector-curvature="0"
       id="path3291"
       d="m 271.42857,556.64789 0,178.57143"
       style="fill:none;stroke:#000000;stroke-width:1;stroke-linecap:butt;stroke-linejoin:miter;stroke-miterlimit:4;stroke-opacity:1;stroke-dasharray:8, 8;stroke-dashoffset:0;marker-end:url(#Arrow1Lend)" />
    <path
       sodipodi:nodetypes="cc"
       inkscape:connector-curvature="0"
       id="path4505"
       d="m 364.28572,766.6479 298.57143,0"
       style="fill:none;stroke:#000000;stroke-width:1px;stroke-linecap:butt;stroke-linejoin:miter;stroke-opacity:1;marker-end:url(#Arrow1Lend)" />
    <path
       sodipodi:nodetypes="cc"
       inkscape:connector-curvature="0"
       id="path4507"
       d="m 297.14285,559.50504 375.71429,180"
       style="fill:none;stroke:#000000;stroke-width:1px;stroke-linecap:butt;stroke-linejoin:miter;stroke-opacity:1;marker-end:url(#Arrow1Lend)" />
    <rect
       style="fill:none;stroke:none"
       id="rect5288"
       width="702.85699"
       height="325.71429"
       x="24.285711"
       y="179.80878"
       transform="translate(0,308.2677)"
       ry="0" />
    <g
       transform="translate(378.57143,430.50608)"
       id="g6985">
      <g
         style="font-style:normal;font-variant:normal;font-weight:normal;font-stretch:normal;letter-spacing:normal;word-spacing:normal;text-anchor:start;fill:none;stroke:#000000;stroke-linecap:butt;stroke-linejoin:miter;stroke-miterlimit:10.43299961;stroke-opacity:1;stroke-dasharray:none;stroke-dashoffset:0"
         word-spacing="normal"
         letter-spacing="normal"
         font-size-adjust="none"
         font-stretch="normal"
         font-weight="normal"
         font-variant="normal"
         font-style="normal"
         stroke-miterlimit="10.433"
         xml:space="preserve"
         transform="matrix(1.0629921,0,0,-1.0629921,-186.02362,789.27165)"
         id="g6987"><path
           style="fill:#000000;stroke-width:0"
           inkscape:connector-curvature="0"
           id="path6989"
           d="m 493.38,440.82 0,0.02 0,0.02 0,0.01 -0.01,0.02 0,0.02 0,0.02 -0.01,0.02 0,0.02 -0.01,0.02 -0.01,0.02 -0.01,0.02 0,0.02 -0.02,0.02 -0.01,0.02 -0.01,0.02 -0.01,0.02 -0.02,0.02 -0.02,0.02 -0.02,0.02 -0.02,0.02 -0.02,0.01 -0.02,0.02 -0.03,0.01 -0.02,0.02 -0.03,0.01 -0.01,0.01 -0.02,0 -0.01,0.01 -0.02,0 -0.02,0.01 -0.01,0 -0.02,0 -0.02,0.01 -0.02,0 -0.02,0 -0.02,0 -0.02,0 -0.02,0 -0.02,0 c -0.14,0 -0.2,-0.04 -0.75,-0.59 l -3.48,-3.84 c -0.44,0.7 -2.74,4.43 -8.27,4.43 -11.11,0 -22.33,-11.01 -22.33,-22.56 0,-8.23 5.89,-13.65 13.52,-13.65 4.33,0 8.11,1.98 10.75,4.28 4.64,4.09 5.48,8.62 5.48,8.76 0,0.5 -0.5,0.5 -0.59,0.5 -0.3,0 -0.55,-0.09 -0.66,-0.5 -0.43,-1.44 -1.59,-4.98 -5.03,-7.87 -3.43,-2.78 -6.58,-3.63 -9.15,-3.63 -4.49,0 -9.77,2.6 -9.77,10.36 0,2.85 1.05,10.91 6.02,16.74 3.04,3.54 7.73,6.03 12.15,6.03 5.1,0 8.03,-3.83 8.03,-9.61 0,-2 -0.15,-2.05 -0.15,-2.55 0,-0.5 0.54,-0.5 0.75,-0.5 0.64,0 0.64,0.11 0.89,1 z" /></g>    </g>
    <g
       transform="translate(198.57143,271.42857)"
       id="g7465">
      <g
         style="font-style:normal;font-variant:normal;font-weight:normal;font-stretch:normal;letter-spacing:normal;word-spacing:normal;text-anchor:start;fill:none;stroke:#000000;stroke-linecap:butt;stroke-linejoin:miter;stroke-miterlimit:10.43299961;stroke-opacity:1;stroke-dasharray:none;stroke-dashoffset:0"
         id="g7467"
         transform="matrix(1.0629921,0,0,-1.0629921,-186.02362,789.27165)"
         xml:space="preserve"
         stroke-miterlimit="10.433"
         font-style="normal"
         font-variant="normal"
         font-weight="normal"
         font-stretch="normal"
         font-size-adjust="none"
         letter-spacing="normal"
         word-spacing="normal"><path
           style="fill:#000000;stroke-width:0"
           inkscape:connector-curvature="0"
           d="m 473.8,426.12 h 4.28 c 1,0 1.5,0 1.5,1 0,0.55 -0.5,0.55 -1.34,0.55 h -4.14 l 1.04,5.69 c 0.21,1.04 0.91,4.57 1.21,5.17 0.45,0.95 1.29,1.7 2.34,1.7 0.19,0 1.49,0 2.44,-0.91 -2.19,-0.18 -2.69,-1.93 -2.69,-2.68 0,-1.14 0.89,-1.74 1.85,-1.74 1.29,0 2.73,1.1 2.73,2.99 0,2.29 -2.3,3.43 -4.33,3.43 -1.7,0 -4.84,-0.89 -6.33,-5.82 -0.29,-1.05 -0.45,-1.55 -1.64,-7.83 h -3.43 c -0.96,0 -1.5,0 -1.5,-0.94 0,-0.61 0.45,-0.61 1.39,-0.61 h 3.29 l -3.75,-19.67 c -0.89,-4.83 -1.73,-9.38 -4.33,-9.38 -0.2,0 -1.43,0 -2.39,0.91 2.3,0.14 2.74,1.94 2.74,2.69 0,1.14 -0.89,1.75 -1.85,1.75 -1.29,0 -2.73,-1.1 -2.73,-3 0,-2.24 2.19,-3.44 4.23,-3.44 2.74,0 4.74,2.94 5.63,4.84 1.59,3.14 2.75,9.16 2.8,9.52 z"
           id="path7469" /></g>    </g>
    <g
       id="g7674"
       transform="translate(-97.142857,184.28571)">
      <g
         word-spacing="normal"
         letter-spacing="normal"
         font-size-adjust="none"
         font-stretch="normal"
         font-weight="normal"
         font-variant="normal"
         font-style="normal"
         stroke-miterlimit="10.433"
         xml:space="preserve"
         transform="matrix(1.0629921,0,0,-1.0629921,-186.02362,789.27165)"
         id="content"
         style="font-style:normal;font-variant:normal;font-weight:normal;font-stretch:normal;letter-spacing:normal;word-spacing:normal;text-anchor:start;fill:none;stroke:#000000;stroke-linecap:butt;stroke-linejoin:miter;stroke-miterlimit:10.43299961;stroke-opacity:1;stroke-dasharray:none;stroke-dashoffset:0"><path
           id="path7677"
           d="m 479.68,426.68 -4.18,9.91 c -0.15,0.41 -0.25,0.59 -0.25,0.64 0,0.31 0.85,1.25 2.94,1.45 0.5,0.05 1,0.1 1,0.96 0,0.59 -0.61,0.59 -0.75,0.59 -2.05,0 -4.19,-0.16 -6.28,-0.16 -1.25,0 -4.33,0.16 -5.58,0.16 -0.29,0 -0.9,0 -0.9,-1 0,-0.55 0.5,-0.55 1.15,-0.55 2.99,0 3.28,-0.5 3.74,-1.59 l 5.87,-13.91 -10.51,-11.31 -0.64,-0.55 c -2.44,-2.64 -4.79,-3.43 -7.33,-3.57 -0.64,-0.05 -1.1,-0.05 -1.1,-1 0,-0.05 0,-0.55 0.66,-0.55 1.48,0 3.12,0.16 4.67,0.16 1.85,0 3.8,-0.16 5.58,-0.16 0.31,0 0.91,0 0.91,1 0,0.5 -0.5,0.55 -0.6,0.55 -0.45,0.04 -2,0.14 -2,1.54 0,0.8 0.75,1.6 1.35,2.24 l 5.07,5.39 4.49,4.87 5.03,-11.9 c 0.2,-0.55 0.25,-0.6 0.25,-0.71 0,-0.39 -0.94,-1.23 -2.89,-1.43 -0.55,-0.05 -0.99,-0.11 -0.99,-0.96 0,-0.59 0.55,-0.59 0.74,-0.59 1.41,0 4.89,0.16 6.28,0.16 1.25,0 4.28,-0.16 5.53,-0.16 0.35,0 0.95,0 0.95,0.95 0,0.6 -0.5,0.6 -0.9,0.6 -3.33,0.04 -3.44,0.2 -4.28,2.18 -1.94,4.64 -5.28,12.41 -6.42,15.39 3.39,3.5 8.6,9.43 10.2,10.82 1.45,1.2 3.34,2.39 6.33,2.54 0.65,0.05 1.09,0.05 1.09,1 0,0.05 0,0.55 -0.64,0.55 -1.5,0 -3.14,-0.16 -4.69,-0.16 -1.84,0 -3.73,0.16 -5.53,0.16 -0.3,0 -0.94,0 -0.94,-1 0,-0.34 0.25,-0.5 0.6,-0.55 0.45,-0.04 2,-0.15 2,-1.54 0,-0.71 -0.55,-1.35 -0.96,-1.8 z"
           inkscape:connector-curvature="0"
           style="fill:#000000;stroke-width:0" /><path
           id="path7679"
           d="m 531.17,420.04 -9.95,9.92 c -0.61,0.6 -0.7,0.71 -1.11,0.71 -0.49,0 -0.99,-0.46 -0.99,-1 0,-0.36 0.1,-0.46 0.65,-1 l 9.96,-10.02 -9.96,-10.01 c -0.55,-0.55 -0.65,-0.64 -0.65,-1 0,-0.55 0.5,-0.99 0.99,-0.99 0.41,0 0.5,0.1 1.11,0.69 l 9.9,9.92 10.32,-10.31 c 0.11,-0.05 0.45,-0.3 0.75,-0.3 0.59,0 1,0.44 1,0.99 0,0.11 0,0.31 -0.16,0.56 -0.05,0.09 -7.97,7.92 -10.45,10.45 l 9.11,9.13 c 0.25,0.29 1,0.93 1.25,1.23 0.04,0.11 0.25,0.3 0.25,0.66 0,0.54 -0.41,1 -1,1 -0.39,0 -0.6,-0.21 -1.14,-0.75 z"
           inkscape:connector-curvature="0"
           style="fill:#000000;stroke-width:0" /><path
           id="path7681"
           d="m 569.56,410.09 -0.04,-0.18 -0.05,-0.17 -0.04,-0.16 -0.04,-0.15 -0.05,-0.15 -0.04,-0.13 -0.05,-0.13 -0.05,-0.12 -0.06,-0.11 -0.06,-0.11 -0.06,-0.1 -0.07,-0.09 -0.08,-0.09 -0.09,-0.07 -0.09,-0.08 -0.1,-0.06 -0.12,-0.07 -0.12,-0.05 -0.14,-0.05 -0.15,-0.05 -0.16,-0.04 -0.08,-0.02 -0.09,-0.01 -0.1,-0.02 -0.09,-0.02 -0.11,-0.01 -0.1,-0.01 -0.11,-0.01 -0.11,-0.02 -0.12,-0.01 -0.12,-0.01 -0.13,0 -0.13,-0.01 -0.13,-0.01 -0.14,0 -0.15,-0.01 -0.15,0 -0.15,-0.01 -0.16,0 -0.17,0 -0.17,0 -0.18,0 -0.18,0 c -0.84,0 -1.34,0 -1.34,-1 0,-0.55 0.45,-0.55 1.34,-0.55 h 17.78 c 7.88,0 13.75,5.87 13.75,10.76 0,3.58 -2.89,6.47 -7.72,7.02 5.19,0.95 10.43,4.64 10.43,9.38 0,3.68 -3.3,6.87 -9.29,6.87 l -0.68,-1.55 c 4.37,0 5.42,-2.93 5.42,-5.12 0,-4.39 -4.28,-9.13 -10.36,-9.13 h -7.27 l -0.29,-1.09 h 9.4 c 4.78,0 5.74,-3.69 5.74,-5.83 0,-4.94 -4.44,-9.76 -10.32,-9.76 h -6.78 c -0.68,0 -0.79,0 -1.09,0.04 -0.5,0.05 -0.64,0.1 -0.64,0.5 0,0.14 0,0.25 0.25,1.14 l 3.44,13.91 0.29,1.09 3.08,12.36 c 0.45,1.74 0.55,1.89 2.71,1.89 h 6.42 l 0.68,1.55 h -16.73 c -0.94,0 -1.44,0 -1.44,-1 0,-0.55 0.44,-0.55 1.39,-0.55 0.1,0 1.05,0 1.89,-0.09 0.89,-0.11 1.35,-0.16 1.35,-0.8 0,-0.2 -0.05,-0.36 -0.21,-0.95 z"
           inkscape:connector-curvature="0"
           style="fill:#000000;stroke-width:0" /></g>    </g>
    <g
       id="g7793"
       transform="translate(-132.85714,430)">
      <g
         id="g7795"
         transform="matrix(1.0629921,0,0,-1.0629921,-186.02362,789.27165)"
         xml:space="preserve"
         stroke-miterlimit="10.433"
         font-style="normal"
         font-variant="normal"
         font-weight="normal"
         font-stretch="normal"
         font-size-adjust="none"
         letter-spacing="normal"
         word-spacing="normal"
         style="font-style:normal;font-variant:normal;font-weight:normal;font-stretch:normal;letter-spacing:normal;word-spacing:normal;text-anchor:start;fill:none;stroke:#000000;stroke-linecap:butt;stroke-linejoin:miter;stroke-miterlimit:10.43299961;stroke-opacity:1;stroke-dasharray:none;stroke-dashoffset:0"><path
           d="m 493.38,440.82 0,0.02 0,0.02 0,0.01 -0.01,0.02 0,0.02 0,0.02 -0.01,0.02 0,0.02 -0.01,0.02 -0.01,0.02 -0.01,0.02 0,0.02 -0.02,0.02 -0.01,0.02 -0.01,0.02 -0.01,0.02 -0.02,0.02 -0.02,0.02 -0.02,0.02 -0.02,0.02 -0.02,0.01 -0.02,0.02 -0.03,0.01 -0.02,0.02 -0.03,0.01 -0.01,0.01 -0.02,0 -0.01,0.01 -0.02,0 -0.02,0.01 -0.01,0 -0.02,0 -0.02,0.01 -0.02,0 -0.02,0 -0.02,0 -0.02,0 -0.02,0 -0.02,0 c -0.14,0 -0.2,-0.04 -0.75,-0.59 l -3.48,-3.84 c -0.44,0.7 -2.74,4.43 -8.27,4.43 -11.11,0 -22.33,-11.01 -22.33,-22.56 0,-8.23 5.89,-13.65 13.52,-13.65 4.33,0 8.11,1.98 10.75,4.28 4.64,4.09 5.48,8.62 5.48,8.76 0,0.5 -0.5,0.5 -0.59,0.5 -0.3,0 -0.55,-0.09 -0.66,-0.5 -0.43,-1.44 -1.59,-4.98 -5.03,-7.87 -3.43,-2.78 -6.58,-3.63 -9.15,-3.63 -4.49,0 -9.77,2.6 -9.77,10.36 0,2.85 1.05,10.91 6.02,16.74 3.04,3.54 7.73,6.03 12.15,6.03 5.1,0 8.03,-3.83 8.03,-9.61 0,-2 -0.15,-2.05 -0.15,-2.55 0,-0.5 0.54,-0.5 0.75,-0.5 0.64,0 0.64,0.11 0.89,1 z"
           id="path7797"
           inkscape:connector-curvature="0"
           style="fill:#000000;stroke-width:0" /><path
           d="m 501.39,426.92 -0.03,-0.11 -0.03,-0.1 -0.03,-0.1 -0.02,-0.1 -0.03,-0.08 -0.03,-0.09 -0.03,-0.08 -0.04,-0.07 -0.03,-0.07 -0.04,-0.07 -0.05,-0.06 -0.05,-0.06 -0.05,-0.05 -0.06,-0.05 -0.06,-0.05 -0.07,-0.04 -0.08,-0.04 -0.08,-0.04 -0.1,-0.03 -0.1,-0.03 -0.11,-0.03 -0.06,-0.01 -0.06,-0.01 -0.06,-0.01 -0.07,-0.01 -0.07,-0.01 -0.07,-0.01 -0.08,-0.01 -0.07,0 -0.08,-0.01 -0.09,-0.01 -0.08,0 -0.09,-0.01 -0.09,0 -0.1,-0.01 -0.1,0 -0.1,0 -0.11,-0.01 -0.11,0 -0.11,0 -0.12,0 -0.12,0 -0.12,0 c -0.58,0 -1.03,0 -1.03,-0.74 0,-0.51 0.4,-0.51 1.03,-0.51 h 13.48 c 5.86,0 10.36,4 10.36,7.45 0,2.49 -2.26,4.61 -5.97,4.99 4.22,0.76 7.75,3.42 7.75,6.4 0,2.66 -2.68,4.96 -7.21,4.96 l -0.57,-1.25 c 3.57,0 4.36,-2.35 4.36,-3.66 0,-2.83 -3.17,-6.03 -7.84,-6.03 h -5.71 l -0.25,-0.99 h 7.39 c 3.27,0 4.54,-2.15 4.54,-4.17 0,-3.45 -3.54,-6.45 -7.74,-6.45 h -5.62 c -1.08,0 -1.11,0.05 -1.11,0.36 0,0.03 0,0.2 0.14,0.72 l 2.4,9.54 0.25,0.99 2.13,8.5 c 0.27,1.08 0.31,1.19 1.77,1.19 h 5.29 l 0.57,1.25 h -12.69 c -0.66,0 -1.11,0 -1.11,-0.77 0,-0.48 0.42,-0.48 1.11,-0.48 0.03,0 0.7,0 1.33,-0.08 0.73,-0.06 0.79,-0.14 0.79,-0.49 0,-0.06 0,-0.23 -0.14,-0.76 z"
           id="path7799"
           inkscape:connector-curvature="0"
           style="fill:#000000;stroke-width:0" /><path
           d="m 559.5,420.04 -9.96,9.92 c -0.61,0.6 -0.7,0.71 -1.11,0.71 -0.48,0 -0.98,-0.46 -0.98,-1 0,-0.36 0.09,-0.46 0.64,-1 l 9.97,-10.02 -9.97,-10.01 c -0.55,-0.55 -0.64,-0.64 -0.64,-1 0,-0.55 0.5,-0.99 0.98,-0.99 0.41,0 0.5,0.1 1.11,0.69 l 9.91,9.92 10.31,-10.31 c 0.11,-0.05 0.46,-0.3 0.75,-0.3 0.59,0 1,0.44 1,0.99 0,0.11 0,0.31 -0.16,0.56 -0.04,0.09 -7.96,7.92 -10.45,10.45 l 9.11,9.13 c 0.25,0.29 1,0.93 1.25,1.23 0.05,0.11 0.25,0.3 0.25,0.66 0,0.54 -0.41,1 -1,1 -0.39,0 -0.59,-0.21 -1.14,-0.75 z"
           id="path7801"
           inkscape:connector-curvature="0"
           style="fill:#000000;stroke-width:0" /><path
           d="m 597.89,410.09 -0.05,-0.18 -0.04,-0.17 -0.05,-0.16 -0.04,-0.15 -0.04,-0.15 -0.05,-0.13 -0.05,-0.13 -0.05,-0.12 -0.05,-0.11 -0.06,-0.11 -0.07,-0.1 -0.07,-0.09 -0.08,-0.09 -0.08,-0.07 -0.1,-0.08 -0.1,-0.06 -0.11,-0.07 -0.13,-0.05 -0.13,-0.05 -0.15,-0.05 -0.16,-0.04 -0.09,-0.02 -0.09,-0.01 -0.09,-0.02 -0.1,-0.02 -0.1,-0.01 -0.11,-0.01 -0.1,-0.01 -0.12,-0.02 -0.12,-0.01 -0.12,-0.01 -0.12,0 -0.13,-0.01 -0.14,-0.01 -0.14,0 -0.15,-0.01 -0.15,0 -0.15,-0.01 -0.16,0 -0.17,0 -0.17,0 -0.17,0 -0.19,0 c -0.84,0 -1.34,0 -1.34,-1 0,-0.55 0.46,-0.55 1.34,-0.55 h 17.79 c 7.87,0 13.75,5.87 13.75,10.76 0,3.58 -2.89,6.47 -7.72,7.02 5.18,0.95 10.42,4.64 10.42,9.38 0,3.68 -3.3,6.87 -9.28,6.87 l -0.69,-1.55 c 4.38,0 5.42,-2.93 5.42,-5.12 0,-4.39 -4.28,-9.13 -10.36,-9.13 h -7.26 l -0.3,-1.09 h 9.41 c 4.78,0 5.73,-3.69 5.73,-5.83 0,-4.94 -4.44,-9.76 -10.31,-9.76 h -6.78 c -0.69,0 -0.8,0 -1.1,0.04 -0.5,0.05 -0.64,0.1 -0.64,0.5 0,0.14 0,0.25 0.25,1.14 l 3.44,13.91 0.3,1.09 3.08,12.36 c 0.45,1.74 0.54,1.89 2.7,1.89 h 6.42 l 0.69,1.55 h -16.74 c -0.93,0 -1.43,0 -1.43,-1 0,-0.55 0.43,-0.55 1.39,-0.55 0.09,0 1.04,0 1.89,-0.09 0.89,-0.11 1.34,-0.16 1.34,-0.8 0,-0.2 -0.04,-0.36 -0.2,-0.95 z"
           id="path7803"
           inkscape:connector-curvature="0"
           style="fill:#000000;stroke-width:0" /></g>    </g>
    <g
       id="g8061"
       transform="translate(-205.71429,307.14286)">
      <g
         id="g8063"
         transform="matrix(1.0629921,0,0,-1.0629921,-186.02362,789.27165)"
         xml:space="preserve"
         stroke-miterlimit="10.433"
         font-style="normal"
         font-variant="normal"
         font-weight="normal"
         font-stretch="normal"
         font-size-adjust="none"
         letter-spacing="normal"
         word-spacing="normal"
         style="font-style:normal;font-variant:normal;font-weight:normal;font-stretch:normal;letter-spacing:normal;word-spacing:normal;text-anchor:start;fill:none;stroke:#000000;stroke-linecap:butt;stroke-linejoin:miter;stroke-miterlimit:10.43299961;stroke-opacity:1;stroke-dasharray:none;stroke-dashoffset:0"><path
           d="m 491.83,455.25 -0.46,-0.38 -0.46,-0.36 -0.47,-0.35 -0.47,-0.33 -0.47,-0.31 -0.48,-0.29 -0.48,-0.27 -0.48,-0.24 -0.24,-0.12 -0.24,-0.11 -0.24,-0.1 -0.24,-0.09 -0.25,-0.09 -0.24,-0.08 -0.24,-0.08 -0.24,-0.07 -0.24,-0.06 -0.24,-0.05 -0.24,-0.05 -0.24,-0.03 -0.24,-0.03 -0.24,-0.02 -0.24,-0.02 -0.24,0 c -1.99,0 -3.44,0.84 -5.17,1.84 -1.46,0.85 -3,1.69 -4.99,1.69 -1.25,0 -2.55,-0.39 -3.64,-0.89 -1,-0.5 -2,-1.05 -2.84,-1.75 l -2.69,-2.19 0.7,-0.84 c 2.44,2.03 5.08,3.53 7.61,3.53 2,0 3.45,-0.84 5.19,-1.84 1.45,-0.85 2.98,-1.69 4.98,-1.69 1.25,0 2.55,0.39 3.64,0.89 0.99,0.5 1.99,1.05 2.83,1.75 l 2.71,2.19 z"
           id="path8065"
           inkscape:connector-curvature="0"
           style="fill:#000000;stroke-width:0" /><path
           d="m 473.8,426.12 h 4.28 c 1,0 1.5,0 1.5,1 0,0.55 -0.5,0.55 -1.34,0.55 h -4.14 l 1.04,5.69 c 0.21,1.04 0.91,4.57 1.21,5.17 0.45,0.95 1.29,1.7 2.34,1.7 0.19,0 1.49,0 2.44,-0.91 -2.19,-0.18 -2.69,-1.93 -2.69,-2.68 0,-1.14 0.89,-1.74 1.85,-1.74 1.29,0 2.73,1.1 2.73,2.99 0,2.29 -2.3,3.43 -4.33,3.43 -1.7,0 -4.84,-0.89 -6.33,-5.82 -0.29,-1.05 -0.45,-1.55 -1.64,-7.83 h -3.43 c -0.96,0 -1.5,0 -1.5,-0.94 0,-0.61 0.45,-0.61 1.39,-0.61 h 3.29 l -3.75,-19.67 c -0.89,-4.83 -1.73,-9.38 -4.33,-9.38 -0.2,0 -1.43,0 -2.39,0.91 2.3,0.14 2.74,1.94 2.74,2.69 0,1.14 -0.89,1.75 -1.85,1.75 -1.29,0 -2.73,-1.1 -2.73,-3 0,-2.24 2.19,-3.44 4.23,-3.44 2.74,0 4.74,2.94 5.63,4.84 1.59,3.14 2.75,9.16 2.8,9.52 z"
           id="path8067"
           inkscape:connector-curvature="0"
           style="fill:#000000;stroke-width:0" /><path
           d="m 515.81,420.04 -9.95,9.92 c -0.61,0.6 -0.7,0.71 -1.11,0.71 -0.48,0 -0.98,-0.46 -0.98,-1 0,-0.36 0.09,-0.46 0.64,-1 l 9.97,-10.02 -9.97,-10.01 c -0.55,-0.55 -0.64,-0.64 -0.64,-1 0,-0.55 0.5,-0.99 0.98,-0.99 0.41,0 0.5,0.1 1.11,0.69 l 9.91,9.92 10.31,-10.31 c 0.11,-0.05 0.45,-0.3 0.75,-0.3 0.59,0 1,0.44 1,0.99 0,0.11 0,0.31 -0.16,0.56 -0.05,0.09 -7.97,7.92 -10.45,10.45 l 9.11,9.13 c 0.25,0.29 1,0.93 1.25,1.23 0.04,0.11 0.25,0.3 0.25,0.66 0,0.54 -0.41,1 -1,1 -0.39,0 -0.6,-0.21 -1.14,-0.75 z"
           id="path8069"
           inkscape:connector-curvature="0"
           style="fill:#000000;stroke-width:0" /><path
           d="m 560.88,438.09 0,0.05 0,0.06 0,0.05 0,0.05 0,0.05 0,0.05 0,0.04 0,0.05 0,0.04 -0.01,0.04 0,0.04 0,0.04 0,0.04 0,0.03 -0.01,0.04 0,0.03 -0.01,0.07 -0.01,0.06 -0.01,0.05 -0.01,0.05 -0.02,0.05 -0.02,0.04 -0.02,0.04 -0.02,0.03 -0.03,0.03 -0.03,0.03 -0.04,0.03 -0.04,0.02 -0.04,0.02 -0.03,0.01 -0.02,0.01 -0.03,0 -0.02,0.01 -0.03,0.01 -0.03,0 -0.03,0.01 -0.04,0 -0.03,0.01 -0.03,0 -0.04,0 -0.04,0.01 -0.04,0 -0.04,0 -0.04,0 -0.04,0 -0.04,0 -0.05,0.01 -0.05,0 -0.05,0 -0.05,0 -0.05,0 c -3.09,-3.19 -7.47,-3.19 -9.06,-3.19 v -1.55 c 1,0 3.93,0 6.51,1.3 v -25.81 c 0,-1.8 -0.14,-2.39 -4.62,-2.39 h -1.6 v -1.55 c 1.75,0.16 6.08,0.16 8.06,0.16 2,0 6.33,0 8.08,-0.16 v 1.55 h -1.59 c -4.49,0 -4.64,0.54 -4.64,2.39 z"
           id="path8071"
           inkscape:connector-curvature="0"
           style="fill:#000000;stroke-width:0" /><path
           d="m 577.82,401.48 -0.02,-0.11 -0.03,-0.1 -0.03,-0.1 -0.03,-0.09 -0.03,-0.09 -0.03,-0.09 -0.03,-0.08 -0.03,-0.07 -0.04,-0.07 -0.04,-0.07 -0.04,-0.06 -0.05,-0.06 -0.05,-0.05 -0.06,-0.05 -0.06,-0.05 -0.07,-0.04 -0.08,-0.04 -0.09,-0.03 -0.09,-0.04 -0.1,-0.03 -0.11,-0.02 -0.06,-0.02 -0.06,-0.01 -0.07,-0.01 -0.06,-0.01 -0.07,-0.01 -0.07,-0.01 -0.08,0 -0.07,-0.01 -0.09,-0.01 -0.08,0 -0.08,-0.01 -0.09,-0.01 -0.1,0 -0.09,0 -0.1,-0.01 -0.1,0 -0.11,0 -0.11,0 -0.11,-0.01 -0.12,0 -0.12,0 -0.12,0 c -0.58,0 -1.03,0 -1.03,-0.73 0,-0.52 0.4,-0.52 1.03,-0.52 h 13.48 c 5.86,0 10.36,4 10.36,7.45 0,2.49 -2.27,4.61 -5.97,4.99 4.22,0.76 7.75,3.42 7.75,6.41 0,2.65 -2.69,4.95 -7.22,4.95 l -0.56,-1.25 c 3.56,0 4.36,-2.35 4.36,-3.66 0,-2.83 -3.17,-6.03 -7.85,-6.03 h -5.7 l -0.25,-0.98 h 7.39 c 3.27,0 4.53,-2.16 4.53,-4.18 0,-3.45 -3.53,-6.45 -7.73,-6.45 h -5.62 c -1.08,0 -1.12,0.05 -1.12,0.36 0,0.03 0,0.2 0.15,0.72 l 2.4,9.55 0.25,0.98 2.13,8.5 c 0.26,1.08 0.31,1.19 1.76,1.19 h 5.3 l 0.56,1.25 h -12.68 c -0.66,0 -1.12,0 -1.12,-0.77 0,-0.48 0.43,-0.48 1.12,-0.48 0.03,0 0.7,0 1.32,-0.08 0.74,-0.06 0.8,-0.14 0.8,-0.48 0,-0.07 0,-0.24 -0.14,-0.77 z"
           id="path8073"
           inkscape:connector-curvature="0"
           style="fill:#000000;stroke-width:0" /></g>    </g>
    <g
       id="g8217"
       transform="translate(168.57143,442.85714)">
      <g
         word-spacing="normal"
         letter-spacing="normal"
         font-size-adjust="none"
         font-stretch="normal"
         font-weight="normal"
         font-variant="normal"
         font-style="normal"
         stroke-miterlimit="10.433"
         xml:space="preserve"
         transform="matrix(1.0629921,0,0,-1.0629921,-186.02362,789.27165)"
         id="g8219"
         style="font-style:normal;font-variant:normal;font-weight:normal;font-stretch:normal;letter-spacing:normal;word-spacing:normal;text-anchor:start;fill:none;stroke:#000000;stroke-linecap:butt;stroke-linejoin:miter;stroke-miterlimit:10.43299961;stroke-opacity:1;stroke-dasharray:none;stroke-dashoffset:0"><path
           id="path8221"
           d="m 462.55,417.51 0.15,-0.06 0.16,-0.06 0.15,-0.06 0.15,-0.05 0.14,-0.05 0.15,-0.04 0.15,-0.05 0.14,-0.03 0.15,-0.04 0.14,-0.03 0.28,-0.06 0.27,-0.05 0.28,-0.03 0.26,-0.03 0.26,-0.02 0.26,-0.02 0.25,-0.01 0.24,-0.01 0.24,0 0.23,0 0.23,0 v 1.09 c -1.09,0 -1.7,0 -2.64,0.25 h 0 c 1.14,0.41 2.19,0.46 3.03,0.46 1.25,0 1.46,-0.05 2.35,-0.3 -0.75,-0.35 -0.85,-0.41 -2.74,-0.41 v -1.09 c 1.3,0 4.03,0 4.03,1.55 0,1.2 -1.75,1.34 -3.64,1.34 -1.04,0 -2.78,-0.09 -4.62,-0.94 -1.16,0.6 -2,1.53 -2,2.88 0,3.04 4.89,4.84 9.37,4.84 0.8,0 2.58,0 4.58,-1.41 0.55,-0.39 0.64,-0.48 1,-0.48 0.64,0 1.34,0.64 1.34,1.34 0,0.94 -3.04,2.83 -6.42,2.83 -5.73,0 -11.11,-3.33 -11.11,-7.12 0,-2.14 1.78,-3.38 1.99,-3.53 -2.94,-1.65 -4.53,-4.44 -4.53,-6.72 0,-3.25 2.84,-6.28 8.12,-6.28 6.58,0 9.36,4.37 9.36,5.12 0,0.3 -0.25,0.5 -0.55,0.5 -0.25,0 -0.39,-0.2 -0.5,-0.34 -0.7,-1.14 -1.89,-2.99 -7.87,-2.99 -3.03,0 -7.27,0.74 -7.27,4.28 0,1.69 1.39,4.33 4.44,5.83 z"
           inkscape:connector-curvature="0"
           style="fill:#000000;stroke-width:0" /></g>    </g>
  </g>
</svg>
