<?xml version="1.0" encoding="UTF-8" standalone="no"?>
<!-- Created with Inkscape (http://www.inkscape.org/) -->

<svg
   xmlns:dc="http://purl.org/dc/elements/1.1/"
   xmlns:cc="http://creativecommons.org/ns#"
   xmlns:rdf="http://www.w3.org/1999/02/22-rdf-syntax-ns#"
   xmlns:svg="http://www.w3.org/2000/svg"
   xmlns="http://www.w3.org/2000/svg"
   xmlns:sodipodi="http://sodipodi.sourceforge.net/DTD/sodipodi-0.dtd"
   xmlns:inkscape="http://www.inkscape.org/namespaces/inkscape"
   sodipodi:docname="foldr_foldl2.svg"
   inkscape:version="0.48.3.1 r9886"
   version="1.1"
   id="svg2"
   height="744.09448"
   width="1052.3622"
   inkscape:export-filename="/home/koichi/work/category-seminar/fig/foldr_foldl2.png"
   inkscape:export-xdpi="90"
   inkscape:export-ydpi="90">
  <sodipodi:namedview
     id="base"
     pagecolor="#ffffff"
     bordercolor="#666666"
     borderopacity="1.0"
     inkscape:pageopacity="0.0"
     inkscape:pageshadow="2"
     inkscape:zoom="0.98994949"
     inkscape:cx="588.39087"
     inkscape:cy="454.38743"
     inkscape:document-units="px"
     inkscape:current-layer="svg2"
     showgrid="false"
     inkscape:window-width="1920"
     inkscape:window-height="1058"
     inkscape:window-x="0"
     inkscape:window-y="22"
     inkscape:window-maximized="0" />
  <defs
     id="defs4">
    <marker
       inkscape:stockid="Arrow1Lstart"
       orient="auto"
       refY="0.0"
       refX="0.0"
       id="Arrow1Lstart"
       style="overflow:visible">
      <path
         id="path4326"
         d="M 0.0,0.0 L 5.0,-5.0 L -12.5,0.0 L 5.0,5.0 L 0.0,0.0 z "
         style="fill-rule:evenodd;stroke:#000000;stroke-width:1.0pt"
         transform="scale(0.8) translate(12.5,0)" />
    </marker>
    <marker
       style="overflow:visible;"
       id="Arrow1Lend"
       refX="0.0"
       refY="0.0"
       orient="auto"
       inkscape:stockid="Arrow1Lend">
      <path
         transform="scale(0.8) rotate(180) translate(12.5,0)"
         style="fill-rule:evenodd;stroke:#000000;stroke-width:1.0pt;"
         d="M 0.0,0.0 L 5.0,-5.0 L -12.5,0.0 L 5.0,5.0 L 0.0,0.0 z "
         id="path4329" />
    </marker>
    <inkscape:perspective
       sodipodi:type="inkscape:persp3d"
       inkscape:vp_x="0 : 372.04724 : 1"
       inkscape:vp_y="0 : 1000 : 0"
       inkscape:vp_z="1052.3622 : 372.04724 : 1"
       inkscape:persp3d-origin="526.18109 : 248.03149 : 1"
       id="perspective2985" />
    <marker
       style="overflow:visible"
       id="Arrow1Lend-5"
       refX="0"
       refY="0"
       orient="auto"
       inkscape:stockid="Arrow1Lend">
      <path
         transform="matrix(-0.8,0,0,-0.8,-10,0)"
         style="fill-rule:evenodd;stroke:#000000;stroke-width:1pt"
         d="M 0,0 5,-5 -12.5,0 5,5 0,0 z"
         id="path4329-5"
         inkscape:connector-curvature="0" />
    </marker>
  </defs>
  <metadata
     id="metadata7">
    <rdf:RDF>
      <cc:Work
         rdf:about="">
        <dc:format>image/svg+xml</dc:format>
        <dc:type
           rdf:resource="http://purl.org/dc/dcmitype/StillImage" />
        <dc:title></dc:title>
      </cc:Work>
    </rdf:RDF>
  </metadata>
  <g
     inkscape:label="レイヤー 1"
     inkscape:groupmode="layer"
     id="layer1"
     transform="translate(0,-308.2677)" />
  <rect
     style="fill:none;stroke:none"
     id="rect6394"
     width="1211.1729"
     height="179.80716"
     x="-61.619305"
     y="180.42935" />
  <g
     transform="translate(-300.0153,-4.0406103)"
     id="g6510">
    <g
       style="font-style:normal;font-variant:normal;font-weight:normal;font-stretch:normal;letter-spacing:normal;word-spacing:normal;text-anchor:start;fill:none;stroke:#000000;stroke-linecap:butt;stroke-linejoin:miter;stroke-miterlimit:10.43299961;stroke-opacity:1;stroke-dasharray:none;stroke-dashoffset:0"
       id="g6512"
       transform="matrix(1.0629921,0,0,-1.0629921,-186.02362,789.27165)"
       xml:space="preserve"
       stroke-miterlimit="10.433"
       font-style="normal"
       font-variant="normal"
       font-weight="normal"
       font-stretch="normal"
       font-size-adjust="none"
       letter-spacing="normal"
       word-spacing="normal"><path
         style="fill:#000000;stroke-width:0"
         inkscape:connector-curvature="0"
         d="m 472,394.25 0,0.02 0,0.03 0,0.01 0,0.02 0,0.01 -0.01,0.02 0,0.01 -0.01,0.02 -0.01,0.02 -0.01,0.02 -0.01,0.02 -0.02,0.03 -0.01,0.02 -0.02,0.03 -0.02,0.03 -0.03,0.03 -0.02,0.03 -0.03,0.04 -0.02,0.02 -0.01,0.02 -0.02,0.02 -0.02,0.02 -0.02,0.02 -0.02,0.03 -0.02,0.02 -0.02,0.02 -0.02,0.03 -0.03,0.02 -0.02,0.03 -0.03,0.03 -0.03,0.03 -0.02,0.03 -0.03,0.03 -0.03,0.03 -0.03,0.03 -0.03,0.03 -0.04,0.04 -0.03,0.03 -0.04,0.04 -0.03,0.03 -0.04,0.04 -0.04,0.04 c -6.22,6.28 -7.81,15.69 -7.81,23.31 0,8.67 1.89,17.35 8.01,23.56 0.64,0.61 0.64,0.71 0.64,0.86 0,0.35 -0.18,0.49 -0.48,0.49 -0.5,0 -4.98,-3.38 -7.92,-9.7 -2.55,-5.49 -3.14,-11.02 -3.14,-15.21 0,-3.89 0.54,-9.9 3.28,-15.54 2.98,-6.13 7.28,-9.36 7.78,-9.36 0.3,0 0.48,0.14 0.48,0.5 z"
         id="path6514" /><path
         style="fill:#000000;stroke-width:0"
         inkscape:connector-curvature="0"
         d="m 491.32,394.25 0,0.02 0,0.03 0,0.01 -0.01,0.02 0,0.01 0,0.02 -0.01,0.01 -0.01,0.02 0,0.02 -0.01,0.02 -0.02,0.02 -0.01,0.03 -0.02,0.02 -0.02,0.03 -0.02,0.03 -0.02,0.03 -0.03,0.03 -0.03,0.04 -0.01,0.02 -0.02,0.02 -0.02,0.02 -0.01,0.02 -0.02,0.02 -0.02,0.03 -0.02,0.02 -0.03,0.02 -0.02,0.03 -0.02,0.02 -0.03,0.03 -0.02,0.03 -0.03,0.03 -0.03,0.03 -0.03,0.03 -0.02,0.03 -0.04,0.03 -0.03,0.03 -0.03,0.04 -0.03,0.03 -0.04,0.04 -0.04,0.03 -0.03,0.04 -0.04,0.04 c -6.22,6.28 -7.82,15.69 -7.82,23.31 0,8.67 1.89,17.35 8.02,23.56 0.64,0.61 0.64,0.71 0.64,0.86 0,0.35 -0.19,0.49 -0.48,0.49 -0.5,0 -4.99,-3.38 -7.93,-9.7 -2.54,-5.49 -3.14,-11.02 -3.14,-15.21 0,-3.89 0.55,-9.9 3.28,-15.54 2.99,-6.13 7.29,-9.36 7.79,-9.36 0.29,0 0.48,0.14 0.48,0.5 z"
         id="path6516" /><path
         style="fill:#000000;stroke-width:0"
         inkscape:connector-curvature="0"
         d="m 510.64,394.25 0,0.02 0,0.03 -0.01,0.01 0,0.02 0,0.01 -0.01,0.02 0,0.01 -0.01,0.02 -0.01,0.02 -0.01,0.02 -0.01,0.02 -0.01,0.03 -0.02,0.02 -0.02,0.03 -0.02,0.03 -0.02,0.03 -0.03,0.03 -0.03,0.04 -0.01,0.02 -0.02,0.02 -0.02,0.02 -0.02,0.02 -0.02,0.02 -0.02,0.03 -0.02,0.02 -0.02,0.02 -0.02,0.03 -0.03,0.02 -0.02,0.03 -0.03,0.03 -0.02,0.03 -0.03,0.03 -0.03,0.03 -0.03,0.03 -0.03,0.03 -0.03,0.03 -0.03,0.04 -0.04,0.03 -0.03,0.04 -0.04,0.03 -0.04,0.04 -0.04,0.04 c -6.22,6.28 -7.81,15.69 -7.81,23.31 0,8.67 1.89,17.35 8.02,23.56 0.64,0.61 0.64,0.71 0.64,0.86 0,0.35 -0.19,0.49 -0.49,0.49 -0.5,0 -4.98,-3.38 -7.92,-9.7 -2.55,-5.49 -3.14,-11.02 -3.14,-15.21 0,-3.89 0.55,-9.9 3.28,-15.54 2.99,-6.13 7.28,-9.36 7.78,-9.36 0.3,0 0.49,0.14 0.49,0.5 z"
         id="path6518" /><path
         style="fill:#000000;stroke-width:0"
         inkscape:connector-curvature="0"
         d="m 530.11,421.25 0.03,0.13 0.03,0.15 0.05,0.16 0.04,0.18 0.06,0.19 0.06,0.21 0.06,0.22 0.07,0.22 0.08,0.23 0.09,0.24 0.1,0.25 0.1,0.24 0.11,0.25 0.12,0.25 0.13,0.25 0.14,0.25 0.14,0.24 0.16,0.24 0.17,0.23 0.17,0.22 0.19,0.22 0.2,0.2 0.21,0.19 0.22,0.18 0.23,0.16 0.25,0.14 0.12,0.07 0.13,0.06 0.14,0.05 0.13,0.05 0.14,0.05 0.14,0.04 0.15,0.03 0.15,0.03 0.15,0.02 0.16,0.02 0.15,0.01 0.17,0 c 0.25,0 1.43,0 2.48,-0.64 -1.39,-0.25 -2.39,-1.5 -2.39,-2.69 0,-0.79 0.55,-1.75 1.89,-1.75 1.09,0 2.69,0.89 2.69,2.89 0,2.6 -2.94,3.28 -4.63,3.28 -2.89,0 -4.64,-2.64 -5.23,-3.78 -1.25,3.28 -3.94,3.78 -5.38,3.78 -5.18,0 -8.03,-6.42 -8.03,-7.67 0,-0.5 0.5,-0.5 0.61,-0.5 0.39,0 0.55,0.11 0.64,0.55 1.69,5.28 4.99,6.53 6.68,6.53 0.95,0 2.68,-0.44 2.68,-3.33 0,-1.54 -0.84,-4.89 -2.68,-11.86 -0.8,-3.09 -2.54,-5.18 -4.74,-5.18 -0.3,0 -1.44,0 -2.48,0.65 1.25,0.24 2.34,1.28 2.34,2.69 0,1.34 -1.09,1.73 -1.84,1.73 -1.5,0 -2.75,-1.29 -2.75,-2.89 0,-2.28 2.5,-3.28 4.68,-3.28 3.3,0 5.08,3.49 5.24,3.78 0.59,-1.84 2.39,-3.78 5.37,-3.78 5.14,0 7.99,6.42 7.99,7.67 0,0.5 -0.46,0.5 -0.61,0.5 -0.44,0 -0.55,-0.2 -0.64,-0.54 -1.64,-5.33 -5.03,-6.53 -6.63,-6.53 -1.95,0 -2.75,1.59 -2.75,3.29 0,1.1 0.3,2.19 0.86,4.38 z"
         id="path6520" /><path
         style="fill:#000000;stroke-width:0"
         inkscape:connector-curvature="0"
         d="m 566.73,429.81 -1.09,-1.69 9.47,-9.47 -9.42,-9.47 -9.46,9.47 9.41,9.47 1.09,1.69 c -0.59,0.61 -0.68,0.7 -1.09,0.7 -0.34,0 -0.45,-0.09 -1,-0.64 l -10.2,-10.22 c -0.55,-0.54 -0.66,-0.65 -0.66,-1 0,-0.2 0.11,-0.39 0.2,-0.59 0.16,-0.1 1.85,-1.8 2.74,-2.69 l 7.08,-7.12 c 0.45,-0.41 1.15,-1.1 1.25,-1.25 0.04,0 0.29,-0.21 0.59,-0.21 0.11,0 0.41,0 0.66,0.25 l 1.23,1.21 8.53,8.51 1.19,1.25 c 0.05,0.05 0.25,0.25 0.25,0.64 0,0.41 -0.16,0.55 -0.64,1.05 z"
         id="path6522" /><path
         style="fill:#000000;stroke-width:0"
         inkscape:connector-curvature="0"
         d="m 591.42,400.12 -0.04,-0.15 -0.03,-0.15 -0.04,-0.14 -0.03,-0.13 -0.03,-0.13 -0.04,-0.11 -0.03,-0.12 -0.04,-0.1 -0.03,-0.1 -0.04,-0.09 -0.05,-0.09 -0.04,-0.08 -0.05,-0.07 -0.06,-0.07 -0.05,-0.07 -0.07,-0.06 -0.06,-0.05 -0.08,-0.05 -0.08,-0.04 -0.08,-0.04 -0.1,-0.04 -0.1,-0.03 -0.11,-0.03 -0.12,-0.02 -0.12,-0.02 -0.07,-0.01 -0.07,-0.01 -0.07,-0.01 -0.07,-0.01 -0.08,0 -0.08,-0.01 -0.08,0 -0.08,-0.01 -0.09,0 -0.09,0 -0.09,0 -0.1,0 -0.1,-0.01 -0.1,0 c -0.59,0 -1.14,0 -1.14,-0.93 0,-0.41 0.25,-0.61 0.64,-0.61 1.36,0 2.8,0.15 4.19,0.15 1.64,0 3.34,-0.15 4.93,-0.15 0.25,0 0.9,0 0.9,1 0,0.54 -0.5,0.54 -1.19,0.54 -2.5,0 -2.5,0.36 -2.5,0.8 0,0.61 2.09,8.72 2.45,9.97 0.64,-1.44 2.03,-3.19 4.58,-3.19 l -0.05,1.1 c -3.29,0 -3.94,4.14 -3.94,4.43 0,0.1 0,0.21 0.15,0.8 l 2.45,9.77 c 0.34,1.34 1.69,2.73 2.58,3.48 1.75,1.55 3.2,1.89 4.04,1.89 1.99,0 3.19,-1.73 3.19,-4.69 0,-2.93 -1.64,-8.65 -2.54,-10.56 -1.69,-3.48 -4.08,-5.12 -5.93,-5.12 l 0.05,-1.1 c 5.78,0 12,7.27 12,14.6 0,4.68 -2.83,7.96 -6.62,7.96 -2.49,0 -4.88,-1.78 -6.52,-3.73 -0.5,2.69 -2.64,3.73 -4.48,3.73 -2.3,0 -3.25,-1.93 -3.69,-2.82 -0.91,-1.71 -1.55,-4.69 -1.55,-4.85 0,-0.5 0.5,-0.5 0.59,-0.5 0.5,0 0.55,0.07 0.85,1.16 0.86,3.53 1.84,5.92 3.64,5.92 0.84,0 1.54,-0.39 1.54,-2.28 0,-1.16 -0.15,-1.7 -0.34,-2.55 z"
         id="path6524" /><path
         style="fill:#000000;stroke-width:0"
         inkscape:connector-curvature="0"
         d="m 628.65,418.65 0,0.37 0,0.39 -0.01,0.39 -0.02,0.41 -0.04,0.84 -0.06,0.88 -0.08,0.92 -0.11,0.95 -0.13,0.97 -0.16,1.01 -0.2,1.02 -0.23,1.03 -0.27,1.05 -0.3,1.06 -0.35,1.07 -0.39,1.07 -0.22,0.53 -0.22,0.53 -0.24,0.53 -0.25,0.53 c -2.98,6.12 -7.27,9.36 -7.77,9.36 -0.29,0 -0.5,-0.19 -0.5,-0.49 0,-0.15 0,-0.25 0.94,-1.15 4.89,-4.92 7.74,-12.85 7.74,-23.27 0,-8.51 -1.85,-17.28 -8.03,-23.56 -0.65,-0.59 -0.65,-0.7 -0.65,-0.84 0,-0.3 0.21,-0.5 0.5,-0.5 0.5,0 4.97,3.39 7.93,9.71 2.53,5.47 3.12,11 3.12,15.19 z"
         id="path6526" /><path
         style="fill:#000000;stroke-width:0"
         inkscape:connector-curvature="0"
         d="m 658.16,429.81 -1.09,-1.69 9.47,-9.47 -9.42,-9.47 -9.46,9.47 9.41,9.47 1.09,1.69 c -0.59,0.61 -0.68,0.7 -1.09,0.7 -0.34,0 -0.45,-0.09 -1,-0.64 l -10.2,-10.22 c -0.55,-0.54 -0.66,-0.65 -0.66,-1 0,-0.2 0.11,-0.39 0.2,-0.59 0.16,-0.1 1.85,-1.8 2.74,-2.69 l 7.08,-7.12 c 0.45,-0.41 1.15,-1.1 1.25,-1.25 0.04,0 0.29,-0.21 0.59,-0.21 0.11,0 0.41,0 0.66,0.25 l 1.23,1.21 8.53,8.51 1.19,1.25 c 0.05,0.05 0.25,0.25 0.25,0.64 0,0.41 -0.16,0.55 -0.64,1.05 z"
         id="path6528" /><path
         style="fill:#000000;stroke-width:0"
         inkscape:connector-curvature="0"
         d="m 703.13,427.67 0,0.02 0,0.02 0,0.02 0,0.02 -0.01,0.02 0,0.02 -0.01,0.02 0,0.02 -0.01,0.02 -0.01,0.02 -0.01,0.02 -0.01,0.03 -0.01,0.02 -0.01,0.02 -0.02,0.02 -0.01,0.01 -0.02,0.02 -0.01,0.02 -0.02,0.02 -0.02,0.01 -0.02,0.02 -0.02,0.01 -0.02,0.02 -0.03,0.01 -0.02,0.01 -0.03,0.01 -0.02,0.01 -0.03,0 -0.03,0.01 -0.03,0 -0.03,0.01 -0.02,0 -0.02,0 c -0.54,0 -2.53,-1.99 -3.37,-3.44 -1.11,2.69 -3.05,3.48 -4.64,3.48 v -1.09 c 3.23,0 3.93,-4.03 3.93,-4.37 0,-0.32 -2.73,-11.22 -2.89,-11.43 -0.75,-1.39 -3.53,-4.57 -6.32,-4.57 h 0 c -2.99,0 -3.19,3.84 -3.19,4.68 0,2.39 1.44,7.82 2.3,9.91 1.53,3.69 4.12,5.78 6.17,5.78 v 1.09 c -5.88,0 -12,-7.37 -12,-14.59 0,-4.87 2.93,-7.97 6.56,-7.97 2.16,0 4.09,1.19 5.89,2.99 -0.45,-1.74 -2.09,-8.47 -2.25,-8.93 -0.39,-1.39 -0.8,-1.59 -3.58,-1.64 -0.65,0 -1.15,0 -1.15,-1 0,-0.04 0,-0.54 0.65,-0.54 1.6,0 3.33,0.15 4.99,0.15 1.68,0 3.48,-0.15 5.12,-0.15 0.25,0 0.89,0 0.89,1 0,0.54 -0.48,0.54 -1.28,0.54 -2.41,0 -2.41,0.36 -2.41,0.8 0,0.36 0.11,0.66 0.21,1.09 z"
         id="path6530" /><path
         style="fill:#000000;stroke-width:0"
         inkscape:connector-curvature="0"
         d="m 719,418.65 0,0.37 0,0.39 -0.01,0.39 -0.01,0.41 -0.04,0.84 -0.06,0.88 -0.09,0.92 -0.1,0.95 -0.14,0.97 -0.16,1.01 -0.2,1.02 -0.23,1.03 -0.26,1.05 -0.31,1.06 -0.35,1.07 -0.39,1.07 -0.21,0.53 -0.23,0.53 -0.24,0.53 -0.25,0.53 c -2.98,6.12 -7.26,9.36 -7.76,9.36 -0.3,0 -0.5,-0.19 -0.5,-0.49 0,-0.15 0,-0.25 0.94,-1.15 4.88,-4.92 7.73,-12.85 7.73,-23.27 0,-8.51 -1.85,-17.28 -8.03,-23.56 -0.64,-0.59 -0.64,-0.7 -0.64,-0.84 0,-0.3 0.2,-0.5 0.5,-0.5 0.5,0 4.97,3.39 7.92,9.71 2.53,5.47 3.12,11 3.12,15.19 z"
         id="path6532" /><path
         style="fill:#000000;stroke-width:0"
         inkscape:connector-curvature="0"
         d="m 748.64,429.81 -1.1,-1.69 9.47,-9.47 -9.42,-9.47 -9.45,9.47 9.4,9.47 1.1,1.69 c -0.6,0.61 -0.69,0.7 -1.1,0.7 -0.34,0 -0.45,-0.09 -1,-0.64 l -10.2,-10.22 c -0.55,-0.54 -0.66,-0.65 -0.66,-1 0,-0.2 0.11,-0.39 0.21,-0.59 0.15,-0.1 1.84,-1.8 2.73,-2.69 l 7.08,-7.12 c 0.45,-0.41 1.15,-1.1 1.25,-1.25 0.05,0 0.3,-0.21 0.59,-0.21 0.11,0 0.41,0 0.66,0.25 l 1.23,1.21 8.54,8.51 1.18,1.25 c 0.05,0.05 0.25,0.25 0.25,0.64 0,0.41 -0.15,0.55 -0.64,1.05 z"
         id="path6534" /><path
         style="fill:#000000;stroke-width:0"
         inkscape:connector-curvature="0"
         d="m 775.48,409.14 -0.02,-0.07 -0.01,-0.08 -0.02,-0.07 -0.01,-0.08 -0.04,-0.16 -0.04,-0.16 -0.03,-0.16 -0.04,-0.16 -0.04,-0.16 -0.04,-0.16 -0.01,-0.08 -0.02,-0.07 -0.02,-0.07 -0.01,-0.07 -0.02,-0.07 -0.01,-0.07 -0.01,-0.06 -0.01,-0.06 -0.01,-0.06 -0.01,-0.05 -0.01,-0.05 -0.01,-0.04 -0.01,-0.04 0,-0.04 0,-0.03 0,-0.02 c 0,-0.89 0.7,-1.35 1.44,-1.35 0.6,0 1.5,0.39 1.84,1.39 0.11,0.21 1.79,6.99 2,7.88 0.39,1.64 1.29,5.12 1.59,6.48 0.2,0.64 1.6,2.99 2.78,4.08 0.41,0.34 1.85,1.64 4,1.64 1.29,0 2.04,-0.59 2.08,-0.59 -1.48,-0.25 -2.58,-1.46 -2.58,-2.74 0,-0.79 0.55,-1.75 1.89,-1.75 1.35,0 2.74,1.14 2.74,2.94 0,1.75 -1.59,3.23 -4.13,3.23 -3.25,0 -5.43,-2.43 -6.39,-3.82 -0.39,2.23 -2.19,3.82 -4.53,3.82 -2.28,0 -3.23,-1.93 -3.69,-2.82 -0.89,-1.71 -1.54,-4.69 -1.54,-4.85 0,-0.5 0.5,-0.5 0.61,-0.5 0.5,0 0.54,0.07 0.84,1.16 0.84,3.53 1.84,5.92 3.64,5.92 0.85,0 1.55,-0.39 1.55,-2.28 0,-1.05 -0.16,-1.61 -0.8,-4.19 z"
         id="path6536" /><path
         style="fill:#000000;stroke-width:0"
         inkscape:connector-curvature="0"
         d="m 809.35,418.65 0,0.37 0,0.39 -0.01,0.39 -0.01,0.41 -0.04,0.84 -0.06,0.88 -0.09,0.92 -0.1,0.95 -0.14,0.97 -0.16,1.01 -0.2,1.02 -0.23,1.03 -0.26,1.05 -0.31,1.06 -0.35,1.07 -0.39,1.07 -0.21,0.53 -0.23,0.53 -0.24,0.53 -0.25,0.53 c -2.98,6.12 -7.26,9.36 -7.76,9.36 -0.3,0 -0.5,-0.19 -0.5,-0.49 0,-0.15 0,-0.25 0.94,-1.15 4.89,-4.92 7.73,-12.85 7.73,-23.27 0,-8.51 -1.84,-17.28 -8.03,-23.56 -0.64,-0.59 -0.64,-0.7 -0.64,-0.84 0,-0.3 0.2,-0.5 0.5,-0.5 0.5,0 4.97,3.39 7.92,9.71 2.53,5.47 3.12,11 3.12,15.19 z"
         id="path6538" /><path
         style="fill:#000000;stroke-width:0"
         inkscape:connector-curvature="0"
         d="m 838.87,429.81 -1.1,-1.69 9.47,-9.47 -9.42,-9.47 -9.45,9.47 9.4,9.47 1.1,1.69 c -0.6,0.61 -0.69,0.7 -1.1,0.7 -0.34,0 -0.45,-0.09 -1,-0.64 l -10.2,-10.22 c -0.55,-0.54 -0.66,-0.65 -0.66,-1 0,-0.2 0.11,-0.39 0.21,-0.59 0.15,-0.1 1.84,-1.8 2.73,-2.69 l 7.08,-7.12 c 0.45,-0.41 1.16,-1.1 1.25,-1.25 0.05,0 0.3,-0.21 0.59,-0.21 0.11,0 0.41,0 0.66,0.25 l 1.23,1.21 8.54,8.51 1.18,1.25 c 0.05,0.05 0.25,0.25 0.25,0.64 0,0.41 -0.15,0.55 -0.64,1.05 z"
         id="path6540" /><path
         style="fill:#000000;stroke-width:0"
         inkscape:connector-curvature="0"
         d="m 880.8,424.84 -0.13,-0.01 -0.12,-0.01 -0.13,-0.02 -0.12,-0.03 -0.12,-0.03 -0.12,-0.04 -0.11,-0.04 -0.11,-0.04 -0.11,-0.05 -0.1,-0.06 -0.1,-0.06 -0.1,-0.06 -0.09,-0.07 -0.09,-0.07 -0.09,-0.07 -0.08,-0.08 -0.08,-0.08 -0.07,-0.08 -0.07,-0.09 -0.06,-0.08 -0.06,-0.09 -0.05,-0.1 -0.05,-0.09 -0.05,-0.1 -0.04,-0.09 -0.04,-0.1 -0.03,-0.1 -0.02,-0.1 -0.02,-0.1 -0.01,-0.11 -0.01,-0.1 -0.01,-0.1 c 0,-0.7 0.44,-1.44 1.55,-1.44 1.09,0 2.28,0.85 2.28,2.78 0,2.25 -2.14,4.28 -5.92,4.28 -6.58,0 -8.42,-5.07 -8.42,-7.26 0,-3.89 3.69,-4.64 5.12,-4.94 2.6,-0.5 5.19,-1.05 5.19,-3.78 0,-1.3 -1.14,-5.48 -7.12,-5.48 -0.71,0 -4.54,0 -5.69,2.64 1.9,-0.25 3.14,1.25 3.14,2.64 0,1.14 -0.8,1.75 -1.84,1.75 -1.3,0 -2.79,-1.05 -2.79,-3.3 0,-2.84 2.85,-4.83 7.13,-4.83 8.06,0 10.01,6.03 10.01,8.27 0,1.79 -0.95,3.04 -1.54,3.64 -1.35,1.39 -2.8,1.64 -4.99,2.09 -1.79,0.39 -3.78,0.75 -3.78,2.99 0,1.45 1.19,4.48 5.58,4.48 1.23,0 3.73,-0.34 4.48,-2.28 z"
         id="path6542" /><path
         style="fill:#000000;stroke-width:0"
         inkscape:connector-curvature="0"
         d="m 932.75,422.5 0.14,0 0.14,0 0.15,0 0.07,0.01 0.07,0 0.08,0.01 0.07,0.01 0.07,0.01 0.07,0.01 0.06,0.01 0.07,0.02 0.07,0.02 0.06,0.02 0.06,0.02 0.06,0.03 0.05,0.03 0.06,0.04 0.05,0.03 0.04,0.05 0.05,0.04 0.04,0.05 0.02,0.03 0.01,0.03 0.02,0.02 0.02,0.03 0.01,0.03 0.01,0.04 0.01,0.03 0.02,0.04 0.01,0.03 0,0.04 0.01,0.04 0.01,0.04 0,0.04 0.01,0.04 0,0.04 0,0.05 c 0,1 -0.96,1 -1.64,1 h -29.85 c -0.7,0 -1.64,0 -1.64,-1 0,-0.98 0.94,-0.98 1.69,-0.98 z"
         id="path6544" /><path
         style="fill:#000000;stroke-width:0"
         inkscape:connector-curvature="0"
         d="m 932.8,412.82 0.06,0 0.07,0 0.13,0.01 0.14,0 0.07,0 0.07,0.01 0.07,0.01 0.07,0 0.07,0.01 0.07,0.02 0.06,0.01 0.07,0.02 0.06,0.02 0.07,0.02 0.05,0.02 0.06,0.03 0.06,0.03 0.05,0.04 0.05,0.04 0.05,0.04 0.04,0.05 0.02,0.02 0.02,0.03 0.02,0.02 0.01,0.03 0.02,0.03 0.02,0.03 0.01,0.03 0.01,0.03 0.01,0.04 0.02,0.03 0.01,0.04 0,0.04 0.01,0.04 0.01,0.04 0,0.04 0.01,0.04 0,0.05 0,0.04 c 0,1 -0.96,1 -1.69,1 H 903 c -0.75,0 -1.69,0 -1.69,-1 0,-1 0.94,-1 1.64,-1 z"
         id="path6546" /><path
         style="fill:#000000;stroke-width:0"
         inkscape:connector-curvature="0"
         d="m 967.56,394.25 0,0.02 0,0.03 0,0.01 -0.01,0.02 0,0.01 0,0.02 -0.01,0.01 -0.01,0.02 -0.01,0.02 -0.01,0.02 -0.01,0.02 -0.01,0.03 -0.02,0.02 -0.02,0.03 -0.02,0.03 -0.02,0.03 -0.03,0.03 -0.03,0.04 -0.01,0.02 -0.02,0.02 -0.02,0.02 -0.02,0.02 -0.01,0.02 -0.02,0.03 -0.03,0.02 -0.02,0.02 -0.02,0.03 -0.02,0.02 -0.03,0.03 -0.02,0.03 -0.03,0.03 -0.03,0.03 -0.03,0.03 -0.03,0.03 -0.03,0.03 -0.03,0.03 -0.03,0.04 -0.04,0.03 -0.03,0.04 -0.04,0.03 -0.04,0.04 -0.03,0.04 c -6.22,6.28 -7.82,15.69 -7.82,23.31 0,8.67 1.89,17.35 8.02,23.56 0.64,0.61 0.64,0.71 0.64,0.86 0,0.35 -0.19,0.49 -0.49,0.49 -0.5,0 -4.98,-3.38 -7.92,-9.7 -2.55,-5.49 -3.14,-11.02 -3.14,-15.21 0,-3.89 0.55,-9.9 3.28,-15.54 2.99,-6.13 7.28,-9.36 7.78,-9.36 0.3,0 0.49,0.14 0.49,0.5 z"
         id="path6548" /><path
         style="fill:#000000;stroke-width:0"
         inkscape:connector-curvature="0"
         d="m 983.94,429.81 -1.1,-1.69 9.47,-9.47 -9.42,-9.47 -9.45,9.47 9.4,9.47 1.1,1.69 c -0.6,0.61 -0.69,0.7 -1.1,0.7 -0.34,0 -0.45,-0.09 -1,-0.64 l -10.2,-10.22 c -0.55,-0.54 -0.66,-0.65 -0.66,-1 0,-0.2 0.11,-0.39 0.21,-0.59 0.15,-0.1 1.84,-1.8 2.73,-2.69 l 7.08,-7.12 c 0.45,-0.41 1.16,-1.1 1.25,-1.25 0.05,0 0.3,-0.21 0.59,-0.21 0.11,0 0.41,0 0.66,0.25 l 1.23,1.21 8.54,8.51 1.18,1.25 c 0.05,0.05 0.25,0.25 0.25,0.64 0,0.41 -0.15,0.55 -0.64,1.05 z"
         id="path6550" /><path
         style="fill:#000000;stroke-width:0"
         inkscape:connector-curvature="0"
         d="m 1031.5,424.84 -0.1,-0.01 -0.1,-0.01 -0.2,-0.02 -0.1,-0.03 -0.1,-0.03 -0.1,-0.04 -0.1,-0.04 -0.2,-0.04 -0.1,-0.05 -0.1,-0.06 -0.1,-0.06 -0.1,-0.06 -0.1,-0.07 0,-0.07 -0.1,-0.07 -0.1,-0.08 -0.1,-0.08 -0.1,-0.08 0,-0.09 -0.1,-0.08 -0.1,-0.09 0,-0.1 -0.1,-0.09 0,-0.1 0,-0.09 -0.1,-0.1 0,-0.1 0,-0.1 -0.1,-0.1 0,-0.11 0,-0.1 0,-0.1 c 0,-0.7 0.5,-1.44 1.6,-1.44 1.1,0 2.2,0.85 2.2,2.78 0,2.25 -2.1,4.28 -5.9,4.28 -6.5,0 -8.4,-5.07 -8.4,-7.26 0,-3.89 3.7,-4.64 5.1,-4.94 2.6,-0.5 5.2,-1.05 5.2,-3.78 0,-1.3 -1.1,-5.48 -7.1,-5.48 -0.7,0 -4.5,0 -5.7,2.64 1.9,-0.25 3.1,1.25 3.1,2.64 0,1.14 -0.7,1.75 -1.8,1.75 -1.3,0 -2.8,-1.05 -2.8,-3.3 0,-2.84 2.9,-4.83 7.2,-4.83 8,0 10,6.03 10,8.27 0,1.79 -1,3.04 -1.6,3.64 -1.3,1.39 -2.8,1.64 -5,2.09 -1.8,0.39 -3.7,0.75 -3.7,2.99 0,1.45 1.1,4.48 5.5,4.48 1.3,0 3.8,-0.34 4.5,-2.28 z"
         id="path6552" /><path
         style="fill:#000000;stroke-width:0"
         inkscape:connector-curvature="0"
         d="m 1049.8,418.65 0,0.37 0,0.39 0,0.39 0,0.41 0,0.84 -0.1,0.88 -0.1,0.92 -0.1,0.95 -0.1,0.97 -0.2,1.01 -0.2,1.02 -0.2,1.03 -0.3,1.05 -0.3,1.06 -0.3,1.07 -0.4,1.07 -0.2,0.53 -0.3,0.53 -0.2,0.53 -0.3,0.53 c -2.9,6.12 -7.2,9.36 -7.7,9.36 -0.3,0 -0.5,-0.19 -0.5,-0.49 0,-0.15 0,-0.25 0.9,-1.15 4.9,-4.92 7.7,-12.85 7.7,-23.27 0,-8.51 -1.8,-17.28 -8,-23.56 -0.6,-0.59 -0.6,-0.7 -0.6,-0.84 0,-0.3 0.2,-0.5 0.5,-0.5 0.5,0 4.9,3.39 7.9,9.71 2.5,5.47 3.1,11 3.1,15.19 z"
         id="path6554" /><path
         style="fill:#000000;stroke-width:0"
         inkscape:connector-curvature="0"
         d="m 1087.9,418.65 0,0.5 0,0.49 -0.1,0.48 -0.1,0.48 -0.1,0.46 -0.1,0.46 -0.2,0.45 -0.2,0.44 -0.2,0.43 -0.2,0.42 -0.2,0.4 -0.3,0.39 -0.2,0.38 -0.3,0.37 -0.3,0.35 -0.4,0.34 -0.3,0.32 -0.4,0.3 -0.3,0.29 -0.4,0.27 -0.4,0.25 -0.4,0.23 -0.4,0.22 -0.4,0.19 -0.5,0.18 -0.4,0.15 -0.5,0.13 -0.4,0.11 -0.5,0.08 -0.5,0.06 -0.5,0.04 -0.5,0.01 c -5.3,0 -9.7,-4.43 -9.7,-9.67 0,-5.28 4.4,-9.65 9.7,-9.65 v 1.98 c -4.3,0 -7.7,3.48 -7.7,7.67 0,4.19 3.5,7.67 7.7,7.67 4.2,0 7.7,-3.39 7.7,-7.67 0,-4.28 -3.5,-7.67 -7.7,-7.67 h 0 V 409 c 5.3,0 9.7,4.32 9.7,9.65 z"
         id="path6556" /><path
         style="fill:#000000;stroke-width:0"
         inkscape:connector-curvature="0"
         d="m 1118.3,394.25 0,0.02 0,0.03 0,0.01 0,0.02 0,0.01 0,0.02 0,0.01 -0.1,0.02 0,0.02 0,0.02 0,0.02 0,0.03 0,0.02 0,0.03 -0.1,0.03 0,0.03 0,0.03 0,0.04 -0.1,0.02 0,0.02 0,0.02 0,0.02 0,0.02 0,0.03 -0.1,0.02 0,0.02 0,0.03 0,0.02 -0.1,0.03 0,0.03 0,0.03 0,0.03 -0.1,0.03 0,0.03 0,0.03 -0.1,0.03 0,0.04 0,0.03 -0.1,0.04 0,0.03 0,0.04 -0.1,0.04 c -6.2,6.28 -7.8,15.69 -7.8,23.31 0,8.67 1.9,17.35 8,23.56 0.7,0.61 0.7,0.71 0.7,0.86 0,0.35 -0.2,0.49 -0.5,0.49 -0.5,0 -5,-3.38 -7.9,-9.7 -2.6,-5.49 -3.2,-11.02 -3.2,-15.21 0,-3.89 0.6,-9.9 3.3,-15.54 3,-6.13 7.3,-9.36 7.8,-9.36 0.3,0 0.5,0.14 0.5,0.5 z"
         id="path6558" /><path
         style="fill:#000000;stroke-width:0"
         inkscape:connector-curvature="0"
         d="m 1134.6,429.81 -1,-1.69 9.4,-9.47 -9.4,-9.47 -9.5,9.47 9.5,9.47 1,1.69 c -0.5,0.61 -0.6,0.7 -1,0.7 -0.4,0 -0.5,-0.09 -1,-0.64 l -10.3,-10.22 c -0.5,-0.54 -0.6,-0.65 -0.6,-1 0,-0.2 0.1,-0.39 0.2,-0.59 0.2,-0.1 1.8,-1.8 2.7,-2.69 l 7.1,-7.12 c 0.5,-0.41 1.2,-1.1 1.3,-1.25 0,0 0.2,-0.21 0.6,-0.21 0.1,0 0.4,0 0.6,0.25 l 1.2,1.21 8.6,8.51 1.2,1.25 c 0,0.05 0.2,0.25 0.2,0.64 0,0.41 -0.2,0.55 -0.6,1.05 z"
         id="path6560" /><path
         style="fill:#000000;stroke-width:0"
         inkscape:connector-curvature="0"
         d="m 1167,409.14 0,-0.07 0,-0.08 0,-0.07 -0.1,-0.08 0,-0.16 0,-0.16 -0.1,-0.16 0,-0.16 0,-0.16 -0.1,-0.16 0,-0.08 0,-0.07 0,-0.07 0,-0.07 -0.1,-0.07 0,-0.07 0,-0.06 0,-0.06 0,-0.06 0,-0.05 0,-0.05 0,-0.04 0,-0.04 0,-0.04 0,-0.03 0,-0.02 c 0,-0.89 0.6,-1.35 1.4,-1.35 0.6,0 1.5,0.39 1.8,1.39 0.1,0.21 1.8,6.99 2,7.88 0.4,1.64 1.3,5.12 1.6,6.48 0.2,0.64 1.6,2.99 2.8,4.08 0.4,0.34 1.9,1.64 4,1.64 1.3,0 2,-0.59 2.1,-0.59 -1.5,-0.25 -2.6,-1.46 -2.6,-2.74 0,-0.79 0.5,-1.75 1.9,-1.75 1.3,0 2.7,1.14 2.7,2.94 0,1.75 -1.6,3.23 -4.1,3.23 -3.2,0 -5.4,-2.43 -6.4,-3.82 -0.4,2.23 -2.2,3.82 -4.5,3.82 -2.3,0 -3.2,-1.93 -3.7,-2.82 -0.9,-1.71 -1.5,-4.69 -1.5,-4.85 0,-0.5 0.5,-0.5 0.6,-0.5 0.5,0 0.5,0.07 0.8,1.16 0.8,3.53 1.8,5.92 3.6,5.92 0.9,0 1.6,-0.39 1.6,-2.28 0,-1.05 -0.2,-1.61 -0.8,-4.19 z"
         id="path6562" /><path
         style="fill:#000000;stroke-width:0"
         inkscape:connector-curvature="0"
         d="m 1200.9,418.65 0,0.37 0,0.39 0,0.39 0,0.41 -0.1,0.84 0,0.88 -0.1,0.92 -0.1,0.95 -0.2,0.97 -0.1,1.01 -0.2,1.02 -0.3,1.03 -0.2,1.05 -0.3,1.06 -0.4,1.07 -0.4,1.07 -0.2,0.53 -0.2,0.53 -0.2,0.53 -0.3,0.53 c -3,6.12 -7.3,9.36 -7.8,9.36 -0.3,0 -0.5,-0.19 -0.5,-0.49 0,-0.15 0,-0.25 1,-1.15 4.9,-4.92 7.7,-12.85 7.7,-23.27 0,-8.51 -1.8,-17.28 -8,-23.56 -0.7,-0.59 -0.7,-0.7 -0.7,-0.84 0,-0.3 0.2,-0.5 0.5,-0.5 0.5,0 5,3.39 8,9.71 2.5,5.47 3.1,11 3.1,15.19 z"
         id="path6564" /><path
         style="fill:#000000;stroke-width:0"
         inkscape:connector-curvature="0"
         d="m 1239.1,418.65 0,0.5 -0.1,0.49 0,0.48 -0.1,0.48 -0.1,0.46 -0.2,0.46 -0.1,0.45 -0.2,0.44 -0.2,0.43 -0.2,0.42 -0.2,0.4 -0.3,0.39 -0.3,0.38 -0.3,0.37 -0.3,0.35 -0.3,0.34 -0.3,0.32 -0.4,0.3 -0.3,0.29 -0.4,0.27 -0.4,0.25 -0.4,0.23 -0.4,0.22 -0.5,0.19 -0.4,0.18 -0.4,0.15 -0.5,0.13 -0.5,0.11 -0.4,0.08 -0.5,0.06 -0.5,0.04 -0.5,0.01 c -5.3,0 -9.7,-4.43 -9.7,-9.67 0,-5.28 4.4,-9.65 9.7,-9.65 v 1.98 c -4.3,0 -7.7,3.48 -7.7,7.67 0,4.19 3.4,7.67 7.7,7.67 4.2,0 7.7,-3.39 7.7,-7.67 0,-4.28 -3.5,-7.67 -7.7,-7.67 h 0 V 409 c 5.3,0 9.7,4.32 9.7,9.65 z"
         id="path6566" /><path
         style="fill:#000000;stroke-width:0"
         inkscape:connector-curvature="0"
         d="m 1269.3,394.25 0,0.02 0,0.03 0,0.01 0,0.02 0,0.01 0,0.02 0,0.01 0,0.02 0,0.02 0,0.02 0,0.02 0,0.03 -0.1,0.02 0,0.03 0,0.03 0,0.03 0,0.03 -0.1,0.04 0,0.02 0,0.02 0,0.02 0,0.02 -0.1,0.02 0,0.03 0,0.02 0,0.02 -0.1,0.03 0,0.02 0,0.03 0,0.03 -0.1,0.03 0,0.03 0,0.03 0,0.03 -0.1,0.03 0,0.03 0,0.04 -0.1,0.03 0,0.04 0,0.03 -0.1,0.04 0,0.04 c -6.2,6.28 -7.8,15.69 -7.8,23.31 0,8.67 1.9,17.35 8,23.56 0.6,0.61 0.6,0.71 0.6,0.86 0,0.35 -0.2,0.49 -0.5,0.49 -0.5,0 -4.9,-3.38 -7.9,-9.7 -2.5,-5.49 -3.1,-11.02 -3.1,-15.21 0,-3.89 0.5,-9.9 3.3,-15.54 3,-6.13 7.2,-9.36 7.7,-9.36 0.3,0 0.5,0.14 0.5,0.5 z"
         id="path6568" /><path
         style="fill:#000000;stroke-width:0"
         inkscape:connector-curvature="0"
         d="m 1285.7,429.81 -1.1,-1.69 9.5,-9.47 -9.4,-9.47 -9.5,9.47 9.4,9.47 1.1,1.69 c -0.6,0.61 -0.7,0.7 -1.1,0.7 -0.3,0 -0.4,-0.09 -1,-0.64 l -10.2,-10.22 c -0.5,-0.54 -0.6,-0.65 -0.6,-1 0,-0.2 0.1,-0.39 0.2,-0.59 0.1,-0.1 1.8,-1.8 2.7,-2.69 l 7.1,-7.12 c 0.4,-0.41 1.1,-1.1 1.2,-1.25 0.1,0 0.3,-0.21 0.6,-0.21 0.1,0 0.4,0 0.7,0.25 l 1.2,1.21 8.5,8.51 1.2,1.25 c 0.1,0.05 0.3,0.25 0.3,0.64 0,0.41 -0.2,0.55 -0.7,1.05 z"
         id="path6570" /><path
         style="fill:#000000;stroke-width:0"
         inkscape:connector-curvature="0"
         d="m 1336.3,427.67 0,0.02 0,0.02 0,0.02 0,0.02 0,0.02 0,0.02 0,0.02 0,0.02 0,0.02 0,0.02 0,0.02 -0.1,0.03 0,0.02 0,0.02 0,0.02 0,0.01 0,0.02 0,0.02 -0.1,0.02 0,0.01 0,0.02 0,0.01 0,0.02 -0.1,0.01 0,0.01 0,0.01 0,0.01 -0.1,0 0,0.01 0,0 -0.1,0.01 0,0 0,0 c -0.5,0 -2.5,-1.99 -3.4,-3.44 -1.1,2.69 -3,3.48 -4.6,3.48 v -1.09 c 3.2,0 3.9,-4.03 3.9,-4.37 0,-0.32 -2.7,-11.22 -2.9,-11.43 -0.7,-1.39 -3.5,-4.57 -6.3,-4.57 h 0 c -3,0 -3.2,3.84 -3.2,4.68 0,2.39 1.5,7.82 2.3,9.91 1.6,3.69 4.2,5.78 6.2,5.78 v 1.09 c -5.9,0 -12,-7.37 -12,-14.59 0,-4.87 2.9,-7.97 6.6,-7.97 2.1,0 4,1.19 5.8,2.99 -0.4,-1.74 -2,-8.47 -2.2,-8.93 -0.4,-1.39 -0.8,-1.59 -3.6,-1.64 -0.6,0 -1.1,0 -1.1,-1 0,-0.04 0,-0.54 0.6,-0.54 1.6,0 3.3,0.15 5,0.15 1.7,0 3.5,-0.15 5.1,-0.15 0.3,0 0.9,0 0.9,1 0,0.54 -0.5,0.54 -1.3,0.54 -2.4,0 -2.4,0.36 -2.4,0.8 0,0.36 0.1,0.66 0.2,1.09 z"
         id="path6572" /><path
         style="fill:#000000;stroke-width:0"
         inkscape:connector-curvature="0"
         d="m 1352.2,418.65 0,0.37 0,0.39 0,0.39 0,0.41 -0.1,0.84 0,0.88 -0.1,0.92 -0.1,0.95 -0.2,0.97 -0.1,1.01 -0.2,1.02 -0.3,1.03 -0.2,1.05 -0.3,1.06 -0.4,1.07 -0.4,1.07 -0.2,0.53 -0.2,0.53 -0.2,0.53 -0.3,0.53 c -3,6.12 -7.3,9.36 -7.8,9.36 -0.3,0 -0.5,-0.19 -0.5,-0.49 0,-0.15 0,-0.25 1,-1.15 4.9,-4.92 7.7,-12.85 7.7,-23.27 0,-8.51 -1.8,-17.28 -8,-23.56 -0.7,-0.59 -0.7,-0.7 -0.7,-0.84 0,-0.3 0.2,-0.5 0.5,-0.5 0.5,0 5,3.39 8,9.71 2.5,5.47 3.1,11 3.1,15.19 z"
         id="path6574" /><path
         style="fill:#000000;stroke-width:0"
         inkscape:connector-curvature="0"
         d="m 1390.4,418.65 0,0.5 -0.1,0.49 0,0.48 -0.1,0.48 -0.1,0.46 -0.1,0.46 -0.2,0.45 -0.2,0.44 -0.2,0.43 -0.2,0.42 -0.2,0.4 -0.3,0.39 -0.3,0.38 -0.2,0.37 -0.4,0.35 -0.3,0.34 -0.3,0.32 -0.4,0.3 -0.3,0.29 -0.4,0.27 -0.4,0.25 -0.4,0.23 -0.4,0.22 -0.5,0.19 -0.4,0.18 -0.4,0.15 -0.5,0.13 -0.5,0.11 -0.4,0.08 -0.5,0.06 -0.5,0.04 -0.5,0.01 c -5.4,0 -9.7,-4.43 -9.7,-9.67 0,-5.28 4.3,-9.65 9.7,-9.65 v 1.98 c -4.3,0 -7.7,3.48 -7.7,7.67 0,4.19 3.4,7.67 7.7,7.67 4.2,0 7.7,-3.39 7.7,-7.67 0,-4.28 -3.5,-7.67 -7.7,-7.67 h 0 V 409 c 5.3,0 9.7,4.32 9.7,9.65 z"
         id="path6576" /><path
         style="fill:#000000;stroke-width:0"
         inkscape:connector-curvature="0"
         d="m 1420.6,394.25 0,0.02 0,0.03 0,0.01 0,0.02 0,0.01 0,0.02 0,0.01 0,0.02 0,0.02 0,0.02 0,0.02 0,0.03 0,0.02 -0.1,0.03 0,0.03 0,0.03 0,0.03 -0.1,0.04 0,0.02 0,0.02 0,0.02 0,0.02 -0.1,0.02 0,0.03 0,0.02 0,0.02 0,0.03 -0.1,0.02 0,0.03 0,0.03 0,0.03 -0.1,0.03 0,0.03 0,0.03 -0.1,0.03 0,0.03 0,0.04 -0.1,0.03 0,0.04 0,0.03 -0.1,0.04 0,0.04 c -6.2,6.28 -7.8,15.69 -7.8,23.31 0,8.67 1.9,17.35 8,23.56 0.6,0.61 0.6,0.71 0.6,0.86 0,0.35 -0.2,0.49 -0.4,0.49 -0.5,0 -5,-3.38 -8,-9.7 -2.5,-5.49 -3.1,-11.02 -3.1,-15.21 0,-3.89 0.5,-9.9 3.3,-15.54 3,-6.13 7.3,-9.36 7.8,-9.36 0.2,0 0.4,0.14 0.4,0.5 z"
         id="path6578" /><path
         style="fill:#000000;stroke-width:0"
         inkscape:connector-curvature="0"
         d="m 1437,429.81 -1.1,-1.69 9.5,-9.47 -9.4,-9.47 -9.5,9.47 9.4,9.47 1.1,1.69 c -0.6,0.61 -0.7,0.7 -1.1,0.7 -0.3,0 -0.4,-0.09 -1,-0.64 l -10.2,-10.22 c -0.5,-0.54 -0.6,-0.65 -0.6,-1 0,-0.2 0.1,-0.39 0.2,-0.59 0.1,-0.1 1.8,-1.8 2.7,-2.69 l 7.1,-7.12 c 0.4,-0.41 1.1,-1.1 1.2,-1.25 0.1,0 0.3,-0.21 0.6,-0.21 0.1,0 0.4,0 0.7,0.25 l 1.2,1.21 8.5,8.51 1.2,1.25 c 0.1,0.05 0.3,0.25 0.3,0.64 0,0.41 -0.2,0.55 -0.7,1.05 z"
         id="path6580" /><path
         style="fill:#000000;stroke-width:0"
         inkscape:connector-curvature="0"
         d="m 1467.3,400.12 0,-0.15 0,-0.15 -0.1,-0.14 0,-0.13 0,-0.13 -0.1,-0.11 0,-0.12 0,-0.1 -0.1,-0.1 0,-0.09 -0.1,-0.09 0,-0.08 0,-0.07 -0.1,-0.07 -0.1,-0.07 0,-0.06 -0.1,-0.05 -0.1,-0.05 0,-0.04 -0.1,-0.04 -0.1,-0.04 -0.1,-0.03 -0.1,-0.03 -0.2,-0.02 -0.1,-0.02 0,-0.01 -0.1,-0.01 -0.1,-0.01 -0.1,-0.01 0,0 -0.1,-0.01 -0.1,0 -0.1,-0.01 -0.1,0 -0.1,0 -0.1,0 0,0 -0.1,-0.01 -0.1,0 c -0.6,0 -1.2,0 -1.2,-0.93 0,-0.41 0.3,-0.61 0.7,-0.61 1.3,0 2.7,0.15 4.1,0.15 1.7,0 3.4,-0.15 5,-0.15 0.2,0 0.9,0 0.9,1 0,0.54 -0.5,0.54 -1.2,0.54 -2.5,0 -2.5,0.36 -2.5,0.8 0,0.61 2.1,8.72 2.4,9.97 0.7,-1.44 2.1,-3.19 4.6,-3.19 l 0,1.1 c -3.3,0 -4,4.14 -4,4.43 0,0.1 0,0.21 0.2,0.8 l 2.4,9.77 c 0.4,1.34 1.7,2.73 2.6,3.48 1.7,1.55 3.2,1.89 4.1,1.89 1.9,0 3.1,-1.73 3.1,-4.69 0,-2.93 -1.6,-8.65 -2.5,-10.56 -1.7,-3.48 -4.1,-5.12 -5.9,-5.12 l 0,-1.1 c 5.8,0 12,7.27 12,14.6 0,4.68 -2.8,7.96 -6.6,7.96 -2.5,0 -4.9,-1.78 -6.5,-3.73 -0.5,2.69 -2.7,3.73 -4.5,3.73 -2.3,0 -3.3,-1.93 -3.7,-2.82 -0.9,-1.71 -1.5,-4.69 -1.5,-4.85 0,-0.5 0.5,-0.5 0.5,-0.5 0.6,0 0.6,0.07 0.9,1.16 0.8,3.53 1.8,5.92 3.6,5.92 0.9,0 1.6,-0.39 1.6,-2.28 0,-1.16 -0.2,-1.7 -0.4,-2.55 z"
         id="path6582" /><path
         style="fill:#000000;stroke-width:0"
         inkscape:connector-curvature="0"
         d="m 1504.6,418.65 0,0.37 0,0.39 0,0.39 -0.1,0.41 0,0.84 -0.1,0.88 0,0.92 -0.1,0.95 -0.2,0.97 -0.1,1.01 -0.2,1.02 -0.3,1.03 -0.2,1.05 -0.3,1.06 -0.4,1.07 -0.4,1.07 -0.2,0.53 -0.2,0.53 -0.3,0.53 -0.2,0.53 c -3,6.12 -7.3,9.36 -7.8,9.36 -0.3,0 -0.5,-0.19 -0.5,-0.49 0,-0.15 0,-0.25 1,-1.15 4.9,-4.92 7.7,-12.85 7.7,-23.27 0,-8.51 -1.8,-17.28 -8,-23.56 -0.7,-0.59 -0.7,-0.7 -0.7,-0.84 0,-0.3 0.2,-0.5 0.5,-0.5 0.5,0 5,3.39 7.9,9.71 2.6,5.47 3.2,11 3.2,15.19 z"
         id="path6584" /><path
         style="fill:#000000;stroke-width:0"
         inkscape:connector-curvature="0"
         d="m 1526,394.25 0,0.02 0,0.03 0,0.01 0,0.02 0,0.01 0,0.02 0,0.01 0,0.02 -0.1,0.02 0,0.02 0,0.02 0,0.03 0,0.02 0,0.03 0,0.03 -0.1,0.03 0,0.03 0,0.04 0,0.02 -0.1,0.02 0,0.02 0,0.02 0,0.02 0,0.03 -0.1,0.02 0,0.02 0,0.03 0,0.02 0,0.03 -0.1,0.03 0,0.03 0,0.03 -0.1,0.03 0,0.03 0,0.03 0,0.03 -0.1,0.04 0,0.03 0,0.04 -0.1,0.03 0,0.04 -0.1,0.04 c -6.2,6.28 -7.8,15.69 -7.8,23.31 0,8.67 1.9,17.35 8,23.56 0.7,0.61 0.7,0.71 0.7,0.86 0,0.35 -0.2,0.49 -0.5,0.49 -0.5,0 -5,-3.38 -7.9,-9.7 -2.6,-5.49 -3.2,-11.02 -3.2,-15.21 0,-3.89 0.6,-9.9 3.3,-15.54 3,-6.13 7.3,-9.36 7.8,-9.36 0.3,0 0.5,0.14 0.5,0.5 z"
         id="path6586" /><path
         style="fill:#000000;stroke-width:0"
         inkscape:connector-curvature="0"
         d="m 1545.5,421.25 0,0.13 0,0.15 0.1,0.16 0,0.18 0.1,0.19 0,0.21 0.1,0.22 0.1,0.22 0,0.23 0.1,0.24 0.1,0.25 0.1,0.24 0.1,0.25 0.2,0.25 0.1,0.25 0.1,0.25 0.2,0.24 0.1,0.24 0.2,0.23 0.2,0.22 0.2,0.22 0.2,0.2 0.2,0.19 0.2,0.18 0.2,0.16 0.3,0.14 0.1,0.07 0.1,0.06 0.1,0.05 0.2,0.05 0.1,0.05 0.2,0.04 0.1,0.03 0.2,0.03 0.1,0.02 0.2,0.02 0.1,0.01 0.2,0 c 0.2,0 1.4,0 2.5,-0.64 -1.4,-0.25 -2.4,-1.5 -2.4,-2.69 0,-0.79 0.5,-1.75 1.9,-1.75 1.1,0 2.7,0.89 2.7,2.89 0,2.6 -3,3.28 -4.7,3.28 -2.8,0 -4.6,-2.64 -5.2,-3.78 -1.2,3.28 -3.9,3.78 -5.4,3.78 -5.2,0 -8,-6.42 -8,-7.67 0,-0.5 0.5,-0.5 0.6,-0.5 0.4,0 0.6,0.11 0.7,0.55 1.6,5.28 4.9,6.53 6.6,6.53 1,0 2.7,-0.44 2.7,-3.33 0,-1.54 -0.8,-4.89 -2.7,-11.86 -0.8,-3.09 -2.5,-5.18 -4.7,-5.18 -0.3,0 -1.4,0 -2.5,0.65 1.3,0.24 2.3,1.28 2.3,2.69 0,1.34 -1,1.73 -1.8,1.73 -1.5,0 -2.8,-1.29 -2.8,-2.89 0,-2.28 2.6,-3.28 4.7,-3.28 3.3,0 5.1,3.49 5.3,3.78 0.6,-1.84 2.4,-3.78 5.4,-3.78 5.1,0 7.9,6.42 7.9,7.67 0,0.5 -0.4,0.5 -0.6,0.5 -0.4,0 -0.5,-0.2 -0.6,-0.54 -1.7,-5.33 -5.1,-6.53 -6.6,-6.53 -2,0 -2.8,1.59 -2.8,3.29 0,1.1 0.3,2.19 0.9,4.38 z"
         id="path6588" /><path
         style="fill:#000000;stroke-width:0"
         inkscape:connector-curvature="0"
         d="m 1571.6,418.65 0,0.37 0,0.39 0,0.39 0,0.41 0,0.84 -0.1,0.88 -0.1,0.92 -0.1,0.95 -0.1,0.97 -0.2,1.01 -0.2,1.02 -0.2,1.03 -0.3,1.05 -0.3,1.06 -0.3,1.07 -0.4,1.07 -0.2,0.53 -0.3,0.53 -0.2,0.53 -0.2,0.53 c -3,6.12 -7.3,9.36 -7.8,9.36 -0.3,0 -0.5,-0.19 -0.5,-0.49 0,-0.15 0,-0.25 0.9,-1.15 4.9,-4.92 7.8,-12.85 7.8,-23.27 0,-8.51 -1.9,-17.28 -8.1,-23.56 -0.6,-0.59 -0.6,-0.7 -0.6,-0.84 0,-0.3 0.2,-0.5 0.5,-0.5 0.5,0 5,3.39 7.9,9.71 2.6,5.47 3.1,11 3.1,15.19 z"
         id="path6590" /></g>  </g>
  <g
     id="g6862"
     transform="translate(-298.12472,-81.822356)">
    <g
       word-spacing="normal"
       letter-spacing="normal"
       font-size-adjust="none"
       font-stretch="normal"
       font-weight="normal"
       font-variant="normal"
       font-style="normal"
       stroke-miterlimit="10.433"
       xml:space="preserve"
       transform="matrix(1.0629921,0,0,-1.0629921,-186.02362,789.27165)"
       id="g6864"
       style="font-style:normal;font-variant:normal;font-weight:normal;font-stretch:normal;letter-spacing:normal;word-spacing:normal;text-anchor:start;fill:none;stroke:#000000;stroke-linecap:butt;stroke-linejoin:miter;stroke-miterlimit:10.43299961;stroke-opacity:1;stroke-dasharray:none;stroke-dashoffset:0"><path
         id="path6866"
         d="m 457.75,400.12 -0.03,-0.15 -0.04,-0.15 -0.03,-0.14 -0.03,-0.13 -0.04,-0.13 -0.03,-0.11 -0.04,-0.12 -0.03,-0.1 -0.04,-0.1 -0.04,-0.09 -0.04,-0.09 -0.05,-0.08 -0.05,-0.07 -0.05,-0.07 -0.06,-0.07 -0.06,-0.06 -0.07,-0.05 -0.07,-0.05 -0.08,-0.04 -0.09,-0.04 -0.09,-0.04 -0.1,-0.03 -0.11,-0.03 -0.12,-0.02 -0.13,-0.02 -0.06,-0.01 -0.07,-0.01 -0.07,-0.01 -0.08,-0.01 -0.07,0 -0.08,-0.01 -0.08,0 -0.09,-0.01 -0.08,0 -0.09,0 -0.1,0 -0.09,0 -0.1,-0.01 -0.1,0 c -0.6,0 -1.14,0 -1.14,-0.93 0,-0.41 0.25,-0.61 0.64,-0.61 1.36,0 2.79,0.15 4.18,0.15 1.64,0 3.35,-0.15 4.94,-0.15 0.25,0 0.89,0 0.89,1 0,0.54 -0.5,0.54 -1.19,0.54 -2.5,0 -2.5,0.36 -2.5,0.8 0,0.61 2.1,8.72 2.46,9.97 0.64,-1.44 2.03,-3.19 4.58,-3.19 l -0.05,1.1 c -3.3,0 -3.94,4.14 -3.94,4.43 0,0.1 0,0.21 0.14,0.8 l 2.46,9.77 c 0.34,1.34 1.68,2.73 2.57,3.48 1.75,1.55 3.21,1.89 4.05,1.89 1.98,0 3.19,-1.73 3.19,-4.69 0,-2.93 -1.64,-8.65 -2.55,-10.56 -1.69,-3.48 -4.08,-5.12 -5.92,-5.12 l 0.05,-1.1 c 5.78,0 12,7.27 12,14.6 0,4.68 -2.83,7.96 -6.63,7.96 -2.48,0 -4.87,-1.78 -6.51,-3.73 -0.5,2.69 -2.65,3.73 -4.49,3.73 -2.3,0 -3.25,-1.93 -3.69,-2.82 -0.9,-1.71 -1.54,-4.69 -1.54,-4.85 0,-0.5 0.5,-0.5 0.59,-0.5 0.5,0 0.55,0.07 0.84,1.16 0.86,3.53 1.85,5.92 3.64,5.92 0.85,0 1.55,-0.39 1.55,-2.28 0,-1.16 -0.15,-1.7 -0.34,-2.55 z"
         inkscape:connector-curvature="0"
         style="fill:#000000;stroke-width:0" /><path
         id="path6868"
         d="m 503.54,414.03 0.01,0 0,0.01 0,0 0.01,0.01 0,0.01 0.01,0.01 0.02,0.02 0.01,0.01 0.01,0.02 0.02,0.02 0.01,0.01 0.02,0.02 0.02,0.02 0.02,0.02 0.02,0.02 0.02,0.01 0.04,0.04 0.04,0.04 0.03,0.01 0.02,0.02 0.02,0.02 0.02,0.01 0.02,0.02 0.02,0.01 0.02,0.01 0.02,0.01 0.02,0.01 0.02,0.01 0.02,0.01 0.01,0 0.01,0 0.01,0 0,0 0.01,0 c 0.2,0 2.09,-2.18 2.44,-2.53 1.45,-1.59 2.89,-3.18 4.39,-4.68 0.2,-0.25 0.34,-0.25 0.39,-0.25 0.4,0 0.56,0.34 0.56,0.54 0,0.25 -1.55,2.94 -3,5.49 l -1.94,3.58 8.67,3.98 c 0.69,0.36 0.75,0.56 0.75,0.75 0,0.25 -0.2,0.5 -0.56,0.5 -0.04,0 -2.48,-0.44 -9.95,-1.94 l -1.16,9.36 c -0.09,0.91 -0.14,1.1 -0.59,1.1 -0.39,0 -0.55,-0.24 -0.64,-1.1 l -1.09,-9.36 -9.22,1.85 c -0.25,0.04 -0.61,0.09 -0.75,0.09 -0.35,0 -0.55,-0.25 -0.55,-0.5 0,-0.39 0.25,-0.5 0.8,-0.75 l 8.67,-3.98 -4.64,-8.27 c -0.3,-0.59 -0.35,-0.64 -0.35,-0.8 0,-0.2 0.14,-0.54 0.55,-0.54 0.09,0 0.25,0 0.75,0.54 z"
         inkscape:connector-curvature="0"
         style="fill:#000000;stroke-width:0" /><path
         id="path6870"
         d="m 544.12,394.25 0,0.02 0,0.03 0,0.01 0,0.02 -0.01,0.01 0,0.02 -0.01,0.01 0,0.02 -0.01,0.02 -0.01,0.02 -0.02,0.02 -0.01,0.03 -0.02,0.02 -0.01,0.03 -0.03,0.03 -0.02,0.03 -0.03,0.03 -0.03,0.04 -0.01,0.02 -0.02,0.02 -0.02,0.02 -0.01,0.02 -0.02,0.02 -0.02,0.03 -0.02,0.02 -0.03,0.02 -0.02,0.03 -0.02,0.02 -0.03,0.03 -0.02,0.03 -0.03,0.03 -0.03,0.03 -0.02,0.03 -0.03,0.03 -0.04,0.03 -0.03,0.03 -0.03,0.04 -0.03,0.03 -0.04,0.04 -0.04,0.03 -0.03,0.04 -0.04,0.04 c -6.22,6.28 -7.81,15.69 -7.81,23.31 0,8.67 1.88,17.35 8.01,23.56 0.64,0.61 0.64,0.71 0.64,0.86 0,0.35 -0.19,0.49 -0.48,0.49 -0.5,0 -4.99,-3.38 -7.92,-9.7 -2.55,-5.49 -3.15,-11.02 -3.15,-15.21 0,-3.89 0.55,-9.9 3.28,-15.54 2.99,-6.13 7.29,-9.36 7.79,-9.36 0.29,0 0.48,0.14 0.48,0.5 z"
         inkscape:connector-curvature="0"
         style="fill:#000000;stroke-width:0" /><path
         id="path6872"
         d="m 569.47,427.67 0,0.02 0,0.02 0,0.02 -0.01,0.02 0,0.02 -0.01,0.02 0,0.02 -0.01,0.02 -0.01,0.02 0,0.02 -0.01,0.02 -0.01,0.03 -0.02,0.02 -0.01,0.02 -0.01,0.02 -0.02,0.01 -0.01,0.02 -0.02,0.02 -0.02,0.02 -0.02,0.01 -0.01,0.02 -0.03,0.01 -0.02,0.02 -0.02,0.01 -0.03,0.01 -0.02,0.01 -0.03,0.01 -0.03,0 -0.03,0.01 -0.03,0 -0.03,0.01 -0.01,0 -0.02,0 c -0.55,0 -2.53,-1.99 -3.38,-3.44 -1.11,2.69 -3.04,3.48 -4.64,3.48 v -1.09 c 3.24,0 3.94,-4.03 3.94,-4.37 0,-0.32 -2.73,-11.22 -2.89,-11.43 -0.75,-1.39 -3.53,-4.57 -6.33,-4.57 h 0 c -2.98,0 -3.19,3.84 -3.19,4.68 0,2.39 1.44,7.82 2.3,9.91 1.53,3.69 4.13,5.78 6.17,5.78 v 1.09 c -5.87,0 -12,-7.37 -12,-14.59 0,-4.87 2.94,-7.97 6.57,-7.97 2.15,0 4.09,1.19 5.89,2.99 -0.46,-1.74 -2.1,-8.47 -2.25,-8.93 -0.39,-1.39 -0.8,-1.59 -3.58,-1.64 -0.66,0 -1.16,0 -1.16,-1 0,-0.04 0,-0.54 0.66,-0.54 1.59,0 3.33,0.15 4.98,0.15 1.69,0 3.49,-0.15 5.13,-0.15 0.25,0 0.89,0 0.89,1 0,0.54 -0.49,0.54 -1.28,0.54 -2.41,0 -2.41,0.36 -2.41,0.8 0,0.36 0.11,0.66 0.2,1.09 z"
         inkscape:connector-curvature="0"
         style="fill:#000000;stroke-width:0" /><path
         id="path6874"
         d="m 594.02,414.03 0,0 0,0.01 0,0 0.01,0.01 0.01,0.01 0.01,0.01 0.01,0.02 0.01,0.01 0.02,0.02 0.01,0.02 0.02,0.01 0.01,0.02 0.02,0.02 0.02,0.02 0.02,0.02 0.02,0.01 0.04,0.04 0.05,0.04 0.02,0.01 0.02,0.02 0.02,0.02 0.02,0.01 0.02,0.02 0.02,0.01 0.02,0.01 0.02,0.01 0.02,0.01 0.02,0.01 0.02,0.01 0.01,0 0,0 0.01,0 0.01,0 0.01,0 0,0 c 0.21,0 2.1,-2.18 2.44,-2.53 1.45,-1.59 2.89,-3.18 4.39,-4.68 0.2,-0.25 0.34,-0.25 0.39,-0.25 0.41,0 0.56,0.34 0.56,0.54 0,0.25 -1.54,2.94 -3,5.49 l -1.93,3.58 8.67,3.98 c 0.69,0.36 0.75,0.56 0.75,0.75 0,0.25 -0.21,0.5 -0.56,0.5 -0.05,0 -2.49,-0.44 -9.96,-1.94 l -1.15,9.36 c -0.1,0.91 -0.14,1.1 -0.6,1.1 -0.39,0 -0.54,-0.24 -0.64,-1.1 l -1.09,-9.36 -9.22,1.85 c -0.25,0.04 -0.61,0.09 -0.75,0.09 -0.34,0 -0.55,-0.25 -0.55,-0.5 0,-0.39 0.25,-0.5 0.8,-0.75 l 8.67,-3.98 -4.64,-8.27 c -0.3,-0.59 -0.34,-0.64 -0.34,-0.8 0,-0.2 0.14,-0.54 0.54,-0.54 0.1,0 0.25,0 0.75,0.54 z"
         inkscape:connector-curvature="0"
         style="fill:#000000;stroke-width:0" /><path
         id="path6876"
         d="m 634.59,394.25 0,0.02 0,0.03 0,0.01 0,0.02 0,0.01 -0.01,0.02 0,0.01 -0.01,0.02 -0.01,0.02 -0.01,0.02 -0.01,0.02 -0.02,0.03 -0.01,0.02 -0.02,0.03 -0.02,0.03 -0.03,0.03 -0.02,0.03 -0.03,0.04 -0.02,0.02 -0.01,0.02 -0.02,0.02 -0.02,0.02 -0.02,0.02 -0.02,0.03 -0.02,0.02 -0.02,0.02 -0.02,0.03 -0.03,0.02 -0.02,0.03 -0.03,0.03 -0.03,0.03 -0.02,0.03 -0.03,0.03 -0.03,0.03 -0.03,0.03 -0.03,0.03 -0.04,0.04 -0.03,0.03 -0.04,0.04 -0.03,0.03 -0.04,0.04 -0.04,0.04 c -6.22,6.28 -7.81,15.69 -7.81,23.31 0,8.67 1.89,17.35 8.01,23.56 0.64,0.61 0.64,0.71 0.64,0.86 0,0.35 -0.18,0.49 -0.48,0.49 -0.5,0 -4.99,-3.38 -7.92,-9.7 -2.55,-5.49 -3.14,-11.02 -3.14,-15.21 0,-3.89 0.54,-9.9 3.28,-15.54 2.98,-6.13 7.28,-9.36 7.78,-9.36 0.3,0 0.48,0.14 0.48,0.5 z"
         inkscape:connector-curvature="0"
         style="fill:#000000;stroke-width:0" /><path
         id="path6878"
         d="m 641.82,409.14 -0.02,-0.07 -0.01,-0.08 -0.02,-0.07 -0.02,-0.08 -0.03,-0.16 -0.04,-0.16 -0.04,-0.16 -0.04,-0.16 -0.03,-0.16 -0.04,-0.16 -0.02,-0.08 -0.01,-0.07 -0.02,-0.07 -0.01,-0.07 -0.02,-0.07 -0.01,-0.07 -0.02,-0.06 -0.01,-0.06 -0.01,-0.06 -0.01,-0.05 -0.01,-0.05 0,-0.04 -0.01,-0.04 0,-0.04 -0.01,-0.03 0,-0.02 c 0,-0.89 0.71,-1.35 1.44,-1.35 0.61,0 1.5,0.39 1.85,1.39 0.1,0.21 1.79,6.99 2,7.88 0.38,1.64 1.29,5.12 1.59,6.48 0.2,0.64 1.59,2.99 2.78,4.08 0.41,0.34 1.84,1.64 4,1.64 1.28,0 2.03,-0.59 2.08,-0.59 -1.49,-0.25 -2.58,-1.46 -2.58,-2.74 0,-0.79 0.55,-1.75 1.89,-1.75 1.34,0 2.74,1.14 2.74,2.94 0,1.75 -1.6,3.23 -4.13,3.23 -3.25,0 -5.44,-2.43 -6.39,-3.82 -0.39,2.23 -2.19,3.82 -4.53,3.82 -2.28,0 -3.24,-1.93 -3.69,-2.82 -0.89,-1.71 -1.55,-4.69 -1.55,-4.85 0,-0.5 0.5,-0.5 0.61,-0.5 0.5,0 0.55,0.07 0.85,1.16 0.84,3.53 1.84,5.92 3.64,5.92 0.84,0 1.54,-0.39 1.54,-2.28 0,-1.05 -0.15,-1.61 -0.79,-4.19 z"
         inkscape:connector-curvature="0"
         style="fill:#000000;stroke-width:0" /><path
         id="path6880"
         d="m 684.25,414.03 0,0 0,0.01 0,0 0.01,0.01 0.01,0.01 0.01,0.01 0.01,0.02 0.01,0.01 0.02,0.02 0.01,0.02 0.02,0.01 0.02,0.02 0.01,0.02 0.02,0.02 0.02,0.02 0.02,0.01 0.04,0.04 0.05,0.04 0.02,0.01 0.02,0.02 0.02,0.02 0.02,0.01 0.02,0.02 0.02,0.01 0.02,0.01 0.02,0.01 0.02,0.01 0.02,0.01 0.02,0.01 0.01,0 0.01,0 0.01,0 0.01,0 0,0 c 0.21,0 2.1,-2.18 2.44,-2.53 1.45,-1.59 2.89,-3.18 4.39,-4.68 0.2,-0.25 0.35,-0.25 0.39,-0.25 0.41,0 0.56,0.34 0.56,0.54 0,0.25 -1.54,2.94 -3,5.49 l -1.93,3.58 8.67,3.98 c 0.69,0.36 0.75,0.56 0.75,0.75 0,0.25 -0.21,0.5 -0.56,0.5 -0.05,0 -2.49,-0.44 -9.96,-1.94 l -1.15,9.36 c -0.1,0.91 -0.14,1.1 -0.6,1.1 -0.39,0 -0.54,-0.24 -0.64,-1.1 l -1.09,-9.36 -9.22,1.85 c -0.25,0.04 -0.61,0.09 -0.75,0.09 -0.34,0 -0.55,-0.25 -0.55,-0.5 0,-0.39 0.25,-0.5 0.8,-0.75 l 8.67,-3.98 -4.64,-8.27 c -0.3,-0.59 -0.34,-0.64 -0.34,-0.8 0,-0.2 0.14,-0.54 0.54,-0.54 0.1,0 0.25,0 0.75,0.54 z"
         inkscape:connector-curvature="0"
         style="fill:#000000;stroke-width:0" /><path
         id="path6882"
         d="m 724.82,394.25 0,0.02 0,0.03 0,0.01 0,0.02 0,0.01 -0.01,0.02 0,0.01 -0.01,0.02 -0.01,0.02 -0.01,0.02 -0.01,0.02 -0.02,0.03 -0.01,0.02 -0.02,0.03 -0.02,0.03 -0.03,0.03 -0.02,0.03 -0.03,0.04 -0.02,0.02 -0.01,0.02 -0.02,0.02 -0.02,0.02 -0.02,0.02 -0.02,0.03 -0.02,0.02 -0.02,0.02 -0.02,0.03 -0.03,0.02 -0.02,0.03 -0.03,0.03 -0.03,0.03 -0.02,0.03 -0.03,0.03 -0.03,0.03 -0.03,0.03 -0.03,0.03 -0.04,0.04 -0.03,0.03 -0.04,0.04 -0.03,0.03 -0.04,0.04 -0.04,0.04 c -6.22,6.28 -7.81,15.69 -7.81,23.31 0,8.67 1.89,17.35 8.01,23.56 0.64,0.61 0.64,0.71 0.64,0.86 0,0.35 -0.18,0.49 -0.48,0.49 -0.5,0 -4.99,-3.38 -7.92,-9.7 -2.55,-5.49 -3.14,-11.02 -3.14,-15.21 0,-3.89 0.54,-9.9 3.28,-15.54 2.98,-6.13 7.28,-9.36 7.78,-9.36 0.3,0 0.48,0.14 0.48,0.5 z"
         inkscape:connector-curvature="0"
         style="fill:#000000;stroke-width:0" /><path
         id="path6884"
         d="m 747.14,424.84 -0.13,-0.01 -0.13,-0.01 -0.12,-0.02 -0.13,-0.03 -0.12,-0.03 -0.11,-0.04 -0.12,-0.04 -0.11,-0.04 -0.1,-0.05 -0.11,-0.06 -0.1,-0.06 -0.09,-0.06 -0.1,-0.07 -0.09,-0.07 -0.08,-0.07 -0.08,-0.08 -0.08,-0.08 -0.07,-0.08 -0.07,-0.09 -0.06,-0.08 -0.06,-0.09 -0.06,-0.1 -0.05,-0.09 -0.04,-0.1 -0.04,-0.09 -0.04,-0.1 -0.03,-0.1 -0.02,-0.1 -0.02,-0.1 -0.02,-0.11 -0.01,-0.1 0,-0.1 c 0,-0.7 0.44,-1.44 1.55,-1.44 1.09,0 2.28,0.85 2.28,2.78 0,2.25 -2.14,4.28 -5.92,4.28 -6.58,0 -8.43,-5.07 -8.43,-7.26 0,-3.89 3.69,-4.64 5.13,-4.94 2.59,-0.5 5.19,-1.05 5.19,-3.78 0,-1.3 -1.14,-5.48 -7.13,-5.48 -0.7,0 -4.53,0 -5.69,2.64 1.91,-0.25 3.15,1.25 3.15,2.64 0,1.14 -0.8,1.75 -1.85,1.75 -1.3,0 -2.78,-1.05 -2.78,-3.3 0,-2.84 2.84,-4.83 7.13,-4.83 8.06,0 10.01,6.03 10.01,8.27 0,1.79 -0.95,3.04 -1.55,3.64 -1.34,1.39 -2.79,1.64 -4.98,2.09 -1.8,0.39 -3.78,0.75 -3.78,2.99 0,1.45 1.19,4.48 5.58,4.48 1.23,0 3.73,-0.34 4.48,-2.28 z"
         inkscape:connector-curvature="0"
         style="fill:#000000;stroke-width:0" /><path
         id="path6886"
         d="m 774,414.03 0,0 0.01,0.01 0,0 0,0.01 0.01,0.01 0.01,0.01 0.01,0.02 0.02,0.01 0.01,0.02 0.02,0.02 0.01,0.01 0.02,0.02 0.02,0.02 0.02,0.02 0.02,0.02 0.02,0.01 0.04,0.04 0.04,0.04 0.02,0.01 0.02,0.02 0.03,0.02 0.02,0.01 0.02,0.02 0.02,0.01 0.02,0.01 0.02,0.01 0.02,0.01 0.01,0.01 0.02,0.01 0.02,0 0.01,0 0,0 0.01,0 0.01,0 c 0.2,0 2.09,-2.18 2.43,-2.53 1.46,-1.59 2.9,-3.18 4.4,-4.68 0.2,-0.25 0.34,-0.25 0.39,-0.25 0.4,0 0.56,0.34 0.56,0.54 0,0.25 -1.55,2.94 -3,5.49 l -1.94,3.58 8.67,3.98 c 0.69,0.36 0.75,0.56 0.75,0.75 0,0.25 -0.2,0.5 -0.56,0.5 -0.05,0 -2.48,-0.44 -9.95,-1.94 l -1.16,9.36 c -0.09,0.91 -0.14,1.1 -0.59,1.1 -0.39,0 -0.55,-0.24 -0.64,-1.1 l -1.1,-9.36 -9.22,1.85 c -0.25,0.04 -0.61,0.09 -0.75,0.09 -0.34,0 -0.54,-0.25 -0.54,-0.5 0,-0.39 0.25,-0.5 0.79,-0.75 l 8.68,-3.98 -4.65,-8.27 c -0.29,-0.59 -0.34,-0.64 -0.34,-0.8 0,-0.2 0.14,-0.54 0.55,-0.54 0.09,0 0.25,0 0.75,0.54 z"
         inkscape:connector-curvature="0"
         style="fill:#000000;stroke-width:0" /><path
         id="path6888"
         d="m 814.73,421.25 0.03,0.13 0.04,0.15 0.04,0.16 0.04,0.18 0.06,0.19 0.06,0.21 0.06,0.22 0.07,0.22 0.08,0.23 0.09,0.24 0.1,0.25 0.1,0.24 0.11,0.25 0.12,0.25 0.13,0.25 0.14,0.25 0.15,0.24 0.15,0.24 0.17,0.23 0.18,0.22 0.18,0.22 0.2,0.2 0.21,0.19 0.22,0.18 0.23,0.16 0.25,0.14 0.12,0.07 0.13,0.06 0.14,0.05 0.13,0.05 0.14,0.05 0.14,0.04 0.15,0.03 0.15,0.03 0.15,0.02 0.16,0.02 0.16,0.01 0.16,0 c 0.25,0 1.43,0 2.48,-0.64 -1.39,-0.25 -2.39,-1.5 -2.39,-2.69 0,-0.79 0.55,-1.75 1.89,-1.75 1.1,0 2.69,0.89 2.69,2.89 0,2.6 -2.94,3.28 -4.62,3.28 -2.9,0 -4.65,-2.64 -5.24,-3.78 -1.25,3.28 -3.94,3.78 -5.38,3.78 -5.18,0 -8.03,-6.42 -8.03,-7.67 0,-0.5 0.5,-0.5 0.61,-0.5 0.39,0 0.55,0.11 0.64,0.55 1.69,5.28 4.99,6.53 6.68,6.53 0.95,0 2.68,-0.44 2.68,-3.33 0,-1.54 -0.84,-4.89 -2.68,-11.86 -0.8,-3.09 -2.53,-5.18 -4.74,-5.18 -0.29,0 -1.44,0 -2.48,0.65 1.25,0.24 2.34,1.28 2.34,2.69 0,1.34 -1.09,1.73 -1.84,1.73 -1.5,0 -2.75,-1.29 -2.75,-2.89 0,-2.28 2.5,-3.28 4.69,-3.28 3.29,0 5.07,3.49 5.23,3.78 0.59,-1.84 2.39,-3.78 5.37,-3.78 5.15,0 7.99,6.42 7.99,7.67 0,0.5 -0.46,0.5 -0.61,0.5 -0.44,0 -0.55,-0.2 -0.64,-0.54 -1.64,-5.33 -5.03,-6.53 -6.63,-6.53 -1.95,0 -2.75,1.59 -2.75,3.29 0,1.1 0.3,2.19 0.86,4.38 z"
         inkscape:connector-curvature="0"
         style="fill:#000000;stroke-width:0" /><path
         id="path6890"
         d="m 840.92,418.65 0,0.37 -0.01,0.39 -0.01,0.39 -0.01,0.41 -0.04,0.84 -0.06,0.88 -0.08,0.92 -0.11,0.95 -0.13,0.97 -0.17,1.01 -0.19,1.02 -0.23,1.03 -0.27,1.05 -0.31,1.06 -0.34,1.07 -0.4,1.07 -0.21,0.53 -0.23,0.53 -0.23,0.53 -0.25,0.53 c -2.99,6.12 -7.27,9.36 -7.77,9.36 -0.3,0 -0.5,-0.19 -0.5,-0.49 0,-0.15 0,-0.25 0.94,-1.15 4.89,-4.92 7.73,-12.85 7.73,-23.27 0,-8.51 -1.84,-17.28 -8.03,-23.56 -0.64,-0.59 -0.64,-0.7 -0.64,-0.84 0,-0.3 0.2,-0.5 0.5,-0.5 0.5,0 4.97,3.39 7.92,9.71 2.53,5.47 3.13,11 3.13,15.19 z"
         inkscape:connector-curvature="0"
         style="fill:#000000;stroke-width:0" /><path
         id="path6892"
         d="m 860.23,418.65 0,0.37 0,0.39 -0.01,0.39 -0.01,0.41 -0.04,0.84 -0.06,0.88 -0.09,0.92 -0.1,0.95 -0.14,0.97 -0.16,1.01 -0.2,1.02 -0.23,1.03 -0.26,1.05 -0.31,1.06 -0.35,1.07 -0.39,1.07 -0.21,0.53 -0.23,0.53 -0.24,0.53 -0.25,0.53 c -2.98,6.12 -7.26,9.36 -7.76,9.36 -0.3,0 -0.5,-0.19 -0.5,-0.49 0,-0.15 0,-0.25 0.93,-1.15 4.9,-4.92 7.74,-12.85 7.74,-23.27 0,-8.51 -1.84,-17.28 -8.03,-23.56 -0.64,-0.59 -0.64,-0.7 -0.64,-0.84 0,-0.3 0.2,-0.5 0.5,-0.5 0.5,0 4.97,3.39 7.92,9.71 2.53,5.47 3.12,11 3.12,15.19 z"
         inkscape:connector-curvature="0"
         style="fill:#000000;stroke-width:0" /><path
         id="path6894"
         d="m 879.55,418.65 0,0.37 -0.01,0.39 0,0.39 -0.02,0.41 -0.04,0.84 -0.06,0.88 -0.08,0.92 -0.11,0.95 -0.13,0.97 -0.16,1.01 -0.2,1.02 -0.23,1.03 -0.27,1.05 -0.3,1.06 -0.35,1.07 -0.39,1.07 -0.22,0.53 -0.22,0.53 -0.24,0.53 -0.25,0.53 c -2.99,6.12 -7.27,9.36 -7.77,9.36 -0.29,0 -0.5,-0.19 -0.5,-0.49 0,-0.15 0,-0.25 0.94,-1.15 4.89,-4.92 7.74,-12.85 7.74,-23.27 0,-8.51 -1.85,-17.28 -8.03,-23.56 -0.65,-0.59 -0.65,-0.7 -0.65,-0.84 0,-0.3 0.21,-0.5 0.5,-0.5 0.5,0 4.97,3.39 7.93,9.71 2.53,5.47 3.12,11 3.12,15.19 z"
         inkscape:connector-curvature="0"
         style="fill:#000000;stroke-width:0" /><path
         id="path6896"
         d="m 932.75,422.5 0.14,0 0.14,0 0.15,0 0.07,0.01 0.07,0 0.08,0.01 0.07,0.01 0.07,0.01 0.07,0.01 0.06,0.01 0.07,0.02 0.07,0.02 0.06,0.02 0.06,0.02 0.06,0.03 0.05,0.03 0.06,0.04 0.05,0.03 0.04,0.05 0.05,0.04 0.04,0.05 0.02,0.03 0.01,0.03 0.02,0.02 0.02,0.03 0.01,0.03 0.01,0.04 0.01,0.03 0.02,0.04 0.01,0.03 0,0.04 0.01,0.04 0.01,0.04 0,0.04 0.01,0.04 0,0.04 0,0.05 c 0,1 -0.96,1 -1.64,1 h -29.85 c -0.7,0 -1.64,0 -1.64,-1 0,-0.98 0.94,-0.98 1.69,-0.98 z"
         inkscape:connector-curvature="0"
         style="fill:#000000;stroke-width:0" /><path
         id="path6898"
         d="m 932.8,412.82 0.06,0 0.07,0 0.13,0.01 0.14,0 0.07,0 0.07,0.01 0.07,0.01 0.07,0 0.07,0.01 0.07,0.02 0.06,0.01 0.07,0.02 0.06,0.02 0.07,0.02 0.05,0.02 0.06,0.03 0.06,0.03 0.05,0.04 0.05,0.04 0.05,0.04 0.04,0.05 0.02,0.02 0.02,0.03 0.02,0.02 0.01,0.03 0.02,0.03 0.02,0.03 0.01,0.03 0.01,0.03 0.01,0.04 0.02,0.03 0.01,0.04 0,0.04 0.01,0.04 0.01,0.04 0,0.04 0.01,0.04 0,0.05 0,0.04 c 0,1 -0.96,1 -1.69,1 H 903 c -0.75,0 -1.69,0 -1.69,-1 0,-1 0.94,-1 1.64,-1 z"
         inkscape:connector-curvature="0"
         style="fill:#000000;stroke-width:0" /><path
         id="path6900"
         d="m 967.56,394.25 0,0.02 0,0.03 0,0.01 -0.01,0.02 0,0.01 0,0.02 -0.01,0.01 -0.01,0.02 -0.01,0.02 -0.01,0.02 -0.01,0.02 -0.01,0.03 -0.02,0.02 -0.02,0.03 -0.02,0.03 -0.02,0.03 -0.03,0.03 -0.03,0.04 -0.01,0.02 -0.02,0.02 -0.02,0.02 -0.02,0.02 -0.01,0.02 -0.02,0.03 -0.03,0.02 -0.02,0.02 -0.02,0.03 -0.02,0.02 -0.03,0.03 -0.02,0.03 -0.03,0.03 -0.03,0.03 -0.03,0.03 -0.03,0.03 -0.03,0.03 -0.03,0.03 -0.03,0.04 -0.04,0.03 -0.03,0.04 -0.04,0.03 -0.04,0.04 -0.03,0.04 c -6.22,6.28 -7.82,15.69 -7.82,23.31 0,8.67 1.89,17.35 8.02,23.56 0.64,0.61 0.64,0.71 0.64,0.86 0,0.35 -0.19,0.49 -0.49,0.49 -0.5,0 -4.98,-3.38 -7.92,-9.7 -2.55,-5.49 -3.14,-11.02 -3.14,-15.21 0,-3.89 0.55,-9.9 3.28,-15.54 2.99,-6.13 7.28,-9.36 7.78,-9.36 0.3,0 0.49,0.14 0.49,0.5 z"
         inkscape:connector-curvature="0"
         style="fill:#000000;stroke-width:0" /><path
         id="path6902"
         d="m 972.62,400.12 -0.03,-0.15 -0.04,-0.15 -0.03,-0.14 -0.03,-0.13 -0.04,-0.13 -0.03,-0.11 -0.03,-0.12 -0.04,-0.1 -0.04,-0.1 -0.04,-0.09 -0.04,-0.09 -0.05,-0.08 -0.05,-0.07 -0.05,-0.07 -0.06,-0.07 -0.06,-0.06 -0.07,-0.05 -0.07,-0.05 -0.08,-0.04 -0.09,-0.04 -0.09,-0.04 -0.1,-0.03 -0.11,-0.03 -0.12,-0.02 -0.12,-0.02 -0.07,-0.01 -0.07,-0.01 -0.07,-0.01 -0.07,-0.01 -0.08,0 -0.08,-0.01 -0.08,0 -0.09,-0.01 -0.08,0 -0.09,0 -0.1,0 -0.09,0 -0.1,-0.01 -0.1,0 c -0.6,0 -1.14,0 -1.14,-0.93 0,-0.41 0.25,-0.61 0.64,-0.61 1.36,0 2.79,0.15 4.18,0.15 1.65,0 3.35,-0.15 4.94,-0.15 0.25,0 0.89,0 0.89,1 0,0.54 -0.5,0.54 -1.18,0.54 -2.5,0 -2.5,0.36 -2.5,0.8 0,0.61 2.09,8.72 2.45,9.97 0.64,-1.44 2.03,-3.19 4.58,-3.19 l -0.05,1.1 c -3.3,0 -3.94,4.14 -3.94,4.43 0,0.1 0,0.21 0.14,0.8 l 2.46,9.77 c 0.34,1.34 1.68,2.73 2.57,3.48 1.75,1.55 3.21,1.89 4.05,1.89 1.99,0 3.19,-1.73 3.19,-4.69 0,-2.93 -1.64,-8.65 -2.55,-10.56 -1.69,-3.48 -4.08,-5.12 -5.92,-5.12 l 0.05,-1.1 c 5.78,0 12,7.27 12,14.6 0,4.68 -2.83,7.96 -6.63,7.96 -2.48,0 -4.87,-1.78 -6.51,-3.73 -0.5,2.69 -2.64,3.73 -4.49,3.73 -2.29,0 -3.25,-1.93 -3.69,-2.82 -0.9,-1.71 -1.54,-4.69 -1.54,-4.85 0,-0.5 0.5,-0.5 0.59,-0.5 0.5,0 0.55,0.07 0.85,1.16 0.85,3.53 1.84,5.92 3.64,5.92 0.84,0 1.54,-0.39 1.54,-2.28 0,-1.16 -0.15,-1.7 -0.34,-2.55 z"
         inkscape:connector-curvature="0"
         style="fill:#000000;stroke-width:0" /><path
         id="path6904"
         d="m 1024.1,414.03 0,0 0,0.01 0,0 0,0.01 0,0.01 0,0.01 0,0.02 0,0.01 0,0.02 0,0.02 0.1,0.01 0,0.02 0,0.02 0,0.02 0,0.02 0,0.01 0.1,0.04 0,0.04 0.1,0.01 0,0.02 0,0.02 0,0.01 0,0.02 0.1,0.01 0,0.01 0,0.01 0,0.01 0,0.01 0.1,0.01 0,0 0,0 0,0 0,0 0,0 c 0.2,0 2.1,-2.18 2.4,-2.53 1.5,-1.59 2.9,-3.18 4.4,-4.68 0.2,-0.25 0.4,-0.25 0.4,-0.25 0.4,0 0.6,0.34 0.6,0.54 0,0.25 -1.6,2.94 -3,5.49 l -2,3.58 8.7,3.98 c 0.7,0.36 0.8,0.56 0.8,0.75 0,0.25 -0.2,0.5 -0.6,0.5 0,0 -2.5,-0.44 -10,-1.94 l -1.1,9.36 c -0.1,0.91 -0.1,1.1 -0.6,1.1 -0.4,0 -0.5,-0.24 -0.6,-1.1 l -1.1,-9.36 -9.2,1.85 c -0.3,0.04 -0.7,0.09 -0.8,0.09 -0.4,0 -0.6,-0.25 -0.6,-0.5 0,-0.39 0.3,-0.5 0.9,-0.75 l 8.6,-3.98 -4.6,-8.27 c -0.3,-0.59 -0.4,-0.64 -0.4,-0.8 0,-0.2 0.2,-0.54 0.6,-0.54 0.1,0 0.2,0 0.7,0.54 z"
         inkscape:connector-curvature="0"
         style="fill:#000000;stroke-width:0" /><path
         id="path6906"
         d="m 1051.5,418.65 0,0.37 0,0.39 0,0.39 0,0.41 -0.1,0.84 0,0.88 -0.1,0.92 -0.1,0.95 -0.2,0.97 -0.1,1.01 -0.2,1.02 -0.2,1.03 -0.3,1.05 -0.3,1.06 -0.4,1.07 -0.4,1.07 -0.2,0.53 -0.2,0.53 -0.2,0.53 -0.3,0.53 c -3,6.12 -7.3,9.36 -7.8,9.36 -0.2,0 -0.5,-0.19 -0.5,-0.49 0,-0.15 0,-0.25 1,-1.15 4.9,-4.92 7.7,-12.85 7.7,-23.27 0,-8.51 -1.8,-17.28 -8,-23.56 -0.7,-0.59 -0.7,-0.7 -0.7,-0.84 0,-0.3 0.3,-0.5 0.5,-0.5 0.5,0 5,3.39 8,9.71 2.5,5.47 3.1,11 3.1,15.19 z"
         inkscape:connector-curvature="0"
         style="fill:#000000;stroke-width:0" /><path
         id="path6908"
         d="m 1089.6,418.65 0,0.5 -0.1,0.49 0,0.48 -0.1,0.48 -0.1,0.46 -0.2,0.46 -0.1,0.45 -0.2,0.44 -0.2,0.43 -0.2,0.42 -0.2,0.4 -0.3,0.39 -0.3,0.38 -0.3,0.37 -0.3,0.35 -0.3,0.34 -0.3,0.32 -0.4,0.3 -0.3,0.29 -0.4,0.27 -0.4,0.25 -0.4,0.23 -0.4,0.22 -0.5,0.19 -0.4,0.18 -0.4,0.15 -0.5,0.13 -0.5,0.11 -0.4,0.08 -0.5,0.06 -0.5,0.04 -0.5,0.01 c -5.4,0 -9.7,-4.43 -9.7,-9.67 0,-5.28 4.3,-9.65 9.7,-9.65 v 1.98 c -4.3,0 -7.7,3.48 -7.7,7.67 0,4.19 3.4,7.67 7.7,7.67 4.2,0 7.7,-3.39 7.7,-7.67 0,-4.28 -3.5,-7.67 -7.7,-7.67 h 0 V 409 c 5.3,0 9.7,4.32 9.7,9.65 z"
         inkscape:connector-curvature="0"
         style="fill:#000000;stroke-width:0" /><path
         id="path6910"
         d="m 1119.9,394.25 0,0.02 0,0.03 0,0.01 0,0.02 0,0.01 0,0.02 0,0.01 0,0.02 0,0.02 0,0.02 0,0.02 0,0.03 0,0.02 -0.1,0.03 0,0.03 0,0.03 0,0.03 -0.1,0.04 0,0.02 0,0.02 0,0.02 0,0.02 0,0.02 -0.1,0.03 0,0.02 0,0.02 0,0.03 -0.1,0.02 0,0.03 0,0.03 0,0.03 -0.1,0.03 0,0.03 0,0.03 -0.1,0.03 0,0.03 0,0.04 -0.1,0.03 0,0.04 0,0.03 -0.1,0.04 0,0.04 c -6.2,6.28 -7.8,15.69 -7.8,23.31 0,8.67 1.9,17.35 8,23.56 0.6,0.61 0.6,0.71 0.6,0.86 0,0.35 -0.1,0.49 -0.4,0.49 -0.5,0 -5,-3.38 -8,-9.7 -2.5,-5.49 -3.1,-11.02 -3.1,-15.21 0,-3.89 0.5,-9.9 3.3,-15.54 3,-6.13 7.3,-9.36 7.8,-9.36 0.3,0 0.4,0.14 0.4,0.5 z"
         inkscape:connector-curvature="0"
         style="fill:#000000;stroke-width:0" /><path
         id="path6912"
         d="m 1145.3,427.67 0,0.02 0,0.02 0,0.02 0,0.02 0,0.02 0,0.02 0,0.02 0,0.02 0,0.02 -0.1,0.02 0,0.02 0,0.03 0,0.02 0,0.02 0,0.02 0,0.01 0,0.02 -0.1,0.02 0,0.02 0,0.01 0,0.02 0,0.01 -0.1,0.02 0,0.01 0,0.01 0,0.01 -0.1,0.01 0,0 0,0.01 0,0 -0.1,0.01 0,0 0,0 c -0.6,0 -2.5,-1.99 -3.4,-3.44 -1.1,2.69 -3,3.48 -4.6,3.48 v -1.09 c 3.2,0 3.9,-4.03 3.9,-4.37 0,-0.32 -2.7,-11.22 -2.9,-11.43 -0.7,-1.39 -3.5,-4.57 -6.3,-4.57 h 0 c -3,0 -3.2,3.84 -3.2,4.68 0,2.39 1.5,7.82 2.3,9.91 1.5,3.69 4.1,5.78 6.2,5.78 v 1.09 c -5.9,0 -12,-7.37 -12,-14.59 0,-4.87 2.9,-7.97 6.5,-7.97 2.2,0 4.1,1.19 5.9,2.99 -0.4,-1.74 -2.1,-8.47 -2.2,-8.93 -0.4,-1.39 -0.8,-1.59 -3.6,-1.64 -0.6,0 -1.2,0 -1.2,-1 0,-0.04 0,-0.54 0.7,-0.54 1.6,0 3.3,0.15 5,0.15 1.7,0 3.5,-0.15 5.1,-0.15 0.3,0 0.9,0 0.9,1 0,0.54 -0.5,0.54 -1.3,0.54 -2.4,0 -2.4,0.36 -2.4,0.8 0,0.36 0.1,0.66 0.2,1.09 z"
         inkscape:connector-curvature="0"
         style="fill:#000000;stroke-width:0" /><path
         id="path6914"
         d="m 1175.4,414.03 0,0 0,0.01 0,0 0,0.01 0,0.01 0,0.01 0,0.02 0,0.01 0,0.02 0,0.02 0.1,0.01 0,0.02 0,0.02 0,0.02 0,0.02 0.1,0.01 0,0.04 0,0.04 0.1,0.01 0,0.02 0,0.02 0,0.01 0.1,0.02 0,0.01 0,0.01 0,0.01 0,0.01 0,0.01 0.1,0.01 0,0 0,0 0,0 0,0 0,0 c 0.2,0 2.1,-2.18 2.4,-2.53 1.5,-1.59 2.9,-3.18 4.4,-4.68 0.2,-0.25 0.4,-0.25 0.4,-0.25 0.4,0 0.6,0.34 0.6,0.54 0,0.25 -1.6,2.94 -3,5.49 l -1.9,3.58 8.6,3.98 c 0.7,0.36 0.8,0.56 0.8,0.75 0,0.25 -0.2,0.5 -0.6,0.5 0,0 -2.5,-0.44 -9.9,-1.94 l -1.2,9.36 c -0.1,0.91 -0.1,1.1 -0.6,1.1 -0.4,0 -0.5,-0.24 -0.6,-1.1 l -1.1,-9.36 -9.2,1.85 c -0.3,0.04 -0.7,0.09 -0.8,0.09 -0.3,0 -0.5,-0.25 -0.5,-0.5 0,-0.39 0.2,-0.5 0.8,-0.75 l 8.6,-3.98 -4.6,-8.27 c -0.3,-0.59 -0.4,-0.64 -0.4,-0.8 0,-0.2 0.2,-0.54 0.6,-0.54 0.1,0 0.2,0 0.7,0.54 z"
         inkscape:connector-curvature="0"
         style="fill:#000000;stroke-width:0" /><path
         id="path6916"
         d="m 1202.8,418.65 0,0.37 0,0.39 0,0.39 0,0.41 -0.1,0.84 0,0.88 -0.1,0.92 -0.1,0.95 -0.1,0.97 -0.2,1.01 -0.2,1.02 -0.2,1.03 -0.3,1.05 -0.3,1.06 -0.4,1.07 -0.4,1.07 -0.2,0.53 -0.2,0.53 -0.2,0.53 -0.3,0.53 c -3,6.12 -7.2,9.36 -7.7,9.36 -0.3,0 -0.5,-0.19 -0.5,-0.49 0,-0.15 0,-0.25 0.9,-1.15 4.9,-4.92 7.7,-12.85 7.7,-23.27 0,-8.51 -1.8,-17.28 -8,-23.56 -0.6,-0.59 -0.6,-0.7 -0.6,-0.84 0,-0.3 0.2,-0.5 0.5,-0.5 0.5,0 4.9,3.39 7.9,9.71 2.5,5.47 3.1,11 3.1,15.19 z"
         inkscape:connector-curvature="0"
         style="fill:#000000;stroke-width:0" /><path
         id="path6918"
         d="m 1240.9,418.65 0,0.5 -0.1,0.49 0,0.48 -0.1,0.48 -0.1,0.46 -0.2,0.46 -0.1,0.45 -0.2,0.44 -0.2,0.43 -0.2,0.42 -0.2,0.4 -0.3,0.39 -0.3,0.38 -0.3,0.37 -0.3,0.35 -0.3,0.34 -0.3,0.32 -0.4,0.3 -0.3,0.29 -0.4,0.27 -0.4,0.25 -0.4,0.23 -0.4,0.22 -0.5,0.19 -0.4,0.18 -0.4,0.15 -0.5,0.13 -0.5,0.11 -0.4,0.08 -0.5,0.06 -0.5,0.04 -0.5,0.01 c -5.4,0 -9.7,-4.43 -9.7,-9.67 0,-5.28 4.3,-9.65 9.7,-9.65 v 1.98 c -4.3,0 -7.7,3.48 -7.7,7.67 0,4.19 3.4,7.67 7.7,7.67 4.2,0 7.7,-3.39 7.7,-7.67 0,-4.28 -3.5,-7.67 -7.7,-7.67 h 0 V 409 c 5.3,0 9.7,4.32 9.7,9.65 z"
         inkscape:connector-curvature="0"
         style="fill:#000000;stroke-width:0" /><path
         id="path6920"
         d="m 1271.2,394.25 0,0.02 0,0.03 0,0.01 0,0.02 0,0.01 0,0.02 0,0.01 0,0.02 0,0.02 0,0.02 0,0.02 0,0.03 0,0.02 -0.1,0.03 0,0.03 0,0.03 0,0.03 -0.1,0.04 0,0.02 0,0.02 0,0.02 0,0.02 0,0.02 -0.1,0.03 0,0.02 0,0.02 0,0.03 -0.1,0.02 0,0.03 0,0.03 0,0.03 -0.1,0.03 0,0.03 0,0.03 0,0.03 -0.1,0.03 0,0.04 0,0.03 -0.1,0.04 0,0.03 -0.1,0.04 0,0.04 c -6.2,6.28 -7.8,15.69 -7.8,23.31 0,8.67 1.9,17.35 8,23.56 0.6,0.61 0.6,0.71 0.6,0.86 0,0.35 -0.1,0.49 -0.4,0.49 -0.5,0 -5,-3.38 -8,-9.7 -2.5,-5.49 -3.1,-11.02 -3.1,-15.21 0,-3.89 0.5,-9.9 3.3,-15.54 3,-6.13 7.3,-9.36 7.8,-9.36 0.3,0 0.4,0.14 0.4,0.5 z"
         inkscape:connector-curvature="0"
         style="fill:#000000;stroke-width:0" /><path
         id="path6922"
         d="m 1278.5,409.14 0,-0.07 -0.1,-0.08 0,-0.07 0,-0.08 0,-0.16 -0.1,-0.16 0,-0.16 0,-0.16 -0.1,-0.16 0,-0.16 0,-0.08 0,-0.07 -0.1,-0.07 0,-0.07 0,-0.07 0,-0.07 0,-0.06 0,-0.06 0,-0.06 -0.1,-0.05 0,-0.05 0,-0.04 0,-0.04 0,-0.04 0,-0.03 0,-0.02 c 0,-0.89 0.7,-1.35 1.5,-1.35 0.6,0 1.5,0.39 1.8,1.39 0.1,0.21 1.8,6.99 2,7.88 0.4,1.64 1.3,5.12 1.6,6.48 0.2,0.64 1.6,2.99 2.8,4.08 0.4,0.34 1.8,1.64 4,1.64 1.3,0 2,-0.59 2.1,-0.59 -1.5,-0.25 -2.6,-1.46 -2.6,-2.74 0,-0.79 0.5,-1.75 1.9,-1.75 1.3,0 2.7,1.14 2.7,2.94 0,1.75 -1.6,3.23 -4.1,3.23 -3.3,0 -5.5,-2.43 -6.4,-3.82 -0.4,2.23 -2.2,3.82 -4.5,3.82 -2.3,0 -3.3,-1.93 -3.7,-2.82 -0.9,-1.71 -1.6,-4.69 -1.6,-4.85 0,-0.5 0.5,-0.5 0.6,-0.5 0.5,0 0.6,0.07 0.9,1.16 0.8,3.53 1.8,5.92 3.6,5.92 0.9,0 1.6,-0.39 1.6,-2.28 0,-1.05 -0.2,-1.61 -0.8,-4.19 z"
         inkscape:connector-curvature="0"
         style="fill:#000000;stroke-width:0" /><path
         id="path6924"
         d="m 1326.6,414.03 0,0 0,0.01 0,0 0,0.01 0,0 0,0.01 0,0.01 0,0.02 0,0.01 0,0.02 0,0.02 0,0.01 0.1,0.02 0,0.02 0,0.02 0,0.02 0,0.01 0.1,0.04 0,0.04 0,0.01 0.1,0.02 0,0.02 0,0.01 0,0.02 0.1,0.01 0,0.01 0,0.01 0,0.01 0,0.01 0,0.01 0.1,0 0,0 0,0 0,0 0,0 0,0 c 0.2,0 2.1,-2.18 2.4,-2.53 1.5,-1.59 2.9,-3.18 4.4,-4.68 0.2,-0.25 0.4,-0.25 0.4,-0.25 0.4,0 0.6,0.34 0.6,0.54 0,0.25 -1.6,2.94 -3,5.49 l -2,3.58 8.7,3.98 c 0.7,0.36 0.8,0.56 0.8,0.75 0,0.25 -0.2,0.5 -0.6,0.5 0,0 -2.5,-0.44 -10,-1.94 l -1.1,9.36 c -0.1,0.91 -0.1,1.1 -0.6,1.1 -0.4,0 -0.5,-0.24 -0.7,-1.1 l -1,-9.36 -9.3,1.85 c -0.2,0.04 -0.6,0.09 -0.7,0.09 -0.3,0 -0.6,-0.25 -0.6,-0.5 0,-0.39 0.3,-0.5 0.8,-0.75 l 8.7,-3.98 -4.6,-8.27 c -0.3,-0.59 -0.4,-0.64 -0.4,-0.8 0,-0.2 0.2,-0.54 0.6,-0.54 0.1,0 0.2,0 0.7,0.54 z"
         inkscape:connector-curvature="0"
         style="fill:#000000;stroke-width:0" /><path
         id="path6926"
         d="m 1354,418.65 0,0.37 0,0.39 0,0.39 0,0.41 -0.1,0.84 0,0.88 -0.1,0.92 -0.1,0.95 -0.2,0.97 -0.1,1.01 -0.2,1.02 -0.3,1.03 -0.2,1.05 -0.3,1.06 -0.4,1.07 -0.4,1.07 -0.2,0.53 -0.2,0.53 -0.2,0.53 -0.3,0.53 c -3,6.12 -7.3,9.36 -7.8,9.36 -0.3,0 -0.5,-0.19 -0.5,-0.49 0,-0.15 0,-0.25 1,-1.15 4.9,-4.92 7.7,-12.85 7.7,-23.27 0,-8.51 -1.8,-17.28 -8,-23.56 -0.7,-0.59 -0.7,-0.7 -0.7,-0.84 0,-0.3 0.2,-0.5 0.5,-0.5 0.5,0 5,3.39 8,9.71 2.5,5.47 3.1,11 3.1,15.19 z"
         inkscape:connector-curvature="0"
         style="fill:#000000;stroke-width:0" /><path
         id="path6928"
         d="m 1392.1,418.65 0,0.5 -0.1,0.49 0,0.48 -0.1,0.48 -0.1,0.46 -0.2,0.46 -0.1,0.45 -0.2,0.44 -0.2,0.43 -0.2,0.42 -0.2,0.4 -0.3,0.39 -0.3,0.38 -0.3,0.37 -0.3,0.35 -0.3,0.34 -0.3,0.32 -0.4,0.3 -0.4,0.29 -0.3,0.27 -0.4,0.25 -0.4,0.23 -0.4,0.22 -0.5,0.19 -0.4,0.18 -0.5,0.15 -0.4,0.13 -0.5,0.11 -0.4,0.08 -0.5,0.06 -0.5,0.04 -0.5,0.01 c -5.4,0 -9.7,-4.43 -9.7,-9.67 0,-5.28 4.3,-9.65 9.7,-9.65 v 1.98 c -4.3,0 -7.7,3.48 -7.7,7.67 0,4.19 3.4,7.67 7.7,7.67 4.2,0 7.7,-3.39 7.7,-7.67 0,-4.28 -3.5,-7.67 -7.7,-7.67 h 0 V 409 c 5.2,0 9.7,4.32 9.7,9.65 z"
         inkscape:connector-curvature="0"
         style="fill:#000000;stroke-width:0" /><path
         id="path6930"
         d="m 1422.4,394.25 0,0.02 0,0.03 0,0.01 0,0.02 0,0.01 0,0.02 0,0.01 0,0.02 0,0.02 0,0.02 0,0.02 0,0.03 -0.1,0.02 0,0.03 0,0.03 0,0.03 0,0.03 -0.1,0.04 0,0.02 0,0.02 0,0.02 0,0.02 -0.1,0.02 0,0.03 0,0.02 0,0.02 0,0.03 -0.1,0.02 0,0.03 0,0.03 0,0.03 -0.1,0.03 0,0.03 0,0.03 -0.1,0.03 0,0.03 0,0.04 -0.1,0.03 0,0.04 0,0.03 -0.1,0.04 0,0.04 c -6.2,6.28 -7.8,15.69 -7.8,23.31 0,8.67 1.9,17.35 8,23.56 0.6,0.61 0.6,0.71 0.6,0.86 0,0.35 -0.2,0.49 -0.5,0.49 -0.5,0 -4.9,-3.38 -7.9,-9.7 -2.5,-5.49 -3.1,-11.02 -3.1,-15.21 0,-3.89 0.5,-9.9 3.3,-15.54 3,-6.13 7.2,-9.36 7.7,-9.36 0.3,0 0.5,0.14 0.5,0.5 z"
         inkscape:connector-curvature="0"
         style="fill:#000000;stroke-width:0" /><path
         id="path6932"
         d="m 1444.8,424.84 -0.2,-0.01 -0.1,-0.01 -0.1,-0.02 -0.2,-0.03 -0.1,-0.03 -0.1,-0.04 -0.1,-0.04 -0.1,-0.04 -0.1,-0.05 -0.1,-0.06 -0.1,-0.06 -0.1,-0.06 -0.1,-0.07 -0.1,-0.07 -0.1,-0.07 -0.1,-0.08 -0.1,-0.08 0,-0.08 -0.1,-0.09 -0.1,-0.08 0,-0.09 -0.1,-0.1 0,-0.09 -0.1,-0.1 0,-0.09 0,-0.1 -0.1,-0.1 0,-0.1 0,-0.1 0,-0.11 0,-0.1 0,-0.1 c 0,-0.7 0.4,-1.44 1.5,-1.44 1.1,0 2.3,0.85 2.3,2.78 0,2.25 -2.1,4.28 -5.9,4.28 -6.6,0 -8.5,-5.07 -8.5,-7.26 0,-3.89 3.7,-4.64 5.2,-4.94 2.6,-0.5 5.2,-1.05 5.2,-3.78 0,-1.3 -1.2,-5.48 -7.2,-5.48 -0.7,0 -4.5,0 -5.7,2.64 1.9,-0.25 3.2,1.25 3.2,2.64 0,1.14 -0.8,1.75 -1.9,1.75 -1.3,0 -2.7,-1.05 -2.7,-3.3 0,-2.84 2.8,-4.83 7.1,-4.83 8.1,0 10,6.03 10,8.27 0,1.79 -0.9,3.04 -1.6,3.64 -1.3,1.39 -2.7,1.64 -4.9,2.09 -1.8,0.39 -3.8,0.75 -3.8,2.99 0,1.45 1.2,4.48 5.6,4.48 1.2,0 3.7,-0.34 4.5,-2.28 z"
         inkscape:connector-curvature="0"
         style="fill:#000000;stroke-width:0" /><path
         id="path6934"
         d="m 1477.1,414.03 0,0 0,0.01 0,0 0,0.01 0.1,0.01 0,0.01 0,0.02 0,0.01 0,0.02 0,0.02 0,0.01 0.1,0.02 0,0.02 0,0.02 0,0.02 0,0.01 0.1,0.04 0,0.04 0,0.01 0.1,0.02 0,0.02 0,0.01 0,0.02 0,0.01 0.1,0.01 0,0.01 0,0.01 0,0.01 0,0.01 0.1,0 0,0 0,0 0,0 0,0 c 0.2,0 2.1,-2.18 2.4,-2.53 1.5,-1.59 2.9,-3.18 4.4,-4.68 0.2,-0.25 0.3,-0.25 0.4,-0.25 0.4,0 0.6,0.34 0.6,0.54 0,0.25 -1.6,2.94 -3,5.49 l -2,3.58 8.7,3.98 c 0.7,0.36 0.7,0.56 0.7,0.75 0,0.25 -0.2,0.5 -0.5,0.5 -0.1,0 -2.5,-0.44 -10,-1.94 l -1.1,9.36 c -0.1,0.91 -0.2,1.1 -0.6,1.1 -0.4,0 -0.6,-0.24 -0.7,-1.1 l -1.1,-9.36 -9.2,1.85 c -0.2,0.04 -0.6,0.09 -0.7,0.09 -0.4,0 -0.6,-0.25 -0.6,-0.5 0,-0.39 0.3,-0.5 0.8,-0.75 l 8.7,-3.98 -4.6,-8.27 c -0.3,-0.59 -0.4,-0.64 -0.4,-0.8 0,-0.2 0.2,-0.54 0.6,-0.54 0.1,0 0.2,0 0.7,0.54 z"
         inkscape:connector-curvature="0"
         style="fill:#000000;stroke-width:0" /><path
         id="path6936"
         d="m 1504.6,418.65 0,0.37 0,0.39 0,0.39 -0.1,0.41 0,0.84 -0.1,0.88 0,0.92 -0.1,0.95 -0.2,0.97 -0.1,1.01 -0.2,1.02 -0.3,1.03 -0.2,1.05 -0.3,1.06 -0.4,1.07 -0.4,1.07 -0.2,0.53 -0.2,0.53 -0.3,0.53 -0.2,0.53 c -3,6.12 -7.3,9.36 -7.8,9.36 -0.3,0 -0.5,-0.19 -0.5,-0.49 0,-0.15 0,-0.25 1,-1.15 4.9,-4.92 7.7,-12.85 7.7,-23.27 0,-8.51 -1.8,-17.28 -8,-23.56 -0.7,-0.59 -0.7,-0.7 -0.7,-0.84 0,-0.3 0.2,-0.5 0.5,-0.5 0.5,0 5,3.39 7.9,9.71 2.6,5.47 3.2,11 3.2,15.19 z"
         inkscape:connector-curvature="0"
         style="fill:#000000;stroke-width:0" /><path
         id="path6938"
         d="m 1526,394.25 0,0.02 0,0.03 0,0.01 0,0.02 0,0.01 0,0.02 0,0.01 0,0.02 -0.1,0.02 0,0.02 0,0.02 0,0.03 0,0.02 0,0.03 0,0.03 -0.1,0.03 0,0.03 0,0.04 0,0.02 -0.1,0.02 0,0.02 0,0.02 0,0.02 0,0.03 -0.1,0.02 0,0.02 0,0.03 0,0.02 0,0.03 -0.1,0.03 0,0.03 0,0.03 -0.1,0.03 0,0.03 0,0.03 0,0.03 -0.1,0.04 0,0.03 0,0.04 -0.1,0.03 0,0.04 -0.1,0.04 c -6.2,6.28 -7.8,15.69 -7.8,23.31 0,8.67 1.9,17.35 8,23.56 0.7,0.61 0.7,0.71 0.7,0.86 0,0.35 -0.2,0.49 -0.5,0.49 -0.5,0 -5,-3.38 -7.9,-9.7 -2.6,-5.49 -3.2,-11.02 -3.2,-15.21 0,-3.89 0.6,-9.9 3.3,-15.54 3,-6.13 7.3,-9.36 7.8,-9.36 0.3,0 0.5,0.14 0.5,0.5 z"
         inkscape:connector-curvature="0"
         style="fill:#000000;stroke-width:0" /><path
         id="path6940"
         d="m 1545.5,421.25 0,0.13 0,0.15 0.1,0.16 0,0.18 0.1,0.19 0,0.21 0.1,0.22 0.1,0.22 0,0.23 0.1,0.24 0.1,0.25 0.1,0.24 0.1,0.25 0.2,0.25 0.1,0.25 0.1,0.25 0.2,0.24 0.1,0.24 0.2,0.23 0.2,0.22 0.2,0.22 0.2,0.2 0.2,0.19 0.2,0.18 0.2,0.16 0.3,0.14 0.1,0.07 0.1,0.06 0.1,0.05 0.2,0.05 0.1,0.05 0.2,0.04 0.1,0.03 0.2,0.03 0.1,0.02 0.2,0.02 0.1,0.01 0.2,0 c 0.2,0 1.4,0 2.5,-0.64 -1.4,-0.25 -2.4,-1.5 -2.4,-2.69 0,-0.79 0.5,-1.75 1.9,-1.75 1.1,0 2.7,0.89 2.7,2.89 0,2.6 -3,3.28 -4.7,3.28 -2.8,0 -4.6,-2.64 -5.2,-3.78 -1.2,3.28 -3.9,3.78 -5.4,3.78 -5.2,0 -8,-6.42 -8,-7.67 0,-0.5 0.5,-0.5 0.6,-0.5 0.4,0 0.6,0.11 0.7,0.55 1.6,5.28 4.9,6.53 6.6,6.53 1,0 2.7,-0.44 2.7,-3.33 0,-1.54 -0.8,-4.89 -2.7,-11.86 -0.8,-3.09 -2.5,-5.18 -4.7,-5.18 -0.3,0 -1.4,0 -2.5,0.65 1.3,0.24 2.3,1.28 2.3,2.69 0,1.34 -1,1.73 -1.8,1.73 -1.5,0 -2.8,-1.29 -2.8,-2.89 0,-2.28 2.6,-3.28 4.7,-3.28 3.3,0 5.1,3.49 5.3,3.78 0.6,-1.84 2.4,-3.78 5.4,-3.78 5.1,0 7.9,6.42 7.9,7.67 0,0.5 -0.4,0.5 -0.6,0.5 -0.4,0 -0.5,-0.2 -0.6,-0.54 -1.7,-5.33 -5.1,-6.53 -6.6,-6.53 -2,0 -2.8,1.59 -2.8,3.29 0,1.1 0.3,2.19 0.9,4.38 z"
         inkscape:connector-curvature="0"
         style="fill:#000000;stroke-width:0" /><path
         id="path6942"
         d="m 1571.6,418.65 0,0.37 0,0.39 0,0.39 0,0.41 0,0.84 -0.1,0.88 -0.1,0.92 -0.1,0.95 -0.1,0.97 -0.2,1.01 -0.2,1.02 -0.2,1.03 -0.3,1.05 -0.3,1.06 -0.3,1.07 -0.4,1.07 -0.2,0.53 -0.3,0.53 -0.2,0.53 -0.2,0.53 c -3,6.12 -7.3,9.36 -7.8,9.36 -0.3,0 -0.5,-0.19 -0.5,-0.49 0,-0.15 0,-0.25 0.9,-1.15 4.9,-4.92 7.8,-12.85 7.8,-23.27 0,-8.51 -1.9,-17.28 -8.1,-23.56 -0.6,-0.59 -0.6,-0.7 -0.6,-0.84 0,-0.3 0.2,-0.5 0.5,-0.5 0.5,0 5,3.39 7.9,9.71 2.6,5.47 3.1,11 3.1,15.19 z"
         inkscape:connector-curvature="0"
         style="fill:#000000;stroke-width:0" /></g>  </g>
  <rect
     style="fill:none;stroke:none"
     id="rect7119"
     width="1254.6095"
     height="159.6041"
     x="-30.304577"
     y="221.84561" />
</svg>
