<?xml version="1.0" encoding="UTF-8" standalone="no"?>
<!-- Created with Inkscape (http://www.inkscape.org/) -->

<svg
   xmlns:dc="http://purl.org/dc/elements/1.1/"
   xmlns:cc="http://creativecommons.org/ns#"
   xmlns:rdf="http://www.w3.org/1999/02/22-rdf-syntax-ns#"
   xmlns:svg="http://www.w3.org/2000/svg"
   xmlns="http://www.w3.org/2000/svg"
   xmlns:sodipodi="http://sodipodi.sourceforge.net/DTD/sodipodi-0.dtd"
   xmlns:inkscape="http://www.inkscape.org/namespaces/inkscape"
   width="1052.3622"
   height="744.09448"
   id="svg2"
   version="1.1"
   inkscape:version="0.48.3.1 r9886"
   sodipodi:docname="category-3.svg"
   inkscape:export-filename="/home/koichi/work/category-seminar/fig/category-3.png"
   inkscape:export-xdpi="90"
   inkscape:export-ydpi="90">
  <sodipodi:namedview
     id="base"
     pagecolor="#ffffff"
     bordercolor="#666666"
     borderopacity="1.0"
     inkscape:pageopacity="0.0"
     inkscape:pageshadow="2"
     inkscape:zoom="1"
     inkscape:cx="419.01697"
     inkscape:cy="350.48749"
     inkscape:document-units="px"
     inkscape:current-layer="layer1"
     showgrid="false"
     inkscape:showpageshadow="false"
     inkscape:window-width="1920"
     inkscape:window-height="1058"
     inkscape:window-x="0"
     inkscape:window-y="22"
     inkscape:window-maximized="0" />
  <defs
     id="defs4">
    <marker
       style="overflow:visible;"
       id="Arrow1Lend"
       refX="0.0"
       refY="0.0"
       orient="auto"
       inkscape:stockid="Arrow1Lend">
      <path
         transform="scale(0.8) rotate(180) translate(12.5,0)"
         style="fill-rule:evenodd;stroke:#000000;stroke-width:1.0pt;"
         d="M 0.0,0.0 L 5.0,-5.0 L -12.5,0.0 L 5.0,5.0 L 0.0,0.0 z "
         id="path3824" />
    </marker>
    <marker
       style="overflow:visible;"
       id="Arrow1LendO"
       refX="0.0"
       refY="0.0"
       orient="auto"
       inkscape:stockid="Arrow1LendO">
      <path
         transform="scale(0.8) rotate(180) translate(12.5,0)"
         style="stroke:#ff0000;stroke-width:1.0pt;fill:#ff0000;fill-rule:evenodd"
         d="M 0.0,0.0 L 5.0,-5.0 L -12.5,0.0 L 5.0,5.0 L 0.0,0.0 z "
         id="path6561" />
    </marker>
    <marker
       style="overflow:visible;"
       id="Arrow1Lendw"
       refX="0.0"
       refY="0.0"
       orient="auto"
       inkscape:stockid="Arrow1Lendw">
      <path
         transform="scale(0.8) rotate(180) translate(12.5,0)"
         style="stroke:#0000ff;stroke-width:1.0pt;fill:#0000ff;fill-rule:evenodd"
         d="M 0.0,0.0 L 5.0,-5.0 L -12.5,0.0 L 5.0,5.0 L 0.0,0.0 z "
         id="path6682" />
    </marker>
    <marker
       style="overflow:visible;"
       id="Arrow1LendA"
       refX="0.0"
       refY="0.0"
       orient="auto"
       inkscape:stockid="Arrow1LendA">
      <path
         transform="scale(0.8) rotate(180) translate(12.5,0)"
         style="stroke:#0000ff;stroke-width:1.0pt;fill:#0000ff;fill-rule:evenodd"
         d="M 0.0,0.0 L 5.0,-5.0 L -12.5,0.0 L 5.0,5.0 L 0.0,0.0 z "
         id="path6685" />
    </marker>
    <marker
       style="overflow:visible;"
       id="Arrow1LendP"
       refX="0.0"
       refY="0.0"
       orient="auto"
       inkscape:stockid="Arrow1LendP">
      <path
         transform="scale(0.8) rotate(180) translate(12.5,0)"
         style="stroke:#0000ff;stroke-width:1.0pt;fill:#0000ff;fill-rule:evenodd"
         d="M 0.0,0.0 L 5.0,-5.0 L -12.5,0.0 L 5.0,5.0 L 0.0,0.0 z "
         id="path7002" />
    </marker>
    <marker
       style="overflow:visible;"
       id="Arrow1Lend0"
       refX="0.0"
       refY="0.0"
       orient="auto"
       inkscape:stockid="Arrow1Lend0">
      <path
         transform="scale(0.8) rotate(180) translate(12.5,0)"
         style="stroke:#0000ff;stroke-width:1.0pt;fill:#0000ff;fill-rule:evenodd"
         d="M 0.0,0.0 L 5.0,-5.0 L -12.5,0.0 L 5.0,5.0 L 0.0,0.0 z "
         id="path7005" />
    </marker>
    <marker
       style="overflow:visible;"
       id="Arrow1Lendb"
       refX="0.0"
       refY="0.0"
       orient="auto"
       inkscape:stockid="Arrow1Lendb">
      <path
         transform="scale(0.8) rotate(180) translate(12.5,0)"
         style="stroke:#00ff00;stroke-width:1.0pt;fill:#00ff00;fill-rule:evenodd"
         d="M 0.0,0.0 L 5.0,-5.0 L -12.5,0.0 L 5.0,5.0 L 0.0,0.0 z "
         id="path7142" />
    </marker>
    <marker
       style="overflow:visible;"
       id="Arrow1Lendk"
       refX="0.0"
       refY="0.0"
       orient="auto"
       inkscape:stockid="Arrow1Lendk">
      <path
         transform="scale(0.8) rotate(180) translate(12.5,0)"
         style="stroke:#00ff00;stroke-width:1.0pt;fill:#00ff00;fill-rule:evenodd"
         d="M 0.0,0.0 L 5.0,-5.0 L -12.5,0.0 L 5.0,5.0 L 0.0,0.0 z "
         id="path7145" />
    </marker>
    <marker
       style="overflow:visible;"
       id="Arrow1Lend1"
       refX="0.0"
       refY="0.0"
       orient="auto"
       inkscape:stockid="Arrow1Lend1">
      <path
         transform="scale(0.8) rotate(180) translate(12.5,0)"
         style="stroke:#00ff00;stroke-width:1.0pt;fill:#00ff00;fill-rule:evenodd"
         d="M 0.0,0.0 L 5.0,-5.0 L -12.5,0.0 L 5.0,5.0 L 0.0,0.0 z "
         id="path7148" />
    </marker>
    <marker
       style="overflow:visible;"
       id="Arrow1Lendd"
       refX="0.0"
       refY="0.0"
       orient="auto"
       inkscape:stockid="Arrow1Lendd">
      <path
         transform="scale(0.8) rotate(180) translate(12.5,0)"
         style="stroke:#00ff00;stroke-width:1.0pt;fill:#00ff00;fill-rule:evenodd"
         d="M 0.0,0.0 L 5.0,-5.0 L -12.5,0.0 L 5.0,5.0 L 0.0,0.0 z "
         id="path7151" />
    </marker>
    <marker
       style="overflow:visible;"
       id="Arrow1Lendl"
       refX="0.0"
       refY="0.0"
       orient="auto"
       inkscape:stockid="Arrow1Lendl">
      <path
         transform="scale(0.8) rotate(180) translate(12.5,0)"
         style="stroke:#00ff00;stroke-width:1.0pt;fill:#00ff00;fill-rule:evenodd"
         d="M 0.0,0.0 L 5.0,-5.0 L -12.5,0.0 L 5.0,5.0 L 0.0,0.0 z "
         id="path7154" />
    </marker>
    <marker
       style="overflow:visible;"
       id="Arrow1Lendm"
       refX="0.0"
       refY="0.0"
       orient="auto"
       inkscape:stockid="Arrow1Lendm">
      <path
         transform="scale(0.8) rotate(180) translate(12.5,0)"
         style="stroke:#00ff00;stroke-width:1.0pt;fill:#00ff00;fill-rule:evenodd"
         d="M 0.0,0.0 L 5.0,-5.0 L -12.5,0.0 L 5.0,5.0 L 0.0,0.0 z "
         id="path7157" />
    </marker>
    <marker
       style="overflow:visible;"
       id="Arrow1Lendv"
       refX="0.0"
       refY="0.0"
       orient="auto"
       inkscape:stockid="Arrow1Lendv">
      <path
         transform="scale(0.8) rotate(180) translate(12.5,0)"
         style="stroke:#00ff00;stroke-width:1.0pt;fill:#00ff00;fill-rule:evenodd"
         d="M 0.0,0.0 L 5.0,-5.0 L -12.5,0.0 L 5.0,5.0 L 0.0,0.0 z "
         id="path7520" />
    </marker>
    <marker
       style="overflow:visible;"
       id="Arrow1Lend9"
       refX="0.0"
       refY="0.0"
       orient="auto"
       inkscape:stockid="Arrow1Lend9">
      <path
         transform="scale(0.8) rotate(180) translate(12.5,0)"
         style="stroke:#00ff00;stroke-width:1.0pt;fill:#00ff00;fill-rule:evenodd"
         d="M 0.0,0.0 L 5.0,-5.0 L -12.5,0.0 L 5.0,5.0 L 0.0,0.0 z "
         id="path7523" />
    </marker>
    <marker
       style="overflow:visible;"
       id="Arrow1Lend2"
       refX="0.0"
       refY="0.0"
       orient="auto"
       inkscape:stockid="Arrow1Lend2">
      <path
         transform="scale(0.8) rotate(180) translate(12.5,0)"
         style="stroke:#00ff00;stroke-width:1.0pt;fill:#00ff00;fill-rule:evenodd"
         d="M 0.0,0.0 L 5.0,-5.0 L -12.5,0.0 L 5.0,5.0 L 0.0,0.0 z "
         id="path7526" />
    </marker>
  </defs>
  <metadata
     id="metadata7">
    <rdf:RDF>
      <cc:Work
         rdf:about="">
        <dc:format>image/svg+xml</dc:format>
        <dc:type
           rdf:resource="http://purl.org/dc/dcmitype/StillImage" />
        <dc:title></dc:title>
      </cc:Work>
    </rdf:RDF>
  </metadata>
  <g
     transform="translate(0,-308.2677)"
     id="layer1"
     inkscape:groupmode="layer"
     inkscape:label="レイヤー 1">
    <rect
       y="808.86218"
       x="84"
       height="181"
       width="258"
       id="rect5111-8"
       style="fill:none;stroke:#000000" />
    <rect
       transform="translate(0,308.2677)"
       y="-0.38794351"
       x="0"
       height="743.47229"
       width="1051.5688"
       id="rect2985"
       style="fill:none;stroke:none" />
    <path
       sodipodi:open="true"
       sodipodi:end="10.519133"
       sodipodi:start="4.2407348"
       transform="matrix(0.34180265,0,0,-0.34180265,38.809849,578.23626)"
       d="m 500.00541,347.94837 c 10.41286,-5.31107 23.15963,-1.17525 28.47069,9.23761 5.31107,10.41287 1.17525,23.15963 -9.23762,28.4707 -10.41286,5.31106 -23.15962,1.17524 -28.47069,-9.23762 -5.29309,-10.37764 -1.2047,-23.08173 9.14748,-28.42444"
       sodipodi:ry="21.164993"
       sodipodi:rx="21.164993"
       sodipodi:cy="366.80252"
       sodipodi:cx="509.62195"
       id="path3008-3"
       style="fill:#ff0000;stroke:none"
       sodipodi:type="arc" />
    <path
       sodipodi:open="true"
       sodipodi:end="10.519133"
       sodipodi:start="4.2407348"
       transform="matrix(0.34180265,0,0,-0.34180265,-21.190151,801.48626)"
       d="m 500.00541,347.94837 c 10.41286,-5.31107 23.15963,-1.17525 28.47069,9.23761 5.31107,10.41287 1.17525,23.15963 -9.23762,28.4707 -10.41286,5.31106 -23.15962,1.17524 -28.47069,-9.23762 -5.29309,-10.37764 -1.2047,-23.08173 9.14748,-28.42444"
       sodipodi:ry="21.164993"
       sodipodi:rx="21.164993"
       sodipodi:cy="366.80252"
       sodipodi:cx="509.62195"
       id="path3008-3-6"
       style="fill:#0000ff;stroke:none"
       sodipodi:type="arc" />
    <path
       sodipodi:open="true"
       sodipodi:end="10.519133"
       sodipodi:start="4.2407348"
       transform="matrix(0.34180265,0,0,-0.34180265,98.809849,801.48626)"
       d="m 500.00541,347.94837 c 10.41286,-5.31107 23.15963,-1.17525 28.47069,9.23761 5.31107,10.41287 1.17525,23.15963 -9.23762,28.4707 -10.41286,5.31106 -23.15962,1.17524 -28.47069,-9.23762 -5.29309,-10.37764 -1.2047,-23.08173 9.14748,-28.42444"
       sodipodi:ry="21.164993"
       sodipodi:rx="21.164993"
       sodipodi:cy="366.80252"
       sodipodi:cx="509.62195"
       id="path3008-3-9"
       style="fill:#0000ff;stroke:none"
       sodipodi:type="arc" />
    <path
       sodipodi:open="true"
       sodipodi:end="10.519133"
       sodipodi:start="4.2407348"
       transform="matrix(0.34180265,0,0,-0.34180265,1.80985,1000.7363)"
       d="m 500.00541,347.94837 c 10.41286,-5.31107 23.15963,-1.17525 28.47069,9.23761 5.31107,10.41287 1.17525,23.15963 -9.23762,28.4707 -10.41286,5.31106 -23.15962,1.17524 -28.47069,-9.23762 -5.29309,-10.37764 -1.2047,-23.08173 9.14748,-28.42444"
       sodipodi:ry="21.164993"
       sodipodi:rx="21.164993"
       sodipodi:cy="366.80252"
       sodipodi:cx="509.62195"
       id="path3008-3-7"
       style="fill:#00ff00;stroke:none"
       sodipodi:type="arc" />
    <path
       sodipodi:open="true"
       sodipodi:end="10.519133"
       sodipodi:start="4.2407348"
       transform="matrix(0.34180265,0,0,-0.34180265,98.80985,1073.7363)"
       d="m 500.00541,347.94837 c 10.41286,-5.31107 23.15963,-1.17525 28.47069,9.23761 5.31107,10.41287 1.17525,23.15963 -9.23762,28.4707 -10.41286,5.31106 -23.15962,1.17524 -28.47069,-9.23762 -5.29309,-10.37764 -1.2047,-23.08173 9.14748,-28.42444"
       sodipodi:ry="21.164993"
       sodipodi:rx="21.164993"
       sodipodi:cy="366.80252"
       sodipodi:cx="509.62195"
       id="path3008-3-66"
       style="fill:#00ff00;stroke:none"
       sodipodi:type="arc" />
    <path
       sodipodi:open="true"
       sodipodi:end="10.519133"
       sodipodi:start="4.2407348"
       transform="matrix(0.34180265,0,0,-0.34180265,102.80985,984.73626)"
       d="m 500.00541,347.94837 c 10.41286,-5.31107 23.15963,-1.17525 28.47069,9.23761 5.31107,10.41287 1.17525,23.15963 -9.23762,28.4707 -10.41286,5.31106 -23.15962,1.17524 -28.47069,-9.23762 -5.29309,-10.37764 -1.2047,-23.08173 9.14748,-28.42444"
       sodipodi:ry="21.164993"
       sodipodi:rx="21.164993"
       sodipodi:cy="366.80252"
       sodipodi:cx="509.62195"
       id="path3008-3-5"
       style="fill:#00ff00;stroke:none"
       sodipodi:type="arc" />
    <path
       sodipodi:open="true"
       sodipodi:end="10.519133"
       sodipodi:start="4.2407348"
       transform="matrix(0.34180265,0,0,-0.34180265,597.80985,946.73626)"
       d="m 500.00541,347.94837 c 10.41286,-5.31107 23.15963,-1.17525 28.47069,9.23761 5.31107,10.41287 1.17525,23.15963 -9.23762,28.4707 -10.41286,5.31106 -23.15962,1.17524 -28.47069,-9.23762 -5.29309,-10.37764 -1.2047,-23.08173 9.14748,-28.42444"
       sodipodi:ry="21.164993"
       sodipodi:rx="21.164993"
       sodipodi:cy="366.80252"
       sodipodi:cx="509.62195"
       id="path3008-3-68"
       style="fill:#00ff00;stroke:none"
       sodipodi:type="arc" />
    <path
       sodipodi:open="true"
       sodipodi:end="10.519133"
       sodipodi:start="4.2407348"
       transform="matrix(0.34180265,0,0,-0.34180265,446.80985,1005.7363)"
       d="m 500.00541,347.94837 c 10.41286,-5.31107 23.15963,-1.17525 28.47069,9.23761 5.31107,10.41287 1.17525,23.15963 -9.23762,28.4707 -10.41286,5.31106 -23.15962,1.17524 -28.47069,-9.23762 -5.29309,-10.37764 -1.2047,-23.08173 9.14748,-28.42444"
       sodipodi:ry="21.164993"
       sodipodi:rx="21.164993"
       sodipodi:cy="366.80252"
       sodipodi:cx="509.62195"
       id="path3008-3-3"
       style="fill:#00ff00;stroke:none"
       sodipodi:type="arc" />
    <path
       sodipodi:open="true"
       sodipodi:end="10.519133"
       sodipodi:start="4.2407348"
       transform="matrix(0.34180265,0,0,-0.34180265,607.80985,828.73626)"
       d="m 500.00541,347.94837 c 10.41286,-5.31107 23.15963,-1.17525 28.47069,9.23761 5.31107,10.41287 1.17525,23.15963 -9.23762,28.4707 -10.41286,5.31106 -23.15962,1.17524 -28.47069,-9.23762 -5.29309,-10.37764 -1.2047,-23.08173 9.14748,-28.42444"
       sodipodi:ry="21.164993"
       sodipodi:rx="21.164993"
       sodipodi:cy="366.80252"
       sodipodi:cx="509.62195"
       id="path3008-3-61"
       style="fill:#0000ff;stroke:none"
       sodipodi:type="arc" />
    <path
       sodipodi:open="true"
       sodipodi:end="10.519133"
       sodipodi:start="4.2407348"
       transform="matrix(0.34180265,0,0,-0.34180265,762.80985,1056.7363)"
       d="m 500.00541,347.94837 c 10.41286,-5.31107 23.15963,-1.17525 28.47069,9.23761 5.31107,10.41287 1.17525,23.15963 -9.23762,28.4707 -10.41286,5.31106 -23.15962,1.17524 -28.47069,-9.23762 -5.29309,-10.37764 -1.2047,-23.08173 9.14748,-28.42444"
       sodipodi:ry="21.164993"
       sodipodi:rx="21.164993"
       sodipodi:cy="366.80252"
       sodipodi:cx="509.62195"
       id="path3008-3-8"
       style="fill:#00ff00;stroke:none"
       sodipodi:type="arc" />
    <path
       sodipodi:open="true"
       sodipodi:end="10.519133"
       sodipodi:start="4.2407348"
       transform="matrix(0.34180265,0,0,-0.34180265,491.80985,712.73626)"
       d="m 500.00541,347.94837 c 10.41286,-5.31107 23.15963,-1.17525 28.47069,9.23761 5.31107,10.41287 1.17525,23.15963 -9.23762,28.4707 -10.41286,5.31106 -23.15962,1.17524 -28.47069,-9.23762 -5.29309,-10.37764 -1.2047,-23.08173 9.14748,-28.42444"
       sodipodi:ry="21.164993"
       sodipodi:rx="21.164993"
       sodipodi:cy="366.80252"
       sodipodi:cx="509.62195"
       id="path3008-3-67"
       style="fill:#0000ff;stroke:none"
       sodipodi:type="arc" />
    <path
       sodipodi:open="true"
       sodipodi:end="10.519133"
       sodipodi:start="4.2407348"
       transform="matrix(0.34180265,0,0,-0.34180265,627.80985,593.73626)"
       d="m 500.00541,347.94837 c 10.41286,-5.31107 23.15963,-1.17525 28.47069,9.23761 5.31107,10.41287 1.17525,23.15963 -9.23762,28.4707 -10.41286,5.31106 -23.15962,1.17524 -28.47069,-9.23762 -5.29309,-10.37764 -1.2047,-23.08173 9.14748,-28.42444"
       sodipodi:ry="21.164993"
       sodipodi:rx="21.164993"
       sodipodi:cy="366.80252"
       sodipodi:cx="509.62195"
       id="path3008-3-64"
       style="fill:#ff0000;stroke:none"
       sodipodi:type="arc" />
    <rect
       y="362.36218"
       x="84"
       height="181"
       width="258"
       id="rect5111"
       style="fill:none;stroke:#000000" />
    <rect
       y="585.61218"
       x="84"
       height="181"
       width="258"
       id="rect5111-6"
       style="fill:none;stroke:#000000" />
    <rect
       transform="translate(0,308.2677)"
       y="55.094482"
       x="538"
       height="631"
       width="482"
       id="rect5142"
       style="fill:none;stroke:#000000;stroke-width:1;stroke-miterlimit:4;stroke-dasharray:none" />
    <g
       id="g5170"
       transform="translate(-249.13287,38)">
      <g
         word-spacing="normal"
         letter-spacing="normal"
         font-size-adjust="none"
         font-stretch="normal"
         font-weight="normal"
         font-variant="normal"
         font-style="normal"
         stroke-miterlimit="10.433"
         xml:space="preserve"
         transform="matrix(1.0629921,0,0,-1.0629921,-186.02362,789.27165)"
         id="content"
         style="font-style:normal;font-variant:normal;font-weight:normal;font-stretch:normal;letter-spacing:normal;word-spacing:normal;text-anchor:start;fill:none;stroke:#000000;stroke-linecap:butt;stroke-linejoin:miter;stroke-miterlimit:10.43299961;stroke-opacity:1;stroke-dasharray:none;stroke-dashoffset:0"><path
           id="path5173"
           d="m 473.16,437.23 0,0.1 0,0.1 0,0.1 0,0.09 0,0.09 -0.01,0.08 0,0.08 -0.01,0.08 -0.01,0.07 -0.01,0.08 -0.01,0.06 -0.02,0.07 -0.02,0.06 -0.02,0.06 -0.02,0.05 -0.03,0.05 -0.03,0.05 -0.04,0.04 -0.04,0.05 -0.05,0.03 -0.05,0.04 -0.05,0.03 -0.03,0.01 -0.03,0.02 -0.03,0.01 -0.04,0.01 -0.03,0.02 -0.04,0.01 -0.04,0.01 -0.04,0.01 -0.04,0.01 -0.04,0 -0.04,0.01 -0.05,0.01 -0.05,0 -0.05,0.01 -0.05,0 -0.05,0 -0.05,0.01 -0.06,0 -0.06,0 -0.06,0 c -0.54,0 -0.65,0 -1.09,-0.36 -3.84,-2.84 -8.97,-2.84 -10.02,-2.84 h -1 v -2.33 h 1 c 0.8,0 3.54,0.05 6.47,0.98 v -25.75 h -6.92 v -2.34 c 2.19,0.16 7.47,0.16 9.92,0.16 2.44,0 7.72,0 9.91,-0.16 v 2.34 h -6.97 z"
           inkscape:connector-curvature="0"
           style="fill:#000000;stroke-width:0" /></g>    </g>
    <g
       id="g5231"
       transform="translate(-249,262)">
      <g
         id="g5233"
         transform="matrix(1.0629921,0,0,-1.0629921,-186.02362,789.27165)"
         xml:space="preserve"
         stroke-miterlimit="10.433"
         font-style="normal"
         font-variant="normal"
         font-weight="normal"
         font-stretch="normal"
         font-size-adjust="none"
         letter-spacing="normal"
         word-spacing="normal"
         style="font-style:normal;font-variant:normal;font-weight:normal;font-stretch:normal;letter-spacing:normal;word-spacing:normal;text-anchor:start;fill:none;stroke:#000000;stroke-linecap:butt;stroke-linejoin:miter;stroke-miterlimit:10.43299961;stroke-opacity:1;stroke-dasharray:none;stroke-dashoffset:0"><path
           d="m 481.27,417.26 h -2.33 c -0.15,-1 -0.61,-4.19 -1.3,-4.53 -0.54,-0.3 -4.28,-0.3 -5.09,-0.3 h -7.31 c 2.34,1.94 4.92,4.08 7.17,5.72 5.67,4.19 8.86,6.53 8.86,11.27 0,5.73 -5.17,9.42 -12.2,9.42 -6.03,0 -10.71,-3.09 -10.71,-7.58 0,-2.94 2.39,-3.69 3.58,-3.69 1.6,0 3.6,1.1 3.6,3.58 0,2.6 -2.1,3.39 -2.85,3.6 1.45,1.2 3.35,1.75 5.14,1.75 4.28,0 6.56,-3.39 6.56,-7.13 0,-3.44 -1.89,-6.83 -5.37,-10.37 L 459,408.79 c -0.64,-0.59 -0.64,-0.7 -0.64,-1.7 v -0.89 h 21.38 z"
           id="path5235"
           inkscape:connector-curvature="0"
           style="fill:#000000;stroke-width:0" /></g>    </g>
    <g
       id="g5299"
       transform="translate(-249,489)">
      <g
         word-spacing="normal"
         letter-spacing="normal"
         font-size-adjust="none"
         font-stretch="normal"
         font-weight="normal"
         font-variant="normal"
         font-style="normal"
         stroke-miterlimit="10.433"
         xml:space="preserve"
         transform="matrix(1.0629921,0,0,-1.0629921,-186.02362,789.27165)"
         id="g5301"
         style="font-style:normal;font-variant:normal;font-weight:normal;font-stretch:normal;letter-spacing:normal;word-spacing:normal;text-anchor:start;fill:none;stroke:#000000;stroke-linecap:butt;stroke-linejoin:miter;stroke-miterlimit:10.43299961;stroke-opacity:1;stroke-dasharray:none;stroke-dashoffset:0"><path
           id="path5303"
           d="m 473.05,423.73 0.32,0.1 0.33,0.12 0.32,0.12 0.32,0.14 0.32,0.14 0.32,0.16 0.32,0.16 0.31,0.18 0.3,0.18 0.31,0.2 0.29,0.2 0.29,0.22 0.28,0.22 0.28,0.24 0.26,0.24 0.26,0.25 0.24,0.27 0.24,0.27 0.22,0.28 0.22,0.29 0.19,0.3 0.19,0.31 0.17,0.32 0.16,0.33 0.14,0.33 0.12,0.35 0.11,0.35 0.09,0.36 0.07,0.38 0.05,0.38 0.03,0.38 0.01,0.4 c 0,3.85 -3.78,6.94 -10.81,6.94 -5.93,0 -9.82,-3.2 -9.82,-7.19 0,-2.14 1.55,-3.48 3.44,-3.48 2.25,0 3.49,1.59 3.49,3.44 0,2.89 -2.69,3.43 -2.89,3.48 1.75,1.41 3.93,1.8 5.48,1.8 4.14,0 4.28,-3.19 4.28,-4.83 0,-0.66 -0.05,-7.17 -5.22,-7.47 -2.04,-0.11 -2.15,-0.16 -2.4,-0.2 -0.49,-0.05 -0.6,-0.55 -0.6,-0.85 0,-0.9 0.5,-0.9 1.39,-0.9 h 2.21 c 5.42,0 5.42,-4.88 5.42,-7.43 0,-2.34 0,-7.42 -5.17,-7.42 -1.3,0 -3.89,0.21 -6.29,1.69 1.65,0.45 2.9,1.7 2.9,3.75 0,2.23 -1.6,3.78 -3.79,3.78 -2.09,0 -3.84,-1.34 -3.84,-3.89 0,-4.48 4.83,-7.47 11.27,-7.47 8.9,0 12.54,4.99 12.54,9.52 0,2.73 -1.43,7.03 -8.67,8.56 z"
           inkscape:connector-curvature="0"
           style="fill:#000000;stroke-width:0" /></g>    </g>
    <path
       style="stroke-linejoin:miter;marker-end:url(#Arrow1LendA);stroke-opacity:1;stroke:#0000ff;stroke-linecap:butt;stroke-width:1px;fill:none"
       d="m 169,677.36218 85,0"
       id="path5338"
       inkscape:connector-curvature="0" />
    <path
       style="stroke-linejoin:miter;marker-end:url(#Arrow1Lendd);stroke-opacity:1;stroke:#00ff00;stroke-linecap:butt;stroke-width:1px;fill:none"
       d="m 189,562.09448 73,-10"
       id="path5522"
       inkscape:connector-curvature="0"
       transform="translate(0,308.2677)" />
    <path
       style="stroke-linejoin:miter;marker-end:url(#Arrow1Lendl);stroke-opacity:1;stroke:#00ff00;stroke-linecap:butt;stroke-width:1px;fill:none"
       d="m 278,564.09448 -5,65"
       id="path5524"
       inkscape:connector-curvature="0"
       transform="translate(0,308.2677)" />
    <path
       style="stroke-linejoin:miter;marker-end:url(#Arrow1Lendm);stroke-opacity:1;stroke:#00ff00;stroke-linecap:butt;stroke-width:1px;fill:none"
       d="m 183,573.09448 81,62"
       id="path5526"
       inkscape:connector-curvature="0"
       transform="translate(0,308.2677)"
       sodipodi:nodetypes="cc" />
    <g
       transform="translate(192,40)"
       id="g5749">
      <g
         style="font-style:normal;font-variant:normal;font-weight:normal;font-stretch:normal;letter-spacing:normal;word-spacing:normal;text-anchor:start;fill:none;stroke:#000000;stroke-linecap:butt;stroke-linejoin:miter;stroke-miterlimit:10.43299961;stroke-opacity:1;stroke-dasharray:none;stroke-dashoffset:0"
         id="g5751"
         transform="matrix(1.0629921,0,0,-1.0629921,-186.02362,789.27165)"
         xml:space="preserve"
         stroke-miterlimit="10.433"
         font-style="normal"
         font-variant="normal"
         font-weight="normal"
         font-stretch="normal"
         font-size-adjust="none"
         letter-spacing="normal"
         word-spacing="normal"><path
           style="fill:#000000;stroke-width:0"
           inkscape:connector-curvature="0"
           d="m 493.68,439.53 0,0.08 0,0.09 0,0.08 -0.01,0.08 0,0.08 0,0.07 0,0.07 -0.01,0.07 0,0.06 -0.01,0.06 -0.01,0.06 -0.01,0.06 -0.01,0.05 -0.02,0.05 -0.02,0.05 -0.02,0.04 -0.02,0.04 -0.02,0.04 -0.03,0.04 -0.03,0.03 -0.04,0.03 -0.03,0.03 -0.04,0.02 -0.05,0.02 -0.05,0.02 -0.02,0.01 -0.03,0.01 -0.03,0.01 -0.03,0.01 -0.03,0 -0.03,0.01 -0.03,0 -0.04,0.01 -0.03,0 -0.04,0 -0.04,0.01 -0.03,0 -0.04,0 -0.04,0 c -0.46,0 -0.55,-0.1 -0.96,-0.44 l -3.28,-2.94 c -3.09,2.49 -6.42,3.38 -9.81,3.38 -12.41,0 -20.03,-7.42 -20.03,-17.63 0,-10.22 7.62,-17.64 20.03,-17.64 9.31,0 14.94,6.13 14.94,11.86 0,1 -0.35,1.05 -1.19,1.05 -0.66,0 -1.1,0 -1.14,-0.85 -0.36,-6.68 -6.39,-9.71 -11.42,-9.71 -3.88,0 -8.07,1.18 -10.66,4.23 -2.34,2.84 -2.94,6.58 -2.94,11.06 0,2.78 0.14,8.17 3.28,11.46 3.25,3.28 7.58,3.84 10.18,3.84 5.37,0 10.1,-3.8 11.2,-10.13 0.15,-0.93 0.2,-1.04 1.34,-1.04 1.3,0 1.35,0.11 1.35,1.4 z"
           id="path5753" /></g>    </g>
    <path
       transform="translate(0,308.2677)"
       inkscape:connector-curvature="0"
       id="path5795"
       d="m 791,167.09448 -117,104"
       style="fill:none;stroke:#000000;stroke-width:1px;stroke-linecap:butt;stroke-linejoin:miter;stroke-opacity:1;marker-end:url(#Arrow1Lend)" />
    <path
       transform="translate(0,308.2677)"
       inkscape:connector-curvature="0"
       id="path5797"
       d="m 674,287.09448 98,100"
       style="stroke-linejoin:miter;marker-end:url(#Arrow1Lendw);stroke-opacity:1;stroke:#0000ff;stroke-linecap:butt;stroke-width:1px;fill:none" />
    <path
       transform="translate(0,308.2677)"
       inkscape:connector-curvature="0"
       id="path5799"
       d="m 803,171.09448 -19,212"
       style="fill:none;stroke:#000000;stroke-width:1px;stroke-linecap:butt;stroke-linejoin:miter;stroke-opacity:1;marker-end:url(#Arrow1Lend)" />
    <path
       transform="translate(0,308.2677)"
       inkscape:connector-curvature="0"
       id="path5803"
       d="m 781,407.09448 -8,91"
       style="fill:none;stroke:#000000;stroke-width:1px;stroke-linecap:butt;stroke-linejoin:miter;stroke-opacity:1;marker-end:url(#Arrow1Lend)" />
    <path
       transform="translate(0,308.2677)"
       inkscape:connector-curvature="0"
       id="path5805"
       d="m 670,294.09448 94,209"
       style="fill:none;stroke:#000000;stroke-width:1px;stroke-linecap:butt;stroke-linejoin:miter;stroke-opacity:1;marker-end:url(#Arrow1Lend)" />
    <path
       transform="translate(0,308.2677)"
       inkscape:connector-curvature="0"
       id="path5809"
       d="m 636,569.09448 119,-51"
       style="stroke-linejoin:miter;marker-end:url(#Arrow1Lendb);stroke-opacity:1;stroke:#00ff00;stroke-linecap:butt;stroke-width:1px;fill:none" />
    <path
       transform="translate(0,308.2677)"
       inkscape:connector-curvature="0"
       id="path5811"
       d="m 784,517.09448 140,98"
       style="stroke-linejoin:miter;marker-end:url(#Arrow1Lendk);stroke-opacity:1;stroke:#00ff00;stroke-linecap:butt;stroke-width:1px;fill:none" />
    <path
       transform="translate(0,308.2677)"
       inkscape:connector-curvature="0"
       id="path5813"
       d="m 639,578.09448 283,42"
       style="stroke-linejoin:miter;marker-end:url(#Arrow1Lend1);stroke-opacity:1;stroke:#00ff00;stroke-linecap:butt;stroke-width:1px;fill:none" />
    <path
       transform="translate(0,308.2677)"
       inkscape:connector-curvature="0"
       id="path5999"
       d="m 790,402.09448 138,208"
       style="fill:none;stroke:#000000;stroke-width:1px;stroke-linecap:butt;stroke-linejoin:miter;stroke-opacity:1;marker-end:url(#Arrow1Lend)" />
    <path
       sodipodi:nodetypes="ccc"
       transform="translate(0,308.2677)"
       inkscape:connector-curvature="0"
       id="path6001"
       d="m 674,292.09448 c 0,0 77.04369,122.40485 115.0285,188.19648 C 838.03144,529.29391 924,612.09448 924,612.09448"
       style="fill:none;stroke:#000000;stroke-width:1px;stroke-linecap:butt;stroke-linejoin:miter;stroke-opacity:1;marker-end:url(#Arrow1Lend)" />
    <path
       transform="translate(0,308.2677)"
       inkscape:connector-curvature="0"
       id="path6003"
       d="m 810,172.09448 119,434"
       style="fill:none;stroke:#000000;stroke-width:1px;stroke-linecap:butt;stroke-linejoin:miter;stroke-opacity:1;marker-end:url(#Arrow1Lend)" />
    <path
       transform="translate(0,308.2677)"
       inkscape:connector-curvature="0"
       id="path6189"
       d="m 228,143.09448 c 0,0 198,-26 289,-26 91,0 271,37 271,37"
       style="stroke-linejoin:miter;marker-end:url(#Arrow1LendO);stroke-opacity:1;stroke-dashoffset:0;stroke:#ff0000;stroke-linecap:butt;stroke-miterlimit:4;stroke-dasharray:4,4;stroke-width:1;fill:none" />
    <path
       transform="translate(0,308.2677)"
       inkscape:connector-curvature="0"
       id="path6798"
       d="m 159,354.09448 c 0,0 218,-55 316,-70 98,-15 171,-9 171,-9"
       style="stroke-linejoin:miter;marker-end:url(#Arrow1Lend0);stroke-opacity:1;stroke-dashoffset:0;stroke:#0000ff;stroke-linecap:butt;stroke-miterlimit:4;stroke-dasharray:4,4;stroke-width:1;fill:none" />
    <path
       transform="translate(0,308.2677)"
       inkscape:connector-curvature="0"
       id="path6800"
       d="m 288,371.09448 c 0,0 223,54 319,51 96,-3 160,-21 160,-21"
       style="stroke-linejoin:miter;marker-end:url(#Arrow1LendP);stroke-opacity:1;stroke-dashoffset:0;stroke:#0000ff;stroke-linecap:butt;stroke-miterlimit:4;stroke-dasharray:4,4;stroke-width:1;fill:none" />
    <path
       transform="translate(0,308.2677)"
       inkscape:connector-curvature="0"
       id="path7282"
       d="m 183,556.09448 c 0,0 130,-53 237,-53 107,0 185,54 185,54"
       style="stroke-linejoin:miter;marker-end:url(#Arrow1Lendv);stroke-opacity:1;stroke-dashoffset:0;stroke:#00ff00;stroke-linecap:butt;stroke-miterlimit:4;stroke-dasharray:6,6;stroke-width:1;fill:none" />
    <path
       transform="translate(0,308.2677)"
       inkscape:connector-curvature="0"
       id="path7284"
       d="m 295,549.09448 c 0,0 181,-51 274,-49 93,2 182,12 182,12"
       style="stroke-linejoin:miter;marker-end:url(#Arrow1Lend2);stroke-opacity:1;stroke-dashoffset:0;stroke:#00ff00;stroke-linecap:butt;stroke-miterlimit:4;stroke-dasharray:6,6;stroke-width:1;fill:none" />
    <path
       transform="translate(0,308.2677)"
       inkscape:connector-curvature="0"
       id="path7286"
       d="m 293,644.09448 c 0,0 305,31 424,26 119,-5 207,-40 207,-40"
       style="stroke-linejoin:miter;marker-end:url(#Arrow1Lend9);stroke-opacity:1;stroke-dashoffset:0;stroke:#00ff00;stroke-linecap:butt;stroke-miterlimit:4;stroke-dasharray:6,6;stroke-width:1;fill:none" />
  </g>
</svg>
