<?xml version="1.0" encoding="UTF-8" standalone="no"?>
<!-- Created with Inkscape (http://www.inkscape.org/) -->

<svg
   xmlns:dc="http://purl.org/dc/elements/1.1/"
   xmlns:cc="http://creativecommons.org/ns#"
   xmlns:rdf="http://www.w3.org/1999/02/22-rdf-syntax-ns#"
   xmlns:svg="http://www.w3.org/2000/svg"
   xmlns="http://www.w3.org/2000/svg"
   xmlns:sodipodi="http://sodipodi.sourceforge.net/DTD/sodipodi-0.dtd"
   xmlns:inkscape="http://www.inkscape.org/namespaces/inkscape"
   inkscape:export-ydpi="90"
   inkscape:export-xdpi="90"
   inkscape:export-filename="/home/nineties/projects/category-seminar/fig/hom_set_mon.png"
   sodipodi:docname="hom_set_mon2.svg"
   inkscape:version="0.48.3.1 r9886"
   version="1.1"
   id="svg2"
   height="297mm"
   width="210mm">
  <sodipodi:namedview
     id="base"
     pagecolor="#ffffff"
     bordercolor="#666666"
     borderopacity="1.0"
     inkscape:pageopacity="0.0"
     inkscape:pageshadow="2"
     inkscape:zoom="0.49497475"
     inkscape:cx="389.01464"
     inkscape:cy="431.65439"
     inkscape:document-units="px"
     inkscape:current-layer="layer1"
     showgrid="false"
     inkscape:window-width="1362"
     inkscape:window-height="742"
     inkscape:window-x="0"
     inkscape:window-y="22"
     inkscape:window-maximized="0" />
  <defs
     id="defs4">
    <marker
       inkscape:stockid="Arrow1Lend"
       orient="auto"
       refY="0.0"
       refX="0.0"
       id="Arrow1Lend"
       style="overflow:visible;">
      <path
         id="path4069"
         d="M 0.0,0.0 L 5.0,-5.0 L -12.5,0.0 L 5.0,5.0 L 0.0,0.0 z "
         style="fill-rule:evenodd;stroke:#000000;stroke-width:1.0pt;"
         transform="scale(0.8) rotate(180) translate(12.5,0)" />
    </marker>
    <marker
       inkscape:stockid="Arrow1Lend"
       orient="auto"
       refY="0"
       refX="0"
       id="Arrow1Lend-6"
       style="overflow:visible">
      <path
         inkscape:connector-curvature="0"
         id="path4069-0"
         d="M 0,0 5,-5 -12.5,0 5,5 0,0 z"
         style="fill-rule:evenodd;stroke:#000000;stroke-width:1pt"
         transform="matrix(-0.8,0,0,-0.8,-10,0)" />
    </marker>
    <marker
       style="overflow:visible"
       id="Arrow1LendM"
       orient="auto"
       refY="0"
       refX="0"
       inkscape:stockid="Arrow1LendM">
      <path
         style="fill:#e6e6e6;fill-rule:evenodd;stroke:#e6e6e6;stroke-width:1pt"
         id="path7269"
         transform="matrix(-0.8,0,0,-0.8,-10,0)"
         d="M 0,0 5,-5 -12.5,0 5,5 0,0 z"
         inkscape:connector-curvature="0" />
    </marker>
    <marker
       style="overflow:visible"
       id="Arrow1LendH"
       orient="auto"
       refY="0"
       refX="0"
       inkscape:stockid="Arrow1LendH">
      <path
         style="fill:#b3b3b3;fill-rule:evenodd;stroke:#b3b3b3;stroke-width:1pt"
         id="path7284"
         transform="matrix(-0.8,0,0,-0.8,-10,0)"
         d="M 0,0 5,-5 -12.5,0 5,5 0,0 z"
         inkscape:connector-curvature="0" />
    </marker>
    <marker
       style="overflow:visible"
       id="Arrow1Lendh"
       orient="auto"
       refY="0"
       refX="0"
       inkscape:stockid="Arrow1Lendh">
      <path
         style="fill:#808080;fill-rule:evenodd;stroke:#808080;stroke-width:1pt"
         id="path7296"
         transform="matrix(-0.8,0,0,-0.8,-10,0)"
         d="M 0,0 5,-5 -12.5,0 5,5 0,0 z"
         inkscape:connector-curvature="0" />
    </marker>
    <marker
       style="overflow:visible"
       id="Arrow1LendZ"
       orient="auto"
       refY="0"
       refX="0"
       inkscape:stockid="Arrow1LendZ">
      <path
         style="fill:#4d4d4d;fill-rule:evenodd;stroke:#4d4d4d;stroke-width:1pt"
         id="path7272"
         transform="matrix(-0.8,0,0,-0.8,-10,0)"
         d="M 0,0 5,-5 -12.5,0 5,5 0,0 z"
         inkscape:connector-curvature="0" />
    </marker>
    <marker
       style="overflow:visible"
       id="Arrow1Lend3"
       orient="auto"
       refY="0"
       refX="0"
       inkscape:stockid="Arrow1Lend3">
      <path
         style="fill:#1a1a1a;fill-rule:evenodd;stroke:#1a1a1a;stroke-width:1pt"
         id="path7278"
         transform="matrix(-0.8,0,0,-0.8,-10,0)"
         d="M 0,0 5,-5 -12.5,0 5,5 0,0 z"
         inkscape:connector-curvature="0" />
    </marker>
    <marker
       style="overflow:visible"
       id="marker7099"
       orient="auto"
       refY="0"
       refX="0"
       inkscape:stockid="Arrow1LendM">
      <path
         style="fill:#e6e6e6;fill-rule:evenodd;stroke:#e6e6e6;stroke-width:1pt"
         id="path7101"
         transform="matrix(-0.8,0,0,-0.8,-10,0)"
         d="M 0,0 5,-5 -12.5,0 5,5 0,0 z"
         inkscape:connector-curvature="0" />
    </marker>
    <marker
       style="overflow:visible"
       id="marker7103"
       orient="auto"
       refY="0"
       refX="0"
       inkscape:stockid="Arrow1LendH">
      <path
         style="fill:#b3b3b3;fill-rule:evenodd;stroke:#b3b3b3;stroke-width:1pt"
         id="path7105"
         transform="matrix(-0.8,0,0,-0.8,-10,0)"
         d="M 0,0 5,-5 -12.5,0 5,5 0,0 z"
         inkscape:connector-curvature="0" />
    </marker>
    <marker
       style="overflow:visible"
       id="marker7107"
       orient="auto"
       refY="0"
       refX="0"
       inkscape:stockid="Arrow1Lendh">
      <path
         style="fill:#808080;fill-rule:evenodd;stroke:#808080;stroke-width:1pt"
         id="path7109"
         transform="matrix(-0.8,0,0,-0.8,-10,0)"
         d="M 0,0 5,-5 -12.5,0 5,5 0,0 z"
         inkscape:connector-curvature="0" />
    </marker>
    <marker
       style="overflow:visible"
       id="marker7111"
       orient="auto"
       refY="0"
       refX="0"
       inkscape:stockid="Arrow1LendZ">
      <path
         style="fill:#4d4d4d;fill-rule:evenodd;stroke:#4d4d4d;stroke-width:1pt"
         id="path7113"
         transform="matrix(-0.8,0,0,-0.8,-10,0)"
         d="M 0,0 5,-5 -12.5,0 5,5 0,0 z"
         inkscape:connector-curvature="0" />
    </marker>
    <marker
       style="overflow:visible"
       id="marker7115"
       orient="auto"
       refY="0"
       refX="0"
       inkscape:stockid="Arrow1Lend3">
      <path
         style="fill:#1a1a1a;fill-rule:evenodd;stroke:#1a1a1a;stroke-width:1pt"
         id="path7117"
         transform="matrix(-0.8,0,0,-0.8,-10,0)"
         d="M 0,0 5,-5 -12.5,0 5,5 0,0 z"
         inkscape:connector-curvature="0" />
    </marker>
    <marker
       style="overflow:visible"
       id="Arrow1Lendo"
       orient="auto"
       refY="0"
       refX="0"
       inkscape:stockid="Arrow1Lendo">
      <path
         style="fill:#000000;fill-rule:evenodd;stroke:#000000;stroke-width:1pt"
         id="path7302"
         transform="matrix(-0.8,0,0,-0.8,-10,0)"
         d="M 0,0 5,-5 -12.5,0 5,5 0,0 z"
         inkscape:connector-curvature="0" />
    </marker>
    <marker
       inkscape:stockid="marker51608"
       orient="auto"
       refY="0"
       refX="0"
       id="marker51608"
       style="overflow:visible">
      <path
         id="path7034"
         d="M 0,0 5,-5 -12.5,0 5,5 0,0 z"
         style="fill:#0000ff;fill-rule:evenodd;stroke:#0000ff;stroke-width:1pt"
         transform="matrix(-0.8,0,0,-0.8,-10,0)"
         inkscape:connector-curvature="0" />
    </marker>
    <marker
       inkscape:stockid="marker5160v"
       orient="auto"
       refY="0"
       refX="0"
       id="marker5160v"
       style="overflow:visible">
      <path
         id="path6841"
         d="M 0,0 5,-5 -12.5,0 5,5 0,0 z"
         style="fill:#ff0000;fill-rule:evenodd;stroke:#ff0000;stroke-width:1pt"
         transform="matrix(-0.8,0,0,-0.8,-10,0)"
         inkscape:connector-curvature="0" />
    </marker>
    <marker
       inkscape:stockid="marker5160-81"
       orient="auto"
       refY="0"
       refX="0"
       id="marker5160-81"
       style="overflow:visible">
      <path
         id="path7231"
         d="M 0,0 5,-5 -12.5,0 5,5 0,0 z"
         style="fill:#00ff00;fill-rule:evenodd;stroke:#00ff00;stroke-width:1pt"
         transform="matrix(-0.8,0,0,-0.8,-10,0)"
         inkscape:connector-curvature="0" />
    </marker>
    <marker
       inkscape:stockid="Arrow1Lend"
       orient="auto"
       refY="0"
       refX="0"
       id="marker5160"
       style="overflow:visible">
      <path
         id="path5162"
         d="M 0,0 5,-5 -12.5,0 5,5 0,0 z"
         style="fill-rule:evenodd;stroke:#000000;stroke-width:1pt"
         transform="matrix(-0.8,0,0,-0.8,-10,0)"
         inkscape:connector-curvature="0" />
    </marker>
    <marker
       inkscape:stockid="Arrow1Lend"
       orient="auto"
       refY="0"
       refX="0"
       id="marker8753"
       style="overflow:visible">
      <path
         id="path8755"
         d="M 0,0 5,-5 -12.5,0 5,5 0,0 z"
         style="fill-rule:evenodd;stroke:#000000;stroke-width:1pt"
         transform="matrix(-0.8,0,0,-0.8,-10,0)"
         inkscape:connector-curvature="0" />
    </marker>
    <marker
       inkscape:stockid="Arrow1Lend"
       orient="auto"
       refY="0"
       refX="0"
       id="Arrow1Lend-7"
       style="overflow:visible">
      <path
         id="path3965"
         d="M 0,0 5,-5 -12.5,0 5,5 0,0 z"
         style="fill-rule:evenodd;stroke:#000000;stroke-width:1pt"
         transform="matrix(-0.8,0,0,-0.8,-10,0)"
         inkscape:connector-curvature="0" />
    </marker>
    <marker
       inkscape:stockid="Arrow1Lend"
       orient="auto"
       refY="0"
       refX="0"
       id="marker8759"
       style="overflow:visible">
      <path
         id="path8761"
         d="M 0,0 5,-5 -12.5,0 5,5 0,0 z"
         style="fill-rule:evenodd;stroke:#000000;stroke-width:1pt"
         transform="matrix(-0.8,0,0,-0.8,-10,0)"
         inkscape:connector-curvature="0" />
    </marker>
    <marker
       inkscape:stockid="marker8759e"
       orient="auto"
       refY="0"
       refX="0"
       id="marker8759e"
       style="overflow:visible">
      <path
         id="path12527"
         d="M 0,0 5,-5 -12.5,0 5,5 0,0 z"
         style="stroke:#ff0000;stroke-width:1pt;fill:#ff0000;fill-rule:evenodd"
         transform="matrix(-0.8,0,0,-0.8,-10,0)"
         inkscape:connector-curvature="0" />
    </marker>
  </defs>
  <metadata
     id="metadata7">
    <rdf:RDF>
      <cc:Work
         rdf:about="">
        <dc:format>image/svg+xml</dc:format>
        <dc:type
           rdf:resource="http://purl.org/dc/dcmitype/StillImage" />
        <dc:title></dc:title>
      </cc:Work>
    </rdf:RDF>
  </metadata>
  <g
     inkscape:label="レイヤー 1"
     inkscape:groupmode="layer"
     id="layer1">
    <path
       d="m 270.74169,448.05712 0.0106,-0.20197 0.0106,-0.2126 0.0213,-0.21259 0.0319,-0.22323 0.0425,-0.22323 0.0532,-0.23386 0.0638,-0.22323 0.0744,-0.23386 0.085,-0.23385 0.1063,-0.23386 0.11693,-0.23386 0.12755,-0.23386 0.14882,-0.23386 0.15945,-0.22322 0.17008,-0.22323 0.19134,-0.22323 0.2126,-0.2126 0.22323,-0.2126 0.24448,-0.20197 0.26575,-0.19134 0.27638,-0.19133 0.30827,-0.17008 0.3189,-0.17008 0.34015,-0.15945 0.36142,-0.13819 0.39331,-0.13819 0.40393,-0.11693 0.43583,-0.1063 0.22323,-0.0532 0.23386,-0.0425 0.23386,-0.0319 0.24448,-0.0425 0.24449,-0.0319 0.25512,-0.0213 0.26575,-0.0319 0.26575,-0.0106 c 0.26574,-0.0532 0.47834,-0.26575 0.47834,-0.58465 0,-0.58465 -0.43582,-0.58465 -1.00984,-0.58465 -5.30433,0 -10.11968,2.68937 -10.1622,6.61181 v 12.0756 c 0,2.0622 0,3.77362 -2.12599,5.51692 -1.8496,1.52008 -3.87992,1.63701 -5.03858,1.69016 -0.26575,0.0531 -0.46772,0.26575 -0.46772,0.58465 0,0.53149 0.3189,0.53149 0.8504,0.57401 3.48661,0.22323 6.02716,2.11536 6.61181,4.71969 0.17008,0.58464 0.17008,0.68031 0.17008,2.5937 v 10.4811 c 0,2.22165 0,3.92244 2.54055,5.9315 2.05157,1.59448 5.55945,2.1685 7.62165,2.1685 0.57402,0 1.00984,0 1.00984,-0.57402 0,-0.53149 -0.32952,-0.53149 -0.85039,-0.58464 -3.3378,-0.2126 -5.94213,-1.91339 -6.62244,-4.60276 -0.17008,-0.47834 -0.17008,-0.57401 -0.17008,-2.4874 v -11.12953 c 0,-2.44488 -0.41457,-3.33779 -2.10472,-5.02795 -1.11615,-1.11614 -2.65748,-1.64764 -4.13504,-2.0622 4.34763,-1.21181 6.23976,-3.6567 6.23976,-6.72874 z"
       id="path9876"
       inkscape:connector-curvature="0"
       style="font-style:normal;font-variant:normal;font-weight:normal;font-stretch:normal;letter-spacing:normal;word-spacing:normal;text-anchor:start;fill:#000000;stroke:#000000;stroke-width:0;stroke-linecap:butt;stroke-linejoin:miter;stroke-miterlimit:10.43299961;stroke-opacity:1;stroke-dasharray:none;stroke-dashoffset:0" />
    <path
       d="m 306.66019,463.77877 -0.0106,-0.78661 -0.0106,-0.79724 -0.0213,-0.79725 -0.0319,-0.78661 -0.0425,-0.79725 -0.0638,-0.78661 -0.085,-0.78661 -0.1063,-0.77599 -0.11693,-0.77598 -0.14882,-0.77599 -0.17008,-0.76535 -0.20197,-0.76536 -0.23386,-0.76535 -0.25512,-0.74409 -0.29763,-0.7441 -0.15945,-0.37205 -0.17008,-0.36141 c -2.42362,-5.10237 -6.78189,-5.95276 -9.00354,-5.95276 -3.16772,0 -7.04764,1.38189 -9.21615,6.31417 -1.70078,3.6567 -1.96653,7.79174 -1.96653,12.02244 0,3.9756 0.22323,8.7378 2.39173,12.75591 2.2748,4.28386 6.15473,5.34685 8.7378,5.34685 v -1.15866 c -2.05158,0 -5.19804,-1.32874 -6.1441,-6.40984 -0.58464,-3.16772 -0.58464,-8.03622 -0.58464,-11.18268 0,-3.38032 0,-6.86693 0.43582,-9.72638 0.99922,-6.31417 4.96418,-6.78189 6.29292,-6.78189 1.7433,0 5.25118,0.94607 6.25039,6.19725 0.5315,2.95511 0.5315,6.99448 0.5315,10.31102 0,3.98622 0,7.57913 -0.58465,10.97008 -0.79724,5.02795 -3.81614,6.62244 -6.19724,6.62244 h 0 v 1.15866 c 2.85944,0 6.87756,-1.10551 9.21614,-6.14409 1.70079,-3.64607 1.96653,-7.77048 1.96653,-11.95867 z"
       id="path9878"
       inkscape:connector-curvature="0"
       style="font-style:normal;font-variant:normal;font-weight:normal;font-stretch:normal;letter-spacing:normal;word-spacing:normal;text-anchor:start;fill:#000000;stroke:#000000;stroke-width:0;stroke-linecap:butt;stroke-linejoin:miter;stroke-miterlimit:10.43299961;stroke-opacity:1;stroke-dasharray:none;stroke-dashoffset:0" />
    <path
       d="m 319.56492,480.66972 0,-0.3189 -0.0106,-0.3189 -0.0213,-0.30826 -0.0213,-0.29764 -0.0425,-0.28701 -0.0319,-0.27638 -0.0532,-0.27638 -0.0532,-0.25511 -0.0638,-0.25512 -0.0638,-0.24449 -0.0744,-0.23386 -0.085,-0.22323 -0.085,-0.21259 -0.0957,-0.20197 -0.1063,-0.20197 -0.1063,-0.18071 -0.1063,-0.17008 -0.12755,-0.17008 -0.11693,-0.14882 -0.13819,-0.13819 -0.13819,-0.13818 -0.13819,-0.11693 -0.14882,-0.1063 -0.14882,-0.1063 -0.15945,-0.085 -0.17008,-0.0744 -0.15944,-0.0638 -0.18071,-0.0532 -0.17008,-0.0425 -0.19134,-0.0319 -0.18071,-0.0106 -0.20197,-0.0106 c -1.7433,0 -2.8063,1.32874 -2.8063,2.8063 0,1.42441 1.063,2.8063 2.8063,2.8063 0.6378,0 1.32874,-0.2126 1.86024,-0.68032 0.15945,-0.11693 0.22323,-0.17007 0.26575,-0.17007 0.0532,0 0.1063,0.0531 0.1063,0.79724 0,3.92244 -1.83898,7.10079 -3.60355,8.84409 -0.58464,0.57402 -0.58464,0.69095 -0.58464,0.83977 0,0.38267 0.26574,0.58464 0.53149,0.58464 0.58465,0 4.81536,-4.07126 4.81536,-10.2685 z"
       id="path9880"
       inkscape:connector-curvature="0"
       style="font-style:normal;font-variant:normal;font-weight:normal;font-stretch:normal;letter-spacing:normal;word-spacing:normal;text-anchor:start;fill:#000000;stroke:#000000;stroke-width:0;stroke-linecap:butt;stroke-linejoin:miter;stroke-miterlimit:10.43299961;stroke-opacity:1;stroke-dasharray:none;stroke-dashoffset:0" />
    <path
       d="m 347.85114,446.82405 0,-0.0532 0,-0.0638 0,-0.0531 0,-0.0532 0,-0.0532 0,-0.0531 0,-0.0425 0,-0.0532 0,-0.0425 0,-0.0425 0,-0.0425 -0.0106,-0.0425 0,-0.0425 0,-0.0319 0,-0.0425 -0.0106,-0.0319 0,-0.0744 -0.0106,-0.0638 -0.0106,-0.0532 -0.0213,-0.0532 -0.0106,-0.0531 -0.0213,-0.0425 -0.0319,-0.0425 -0.0213,-0.0319 -0.0319,-0.0319 -0.0319,-0.0319 -0.0425,-0.0319 -0.0425,-0.0213 -0.0425,-0.0213 -0.0213,-0.0106 -0.0319,-0.0106 -0.0213,0 -0.0319,-0.0106 -0.0319,-0.0106 -0.0319,0 -0.0319,-0.0106 -0.0319,0 -0.0319,-0.0106 -0.0425,0 -0.0425,0 -0.0319,-0.0106 -0.0425,0 -0.0425,0 -0.0425,0 -0.0532,0 -0.0425,0 -0.0532,-0.0106 -0.0532,0 -0.0425,0 -0.0638,0 -0.0532,0 c -3.28465,3.39095 -7.94055,3.39095 -9.63071,3.39095 v 1.64763 c 1.06299,0 4.18819,0 6.93071,-1.38189 v 27.43583 c 0,1.91339 -0.15945,2.54055 -4.92166,2.54055 h -1.69015 v 1.64764 c 1.86023,-0.17008 6.45236,-0.17008 8.56771,-0.17008 2.12599,0 6.72874,0 8.58898,0.17008 v -1.64764 h -1.70079 c -4.7622,0 -4.93228,-0.57401 -4.93228,-2.54055 z"
       id="path9882"
       inkscape:connector-curvature="0"
       style="font-style:normal;font-variant:normal;font-weight:normal;font-stretch:normal;letter-spacing:normal;word-spacing:normal;text-anchor:start;fill:#ff0000;stroke:#000000;stroke-width:0;stroke-linecap:butt;stroke-linejoin:miter;stroke-miterlimit:10.43299960999999954;stroke-opacity:1;stroke-dasharray:none;stroke-dashoffset:0" />
    <path
       d="m 369.56807,480.66972 -0.0106,-0.3189 -0.0106,-0.3189 -0.0106,-0.30826 -0.0319,-0.29764 -0.0319,-0.28701 -0.0425,-0.27638 -0.0425,-0.27638 -0.0638,-0.25511 -0.0532,-0.25512 -0.0744,-0.24449 -0.0744,-0.23386 -0.085,-0.22323 -0.085,-0.21259 -0.0957,-0.20197 -0.0957,-0.20197 -0.1063,-0.18071 -0.11693,-0.17008 -0.11693,-0.17008 -0.12755,-0.14882 -0.12756,-0.13819 -0.13819,-0.13818 -0.13819,-0.11693 -0.14882,-0.1063 -0.15945,-0.1063 -0.15945,-0.085 -0.15945,-0.0744 -0.17008,-0.0638 -0.17007,-0.0532 -0.18071,-0.0425 -0.18071,-0.0319 -0.19134,-0.0106 -0.19134,-0.0106 c -1.74331,0 -2.8063,1.32874 -2.8063,2.8063 0,1.42441 1.06299,2.8063 2.8063,2.8063 0.62717,0 1.32874,-0.2126 1.86024,-0.68032 0.14882,-0.11693 0.2126,-0.17007 0.26575,-0.17007 0.0531,0 0.0957,0.0531 0.0957,0.79724 0,3.92244 -1.83897,7.10079 -3.60354,8.84409 -0.57401,0.57402 -0.57401,0.69095 -0.57401,0.83977 0,0.38267 0.26574,0.58464 0.53149,0.58464 0.57402,0 4.81536,-4.07126 4.81536,-10.2685 z"
       id="path9884"
       inkscape:connector-curvature="0"
       style="font-style:normal;font-variant:normal;font-weight:normal;font-stretch:normal;letter-spacing:normal;word-spacing:normal;text-anchor:start;fill:#000000;stroke:#000000;stroke-width:0;stroke-linecap:butt;stroke-linejoin:miter;stroke-miterlimit:10.43299961;stroke-opacity:1;stroke-dasharray:none;stroke-dashoffset:0" />
    <path
       d="m 389.01019,476.64098 5.6126,-5.45315 c 8.25945,-7.30276 11.44842,-10.1622 11.44842,-15.45591 0,-6.04842 -4.77283,-10.28976 -11.23582,-10.28976 -5.98465,0 -9.90709,4.88976 -9.90709,9.59882 0,2.96575 2.65748,2.96575 2.8063,2.96575 0.91417,0 2.75315,-0.6378 2.75315,-2.8063 0,-1.38189 -0.94606,-2.76378 -2.8063,-2.76378 -0.41457,0 -0.5315,0 -0.68031,0.0532 1.21181,-3.4441 4.07126,-5.4 7.1433,-5.4 4.81536,0 7.11142,4.30512 7.11142,8.64212 0,4.23071 -2.65748,8.4189 -5.57008,11.70355 l -10.1622,11.33149 c -0.59528,0.57402 -0.59528,0.68032 -0.59528,1.95591 h 19.6441 l 1.49881,-9.21614 h -1.32874 c -0.26574,1.59449 -0.63779,3.92244 -1.16929,4.71968 -0.37204,0.41457 -3.86929,0.41457 -5.02795,0.41457 z"
       id="path9886"
       inkscape:connector-curvature="0"
       style="font-style:normal;font-variant:normal;font-weight:normal;font-stretch:normal;letter-spacing:normal;word-spacing:normal;text-anchor:start;fill:#000000;stroke:#000000;stroke-width:0;stroke-linecap:butt;stroke-linejoin:miter;stroke-miterlimit:10.43299961;stroke-opacity:1;stroke-dasharray:none;stroke-dashoffset:0" />
    <path
       d="m 419.56058,480.66972 0,-0.3189 -0.0213,-0.3189 -0.0106,-0.30826 -0.0319,-0.29764 -0.0319,-0.28701 -0.0425,-0.27638 -0.0425,-0.27638 -0.0532,-0.25511 -0.0638,-0.25512 -0.0744,-0.24449 -0.0744,-0.23386 -0.0744,-0.22323 -0.0957,-0.21259 -0.0957,-0.20197 -0.0957,-0.20197 -0.1063,-0.18071 -0.11693,-0.17008 -0.11693,-0.17008 -0.12756,-0.14882 -0.12756,-0.13819 -0.13818,-0.13818 -0.13819,-0.11693 -0.14882,-0.1063 -0.15945,-0.1063 -0.14882,-0.085 -0.17008,-0.0744 -0.17008,-0.0638 -0.17008,-0.0532 -0.1807,-0.0425 -0.18071,-0.0319 -0.19134,-0.0106 -0.19134,-0.0106 c -1.74331,0 -2.8063,1.32874 -2.8063,2.8063 0,1.42441 1.06299,2.8063 2.8063,2.8063 0.63779,0 1.32874,-0.2126 1.86024,-0.68032 0.14881,-0.11693 0.22322,-0.17007 0.26574,-0.17007 0.0532,0 0.1063,0.0531 0.1063,0.79724 0,3.92244 -1.8496,7.10079 -3.61417,8.84409 -0.57402,0.57402 -0.57402,0.69095 -0.57402,0.83977 0,0.38267 0.26575,0.58464 0.5315,0.58464 0.57402,0 4.81535,-4.07126 4.81535,-10.2685 z"
       id="path9888"
       inkscape:connector-curvature="0"
       style="font-style:normal;font-variant:normal;font-weight:normal;font-stretch:normal;letter-spacing:normal;word-spacing:normal;text-anchor:start;fill:#000000;stroke:#000000;stroke-width:0;stroke-linecap:butt;stroke-linejoin:miter;stroke-miterlimit:10.43299961;stroke-opacity:1;stroke-dasharray:none;stroke-dashoffset:0" />
    <path
       d="m 447.64484,462.08862 0.40393,-0.13819 0.39331,-0.15945 0.39331,-0.15945 0.37204,-0.18071 0.37205,-0.19134 0.36142,-0.20196 0.35079,-0.2126 0.34015,-0.23386 0.32953,-0.23386 0.3189,-0.24449 0.3189,-0.25512 0.29763,-0.26574 0.28701,-0.27638 0.27638,-0.28701 0.26575,-0.28701 0.24449,-0.30827 0.24448,-0.30826 0.22323,-0.3189 0.2126,-0.3189 0.20197,-0.34016 0.18071,-0.34015 0.18071,-0.34016 0.14882,-0.35079 0.13818,-0.36142 0.12756,-0.36141 0.11693,-0.36142 0.085,-0.37205 0.085,-0.38267 0.0638,-0.38268 0.0425,-0.38268 0.0213,-0.38268 0.0106,-0.3933 c 0,-4.33701 -4.66654,-7.31339 -9.74764,-7.31339 -5.34685,0 -9.36496,3.18898 -9.36496,7.20709 0,1.75393 1.15866,2.76378 2.7,2.76378 1.62638,0 2.68937,-1.16929 2.68937,-2.71063 0,-2.63622 -2.4874,-2.63622 -3.26338,-2.63622 1.62637,-2.5937 5.12362,-3.29528 7.037,-3.29528 2.15788,0 5.08111,1.16929 5.08111,5.9315 0,0.64842 -0.11693,3.70984 -1.48819,6.04842 -1.58386,2.54055 -3.39095,2.68937 -4.70906,2.75315 -0.42519,0.0532 -1.69015,0.14882 -2.07283,0.14882 -0.41457,0.0532 -0.79725,0.1063 -0.79725,0.6378 0,0.57401 0.38268,0.57401 1.27559,0.57401 h 2.32796 c 4.35826,0 6.31417,3.60354 6.31417,8.81221 0,7.18582 -3.65669,8.72716 -5.99528,8.72716 -2.2748,0 -6.25039,-0.89291 -8.08937,-4.01811 1.83898,0.25512 3.48662,-0.91417 3.48662,-2.92323 0,-1.90275 -1.42441,-2.95512 -2.97638,-2.95512 -1.25433,0 -2.95512,0.73347 -2.95512,3.07205 0,4.81536 4.92166,8.30197 10.6937,8.30197 6.463,0 11.27835,-4.81535 11.27835,-10.20472 0,-4.35827 -3.3378,-8.47205 -8.83346,-9.58819 z"
       id="path9890"
       inkscape:connector-curvature="0"
       style="font-style:normal;font-variant:normal;font-weight:normal;font-stretch:normal;letter-spacing:normal;word-spacing:normal;text-anchor:start;fill:#000000;stroke:#000000;stroke-width:0;stroke-linecap:butt;stroke-linejoin:miter;stroke-miterlimit:10.43299961;stroke-opacity:1;stroke-dasharray:none;stroke-dashoffset:0" />
    <path
       d="m 469.56373,480.66972 -0.0106,-0.3189 -0.0106,-0.3189 -0.0213,-0.30826 -0.0213,-0.29764 -0.0319,-0.28701 -0.0425,-0.27638 -0.0532,-0.27638 -0.0532,-0.25511 -0.0638,-0.25512 -0.0638,-0.24449 -0.0744,-0.23386 -0.085,-0.22323 -0.085,-0.21259 -0.0957,-0.20197 -0.1063,-0.20197 -0.1063,-0.18071 -0.1063,-0.17008 -0.12756,-0.17008 -0.11693,-0.14882 -0.13819,-0.13819 -0.12756,-0.13818 -0.14881,-0.11693 -0.14882,-0.1063 -0.14882,-0.1063 -0.15945,-0.085 -0.15945,-0.0744 -0.17008,-0.0638 -0.18071,-0.0532 -0.17008,-0.0425 -0.19134,-0.0319 -0.1807,-0.0106 -0.19134,-0.0106 c -1.74331,0 -2.8063,1.32874 -2.8063,2.8063 0,1.42441 1.06299,2.8063 2.8063,2.8063 0.62716,0 1.32874,-0.2126 1.86023,-0.68032 0.14882,-0.11693 0.2126,-0.17007 0.26575,-0.17007 0.0425,0 0.0957,0.0531 0.0957,0.79724 0,3.92244 -1.83898,7.10079 -3.60354,8.84409 -0.58465,0.57402 -0.58465,0.69095 -0.58465,0.83977 0,0.38267 0.26575,0.58464 0.5315,0.58464 0.58464,0 4.82598,-4.07126 4.82598,-10.2685 z"
       id="path9892"
       inkscape:connector-curvature="0"
       style="font-style:normal;font-variant:normal;font-weight:normal;font-stretch:normal;letter-spacing:normal;word-spacing:normal;text-anchor:start;fill:#000000;stroke:#000000;stroke-width:0;stroke-linecap:butt;stroke-linejoin:miter;stroke-miterlimit:10.43299961;stroke-opacity:1;stroke-dasharray:none;stroke-dashoffset:0" />
    <path
       d="m 497.83932,471.98507 v 4.60276 c 0,1.91339 -0.0957,2.4874 -4.01811,2.4874 h -1.10551 v 1.64764 c 2.1685,-0.17008 4.93228,-0.17008 7.15394,-0.17008 2.22165,0 5.03858,0 7.19645,0.17008 v -1.64764 h -1.11614 c -3.92244,0 -4.01811,-0.57401 -4.01811,-2.4874 v -4.60276 h 5.2937 v -1.637 h -5.2937 v -24.10866 c 0,-1.063 0,-1.37126 -0.85039,-1.37126 -0.47835,0 -0.62717,0 -1.06299,0.64842 l -16.26378,24.8315 h 1.49882 l 12.92598,-19.7504 v 19.7504 h -12.92598 -1.49882 v 1.637 z"
       id="path9894"
       inkscape:connector-curvature="0"
       style="font-style:normal;font-variant:normal;font-weight:normal;font-stretch:normal;letter-spacing:normal;word-spacing:normal;text-anchor:start;fill:#000000;stroke:#000000;stroke-width:0;stroke-linecap:butt;stroke-linejoin:miter;stroke-miterlimit:10.43299961;stroke-opacity:1;stroke-dasharray:none;stroke-dashoffset:0" />
    <path
       d="m 519.55625,480.66972 0,-0.3189 -0.0106,-0.3189 -0.0213,-0.30826 -0.0319,-0.29764 -0.0319,-0.28701 -0.0425,-0.27638 -0.0425,-0.27638 -0.0531,-0.25511 -0.0638,-0.25512 -0.0744,-0.24449 -0.0744,-0.23386 -0.0744,-0.22323 -0.0957,-0.21259 -0.0957,-0.20197 -0.0957,-0.20197 -0.1063,-0.18071 -0.11693,-0.17008 -0.11693,-0.17008 -0.12756,-0.14882 -0.12756,-0.13819 -0.13819,-0.13818 -0.13819,-0.11693 -0.14882,-0.1063 -0.15944,-0.1063 -0.14882,-0.085 -0.17008,-0.0744 -0.17008,-0.0638 -0.17008,-0.0532 -0.18071,-0.0425 -0.18071,-0.0319 -0.19134,-0.0106 -0.19133,-0.0106 c -1.74331,0 -2.8063,1.32874 -2.8063,2.8063 0,1.42441 1.06299,2.8063 2.8063,2.8063 0.63779,0 1.32874,-0.2126 1.86023,-0.68032 0.14882,-0.11693 0.22323,-0.17007 0.26575,-0.17007 0.0531,0 0.1063,0.0531 0.1063,0.79724 0,3.92244 -1.84961,7.10079 -3.60354,8.84409 -0.58465,0.57402 -0.58465,0.69095 -0.58465,0.83977 0,0.38267 0.26575,0.58464 0.5315,0.58464 0.58464,0 4.81535,-4.07126 4.81535,-10.2685 z"
       id="path9896"
       inkscape:connector-curvature="0"
       style="font-style:normal;font-variant:normal;font-weight:normal;font-stretch:normal;letter-spacing:normal;word-spacing:normal;text-anchor:start;fill:#000000;stroke:#000000;stroke-width:0;stroke-linecap:butt;stroke-linejoin:miter;stroke-miterlimit:10.43299961;stroke-opacity:1;stroke-dasharray:none;stroke-dashoffset:0" />
    <path
       d="m 556.0594,470.08232 -0.0106,-0.59528 -0.0319,-0.57401 -0.0638,-0.57402 -0.085,-0.56338 -0.11693,-0.56339 -0.12756,-0.54213 -0.15945,-0.53149 -0.17007,-0.5315 -0.20197,-0.51023 -0.2126,-0.49961 -0.23386,-0.48898 -0.26575,-0.46771 -0.27638,-0.45709 -0.287,-0.43583 -0.3189,-0.42519 -0.32953,-0.40394 -0.34016,-0.38268 -0.36141,-0.37205 -0.38268,-0.34015 -0.39331,-0.32953 -0.40393,-0.30827 -0.4252,-0.27638 -0.43583,-0.26574 -0.44646,-0.23386 -0.45708,-0.2126 -0.47835,-0.18071 -0.47834,-0.15945 -0.48898,-0.13819 -0.51024,-0.0957 -0.51023,-0.0744 -0.52087,-0.0532 -0.54213,-0.0106 c -2.54055,0 -4.81535,0.8504 -6.71811,2.68937 v -10.31102 c 1.063,0.30827 2.8063,0.68032 4.49646,0.68032 6.51614,0 10.21536,-4.81536 10.21536,-5.51693 0,-0.3189 -0.14882,-0.58465 -0.5315,-0.58465 -0.0531,0 -0.14882,0 -0.41457,0.17008 -1.06299,0.47835 -3.65669,1.53071 -7.20708,1.53071 -2.11536,0 -4.54961,-0.37205 -7.04764,-1.47756 -0.41457,-0.14882 -0.5315,-0.14882 -0.62717,-0.14882 -0.53149,0 -0.53149,0.41457 -0.53149,1.25433 v 15.67913 c 0,0.94607 0,1.38189 0.74409,1.38189 0.37205,0 0.46772,-0.17007 0.68032,-0.47834 0.58464,-0.8504 2.54055,-3.70984 6.83504,-3.70984 2.75314,0 4.08188,2.44488 4.49645,3.39094 0.86103,1.95591 0.96732,4.01811 0.96732,6.67559 0,1.84961 0,5.03858 -1.28622,7.26024 -1.25433,2.0622 -3.22086,3.43346 -5.66574,3.43346 -3.86929,0 -6.86693,-2.8063 -7.78111,-5.92086 0.15945,0.0425 0.32953,0.0957 0.91418,0.0957 1.7433,0 2.63622,-1.32874 2.63622,-2.5937 0,-1.27559 -0.89292,-2.5937 -2.63622,-2.5937 -0.75473,0 -2.61496,0.37205 -2.61496,2.81693 0,4.54961 3.65669,9.67323 9.59882,9.67323 6.13346,0 11.54409,-5.0811 11.54409,-11.79921 z"
       id="path9898"
       inkscape:connector-curvature="0"
       style="font-style:normal;font-variant:normal;font-weight:normal;font-stretch:normal;letter-spacing:normal;word-spacing:normal;text-anchor:start;fill:#000000;stroke:#000000;stroke-width:0;stroke-linecap:butt;stroke-linejoin:miter;stroke-miterlimit:10.43299961;stroke-opacity:1;stroke-dasharray:none;stroke-dashoffset:0" />
    <path
       d="m 569.5594,480.66972 -0.0106,-0.3189 -0.0106,-0.3189 -0.0213,-0.30826 -0.0213,-0.29764 -0.0319,-0.28701 -0.0425,-0.27638 -0.0531,-0.27638 -0.0531,-0.25511 -0.0638,-0.25512 -0.0638,-0.24449 -0.0744,-0.23386 -0.085,-0.22323 -0.085,-0.21259 -0.0957,-0.20197 -0.10629,-0.20197 -0.1063,-0.18071 -0.1063,-0.17008 -0.12756,-0.17008 -0.11693,-0.14882 -0.13819,-0.13819 -0.12756,-0.13818 -0.14882,-0.11693 -0.14882,-0.1063 -0.14882,-0.1063 -0.15944,-0.085 -0.15945,-0.0744 -0.17008,-0.0638 -0.18071,-0.0532 -0.17008,-0.0425 -0.19134,-0.0319 -0.18071,-0.0106 -0.19134,-0.0106 c -1.7433,0 -2.80629,1.32874 -2.80629,2.8063 0,1.42441 1.06299,2.8063 2.80629,2.8063 0.62717,0 1.32874,-0.2126 1.86024,-0.68032 0.14882,-0.11693 0.2126,-0.17007 0.26575,-0.17007 0.0425,0 0.0957,0.0531 0.0957,0.79724 0,3.92244 -1.83898,7.10079 -3.60355,8.84409 -0.58464,0.57402 -0.58464,0.69095 -0.58464,0.83977 0,0.38267 0.26575,0.58464 0.5315,0.58464 0.58464,0 4.82598,-4.07126 4.82598,-10.2685 z"
       id="path9900"
       inkscape:connector-curvature="0"
       style="font-style:normal;font-variant:normal;font-weight:normal;font-stretch:normal;letter-spacing:normal;word-spacing:normal;text-anchor:start;fill:#000000;stroke:#000000;stroke-width:0;stroke-linecap:butt;stroke-linejoin:miter;stroke-miterlimit:10.43299961;stroke-opacity:1;stroke-dasharray:none;stroke-dashoffset:0" />
    <path
       d="m 589.26727,463.35358 v -1.26496 c 0,-13.40433 6.55866,-15.31772 9.26929,-15.31772 1.25433,0 3.48662,0.3189 4.64528,2.12599 -0.77598,0 -2.90197,0 -2.90197,2.3811 0,1.63701 1.27559,2.43425 2.43425,2.43425 0.8504,0 2.43425,-0.47835 2.43425,-2.54055 0,-3.18898 -2.32795,-5.72953 -6.71811,-5.72953 -6.79251,0 -13.93582,6.84567 -13.93582,18.53858 0,14.14843 6.14409,17.90079 11.06575,17.90079 5.87834,0 10.91692,-4.9748 10.91692,-11.95866 0,-6.71811 -4.71968,-11.82047 -10.59803,-11.82047 l -0.0532,1.23307 c 0.8504,0 3.28465,0 4.93229,3.28464 0.94606,1.94528 0.94606,4.64528 0.94606,7.23898 0,2.54055 0,5.19803 -0.89291,7.11142 -1.59449,3.16771 -4.01811,3.43346 -5.25118,3.43346 h 0 c -3.3378,0 -4.92166,-3.16772 -5.22993,-3.96496 -0.96732,-2.4874 -0.96732,-6.72874 -0.96732,-7.68543 0,-4.12441 1.70079,-9.41811 6.46299,-9.41811 l 0.0532,-1.23307 c -3.59291,0 -5.54882,2.71063 -6.61181,5.25118 z"
       id="path9902"
       inkscape:connector-curvature="0"
       style="font-style:normal;font-variant:normal;font-weight:normal;font-stretch:normal;letter-spacing:normal;word-spacing:normal;text-anchor:start;fill:#000000;stroke:#000000;stroke-width:0;stroke-linecap:butt;stroke-linejoin:miter;stroke-miterlimit:10.43299961;stroke-opacity:1;stroke-dasharray:none;stroke-dashoffset:0" />
    <path
       d="m 619.55192,480.66972 -0.0106,-0.3189 -0.0106,-0.3189 -0.0213,-0.30826 -0.0213,-0.29764 -0.0319,-0.28701 -0.0425,-0.27638 -0.0531,-0.27638 -0.0532,-0.25511 -0.0638,-0.25512 -0.0638,-0.24449 -0.0744,-0.23386 -0.085,-0.22323 -0.085,-0.21259 -0.0957,-0.20197 -0.0957,-0.20197 -0.11693,-0.18071 -0.10629,-0.17008 -0.11693,-0.17008 -0.12756,-0.14882 -0.12756,-0.13819 -0.13819,-0.13818 -0.14882,-0.11693 -0.14882,-0.1063 -0.14882,-0.1063 -0.15945,-0.085 -0.15945,-0.0744 -0.17007,-0.0638 -0.17008,-0.0532 -0.18071,-0.0425 -0.18071,-0.0319 -0.19134,-0.0106 -0.19134,-0.0106 c -1.7433,0 -2.8063,1.32874 -2.8063,2.8063 0,1.42441 1.063,2.8063 2.8063,2.8063 0.62717,0 1.32874,-0.2126 1.86024,-0.68032 0.14882,-0.11693 0.2126,-0.17007 0.26575,-0.17007 0.0425,0 0.0957,0.0531 0.0957,0.79724 0,3.92244 -1.83898,7.10079 -3.60355,8.84409 -0.57401,0.57402 -0.57401,0.69095 -0.57401,0.83977 0,0.38267 0.26575,0.58464 0.53149,0.58464 0.57402,0 4.81536,-4.07126 4.81536,-10.2685 z"
       id="path9904"
       inkscape:connector-curvature="0"
       style="font-style:normal;font-variant:normal;font-weight:normal;font-stretch:normal;letter-spacing:normal;word-spacing:normal;text-anchor:start;fill:#000000;stroke:#000000;stroke-width:0;stroke-linecap:butt;stroke-linejoin:miter;stroke-miterlimit:10.43299961;stroke-opacity:1;stroke-dasharray:none;stroke-dashoffset:0" />
    <path
       d="m 642.43814,467.48862 -0.0106,-0.14882 -0.0106,-0.13819 -0.0106,-0.13819 -0.0319,-0.13819 -0.0319,-0.13819 -0.0319,-0.13819 -0.0425,-0.12756 -0.0531,-0.12755 -0.0532,-0.11693 -0.0638,-0.12756 -0.0744,-0.11693 -0.0744,-0.11693 -0.0744,-0.1063 -0.085,-0.1063 -0.085,-0.1063 -0.0957,-0.0957 -0.0957,-0.085 -0.10629,-0.0957 -0.1063,-0.085 -0.1063,-0.0744 -0.11693,-0.0744 -0.11693,-0.0638 -0.11693,-0.0638 -0.12756,-0.0532 -0.12756,-0.0532 -0.12756,-0.0425 -0.12756,-0.0425 -0.13819,-0.0319 -0.13818,-0.0213 -0.13819,-0.0213 -0.14882,-0.0106 -0.13819,0 c -1.53071,0 -2.8063,1.25433 -2.8063,2.8063 0,1.53071 1.27559,2.8063 2.8063,2.8063 1.54134,0 2.8063,-1.27559 2.8063,-2.8063 z"
       id="path9906"
       inkscape:connector-curvature="0"
       style="font-style:normal;font-variant:normal;font-weight:normal;font-stretch:normal;letter-spacing:normal;word-spacing:normal;text-anchor:start;fill:#000000;stroke:#000000;stroke-width:0;stroke-linecap:butt;stroke-linejoin:miter;stroke-miterlimit:10.43299961;stroke-opacity:1;stroke-dasharray:none;stroke-dashoffset:0" />
    <path
       d="m 665.89837,467.48862 0,-0.14882 -0.0106,-0.13819 -0.0213,-0.13819 -0.0213,-0.13819 -0.0319,-0.13819 -0.0319,-0.13819 -0.0531,-0.12756 -0.0425,-0.12755 -0.0638,-0.11693 -0.0531,-0.12756 -0.0744,-0.11693 -0.0744,-0.11693 -0.0744,-0.1063 -0.085,-0.1063 -0.085,-0.1063 -0.0957,-0.0957 -0.0957,-0.085 -0.1063,-0.0957 -0.1063,-0.085 -0.1063,-0.0744 -0.11693,-0.0744 -0.11693,-0.0638 -0.11692,-0.0638 -0.12756,-0.0532 -0.12756,-0.0532 -0.12756,-0.0425 -0.13819,-0.0425 -0.12756,-0.0319 -0.13819,-0.0213 -0.14882,-0.0213 -0.13819,-0.0106 -0.13819,0 c -1.5307,0 -2.81692,1.25433 -2.81692,2.8063 0,1.53071 1.28622,2.8063 2.81692,2.8063 1.54134,0 2.79567,-1.27559 2.79567,-2.8063 z"
       id="path9908"
       inkscape:connector-curvature="0"
       style="font-style:normal;font-variant:normal;font-weight:normal;font-stretch:normal;letter-spacing:normal;word-spacing:normal;text-anchor:start;fill:#000000;stroke:#000000;stroke-width:0;stroke-linecap:butt;stroke-linejoin:miter;stroke-miterlimit:10.43299961;stroke-opacity:1;stroke-dasharray:none;stroke-dashoffset:0" />
    <path
       d="m 689.36924,467.48862 0,-0.14882 -0.0106,-0.13819 -0.0213,-0.13819 -0.0213,-0.13819 -0.0319,-0.13819 -0.0425,-0.13819 -0.0425,-0.12756 -0.0531,-0.12755 -0.0532,-0.11693 -0.0638,-0.12756 -0.0638,-0.11693 -0.0744,-0.11693 -0.085,-0.1063 -0.0744,-0.1063 -0.0957,-0.1063 -0.0957,-0.0957 -0.0957,-0.085 -0.0957,-0.0957 -0.1063,-0.085 -0.11693,-0.0744 -0.1063,-0.0744 -0.11693,-0.0638 -0.12756,-0.0638 -0.12756,-0.0532 -0.12756,-0.0532 -0.12756,-0.0425 -0.12756,-0.0425 -0.13818,-0.0319 -0.13819,-0.0213 -0.13819,-0.0213 -0.14882,-0.0106 -0.13819,0 c -1.53071,0 -2.8063,1.25433 -2.8063,2.8063 0,1.53071 1.27559,2.8063 2.8063,2.8063 1.54134,0 2.8063,-1.27559 2.8063,-2.8063 z"
       id="path9910"
       inkscape:connector-curvature="0"
       style="font-style:normal;font-variant:normal;font-weight:normal;font-stretch:normal;letter-spacing:normal;word-spacing:normal;text-anchor:start;fill:#000000;stroke:#000000;stroke-width:0;stroke-linecap:butt;stroke-linejoin:miter;stroke-miterlimit:10.43299961;stroke-opacity:1;stroke-dasharray:none;stroke-dashoffset:0" />
    <path
       d="m 714.37081,486.92011 0,0.20197 -0.0213,0.2126 -0.0213,0.2126 -0.0319,0.22323 -0.0425,0.22322 -0.0531,0.22323 -0.0638,0.23386 -0.0744,0.23386 -0.085,0.23386 -0.1063,0.23386 -0.11693,0.23385 -0.12756,0.23386 -0.13819,0.22323 -0.15945,0.23386 -0.18071,0.22323 -0.19134,0.22323 -0.21259,0.21259 -0.22323,0.20197 -0.24449,0.20197 -0.26575,0.20197 -0.27638,0.18071 -0.29764,0.18071 -0.32952,0.15945 -0.34016,0.15945 -0.36142,0.14881 -0.38267,0.12756 -0.41457,0.12756 -0.4252,0.1063 -0.23386,0.0425 -0.22322,0.0425 -0.24449,0.0425 -0.23386,0.0319 -0.25512,0.0319 -0.25512,0.0319 -0.25512,0.0213 -0.26574,0.0213 c -0.26575,0.0532 -0.46772,0.26575 -0.46772,0.58464 0,0.57402 0.57402,0.57402 1.04173,0.57402 5.14488,0 10.06654,-2.58307 10.11969,-6.60118 V 475.2804 c 0,-2.08347 0,-3.77362 2.12598,-5.51693 1.86024,-1.54134 3.86929,-1.64764 5.02795,-1.70079 0.26575,-0.0425 0.48898,-0.26574 0.48898,-0.57401 0,-0.5315 -0.34016,-0.5315 -0.85039,-0.58465 -3.50788,-0.2126 -6.04843,-2.12598 -6.63307,-4.71968 -0.15945,-0.57402 -0.15945,-0.68032 -0.15945,-2.58307 V 449.0989 c 0,-2.21102 0,-3.92244 -2.54055,-5.93149 -2.11536,-1.63701 -5.76142,-2.15788 -7.57914,-2.15788 -0.46771,0 -1.04173,0 -1.04173,0.58465 0,0.5315 0.30827,0.5315 0.83976,0.58465 3.32717,0.19133 5.9315,1.90275 6.61181,4.59212 0.17008,0.48898 0.17008,0.58465 0.17008,2.49803 v 11.12953 c 0,2.42362 0.41457,3.31654 2.10473,5.02795 1.11614,1.09488 2.65748,1.62638 4.13504,2.06221 -4.32638,1.21181 -6.23977,3.65669 -6.23977,6.72874 z"
       id="path9912"
       inkscape:connector-curvature="0"
       style="font-style:normal;font-variant:normal;font-weight:normal;font-stretch:normal;letter-spacing:normal;word-spacing:normal;text-anchor:start;fill:#000000;stroke:#000000;stroke-width:0;stroke-linecap:butt;stroke-linejoin:miter;stroke-miterlimit:10.43299961;stroke-opacity:1;stroke-dasharray:none;stroke-dashoffset:0" />
    <g
       transform="translate(-121.21831,115.15739)"
       id="g10386">
      <g
         style="font-style:normal;font-variant:normal;font-weight:normal;font-stretch:normal;letter-spacing:normal;word-spacing:normal;text-anchor:start;fill:none;stroke:#000000;stroke-linecap:butt;stroke-linejoin:miter;stroke-miterlimit:10.43299961;stroke-opacity:1;stroke-dasharray:none;stroke-dashoffset:0"
         id="g10388"
         transform="matrix(1.0629921,0,0,-1.0629921,-186.02362,789.27165)"
         xml:space="preserve"
         stroke-miterlimit="10.433"
         font-style="normal"
         font-variant="normal"
         font-weight="normal"
         font-stretch="normal"
         font-size-adjust="none"
         letter-spacing="normal"
         word-spacing="normal"><path
           style="fill:#000000;stroke-width:0"
           inkscape:connector-curvature="0"
           d="m 461.1,435.84 v -24.31 c 0,-2.64 -0.39,-3.53 -2.94,-3.58 -0.55,0 -1.39,-0.06 -1.39,-0.86 0,-0.89 0.8,-0.89 1.69,-0.89 h 7.72 c 0.9,0 1.65,0 1.65,0.89 0,0.8 -0.79,0.86 -1.5,0.86 -2.73,0.05 -3.14,1.09 -3.14,3.69 v 22.81 L 484.72,406 c 0.44,-0.6 0.69,-0.75 1.03,-0.75 0.86,0 0.86,0.79 0.86,1.65 v 28.14 c 0,2.8 0.44,3.49 2.74,3.55 0.29,0 1.14,0.05 1.14,0.84 0,0.89 -0.74,0.89 -1.64,0.89 h -7.27 c -0.9,0 -1.7,0 -1.7,-0.89 0,-0.84 0.91,-0.84 1.45,-0.84 2.78,-0.06 3.19,-1.05 3.19,-3.69 v -15.59 l -15.05,20.33 -1.39,-1.05 16.78,-22.67 v -7.17 l -21.67,28.64 c -0.5,0.59 -0.5,0.7 -1.05,1.2 h 5.94 l 1.39,1.05 c -0.5,0.68 -0.65,0.68 -1.79,0.68 H 459 c -0.89,0 -1.64,0 -1.64,-0.89 0,-0.75 0.75,-0.84 1.05,-0.84 1.34,-0.16 2.3,-0.95 2.78,-1.55 -0.09,-0.4 -0.09,-0.5 -0.09,-1.2 z"
           id="path10390" /><path
           style="fill:#000000;stroke-width:0"
           inkscape:connector-curvature="0"
           d="m 507.66,406.64 h 10.66 c 0.45,0 1.28,0 1.28,0.84 0,0.86 -0.8,0.86 -1.28,0.86 h -10.66 v 10.7 c 0,0.46 0,1.28 -0.84,1.28 -0.88,0 -0.88,-0.79 -0.88,-1.28 v -10.7 h -10.69 c -0.45,0 -1.29,0 -1.29,-0.83 0,-0.87 0.79,-0.87 1.29,-0.87 h 10.69 v -10.71 c 0,-0.45 0,-1.28 0.85,-1.28 0.87,0 0.87,0.8 0.87,1.28 z"
           id="path10392" /></g>    </g>
    <g
       transform="translate(-373.75644,355.5737)"
       id="g10638">
      <g
         style="font-style:normal;font-variant:normal;font-weight:normal;font-stretch:normal;letter-spacing:normal;word-spacing:normal;text-anchor:start;fill:none;stroke:#000000;stroke-linecap:butt;stroke-linejoin:miter;stroke-miterlimit:10.43299961;stroke-opacity:1;stroke-dasharray:none;stroke-dashoffset:0"
         word-spacing="normal"
         letter-spacing="normal"
         font-size-adjust="none"
         font-stretch="normal"
         font-weight="normal"
         font-variant="normal"
         font-style="normal"
         stroke-miterlimit="10.433"
         xml:space="preserve"
         transform="matrix(1.0629921,0,0,-1.0629921,-186.02362,789.27165)"
         id="g10640"><path
           style="fill:#000000;stroke-width:0"
           inkscape:connector-curvature="0"
           id="path10642"
           d="m 485.21,438.53 0.02,0.03 0.02,0.03 0.02,0.03 0.02,0.02 0.02,0.03 0.01,0.03 0.02,0.02 0.02,0.03 0.01,0.02 0.02,0.03 0.01,0.02 0.02,0.02 0.01,0.02 0.01,0.02 0.02,0.02 0.01,0.02 0.01,0.02 0.01,0.02 0.02,0.04 0.02,0.03 0.02,0.03 0.02,0.03 0.01,0.03 0.01,0.02 0.01,0.03 0.01,0.02 0.01,0.02 0.01,0.02 0.01,0.02 0,0.02 0.01,0.02 0,0.01 0,0.02 0.01,0.01 0,0.02 0,0.03 0,0.03 0,0.02 c 0,0.89 -0.75,0.89 -1.64,0.89 h -22.83 c -1.59,0 -1.59,-0.14 -1.73,-1.43 l 1.68,-0.3 h 2.65 v -0.06 c -1.35,-0.74 -2.29,-1.64 -2.9,-2.19 l 0.25,2.25 -1.68,0.3 -0.75,-6.74 -0.1,-0.64 c 0,-0.7 0.55,-0.95 0.89,-0.95 0.46,0 0.75,0.36 0.85,0.75 0.2,1.2 0.65,3.39 3.69,5.28 2.84,1.84 6.32,2 8.03,2 h 4.03 L 457.36,408 c -0.45,-0.66 -0.45,-0.75 -0.45,-0.91 0,-0.89 0.8,-0.89 1.7,-0.89 l 0.75,1.75 18.78,30.64 h 5.08 l -18.78,-30.64 h -5.08 l -0.75,-1.75 h 25.55 c 1.5,0 1.5,0.09 1.7,1.39 l -1.7,0.36 h -3.37 V 408 c 1.39,0.79 2.68,1.89 3.82,3.28 -0.09,-1 -0.2,-1.55 -0.45,-3.33 l 1.7,-0.36 1.35,9.81 c 0,0.56 -0.46,0.91 -0.85,0.91 -0.75,0 -0.84,-0.5 -1,-1.5 -0.84,-4.08 -4.73,-8.86 -11.81,-8.86 h -7.08 z" /><path
           style="fill:#000000;stroke-width:0"
           inkscape:connector-curvature="0"
           id="path10644"
           d="m 513.15,415.11 0.04,0.03 0.03,0.03 0.03,0.04 0.04,0.03 0.02,0.03 0.03,0.03 0.03,0.03 0.02,0.03 0.03,0.03 0.02,0.03 0.02,0.02 0.02,0.03 0.02,0.03 0.01,0.02 0.02,0.03 0.01,0.02 0.01,0.03 0.02,0.02 0.01,0.02 0.01,0.03 0.01,0.02 0,0.02 0.01,0.03 0.01,0.02 0,0.02 0.01,0.02 0,0.02 0,0.03 0.01,0.04 0,0.04 c 0,0.57 -0.46,0.88 -0.83,0.88 -0.36,0 -0.46,-0.11 -0.88,-0.52 l -7.62,-7.59 -7.67,7.62 c -0.35,0.35 -0.49,0.49 -0.8,0.49 -0.5,0 -0.88,-0.38 -0.88,-0.88 0,-0.31 0.11,-0.4 0.52,-0.82 l 7.61,-7.6 -7.61,-7.59 c -0.48,-0.5 -0.52,-0.67 -0.52,-0.88 0,-0.48 0.38,-0.87 0.88,-0.87 0.31,0 0.41,0.11 0.8,0.48 l 7.67,7.64 7.94,-7.95 c 0.17,-0.09 0.34,-0.17 0.56,-0.17 0.37,0 0.83,0.31 0.83,0.87 0,0.28 -0.07,0.35 -0.17,0.46 -0.07,0.14 -6.83,6.89 -7.94,7.98 z" /></g>    </g>
    <path
       style="font-style:normal;font-variant:normal;font-weight:normal;font-stretch:normal;letter-spacing:normal;word-spacing:normal;text-anchor:start;fill:#000000;stroke:#000000;stroke-width:0;stroke-linecap:butt;stroke-linejoin:miter;stroke-miterlimit:10.43299961;stroke-opacity:1;stroke-dasharray:none;stroke-dashoffset:0"
       inkscape:connector-curvature="0"
       d="m 24.26447,680.39226 0.01063,-0.20197 0.01063,-0.2126 0.02126,-0.21259 0.03189,-0.22323 0.04252,-0.22323 0.05315,-0.23386 0.06378,-0.22323 0.07441,-0.23386 0.08504,-0.23385 0.106299,-0.23386 0.116929,-0.23386 0.12756,-0.23386 0.148818,-0.23386 0.159449,-0.22322 0.170079,-0.22323 0.191339,-0.22323 0.212598,-0.2126 0.223228,-0.2126 0.244489,-0.20197 0.265748,-0.19134 0.276377,-0.19133 0.308268,-0.17008 0.318898,-0.17008 0.340157,-0.15945 0.361418,-0.13819 0.393307,-0.13819 0.403937,-0.11693 0.435826,-0.1063 0.223229,-0.0532 0.233858,-0.0425 0.233858,-0.0319 0.244488,-0.0425 0.244489,-0.0319 0.255118,-0.0213 0.265748,-0.0319 0.265748,-0.0106 c 0.265748,-0.0531 0.478346,-0.26575 0.478346,-0.58465 0,-0.58465 -0.435826,-0.58465 -1.009842,-0.58465 -5.304331,0 -10.119685,2.68937 -10.162205,6.61181 v 12.0756 c 0,2.0622 0,3.77362 -2.125984,5.51692 -1.849606,1.52008 -3.879921,1.63701 -5.038582,1.69016 -0.265748,0.0532 -0.467717,0.26575 -0.467717,0.58465 0,0.53149 0.318898,0.53149 0.850394,0.57401 3.486614,0.22323 6.027165,2.11536 6.611811,4.71969 0.170078,0.58464 0.170078,0.68031 0.170078,2.5937 v 10.4811 c 0,2.22165 0,3.92244 2.540551,5.9315 2.051575,1.59448 5.559449,2.1685 7.621654,2.1685 0.574016,0 1.009842,0 1.009842,-0.57402 0,-0.53149 -0.329527,-0.53149 -0.850393,-0.58464 -3.337796,-0.2126 -5.942126,-1.91339 -6.622441,-4.60276 -0.170079,-0.47834 -0.170079,-0.57401 -0.170079,-2.4874 v -11.12953 c 0,-2.44488 -0.414567,-3.33779 -2.104724,-5.02795 -1.116142,-1.11614 -2.657481,-1.64764 -4.13504,-2.0622 4.347638,-1.21181 6.239764,-3.6567 6.239764,-6.72874 z"
       id="path10902" />
    <path
       style="font-style:normal;font-variant:normal;font-weight:normal;font-stretch:normal;letter-spacing:normal;word-spacing:normal;text-anchor:start;fill:#000000;stroke:#000000;stroke-width:0;stroke-linecap:butt;stroke-linejoin:miter;stroke-miterlimit:10.43299961;stroke-opacity:1;stroke-dasharray:none;stroke-dashoffset:0"
       inkscape:connector-curvature="0"
       d="m 45.981399,699.82376 0,-0.14882 -0.01063,-0.13819 -0.02126,-0.13819 -0.02126,-0.13819 -0.03189,-0.13819 -0.04252,-0.13819 -0.04252,-0.12756 -0.05315,-0.12755 -0.05315,-0.11693 -0.06378,-0.12756 -0.06378,-0.11693 -0.07441,-0.11693 -0.08504,-0.1063 -0.08504,-0.1063 -0.08504,-0.1063 -0.09567,-0.0957 -0.09567,-0.085 -0.09567,-0.0957 -0.106299,-0.085 -0.116929,-0.0744 -0.106299,-0.0744 -0.127559,-0.0638 -0.116929,-0.0638 -0.12756,-0.0532 -0.127559,-0.0531 -0.127559,-0.0425 -0.127559,-0.0425 -0.138189,-0.0319 -0.138189,-0.0213 -0.138189,-0.0213 -0.148818,-0.0106 -0.138189,0 c -1.530709,0 -2.8063,1.25433 -2.8063,2.8063 0,1.53071 1.275591,2.8063 2.8063,2.8063 1.541338,0 2.806299,-1.27559 2.806299,-2.8063 z"
       id="path10904" />
    <path
       style="font-style:normal;font-variant:normal;font-weight:normal;font-stretch:normal;letter-spacing:normal;word-spacing:normal;text-anchor:start;fill:#000000;stroke:#000000;stroke-width:0;stroke-linecap:butt;stroke-linejoin:miter;stroke-miterlimit:10.43299961;stroke-opacity:1;stroke-dasharray:none;stroke-dashoffset:0"
       inkscape:connector-curvature="0"
       d="m 69.452264,699.82376 -0.01063,-0.14882 -0.01063,-0.13819 -0.01063,-0.13819 -0.03189,-0.13819 -0.03189,-0.13819 -0.03189,-0.13819 -0.04252,-0.12756 -0.05315,-0.12755 -0.05315,-0.11693 -0.06378,-0.12756 -0.07441,-0.11693 -0.07441,-0.11693 -0.07441,-0.1063 -0.08504,-0.1063 -0.08504,-0.1063 -0.09567,-0.0957 -0.09567,-0.085 -0.106299,-0.0957 -0.106299,-0.085 -0.1063,-0.0744 -0.116929,-0.0744 -0.116929,-0.0638 -0.116929,-0.0638 -0.127559,-0.0532 -0.127559,-0.0531 -0.127559,-0.0425 -0.127559,-0.0425 -0.138189,-0.0319 -0.138189,-0.0213 -0.138189,-0.0213 -0.148819,-0.0106 -0.138189,0 c -1.530709,0 -2.806299,1.25433 -2.806299,2.8063 0,1.53071 1.27559,2.8063 2.806299,2.8063 1.541339,0 2.806299,-1.27559 2.806299,-2.8063 z"
       id="path10906" />
    <path
       style="font-style:normal;font-variant:normal;font-weight:normal;font-stretch:normal;letter-spacing:normal;word-spacing:normal;text-anchor:start;fill:#000000;stroke:#000000;stroke-width:0;stroke-linecap:butt;stroke-linejoin:miter;stroke-miterlimit:10.43299961;stroke-opacity:1;stroke-dasharray:none;stroke-dashoffset:0"
       inkscape:connector-curvature="0"
       d="m 92.9125,699.82376 0,-0.14882 -0.01063,-0.13819 -0.02126,-0.13819 -0.02126,-0.13819 -0.03189,-0.13819 -0.04252,-0.13819 -0.04252,-0.12756 -0.05315,-0.12755 -0.05315,-0.11693 -0.06378,-0.12756 -0.06378,-0.11693 -0.07441,-0.11693 -0.07441,-0.1063 -0.08504,-0.1063 -0.09567,-0.1063 -0.08504,-0.0957 -0.106299,-0.085 -0.09567,-0.0957 -0.106299,-0.085 -0.116929,-0.0744 -0.106299,-0.0744 -0.116929,-0.0638 -0.127559,-0.0638 -0.116929,-0.0532 -0.127559,-0.0531 -0.138189,-0.0425 -0.127559,-0.0425 -0.138189,-0.0319 -0.138189,-0.0213 -0.138189,-0.0213 -0.138189,-0.0106 -0.148819,0 c -1.530709,0 -2.806299,1.25433 -2.806299,2.8063 0,1.53071 1.27559,2.8063 2.806299,2.8063 1.541338,0 2.806299,-1.27559 2.806299,-2.8063 z"
       id="path10908" />
    <path
       style="font-style:normal;font-variant:normal;font-weight:normal;font-stretch:normal;letter-spacing:normal;word-spacing:normal;text-anchor:start;fill:#000000;stroke:#000000;stroke-width:0;stroke-linecap:butt;stroke-linejoin:miter;stroke-miterlimit:10.43299961;stroke-opacity:1;stroke-dasharray:none;stroke-dashoffset:0"
       inkscape:connector-curvature="0"
       d="m 126.0247,713.00486 -0.0106,-0.3189 -0.0106,-0.3189 -0.0213,-0.30826 -0.0213,-0.29764 -0.0319,-0.28701 -0.0425,-0.27638 -0.0531,-0.27638 -0.0532,-0.25511 -0.0638,-0.25512 -0.0638,-0.24449 -0.0744,-0.23386 -0.085,-0.22323 -0.085,-0.21259 -0.0957,-0.20197 -0.0957,-0.20197 -0.11693,-0.18071 -0.1063,-0.17008 -0.11693,-0.17008 -0.12756,-0.14882 -0.12756,-0.13819 -0.13818,-0.13818 -0.14882,-0.11693 -0.14882,-0.1063 -0.14882,-0.1063 -0.15945,-0.085 -0.15945,-0.0744 -0.17008,-0.0638 -0.17008,-0.0532 -0.18071,-0.0425 -0.1807,-0.0319 -0.19134,-0.0106 -0.19134,-0.0106 c -1.74331,0 -2.8063,1.32874 -2.8063,2.8063 0,1.42441 1.06299,2.8063 2.8063,2.8063 0.62716,0 1.32874,-0.2126 1.86024,-0.68032 0.14881,-0.11693 0.21259,-0.17007 0.26574,-0.17007 0.0532,0 0.0957,0.0531 0.0957,0.79724 0,3.92244 -1.83897,7.10079 -3.60354,8.84409 -0.58465,0.57402 -0.58465,0.69095 -0.58465,0.83977 0,0.38267 0.26575,0.58464 0.5315,0.58464 0.58465,0 4.82598,-4.07126 4.82598,-10.2685 z"
       id="path10910" />
    <path
       style="font-style:normal;font-variant:normal;font-weight:normal;font-stretch:normal;letter-spacing:normal;word-spacing:normal;text-anchor:start;fill:#000000;stroke:#000000;stroke-width:0;stroke-linecap:butt;stroke-linejoin:miter;stroke-miterlimit:10.43299961;stroke-opacity:1;stroke-dasharray:none;stroke-dashoffset:0"
       inkscape:connector-curvature="0"
       d="m 173.63612,700.88675 0.17008,0 0.17008,0 0.17008,-0.0106 0.085,0 0.0744,-0.0106 0.085,0 0.0744,-0.0106 0.085,-0.0106 0.0744,-0.0106 0.0744,-0.0213 0.0744,-0.0213 0.0638,-0.0213 0.0638,-0.0213 0.0744,-0.0213 0.0531,-0.0319 0.0638,-0.0319 0.0531,-0.0425 0.0532,-0.0319 0.0531,-0.0531 0.0425,-0.0425 0.0425,-0.0531 0.0213,-0.0319 0.0106,-0.0319 0.0213,-0.0319 0.0106,-0.0319 0.0213,-0.0319 0.0106,-0.0319 0.0106,-0.0425 0.0106,-0.0319 0.0106,-0.0425 0.0106,-0.0425 0.0106,-0.0425 0,-0.0425 0.0106,-0.0425 0,-0.0425 0,-0.0532 0,-0.0425 c 0,-1.06299 -0.9567,-1.06299 -1.86024,-1.06299 h -28.64764 c -0.89291,0 -1.83897,0 -1.83897,1.06299 0,1.06299 0.94606,1.06299 1.83897,1.06299 z"
       id="path10912" />
    <path
       style="font-style:normal;font-variant:normal;font-weight:normal;font-stretch:normal;letter-spacing:normal;word-spacing:normal;text-anchor:start;fill:#000000;stroke:#000000;stroke-width:0;stroke-linecap:butt;stroke-linejoin:miter;stroke-miterlimit:10.43299961;stroke-opacity:1;stroke-dasharray:none;stroke-dashoffset:0"
       inkscape:connector-curvature="0"
       d="m 195.50187,679.15919 0,-0.0531 0,-0.0638 0,-0.0532 0,-0.0531 0,-0.0532 0,-0.0531 0,-0.0425 0,-0.0532 0,-0.0425 0,-0.0425 0,-0.0425 0,-0.0425 -0.0106,-0.0425 0,-0.0319 0,-0.0425 0,-0.0319 -0.0106,-0.0744 -0.0106,-0.0638 -0.0106,-0.0532 -0.0213,-0.0531 -0.0106,-0.0531 -0.0213,-0.0425 -0.0213,-0.0425 -0.0319,-0.0319 -0.0319,-0.0319 -0.0319,-0.0319 -0.0425,-0.0319 -0.0425,-0.0213 -0.0425,-0.0213 -0.0213,-0.0106 -0.0319,-0.0106 -0.0213,0 -0.0319,-0.0106 -0.0319,-0.0106 -0.0319,0 -0.0319,-0.0106 -0.0319,0 -0.0319,-0.0106 -0.0425,0 -0.0319,0 -0.0425,-0.0106 -0.0425,0 -0.0425,0 -0.0425,0 -0.0531,0 -0.0425,0 -0.0532,-0.0106 -0.0425,0 -0.0531,0 -0.0638,0 -0.0531,0 c -3.28465,3.39095 -7.94055,3.39095 -9.63071,3.39095 v 1.64763 c 1.06299,0 4.18819,0 6.93071,-1.38189 v 27.43583 c 0,1.91339 -0.14882,2.54055 -4.92166,2.54055 h -1.69015 v 1.64764 c 1.86023,-0.17008 6.46299,-0.17008 8.56771,-0.17008 2.12599,0 6.72874,0 8.58898,0.17008 v -1.64764 h -1.70079 c -4.7622,0 -4.93228,-0.57401 -4.93228,-2.54055 z"
       id="path10914" />
    <path
       style="font-style:normal;font-variant:normal;font-weight:normal;font-stretch:normal;letter-spacing:normal;word-spacing:normal;text-anchor:start;fill:#000000;stroke:#000000;stroke-width:0;stroke-linecap:butt;stroke-linejoin:miter;stroke-miterlimit:10.43299961;stroke-opacity:1;stroke-dasharray:none;stroke-dashoffset:0"
       inkscape:connector-curvature="0"
       d="m 217.2188,713.00486 0,-0.3189 -0.0213,-0.3189 -0.0106,-0.30826 -0.0319,-0.29764 -0.0319,-0.28701 -0.0425,-0.27638 -0.0425,-0.27638 -0.0532,-0.25511 -0.0638,-0.25512 -0.0744,-0.24449 -0.0744,-0.23386 -0.0744,-0.22323 -0.0957,-0.21259 -0.0957,-0.20197 -0.0957,-0.20197 -0.1063,-0.18071 -0.11693,-0.17008 -0.11693,-0.17008 -0.12755,-0.14882 -0.12756,-0.13819 -0.13819,-0.13818 -0.13819,-0.11693 -0.14882,-0.1063 -0.15945,-0.1063 -0.15945,-0.085 -0.15945,-0.0744 -0.17008,-0.0638 -0.17007,-0.0532 -0.18071,-0.0425 -0.18071,-0.0319 -0.19134,-0.0106 -0.19134,-0.0106 c -1.74331,0 -2.8063,1.32874 -2.8063,2.8063 0,1.42441 1.06299,2.8063 2.8063,2.8063 0.62717,0 1.32874,-0.2126 1.86024,-0.68032 0.14882,-0.11693 0.22323,-0.17007 0.26575,-0.17007 0.0531,0 0.0957,0.0531 0.0957,0.79724 0,3.92244 -1.83897,7.10079 -3.59291,8.84409 -0.58464,0.57402 -0.58464,0.69095 -0.58464,0.83977 0,0.38267 0.26574,0.58464 0.53149,0.58464 0.58465,0 4.81536,-4.07126 4.81536,-10.2685 z"
       id="path10916" />
    <path
       style="font-style:normal;font-variant:normal;font-weight:normal;font-stretch:normal;letter-spacing:normal;word-spacing:normal;text-anchor:start;fill:#000000;stroke:#000000;stroke-width:0;stroke-linecap:butt;stroke-linejoin:miter;stroke-miterlimit:10.43299961;stroke-opacity:1;stroke-dasharray:none;stroke-dashoffset:0"
       inkscape:connector-curvature="0"
       d="m 254.30659,696.11391 0,-0.78661 -0.0106,-0.79724 -0.0213,-0.79725 -0.0425,-0.78661 -0.0425,-0.79725 -0.0638,-0.78661 -0.085,-0.78661 -0.0957,-0.77599 -0.12756,-0.77598 -0.14881,-0.77599 -0.17008,-0.76535 -0.20197,-0.76536 -0.23386,-0.76535 -0.25512,-0.74409 -0.29764,-0.7441 -0.15945,-0.37205 -0.17007,-0.36141 c -2.42363,-5.10237 -6.77126,-5.95276 -9.00355,-5.95276 -3.16771,0 -7.037,1.38189 -9.21614,6.31417 -1.70079,3.6567 -1.96653,7.79174 -1.96653,12.02244 0,3.9756 0.22322,8.7378 2.39173,12.75591 2.28543,4.28386 6.15472,5.34685 8.73779,5.34685 v -1.15866 c -2.05157,0 -5.19803,-1.32874 -6.14409,-6.40984 -0.57402,-3.16772 -0.57402,-8.03622 -0.57402,-11.18268 0,-3.38032 0,-6.86693 0.4252,-9.72638 0.99921,-6.31417 4.96417,-6.78189 6.29291,-6.78189 1.75394,0 5.25118,0.94607 6.2504,6.19725 0.53149,2.95511 0.53149,6.99448 0.53149,10.31102 0,3.98622 0,7.57913 -0.58464,10.97008 -0.79725,5.02795 -3.81614,6.62244 -6.19725,6.62244 h 0 v 1.15866 c 2.85945,0 6.87756,-1.10551 9.22677,-6.14409 1.69016,-3.64607 1.95591,-7.77048 1.95591,-11.95867 z"
       id="path10918" />
    <path
       style="font-style:normal;font-variant:normal;font-weight:normal;font-stretch:normal;letter-spacing:normal;word-spacing:normal;text-anchor:start;fill:#000000;stroke:#000000;stroke-width:0;stroke-linecap:butt;stroke-linejoin:miter;stroke-miterlimit:10.43299961;stroke-opacity:1;stroke-dasharray:none;stroke-dashoffset:0"
       inkscape:connector-curvature="0"
       d="m 267.21131,713.00486 0,-0.3189 -0.0106,-0.3189 -0.0213,-0.30826 -0.0213,-0.29764 -0.0319,-0.28701 -0.0425,-0.27638 -0.0531,-0.27638 -0.0532,-0.25511 -0.0638,-0.25512 -0.0638,-0.24449 -0.0744,-0.23386 -0.085,-0.22323 -0.085,-0.21259 -0.0957,-0.20197 -0.1063,-0.20197 -0.1063,-0.18071 -0.1063,-0.17008 -0.12756,-0.17008 -0.11693,-0.14882 -0.13819,-0.13819 -0.12755,-0.13818 -0.14882,-0.11693 -0.14882,-0.1063 -0.14882,-0.1063 -0.15945,-0.085 -0.15945,-0.0744 -0.17008,-0.0638 -0.18071,-0.0532 -0.17007,-0.0425 -0.19134,-0.0319 -0.18071,-0.0106 -0.19134,-0.0106 c -1.74331,0 -2.8063,1.32874 -2.8063,2.8063 0,1.42441 1.06299,2.8063 2.8063,2.8063 0.62716,0 1.32874,-0.2126 1.86024,-0.68032 0.14881,-0.11693 0.21259,-0.17007 0.26574,-0.17007 0.0425,0 0.0957,0.0531 0.0957,0.79724 0,3.92244 -1.83897,7.10079 -3.60354,8.84409 -0.58465,0.57402 -0.58465,0.69095 -0.58465,0.83977 0,0.38267 0.26575,0.58464 0.5315,0.58464 0.58465,0 4.81535,-4.07126 4.81535,-10.2685 z"
       id="path10920" />
    <path
       style="font-style:normal;font-variant:normal;font-weight:normal;font-stretch:normal;letter-spacing:normal;word-spacing:normal;text-anchor:start;fill:#ff0000;stroke:#000000;stroke-width:0;stroke-linecap:butt;stroke-linejoin:miter;stroke-miterlimit:10.43299960999999954;stroke-opacity:1;stroke-dasharray:none;stroke-dashoffset:0"
       inkscape:connector-curvature="0"
       d="m 295.49753,679.15919 0,-0.0531 0,-0.0638 0,-0.0532 0,-0.0531 0,-0.0532 0,-0.0531 0,-0.0425 0,-0.0532 0,-0.0425 0,-0.0425 -0.0106,-0.0425 0,-0.0425 0,-0.0425 0,-0.0319 0,-0.0425 -0.0106,-0.0319 -0.0106,-0.0744 0,-0.0638 -0.0213,-0.0532 -0.0106,-0.0531 -0.0213,-0.0531 -0.0213,-0.0425 -0.0213,-0.0425 -0.0213,-0.0319 -0.0319,-0.0319 -0.0319,-0.0319 -0.0425,-0.0319 -0.0425,-0.0213 -0.0425,-0.0213 -0.0319,-0.0106 -0.0213,-0.0106 -0.0319,0 -0.0213,-0.0106 -0.0319,-0.0106 -0.0319,0 -0.0319,-0.0106 -0.0319,0 -0.0425,-0.0106 -0.0319,0 -0.0425,0 -0.0425,-0.0106 -0.0319,0 -0.0425,0 -0.0532,0 -0.0425,0 -0.0425,0 -0.0532,-0.0106 -0.0531,0 -0.0532,0 -0.0532,0 -0.0531,0 c -3.29527,3.39095 -7.94055,3.39095 -9.63071,3.39095 v 1.64763 c 1.063,0 4.17756,0 6.92008,-1.38189 v 27.43583 c 0,1.91339 -0.14882,2.54055 -4.91102,2.54055 h -1.70079 v 1.64764 c 1.86024,-0.17008 6.46299,-0.17008 8.57835,-0.17008 2.12598,0 6.71811,0 8.57835,0.17008 v -1.64764 h -1.69016 c -4.76221,0 -4.93229,-0.57401 -4.93229,-2.54055 z"
       id="path10922" />
    <path
       style="font-style:normal;font-variant:normal;font-weight:normal;font-stretch:normal;letter-spacing:normal;word-spacing:normal;text-anchor:start;fill:#000000;stroke:#000000;stroke-width:0;stroke-linecap:butt;stroke-linejoin:miter;stroke-miterlimit:10.43299961;stroke-opacity:1;stroke-dasharray:none;stroke-dashoffset:0"
       inkscape:connector-curvature="0"
       d="m 317.21446,713.00486 -0.0106,-0.3189 -0.0106,-0.3189 -0.0213,-0.30826 -0.0213,-0.29764 -0.0319,-0.28701 -0.0425,-0.27638 -0.0532,-0.27638 -0.0532,-0.25511 -0.0638,-0.25512 -0.0638,-0.24449 -0.0744,-0.23386 -0.085,-0.22323 -0.085,-0.21259 -0.0957,-0.20197 -0.1063,-0.20197 -0.1063,-0.18071 -0.1063,-0.17008 -0.11693,-0.17008 -0.12756,-0.14882 -0.13819,-0.13819 -0.12756,-0.13818 -0.14881,-0.11693 -0.14882,-0.1063 -0.14882,-0.1063 -0.15945,-0.085 -0.15945,-0.0744 -0.17008,-0.0638 -0.17008,-0.0532 -0.18071,-0.0425 -0.1807,-0.0319 -0.19134,-0.0106 -0.19134,-0.0106 c -1.74331,0 -2.8063,1.32874 -2.8063,2.8063 0,1.42441 1.06299,2.8063 2.8063,2.8063 0.62716,0 1.32874,-0.2126 1.86023,-0.68032 0.14882,-0.11693 0.2126,-0.17007 0.26575,-0.17007 0.0425,0 0.0957,0.0531 0.0957,0.79724 0,3.92244 -1.83897,7.10079 -3.60354,8.84409 -0.58465,0.57402 -0.58465,0.69095 -0.58465,0.83977 0,0.38267 0.26575,0.58464 0.5315,0.58464 0.58464,0 4.82598,-4.07126 4.82598,-10.2685 z"
       id="path10924" />
    <path
       style="font-style:normal;font-variant:normal;font-weight:normal;font-stretch:normal;letter-spacing:normal;word-spacing:normal;text-anchor:start;fill:#ff0000;stroke:#000000;stroke-width:0;stroke-linecap:butt;stroke-linejoin:miter;stroke-miterlimit:10.43299960999999954;stroke-opacity:1;stroke-dasharray:none;stroke-dashoffset:0"
       inkscape:connector-curvature="0"
       d="m 336.65659,708.97612 5.6126,-5.45315 c 8.25945,-7.30276 11.44842,-10.1622 11.44842,-15.45591 0,-6.04842 -4.77283,-10.28976 -11.22519,-10.28976 -5.99528,0 -9.91772,4.88976 -9.91772,9.59882 0,2.96575 2.65748,2.96575 2.8063,2.96575 0.91417,0 2.75315,-0.6378 2.75315,-2.8063 0,-1.38189 -0.94607,-2.76378 -2.8063,-2.76378 -0.41457,0 -0.5315,0 -0.68032,0.0531 1.21181,-3.4441 4.07126,-5.4 7.14331,-5.4 4.81535,0 7.11142,4.30512 7.11142,8.64212 0,4.23071 -2.65748,8.4189 -5.57008,11.70355 l -10.16221,11.33149 c -0.59527,0.57402 -0.59527,0.68032 -0.59527,1.95591 h 19.64409 l 1.49882,-9.21614 h -1.32874 c -0.26575,1.59449 -0.62716,3.92244 -1.15866,4.71968 -0.38268,0.41457 -3.87992,0.41457 -5.03858,0.41457 z"
       id="path10926" />
    <path
       style="font-style:normal;font-variant:normal;font-weight:normal;font-stretch:normal;letter-spacing:normal;word-spacing:normal;text-anchor:start;fill:#000000;stroke:#000000;stroke-width:0;stroke-linecap:butt;stroke-linejoin:miter;stroke-miterlimit:10.43299961;stroke-opacity:1;stroke-dasharray:none;stroke-dashoffset:0"
       inkscape:connector-curvature="0"
       d="m 367.20698,713.00486 0,-0.3189 -0.0106,-0.3189 -0.0213,-0.30826 -0.0319,-0.29764 -0.0319,-0.28701 -0.0425,-0.27638 -0.0425,-0.27638 -0.0532,-0.25511 -0.0638,-0.25512 -0.0744,-0.24449 -0.0744,-0.23386 -0.0744,-0.22323 -0.0957,-0.21259 -0.0957,-0.20197 -0.0957,-0.20197 -0.1063,-0.18071 -0.11693,-0.17008 -0.11693,-0.17008 -0.12756,-0.14882 -0.12756,-0.13819 -0.13819,-0.13818 -0.13819,-0.11693 -0.14882,-0.1063 -0.15944,-0.1063 -0.14882,-0.085 -0.17008,-0.0744 -0.17008,-0.0638 -0.17008,-0.0532 -0.18071,-0.0425 -0.18071,-0.0319 -0.19133,-0.0106 -0.19134,-0.0106 c -1.74331,0 -2.8063,1.32874 -2.8063,2.8063 0,1.42441 1.06299,2.8063 2.8063,2.8063 0.63779,0 1.32874,-0.2126 1.86023,-0.68032 0.14882,-0.11693 0.22323,-0.17007 0.26575,-0.17007 0.0531,0 0.1063,0.0531 0.1063,0.79724 0,3.92244 -1.84961,7.10079 -3.60354,8.84409 -0.58465,0.57402 -0.58465,0.69095 -0.58465,0.83977 0,0.38267 0.26575,0.58464 0.5315,0.58464 0.58464,0 4.81535,-4.07126 4.81535,-10.2685 z"
       id="path10928" />
    <path
       style="font-style:normal;font-variant:normal;font-weight:normal;font-stretch:normal;letter-spacing:normal;word-spacing:normal;text-anchor:start;fill:#000000;stroke:#000000;stroke-width:0;stroke-linecap:butt;stroke-linejoin:miter;stroke-miterlimit:10.43299961;stroke-opacity:1;stroke-dasharray:none;stroke-dashoffset:0"
       inkscape:connector-curvature="0"
       d="m 395.29123,694.42376 0.40394,-0.13819 0.39331,-0.15945 0.3933,-0.15945 0.37205,-0.18071 0.37205,-0.19134 0.36142,-0.20196 0.35078,-0.2126 0.34016,-0.23386 0.32953,-0.23386 0.32953,-0.24449 0.30826,-0.25512 0.29764,-0.26574 0.28701,-0.27638 0.27638,-0.28701 0.26574,-0.28701 0.25512,-0.30827 0.23386,-0.30826 0.22323,-0.3189 0.2126,-0.3189 0.20197,-0.34016 0.19134,-0.34015 0.17007,-0.34016 0.14882,-0.35079 0.14882,-0.36142 0.11693,-0.36141 0.11693,-0.36142 0.0957,-0.37205 0.0744,-0.38267 0.0638,-0.38268 0.0425,-0.38268 0.0213,-0.38268 0.0106,-0.3933 c 0,-4.33701 -4.66654,-7.31339 -9.74764,-7.31339 -5.34685,0 -9.36496,3.18898 -9.36496,7.20709 0,1.75393 1.15866,2.76378 2.7,2.76378 1.63701,0 2.7,-1.16929 2.7,-2.71063 0,-2.63622 -2.49803,-2.63622 -3.27402,-2.63622 1.62638,-2.5937 5.13426,-3.29528 7.03701,-3.29528 2.15788,0 5.0811,1.16929 5.0811,5.9315 0,0.64842 -0.11693,3.70984 -1.48819,6.04842 -1.58385,2.54055 -3.39094,2.68937 -4.69842,2.75315 -0.43583,0.0531 -1.70079,0.14882 -2.08346,0.14882 -0.41457,0.0531 -0.79725,0.1063 -0.79725,0.6378 0,0.57401 0.38268,0.57401 1.28622,0.57401 h 2.31732 c 4.35827,0 6.31418,3.60354 6.31418,8.81221 0,7.18582 -3.6567,8.72716 -5.99528,8.72716 -2.2748,0 -6.25039,-0.89291 -8.08937,-4.01811 1.83898,0.25512 3.48662,-0.91417 3.48662,-2.92323 0,-1.90275 -1.42441,-2.95512 -2.97638,-2.95512 -1.25433,0 -2.95512,0.73347 -2.95512,3.07205 0,4.81536 4.92165,8.30197 10.6937,8.30197 6.46299,0 11.28898,-4.81535 11.28898,-10.20472 0,-4.35827 -3.34843,-8.47205 -8.8441,-9.58819 z"
       id="path10930" />
    <path
       style="font-style:normal;font-variant:normal;font-weight:normal;font-stretch:normal;letter-spacing:normal;word-spacing:normal;text-anchor:start;fill:#000000;stroke:#000000;stroke-width:0;stroke-linecap:butt;stroke-linejoin:miter;stroke-miterlimit:10.43299961;stroke-opacity:1;stroke-dasharray:none;stroke-dashoffset:0"
       inkscape:connector-curvature="0"
       d="m 417.21013,713.00486 -0.0106,-0.3189 -0.0106,-0.3189 -0.0213,-0.30826 -0.0213,-0.29764 -0.0319,-0.28701 -0.0425,-0.27638 -0.0531,-0.27638 -0.0532,-0.25511 -0.0638,-0.25512 -0.0638,-0.24449 -0.0744,-0.23386 -0.085,-0.22323 -0.085,-0.21259 -0.0957,-0.20197 -0.0957,-0.20197 -0.11693,-0.18071 -0.1063,-0.17008 -0.11693,-0.17008 -0.12756,-0.14882 -0.13819,-0.13819 -0.12756,-0.13818 -0.14882,-0.11693 -0.14882,-0.1063 -0.14882,-0.1063 -0.15944,-0.085 -0.15945,-0.0744 -0.17008,-0.0638 -0.17008,-0.0532 -0.18071,-0.0425 -0.18071,-0.0319 -0.19134,-0.0106 -0.19134,-0.0106 c -1.7433,0 -2.80629,1.32874 -2.80629,2.8063 0,1.42441 1.06299,2.8063 2.80629,2.8063 0.62717,0 1.32875,-0.2126 1.86024,-0.68032 0.14882,-0.11693 0.2126,-0.17007 0.26575,-0.17007 0.0425,0 0.0957,0.0531 0.0957,0.79724 0,3.92244 -1.83898,7.10079 -3.60354,8.84409 -0.58465,0.57402 -0.58465,0.69095 -0.58465,0.83977 0,0.38267 0.26575,0.58464 0.5315,0.58464 0.58464,0 4.82598,-4.07126 4.82598,-10.2685 z"
       id="path10932" />
    <path
       style="font-style:normal;font-variant:normal;font-weight:normal;font-stretch:normal;letter-spacing:normal;word-spacing:normal;text-anchor:start;fill:#ff0000;stroke:#000000;stroke-width:0;stroke-linecap:butt;stroke-linejoin:miter;stroke-miterlimit:10.43299960999999954;stroke-opacity:1;stroke-dasharray:none;stroke-dashoffset:0"
       inkscape:connector-curvature="0"
       d="m 445.48572,704.32021 v 4.60276 c 0,1.91339 -0.0957,2.4874 -4.01811,2.4874 h -1.11614 v 1.64764 c 2.17913,-0.17008 4.93228,-0.17008 7.16456,-0.17008 2.22166,0 5.02796,0 7.18583,0.17008 v -1.64764 h -1.10551 c -3.92244,0 -4.01811,-0.57401 -4.01811,-2.4874 v -4.60276 h 5.2937 v -1.637 h -5.2937 v -24.10866 c 0,-1.063 0,-1.37126 -0.85039,-1.37126 -0.47835,0 -0.6378,0 -1.063,0.64842 l -16.26378,24.8315 h 1.49882 l 12.91536,-19.7504 v 19.7504 h -12.91536 -1.49882 v 1.637 z"
       id="path10934" />
    <path
       style="font-style:normal;font-variant:normal;font-weight:normal;font-stretch:normal;letter-spacing:normal;word-spacing:normal;text-anchor:start;fill:#000000;stroke:#000000;stroke-width:0;stroke-linecap:butt;stroke-linejoin:miter;stroke-miterlimit:10.43299961;stroke-opacity:1;stroke-dasharray:none;stroke-dashoffset:0"
       inkscape:connector-curvature="0"
       d="m 467.20265,713.00486 -0.0106,-0.3189 -0.0106,-0.3189 -0.0213,-0.30826 -0.0213,-0.29764 -0.0319,-0.28701 -0.0425,-0.27638 -0.0425,-0.27638 -0.0638,-0.25511 -0.0532,-0.25512 -0.0744,-0.24449 -0.0744,-0.23386 -0.085,-0.22323 -0.085,-0.21259 -0.0957,-0.20197 -0.0957,-0.20197 -0.10629,-0.18071 -0.11693,-0.17008 -0.11693,-0.17008 -0.12756,-0.14882 -0.12756,-0.13819 -0.13819,-0.13818 -0.14882,-0.11693 -0.14882,-0.1063 -0.14882,-0.1063 -0.15945,-0.085 -0.15944,-0.0744 -0.17008,-0.0638 -0.17008,-0.0532 -0.18071,-0.0425 -0.18071,-0.0319 -0.19134,-0.0106 -0.19134,-0.0106 c -1.7433,0 -2.8063,1.32874 -2.8063,2.8063 0,1.42441 1.063,2.8063 2.8063,2.8063 0.62717,0 1.32874,-0.2126 1.86024,-0.68032 0.14882,-0.11693 0.2126,-0.17007 0.26575,-0.17007 0.0532,0 0.0957,0.0531 0.0957,0.79724 0,3.92244 -1.83898,7.10079 -3.60355,8.84409 -0.57401,0.57402 -0.57401,0.69095 -0.57401,0.83977 0,0.38267 0.26575,0.58464 0.53149,0.58464 0.57402,0 4.81536,-4.07126 4.81536,-10.2685 z"
       id="path10936" />
    <path
       style="font-style:normal;font-variant:normal;font-weight:normal;font-stretch:normal;letter-spacing:normal;word-spacing:normal;text-anchor:start;fill:#000000;stroke:#000000;stroke-width:0;stroke-linecap:butt;stroke-linejoin:miter;stroke-miterlimit:10.43299961;stroke-opacity:1;stroke-dasharray:none;stroke-dashoffset:0"
       inkscape:connector-curvature="0"
       d="m 503.7058,702.41746 -0.0106,-0.59528 -0.0425,-0.57401 -0.0532,-0.57402 -0.0957,-0.56338 -0.1063,-0.56339 -0.12756,-0.54213 -0.15945,-0.53149 -0.17008,-0.5315 -0.20197,-0.51023 -0.21259,-0.49961 -0.24449,-0.48898 -0.25512,-0.46771 -0.27638,-0.45709 -0.28701,-0.43583 -0.31889,-0.42519 -0.32953,-0.40394 -0.34016,-0.38268 -0.36142,-0.37205 -0.38267,-0.34015 -0.39331,-0.32953 -0.40394,-0.30827 -0.42519,-0.27638 -0.43583,-0.26574 -0.44646,-0.23386 -0.45708,-0.2126 -0.47835,-0.18071 -0.47835,-0.15945 -0.4996,-0.13819 -0.49961,-0.0957 -0.52087,-0.0744 -0.52086,-0.0532 -0.5315,-0.0106 c -2.54055,0 -4.81535,0.8504 -6.72874,2.68937 v -10.31102 c 1.06299,0.30827 2.8063,0.68032 4.50709,0.68032 6.50551,0 10.21535,-4.81536 10.21535,-5.51693 0,-0.3189 -0.14882,-0.58465 -0.53149,-0.58465 -0.0532,0 -0.14882,0 -0.41457,0.17008 -1.06299,0.47835 -3.65669,1.53071 -7.20709,1.53071 -2.11535,0 -4.56023,-0.37205 -7.04763,-1.47756 -0.41457,-0.14882 -0.5315,-0.14882 -0.62717,-0.14882 -0.5315,0 -0.5315,0.41457 -0.5315,1.25433 v 15.67913 c 0,0.94607 0,1.38189 0.7441,1.38189 0.36142,0 0.46771,-0.17007 0.68031,-0.47834 0.58465,-0.8504 2.54055,-3.70984 6.82441,-3.70984 2.76378,0 4.09252,2.44488 4.50709,3.39094 0.86102,1.95591 0.95669,4.01811 0.95669,6.67559 0,1.84961 0,5.03858 -1.27559,7.26024 -1.26496,2.0622 -3.22086,3.43346 -5.66575,3.43346 -3.86929,0 -6.87756,-2.8063 -7.79173,-5.92086 0.17008,0.0425 0.34016,0.0957 0.91417,0.0957 1.74331,0 2.64686,-1.32874 2.64686,-2.5937 0,-1.27559 -0.90355,-2.5937 -2.64686,-2.5937 -0.74409,0 -2.60433,0.37205 -2.60433,2.81693 0,4.54961 3.6567,9.67323 9.59882,9.67323 6.13347,0 11.5441,-5.0811 11.5441,-11.79921 z"
       id="path10938" />
    <path
       style="font-style:normal;font-variant:normal;font-weight:normal;font-stretch:normal;letter-spacing:normal;word-spacing:normal;text-anchor:start;fill:#000000;stroke:#000000;stroke-width:0;stroke-linecap:butt;stroke-linejoin:miter;stroke-miterlimit:10.43299961;stroke-opacity:1;stroke-dasharray:none;stroke-dashoffset:0"
       inkscape:connector-curvature="0"
       d="m 517.19517,713.00486 0,-0.3189 -0.0106,-0.3189 -0.0213,-0.30826 -0.0213,-0.29764 -0.0425,-0.28701 -0.0319,-0.27638 -0.0531,-0.27638 -0.0531,-0.25511 -0.0638,-0.25512 -0.0638,-0.24449 -0.0744,-0.23386 -0.085,-0.22323 -0.085,-0.21259 -0.0957,-0.20197 -0.1063,-0.20197 -0.1063,-0.18071 -0.11693,-0.17008 -0.11692,-0.17008 -0.12756,-0.14882 -0.12756,-0.13819 -0.13819,-0.13818 -0.13819,-0.11693 -0.14882,-0.1063 -0.14882,-0.1063 -0.15945,-0.085 -0.17008,-0.0744 -0.15944,-0.0638 -0.18071,-0.0532 -0.18071,-0.0425 -0.18071,-0.0319 -0.18071,-0.0106 -0.19134,-0.0106 c -1.75394,0 -2.81693,1.32874 -2.81693,2.8063 0,1.42441 1.06299,2.8063 2.81693,2.8063 0.62717,0 1.32874,-0.2126 1.86024,-0.68032 0.13819,-0.11693 0.2126,-0.17007 0.26575,-0.17007 0.0425,0 0.0957,0.0531 0.0957,0.79724 0,3.92244 -1.84961,7.10079 -3.60355,8.84409 -0.58464,0.57402 -0.58464,0.69095 -0.58464,0.83977 0,0.38267 0.26574,0.58464 0.53149,0.58464 0.58465,0 4.81536,-4.07126 4.81536,-10.2685 z"
       id="path10940" />
    <path
       style="font-style:normal;font-variant:normal;font-weight:normal;font-stretch:normal;letter-spacing:normal;word-spacing:normal;text-anchor:start;fill:#000000;stroke:#000000;stroke-width:0;stroke-linecap:butt;stroke-linejoin:miter;stroke-miterlimit:10.43299961;stroke-opacity:1;stroke-dasharray:none;stroke-dashoffset:0"
       inkscape:connector-curvature="0"
       d="m 536.91367,695.68872 v -1.26496 c 0,-13.40433 6.55866,-15.31772 9.26929,-15.31772 1.25433,0 3.48662,0.3189 4.64528,2.12599 -0.77599,0 -2.90197,0 -2.90197,2.3811 0,1.63701 1.27559,2.43425 2.43425,2.43425 0.85039,0 2.43425,-0.47835 2.43425,-2.54055 0,-3.18898 -2.32795,-5.72953 -6.71811,-5.72953 -6.79252,0 -13.92519,6.84567 -13.92519,18.53858 0,14.14843 6.14409,17.90079 11.05511,17.90079 5.87835,0 10.91693,-4.9748 10.91693,-11.95866 0,-6.71811 -4.71968,-11.82047 -10.59803,-11.82047 l -0.0531,1.23307 c 0.8504,0 3.29528,0 4.93228,3.28464 0.94607,1.94528 0.94607,4.64528 0.94607,7.23898 0,2.54055 0,5.19803 -0.89292,7.11142 -1.59448,3.16771 -4.01811,3.43346 -5.25118,3.43346 h 0 c -3.33779,0 -4.91102,-3.16772 -5.22992,-3.96496 -0.96732,-2.4874 -0.96732,-6.72874 -0.96732,-7.68543 0,-4.12441 1.70079,-9.41811 6.46299,-9.41811 l 0.0531,-1.23307 c -3.59291,0 -5.54882,2.71063 -6.61181,5.25118 z"
       id="path10942" />
    <path
       style="font-style:normal;font-variant:normal;font-weight:normal;font-stretch:normal;letter-spacing:normal;word-spacing:normal;text-anchor:start;fill:#000000;stroke:#000000;stroke-width:0;stroke-linecap:butt;stroke-linejoin:miter;stroke-miterlimit:10.43299961;stroke-opacity:1;stroke-dasharray:none;stroke-dashoffset:0"
       inkscape:connector-curvature="0"
       d="m 567.19832,713.00486 -0.0106,-0.3189 -0.0106,-0.3189 -0.0213,-0.30826 -0.0213,-0.29764 -0.0319,-0.28701 -0.0425,-0.27638 -0.0425,-0.27638 -0.0638,-0.25511 -0.0532,-0.25512 -0.0744,-0.24449 -0.0744,-0.23386 -0.085,-0.22323 -0.085,-0.21259 -0.0957,-0.20197 -0.0957,-0.20197 -0.1063,-0.18071 -0.11693,-0.17008 -0.11693,-0.17008 -0.12756,-0.14882 -0.12755,-0.13819 -0.13819,-0.13818 -0.14882,-0.11693 -0.13819,-0.1063 -0.15945,-0.1063 -0.15945,-0.085 -0.15945,-0.0744 -0.17008,-0.0638 -0.17008,-0.0532 -0.1807,-0.0425 -0.18071,-0.0319 -0.19134,-0.0106 -0.19134,-0.0106 c -1.74331,0 -2.8063,1.32874 -2.8063,2.8063 0,1.42441 1.06299,2.8063 2.8063,2.8063 0.62717,0 1.32874,-0.2126 1.86024,-0.68032 0.14882,-0.11693 0.21259,-0.17007 0.26574,-0.17007 0.0531,0 0.0957,0.0531 0.0957,0.79724 0,3.92244 -1.83897,7.10079 -3.60354,8.84409 -0.57402,0.57402 -0.57402,0.69095 -0.57402,0.83977 0,0.38267 0.26575,0.58464 0.5315,0.58464 0.57402,0 4.81536,-4.07126 4.81536,-10.2685 z"
       id="path10944" />
    <path
       style="font-style:normal;font-variant:normal;font-weight:normal;font-stretch:normal;letter-spacing:normal;word-spacing:normal;text-anchor:start;fill:#000000;stroke:#000000;stroke-width:0;stroke-linecap:butt;stroke-linejoin:miter;stroke-miterlimit:10.43299961;stroke-opacity:1;stroke-dasharray:none;stroke-dashoffset:0"
       inkscape:connector-curvature="0"
       d="m 605.07272,680.80683 0.1063,-0.0638 0,-0.0532 0.1063,-0.0531 0,-0.0531 0,-0.0425 0.1063,-0.0425 0,-0.0531 0,-0.0425 0,-0.0425 0,-0.0425 0.1063,-0.0425 0,-0.0425 0,-0.0425 0,-0.0425 0,-0.0425 0,-0.0425 0,-0.0425 0.1063,-0.0532 0,-0.0531 0,-0.0425 0,-0.0638 0,-0.0532 0,-0.0638 0,-0.0638 0,-0.0638 0,-0.0744 0,-0.0744 0,-0.085 0,-0.085 0,-0.085 0,-0.0957 0,-0.0532 0,-0.0531 h -12.8622 c -6.463,0 -6.57993,-0.69094 -6.80315,-1.69016 h -1.30748 l -1.74331,10.89567 h 1.30748 c 0.17008,-0.85039 0.64842,-4.18818 1.32874,-4.81535 0.37205,-0.3189 4.45394,-0.3189 5.19803,-0.3189 h 10.94882 c -0.6378,0.8504 -4.78347,6.63307 -5.95276,8.37638 -4.78346,7.13268 -6.48425,14.50984 -6.48425,19.90984 0,0.5315 0,2.90197 2.44488,2.90197 2.44488,0 2.44488,-2.37047 2.44488,-2.90197 v -2.71063 c 0,-2.90197 0.1063,-5.82519 0.5315,-8.68464 0.2126,-1.21181 0.95669,-5.76142 3.29528,-9.04607 z"
       id="path10946" />
    <path
       style="font-style:normal;font-variant:normal;font-weight:normal;font-stretch:normal;letter-spacing:normal;word-spacing:normal;text-anchor:start;fill:#000000;stroke:#000000;stroke-width:0;stroke-linecap:butt;stroke-linejoin:miter;stroke-miterlimit:10.43299961;stroke-opacity:1;stroke-dasharray:none;stroke-dashoffset:0"
       inkscape:connector-curvature="0"
       d="m 617.19083,713.00486 0,-0.3189 0,-0.3189 0,-0.30826 -0.1063,-0.29764 0,-0.28701 0,-0.27638 -0.10629,-0.27638 0,-0.25511 -0.1063,-0.25512 0,-0.24449 -0.1063,-0.23386 -0.1063,-0.22323 -0.1063,-0.21259 -0.1063,-0.20197 -0.1063,-0.20197 -0.1063,-0.18071 -0.1063,-0.17008 -0.1063,-0.17008 -0.1063,-0.14882 -0.1063,-0.13819 -0.21259,-0.13818 -0.1063,-0.11693 -0.1063,-0.1063 -0.2126,-0.1063 -0.1063,-0.085 -0.2126,-0.0744 -0.1063,-0.0638 -0.2126,-0.0532 -0.2126,-0.0425 -0.10629,-0.0319 -0.2126,-0.0106 -0.2126,-0.0106 c -1.70079,0 -2.76378,1.32874 -2.76378,2.8063 0,1.42441 1.06299,2.8063 2.76378,2.8063 0.63779,0 1.38189,-0.2126 1.91338,-0.68032 0.1063,-0.11693 0.2126,-0.17007 0.2126,-0.17007 0.1063,0 0.1063,0.0531 0.1063,0.79724 0,3.92244 -1.80708,7.10079 -3.61417,8.84409 -0.5315,0.57402 -0.5315,0.69095 -0.5315,0.83977 0,0.38267 0.2126,0.58464 0.5315,0.58464 0.5315,0 4.78346,-4.07126 4.78346,-10.2685 z"
       id="path10948" />
    <path
       style="font-style:normal;font-variant:normal;font-weight:normal;font-stretch:normal;letter-spacing:normal;word-spacing:normal;text-anchor:start;fill:#ff0000;stroke:#000000;stroke-width:0;stroke-linecap:butt;stroke-linejoin:miter;stroke-miterlimit:10.43299960999999954;stroke-opacity:1;stroke-dasharray:none;stroke-dashoffset:0"
       inkscape:connector-curvature="0"
       d="m 646.31682,693.89226 0.31889,-0.19134 0.3189,-0.18071 0.3189,-0.20196 0.3189,-0.20197 0.42519,-0.20197 0.2126,-0.2126 0.3189,-0.2126 0.3189,-0.2126 0.3189,-0.22322 0.21259,-0.23386 0.3189,-0.22323 0.2126,-0.24449 0.3189,-0.23386 0.2126,-0.25512 0.21259,-0.24448 0.2126,-0.25512 0.2126,-0.25512 0.2126,-0.26575 0.2126,-0.26575 0.1063,-0.27637 0.2126,-0.27638 0.1063,-0.28701 0.10629,-0.28701 0.2126,-0.28701 0.1063,-0.29763 0,-0.29764 0.1063,-0.29764 0.1063,-0.30827 0,-0.30826 0.1063,-0.3189 0,-0.3189 0,-0.32953 c 0,-4.87913 -4.78346,-7.90866 -9.56693,-7.90866 l 0,1.32874 c 3.82677,0 7.22835,2.76378 7.22835,6.57992 0,3.00827 -2.01969,5.54882 -5.20866,7.40906 l -6.59056,-4.23071 c -2.44488,-1.59449 -2.65748,-3.39095 -2.65748,-4.29449 0,-3.2315 3.40158,-5.46378 7.22835,-5.46378 l 0,-1.32874 c -5.31496,0 -9.56693,3.92244 -9.56693,8.85473 0,0.94606 0.1063,3.33779 2.33858,5.83582 0.5315,0.62717 2.55119,1.95591 3.82678,2.84882 l 1.27559,0.79724 6.48425,4.12441 c 1.48819,1.00985 4.03937,2.60433 4.03937,5.8252 0,3.92244 -4.03937,6.67559 -8.39764,6.67559 -4.57087,0 -8.39764,-3.28464 -8.39764,-7.66417 0,-3.08268 1.70079,-6.46299 6.27166,-8.96103 h 0 l -1.27559,-0.79724 c -3.08268,1.53071 -7.54725,4.50709 -7.54725,9.75827 0,5.6126 5.31496,9.14173 10.94882,9.14173 5.95276,0 10.94882,-4.40079 10.94882,-10.0559 0,-1.90276 -0.5315,-4.29449 -2.55118,-6.51615 -1.06299,-1.11614 -1.91339,-1.64763 -5.20866,-3.75236 z"
       id="path10950" />
    <path
       style="font-style:normal;font-variant:normal;font-weight:normal;font-stretch:normal;letter-spacing:normal;word-spacing:normal;text-anchor:start;fill:#000000;stroke:#000000;stroke-width:0;stroke-linecap:butt;stroke-linejoin:miter;stroke-miterlimit:10.43299961;stroke-opacity:1;stroke-dasharray:none;stroke-dashoffset:0"
       inkscape:connector-curvature="0"
       d="m 667.15146,713.00486 0,-0.3189 0,-0.3189 0,-0.30826 0,-0.29764 -0.1063,-0.28701 0,-0.27638 0,-0.27638 -0.1063,-0.25511 -0.1063,-0.25512 0,-0.24449 -0.10629,-0.23386 -0.1063,-0.22323 0,-0.21259 -0.1063,-0.20197 -0.1063,-0.20197 -0.1063,-0.18071 -0.1063,-0.17008 -0.1063,-0.17008 -0.2126,-0.14882 -0.1063,-0.13819 -0.1063,-0.13818 -0.1063,-0.11693 -0.21259,-0.1063 -0.1063,-0.1063 -0.2126,-0.085 -0.1063,-0.0744 -0.2126,-0.0638 -0.2126,-0.0532 -0.1063,-0.0425 -0.2126,-0.0319 -0.21259,-0.0106 -0.2126,-0.0106 c -1.70079,0 -2.76378,1.32874 -2.76378,2.8063 0,1.42441 1.06299,2.8063 2.76378,2.8063 0.63779,0 1.38189,-0.2126 1.91338,-0.68032 0.1063,-0.11693 0.2126,-0.17007 0.2126,-0.17007 0.1063,0 0.1063,0.0531 0.1063,0.79724 0,3.92244 -1.80709,7.10079 -3.61417,8.84409 -0.5315,0.57402 -0.5315,0.69095 -0.5315,0.83977 0,0.38267 0.3189,0.58464 0.5315,0.58464 0.53149,0 4.78346,-4.07126 4.78346,-10.2685 z"
       id="path10952" />
    <path
       style="font-style:normal;font-variant:normal;font-weight:normal;font-stretch:normal;letter-spacing:normal;word-spacing:normal;text-anchor:start;fill:#000000;stroke:#000000;stroke-width:0;stroke-linecap:butt;stroke-linejoin:miter;stroke-miterlimit:10.43299961;stroke-opacity:1;stroke-dasharray:none;stroke-dashoffset:0"
       inkscape:connector-curvature="0"
       d="m 690.11209,699.82376 0,-0.14882 -0.1063,-0.13819 0,-0.13819 0,-0.13819 0,-0.13819 -0.1063,-0.13819 0,-0.12756 0,-0.12755 -0.1063,-0.11693 -0.1063,-0.12756 0,-0.11693 -0.10629,-0.11693 -0.1063,-0.1063 0,-0.1063 -0.1063,-0.1063 -0.1063,-0.0957 -0.1063,-0.085 -0.1063,-0.0957 -0.1063,-0.085 -0.1063,-0.0744 -0.1063,-0.0744 -0.1063,-0.0638 -0.1063,-0.0638 -0.21259,-0.0532 -0.1063,-0.0531 -0.1063,-0.0425 -0.1063,-0.0425 -0.1063,-0.0319 -0.2126,-0.0213 -0.1063,-0.0213 -0.1063,-0.0106 -0.2126,0 c -1.48819,0 -2.76378,1.25433 -2.76378,2.8063 0,1.53071 1.27559,2.8063 2.76378,2.8063 1.59449,0 2.87008,-1.27559 2.87008,-2.8063 z"
       id="path10954" />
    <path
       style="font-style:normal;font-variant:normal;font-weight:normal;font-stretch:normal;letter-spacing:normal;word-spacing:normal;text-anchor:start;fill:#000000;stroke:#000000;stroke-width:0;stroke-linecap:butt;stroke-linejoin:miter;stroke-miterlimit:10.43299961;stroke-opacity:1;stroke-dasharray:none;stroke-dashoffset:0"
       inkscape:connector-curvature="0"
       d="m 713.49792,699.82376 0,-0.14882 0,-0.13819 0,-0.13819 0,-0.13819 0,-0.13819 -0.1063,-0.13819 0,-0.12756 -0.1063,-0.12755 0,-0.11693 -0.1063,-0.12756 0,-0.11693 -0.1063,-0.11693 -0.1063,-0.1063 -0.1063,-0.1063 0,-0.1063 -0.1063,-0.0957 -0.1063,-0.085 -0.1063,-0.0957 -0.10629,-0.085 -0.1063,-0.0744 -0.1063,-0.0744 -0.1063,-0.0638 -0.2126,-0.0638 -0.1063,-0.0532 -0.1063,-0.0531 -0.1063,-0.0425 -0.1063,-0.0425 -0.2126,-0.0319 -0.10629,-0.0213 -0.1063,-0.0213 -0.2126,-0.0106 -0.1063,0 c -1.48819,0 -2.76378,1.25433 -2.76378,2.8063 0,1.53071 1.27559,2.8063 2.76378,2.8063 1.48819,0 2.76378,-1.27559 2.76378,-2.8063 z"
       id="path10956" />
    <path
       style="font-style:normal;font-variant:normal;font-weight:normal;font-stretch:normal;letter-spacing:normal;word-spacing:normal;text-anchor:start;fill:#000000;stroke:#000000;stroke-width:0;stroke-linecap:butt;stroke-linejoin:miter;stroke-miterlimit:10.43299961;stroke-opacity:1;stroke-dasharray:none;stroke-dashoffset:0"
       inkscape:connector-curvature="0"
       d="m 736.99004,699.82376 0,-0.14882 0,-0.13819 0,-0.13819 0,-0.13819 -0.1063,-0.13819 0,-0.13819 0,-0.12756 -0.1063,-0.12755 0,-0.11693 -0.10629,-0.12756 -0.1063,-0.11693 0,-0.11693 -0.1063,-0.1063 -0.1063,-0.1063 -0.1063,-0.1063 -0.1063,-0.0957 0,-0.085 -0.1063,-0.0957 -0.1063,-0.085 -0.1063,-0.0744 -0.2126,-0.0744 -0.1063,-0.0638 -0.10629,-0.0638 -0.1063,-0.0532 -0.1063,-0.0531 -0.1063,-0.0425 -0.2126,-0.0425 -0.1063,-0.0319 -0.1063,-0.0213 -0.2126,-0.0213 -0.1063,-0.0106 -0.1063,0 c -1.59448,0 -2.87007,1.25433 -2.87007,2.8063 0,1.53071 1.27559,2.8063 2.87007,2.8063 1.48819,0 2.76378,-1.27559 2.76378,-2.8063 z"
       id="path10958" />
    <path
       style="font-style:normal;font-variant:normal;font-weight:normal;font-stretch:normal;letter-spacing:normal;word-spacing:normal;text-anchor:start;fill:#000000;stroke:#000000;stroke-width:0;stroke-linecap:butt;stroke-linejoin:miter;stroke-miterlimit:10.43299961;stroke-opacity:1;stroke-dasharray:none;stroke-dashoffset:0"
       inkscape:connector-curvature="0"
       d="m 761.97036,719.25525 0,0.20197 0,0.2126 0,0.2126 0,0.22323 -0.1063,0.22322 0,0.22323 -0.1063,0.23386 0,0.23386 -0.1063,0.23386 -0.1063,0.23386 -0.1063,0.23385 -0.2126,0.23386 -0.1063,0.22323 -0.1063,0.23386 -0.21259,0.22323 -0.2126,0.22323 -0.2126,0.21259 -0.2126,0.20197 -0.2126,0.20197 -0.3189,0.20197 -0.21259,0.18071 -0.3189,0.18071 -0.3189,0.15945 -0.4252,0.15945 -0.31889,0.14881 -0.4252,0.12756 -0.3189,0.12756 -0.42519,0.1063 -0.3189,0.0425 -0.2126,0.0425 -0.2126,0.0425 -0.2126,0.0319 -0.3189,0.0319 -0.21259,0.0319 -0.2126,0.0213 -0.3189,0.0213 c -0.2126,0.0531 -0.4252,0.26575 -0.4252,0.58464 0,0.57402 0.5315,0.57402 0.9567,0.57402 5.20866,0 10.09842,-2.58307 10.20472,-6.60118 v -12.07559 c 0,-2.08347 0,-3.77362 2.12598,-5.51693 1.80709,-1.54134 3.82678,-1.64764 4.99607,-1.70079 0.2126,-0.0425 0.53149,-0.26574 0.53149,-0.57401 0,-0.5315 -0.42519,-0.5315 -0.85039,-0.58465 -3.50787,-0.2126 -6.05905,-2.12598 -6.69685,-4.71968 -0.1063,-0.57402 -0.1063,-0.68032 -0.1063,-2.58307 v -10.50237 c 0,-2.21102 0,-3.92244 -2.55118,-5.93149 -2.12598,-1.63701 -5.74016,-2.15788 -7.65354,-2.15788 -0.4252,0 -0.9567,0 -0.9567,0.58465 0,0.5315 0.3189,0.5315 0.8504,0.58465 3.29527,0.19133 5.84645,1.90275 6.59055,4.59212 0.1063,0.48898 0.1063,0.58465 0.1063,2.49803 v 11.12953 c 0,2.42362 0.42519,3.31654 2.12598,5.02795 1.16929,1.09488 2.65748,1.62638 4.14567,2.06221 -4.35827,1.21181 -6.27165,3.65669 -6.27165,6.72874 z"
       id="path10960" />
    <path
       inkscape:connector-curvature="0"
       id="path11180"
       d="m 296.98485,508.90011 0,149.50258"
       style="fill:none;stroke:#000000;stroke-width:1px;stroke-linecap:butt;stroke-linejoin:miter;stroke-opacity:1;marker-end:url(#marker8759)" />
    <path
       inkscape:connector-curvature="0"
       id="path11186"
       d="m 343.45187,510.92042 0,147.48227"
       style="stroke-linejoin:miter;marker-end:url(#marker8759e);stroke-opacity:1;stroke:#ff0000;stroke-linecap:butt;stroke-width:1px;fill:none" />
    <path
       inkscape:connector-curvature="0"
       id="path11188"
       d="m 393.95949,508.90011 50.50763,149.50258"
       style="fill:none;stroke:#000000;stroke-width:1px;stroke-linecap:butt;stroke-linejoin:miter;stroke-opacity:1;marker-end:url(#marker8759)" />
    <path
       inkscape:connector-curvature="0"
       id="path11190"
       d="M 444.46712,508.90011 640.43671,658.40269"
       style="fill:none;stroke:#000000;stroke-width:1px;stroke-linecap:butt;stroke-linejoin:miter;stroke-opacity:1;marker-end:url(#marker8759)" />
    <rect
       y="399.80365"
       x="-101.01526"
       height="347.49249"
       width="903.07642"
       id="rect11412"
       style="fill:none;stroke:none" />
  </g>
</svg>
