<?xml version="1.0" encoding="UTF-8" standalone="no"?>
<!-- Created with Inkscape (http://www.inkscape.org/) -->

<svg
   xmlns:dc="http://purl.org/dc/elements/1.1/"
   xmlns:cc="http://creativecommons.org/ns#"
   xmlns:rdf="http://www.w3.org/1999/02/22-rdf-syntax-ns#"
   xmlns:svg="http://www.w3.org/2000/svg"
   xmlns="http://www.w3.org/2000/svg"
   xmlns:sodipodi="http://sodipodi.sourceforge.net/DTD/sodipodi-0.dtd"
   xmlns:inkscape="http://www.inkscape.org/namespaces/inkscape"
   width="1052.3622"
   height="744.09448"
   id="svg2"
   version="1.1"
   inkscape:version="0.48.3.1 r9886"
   sodipodi:docname="monomorphism.svg"
   inkscape:export-filename="/home/nineties/projects/category-seminar/fig/monomorphism.png"
   inkscape:export-xdpi="90"
   inkscape:export-ydpi="90">
  <sodipodi:namedview
     id="base"
     pagecolor="#ffffff"
     bordercolor="#666666"
     borderopacity="1.0"
     inkscape:pageopacity="0.0"
     inkscape:pageshadow="2"
     inkscape:zoom="0.79425397"
     inkscape:cx="526.18109"
     inkscape:cy="372.04724"
     inkscape:document-units="px"
     inkscape:current-layer="layer1"
     showgrid="false"
     inkscape:window-width="1366"
     inkscape:window-height="746"
     inkscape:window-x="0"
     inkscape:window-y="22"
     inkscape:window-maximized="0" />
  <defs
     id="defs4">
    <marker
       inkscape:stockid="Arrow1Lstart"
       orient="auto"
       refY="0.0"
       refX="0.0"
       id="Arrow1Lstart"
       style="overflow:visible">
      <path
         id="path3930"
         d="M 0.0,0.0 L 5.0,-5.0 L -12.5,0.0 L 5.0,5.0 L 0.0,0.0 z "
         style="fill-rule:evenodd;stroke:#000000;stroke-width:1.0pt"
         transform="scale(0.8) translate(12.5,0)" />
    </marker>
    <marker
       inkscape:stockid="Arrow1Lend"
       orient="auto"
       refY="0.0"
       refX="0.0"
       id="Arrow1Lend"
       style="overflow:visible;">
      <path
         id="path3933"
         d="M 0.0,0.0 L 5.0,-5.0 L -12.5,0.0 L 5.0,5.0 L 0.0,0.0 z "
         style="fill-rule:evenodd;stroke:#000000;stroke-width:1.0pt;"
         transform="scale(0.8) rotate(180) translate(12.5,0)" />
    </marker>
    <marker
       style="overflow:visible"
       id="Arrow1Lend-9"
       refX="0"
       refY="0"
       orient="auto"
       inkscape:stockid="Arrow1Lend">
      <path
         inkscape:connector-curvature="0"
         transform="matrix(-0.8,0,0,-0.8,-10,0)"
         style="fill-rule:evenodd;stroke:#000000;stroke-width:1pt"
         d="M 0,0 5,-5 -12.5,0 5,5 0,0 z"
         id="path4042" />
    </marker>
    <marker
       style="overflow:visible"
       id="marker4807"
       refX="0"
       refY="0"
       orient="auto"
       inkscape:stockid="Arrow1Lend">
      <path
         inkscape:connector-curvature="0"
         transform="matrix(-0.8,0,0,-0.8,-10,0)"
         style="fill-rule:evenodd;stroke:#000000;stroke-width:1pt"
         d="M 0,0 5,-5 -12.5,0 5,5 0,0 z"
         id="path4809" />
    </marker>
    <marker
       style="overflow:visible"
       id="marker4811"
       refX="0"
       refY="0"
       orient="auto"
       inkscape:stockid="Arrow1Lend">
      <path
         inkscape:connector-curvature="0"
         transform="matrix(-0.8,0,0,-0.8,-10,0)"
         style="fill-rule:evenodd;stroke:#000000;stroke-width:1pt"
         d="M 0,0 5,-5 -12.5,0 5,5 0,0 z"
         id="path4813" />
    </marker>
    <marker
       style="overflow:visible"
       id="marker4815"
       refX="0"
       refY="0"
       orient="auto"
       inkscape:stockid="Arrow1Lend">
      <path
         inkscape:connector-curvature="0"
         transform="matrix(-0.8,0,0,-0.8,-10,0)"
         style="fill-rule:evenodd;stroke:#000000;stroke-width:1pt"
         d="M 0,0 5,-5 -12.5,0 5,5 0,0 z"
         id="path4817" />
    </marker>
    <marker
       style="overflow:visible"
       id="marker4819"
       refX="0"
       refY="0"
       orient="auto"
       inkscape:stockid="Arrow1Lend">
      <path
         inkscape:connector-curvature="0"
         transform="matrix(-0.8,0,0,-0.8,-10,0)"
         style="fill-rule:evenodd;stroke:#000000;stroke-width:1pt"
         d="M 0,0 5,-5 -12.5,0 5,5 0,0 z"
         id="path4821" />
    </marker>
    <marker
       style="overflow:visible"
       id="marker4823"
       refX="0"
       refY="0"
       orient="auto"
       inkscape:stockid="Arrow1Lend">
      <path
         inkscape:connector-curvature="0"
         transform="matrix(-0.8,0,0,-0.8,-10,0)"
         style="fill-rule:evenodd;stroke:#000000;stroke-width:1pt"
         d="M 0,0 5,-5 -12.5,0 5,5 0,0 z"
         id="path4825" />
    </marker>
    <marker
       inkscape:stockid="Arrow1LstartF"
       orient="auto"
       refY="0.0"
       refX="0.0"
       id="Arrow1LstartF"
       style="overflow:visible">
      <path
         id="path7450"
         d="M 0.0,0.0 L 5.0,-5.0 L -12.5,0.0 L 5.0,5.0 L 0.0,0.0 z "
         style="stroke:#0000ff;stroke-width:1.0pt;fill:#0000ff;fill-rule:evenodd"
         transform="scale(0.8) translate(12.5,0)" />
    </marker>
    <marker
       inkscape:stockid="Arrow1LstartU"
       orient="auto"
       refY="0.0"
       refX="0.0"
       id="Arrow1LstartU"
       style="overflow:visible">
      <path
         id="path7453"
         d="M 0.0,0.0 L 5.0,-5.0 L -12.5,0.0 L 5.0,5.0 L 0.0,0.0 z "
         style="stroke:#0000ff;stroke-width:1.0pt;fill:#0000ff;fill-rule:evenodd"
         transform="scale(0.8) translate(12.5,0)" />
    </marker>
    <marker
       inkscape:stockid="Arrow1LstartH"
       orient="auto"
       refY="0.0"
       refX="0.0"
       id="Arrow1LstartH"
       style="overflow:visible">
      <path
         id="path7456"
         d="M 0.0,0.0 L 5.0,-5.0 L -12.5,0.0 L 5.0,5.0 L 0.0,0.0 z "
         style="stroke:#0000ff;stroke-width:1.0pt;fill:#0000ff;fill-rule:evenodd"
         transform="scale(0.8) translate(12.5,0)" />
    </marker>
    <marker
       style="overflow:visible"
       id="marker4823B"
       refX="0"
       refY="0"
       orient="auto"
       inkscape:stockid="marker4823B">
      <path
         inkscape:connector-curvature="0"
         transform="matrix(-0.8,0,0,-0.8,-10,0)"
         style="stroke:#0000ff;stroke-width:1pt;fill:#0000ff;fill-rule:evenodd"
         d="M 0,0 5,-5 -12.5,0 5,5 0,0 z"
         id="path7459" />
    </marker>
    <marker
       style="overflow:visible"
       id="marker4823E"
       refX="0"
       refY="0"
       orient="auto"
       inkscape:stockid="marker4823E">
      <path
         inkscape:connector-curvature="0"
         transform="matrix(-0.8,0,0,-0.8,-10,0)"
         style="stroke:#0000ff;stroke-width:1pt;fill:#0000ff;fill-rule:evenodd"
         d="M 0,0 5,-5 -12.5,0 5,5 0,0 z"
         id="path7462" />
    </marker>
    <marker
       style="overflow:visible"
       id="marker4823n"
       refX="0"
       refY="0"
       orient="auto"
       inkscape:stockid="marker4823n">
      <path
         inkscape:connector-curvature="0"
         transform="matrix(-0.8,0,0,-0.8,-10,0)"
         style="stroke:#0000ff;stroke-width:1pt;fill:#0000ff;fill-rule:evenodd"
         d="M 0,0 5,-5 -12.5,0 5,5 0,0 z"
         id="path7465" />
    </marker>
    <marker
       style="overflow:visible"
       id="marker4823e"
       refX="0"
       refY="0"
       orient="auto"
       inkscape:stockid="marker4823e">
      <path
         inkscape:connector-curvature="0"
         transform="matrix(-0.8,0,0,-0.8,-10,0)"
         style="stroke:#0000ff;stroke-width:1pt;fill:#0000ff;fill-rule:evenodd"
         d="M 0,0 5,-5 -12.5,0 5,5 0,0 z"
         id="path7468" />
    </marker>
    <marker
       style="overflow:visible"
       id="marker4823l"
       refX="0"
       refY="0"
       orient="auto"
       inkscape:stockid="marker4823l">
      <path
         inkscape:connector-curvature="0"
         transform="matrix(-0.8,0,0,-0.8,-10,0)"
         style="stroke:#ff0000;stroke-width:1pt;fill:#ff0000;fill-rule:evenodd"
         d="M 0,0 5,-5 -12.5,0 5,5 0,0 z"
         id="path7657" />
    </marker>
    <marker
       style="overflow:visible"
       id="marker4823C"
       refX="0"
       refY="0"
       orient="auto"
       inkscape:stockid="marker4823C">
      <path
         inkscape:connector-curvature="0"
         transform="matrix(-0.8,0,0,-0.8,-10,0)"
         style="stroke:#ff0000;stroke-width:1pt;fill:#ff0000;fill-rule:evenodd"
         d="M 0,0 5,-5 -12.5,0 5,5 0,0 z"
         id="path7660" />
    </marker>
    <marker
       style="overflow:visible"
       id="marker4823n3"
       refX="0"
       refY="0"
       orient="auto"
       inkscape:stockid="marker4823n3">
      <path
         inkscape:connector-curvature="0"
         transform="matrix(-0.8,0,0,-0.8,-10,0)"
         style="stroke:#ff0000;stroke-width:1pt;fill:#ff0000;fill-rule:evenodd"
         d="M 0,0 5,-5 -12.5,0 5,5 0,0 z"
         id="path7663" />
    </marker>
    <marker
       style="overflow:visible"
       id="marker4823-2"
       refX="0"
       refY="0"
       orient="auto"
       inkscape:stockid="Arrow1Lend">
      <path
         inkscape:connector-curvature="0"
         transform="matrix(-0.8,0,0,-0.8,-10,0)"
         style="fill-rule:evenodd;stroke:#000000;stroke-width:1pt"
         d="M 0,0 5,-5 -12.5,0 5,5 0,0 z"
         id="path4825-1" />
    </marker>
    <marker
       style="overflow:visible"
       id="marker4823-2-2"
       refX="0"
       refY="0"
       orient="auto"
       inkscape:stockid="Arrow1Lend">
      <path
         inkscape:connector-curvature="0"
         transform="matrix(-0.8,0,0,-0.8,-10,0)"
         style="fill-rule:evenodd;stroke:#000000;stroke-width:1pt"
         d="M 0,0 5,-5 -12.5,0 5,5 0,0 z"
         id="path4825-1-0" />
    </marker>
    <marker
       style="overflow:visible"
       id="marker4823-2-9"
       refX="0"
       refY="0"
       orient="auto"
       inkscape:stockid="Arrow1Lend">
      <path
         inkscape:connector-curvature="0"
         transform="matrix(-0.8,0,0,-0.8,-10,0)"
         style="fill-rule:evenodd;stroke:#000000;stroke-width:1pt"
         d="M 0,0 5,-5 -12.5,0 5,5 0,0 z"
         id="path4825-1-5" />
    </marker>
    <marker
       style="overflow:visible"
       id="marker4823-2-9N"
       refX="0"
       refY="0"
       orient="auto"
       inkscape:stockid="marker4823-2-9N">
      <path
         inkscape:connector-curvature="0"
         transform="matrix(-0.8,0,0,-0.8,-10,0)"
         style="stroke:#ff0000;stroke-width:1pt;fill:#ff0000;fill-rule:evenodd"
         d="M 0,0 5,-5 -12.5,0 5,5 0,0 z"
         id="path9740" />
    </marker>
    <marker
       style="overflow:visible"
       id="marker4823-2-9P"
       refX="0"
       refY="0"
       orient="auto"
       inkscape:stockid="marker4823-2-9P">
      <path
         inkscape:connector-curvature="0"
         transform="matrix(-0.8,0,0,-0.8,-10,0)"
         style="stroke:#ff0000;stroke-width:1pt;fill:#ff0000;fill-rule:evenodd"
         d="M 0,0 5,-5 -12.5,0 5,5 0,0 z"
         id="path9743" />
    </marker>
    <marker
       style="overflow:visible"
       id="marker4823-2-9K"
       refX="0"
       refY="0"
       orient="auto"
       inkscape:stockid="marker4823-2-9K">
      <path
         inkscape:connector-curvature="0"
         transform="matrix(-0.8,0,0,-0.8,-10,0)"
         style="stroke:#ff0000;stroke-width:1pt;fill:#ff0000;fill-rule:evenodd"
         d="M 0,0 5,-5 -12.5,0 5,5 0,0 z"
         id="path9746" />
    </marker>
    <marker
       style="overflow:visible"
       id="marker4823-2R"
       refX="0"
       refY="0"
       orient="auto"
       inkscape:stockid="marker4823-2R">
      <path
         inkscape:connector-curvature="0"
         transform="matrix(-0.8,0,0,-0.8,-10,0)"
         style="stroke:#ff0000;stroke-width:1pt;fill:#ff0000;fill-rule:evenodd"
         d="M 0,0 5,-5 -12.5,0 5,5 0,0 z"
         id="path9749" />
    </marker>
    <marker
       style="overflow:visible"
       id="marker4823-2-9j"
       refX="0"
       refY="0"
       orient="auto"
       inkscape:stockid="marker4823-2-9j">
      <path
         inkscape:connector-curvature="0"
         transform="matrix(-0.8,0,0,-0.8,-10,0)"
         style="stroke:#ff0000;stroke-width:1pt;fill:#ff0000;fill-rule:evenodd"
         d="M 0,0 5,-5 -12.5,0 5,5 0,0 z"
         id="path9752" />
    </marker>
    <marker
       style="overflow:visible"
       id="marker4823-2S"
       refX="0"
       refY="0"
       orient="auto"
       inkscape:stockid="marker4823-2S">
      <path
         inkscape:connector-curvature="0"
         transform="matrix(-0.8,0,0,-0.8,-10,0)"
         style="stroke:#ff0000;stroke-width:1pt;fill:#ff0000;fill-rule:evenodd"
         d="M 0,0 5,-5 -12.5,0 5,5 0,0 z"
         id="path9755" />
    </marker>
    <marker
       style="overflow:visible"
       id="marker4823-2n"
       refX="0"
       refY="0"
       orient="auto"
       inkscape:stockid="marker4823-2n">
      <path
         inkscape:connector-curvature="0"
         transform="matrix(-0.8,0,0,-0.8,-10,0)"
         style="stroke:#ff0000;stroke-width:1pt;fill:#ff0000;fill-rule:evenodd"
         d="M 0,0 5,-5 -12.5,0 5,5 0,0 z"
         id="path9758" />
    </marker>
  </defs>
  <metadata
     id="metadata7">
    <rdf:RDF>
      <cc:Work
         rdf:about="">
        <dc:format>image/svg+xml</dc:format>
        <dc:type
           rdf:resource="http://purl.org/dc/dcmitype/StillImage" />
        <dc:title></dc:title>
      </cc:Work>
    </rdf:RDF>
  </metadata>
  <g
     transform="translate(0,-308.2677)"
     id="layer1"
     inkscape:groupmode="layer"
     inkscape:label="レイヤー 1">
    <g
       id="g12372"
       transform="translate(154.30868,423.72879)">
      <g
         id="content"
         transform="matrix(1.0629921,0,0,-1.0629921,-186.02362,789.27165)"
         xml:space="preserve"
         stroke-miterlimit="10.433"
         font-style="normal"
         font-variant="normal"
         font-weight="normal"
         font-stretch="normal"
         font-size-adjust="none"
         letter-spacing="normal"
         word-spacing="normal"
         style="font-style:normal;font-variant:normal;font-weight:normal;font-stretch:normal;letter-spacing:normal;word-spacing:normal;text-anchor:start;fill:none;stroke:#000000;stroke-linecap:butt;stroke-linejoin:miter;stroke-miterlimit:10.43299961;stroke-opacity:1;stroke-dasharray:none;stroke-dashoffset:0"><path
           d="m 464.44,411.93 -0.19,-0.3 -0.18,-0.29 -0.19,-0.28 -0.19,-0.26 -0.18,-0.25 -0.19,-0.23 -0.19,-0.22 -0.18,-0.21 -0.19,-0.2 -0.19,-0.18 -0.18,-0.17 -0.19,-0.16 -0.19,-0.15 -0.18,-0.14 -0.19,-0.13 -0.19,-0.12 -0.19,-0.11 -0.19,-0.1 -0.19,-0.09 -0.19,-0.09 -0.19,-0.07 -0.2,-0.07 -0.19,-0.07 -0.2,-0.05 -0.19,-0.05 -0.2,-0.04 -0.2,-0.04 -0.19,-0.03 -0.41,-0.05 -0.4,-0.03 c -0.61,-0.05 -1.05,-0.05 -1.05,-1 0,-0.3 0.25,-0.55 0.64,-0.55 1.34,0 2.89,0.16 4.28,0.16 1.64,0 3.39,-0.16 4.99,-0.16 0.29,0 0.95,0 0.95,0.95 0,0.55 -0.45,0.6 -0.8,0.6 -1.15,0.09 -2.34,0.5 -2.34,1.73 0,0.61 0.3,1.16 0.69,1.84 l 3.79,6.39 h 12.5 l -0.14,1.54 h -11.42 l 9.83,16.45 1.59,-16.45 0.14,-1.54 c 0.11,-1.04 0.8,-7.82 0.8,-8.32 0,-1.5 -2.59,-1.64 -3.58,-1.64 -0.7,0 -1.2,0 -1.2,-1 0,-0.55 0.59,-0.55 0.7,-0.55 2.03,0 4.19,0.16 6.22,0.16 1.25,0 4.39,-0.16 5.64,-0.16 0.3,0 0.89,0 0.89,1 0,0.55 -0.5,0.55 -1.14,0.55 -3.09,0 -3.09,0.34 -3.25,1.79 l -3.03,31.13 c -0.11,1 -0.11,1.2 -0.95,1.2 -0.8,0 -0.99,-0.34 -1.3,-0.84 z"
           id="path12375"
           inkscape:connector-curvature="0"
           style="fill:#000000;stroke-width:0" /></g>    </g>
    <g
       id="g12503"
       transform="translate(412.85714,422.85714)">
      <g
         word-spacing="normal"
         letter-spacing="normal"
         font-size-adjust="none"
         font-stretch="normal"
         font-weight="normal"
         font-variant="normal"
         font-style="normal"
         stroke-miterlimit="10.433"
         xml:space="preserve"
         transform="matrix(1.0629921,0,0,-1.0629921,-186.02362,789.27165)"
         id="g12505"
         style="font-style:normal;font-variant:normal;font-weight:normal;font-stretch:normal;letter-spacing:normal;word-spacing:normal;text-anchor:start;fill:none;stroke:#000000;stroke-linecap:butt;stroke-linejoin:miter;stroke-miterlimit:10.43299961;stroke-opacity:1;stroke-dasharray:none;stroke-dashoffset:0"><path
           id="path12507"
           d="m 463.49,410.09 -0.05,-0.18 -0.04,-0.17 -0.05,-0.16 -0.04,-0.15 -0.04,-0.15 -0.05,-0.13 -0.05,-0.13 -0.05,-0.12 -0.05,-0.11 -0.06,-0.11 -0.07,-0.1 -0.07,-0.09 -0.07,-0.09 -0.09,-0.07 -0.09,-0.08 -0.11,-0.06 -0.11,-0.07 -0.13,-0.05 -0.13,-0.05 -0.15,-0.05 -0.16,-0.04 -0.09,-0.02 -0.09,-0.01 -0.09,-0.02 -0.1,-0.02 -0.1,-0.01 -0.1,-0.01 -0.11,-0.01 -0.12,-0.02 -0.11,-0.01 -0.13,-0.01 -0.12,0 -0.13,-0.01 -0.14,-0.01 -0.14,0 -0.14,-0.01 -0.15,0 -0.16,-0.01 -0.16,0 -0.16,0 -0.17,0 -0.18,0 -0.18,0 c -0.85,0 -1.35,0 -1.35,-1 0,-0.55 0.46,-0.55 1.35,-0.55 h 17.78 c 7.87,0 13.75,5.87 13.75,10.76 0,3.58 -2.89,6.47 -7.72,7.02 5.19,0.95 10.42,4.64 10.42,9.38 0,3.68 -3.3,6.87 -9.28,6.87 l -0.69,-1.55 c 4.38,0 5.42,-2.93 5.42,-5.12 0,-4.39 -4.28,-9.13 -10.35,-9.13 h -7.27 l -0.3,-1.09 h 9.41 c 4.78,0 5.73,-3.69 5.73,-5.83 0,-4.94 -4.43,-9.76 -10.31,-9.76 h -6.78 c -0.69,0 -0.8,0 -1.09,0.04 -0.5,0.05 -0.64,0.1 -0.64,0.5 0,0.14 0,0.25 0.25,1.14 l 3.43,13.91 0.3,1.09 3.08,12.36 c 0.45,1.74 0.54,1.89 2.7,1.89 h 6.42 l 0.69,1.55 h -16.73 c -0.94,0 -1.44,0 -1.44,-1 0,-0.55 0.44,-0.55 1.39,-0.55 0.09,0 1.05,0 1.89,-0.09 0.89,-0.11 1.34,-0.16 1.34,-0.8 0,-0.2 -0.04,-0.36 -0.2,-0.95 z"
           inkscape:connector-curvature="0"
           style="fill:#000000;stroke-width:0" /></g>    </g>
    <g
       id="g12641"
       transform="translate(-108.57143,422.85714)">
      <g
         id="g12643"
         transform="matrix(1.0629921,0,0,-1.0629921,-186.02362,789.27165)"
         xml:space="preserve"
         stroke-miterlimit="10.433"
         font-style="normal"
         font-variant="normal"
         font-weight="normal"
         font-stretch="normal"
         font-size-adjust="none"
         letter-spacing="normal"
         word-spacing="normal"
         style="font-style:normal;font-variant:normal;font-weight:normal;font-stretch:normal;letter-spacing:normal;word-spacing:normal;text-anchor:start;fill:none;stroke:#000000;stroke-linecap:butt;stroke-linejoin:miter;stroke-miterlimit:10.43299961;stroke-opacity:1;stroke-dasharray:none;stroke-dashoffset:0"><path
           d="m 479.68,426.68 -4.18,9.91 c -0.15,0.41 -0.25,0.59 -0.25,0.64 0,0.31 0.85,1.25 2.94,1.45 0.5,0.05 1,0.1 1,0.96 0,0.59 -0.61,0.59 -0.75,0.59 -2.05,0 -4.19,-0.16 -6.28,-0.16 -1.25,0 -4.33,0.16 -5.58,0.16 -0.29,0 -0.9,0 -0.9,-1 0,-0.55 0.5,-0.55 1.15,-0.55 2.99,0 3.28,-0.5 3.74,-1.59 l 5.87,-13.91 -10.51,-11.31 -0.64,-0.55 c -2.44,-2.64 -4.79,-3.43 -7.33,-3.57 -0.64,-0.05 -1.1,-0.05 -1.1,-1 0,-0.05 0,-0.55 0.66,-0.55 1.48,0 3.12,0.16 4.67,0.16 1.85,0 3.8,-0.16 5.58,-0.16 0.31,0 0.91,0 0.91,1 0,0.5 -0.5,0.55 -0.6,0.55 -0.45,0.04 -2,0.14 -2,1.54 0,0.8 0.75,1.6 1.35,2.24 l 5.07,5.39 4.49,4.87 5.03,-11.9 c 0.2,-0.55 0.25,-0.6 0.25,-0.71 0,-0.39 -0.94,-1.23 -2.89,-1.43 -0.55,-0.05 -0.99,-0.11 -0.99,-0.96 0,-0.59 0.55,-0.59 0.74,-0.59 1.41,0 4.89,0.16 6.28,0.16 1.25,0 4.28,-0.16 5.53,-0.16 0.35,0 0.95,0 0.95,0.95 0,0.6 -0.5,0.6 -0.9,0.6 -3.33,0.04 -3.44,0.2 -4.28,2.18 -1.94,4.64 -5.28,12.41 -6.42,15.39 3.39,3.5 8.6,9.43 10.2,10.82 1.45,1.2 3.34,2.39 6.33,2.54 0.65,0.05 1.09,0.05 1.09,1 0,0.05 0,0.55 -0.64,0.55 -1.5,0 -3.14,-0.16 -4.69,-0.16 -1.84,0 -3.73,0.16 -5.53,0.16 -0.3,0 -0.94,0 -0.94,-1 0,-0.34 0.25,-0.5 0.6,-0.55 0.45,-0.04 2,-0.15 2,-1.54 0,-0.71 -0.55,-1.35 -0.96,-1.8 z"
           id="path12645"
           inkscape:connector-curvature="0"
           style="fill:#000000;stroke-width:0" /></g>    </g>
    <g
       id="g12785"
       transform="translate(29.900646,374.15935)">
      <g
         word-spacing="normal"
         letter-spacing="normal"
         font-size-adjust="none"
         font-stretch="normal"
         font-weight="normal"
         font-variant="normal"
         font-style="normal"
         stroke-miterlimit="10.433"
         xml:space="preserve"
         transform="matrix(1.0629921,0,0,-1.0629921,-186.02362,789.27165)"
         id="g12787"
         style="font-style:normal;font-variant:normal;font-weight:normal;font-stretch:normal;letter-spacing:normal;word-spacing:normal;text-anchor:start;fill:none;stroke:#000000;stroke-linecap:butt;stroke-linejoin:miter;stroke-miterlimit:10.43299961;stroke-opacity:1;stroke-dasharray:none;stroke-dashoffset:0"><path
           id="path12789"
           d="m 473.8,426.12 h 4.28 c 1,0 1.5,0 1.5,1 0,0.55 -0.5,0.55 -1.34,0.55 h -4.14 l 1.04,5.69 c 0.21,1.04 0.91,4.57 1.21,5.17 0.45,0.95 1.29,1.7 2.34,1.7 0.19,0 1.49,0 2.44,-0.91 -2.19,-0.18 -2.69,-1.93 -2.69,-2.68 0,-1.14 0.89,-1.74 1.85,-1.74 1.29,0 2.73,1.1 2.73,2.99 0,2.29 -2.3,3.43 -4.33,3.43 -1.7,0 -4.84,-0.89 -6.33,-5.82 -0.29,-1.05 -0.45,-1.55 -1.64,-7.83 h -3.43 c -0.96,0 -1.5,0 -1.5,-0.94 0,-0.61 0.45,-0.61 1.39,-0.61 h 3.29 l -3.75,-19.67 c -0.89,-4.83 -1.73,-9.38 -4.33,-9.38 -0.2,0 -1.43,0 -2.39,0.91 2.3,0.14 2.74,1.94 2.74,2.69 0,1.14 -0.89,1.75 -1.85,1.75 -1.29,0 -2.73,-1.1 -2.73,-3 0,-2.24 2.19,-3.44 4.23,-3.44 2.74,0 4.74,2.94 5.63,4.84 1.59,3.14 2.75,9.16 2.8,9.52 z"
           inkscape:connector-curvature="0"
           style="fill:#000000;stroke-width:0" /></g>    </g>
    <g
       id="g12935"
       transform="translate(32.972693,450.18569)">
      <g
         id="g12937"
         transform="matrix(1.0629921,0,0,-1.0629921,-186.02362,789.27165)"
         xml:space="preserve"
         stroke-miterlimit="10.433"
         font-style="normal"
         font-variant="normal"
         font-weight="normal"
         font-stretch="normal"
         font-size-adjust="none"
         letter-spacing="normal"
         word-spacing="normal"
         style="font-style:normal;font-variant:normal;font-weight:normal;font-stretch:normal;letter-spacing:normal;word-spacing:normal;text-anchor:start;fill:none;stroke:#000000;stroke-linecap:butt;stroke-linejoin:miter;stroke-miterlimit:10.43299961;stroke-opacity:1;stroke-dasharray:none;stroke-dashoffset:0"><path
           d="m 478.99,424.98 0.01,0.06 0.01,0.05 0.01,0.05 0.01,0.06 0.02,0.1 0.01,0.05 0.02,0.06 0.01,0.05 0.01,0.06 0.01,0.05 0,0.06 0.01,0.06 0,0.06 0.01,0.03 0,0.03 0,0.03 0,0.03 c 0,0.86 -0.59,1.36 -1.44,1.36 -0.5,0 -1.84,-0.36 -2.05,-2.16 -0.89,1.85 -2.64,3.14 -4.62,3.14 l 0.05,-1.09 c 3.28,0 3.98,-4.03 3.98,-4.28 0,-0.25 -0.09,-0.55 -0.16,-0.75 l -2.39,-9.52 c -0.29,-1.29 -1.43,-2.53 -2.53,-3.48 -1.04,-0.89 -2.59,-1.8 -4.04,-1.8 -2.49,0 -3.24,2.6 -3.24,4.58 0,2.41 1.45,8.28 2.8,10.81 1.34,2.46 3.48,4.44 5.58,4.44 l -0.05,1.09 c -5.69,0 -11.86,-6.96 -11.86,-14.14 0,-4.93 3.03,-7.87 6.63,-7.87 2.93,0 5.28,2.34 5.78,2.89 l 0.04,-0.05 c -1.04,-4.43 -1.64,-6.48 -1.64,-6.58 -0.2,-0.45 -1.89,-5.39 -7.17,-5.39 -0.95,0 -2.59,0.07 -4,0.5 1.5,0.46 2.05,1.75 2.05,2.6 0,0.79 -0.55,1.75 -1.89,1.75 -1.1,0 -2.69,-0.91 -2.69,-2.89 0,-2.05 1.84,-3.05 6.62,-3.05 6.22,0 9.82,3.89 10.57,6.88 z"
           id="path12939"
           inkscape:connector-curvature="0"
           style="fill:#000000;stroke-width:0" /></g>    </g>
    <g
       id="g13091"
       transform="translate(286.77896,390.35956)">
      <g
         word-spacing="normal"
         letter-spacing="normal"
         font-size-adjust="none"
         font-stretch="normal"
         font-weight="normal"
         font-variant="normal"
         font-style="normal"
         stroke-miterlimit="10.433"
         xml:space="preserve"
         transform="matrix(1.0629921,0,0,-1.0629921,-186.02362,789.27165)"
         id="g13093"
         style="font-style:normal;font-variant:normal;font-weight:normal;font-stretch:normal;letter-spacing:normal;word-spacing:normal;text-anchor:start;fill:none;stroke:#000000;stroke-linecap:butt;stroke-linejoin:miter;stroke-miterlimit:10.43299961;stroke-opacity:1;stroke-dasharray:none;stroke-dashoffset:0"><path
           id="path13095"
           d="m 459.91,409.14 -0.02,-0.07 -0.01,-0.08 -0.02,-0.07 -0.01,-0.08 -0.04,-0.16 -0.04,-0.16 -0.03,-0.16 -0.04,-0.16 -0.04,-0.16 -0.04,-0.16 -0.01,-0.08 -0.02,-0.07 -0.02,-0.07 -0.01,-0.07 -0.02,-0.07 -0.01,-0.07 -0.01,-0.06 -0.01,-0.06 -0.01,-0.06 -0.01,-0.05 -0.01,-0.05 -0.01,-0.04 -0.01,-0.04 0,-0.04 0,-0.03 0,-0.02 c 0,-0.89 0.7,-1.35 1.43,-1.35 0.61,0 1.5,0.39 1.85,1.39 0.06,0.11 0.65,2.44 0.95,3.69 l 1.1,4.48 c 0.29,1.1 0.59,2.19 0.84,3.35 0.2,0.84 0.61,2.28 0.66,2.48 0.75,1.55 3.39,6.08 8.1,6.08 2.25,0 2.71,-1.84 2.71,-3.48 0,-1.25 -0.36,-2.64 -0.75,-4.14 l -1.39,-5.79 -1,-3.78 c -0.21,-1 -0.66,-2.68 -0.66,-2.93 0,-0.89 0.7,-1.35 1.45,-1.35 1.55,0 1.85,1.25 2.24,2.85 0.7,2.78 2.55,10.06 3,12 0.14,0.65 2.78,6.62 8.22,6.62 2.14,0 2.68,-1.69 2.68,-3.48 0,-2.85 -2.09,-8.52 -3.09,-11.16 -0.45,-1.2 -0.64,-1.75 -0.64,-2.75 0,-2.33 1.73,-4.08 4.08,-4.08 4.69,0 6.53,7.27 6.53,7.67 0,0.5 -0.45,0.5 -0.59,0.5 -0.5,0 -0.5,-0.15 -0.75,-0.9 -0.75,-2.64 -2.35,-6.17 -5.08,-6.17 -0.86,0 -1.21,0.5 -1.21,1.64 0,1.25 0.46,2.45 0.9,3.54 0.95,2.58 3.04,8.11 3.04,10.96 0,3.23 -2,5.32 -5.73,5.32 -3.74,0 -6.27,-2.18 -8.11,-4.82 -0.06,0.65 -0.2,2.34 -1.61,3.53 -1.24,1.04 -2.83,1.29 -4.08,1.29 -4.48,0 -6.92,-3.18 -7.76,-4.32 -0.25,2.84 -2.35,4.32 -4.6,4.32 -2.28,0 -3.23,-1.93 -3.69,-2.82 -0.89,-1.75 -1.54,-4.69 -1.54,-4.85 0,-0.5 0.5,-0.5 0.61,-0.5 0.5,0 0.54,0.07 0.84,1.16 0.84,3.53 1.84,5.92 3.64,5.92 0.8,0 1.55,-0.39 1.55,-2.28 0,-1.05 -0.16,-1.61 -0.8,-4.19 z"
           inkscape:connector-curvature="0"
           style="fill:#000000;stroke-width:0" /></g>    </g>
    <path
       style="fill:none;stroke:#000000;stroke-width:1px;stroke-linecap:butt;stroke-linejoin:miter;stroke-opacity:1;marker-start:none;marker-end:url(#marker4823-2-9)"
       d="m 522.25138,455.52305 179.17719,0"
       id="path13174"
       inkscape:connector-curvature="0"
       transform="translate(0,308.2677)"
       sodipodi:nodetypes="cc" />
    <path
       style="fill:none;stroke:#000000;stroke-width:1px;stroke-linecap:butt;stroke-linejoin:miter;stroke-opacity:1;marker-end:url(#marker4823-2-9)"
       d="m 249.29054,448.21935 195.15168,0"
       id="path13884"
       inkscape:connector-curvature="0"
       transform="translate(0,308.2677)" />
    <path
       style="fill:none;stroke:#000000;stroke-width:1px;stroke-linecap:butt;stroke-linejoin:miter;stroke-opacity:1;marker-end:url(#marker4823-2-9)"
       d="m 249.29054,769.07748 195.15168,0"
       id="path13884-4"
       inkscape:connector-curvature="0" />
    <rect
       style="fill:none;stroke:none"
       id="rect14376"
       width="570.34656"
       height="144.78993"
       x="185.07935"
       y="376.45389"
       transform="translate(0,308.2677)" />
  </g>
</svg>
