<?xml version="1.0" encoding="UTF-8" standalone="no"?>
<!-- Created with Inkscape (http://www.inkscape.org/) -->

<svg
   xmlns:dc="http://purl.org/dc/elements/1.1/"
   xmlns:cc="http://creativecommons.org/ns#"
   xmlns:rdf="http://www.w3.org/1999/02/22-rdf-syntax-ns#"
   xmlns:svg="http://www.w3.org/2000/svg"
   xmlns="http://www.w3.org/2000/svg"
   xmlns:sodipodi="http://sodipodi.sourceforge.net/DTD/sodipodi-0.dtd"
   xmlns:inkscape="http://www.inkscape.org/namespaces/inkscape"
   width="1052.3622"
   height="744.09448"
   id="svg2"
   version="1.1"
   inkscape:version="0.48.3.1 r9886"
   sodipodi:docname="section_retraction_in_sets4.svg"
   inkscape:export-filename="/home/nineties/projects/category-seminar/fig/section_retraction_in_sets4.png"
   inkscape:export-xdpi="90"
   inkscape:export-ydpi="90">
  <sodipodi:namedview
     id="base"
     pagecolor="#ffffff"
     bordercolor="#666666"
     borderopacity="1.0"
     inkscape:pageopacity="0.0"
     inkscape:pageshadow="2"
     inkscape:zoom="0.7"
     inkscape:cx="504.59407"
     inkscape:cy="360.02773"
     inkscape:document-units="px"
     inkscape:current-layer="layer1"
     showgrid="false"
     inkscape:window-width="1366"
     inkscape:window-height="746"
     inkscape:window-x="0"
     inkscape:window-y="22"
     inkscape:window-maximized="0" />
  <defs
     id="defs4">
    <marker
       style="overflow:visible"
       id="Arrow1Lstart"
       refX="0.0"
       refY="0.0"
       orient="auto"
       inkscape:stockid="Arrow1Lstart">
      <path
         transform="scale(0.8) translate(12.5,0)"
         style="fill-rule:evenodd;stroke:#000000;stroke-width:1.0pt"
         d="M 0.0,0.0 L 5.0,-5.0 L -12.5,0.0 L 5.0,5.0 L 0.0,0.0 z "
         id="path3930" />
    </marker>
    <marker
       style="overflow:visible;"
       id="Arrow1Lend"
       refX="0.0"
       refY="0.0"
       orient="auto"
       inkscape:stockid="Arrow1Lend">
      <path
         transform="scale(0.8) rotate(180) translate(12.5,0)"
         style="fill-rule:evenodd;stroke:#000000;stroke-width:1.0pt;"
         d="M 0.0,0.0 L 5.0,-5.0 L -12.5,0.0 L 5.0,5.0 L 0.0,0.0 z "
         id="path3933" />
    </marker>
    <marker
       inkscape:stockid="Arrow1Lend"
       orient="auto"
       refY="0"
       refX="0"
       id="Arrow1Lend-9"
       style="overflow:visible">
      <path
         id="path4042"
         d="M 0,0 5,-5 -12.5,0 5,5 0,0 z"
         style="fill-rule:evenodd;stroke:#000000;stroke-width:1pt"
         transform="matrix(-0.8,0,0,-0.8,-10,0)"
         inkscape:connector-curvature="0" />
    </marker>
    <marker
       inkscape:stockid="Arrow1Lend"
       orient="auto"
       refY="0"
       refX="0"
       id="marker4807"
       style="overflow:visible">
      <path
         id="path4809"
         d="M 0,0 5,-5 -12.5,0 5,5 0,0 z"
         style="fill-rule:evenodd;stroke:#000000;stroke-width:1pt"
         transform="matrix(-0.8,0,0,-0.8,-10,0)"
         inkscape:connector-curvature="0" />
    </marker>
    <marker
       inkscape:stockid="Arrow1Lend"
       orient="auto"
       refY="0"
       refX="0"
       id="marker4811"
       style="overflow:visible">
      <path
         id="path4813"
         d="M 0,0 5,-5 -12.5,0 5,5 0,0 z"
         style="fill-rule:evenodd;stroke:#000000;stroke-width:1pt"
         transform="matrix(-0.8,0,0,-0.8,-10,0)"
         inkscape:connector-curvature="0" />
    </marker>
    <marker
       inkscape:stockid="Arrow1Lend"
       orient="auto"
       refY="0"
       refX="0"
       id="marker4815"
       style="overflow:visible">
      <path
         id="path4817"
         d="M 0,0 5,-5 -12.5,0 5,5 0,0 z"
         style="fill-rule:evenodd;stroke:#000000;stroke-width:1pt"
         transform="matrix(-0.8,0,0,-0.8,-10,0)"
         inkscape:connector-curvature="0" />
    </marker>
    <marker
       inkscape:stockid="Arrow1Lend"
       orient="auto"
       refY="0"
       refX="0"
       id="marker4819"
       style="overflow:visible">
      <path
         id="path4821"
         d="M 0,0 5,-5 -12.5,0 5,5 0,0 z"
         style="fill-rule:evenodd;stroke:#000000;stroke-width:1pt"
         transform="matrix(-0.8,0,0,-0.8,-10,0)"
         inkscape:connector-curvature="0" />
    </marker>
    <marker
       inkscape:stockid="Arrow1Lend"
       orient="auto"
       refY="0"
       refX="0"
       id="marker4823"
       style="overflow:visible">
      <path
         id="path4825"
         d="M 0,0 5,-5 -12.5,0 5,5 0,0 z"
         style="fill-rule:evenodd;stroke:#000000;stroke-width:1pt"
         transform="matrix(-0.8,0,0,-0.8,-10,0)"
         inkscape:connector-curvature="0" />
    </marker>
    <marker
       style="overflow:visible"
       id="Arrow1LstartF"
       refX="0.0"
       refY="0.0"
       orient="auto"
       inkscape:stockid="Arrow1LstartF">
      <path
         transform="scale(0.8) translate(12.5,0)"
         style="stroke:#0000ff;stroke-width:1.0pt;fill:#0000ff;fill-rule:evenodd"
         d="M 0.0,0.0 L 5.0,-5.0 L -12.5,0.0 L 5.0,5.0 L 0.0,0.0 z "
         id="path7450" />
    </marker>
    <marker
       style="overflow:visible"
       id="Arrow1LstartU"
       refX="0.0"
       refY="0.0"
       orient="auto"
       inkscape:stockid="Arrow1LstartU">
      <path
         transform="scale(0.8) translate(12.5,0)"
         style="stroke:#0000ff;stroke-width:1.0pt;fill:#0000ff;fill-rule:evenodd"
         d="M 0.0,0.0 L 5.0,-5.0 L -12.5,0.0 L 5.0,5.0 L 0.0,0.0 z "
         id="path7453" />
    </marker>
    <marker
       style="overflow:visible"
       id="Arrow1LstartH"
       refX="0.0"
       refY="0.0"
       orient="auto"
       inkscape:stockid="Arrow1LstartH">
      <path
         transform="scale(0.8) translate(12.5,0)"
         style="stroke:#0000ff;stroke-width:1.0pt;fill:#0000ff;fill-rule:evenodd"
         d="M 0.0,0.0 L 5.0,-5.0 L -12.5,0.0 L 5.0,5.0 L 0.0,0.0 z "
         id="path7456" />
    </marker>
    <marker
       inkscape:stockid="marker4823B"
       orient="auto"
       refY="0"
       refX="0"
       id="marker4823B"
       style="overflow:visible">
      <path
         id="path7459"
         d="M 0,0 5,-5 -12.5,0 5,5 0,0 z"
         style="stroke:#0000ff;stroke-width:1pt;fill:#0000ff;fill-rule:evenodd"
         transform="matrix(-0.8,0,0,-0.8,-10,0)"
         inkscape:connector-curvature="0" />
    </marker>
    <marker
       inkscape:stockid="marker4823E"
       orient="auto"
       refY="0"
       refX="0"
       id="marker4823E"
       style="overflow:visible">
      <path
         id="path7462"
         d="M 0,0 5,-5 -12.5,0 5,5 0,0 z"
         style="stroke:#0000ff;stroke-width:1pt;fill:#0000ff;fill-rule:evenodd"
         transform="matrix(-0.8,0,0,-0.8,-10,0)"
         inkscape:connector-curvature="0" />
    </marker>
    <marker
       inkscape:stockid="marker4823n"
       orient="auto"
       refY="0"
       refX="0"
       id="marker4823n"
       style="overflow:visible">
      <path
         id="path7465"
         d="M 0,0 5,-5 -12.5,0 5,5 0,0 z"
         style="stroke:#0000ff;stroke-width:1pt;fill:#0000ff;fill-rule:evenodd"
         transform="matrix(-0.8,0,0,-0.8,-10,0)"
         inkscape:connector-curvature="0" />
    </marker>
    <marker
       inkscape:stockid="marker4823e"
       orient="auto"
       refY="0"
       refX="0"
       id="marker4823e"
       style="overflow:visible">
      <path
         id="path7468"
         d="M 0,0 5,-5 -12.5,0 5,5 0,0 z"
         style="stroke:#0000ff;stroke-width:1pt;fill:#0000ff;fill-rule:evenodd"
         transform="matrix(-0.8,0,0,-0.8,-10,0)"
         inkscape:connector-curvature="0" />
    </marker>
    <marker
       inkscape:stockid="marker4823l"
       orient="auto"
       refY="0"
       refX="0"
       id="marker4823l"
       style="overflow:visible">
      <path
         id="path7657"
         d="M 0,0 5,-5 -12.5,0 5,5 0,0 z"
         style="stroke:#ff0000;stroke-width:1pt;fill:#ff0000;fill-rule:evenodd"
         transform="matrix(-0.8,0,0,-0.8,-10,0)"
         inkscape:connector-curvature="0" />
    </marker>
    <marker
       inkscape:stockid="marker4823C"
       orient="auto"
       refY="0"
       refX="0"
       id="marker4823C"
       style="overflow:visible">
      <path
         id="path7660"
         d="M 0,0 5,-5 -12.5,0 5,5 0,0 z"
         style="stroke:#ff0000;stroke-width:1pt;fill:#ff0000;fill-rule:evenodd"
         transform="matrix(-0.8,0,0,-0.8,-10,0)"
         inkscape:connector-curvature="0" />
    </marker>
    <marker
       inkscape:stockid="marker4823n3"
       orient="auto"
       refY="0"
       refX="0"
       id="marker4823n3"
       style="overflow:visible">
      <path
         id="path7663"
         d="M 0,0 5,-5 -12.5,0 5,5 0,0 z"
         style="stroke:#ff0000;stroke-width:1pt;fill:#ff0000;fill-rule:evenodd"
         transform="matrix(-0.8,0,0,-0.8,-10,0)"
         inkscape:connector-curvature="0" />
    </marker>
    <marker
       inkscape:stockid="Arrow1Lend"
       orient="auto"
       refY="0"
       refX="0"
       id="marker4823-2"
       style="overflow:visible">
      <path
         id="path4825-1"
         d="M 0,0 5,-5 -12.5,0 5,5 0,0 z"
         style="fill-rule:evenodd;stroke:#000000;stroke-width:1pt"
         transform="matrix(-0.8,0,0,-0.8,-10,0)"
         inkscape:connector-curvature="0" />
    </marker>
    <marker
       inkscape:stockid="Arrow1Lend"
       orient="auto"
       refY="0"
       refX="0"
       id="marker4823-2-2"
       style="overflow:visible">
      <path
         id="path4825-1-0"
         d="M 0,0 5,-5 -12.5,0 5,5 0,0 z"
         style="fill-rule:evenodd;stroke:#000000;stroke-width:1pt"
         transform="matrix(-0.8,0,0,-0.8,-10,0)"
         inkscape:connector-curvature="0" />
    </marker>
    <marker
       inkscape:stockid="Arrow1Lend"
       orient="auto"
       refY="0"
       refX="0"
       id="marker4823-2-9"
       style="overflow:visible">
      <path
         id="path4825-1-5"
         d="M 0,0 5,-5 -12.5,0 5,5 0,0 z"
         style="fill-rule:evenodd;stroke:#000000;stroke-width:1pt"
         transform="matrix(-0.8,0,0,-0.8,-10,0)"
         inkscape:connector-curvature="0" />
    </marker>
    <marker
       inkscape:stockid="marker4823-2-9N"
       orient="auto"
       refY="0"
       refX="0"
       id="marker4823-2-9N"
       style="overflow:visible">
      <path
         id="path9740"
         d="M 0,0 5,-5 -12.5,0 5,5 0,0 z"
         style="stroke:#ff0000;stroke-width:1pt;fill:#ff0000;fill-rule:evenodd"
         transform="matrix(-0.8,0,0,-0.8,-10,0)"
         inkscape:connector-curvature="0" />
    </marker>
    <marker
       inkscape:stockid="marker4823-2-9P"
       orient="auto"
       refY="0"
       refX="0"
       id="marker4823-2-9P"
       style="overflow:visible">
      <path
         id="path9743"
         d="M 0,0 5,-5 -12.5,0 5,5 0,0 z"
         style="stroke:#ff0000;stroke-width:1pt;fill:#ff0000;fill-rule:evenodd"
         transform="matrix(-0.8,0,0,-0.8,-10,0)"
         inkscape:connector-curvature="0" />
    </marker>
    <marker
       inkscape:stockid="marker4823-2-9K"
       orient="auto"
       refY="0"
       refX="0"
       id="marker4823-2-9K"
       style="overflow:visible">
      <path
         id="path9746"
         d="M 0,0 5,-5 -12.5,0 5,5 0,0 z"
         style="stroke:#ff0000;stroke-width:1pt;fill:#ff0000;fill-rule:evenodd"
         transform="matrix(-0.8,0,0,-0.8,-10,0)"
         inkscape:connector-curvature="0" />
    </marker>
    <marker
       inkscape:stockid="marker4823-2R"
       orient="auto"
       refY="0"
       refX="0"
       id="marker4823-2R"
       style="overflow:visible">
      <path
         id="path9749"
         d="M 0,0 5,-5 -12.5,0 5,5 0,0 z"
         style="stroke:#ff0000;stroke-width:1pt;fill:#ff0000;fill-rule:evenodd"
         transform="matrix(-0.8,0,0,-0.8,-10,0)"
         inkscape:connector-curvature="0" />
    </marker>
    <marker
       inkscape:stockid="marker4823-2-9j"
       orient="auto"
       refY="0"
       refX="0"
       id="marker4823-2-9j"
       style="overflow:visible">
      <path
         id="path9752"
         d="M 0,0 5,-5 -12.5,0 5,5 0,0 z"
         style="stroke:#ff0000;stroke-width:1pt;fill:#ff0000;fill-rule:evenodd"
         transform="matrix(-0.8,0,0,-0.8,-10,0)"
         inkscape:connector-curvature="0" />
    </marker>
    <marker
       inkscape:stockid="marker4823-2S"
       orient="auto"
       refY="0"
       refX="0"
       id="marker4823-2S"
       style="overflow:visible">
      <path
         id="path9755"
         d="M 0,0 5,-5 -12.5,0 5,5 0,0 z"
         style="stroke:#ff0000;stroke-width:1pt;fill:#ff0000;fill-rule:evenodd"
         transform="matrix(-0.8,0,0,-0.8,-10,0)"
         inkscape:connector-curvature="0" />
    </marker>
    <marker
       inkscape:stockid="marker4823-2n"
       orient="auto"
       refY="0"
       refX="0"
       id="marker4823-2n"
       style="overflow:visible">
      <path
         id="path9758"
         d="M 0,0 5,-5 -12.5,0 5,5 0,0 z"
         style="stroke:#ff0000;stroke-width:1pt;fill:#ff0000;fill-rule:evenodd"
         transform="matrix(-0.8,0,0,-0.8,-10,0)"
         inkscape:connector-curvature="0" />
    </marker>
  </defs>
  <metadata
     id="metadata7">
    <rdf:RDF>
      <cc:Work
         rdf:about="">
        <dc:format>image/svg+xml</dc:format>
        <dc:type
           rdf:resource="http://purl.org/dc/dcmitype/StillImage" />
        <dc:title></dc:title>
      </cc:Work>
    </rdf:RDF>
  </metadata>
  <g
     inkscape:label="レイヤー 1"
     inkscape:groupmode="layer"
     id="layer1"
     transform="translate(0,-308.2677)">
    <g
       id="g9975"
       transform="translate(299.3087,475.15736)">
      <g
         word-spacing="normal"
         letter-spacing="normal"
         font-size-adjust="none"
         font-stretch="normal"
         font-weight="normal"
         font-variant="normal"
         font-style="normal"
         stroke-miterlimit="10.433"
         xml:space="preserve"
         transform="matrix(1.0629921,0,0,-1.0629921,-186.02362,789.27165)"
         id="content"
         style="font-style:normal;font-variant:normal;font-weight:normal;font-stretch:normal;letter-spacing:normal;word-spacing:normal;text-anchor:start;fill:none;stroke:#000000;stroke-linecap:butt;stroke-linejoin:miter;stroke-miterlimit:10.43299961;stroke-opacity:1;stroke-dasharray:none;stroke-dashoffset:0"><path
           id="path9978"
           d="m 464.44,411.93 -0.19,-0.3 -0.18,-0.29 -0.19,-0.28 -0.19,-0.26 -0.18,-0.25 -0.19,-0.23 -0.19,-0.22 -0.18,-0.21 -0.19,-0.2 -0.19,-0.18 -0.18,-0.17 -0.19,-0.16 -0.19,-0.15 -0.18,-0.14 -0.19,-0.13 -0.19,-0.12 -0.19,-0.11 -0.19,-0.1 -0.19,-0.09 -0.19,-0.09 -0.19,-0.07 -0.2,-0.07 -0.19,-0.07 -0.2,-0.05 -0.19,-0.05 -0.2,-0.04 -0.2,-0.04 -0.19,-0.03 -0.41,-0.05 -0.4,-0.03 c -0.61,-0.05 -1.05,-0.05 -1.05,-1 0,-0.3 0.25,-0.55 0.64,-0.55 1.34,0 2.89,0.16 4.28,0.16 1.64,0 3.39,-0.16 4.99,-0.16 0.29,0 0.95,0 0.95,0.95 0,0.55 -0.45,0.6 -0.8,0.6 -1.15,0.09 -2.34,0.5 -2.34,1.73 0,0.61 0.3,1.16 0.69,1.84 l 3.79,6.39 h 12.5 l -0.14,1.54 h -11.42 l 9.83,16.45 1.59,-16.45 0.14,-1.54 c 0.11,-1.04 0.8,-7.82 0.8,-8.32 0,-1.5 -2.59,-1.64 -3.58,-1.64 -0.7,0 -1.2,0 -1.2,-1 0,-0.55 0.59,-0.55 0.7,-0.55 2.03,0 4.19,0.16 6.22,0.16 1.25,0 4.39,-0.16 5.64,-0.16 0.3,0 0.89,0 0.89,1 0,0.55 -0.5,0.55 -1.14,0.55 -3.09,0 -3.09,0.34 -3.25,1.79 l -3.03,31.13 c -0.11,1 -0.11,1.2 -0.95,1.2 -0.8,0 -0.99,-0.34 -1.3,-0.84 z"
           inkscape:connector-curvature="0"
           style="fill:#000000;stroke-width:0" /></g>    </g>
    <g
       id="g10106"
       transform="translate(108.0111,304.28572)">
      <g
         id="g10108"
         transform="matrix(1.0629921,0,0,-1.0629921,-186.02362,789.27165)"
         xml:space="preserve"
         stroke-miterlimit="10.433"
         font-style="normal"
         font-variant="normal"
         font-weight="normal"
         font-stretch="normal"
         font-size-adjust="none"
         letter-spacing="normal"
         word-spacing="normal"
         style="font-style:normal;font-variant:normal;font-weight:normal;font-stretch:normal;letter-spacing:normal;word-spacing:normal;text-anchor:start;fill:none;stroke:#000000;stroke-linecap:butt;stroke-linejoin:miter;stroke-miterlimit:10.43299961;stroke-opacity:1;stroke-dasharray:none;stroke-dashoffset:0"><path
           d="m 463.49,410.09 -0.05,-0.18 -0.04,-0.17 -0.05,-0.16 -0.04,-0.15 -0.04,-0.15 -0.05,-0.13 -0.05,-0.13 -0.05,-0.12 -0.05,-0.11 -0.06,-0.11 -0.07,-0.1 -0.07,-0.09 -0.07,-0.09 -0.09,-0.07 -0.09,-0.08 -0.11,-0.06 -0.11,-0.07 -0.13,-0.05 -0.13,-0.05 -0.15,-0.05 -0.16,-0.04 -0.09,-0.02 -0.09,-0.01 -0.09,-0.02 -0.1,-0.02 -0.1,-0.01 -0.1,-0.01 -0.11,-0.01 -0.12,-0.02 -0.11,-0.01 -0.13,-0.01 -0.12,0 -0.13,-0.01 -0.14,-0.01 -0.14,0 -0.14,-0.01 -0.15,0 -0.16,-0.01 -0.16,0 -0.16,0 -0.17,0 -0.18,0 -0.18,0 c -0.85,0 -1.35,0 -1.35,-1 0,-0.55 0.46,-0.55 1.35,-0.55 h 17.78 c 7.87,0 13.75,5.87 13.75,10.76 0,3.58 -2.89,6.47 -7.72,7.02 5.19,0.95 10.42,4.64 10.42,9.38 0,3.68 -3.3,6.87 -9.28,6.87 l -0.69,-1.55 c 4.38,0 5.42,-2.93 5.42,-5.12 0,-4.39 -4.28,-9.13 -10.35,-9.13 h -7.27 l -0.3,-1.09 h 9.41 c 4.78,0 5.73,-3.69 5.73,-5.83 0,-4.94 -4.43,-9.76 -10.31,-9.76 h -6.78 c -0.69,0 -0.8,0 -1.09,0.04 -0.5,0.05 -0.64,0.1 -0.64,0.5 0,0.14 0,0.25 0.25,1.14 l 3.43,13.91 0.3,1.09 3.08,12.36 c 0.45,1.74 0.54,1.89 2.7,1.89 h 6.42 l 0.69,1.55 h -16.73 c -0.94,0 -1.44,0 -1.44,-1 0,-0.55 0.44,-0.55 1.39,-0.55 0.09,0 1.05,0 1.89,-0.09 0.89,-0.11 1.34,-0.16 1.34,-0.8 0,-0.2 -0.04,-0.36 -0.2,-0.95 z"
           id="path10110"
           inkscape:connector-curvature="0"
           style="fill:#000000;stroke-width:0" /></g>    </g>
    <g
       id="g10244"
       transform="translate(-84.285714,474.28571)">
      <g
         word-spacing="normal"
         letter-spacing="normal"
         font-size-adjust="none"
         font-stretch="normal"
         font-weight="normal"
         font-variant="normal"
         font-style="normal"
         stroke-miterlimit="10.433"
         xml:space="preserve"
         transform="matrix(1.0629921,0,0,-1.0629921,-186.02362,789.27165)"
         id="g10246"
         style="font-style:normal;font-variant:normal;font-weight:normal;font-stretch:normal;letter-spacing:normal;word-spacing:normal;text-anchor:start;fill:none;stroke:#000000;stroke-linecap:butt;stroke-linejoin:miter;stroke-miterlimit:10.43299961;stroke-opacity:1;stroke-dasharray:none;stroke-dashoffset:0"><path
           id="path10248"
           d="m 479.68,426.68 -4.18,9.91 c -0.15,0.41 -0.25,0.59 -0.25,0.64 0,0.31 0.85,1.25 2.94,1.45 0.5,0.05 1,0.1 1,0.96 0,0.59 -0.61,0.59 -0.75,0.59 -2.05,0 -4.19,-0.16 -6.28,-0.16 -1.25,0 -4.33,0.16 -5.58,0.16 -0.29,0 -0.9,0 -0.9,-1 0,-0.55 0.5,-0.55 1.15,-0.55 2.99,0 3.28,-0.5 3.74,-1.59 l 5.87,-13.91 -10.51,-11.31 -0.64,-0.55 c -2.44,-2.64 -4.79,-3.43 -7.33,-3.57 -0.64,-0.05 -1.1,-0.05 -1.1,-1 0,-0.05 0,-0.55 0.66,-0.55 1.48,0 3.12,0.16 4.67,0.16 1.85,0 3.8,-0.16 5.58,-0.16 0.31,0 0.91,0 0.91,1 0,0.5 -0.5,0.55 -0.6,0.55 -0.45,0.04 -2,0.14 -2,1.54 0,0.8 0.75,1.6 1.35,2.24 l 5.07,5.39 4.49,4.87 5.03,-11.9 c 0.2,-0.55 0.25,-0.6 0.25,-0.71 0,-0.39 -0.94,-1.23 -2.89,-1.43 -0.55,-0.05 -0.99,-0.11 -0.99,-0.96 0,-0.59 0.55,-0.59 0.74,-0.59 1.41,0 4.89,0.16 6.28,0.16 1.25,0 4.28,-0.16 5.53,-0.16 0.35,0 0.95,0 0.95,0.95 0,0.6 -0.5,0.6 -0.9,0.6 -3.33,0.04 -3.44,0.2 -4.28,2.18 -1.94,4.64 -5.28,12.41 -6.42,15.39 3.39,3.5 8.6,9.43 10.2,10.82 1.45,1.2 3.34,2.39 6.33,2.54 0.65,0.05 1.09,0.05 1.09,1 0,0.05 0,0.55 -0.64,0.55 -1.5,0 -3.14,-0.16 -4.69,-0.16 -1.84,0 -3.73,0.16 -5.53,0.16 -0.3,0 -0.94,0 -0.94,-1 0,-0.34 0.25,-0.5 0.6,-0.55 0.45,-0.04 2,-0.15 2,-1.54 0,-0.71 -0.55,-1.35 -0.96,-1.8 z"
           inkscape:connector-curvature="0"
           style="fill:#000000;stroke-width:0" /></g>    </g>
    <g
       id="g10388"
       transform="translate(232.85714,341.42858)">
      <g
         id="g10390"
         transform="matrix(1.0629921,0,0,-1.0629921,-186.02362,789.27165)"
         xml:space="preserve"
         stroke-miterlimit="10.433"
         font-style="normal"
         font-variant="normal"
         font-weight="normal"
         font-stretch="normal"
         font-size-adjust="none"
         letter-spacing="normal"
         word-spacing="normal"
         style="font-style:normal;font-variant:normal;font-weight:normal;font-stretch:normal;letter-spacing:normal;word-spacing:normal;text-anchor:start;fill:none;stroke:#000000;stroke-linecap:butt;stroke-linejoin:miter;stroke-miterlimit:10.43299961;stroke-opacity:1;stroke-dasharray:none;stroke-dashoffset:0"><path
           d="m 459.91,409.14 -0.02,-0.07 -0.01,-0.08 -0.02,-0.07 -0.01,-0.08 -0.04,-0.16 -0.04,-0.16 -0.03,-0.16 -0.04,-0.16 -0.04,-0.16 -0.04,-0.16 -0.01,-0.08 -0.02,-0.07 -0.02,-0.07 -0.01,-0.07 -0.02,-0.07 -0.01,-0.07 -0.01,-0.06 -0.01,-0.06 -0.01,-0.06 -0.01,-0.05 -0.01,-0.05 -0.01,-0.04 -0.01,-0.04 0,-0.04 0,-0.03 0,-0.02 c 0,-0.89 0.7,-1.35 1.43,-1.35 0.61,0 1.5,0.39 1.85,1.39 0.11,0.21 1.8,6.99 2,7.88 0.39,1.64 1.3,5.12 1.59,6.48 0.21,0.64 1.6,2.99 2.78,4.08 0.41,0.34 1.85,1.64 4,1.64 1.28,0 2.03,-0.59 2.08,-0.59 -1.48,-0.25 -2.58,-1.46 -2.58,-2.74 0,-0.79 0.55,-1.75 1.89,-1.75 1.35,0 2.74,1.14 2.74,2.94 0,1.75 -1.6,3.23 -4.13,3.23 -3.25,0 -5.43,-2.43 -6.39,-3.82 -0.39,2.23 -2.18,3.82 -4.53,3.82 -2.28,0 -3.23,-1.93 -3.69,-2.82 -0.89,-1.71 -1.54,-4.69 -1.54,-4.85 0,-0.5 0.5,-0.5 0.61,-0.5 0.5,0 0.54,0.07 0.84,1.16 0.84,3.53 1.84,5.92 3.64,5.92 0.84,0 1.55,-0.39 1.55,-2.28 0,-1.05 -0.16,-1.61 -0.8,-4.19 z"
           id="path10392"
           inkscape:connector-curvature="0"
           style="fill:#000000;stroke-width:0" /></g>    </g>
    <path
       style="fill:none;stroke:#000000;stroke-width:1px;stroke-linecap:butt;stroke-linejoin:miter;stroke-opacity:1;marker-end:url(#marker4823-2-9)"
       d="m 272.85714,505.52305 315.71429,0"
       id="path10618"
       inkscape:connector-curvature="0"
       transform="translate(0,308.2677)" />
    <path
       style="fill:none;stroke:#000000;stroke-width:1px;stroke-linecap:butt;stroke-linejoin:miter;stroke-opacity:1;marker-end:url(#marker4823-2-9)"
       d="M 460,344.09448 604.28571,479.80877"
       id="path10620"
       inkscape:connector-curvature="0"
       transform="translate(0,308.2677)" />
    <path
       style="fill:none;stroke:#000000;stroke-width:1px;stroke-linecap:butt;stroke-linejoin:miter;stroke-opacity:1;marker-end:url(#marker4823-2-9)"
       d="m 261.42857,474.09448 137.14286,-130"
       id="path10622"
       inkscape:connector-curvature="0"
       transform="translate(0,308.2677)" />
    <g
       transform="translate(107.14286,507.14286)"
       id="g10939">
      <g
         style="font-style:normal;font-variant:normal;font-weight:normal;font-stretch:normal;letter-spacing:normal;word-spacing:normal;text-anchor:start;fill:none;stroke:#000000;stroke-linecap:butt;stroke-linejoin:miter;stroke-miterlimit:10.43299961;stroke-opacity:1;stroke-dasharray:none;stroke-dashoffset:0"
         id="g10941"
         transform="matrix(1.0629921,0,0,-1.0629921,-186.02362,789.27165)"
         xml:space="preserve"
         stroke-miterlimit="10.433"
         font-style="normal"
         font-variant="normal"
         font-weight="normal"
         font-stretch="normal"
         font-size-adjust="none"
         letter-spacing="normal"
         word-spacing="normal"><path
           style="fill:#000000;stroke-width:0"
           inkscape:connector-curvature="0"
           d="m 473.8,426.12 h 4.28 c 1,0 1.5,0 1.5,1 0,0.55 -0.5,0.55 -1.34,0.55 h -4.14 l 1.04,5.69 c 0.21,1.04 0.91,4.57 1.21,5.17 0.45,0.95 1.29,1.7 2.34,1.7 0.19,0 1.49,0 2.44,-0.91 -2.19,-0.18 -2.69,-1.93 -2.69,-2.68 0,-1.14 0.89,-1.74 1.85,-1.74 1.29,0 2.73,1.1 2.73,2.99 0,2.29 -2.3,3.43 -4.33,3.43 -1.7,0 -4.84,-0.89 -6.33,-5.82 -0.29,-1.05 -0.45,-1.55 -1.64,-7.83 h -3.43 c -0.96,0 -1.5,0 -1.5,-0.94 0,-0.61 0.45,-0.61 1.39,-0.61 h 3.29 l -3.75,-19.67 c -0.89,-4.83 -1.73,-9.38 -4.33,-9.38 -0.2,0 -1.43,0 -2.39,0.91 2.3,0.14 2.74,1.94 2.74,2.69 0,1.14 -0.89,1.75 -1.85,1.75 -1.29,0 -2.73,-1.1 -2.73,-3 0,-2.24 2.19,-3.44 4.23,-3.44 2.74,0 4.74,2.94 5.63,4.84 1.59,3.14 2.75,9.16 2.8,9.52 z"
           id="path10943" /></g>    </g>
    <g
       id="g11107"
       transform="translate(2.8571429,331.42857)">
      <g
         word-spacing="normal"
         letter-spacing="normal"
         font-size-adjust="none"
         font-stretch="normal"
         font-weight="normal"
         font-variant="normal"
         font-style="normal"
         stroke-miterlimit="10.433"
         xml:space="preserve"
         transform="matrix(1.0629921,0,0,-1.0629921,-186.02362,789.27165)"
         id="g11109"
         style="font-style:normal;font-variant:normal;font-weight:normal;font-stretch:normal;letter-spacing:normal;word-spacing:normal;text-anchor:start;fill:none;stroke:#000000;stroke-linecap:butt;stroke-linejoin:miter;stroke-miterlimit:10.43299961;stroke-opacity:1;stroke-dasharray:none;stroke-dashoffset:0"><path
           id="path11111"
           d="m 478.99,424.98 0.01,0.06 0.01,0.05 0.01,0.05 0.01,0.06 0.02,0.1 0.01,0.05 0.02,0.06 0.01,0.05 0.01,0.06 0.01,0.05 0,0.06 0.01,0.06 0,0.06 0.01,0.03 0,0.03 0,0.03 0,0.03 c 0,0.86 -0.59,1.36 -1.44,1.36 -0.5,0 -1.84,-0.36 -2.05,-2.16 -0.89,1.85 -2.64,3.14 -4.62,3.14 l 0.05,-1.09 c 3.28,0 3.98,-4.03 3.98,-4.28 0,-0.25 -0.09,-0.55 -0.16,-0.75 l -2.39,-9.52 c -0.29,-1.29 -1.43,-2.53 -2.53,-3.48 -1.04,-0.89 -2.59,-1.8 -4.04,-1.8 -2.49,0 -3.24,2.6 -3.24,4.58 0,2.41 1.45,8.28 2.8,10.81 1.34,2.46 3.48,4.44 5.58,4.44 l -0.05,1.09 c -5.69,0 -11.86,-6.96 -11.86,-14.14 0,-4.93 3.03,-7.87 6.63,-7.87 2.93,0 5.28,2.34 5.78,2.89 l 0.04,-0.05 c -1.04,-4.43 -1.64,-6.48 -1.64,-6.58 -0.2,-0.45 -1.89,-5.39 -7.17,-5.39 -0.95,0 -2.59,0.07 -4,0.5 1.5,0.46 2.05,1.75 2.05,2.6 0,0.79 -0.55,1.75 -1.89,1.75 -1.1,0 -2.69,-0.91 -2.69,-2.89 0,-2.05 1.84,-3.05 6.62,-3.05 6.22,0 9.82,3.89 10.57,6.88 z"
           inkscape:connector-curvature="0"
           style="fill:#000000;stroke-width:0" /></g>    </g>
    <rect
       style="fill:none;stroke:none;stroke-width:1;stroke-linecap:round;stroke-miterlimit:4;stroke-dasharray:none;stroke-dashoffset:0"
       id="rect11196"
       width="460"
       height="287.14279"
       x="195.71428"
       y="292.66592"
       transform="translate(0,308.2677)" />
  </g>
</svg>
