<?xml version="1.0" encoding="UTF-8" standalone="no"?>
<!-- Created with Inkscape (http://www.inkscape.org/) -->

<svg
   xmlns:dc="http://purl.org/dc/elements/1.1/"
   xmlns:cc="http://creativecommons.org/ns#"
   xmlns:rdf="http://www.w3.org/1999/02/22-rdf-syntax-ns#"
   xmlns:svg="http://www.w3.org/2000/svg"
   xmlns="http://www.w3.org/2000/svg"
   xmlns:sodipodi="http://sodipodi.sourceforge.net/DTD/sodipodi-0.dtd"
   xmlns:inkscape="http://www.inkscape.org/namespaces/inkscape"
   version="1.1"
   width="1052.3622"
   height="744.09448"
   id="svg2"
   inkscape:version="0.48.3.1 r9886"
   sodipodi:docname="triangulation1.svg">
  <sodipodi:namedview
     pagecolor="#ffffff"
     bordercolor="#666666"
     borderopacity="1"
     objecttolerance="10"
     gridtolerance="10"
     guidetolerance="10"
     inkscape:pageopacity="0"
     inkscape:pageshadow="2"
     inkscape:window-width="705"
     inkscape:window-height="480"
     id="namedview60554"
     showgrid="false"
     inkscape:zoom="0.31716402"
     inkscape:cx="526.18109"
     inkscape:cy="372.04724"
     inkscape:window-x="0"
     inkscape:window-y="0"
     inkscape:window-maximized="0"
     inkscape:current-layer="svg2" />
  <defs
     id="defs4">
    <filter
       color-interpolation-filters="sRGB"
       id="filter3103">
      <feGaussianBlur
         id="feGaussianBlur3105"
         result="result6"
         stdDeviation="3"
         in="SourceGraphic" />
      <feColorMatrix
         id="feColorMatrix3107"
         values="1 0 0 0 0 0 1 0 0 0 0 0 1 0 0 0 0 0 1 0 "
         result="result7"
         in="SourceGraphic" />
      <feComposite
         in2="result7"
         operator="in"
         in="result6"
         id="feComposite3109" />
    </filter>
  </defs>
  <metadata
     id="metadata7">
    <rdf:RDF>
      <cc:Work
         rdf:about="">
        <dc:format>image/svg+xml</dc:format>
        <dc:type
           rdf:resource="http://purl.org/dc/dcmitype/StillImage" />
        <dc:title></dc:title>
      </cc:Work>
    </rdf:RDF>
  </metadata>
  <path
     inkscape:connector-curvature="0"
     style="fill:#b3b3b3;stroke:#000000;stroke-width:1px;stroke-linecap:butt;stroke-linejoin:miter;stroke-opacity:1"
     id="path4021"
     d="M 674.7819,206.69333 512.14734,434.9878 722.25907,515.80001 z" />
  <path
     inkscape:connector-curvature="0"
     style="fill:#b3b3b3;stroke:#000000;stroke-width:1px;stroke-linecap:butt;stroke-linejoin:miter;stroke-opacity:1"
     id="path4023"
     d="M 723.26922,514.78986 866.71088,358.21621 675.79205,205.68318" />
  <path
     inkscape:connector-curvature="0"
     style="fill:none;stroke:#000000;stroke-width:1;stroke-linecap:butt;stroke-linejoin:miter;stroke-miterlimit:4;stroke-opacity:1;stroke-dasharray:6, 6;stroke-dashoffset:0;marker-end:none"
     id="path4025"
     d="M 511.13719,434.9878 865.70073,360.23652" />
  <path
     inkscape:connector-curvature="0"
     style="fill:#b3b3b3;stroke:#000000;stroke-width:1;stroke-miterlimit:4;stroke-dasharray:none;stroke-dashoffset:0"
     id="path3111"
     d="m 334.06779,280.48395 a 152.85715,152.85715 0 1 1 -0.76159,-1.43972" />
  <path
     d="M 351.41104,351.88724 A 152.85715,30.000004 0 1 1 45.882054,349.91155"
     id="path3111-4"
     style="fill:none;stroke:#000000;stroke-width:1;stroke-miterlimit:4;stroke-dasharray:none;stroke-dashoffset:0"
     inkscape:connector-curvature="0" />
  <path
     d="M 45.757434,350.69665 A 152.85715,30.000004 0 0 1 350.4597,347.83427"
     id="path3111-4-0"
     style="fill:none;stroke:#000000;stroke-width:1;stroke-miterlimit:4;stroke-dasharray:6, 6;stroke-dashoffset:0"
     inkscape:connector-curvature="0" />
  <path
     inkscape:connector-curvature="0"
     style="font-style:normal;font-variant:normal;font-weight:normal;font-stretch:normal;letter-spacing:normal;word-spacing:normal;text-anchor:start;fill:#000000;stroke:#000000;stroke-width:0;stroke-linecap:butt;stroke-linejoin:miter;stroke-miterlimit:10.43299961;stroke-opacity:1;stroke-dasharray:none;stroke-dashoffset:0"
     id="path4275"
     d="m 80.545067,182.97054 0,-0.0213 0,-0.0213 0,-0.0106 -0.01063,-0.0213 0,-0.0213 0,-0.0213 -0.01063,-0.0213 0,-0.0213 -0.01063,-0.0213 -0.01063,-0.0213 -0.01063,-0.0213 -0.01063,-0.0213 -0.01063,-0.0213 -0.01063,-0.0213 -0.01063,-0.0213 -0.02126,-0.0213 -0.02126,-0.0212 -0.01063,-0.0213 -0.02126,-0.0213 -0.02126,-0.0213 -0.02126,-0.0106 -0.03189,-0.0213 -0.02126,-0.0106 -0.03189,-0.0213 -0.02126,-0.0106 -0.03189,-0.0106 -0.02126,-0.0106 -0.01063,0 -0.02126,-0.0106 -0.02126,0 -0.01063,0 -0.02126,-0.0106 -0.02126,0 -0.02126,0 -0.02126,0 -0.02126,0 -0.02126,0 -0.02126,0 c -0.265748,0 -0.329528,0.0425 -0.956693,0.79724 l -2.540551,3.0189 c -1.38189,-2.4874 -4.135039,-3.81614 -7.579134,-3.81614 -6.72874,0 -13.074803,6.09094 -13.074803,12.50078 0,4.28386 2.816929,6.72874 5.506299,7.50473 l 5.655118,1.49882 c 1.966536,0.46771 4.889764,1.26496 4.889764,5.61259 0,4.77284 -4.358268,9.73701 -9.535039,9.73701 -3.390945,0 -9.269291,-1.16929 -9.269291,-7.72795 0,-1.27559 0.265748,-2.54055 0.318897,-2.85945 0.04252,-0.2126 0.09567,-0.26575 0.09567,-0.37205 0,-0.53149 -0.361418,-0.58464 -0.627166,-0.58464 -0.265748,0 -0.372047,0.0532 -0.531496,0.2126 -0.223228,0.2126 -3.178346,12.28819 -3.178346,12.437 0,0.3189 0.265748,0.5315 0.584646,0.5315 0.265748,0 0.318897,-0.0425 0.946063,-0.79724 l 2.60433,-2.99764 c 2.274803,3.07205 5.867717,3.79488 8.939764,3.79488 7.207086,0 13.45748,-7.03701 13.45748,-13.59567 0,-3.65669 -1.796457,-5.46378 -2.593701,-6.19724 -1.211811,-1.23307 -2.009055,-1.42441 -6.72874,-2.65748 -1.158661,-0.3189 -3.072047,-0.8504 -3.550394,-0.94607 -1.435039,-0.47834 -3.220866,-2.00905 -3.220866,-4.81535 0,-4.30512 4.230709,-8.80157 9.258662,-8.80157 4.411417,0 7.632283,2.2748 7.632283,8.21692 0,1.69016 -0.223229,2.64685 -0.223229,2.95512 0,0.0531 0,0.5315 0.648426,0.5315 0.531496,0 0.584645,-0.15945 0.786614,-1.06299 z" />
  <path
     inkscape:connector-curvature="0"
     style="font-style:normal;font-variant:normal;font-weight:normal;font-stretch:normal;letter-spacing:normal;word-spacing:normal;text-anchor:start;fill:#000000;stroke:#000000;stroke-width:0;stroke-linecap:butt;stroke-linejoin:miter;stroke-miterlimit:10.43299961;stroke-opacity:1;stroke-dasharray:none;stroke-dashoffset:0"
     id="path4277"
     d="m 100.66751,193.8981 h -1.254333 c -0.106299,0.80788 -0.488976,3.00827 -0.967323,3.36969 -0.287007,0.21259 -3.135826,0.21259 -3.656692,0.21259 h -6.82441 c 3.890551,-3.43346 5.187402,-4.46456 7.409055,-6.20787 2.74252,-2.18976 5.293703,-4.48583 5.293703,-8.00433 0,-4.48583 -3.911813,-7.22835 -8.663388,-7.22835 -4.592126,0 -7.706692,3.22087 -7.706692,6.62244 0,1.90276 1.594488,2.08347 1.977165,2.08347 0.882283,0 1.955905,-0.6378 1.955905,-1.96654 0,-0.65905 -0.265748,-1.9559 -2.189763,-1.9559 1.148031,-2.62559 3.667322,-3.43347 5.410629,-3.43347 3.709843,0 5.633859,2.87008 5.633859,5.87835 0,3.22087 -2.296063,5.77205 -3.486615,7.10079 l -8.918503,8.82283 c -0.382677,0.32953 -0.382677,0.41457 -0.382677,1.44567 h 15.264566 z" />
  <rect
     width="878.57141"
     height="411.42856"
     x="7.1428571"
     y="142.66591"
     id="rect4362"
     style="fill:none;stroke:none" />
  <path
     inkscape:connector-curvature="0"
     style="font-style:normal;font-variant:normal;font-weight:normal;font-stretch:normal;letter-spacing:normal;word-spacing:normal;text-anchor:start;fill:#000000;stroke:#000000;stroke-width:0;stroke-linecap:butt;stroke-linejoin:miter;stroke-miterlimit:10.43299961;stroke-opacity:1;stroke-dasharray:none;stroke-dashoffset:0"
     id="path4331"
     d="m 463.70559,347.52727 0,-0.1063 -0.0106,-0.0957 0,-0.0957 -0.0106,-0.0957 -0.0106,-0.085 -0.0106,-0.085 -0.0106,-0.085 -0.0106,-0.0744 -0.0213,-0.0744 -0.0106,-0.0744 -0.0213,-0.0638 -0.0213,-0.0638 -0.0213,-0.0638 -0.0213,-0.0531 -0.0213,-0.0532 -0.0319,-0.0532 -0.0213,-0.0425 -0.0319,-0.0425 -0.0213,-0.0425 -0.0319,-0.0425 -0.0319,-0.0319 -0.0319,-0.0319 -0.0319,-0.0213 -0.0319,-0.0319 -0.0319,-0.0213 -0.0319,-0.0213 -0.0319,-0.0106 -0.0319,-0.0106 -0.0319,-0.0106 -0.0319,-0.0106 -0.0425,0 -0.0319,0 c -0.2126,0 -0.70157,0.2126 -0.74409,1.42441 -0.22323,3.65669 -3.92244,5.82519 -7.35591,5.82519 -3.07204,0 -5.72952,-1.637 -8.4933,-3.49724 -2.85945,-1.89213 -5.70827,-3.80551 -9.15237,-3.80551 -4.93228,0 -8.85472,3.75236 -8.85472,8.63149 0,1.1693 0.43583,1.58386 0.75472,1.58386 0.5315,0 0.7441,-0.99921 0.7441,-1.21181 0.26575,-4.45393 4.60275,-6.04842 7.3559,-6.04842 3.07205,0 5.7189,1.64763 8.47205,3.50787 2.85945,1.90276 5.7189,3.81614 9.17362,3.81614 4.91103,0 8.83347,-3.77362 8.83347,-8.63149 z" />
  <path
     inkscape:connector-curvature="0"
     style="font-style:normal;font-variant:normal;font-weight:normal;font-stretch:normal;letter-spacing:normal;word-spacing:normal;text-anchor:start;fill:#000000;stroke:#000000;stroke-width:0;stroke-linecap:butt;stroke-linejoin:miter;stroke-miterlimit:10.43299961;stroke-opacity:1;stroke-dasharray:none;stroke-dashoffset:0"
     id="path4333"
     d="m 463.70559,359.91112 0,-0.0744 0,-0.0638 -0.0106,-0.0638 0,-0.0744 0,-0.0638 -0.0106,-0.0532 0,-0.0638 -0.0106,-0.0532 0,-0.0532 -0.0106,-0.0638 -0.0106,-0.0425 -0.0106,-0.0532 -0.0106,-0.0532 -0.0106,-0.0425 -0.0106,-0.0425 -0.0106,-0.0425 -0.0106,-0.0425 -0.0106,-0.0425 -0.0106,-0.0425 -0.0106,-0.0319 -0.0106,-0.0319 -0.0213,-0.0425 -0.0106,-0.0319 -0.0106,-0.0319 -0.0213,-0.0213 -0.0106,-0.0319 -0.0319,-0.0532 -0.0319,-0.0531 -0.0319,-0.0425 -0.0319,-0.0319 -0.0319,-0.0425 -0.0319,-0.0213 -0.0319,-0.0319 -0.0319,-0.0213 -0.0319,-0.0213 -0.0319,-0.0106 -0.0213,-0.0213 -0.0319,-0.0106 -0.0213,-0.0106 -0.0213,0 -0.0213,-0.0106 -0.0213,0 -0.0213,0 -0.0106,0 -0.0106,-0.0106 c -0.2126,0 -0.70157,0.26575 -0.74409,1.43504 -0.22323,3.65669 -3.92244,5.82519 -7.35591,5.82519 -3.07204,0 -5.72952,-1.637 -8.4933,-3.49724 -2.85945,-1.90276 -5.70827,-3.80551 -9.15237,-3.80551 -4.93228,0 -8.85472,3.75236 -8.85472,8.63149 0,1.16929 0.43583,1.58386 0.75472,1.58386 0.5315,0 0.7441,-0.99921 0.7441,-1.21181 0.26575,-4.45394 4.60275,-6.04842 7.3559,-6.04842 3.07205,0 5.7189,1.64763 8.47205,3.50787 2.85945,1.90276 5.7189,3.79488 9.17362,3.79488 5.02796,0 8.83347,-3.91181 8.83347,-8.56772 z" />
</svg>
