<?xml version="1.0" encoding="UTF-8" standalone="no"?>
<!-- Created with Inkscape (http://www.inkscape.org/) -->

<svg
   xmlns:dc="http://purl.org/dc/elements/1.1/"
   xmlns:cc="http://creativecommons.org/ns#"
   xmlns:rdf="http://www.w3.org/1999/02/22-rdf-syntax-ns#"
   xmlns:svg="http://www.w3.org/2000/svg"
   xmlns="http://www.w3.org/2000/svg"
   xmlns:sodipodi="http://sodipodi.sourceforge.net/DTD/sodipodi-0.dtd"
   xmlns:inkscape="http://www.inkscape.org/namespaces/inkscape"
   width="1052.3622"
   height="744.09448"
   id="svg2"
   version="1.1"
   inkscape:version="0.48.3.1 r9886"
   sodipodi:docname="graph_homomorphism.svg"
   inkscape:export-filename="/home/koichi/work/category-seminar/fig/graph_homomorphism.png"
   inkscape:export-xdpi="90"
   inkscape:export-ydpi="90">
  <sodipodi:namedview
     id="base"
     pagecolor="#ffffff"
     bordercolor="#666666"
     borderopacity="1.0"
     inkscape:pageopacity="0.0"
     inkscape:pageshadow="2"
     inkscape:zoom="0.98994949"
     inkscape:cx="242.20274"
     inkscape:cy="416.01669"
     inkscape:document-units="px"
     inkscape:current-layer="layer1"
     showgrid="false"
     inkscape:window-width="1920"
     inkscape:window-height="1058"
     inkscape:window-x="0"
     inkscape:window-y="22"
     inkscape:window-maximized="0" />
  <defs
     id="defs4">
    <marker
       style="overflow:visible;"
       id="Arrow1Lend"
       refX="0.0"
       refY="0.0"
       orient="auto"
       inkscape:stockid="Arrow1Lend">
      <path
         transform="scale(0.8) rotate(180) translate(12.5,0)"
         style="fill-rule:evenodd;stroke:#000000;stroke-width:1.0pt;"
         d="M 0.0,0.0 L 5.0,-5.0 L -12.5,0.0 L 5.0,5.0 L 0.0,0.0 z "
         id="path5934" />
    </marker>
    <marker
       refX="0"
       refY="0"
       orient="auto"
       id="Arrow1Lstart"
       style="overflow:visible">
      <path
         inkscape:connector-curvature="0"
         d="M 0,0 5,-5 -12.5,0 5,5 0,0 z"
         transform="matrix(0.8,0,0,0.8,10,0)"
         id="path4208"
         style="fill-rule:evenodd;stroke:#000000;stroke-width:1pt" />
    </marker>
    <marker
       refX="0"
       refY="0"
       orient="auto"
       id="marker3140"
       style="overflow:visible">
      <path
         inkscape:connector-curvature="0"
         d="M 0,0 5,-5 -12.5,0 5,5 0,0 z"
         transform="matrix(0.8,0,0,0.8,10,0)"
         id="path3142"
         style="fill-rule:evenodd;stroke:#000000;stroke-width:1pt" />
    </marker>
    <marker
       refX="0"
       refY="0"
       orient="auto"
       id="marker3144"
       style="overflow:visible">
      <path
         inkscape:connector-curvature="0"
         d="M 0,0 5,-5 -12.5,0 5,5 0,0 z"
         transform="matrix(0.8,0,0,0.8,10,0)"
         id="path3146"
         style="fill-rule:evenodd;stroke:#000000;stroke-width:1pt" />
    </marker>
    <marker
       refX="0"
       refY="0"
       orient="auto"
       id="marker3148"
       style="overflow:visible">
      <path
         inkscape:connector-curvature="0"
         d="M 0,0 5,-5 -12.5,0 5,5 0,0 z"
         transform="matrix(0.8,0,0,0.8,10,0)"
         id="path3150"
         style="fill-rule:evenodd;stroke:#000000;stroke-width:1pt" />
    </marker>
    <marker
       refX="0"
       refY="0"
       orient="auto"
       id="marker3152"
       style="overflow:visible">
      <path
         inkscape:connector-curvature="0"
         d="M 0,0 5,-5 -12.5,0 5,5 0,0 z"
         transform="matrix(0.8,0,0,0.8,10,0)"
         id="path3154"
         style="fill-rule:evenodd;stroke:#000000;stroke-width:1pt" />
    </marker>
    <marker
       refX="0"
       refY="0"
       orient="auto"
       id="Arrow1Lstart9"
       style="overflow:visible">
      <path
         inkscape:connector-curvature="0"
         d="M 0,0 5,-5 -12.5,0 5,5 0,0 z"
         transform="matrix(0.8,0,0,0.8,10,0)"
         id="path5111"
         style="fill:#4d4d4d;fill-rule:evenodd;stroke:#4d4d4d;stroke-width:1pt" />
    </marker>
    <marker
       refX="0"
       refY="0"
       orient="auto"
       id="Arrow1Lstart9V"
       style="overflow:visible">
      <path
         inkscape:connector-curvature="0"
         d="M 0,0 5,-5 -12.5,0 5,5 0,0 z"
         transform="matrix(0.8,0,0,0.8,10,0)"
         id="path5114"
         style="fill:#999999;fill-rule:evenodd;stroke:#999999;stroke-width:1pt" />
    </marker>
    <marker
       refX="0"
       refY="0"
       orient="auto"
       id="Arrow1Lstart1"
       style="overflow:visible">
      <path
         inkscape:connector-curvature="0"
         d="M 0,0 5,-5 -12.5,0 5,5 0,0 z"
         transform="matrix(0.8,0,0,0.8,10,0)"
         id="path5108"
         style="fill:#e6e6e6;fill-rule:evenodd;stroke:#e6e6e6;stroke-width:1pt" />
    </marker>
    <marker
       refX="0"
       refY="0"
       orient="auto"
       id="Arrow1Lstart-9"
       style="overflow:visible">
      <path
         inkscape:connector-curvature="0"
         d="M 0,0 5,-5 -12.5,0 5,5 0,0 z"
         transform="matrix(0.8,0,0,0.8,10,0)"
         id="path4208-3"
         style="fill-rule:evenodd;stroke:#000000;stroke-width:1pt" />
    </marker>
    <marker
       refX="0"
       refY="0"
       orient="auto"
       id="Arrow1Lstart-5"
       style="overflow:visible">
      <path
         inkscape:connector-curvature="0"
         d="M 0,0 5,-5 -12.5,0 5,5 0,0 z"
         transform="matrix(0.8,0,0,0.8,10,0)"
         id="path4208-1"
         style="fill-rule:evenodd;stroke:#000000;stroke-width:1pt" />
    </marker>
    <marker
       style="overflow:visible"
       id="Arrow1Lend-1"
       refX="0"
       refY="0"
       orient="auto"
       inkscape:stockid="Arrow1Lend">
      <path
         inkscape:connector-curvature="0"
         transform="matrix(-0.8,0,0,-0.8,-10,0)"
         style="fill-rule:evenodd;stroke:#000000;stroke-width:1pt"
         d="M 0,0 5,-5 -12.5,0 5,5 0,0 z"
         id="path5934-6" />
    </marker>
    <marker
       style="overflow:visible"
       id="Arrow1Lend-12"
       refX="0"
       refY="0"
       orient="auto"
       inkscape:stockid="Arrow1Lend-12">
      <path
         inkscape:connector-curvature="0"
         transform="matrix(-0.8,0,0,-0.8,-10,0)"
         style="stroke:#00ff00;stroke-width:1pt;fill:#00ff00;fill-rule:evenodd"
         d="M 0,0 5,-5 -12.5,0 5,5 0,0 z"
         id="path7910" />
    </marker>
    <marker
       style="overflow:visible"
       id="Arrow1Lend-15"
       refX="0"
       refY="0"
       orient="auto"
       inkscape:stockid="Arrow1Lend-15">
      <path
         inkscape:connector-curvature="0"
         transform="matrix(-0.8,0,0,-0.8,-10,0)"
         style="stroke:#ff0000;stroke-width:1pt;fill:#ff0000;fill-rule:evenodd"
         d="M 0,0 5,-5 -12.5,0 5,5 0,0 z"
         id="path7913" />
    </marker>
    <marker
       style="overflow:visible"
       id="Arrow1Lend-15R"
       refX="0"
       refY="0"
       orient="auto"
       inkscape:stockid="Arrow1Lend-15R">
      <path
         inkscape:connector-curvature="0"
         transform="matrix(-0.8,0,0,-0.8,-10,0)"
         style="stroke:#0000ff;stroke-width:1pt;fill:#0000ff;fill-rule:evenodd"
         d="M 0,0 5,-5 -12.5,0 5,5 0,0 z"
         id="path7916" />
    </marker>
    <marker
       refX="0"
       refY="0"
       orient="auto"
       id="Arrow1LstartT"
       style="overflow:visible"
       inkscape:stockid="Arrow1LstartT">
      <path
         inkscape:connector-curvature="0"
         d="M 0,0 5,-5 -12.5,0 5,5 0,0 z"
         transform="matrix(0.8,0,0,0.8,10,0)"
         id="path7919"
         style="stroke:#00ff00;stroke-width:1pt;fill:#00ff00;fill-rule:evenodd" />
    </marker>
    <marker
       style="overflow:visible"
       id="Arrow1Lend-1f"
       refX="0"
       refY="0"
       orient="auto"
       inkscape:stockid="Arrow1Lend-1f">
      <path
         inkscape:connector-curvature="0"
         transform="matrix(-0.8,0,0,-0.8,-10,0)"
         style="stroke:#00ff00;stroke-width:1pt;fill:#00ff00;fill-rule:evenodd"
         d="M 0,0 5,-5 -12.5,0 5,5 0,0 z"
         id="path7922" />
    </marker>
    <marker
       style="overflow:visible"
       id="Arrow1Lend-1u"
       refX="0"
       refY="0"
       orient="auto"
       inkscape:stockid="Arrow1Lend-1u">
      <path
         inkscape:connector-curvature="0"
         transform="matrix(-0.8,0,0,-0.8,-10,0)"
         style="stroke:#ff0000;stroke-width:1pt;fill:#ff0000;fill-rule:evenodd"
         d="M 0,0 5,-5 -12.5,0 5,5 0,0 z"
         id="path7925" />
    </marker>
    <marker
       style="overflow:visible"
       id="Arrow1Lend-17"
       refX="0"
       refY="0"
       orient="auto"
       inkscape:stockid="Arrow1Lend-17">
      <path
         inkscape:connector-curvature="0"
         transform="matrix(-0.8,0,0,-0.8,-10,0)"
         style="stroke:#0000ff;stroke-width:1pt;fill:#0000ff;fill-rule:evenodd"
         d="M 0,0 5,-5 -12.5,0 5,5 0,0 z"
         id="path7928" />
    </marker>
    <marker
       style="overflow:visible"
       id="Arrow1Lend-14"
       refX="0"
       refY="0"
       orient="auto"
       inkscape:stockid="Arrow1Lend-14">
      <path
         inkscape:connector-curvature="0"
         transform="matrix(-0.8,0,0,-0.8,-10,0)"
         style="stroke:#ff00cc;stroke-width:1pt;fill:#ff00cc;fill-rule:evenodd"
         d="M 0,0 5,-5 -12.5,0 5,5 0,0 z"
         id="path8271" />
    </marker>
    <marker
       style="overflow:visible"
       id="Arrow1Lend-1D"
       refX="0"
       refY="0"
       orient="auto"
       inkscape:stockid="Arrow1Lend-1D">
      <path
         inkscape:connector-curvature="0"
         transform="matrix(-0.8,0,0,-0.8,-10,0)"
         style="stroke:#ff00cc;stroke-width:1pt;fill:#ff00cc;fill-rule:evenodd"
         d="M 0,0 5,-5 -12.5,0 5,5 0,0 z"
         id="path8274" />
    </marker>
    <marker
       style="overflow:visible"
       id="Arrow1Lend-1t"
       refX="0"
       refY="0"
       orient="auto"
       inkscape:stockid="Arrow1Lend-1t">
      <path
         inkscape:connector-curvature="0"
         transform="matrix(-0.8,0,0,-0.8,-10,0)"
         style="stroke:#ff00cc;stroke-width:1pt;fill:#ff00cc;fill-rule:evenodd"
         d="M 0,0 5,-5 -12.5,0 5,5 0,0 z"
         id="path8277" />
    </marker>
    <marker
       style="overflow:visible"
       id="Arrow1Lend-1J"
       refX="0"
       refY="0"
       orient="auto"
       inkscape:stockid="Arrow1Lend-1J">
      <path
         inkscape:connector-curvature="0"
         transform="matrix(-0.8,0,0,-0.8,-10,0)"
         style="stroke:#ff00cc;stroke-width:1pt;fill:#ff00cc;fill-rule:evenodd"
         d="M 0,0 5,-5 -12.5,0 5,5 0,0 z"
         id="path8280" />
    </marker>
  </defs>
  <metadata
     id="metadata7">
    <rdf:RDF>
      <cc:Work
         rdf:about="">
        <dc:format>image/svg+xml</dc:format>
        <dc:type
           rdf:resource="http://purl.org/dc/dcmitype/StillImage" />
        <dc:title></dc:title>
      </cc:Work>
    </rdf:RDF>
  </metadata>
  <g
     inkscape:label="レイヤー 1"
     inkscape:groupmode="layer"
     id="layer1"
     transform="translate(0,-308.2677)">
    <path
       sodipodi:type="arc"
       style="fill:#000000;stroke:none"
       id="path8927"
       sodipodi:cx="123.74369"
       sodipodi:cy="91.535934"
       sodipodi:rx="6.0609145"
       sodipodi:ry="6.0609145"
       d="m 127.26134,96.471602 c -2.72589,1.942745 -6.51057,1.307877 -8.45332,-1.418017 -1.94274,-2.725894 -1.30787,-6.510573 1.41802,-8.453318 2.72589,-1.942745 6.51057,-1.307878 8.45332,1.418017 1.07649,1.510441 1.4021,3.430644 0.88373,5.211532"
       transform="matrix(0.83334043,0,0,0.83334043,11.531661,472.01543)"
       sodipodi:start="0.95159756"
       sodipodi:end="6.5664338"
       sodipodi:open="true" />
    <path
       sodipodi:type="arc"
       style="fill:#000000;stroke:none"
       id="path8927-5"
       sodipodi:cx="123.74369"
       sodipodi:cy="91.535934"
       sodipodi:rx="6.0609145"
       sodipodi:ry="6.0609145"
       d="m 127.26134,96.471602 c -2.72589,1.942745 -6.51057,1.307877 -8.45332,-1.418017 -1.94274,-2.725894 -1.30787,-6.510573 1.41802,-8.453318 2.72589,-1.942745 6.51057,-1.307878 8.45332,1.418017 1.07649,1.510441 1.4021,3.430644 0.88373,5.211532"
       transform="matrix(0.83334043,0,0,0.83334043,158.50908,396.25403)"
       sodipodi:start="0.95159756"
       sodipodi:end="6.5664338"
       sodipodi:open="true" />
    <path
       sodipodi:type="arc"
       style="fill:#000000;stroke:none"
       id="path8927-3"
       sodipodi:cx="123.74369"
       sodipodi:cy="91.535934"
       sodipodi:rx="6.0609145"
       sodipodi:ry="6.0609145"
       d="m 127.26134,96.471602 c -2.72589,1.942745 -6.51057,1.307877 -8.45332,-1.418017 -1.94274,-2.725894 -1.30787,-6.510573 1.41802,-8.453318 2.72589,-1.942745 6.51057,-1.307878 8.45332,1.418017 1.07649,1.510441 1.4021,3.430644 0.88373,5.211532"
       transform="matrix(0.83334043,0,0,0.83334043,159.51921,523.53324)"
       sodipodi:start="0.95159756"
       sodipodi:end="6.5664338"
       sodipodi:open="true" />
    <path
       sodipodi:type="arc"
       style="fill:#000000;stroke:none"
       id="path8927-2"
       sodipodi:cx="123.74369"
       sodipodi:cy="91.535934"
       sodipodi:rx="6.0609145"
       sodipodi:ry="6.0609145"
       d="m 127.26134,96.471602 c -2.72589,1.942745 -6.51057,1.307877 -8.45332,-1.418017 -1.94274,-2.725894 -1.30787,-6.510573 1.41802,-8.453318 2.72589,-1.942745 6.51057,-1.307878 8.45332,1.418017 1.07649,1.510441 1.4021,3.430644 0.88373,5.211532"
       transform="matrix(0.83334043,0,0,0.83334043,281.74768,528.58401)"
       sodipodi:start="0.95159756"
       sodipodi:end="6.5664338"
       sodipodi:open="true" />
    <path
       sodipodi:type="arc"
       style="fill:#000000;stroke:none"
       id="path8927-33"
       sodipodi:cx="123.74369"
       sodipodi:cy="91.535934"
       sodipodi:rx="6.0609145"
       sodipodi:ry="6.0609145"
       d="m 127.26134,96.471602 c -2.72589,1.942745 -6.51057,1.307877 -8.45332,-1.418017 -1.94274,-2.725894 -1.30787,-6.510573 1.41802,-8.453318 2.72589,-1.942745 6.51057,-1.307878 8.45332,1.418017 1.07649,1.510441 1.4021,3.430644 0.88373,5.211532"
       transform="matrix(0.83334043,0,0,0.83334043,449.433,524.5434)"
       sodipodi:start="0.95159756"
       sodipodi:end="6.5664338"
       sodipodi:open="true" />
    <path
       sodipodi:type="arc"
       style="fill:#000000;stroke:none"
       id="path8927-1"
       sodipodi:cx="123.74369"
       sodipodi:cy="91.535934"
       sodipodi:rx="6.0609145"
       sodipodi:ry="6.0609145"
       d="m 127.26134,96.471602 c -2.72589,1.942745 -6.51057,1.307877 -8.45332,-1.418017 -1.94274,-2.725894 -1.30787,-6.510573 1.41802,-8.453318 2.72589,-1.942745 6.51057,-1.307878 8.45332,1.418017 1.07649,1.510441 1.4021,3.430644 0.88373,5.211532"
       transform="matrix(0.83334043,0,0,0.83334043,363.57004,391.20327)"
       sodipodi:start="0.95159756"
       sodipodi:end="6.5664338"
       sodipodi:open="true" />
    <path
       sodipodi:type="arc"
       style="fill:#000000;stroke:none"
       id="path8927-13"
       sodipodi:cx="123.74369"
       sodipodi:cy="91.535934"
       sodipodi:rx="6.0609145"
       sodipodi:ry="6.0609145"
       d="m 127.26134,96.471602 c -2.72589,1.942745 -6.51057,1.307877 -8.45332,-1.418017 -1.94274,-2.725894 -1.30787,-6.510573 1.41802,-8.453318 2.72589,-1.942745 6.51057,-1.307878 8.45332,1.418017 1.07649,1.510441 1.4021,3.430644 0.88373,5.211532"
       transform="matrix(0.83334043,0,0,0.83334043,578.73253,528.58401)"
       sodipodi:start="0.95159756"
       sodipodi:end="6.5664338"
       sodipodi:open="true" />
    <path
       sodipodi:type="arc"
       style="fill:#000000;stroke:none"
       id="path8927-22"
       sodipodi:cx="123.74369"
       sodipodi:cy="91.535934"
       sodipodi:rx="6.0609145"
       sodipodi:ry="6.0609145"
       d="m 127.26134,96.471602 c -2.72589,1.942745 -6.51057,1.307877 -8.45332,-1.418017 -1.94274,-2.725894 -1.30787,-6.510573 1.41802,-8.453318 2.72589,-1.942745 6.51057,-1.307878 8.45332,1.418017 1.07649,1.510441 1.4021,3.430644 0.88373,5.211532"
       transform="matrix(0.83334043,0,0,0.83334043,669.64625,377.06112)"
       sodipodi:start="0.95159756"
       sodipodi:end="6.5664338"
       sodipodi:open="true" />
    <path
       sodipodi:type="arc"
       style="fill:#000000;stroke:none"
       id="path8927-22-1"
       sodipodi:cx="123.74369"
       sodipodi:cy="91.535934"
       sodipodi:rx="6.0609145"
       sodipodi:ry="6.0609145"
       d="m 127.26134,96.471602 c -2.72589,1.942745 -6.51057,1.307877 -8.45332,-1.418017 -1.94274,-2.725894 -1.30787,-6.510573 1.41802,-8.453318 2.72589,-1.942745 6.51057,-1.307878 8.45332,1.418017 1.07649,1.510441 1.4021,3.430644 0.88373,5.211532"
       transform="matrix(0.83334043,0,0,0.83334043,725.20464,536.66523)"
       sodipodi:start="0.95159756"
       sodipodi:end="6.5664338"
       sodipodi:open="true" />
    <path
       sodipodi:type="arc"
       style="fill:#000000;stroke:none"
       id="path8927-22-6"
       sodipodi:cx="123.74369"
       sodipodi:cy="91.535934"
       sodipodi:rx="6.0609145"
       sodipodi:ry="6.0609145"
       d="m 127.26134,96.471602 c -2.72589,1.942745 -6.51057,1.307877 -8.45332,-1.418017 -1.94274,-2.725894 -1.30787,-6.510573 1.41802,-8.453318 2.72589,-1.942745 6.51057,-1.307878 8.45332,1.418017 1.07649,1.510441 1.4021,3.430644 0.88373,5.211532"
       transform="matrix(0.83334043,0,0,0.83334043,759.54983,472.01547)"
       sodipodi:start="0.95159756"
       sodipodi:end="6.5664338"
       sodipodi:open="true" />
    <path
       style="fill:none;stroke:#000000;stroke-width:1px;stroke-linecap:butt;stroke-linejoin:miter;stroke-opacity:1"
       d="m 261.62951,164.26692 0,127.27922"
       id="path9027"
       inkscape:connector-curvature="0"
       transform="translate(0,308.2677)" />
    <path
       style="fill:none;stroke:#000000;stroke-width:1px;stroke-linecap:butt;stroke-linejoin:miter;stroke-opacity:1"
       d="m 383.85797,296.5969 82.83251,-137.38074 84.85281,132.32998 0,0 z"
       id="path9029"
       inkscape:connector-curvature="0"
       transform="translate(0,308.2677)" />
    <path
       style="fill:none;stroke:#000000;stroke-width:1px;stroke-linecap:butt;stroke-linejoin:miter;stroke-opacity:1"
       d="m 680.84282,296.5969 90.91372,-151.52288 56.56855,160.61426 z"
       id="path9031"
       inkscape:connector-curvature="0"
       transform="translate(0,308.2677)" />
    <path
       style="fill:none;stroke:#000000;stroke-width:1px;stroke-linecap:butt;stroke-linejoin:miter;stroke-opacity:1"
       d="m 774.787,145.07402 87.88327,93.94419 -33.33503,66.67007"
       id="path9033"
       inkscape:connector-curvature="0"
       transform="translate(0,308.2677)" />
    <path
       style="fill:none;stroke:#000000;stroke-width:1;stroke-linecap:butt;stroke-linejoin:miter;stroke-opacity:1;marker-end:none;stroke-miterlimit:4;stroke-dasharray:8,8;stroke-dashoffset:0"
       d="M 680.84282,297.60706 860.64997,239.01821"
       id="path9035"
       inkscape:connector-curvature="0"
       transform="translate(0,308.2677)" />
    <path
       style="fill:#f9f9f9;stroke:#f9f9f9;stroke-width:1.01015258;stroke-linecap:square;stroke-miterlimit:4;stroke-dasharray:8.08122036, 8.08122036;stroke-dashoffset:0"
       d="m 389.54072,293.31423 c -0.89964,-1.97448 3.71907,-10.13095 37.12875,-65.56807 30.92411,-51.31278 38.55009,-63.30448 40.23436,-63.26771 1.62789,0.0355 10.69177,13.51665 41.833,62.22005 22.92686,35.85652 39.37809,62.55144 38.86479,63.06474 -0.48952,0.48952 -31.56169,1.79272 -69.04926,2.896 -37.48757,1.10326 -72.61984,2.20935 -78.07171,2.45796 -9.48855,0.43269 -9.95643,0.35558 -10.93993,-1.80297 l 0,0 z"
       id="path9263"
       inkscape:connector-curvature="0"
       transform="translate(0,308.2677)" />
    <path
       style="fill:#f9f9f9;stroke:#f9f9f9;stroke-width:1.01015258;stroke-linecap:square;stroke-miterlimit:4;stroke-dasharray:8.08122036, 8.08122036;stroke-dashoffset:0"
       d="m 750.62228,300.01092 c -53.07902,-3.3798 -61.06566,-4.09778 -62.88199,-5.65297 -1.14432,-0.9798 -2.08058,-2.17243 -2.08058,-2.65028 0,-0.47786 18.94212,-32.44233 42.0936,-71.03215 27.99139,-46.65718 42.5803,-70.06501 43.54632,-69.86989 1.56826,0.31677 38.00214,102.36404 37.0798,103.85641 -0.28294,0.45781 -1.87292,1.13075 -3.53331,1.49543 -1.66038,0.36468 -3.01887,1.13079 -3.01887,1.70245 0,0.63832 1.07195,0.7563 2.77792,0.30574 1.52786,-0.40352 3.38618,-0.79372 4.12961,-0.86713 0.88496,-0.0874 3.91093,7.14503 8.76335,20.94535 6.25088,17.77751 7.23989,21.45582 6.31485,23.48605 -1.38286,3.03504 3.13859,3.14124 -73.1907,-1.71901 l 0,0 z m -47.03637,-9.75131 c 0.2566,-0.76983 -0.83148,-0.78374 -3.73122,-0.0477 -2.2514,0.57144 -4.09346,1.64177 -4.09346,2.37848 0,1.10393 0.65615,1.11231 3.73122,0.0477 2.05217,-0.71048 3.89422,-1.78081 4.09346,-2.3785 l 0,2e-5 z m 15.40883,-4.96606 c 0,-0.99124 -0.78105,-0.98326 -3.73121,0.0381 -5.2976,1.83407 -5.58148,3.70124 -0.35045,2.305 2.24491,-0.59917 4.08166,-1.65357 4.08166,-2.34308 z m 13.95038,-3.51273 c 1.2835,-0.48036 2.06901,-1.30154 1.74558,-1.82486 -0.77159,-1.24846 -7.86491,1.19315 -8.43501,2.90344 -0.43249,1.29748 0.92593,1.07845 6.68943,-1.07858 l 0,0 z m 15.34405,-5.23298 c 2.35651,-0.98502 2.38585,-1.08039 0.43886,-1.42619 -2.64482,-0.46974 -7.50993,1.34069 -7.50993,2.79463 0,1.11913 2.08539,0.71555 7.07107,-1.36844 z m 14.39467,-4.29201 c 2.84405,-0.67833 3.86835,-2.46384 1.41343,-2.46384 -2.43303,0 -7.72688,2.19057 -7.72688,3.19734 0,0.53868 0.79549,0.74308 1.76776,0.45424 0.97227,-0.28885 3.01783,-0.82334 4.54569,-1.18774 z m 14.02494,-4.64404 c 3.78176,-1.13304 5.31966,-2.87056 2.54078,-2.87056 -2.35438,0 -7.72689,2.17578 -7.72689,3.12928 0,1.17409 0.48448,1.14992 5.18611,-0.25872 z m 15.15229,-5.05077 c 3.78175,-1.13303 5.31966,-2.87056 2.54077,-2.87056 -2.35437,0 -7.72688,2.17579 -7.72688,3.12928 0,1.17409 0.48447,1.14993 5.18611,-0.25872 z"
       id="path9265"
       inkscape:connector-curvature="0"
       transform="translate(0,308.2677)" />
    <path
       style="fill:#f9f9f9;stroke:#f9f9f9;stroke-width:1.01015258;stroke-linecap:square;stroke-miterlimit:4;stroke-dasharray:8.08122036, 8.08122036;stroke-dashoffset:0"
       d="m 828.93484,299.4168 c -0.92497,-0.24497 -1.98644,-1.21502 -2.35884,-2.15566 -1.32582,-3.34894 -50.88433,-144.26858 -51.19815,-145.58196 -0.1758,-0.73575 0.20125,-1.5303 0.8379,-1.76567 0.63665,-0.23536 19.23698,18.90127 41.33407,42.52585 l 40.17653,42.95378 0.19842,5.33013 c 0.18567,4.98783 -0.66885,7.06549 -13.30595,32.35171 -7.4274,14.86187 -13.61638,26.96885 -13.75329,26.90441 -0.13691,-0.0645 -1.00572,-0.31762 -1.93069,-0.56259 l 0,0 z m -6.04512,-46.89623 c 2.73829,-0.95456 4.45176,-2.93163 2.54078,-2.93163 -1.91941,0 -8.45096,2.46575 -8.45096,3.19035 0,1.15944 2.10658,1.06723 5.91018,-0.25872 l 0,0 z m 15.15228,-5.05076 c 3.27499,-1.14166 4.57608,-3.48218 1.41343,-2.5426 -0.97227,0.28885 -3.01783,0.82333 -4.54568,1.18773 -1.52786,0.36441 -2.77792,1.06785 -2.77792,1.5632 0,1.20755 2.05653,1.13506 5.91017,-0.20833 z m 17.76107,-6.02386 c 1.66566,-1.61603 -0.012,-2.00046 -3.55693,-0.81507 -5.3043,1.7737 -6.17848,3.26652 -1.42649,2.43598 2.22233,-0.38841 4.46487,-1.11782 4.98342,-1.62091 z"
       id="path9267"
       inkscape:connector-curvature="0"
       transform="translate(0,308.2677)" />
    <g
       id="g9338"
       transform="translate(-191.92898,330.31988)">
      <g
         id="content"
         transform="matrix(1.0629921,0,0,-1.0629921,-186.02362,789.27165)"
         xml:space="preserve"
         stroke-miterlimit="10.433"
         font-style="normal"
         font-variant="normal"
         font-weight="normal"
         font-stretch="normal"
         font-size-adjust="none"
         letter-spacing="normal"
         word-spacing="normal"
         style="font-style:normal;font-variant:normal;font-weight:normal;font-stretch:normal;letter-spacing:normal;word-spacing:normal;text-anchor:start;fill:none;stroke:#000000;stroke-linecap:butt;stroke-linejoin:miter;stroke-miterlimit:10.43299961;stroke-opacity:1;stroke-dasharray:none;stroke-dashoffset:0"><path
           d="m 478.44,422.14 0,0.74 -0.01,0.75 -0.02,0.75 -0.04,0.74 -0.04,0.75 -0.06,0.74 -0.08,0.74 -0.09,0.73 -0.12,0.73 -0.14,0.73 -0.16,0.72 -0.19,0.72 -0.21,0.72 -0.25,0.7 -0.28,0.7 -0.15,0.35 -0.16,0.34 c -2.28,4.8 -6.37,5.6 -8.47,5.6 -2.98,0 -6.62,-1.3 -8.67,-5.94 -1.59,-3.44 -1.84,-7.33 -1.84,-11.31 0,-3.74 0.2,-8.22 2.25,-12 2.14,-4.03 5.78,-5.03 8.22,-5.03 v 1.09 c -1.94,0 -4.89,1.25 -5.79,6.03 -0.54,2.98 -0.54,7.56 -0.54,10.52 0,3.18 0,6.46 0.4,9.15 0.94,5.94 4.68,6.38 5.93,6.38 1.64,0 4.93,-0.89 5.87,-5.83 0.5,-2.78 0.5,-6.58 0.5,-9.7 0,-3.75 0,-7.13 -0.55,-10.32 -0.75,-4.73 -3.59,-6.23 -5.82,-6.23 h 0 v -1.09 c 2.68,0 6.46,1.04 8.67,5.78 1.59,3.43 1.84,7.31 1.84,11.25 z"
           id="path9341"
           inkscape:connector-curvature="0"
           style="fill:#000000;stroke-width:0" /></g>    </g>
    <g
       id="g9485"
       transform="translate(-46.467017,330.89921)">
      <g
         word-spacing="normal"
         letter-spacing="normal"
         font-size-adjust="none"
         font-stretch="normal"
         font-weight="normal"
         font-variant="normal"
         font-style="normal"
         stroke-miterlimit="10.433"
         xml:space="preserve"
         transform="matrix(1.0629921,0,0,-1.0629921,-186.02362,789.27165)"
         id="g9487"
         style="font-style:normal;font-variant:normal;font-weight:normal;font-stretch:normal;letter-spacing:normal;word-spacing:normal;text-anchor:start;fill:none;stroke:#000000;stroke-linecap:butt;stroke-linejoin:miter;stroke-miterlimit:10.43299961;stroke-opacity:1;stroke-dasharray:none;stroke-dashoffset:0"><path
           id="path9489"
           d="m 470.16,438.09 0,0.05 0,0.06 0,0.05 0,0.05 0,0.05 0,0.05 0,0.04 0,0.05 0,0.04 0,0.04 -0.01,0.04 0,0.04 0,0.04 0,0.03 0,0.04 -0.01,0.03 -0.01,0.07 0,0.06 -0.02,0.05 -0.01,0.05 -0.02,0.05 -0.02,0.04 -0.02,0.04 -0.02,0.03 -0.03,0.03 -0.03,0.03 -0.04,0.03 -0.04,0.02 -0.04,0.02 -0.03,0.01 -0.02,0.01 -0.03,0 -0.02,0.01 -0.03,0.01 -0.03,0 -0.03,0.01 -0.03,0 -0.04,0.01 -0.03,0 -0.04,0 -0.03,0.01 -0.04,0 -0.04,0 -0.05,0 -0.04,0 -0.04,0 -0.05,0.01 -0.05,0 -0.05,0 -0.05,0 -0.05,0 c -3.09,-3.19 -7.47,-3.19 -9.06,-3.19 v -1.55 c 1,0 3.93,0 6.51,1.3 v -25.81 c 0,-1.8 -0.14,-2.39 -4.62,-2.39 h -1.6 v -1.55 c 1.75,0.16 6.08,0.16 8.07,0.16 2,0 6.32,0 8.07,-0.16 v 1.55 h -1.59 c -4.48,0 -4.64,0.54 -4.64,2.39 z"
           inkscape:connector-curvature="0"
           style="fill:#000000;stroke-width:0" /></g>    </g>
    <g
       id="g9639"
       transform="translate(154.55334,330.89921)">
      <g
         id="g9641"
         transform="matrix(1.0629921,0,0,-1.0629921,-186.02362,789.27165)"
         xml:space="preserve"
         stroke-miterlimit="10.433"
         font-style="normal"
         font-variant="normal"
         font-weight="normal"
         font-stretch="normal"
         font-size-adjust="none"
         letter-spacing="normal"
         word-spacing="normal"
         style="font-style:normal;font-variant:normal;font-weight:normal;font-stretch:normal;letter-spacing:normal;word-spacing:normal;text-anchor:start;fill:none;stroke:#000000;stroke-linecap:butt;stroke-linejoin:miter;stroke-miterlimit:10.43299961;stroke-opacity:1;stroke-dasharray:none;stroke-dashoffset:0"><path
           d="m 461.85,410.04 5.28,5.13 c 7.76,6.87 10.76,9.56 10.76,14.54 0,5.69 -4.48,9.68 -10.56,9.68 -5.64,0 -9.33,-4.6 -9.33,-9.03 0,-2.79 2.5,-2.79 2.64,-2.79 0.86,0 2.6,0.6 2.6,2.64 0,1.3 -0.89,2.6 -2.64,2.6 -0.39,0 -0.5,0 -0.64,-0.05 1.14,3.24 3.83,5.08 6.72,5.08 4.53,0 6.68,-4.05 6.68,-8.13 0,-3.98 -2.5,-7.92 -5.23,-11.01 l -9.56,-10.66 C 458,407.5 458,407.4 458,406.2 h 18.49 l 1.4,8.67 h -1.25 c -0.25,-1.5 -0.59,-3.69 -1.09,-4.44 -0.36,-0.39 -3.64,-0.39 -4.73,-0.39 z"
           id="path9643"
           inkscape:connector-curvature="0"
           style="fill:#000000;stroke-width:0" /></g>    </g>
    <g
       id="g9799"
       transform="translate(474.7717,330.31988)">
      <g
         word-spacing="normal"
         letter-spacing="normal"
         font-size-adjust="none"
         font-stretch="normal"
         font-weight="normal"
         font-variant="normal"
         font-style="normal"
         stroke-miterlimit="10.433"
         xml:space="preserve"
         transform="matrix(1.0629921,0,0,-1.0629921,-186.02362,789.27165)"
         id="g9801"
         style="font-style:normal;font-variant:normal;font-weight:normal;font-stretch:normal;letter-spacing:normal;word-spacing:normal;text-anchor:start;fill:none;stroke:#000000;stroke-linecap:butt;stroke-linejoin:miter;stroke-miterlimit:10.43299961;stroke-opacity:1;stroke-dasharray:none;stroke-dashoffset:0"><path
           id="path9803"
           d="m 469.97,423.73 0.38,0.13 0.37,0.15 0.37,0.15 0.35,0.17 0.35,0.18 0.34,0.19 0.33,0.2 0.32,0.22 0.31,0.22 0.31,0.23 0.29,0.24 0.28,0.25 0.27,0.26 0.26,0.27 0.25,0.27 0.24,0.29 0.22,0.29 0.21,0.3 0.2,0.3 0.19,0.32 0.18,0.32 0.16,0.32 0.14,0.33 0.14,0.34 0.11,0.34 0.11,0.34 0.09,0.35 0.07,0.36 0.06,0.36 0.04,0.36 0.02,0.36 0.01,0.37 c 0,4.08 -4.39,6.88 -9.17,6.88 -5.03,0 -8.81,-3 -8.81,-6.78 0,-1.65 1.09,-2.6 2.54,-2.6 1.54,0 2.54,1.1 2.54,2.55 0,2.48 -2.35,2.48 -3.08,2.48 1.53,2.44 4.83,3.1 6.62,3.1 2.03,0 4.78,-1.1 4.78,-5.58 0,-0.61 -0.11,-3.49 -1.4,-5.69 -1.49,-2.39 -3.19,-2.53 -4.42,-2.59 -0.41,-0.05 -1.6,-0.14 -1.96,-0.14 -0.39,-0.05 -0.75,-0.1 -0.75,-0.6 0,-0.54 0.36,-0.54 1.21,-0.54 h 2.18 c 4.1,0 5.94,-3.39 5.94,-8.29 0,-6.76 -3.44,-8.21 -5.64,-8.21 -2.14,0 -5.88,0.84 -7.61,3.78 1.73,-0.24 3.28,0.86 3.28,2.75 0,1.79 -1.34,2.78 -2.8,2.78 -1.18,0 -2.78,-0.69 -2.78,-2.89 0,-4.53 4.63,-7.81 10.07,-7.81 6.07,0 10.61,4.53 10.61,9.6 0,4.1 -3.15,7.97 -8.32,9.02 z"
           inkscape:connector-curvature="0"
           style="fill:#000000;stroke-width:0" /></g>    </g>
    <rect
       style="fill:none;stroke:#f9f9f9;stroke-width:1;stroke-linecap:square;stroke-miterlimit:4;stroke-dasharray:8, 8;stroke-dashoffset:0"
       id="rect9884"
       width="856.60938"
       height="284.86304"
       x="36.365494"
       y="118.81005"
       transform="translate(0,308.2677)" />
  </g>
</svg>
