<?xml version="1.0" encoding="UTF-8" standalone="no"?>
<!-- Created with Inkscape (http://www.inkscape.org/) -->

<svg
   xmlns:dc="http://purl.org/dc/elements/1.1/"
   xmlns:cc="http://creativecommons.org/ns#"
   xmlns:rdf="http://www.w3.org/1999/02/22-rdf-syntax-ns#"
   xmlns:svg="http://www.w3.org/2000/svg"
   xmlns="http://www.w3.org/2000/svg"
   xmlns:sodipodi="http://sodipodi.sourceforge.net/DTD/sodipodi-0.dtd"
   xmlns:inkscape="http://www.inkscape.org/namespaces/inkscape"
   width="210mm"
   height="297mm"
   id="svg2"
   version="1.1"
   inkscape:version="0.48.3.1 r9886"
   sodipodi:docname="adjunction.svg"
   inkscape:export-filename="/home/nineties/projects/category-seminar/fig/adjunction.png"
   inkscape:export-xdpi="90"
   inkscape:export-ydpi="90">
  <sodipodi:namedview
     id="base"
     pagecolor="#ffffff"
     bordercolor="#666666"
     borderopacity="1.0"
     inkscape:pageopacity="0.0"
     inkscape:pageshadow="2"
     inkscape:zoom="1.0889787"
     inkscape:cx="377.53374"
     inkscape:cy="798.82187"
     inkscape:document-units="px"
     inkscape:current-layer="layer1"
     showgrid="false"
     inkscape:window-width="1366"
     inkscape:window-height="746"
     inkscape:window-x="0"
     inkscape:window-y="22"
     inkscape:window-maximized="0" />
  <defs
     id="defs4">
    <marker
       inkscape:stockid="Arrow1Lstart"
       orient="auto"
       refY="0.0"
       refX="0.0"
       id="Arrow1Lstart"
       style="overflow:visible">
      <path
         id="path4737"
         d="M 0.0,0.0 L 5.0,-5.0 L -12.5,0.0 L 5.0,5.0 L 0.0,0.0 z "
         style="fill-rule:evenodd;stroke:#000000;stroke-width:1.0pt"
         transform="scale(0.8) translate(12.5,0)" />
    </marker>
    <marker
       inkscape:stockid="Arrow1Lend"
       orient="auto"
       refY="0.0"
       refX="0.0"
       id="Arrow1Lend"
       style="overflow:visible;">
      <path
         id="path4740"
         d="M 0.0,0.0 L 5.0,-5.0 L -12.5,0.0 L 5.0,5.0 L 0.0,0.0 z "
         style="fill-rule:evenodd;stroke:#000000;stroke-width:1.0pt;"
         transform="scale(0.8) rotate(180) translate(12.5,0)" />
    </marker>
    <marker
       style="overflow:visible"
       id="Arrow1Lendo"
       orient="auto"
       refY="0"
       refX="0"
       inkscape:stockid="Arrow1Lendo">
      <path
         style="fill:#000000;fill-rule:evenodd;stroke:#000000;stroke-width:1pt"
         id="path7302"
         transform="matrix(-0.8,0,0,-0.8,-10,0)"
         d="M 0,0 5,-5 -12.5,0 5,5 0,0 z"
         inkscape:connector-curvature="0" />
    </marker>
    <marker
       style="overflow:visible"
       id="Arrow1Lend3"
       orient="auto"
       refY="0"
       refX="0"
       inkscape:stockid="Arrow1Lend3">
      <path
         style="fill:#1a1a1a;fill-rule:evenodd;stroke:#1a1a1a;stroke-width:1pt"
         id="path7278"
         transform="matrix(-0.8,0,0,-0.8,-10,0)"
         d="M 0,0 5,-5 -12.5,0 5,5 0,0 z"
         inkscape:connector-curvature="0" />
    </marker>
    <marker
       style="overflow:visible"
       id="Arrow1LendZ"
       orient="auto"
       refY="0"
       refX="0"
       inkscape:stockid="Arrow1LendZ">
      <path
         style="fill:#4d4d4d;fill-rule:evenodd;stroke:#4d4d4d;stroke-width:1pt"
         id="path7272"
         transform="matrix(-0.8,0,0,-0.8,-10,0)"
         d="M 0,0 5,-5 -12.5,0 5,5 0,0 z"
         inkscape:connector-curvature="0" />
    </marker>
    <marker
       style="overflow:visible"
       id="Arrow1Lendh"
       orient="auto"
       refY="0"
       refX="0"
       inkscape:stockid="Arrow1Lendh">
      <path
         style="fill:#808080;fill-rule:evenodd;stroke:#808080;stroke-width:1pt"
         id="path7296"
         transform="matrix(-0.8,0,0,-0.8,-10,0)"
         d="M 0,0 5,-5 -12.5,0 5,5 0,0 z"
         inkscape:connector-curvature="0" />
    </marker>
    <marker
       style="overflow:visible"
       id="Arrow1LendH"
       orient="auto"
       refY="0"
       refX="0"
       inkscape:stockid="Arrow1LendH">
      <path
         style="fill:#b3b3b3;fill-rule:evenodd;stroke:#b3b3b3;stroke-width:1pt"
         id="path7284"
         transform="matrix(-0.8,0,0,-0.8,-10,0)"
         d="M 0,0 5,-5 -12.5,0 5,5 0,0 z"
         inkscape:connector-curvature="0" />
    </marker>
    <marker
       style="overflow:visible"
       id="Arrow1LendM"
       orient="auto"
       refY="0"
       refX="0"
       inkscape:stockid="Arrow1LendM">
      <path
         style="fill:#e6e6e6;fill-rule:evenodd;stroke:#e6e6e6;stroke-width:1pt"
         id="path7269"
         transform="matrix(-0.8,0,0,-0.8,-10,0)"
         d="M 0,0 5,-5 -12.5,0 5,5 0,0 z"
         inkscape:connector-curvature="0" />
    </marker>
    <marker
       style="overflow:visible"
       id="marker9881"
       orient="auto"
       refY="0"
       refX="0"
       inkscape:stockid="Arrow1Lend3">
      <path
         style="fill:#1a1a1a;fill-rule:evenodd;stroke:#1a1a1a;stroke-width:1pt"
         id="path9883"
         transform="matrix(-0.8,0,0,-0.8,-10,0)"
         d="M 0,0 5,-5 -12.5,0 5,5 0,0 z"
         inkscape:connector-curvature="0" />
    </marker>
    <marker
       style="overflow:visible"
       id="marker9885"
       orient="auto"
       refY="0"
       refX="0"
       inkscape:stockid="Arrow1LendZ">
      <path
         style="fill:#4d4d4d;fill-rule:evenodd;stroke:#4d4d4d;stroke-width:1pt"
         id="path9887"
         transform="matrix(-0.8,0,0,-0.8,-10,0)"
         d="M 0,0 5,-5 -12.5,0 5,5 0,0 z"
         inkscape:connector-curvature="0" />
    </marker>
    <marker
       style="overflow:visible"
       id="marker9889"
       orient="auto"
       refY="0"
       refX="0"
       inkscape:stockid="Arrow1Lendh">
      <path
         style="fill:#808080;fill-rule:evenodd;stroke:#808080;stroke-width:1pt"
         id="path9891"
         transform="matrix(-0.8,0,0,-0.8,-10,0)"
         d="M 0,0 5,-5 -12.5,0 5,5 0,0 z"
         inkscape:connector-curvature="0" />
    </marker>
    <marker
       style="overflow:visible"
       id="marker9893"
       orient="auto"
       refY="0"
       refX="0"
       inkscape:stockid="Arrow1LendH">
      <path
         style="fill:#b3b3b3;fill-rule:evenodd;stroke:#b3b3b3;stroke-width:1pt"
         id="path9895"
         transform="matrix(-0.8,0,0,-0.8,-10,0)"
         d="M 0,0 5,-5 -12.5,0 5,5 0,0 z"
         inkscape:connector-curvature="0" />
    </marker>
    <marker
       style="overflow:visible"
       id="marker9897"
       orient="auto"
       refY="0"
       refX="0"
       inkscape:stockid="Arrow1LendM">
      <path
         style="fill:#e6e6e6;fill-rule:evenodd;stroke:#e6e6e6;stroke-width:1pt"
         id="path9899"
         transform="matrix(-0.8,0,0,-0.8,-10,0)"
         d="M 0,0 5,-5 -12.5,0 5,5 0,0 z"
         inkscape:connector-curvature="0" />
    </marker>
    <marker
       style="overflow:visible"
       id="Arrow1Lendo-1"
       orient="auto"
       refY="0"
       refX="0"
       inkscape:stockid="Arrow1Lendo">
      <path
         style="fill:#000000;fill-rule:evenodd;stroke:#000000;stroke-width:1pt"
         id="path7302-3"
         transform="matrix(-0.8,0,0,-0.8,-10,0)"
         d="M 0,0 5,-5 -12.5,0 5,5 0,0 z"
         inkscape:connector-curvature="0" />
    </marker>
    <marker
       style="overflow:visible"
       id="Arrow1Lend3-5"
       orient="auto"
       refY="0"
       refX="0"
       inkscape:stockid="Arrow1Lend3">
      <path
         style="fill:#1a1a1a;fill-rule:evenodd;stroke:#1a1a1a;stroke-width:1pt"
         id="path7278-4"
         transform="matrix(-0.8,0,0,-0.8,-10,0)"
         d="M 0,0 5,-5 -12.5,0 5,5 0,0 z"
         inkscape:connector-curvature="0" />
    </marker>
    <marker
       style="overflow:visible"
       id="Arrow1LendZ-7"
       orient="auto"
       refY="0"
       refX="0"
       inkscape:stockid="Arrow1LendZ">
      <path
         style="fill:#4d4d4d;fill-rule:evenodd;stroke:#4d4d4d;stroke-width:1pt"
         id="path7272-0"
         transform="matrix(-0.8,0,0,-0.8,-10,0)"
         d="M 0,0 5,-5 -12.5,0 5,5 0,0 z"
         inkscape:connector-curvature="0" />
    </marker>
    <marker
       style="overflow:visible"
       id="Arrow1Lendh-9"
       orient="auto"
       refY="0"
       refX="0"
       inkscape:stockid="Arrow1Lendh">
      <path
         style="fill:#808080;fill-rule:evenodd;stroke:#808080;stroke-width:1pt"
         id="path7296-3"
         transform="matrix(-0.8,0,0,-0.8,-10,0)"
         d="M 0,0 5,-5 -12.5,0 5,5 0,0 z"
         inkscape:connector-curvature="0" />
    </marker>
    <marker
       style="overflow:visible"
       id="Arrow1LendH-4"
       orient="auto"
       refY="0"
       refX="0"
       inkscape:stockid="Arrow1LendH">
      <path
         style="fill:#b3b3b3;fill-rule:evenodd;stroke:#b3b3b3;stroke-width:1pt"
         id="path7284-4"
         transform="matrix(-0.8,0,0,-0.8,-10,0)"
         d="M 0,0 5,-5 -12.5,0 5,5 0,0 z"
         inkscape:connector-curvature="0" />
    </marker>
    <marker
       style="overflow:visible"
       id="Arrow1LendM-9"
       orient="auto"
       refY="0"
       refX="0"
       inkscape:stockid="Arrow1LendM">
      <path
         style="fill:#e6e6e6;fill-rule:evenodd;stroke:#e6e6e6;stroke-width:1pt"
         id="path7269-6"
         transform="matrix(-0.8,0,0,-0.8,-10,0)"
         d="M 0,0 5,-5 -12.5,0 5,5 0,0 z"
         inkscape:connector-curvature="0" />
    </marker>
    <marker
       style="overflow:visible"
       id="marker10008"
       orient="auto"
       refY="0"
       refX="0"
       inkscape:stockid="Arrow1Lend3">
      <path
         style="fill:#1a1a1a;fill-rule:evenodd;stroke:#1a1a1a;stroke-width:1pt"
         id="path10010"
         transform="matrix(-0.8,0,0,-0.8,-10,0)"
         d="M 0,0 5,-5 -12.5,0 5,5 0,0 z"
         inkscape:connector-curvature="0" />
    </marker>
    <marker
       style="overflow:visible"
       id="marker10012"
       orient="auto"
       refY="0"
       refX="0"
       inkscape:stockid="Arrow1LendZ">
      <path
         style="fill:#4d4d4d;fill-rule:evenodd;stroke:#4d4d4d;stroke-width:1pt"
         id="path10014"
         transform="matrix(-0.8,0,0,-0.8,-10,0)"
         d="M 0,0 5,-5 -12.5,0 5,5 0,0 z"
         inkscape:connector-curvature="0" />
    </marker>
    <marker
       style="overflow:visible"
       id="marker10016"
       orient="auto"
       refY="0"
       refX="0"
       inkscape:stockid="Arrow1Lendh">
      <path
         style="fill:#808080;fill-rule:evenodd;stroke:#808080;stroke-width:1pt"
         id="path10018"
         transform="matrix(-0.8,0,0,-0.8,-10,0)"
         d="M 0,0 5,-5 -12.5,0 5,5 0,0 z"
         inkscape:connector-curvature="0" />
    </marker>
    <marker
       style="overflow:visible"
       id="marker10020"
       orient="auto"
       refY="0"
       refX="0"
       inkscape:stockid="Arrow1LendH">
      <path
         style="fill:#b3b3b3;fill-rule:evenodd;stroke:#b3b3b3;stroke-width:1pt"
         id="path10022"
         transform="matrix(-0.8,0,0,-0.8,-10,0)"
         d="M 0,0 5,-5 -12.5,0 5,5 0,0 z"
         inkscape:connector-curvature="0" />
    </marker>
    <marker
       style="overflow:visible"
       id="marker10024"
       orient="auto"
       refY="0"
       refX="0"
       inkscape:stockid="Arrow1LendM">
      <path
         style="fill:#e6e6e6;fill-rule:evenodd;stroke:#e6e6e6;stroke-width:1pt"
         id="path10026"
         transform="matrix(-0.8,0,0,-0.8,-10,0)"
         d="M 0,0 5,-5 -12.5,0 5,5 0,0 z"
         inkscape:connector-curvature="0" />
    </marker>
    <marker
       style="overflow:visible"
       id="Arrow1Lendo-8"
       orient="auto"
       refY="0"
       refX="0"
       inkscape:stockid="Arrow1Lendo">
      <path
         style="fill:#000000;fill-rule:evenodd;stroke:#000000;stroke-width:1pt"
         id="path7302-9"
         transform="matrix(-0.8,0,0,-0.8,-10,0)"
         d="M 0,0 5,-5 -12.5,0 5,5 0,0 z"
         inkscape:connector-curvature="0" />
    </marker>
    <marker
       style="overflow:visible"
       id="Arrow1Lend3-9"
       orient="auto"
       refY="0"
       refX="0"
       inkscape:stockid="Arrow1Lend3">
      <path
         style="fill:#1a1a1a;fill-rule:evenodd;stroke:#1a1a1a;stroke-width:1pt"
         id="path7278-3"
         transform="matrix(-0.8,0,0,-0.8,-10,0)"
         d="M 0,0 5,-5 -12.5,0 5,5 0,0 z"
         inkscape:connector-curvature="0" />
    </marker>
    <marker
       style="overflow:visible"
       id="Arrow1LendZ-2"
       orient="auto"
       refY="0"
       refX="0"
       inkscape:stockid="Arrow1LendZ">
      <path
         style="fill:#4d4d4d;fill-rule:evenodd;stroke:#4d4d4d;stroke-width:1pt"
         id="path7272-4"
         transform="matrix(-0.8,0,0,-0.8,-10,0)"
         d="M 0,0 5,-5 -12.5,0 5,5 0,0 z"
         inkscape:connector-curvature="0" />
    </marker>
    <marker
       style="overflow:visible"
       id="Arrow1Lendh-0"
       orient="auto"
       refY="0"
       refX="0"
       inkscape:stockid="Arrow1Lendh">
      <path
         style="fill:#808080;fill-rule:evenodd;stroke:#808080;stroke-width:1pt"
         id="path7296-7"
         transform="matrix(-0.8,0,0,-0.8,-10,0)"
         d="M 0,0 5,-5 -12.5,0 5,5 0,0 z"
         inkscape:connector-curvature="0" />
    </marker>
    <marker
       style="overflow:visible"
       id="Arrow1LendH-3"
       orient="auto"
       refY="0"
       refX="0"
       inkscape:stockid="Arrow1LendH">
      <path
         style="fill:#b3b3b3;fill-rule:evenodd;stroke:#b3b3b3;stroke-width:1pt"
         id="path7284-1"
         transform="matrix(-0.8,0,0,-0.8,-10,0)"
         d="M 0,0 5,-5 -12.5,0 5,5 0,0 z"
         inkscape:connector-curvature="0" />
    </marker>
    <marker
       style="overflow:visible"
       id="Arrow1LendM-8"
       orient="auto"
       refY="0"
       refX="0"
       inkscape:stockid="Arrow1LendM">
      <path
         style="fill:#e6e6e6;fill-rule:evenodd;stroke:#e6e6e6;stroke-width:1pt"
         id="path7269-9"
         transform="matrix(-0.8,0,0,-0.8,-10,0)"
         d="M 0,0 5,-5 -12.5,0 5,5 0,0 z"
         inkscape:connector-curvature="0" />
    </marker>
    <marker
       style="overflow:visible"
       id="marker10159"
       orient="auto"
       refY="0"
       refX="0"
       inkscape:stockid="Arrow1Lend3">
      <path
         style="fill:#1a1a1a;fill-rule:evenodd;stroke:#1a1a1a;stroke-width:1pt"
         id="path10161"
         transform="matrix(-0.8,0,0,-0.8,-10,0)"
         d="M 0,0 5,-5 -12.5,0 5,5 0,0 z"
         inkscape:connector-curvature="0" />
    </marker>
    <marker
       style="overflow:visible"
       id="marker10163"
       orient="auto"
       refY="0"
       refX="0"
       inkscape:stockid="Arrow1LendZ">
      <path
         style="fill:#4d4d4d;fill-rule:evenodd;stroke:#4d4d4d;stroke-width:1pt"
         id="path10165"
         transform="matrix(-0.8,0,0,-0.8,-10,0)"
         d="M 0,0 5,-5 -12.5,0 5,5 0,0 z"
         inkscape:connector-curvature="0" />
    </marker>
    <marker
       style="overflow:visible"
       id="marker10167"
       orient="auto"
       refY="0"
       refX="0"
       inkscape:stockid="Arrow1Lendh">
      <path
         style="fill:#808080;fill-rule:evenodd;stroke:#808080;stroke-width:1pt"
         id="path10169"
         transform="matrix(-0.8,0,0,-0.8,-10,0)"
         d="M 0,0 5,-5 -12.5,0 5,5 0,0 z"
         inkscape:connector-curvature="0" />
    </marker>
    <marker
       style="overflow:visible"
       id="marker10171"
       orient="auto"
       refY="0"
       refX="0"
       inkscape:stockid="Arrow1LendH">
      <path
         style="fill:#b3b3b3;fill-rule:evenodd;stroke:#b3b3b3;stroke-width:1pt"
         id="path10173"
         transform="matrix(-0.8,0,0,-0.8,-10,0)"
         d="M 0,0 5,-5 -12.5,0 5,5 0,0 z"
         inkscape:connector-curvature="0" />
    </marker>
    <marker
       style="overflow:visible"
       id="marker10175"
       orient="auto"
       refY="0"
       refX="0"
       inkscape:stockid="Arrow1LendM">
      <path
         style="fill:#e6e6e6;fill-rule:evenodd;stroke:#e6e6e6;stroke-width:1pt"
         id="path10177"
         transform="matrix(-0.8,0,0,-0.8,-10,0)"
         d="M 0,0 5,-5 -12.5,0 5,5 0,0 z"
         inkscape:connector-curvature="0" />
    </marker>
    <marker
       inkscape:stockid="Arrow1LendoV"
       orient="auto"
       refY="0.0"
       refX="0.0"
       id="Arrow1LendoV"
       style="overflow:visible;">
      <path
         id="path10590"
         d="M 0.0,0.0 L 5.0,-5.0 L -12.5,0.0 L 5.0,5.0 L 0.0,0.0 z "
         style="stroke:#ff0000;stroke-width:1.0pt;fill:#ff0000;fill-rule:evenodd"
         transform="scale(0.8) rotate(180) translate(12.5,0)" />
    </marker>
    <marker
       inkscape:stockid="Arrow1LendJR"
       refX="0"
       refY="0"
       orient="auto"
       id="Arrow1LendJR"
       style="overflow:visible">
      <path
         inkscape:connector-curvature="0"
         d="M 0,0 5,-5 -12.5,0 5,5 0,0 z"
         transform="matrix(-0.8,0,0,-0.8,-10,0)"
         id="path5197"
         style="fill:#008000;fill-rule:evenodd;stroke:#008000;stroke-width:1pt" />
    </marker>
    <marker
       inkscape:stockid="Arrow1LendGw"
       refX="0"
       refY="0"
       orient="auto"
       id="Arrow1LendGw"
       style="overflow:visible">
      <path
         inkscape:connector-curvature="0"
         d="M 0,0 5,-5 -12.5,0 5,5 0,0 z"
         transform="matrix(-0.8,0,0,-0.8,-10,0)"
         id="path5200"
         style="fill:#008000;fill-rule:evenodd;stroke:#008000;stroke-width:1pt" />
    </marker>
    <marker
       refX="0"
       refY="0"
       orient="auto"
       id="Arrow1Lstart-5"
       style="overflow:visible">
      <path
         inkscape:connector-curvature="0"
         d="M 0,0 5,-5 -12.5,0 5,5 0,0 z"
         transform="matrix(0.8,0,0,0.8,10,0)"
         id="path8130"
         style="fill-rule:evenodd;stroke:#000000;stroke-width:1pt" />
    </marker>
    <marker
       refX="0"
       refY="0"
       orient="auto"
       id="Arrow1Lend-5"
       style="overflow:visible">
      <path
         inkscape:connector-curvature="0"
         d="M 0,0 5,-5 -12.5,0 5,5 0,0 z"
         transform="matrix(-0.8,0,0,-0.8,-10,0)"
         id="path4800"
         style="fill-rule:evenodd;stroke:#000000;stroke-width:1pt" />
    </marker>
    <marker
       inkscape:stockid="Arrow1LendJRi"
       refX="0"
       refY="0"
       orient="auto"
       id="Arrow1LendJRi"
       style="overflow:visible">
      <path
         inkscape:connector-curvature="0"
         d="M 0,0 5,-5 -12.5,0 5,5 0,0 z"
         transform="matrix(-0.8,0,0,-0.8,-10,0)"
         id="path11492"
         style="stroke-width:1pt;stroke:#000000;fill-rule:evenodd;fill:#000000" />
    </marker>
    <marker
       inkscape:stockid="Arrow1LendGwO"
       refX="0"
       refY="0"
       orient="auto"
       id="Arrow1LendGwO"
       style="overflow:visible">
      <path
         inkscape:connector-curvature="0"
         d="M 0,0 5,-5 -12.5,0 5,5 0,0 z"
         transform="matrix(-0.8,0,0,-0.8,-10,0)"
         id="path11495"
         style="stroke-width:1pt;stroke:#000000;fill-rule:evenodd;fill:#000000" />
    </marker>
  </defs>
  <metadata
     id="metadata7">
    <rdf:RDF>
      <cc:Work
         rdf:about="">
        <dc:format>image/svg+xml</dc:format>
        <dc:type
           rdf:resource="http://purl.org/dc/dcmitype/StillImage" />
        <dc:title></dc:title>
      </cc:Work>
    </rdf:RDF>
  </metadata>
  <g
     id="layer1"
     inkscape:groupmode="layer"
     inkscape:label="レイヤー 1">
    <g
       transform="translate(-462.28099,106.77686)"
       id="g3069" />
    <path
       inkscape:connector-curvature="0"
       d="m 76.512579,196.94806 h 5.13425 c 3.98622,0 4.40079,0.85039 4.40079,2.3811 0,0.38268 0,1.00984 -0.36142,2.5937 -0.11693,0.26575 -0.17007,0.47835 -0.17007,0.59528 0,0.41456 0.31889,0.62716 0.63779,0.62716 0.5315,0 0.5315,-0.15945 0.79724,-1.11614 l 2.92323,-11.49095 c 0.14882,-0.57401 0.14882,-0.69094 0.14882,-0.83976 0,-0.1063 -0.1063,-0.58465 -0.63779,-0.58465 -0.5315,0 -0.57402,0.26575 -0.79725,1.11615 -1.10551,4.11378 -2.31732,5.0811 -6.82441,5.0811 h -4.81535 l 3.39094,-13.45748 c 0.45709,-1.86024 0.5315,-2.06221 2.84882,-2.06221 h 6.99449 c 6.51614,0 7.72795,1.74331 7.72795,5.81457 0,1.23307 0,1.43504 -0.14882,2.87008 -0.11692,0.69094 -0.11692,0.78661 -0.11692,0.95669 0,0.26575 0.15944,0.62717 0.64842,0.62717 0.57402,0 0.62717,-0.3189 0.73346,-1.32874 l 1.063001,-9.15236 c 0.15945,-1.42441 -0.106301,-1.42441 -1.435041,-1.42441 h -25.93701 c -1.06299,0 -1.59449,0 -1.59449,1.06299 0,0.57401 0.47835,0.57401 1.47756,0.57401 1.95591,0 3.43347,0 3.43347,0.94607 0,0.22323 0,0.31889 -0.26575,1.28622 l -6.97323,27.99921 c -0.5315,2.07283 -0.64843,2.4874 -4.83661,2.4874 -0.89292,0 -1.47756,0 -1.47756,1.02047 0,0.62717 0.62716,0.62717 0.79724,0.62717 1.53071,0 5.45315,-0.17008 6.99449,-0.17008 1.74331,0 6.14409,0.17008 7.8874,0.17008 0.47835,0 1.11614,0 1.11614,-1.00984 0,-0.41457 -0.3189,-0.52087 -0.3189,-0.58465 -0.17007,-0.0531 -0.26574,-0.0531 -1.47756,-0.0531 -1.17992,0 -1.44566,0 -2.75314,-0.0957 -1.55197,-0.17008 -1.70079,-0.38268 -1.70079,-1.06299 0,-0.0957 0,-0.43583 0.20197,-1.21181 z"
       id="path6408"
       style="font-style:normal;font-variant:normal;font-weight:normal;font-stretch:normal;letter-spacing:normal;word-spacing:normal;text-anchor:start;fill:#000000;stroke:#000000;stroke-width:0;stroke-linecap:butt;stroke-linejoin:miter;stroke-miterlimit:10.43299960999999954;stroke-opacity:1;stroke-dasharray:none;stroke-dashoffset:0" />
    <path
       inkscape:connector-curvature="0"
       d="m 119.44683,226.86065 0,-0.0213 0,-0.0319 0,-0.0106 0,-0.0213 0,-0.0106 -0.0106,-0.0213 0,-0.0106 -0.0106,-0.0213 -0.0106,-0.0213 -0.0106,-0.0213 -0.0106,-0.0213 -0.0213,-0.0319 -0.0106,-0.0213 -0.0213,-0.0319 -0.0213,-0.0319 -0.0319,-0.0319 -0.0213,-0.0319 -0.0319,-0.0425 -0.0213,-0.0213 -0.0106,-0.0213 -0.0213,-0.0213 -0.0213,-0.0213 -0.0213,-0.0213 -0.0213,-0.0319 -0.0213,-0.0213 -0.0213,-0.0213 -0.0213,-0.0319 -0.0319,-0.0213 -0.0213,-0.0319 -0.0319,-0.0319 -0.0319,-0.0319 -0.0213,-0.0319 -0.0319,-0.0319 -0.0319,-0.0319 -0.0319,-0.0319 -0.0319,-0.0319 -0.0425,-0.0425 -0.0319,-0.0319 -0.0425,-0.0425 -0.0319,-0.0319 -0.0425,-0.0425 -0.0425,-0.0425 c -6.61181,-6.67559 -8.30197,-16.67834 -8.30197,-24.77834 0,-9.21614 2.00906,-18.44292 8.51457,-25.0441 0.68031,-0.64843 0.68031,-0.75472 0.68031,-0.91417 0,-0.37205 -0.19134,-0.52087 -0.51023,-0.52087 -0.5315,0 -5.2937,3.59292 -8.4189,10.31103 -2.71063,5.83582 -3.3378,11.71417 -3.3378,16.16811 0,4.13504 0.57402,10.52362 3.48662,16.51889 3.16771,6.51615 7.73858,9.94961 8.27008,9.94961 0.31889,0 0.51023,-0.14882 0.51023,-0.5315 z"
       id="path6410"
       style="font-style:normal;font-variant:normal;font-weight:normal;font-stretch:normal;letter-spacing:normal;word-spacing:normal;text-anchor:start;fill:#000000;stroke:#000000;stroke-width:0;stroke-linecap:butt;stroke-linejoin:miter;stroke-miterlimit:10.43299961;stroke-opacity:1;stroke-dasharray:none;stroke-dashoffset:0" />
    <path
       inkscape:connector-curvature="0"
       d="m 148.13698,192.38782 -4.43268,-10.53425 c -0.17008,-0.43583 -0.26575,-0.62717 -0.26575,-0.68032 0,-0.32952 0.89292,-1.32874 3.1252,-1.54133 0.5315,-0.0532 1.06299,-0.1063 1.06299,-1.02048 0,-0.62716 -0.64842,-0.62716 -0.79724,-0.62716 -2.17913,0 -4.45394,0.17008 -6.67559,0.17008 -1.32874,0 -4.60276,-0.17008 -5.9315,-0.17008 -0.31889,0 -0.96732,0 -0.96732,1.06299 0,0.58465 0.5315,0.58465 1.23307,0.58465 3.16772,0 3.48662,0.53149 3.96496,1.69015 l 6.2504,14.78622 -11.18268,12.02244 -0.68032,0.58465 c -2.5937,2.8063 -5.08109,3.64606 -7.79172,3.79488 -0.68031,0.0531 -1.15866,0.0531 -1.15866,1.06299 0,0.0532 0,0.58465 0.70157,0.58465 1.57323,0 3.31654,-0.17008 4.96418,-0.17008 1.95589,0 4.02873,0.17008 5.93148,0.17008 0.32953,0 0.9567,0 0.9567,-1.06299 0,-0.5315 -0.5315,-0.58465 -0.62717,-0.58465 -0.47835,-0.0425 -2.12598,-0.14882 -2.12598,-1.63701 0,-0.85039 0.79724,-1.70078 1.42441,-2.3811 l 5.4,-5.72953 4.7622,-5.17677 5.35748,12.64961 c 0.2126,0.58464 0.26575,0.63779 0.26575,0.75472 0,0.41457 -0.99921,1.30748 -3.07205,1.52008 -0.58464,0.0531 -1.05236,0.11693 -1.05236,1.02047 0,0.62717 0.58465,0.62717 0.78661,0.62717 1.48819,0 5.19804,-0.17008 6.67559,-0.17008 1.32874,0 4.54961,0.17008 5.87835,0.17008 0.36142,0 1.00984,0 1.00984,-1.00984 0,-0.6378 -0.53149,-0.6378 -0.96732,-0.6378 -3.52913,-0.0425 -3.64606,-0.2126 -4.54961,-2.31732 -2.05157,-4.93228 -5.61259,-13.19173 -6.8244,-16.35945 3.60354,-3.72047 9.15236,-10.02402 10.84251,-11.50157 1.55197,-1.2756 3.56103,-2.54056 6.72874,-2.7 0.70158,-0.0532 1.1693,-0.0532 1.1693,-1.063 0,-0.0531 0,-0.58464 -0.68032,-0.58464 -1.59449,0 -3.33779,0.17008 -4.98543,0.17008 -1.96654,0 -3.97559,-0.17008 -5.87835,-0.17008 -0.3189,0 -0.99921,0 -0.99921,1.06299 0,0.36142 0.26575,0.5315 0.62716,0.58465 0.48898,0.0425 2.12599,0.15944 2.12599,1.637 0,0.75473 -0.57402,1.43504 -1.00984,1.91339 z"
       id="path6412"
       style="font-style:normal;font-variant:normal;font-weight:normal;font-stretch:normal;letter-spacing:normal;word-spacing:normal;text-anchor:start;fill:#000000;stroke:#000000;stroke-width:0;stroke-linecap:butt;stroke-linejoin:miter;stroke-miterlimit:10.43299961;stroke-opacity:1;stroke-dasharray:none;stroke-dashoffset:0" />
    <path
       inkscape:connector-curvature="0"
       d="m 185.85194,200.92365 -0.0106,-0.39331 0,-0.41457 -0.0106,-0.41456 -0.0106,-0.43583 -0.0425,-0.89291 -0.0638,-0.93544 -0.0957,-0.97795 -0.1063,-1.00984 -0.14882,-1.0311 -0.17008,-1.07363 -0.21259,-1.08425 -0.24449,-1.09488 -0.27638,-1.11614 -0.32953,-1.12677 -0.37204,-1.13741 -0.41457,-1.1374 -0.22323,-0.56338 -0.24449,-0.56339 -0.25512,-0.56338 -0.26574,-0.56339 c -3.16772,-6.50551 -7.71733,-9.94961 -8.24882,-9.94961 -0.3189,0 -0.5315,0.20197 -0.5315,0.52087 0,0.15945 0,0.26574 0.98858,1.22244 5.20866,5.22992 8.22756,13.65945 8.22756,24.73583 0,9.04606 -1.9559,18.3685 -8.53582,25.04409 -0.68032,0.62717 -0.68032,0.7441 -0.68032,0.89291 0,0.3189 0.2126,0.5315 0.5315,0.5315 0.53149,0 5.28307,-3.60354 8.41889,-10.32165 2.68937,-5.81457 3.32717,-11.69292 3.32717,-16.14685 z"
       id="path6414"
       style="font-style:normal;font-variant:normal;font-weight:normal;font-stretch:normal;letter-spacing:normal;word-spacing:normal;text-anchor:start;fill:#000000;stroke:#000000;stroke-width:0;stroke-linecap:butt;stroke-linejoin:miter;stroke-miterlimit:10.43299961;stroke-opacity:1;stroke-dasharray:none;stroke-dashoffset:0" />
    <g
       transform="translate(304.79345,-135.64985)"
       id="g7202">
      <g
         transform="matrix(1.0629921,0,0,-1.0629921,-186.02362,789.27165)"
         id="g7204"
         xml:space="preserve"
         style="font-style:normal;font-variant:normal;font-weight:normal;font-stretch:normal;letter-spacing:normal;word-spacing:normal;text-anchor:start;fill:none;stroke:#000000;stroke-linecap:butt;stroke-linejoin:miter;stroke-miterlimit:10.43299961;stroke-opacity:1;stroke-dasharray:none;stroke-dashoffset:0"><path
           inkscape:connector-curvature="0"
           d="m 464.33,428.21 -6.97,-0.54 v -1.55 c 3.24,0 3.69,-0.3 3.69,-2.73 v -13.41 c 0,-2.23 -0.55,-2.23 -3.89,-2.23 v -1.55 c 1.59,0.05 4.28,0.16 5.48,0.16 1.75,0 3.49,-0.11 5.19,-0.16 v 1.55 c -3.29,0 -3.5,0.25 -3.5,2.18 z"
           id="path7206"
           style="fill:#000000;stroke-width:0" /><path
           inkscape:connector-curvature="0"
           d="m 464.54,436.89 -0.01,0.14 -0.01,0.15 -0.02,0.14 -0.02,0.14 -0.03,0.13 -0.04,0.13 -0.04,0.13 -0.05,0.12 -0.06,0.12 -0.06,0.12 -0.06,0.11 -0.07,0.1 -0.08,0.1 -0.08,0.1 -0.08,0.1 -0.09,0.08 -0.1,0.09 -0.09,0.08 -0.1,0.07 -0.11,0.07 -0.11,0.07 -0.11,0.06 -0.11,0.05 -0.12,0.05 -0.11,0.04 -0.13,0.04 -0.12,0.03 -0.12,0.03 -0.13,0.02 -0.13,0.01 -0.13,0.01 -0.13,0.01 c -1.54,0 -2.64,-1.35 -2.64,-2.64 0,-1.35 1.1,-2.64 2.64,-2.64 1.4,0 2.65,1.04 2.65,2.64 z"
           id="path7208"
           style="fill:#000000;stroke-width:0" /><path
           inkscape:connector-curvature="0"
           d="m 474.8,423.34 v -13.36 c 0,-2.23 -0.55,-2.23 -3.89,-2.23 v -1.55 c 1.75,0.05 4.28,0.16 5.63,0.16 1.29,0 3.89,-0.11 5.57,-0.16 v 1.55 c -3.32,0 -3.87,0 -3.87,2.23 v 9.17 c 0,5.19 3.53,7.97 6.72,7.97 3.14,0 3.68,-2.69 3.68,-5.53 v -11.61 c 0,-2.23 -0.54,-2.23 -3.89,-2.23 v -1.55 c 1.75,0.05 4.3,0.16 5.64,0.16 1.3,0 3.88,-0.11 5.58,-0.16 v 1.55 c -2.59,0 -3.84,0 -3.89,1.5 v 9.51 c 0,4.28 0,5.83 -1.54,7.61 -0.69,0.86 -2.35,1.84 -5.22,1.84 -3.64,0 -5.99,-2.14 -7.38,-5.21 v 5.21 l -7.03,-0.54 v -1.55 c 3.48,0 3.89,-0.34 3.89,-2.78 z"
           id="path7210"
           style="fill:#000000;stroke-width:0" /><path
           inkscape:connector-curvature="0"
           d="m 521.04,438.03 v -29.49 h -5.39 v -2.34 h 21.49 c 9.81,0 17.28,6.12 17.28,16.8 0,10.95 -7.47,17.37 -17.35,17.37 l -1.98,-2.34 c 3.28,0 7.42,-0.94 9.86,-4.42 1.75,-2.55 2.14,-5.94 2.14,-10.57 0,-5.43 -0.59,-8.08 -2.19,-10.31 -2.39,-3.39 -6.78,-4.19 -9.81,-4.19 h -7.28 v 29.49 h 7.28 l 1.98,2.34 h -21.42 v -2.34 z"
           id="path7212"
           style="fill:#000000;stroke-width:0" /></g>    </g>
    <path
       inkscape:connector-curvature="0"
       d="m 204.70748,200.91833 132.35111,0"
       id="path8619"
       style="fill:none;stroke:#000000;stroke-width:1px;stroke-linecap:butt;stroke-linejoin:miter;stroke-opacity:1;marker-end:url(#Arrow1Lend)"
       sodipodi:nodetypes="cc" />
    <g
       transform="translate(316.14876,3.0427728)"
       id="g7078">
      <g
         transform="matrix(1.0629921,0,0,-1.0629921,-196.02362,760.70022)"
         id="g7080"
         xml:space="preserve"
         style="font-style:normal;font-variant:normal;font-weight:normal;font-stretch:normal;letter-spacing:normal;word-spacing:normal;text-anchor:start;fill:none;stroke:#000000;stroke-linecap:butt;stroke-linejoin:miter;stroke-miterlimit:10.43299961;stroke-opacity:1;stroke-dasharray:none;stroke-dashoffset:0"><path
           inkscape:connector-curvature="0"
           d="m 464.33,428.21 -6.97,-0.54 v -1.55 c 3.24,0 3.69,-0.3 3.69,-2.73 v -13.41 c 0,-2.23 -0.55,-2.23 -3.89,-2.23 v -1.55 c 1.59,0.05 4.28,0.16 5.48,0.16 1.75,0 3.49,-0.11 5.19,-0.16 v 1.55 c -3.29,0 -3.5,0.25 -3.5,2.18 z"
           id="path7082"
           style="fill:#000000;stroke-width:0" /><path
           inkscape:connector-curvature="0"
           d="m 464.54,436.89 -0.01,0.14 -0.01,0.15 -0.02,0.14 -0.02,0.14 -0.03,0.13 -0.04,0.13 -0.04,0.13 -0.05,0.12 -0.06,0.12 -0.06,0.12 -0.06,0.11 -0.07,0.1 -0.08,0.1 -0.08,0.1 -0.08,0.1 -0.09,0.08 -0.1,0.09 -0.09,0.08 -0.1,0.07 -0.11,0.07 -0.11,0.07 -0.11,0.06 -0.11,0.05 -0.12,0.05 -0.11,0.04 -0.13,0.04 -0.12,0.03 -0.12,0.03 -0.13,0.02 -0.13,0.01 -0.13,0.01 -0.13,0.01 c -1.54,0 -2.64,-1.35 -2.64,-2.64 0,-1.35 1.1,-2.64 2.64,-2.64 1.4,0 2.65,1.04 2.65,2.64 z"
           id="path7084"
           style="fill:#000000;stroke-width:0" /><path
           inkscape:connector-curvature="0"
           d="m 474.8,423.34 v -13.36 c 0,-2.23 -0.55,-2.23 -3.89,-2.23 v -1.55 c 1.75,0.05 4.28,0.16 5.63,0.16 1.29,0 3.89,-0.11 5.57,-0.16 v 1.55 c -3.32,0 -3.87,0 -3.87,2.23 v 9.17 c 0,5.19 3.53,7.97 6.72,7.97 3.14,0 3.68,-2.69 3.68,-5.53 v -11.61 c 0,-2.23 -0.54,-2.23 -3.89,-2.23 v -1.55 c 1.75,0.05 4.3,0.16 5.64,0.16 1.3,0 3.88,-0.11 5.58,-0.16 v 1.55 c -2.59,0 -3.84,0 -3.89,1.5 v 9.51 c 0,4.28 0,5.83 -1.54,7.61 -0.69,0.86 -2.35,1.84 -5.22,1.84 -3.64,0 -5.99,-2.14 -7.38,-5.21 v 5.21 l -7.03,-0.54 v -1.55 c 3.48,0 3.89,-0.34 3.89,-2.78 z"
           id="path7086"
           style="fill:#000000;stroke-width:0" /><path
           inkscape:connector-curvature="0"
           d="m 551.87,439.53 0,0.08 0,0.09 0,0.08 0,0.08 0,0.08 0,0.07 -0.01,0.07 0,0.07 -0.01,0.06 -0.01,0.06 -0.01,0.06 -0.01,0.06 -0.01,0.05 -0.01,0.05 -0.02,0.05 -0.02,0.04 -0.02,0.04 -0.03,0.04 -0.03,0.04 -0.03,0.03 -0.03,0.03 -0.04,0.03 -0.04,0.02 -0.04,0.02 -0.05,0.02 -0.03,0.01 -0.03,0.01 -0.03,0.01 -0.02,0.01 -0.03,0 -0.04,0.01 -0.03,0 -0.03,0.01 -0.04,0 -0.03,0 -0.04,0.01 -0.04,0 -0.04,0 -0.04,0 c -0.45,0 -0.55,-0.1 -0.95,-0.44 l -3.28,-2.94 c -3.1,2.49 -6.43,3.38 -9.82,3.38 -12.4,0 -20.03,-7.42 -20.03,-17.63 0,-10.22 7.63,-17.64 20.03,-17.64 9.32,0 14.94,6.13 14.94,11.86 0,1 -0.34,1.05 -1.19,1.05 -0.65,0 -1.09,0 -1.14,-0.85 -0.36,-6.68 -6.39,-9.71 -11.42,-9.71 -3.87,0 -8.06,1.18 -10.65,4.23 -2.35,2.84 -2.94,6.58 -2.94,11.06 0,2.78 0.14,8.17 3.28,11.46 3.25,3.28 7.58,3.84 10.17,3.84 5.37,0 10.11,-3.8 11.2,-10.13 0.16,-0.93 0.21,-1.04 1.35,-1.04 1.29,0 1.34,0.11 1.34,1.4 z"
           id="path7088"
           style="fill:#000000;stroke-width:0" /></g>    </g>
    <path
       inkscape:connector-curvature="0"
       d="m 126.60608,315.62087 -4.44331,-10.53425 c -0.15945,-0.43583 -0.26574,-0.62717 -0.26574,-0.68032 0,-0.32952 0.90354,-1.32874 3.12519,-1.54133 0.5315,-0.0531 1.06299,-0.1063 1.06299,-1.02048 0,-0.62716 -0.64842,-0.62716 -0.79724,-0.62716 -2.17913,0 -4.45394,0.17008 -6.67559,0.17008 -1.32874,0 -4.60276,-0.17008 -5.9315,-0.17008 -0.30826,0 -0.95669,0 -0.95669,1.06299 0,0.58465 0.5315,0.58465 1.22244,0.58465 3.17835,0 3.48662,0.53149 3.97559,1.69015 l 6.23977,14.78622 -11.17205,12.02244 -0.68032,0.58465 c -2.5937,2.8063 -5.09173,3.64606 -7.79173,3.79488 -0.68031,0.0532 -1.16929,0.0532 -1.16929,1.06299 0,0.0531 0,0.58465 0.70158,0.58465 1.57322,0 3.31653,-0.17008 4.96417,-0.17008 1.96653,0 4.03937,0.17008 5.93149,0.17008 0.32953,0 0.96733,0 0.96733,-1.06299 0,-0.5315 -0.5315,-0.58465 -0.6378,-0.58465 -0.47834,-0.0425 -2.12598,-0.14882 -2.12598,-1.63701 0,-0.85039 0.79724,-1.70078 1.43504,-2.3811 l 5.38937,-5.72953 4.77283,-5.17677 5.34685,12.64961 c 0.2126,0.58464 0.26575,0.63779 0.26575,0.75472 0,0.41457 -0.99921,1.30748 -3.07205,1.52008 -0.58464,0.0532 -1.05236,0.11693 -1.05236,1.02047 0,0.62717 0.58465,0.62717 0.78661,0.62717 1.49882,0 5.19803,-0.17008 6.67559,-0.17008 1.32874,0 4.5496,0.17008 5.87834,0.17008 0.37205,0 1.00984,0 1.00984,-1.00984 0,-0.6378 -0.53149,-0.6378 -0.95669,-0.6378 -3.53976,-0.0425 -3.65669,-0.2126 -4.54961,-2.31732 -2.0622,-4.93228 -5.61258,-13.19173 -6.82439,-16.35945 3.60353,-3.72047 9.14172,-10.02402 10.84251,-11.50157 1.54133,-1.2756 3.55039,-2.54056 6.72874,-2.7 0.69094,-0.0531 1.15866,-0.0531 1.15866,-1.063 0,-0.0531 0,-0.58464 -0.68032,-0.58464 -1.59449,0 -3.33779,0.17008 -4.98543,0.17008 -1.95591,0 -3.96496,-0.17008 -5.87835,-0.17008 -0.3189,0 -0.99921,0 -0.99921,1.06299 0,0.36142 0.26575,0.5315 0.63779,0.58465 0.47835,0.0425 2.12599,0.15944 2.12599,1.637 0,0.75473 -0.58465,1.43504 -1.02047,1.91339 z"
       id="path6472"
       style="font-style:normal;font-variant:normal;font-weight:normal;font-stretch:normal;letter-spacing:normal;word-spacing:normal;text-anchor:start;fill:#000000;stroke:#000000;stroke-width:0;stroke-linecap:butt;stroke-linejoin:miter;stroke-miterlimit:10.43299961;stroke-opacity:1;stroke-dasharray:none;stroke-dashoffset:0" />
    <path
       inkscape:connector-curvature="0"
       d="m 333.38543,319.30413 -128.67795,0"
       id="path8619-7"
       style="fill:none;stroke:#000000;stroke-width:1px;stroke-linecap:butt;stroke-linejoin:miter;stroke-opacity:1;marker-start:url(#Arrow1Lstart);marker-end:none"
       sodipodi:nodetypes="cc" />
    <path
       style="fill:none;stroke:#000000;stroke-width:1px;stroke-linecap:butt;stroke-linejoin:miter;stroke-opacity:1"
       id="path9409"
       d="m 55.590789,260.11122 494.285701,0"
       inkscape:connector-curvature="0" />
    <rect
       style="fill:none;stroke:none"
       id="rect9411"
       y="155.72398"
       x="30.049807"
       height="211.97824"
       width="720.44824" />
    <path
       style="stroke-linejoin:miter;marker-end:url(#Arrow1LendGwO);stroke-opacity:1;stroke-dashoffset:0;stroke:#000000;stroke-linecap:butt;stroke-miterlimit:4;stroke-dasharray:4.00039999999999996, 4.00039999999999996;stroke-width:1.00010002000000009;fill:#008000"
       d="m 255.45294,225.36117 0,72.73098"
       id="path4401"
       inkscape:connector-curvature="0" />
    <g
       id="g4793"
       transform="matrix(0.80730707,0,0,-0.80730707,-149.85796,577.67032)"
       xml:space="preserve"
       stroke-miterlimit="10.433"
       font-style="normal"
       font-variant="normal"
       font-weight="normal"
       font-stretch="normal"
       font-size-adjust="none"
       letter-spacing="normal"
       word-spacing="normal"
       style="font-style:normal;font-variant:normal;font-weight:normal;font-stretch:normal;letter-spacing:normal;word-spacing:normal;text-anchor:start;fill:#000000;stroke:#00ff00;stroke-linecap:butt;stroke-linejoin:miter;stroke-miterlimit:10.43299960999999954;stroke-opacity:1;stroke-dasharray:none;stroke-dashoffset:0"><path
         d="m 477.29,439.57 0,0.01 0,0.01 0,0 0,0.01 0,0.01 0,0.01 0,0 0,0.01 0.01,0.02 0,0.03 0,0.02 0.01,0.02 0.01,0.03 0,0.03 0.01,0.02 0,0.03 0.01,0.03 0.01,0.03 0.01,0.06 0.02,0.06 0,0.03 0.01,0.02 0.01,0.03 0,0.03 0.01,0.02 0.01,0.02 0,0.02 0.01,0.02 0,0.01 0,0.01 0,0.01 0,0.01 0.01,0 0,0.01 0,0.01 0,0 0,0.01 0,0 0,0 0,0.01 c 0,0.04 0,0.5 -0.59,0.5 -0.5,0 -0.55,-0.16 -0.75,-1 l -2.89,-11.5 c -7.92,-0.25 -15.25,-6.88 -15.25,-13.66 0,-4.73 3.48,-8.67 9.56,-9.01 l 0.25,1.09 c -2.98,0.14 -6.58,1.89 -6.58,6.87 0,5.99 4.3,12.96 11.72,13.6 l -5.14,-20.47 -0.25,-1.09 c -0.39,-1.55 -0.73,-3.15 -1.14,-4.69 -0.59,-2.35 -1.09,-4.24 -1.09,-4.39 0,-0.49 0.34,-0.55 0.59,-0.55 0.25,0 0.36,0.06 0.5,0.2 0.09,0.1 0.41,1.3 0.55,2 l 1.89,7.43 0.25,1.09 5.14,20.47 c 3.78,-0.19 6.62,-2.49 6.62,-6.88 0,-5.87 -4.28,-13 -11.76,-13.59 l -0.25,-1.09 c 8.03,0.25 15.25,6.96 15.25,13.64 0,3.93 -2.64,8.53 -9.57,9.03 z"
         id="path4795"
         inkscape:connector-curvature="0"
         style="fill:#000000;stroke:#00ff00;stroke-width:0" /></g>    <g
       id="g11805"
       transform="translate(78.054785,-145.09007)">
      <g
         id="content"
         transform="matrix(1.0629921,0,0,-1.0629921,-186.02362,789.27165)"
         xml:space="preserve"
         stroke-miterlimit="10.433"
         font-style="normal"
         font-variant="normal"
         font-weight="normal"
         font-stretch="normal"
         font-size-adjust="none"
         letter-spacing="normal"
         word-spacing="normal"
         style="font-style:normal;font-variant:normal;font-weight:normal;font-stretch:normal;letter-spacing:normal;word-spacing:normal;text-anchor:start;fill:none;stroke:#000000;stroke-linecap:butt;stroke-linejoin:miter;stroke-miterlimit:10.43299961;stroke-opacity:1;stroke-dasharray:none;stroke-dashoffset:0"><path
           d="m 470.61,422.39 h 4.83 c 3.75,0 4.14,-0.8 4.14,-2.24 0,-0.36 0,-0.95 -0.34,-2.44 -0.11,-0.25 -0.16,-0.45 -0.16,-0.56 0,-0.39 0.3,-0.59 0.6,-0.59 0.5,0 0.5,0.15 0.75,1.05 l 2.75,10.81 c 0.14,0.54 0.14,0.65 0.14,0.79 0,0.1 -0.1,0.55 -0.6,0.55 -0.5,0 -0.54,-0.25 -0.75,-1.05 -1.04,-3.87 -2.18,-4.78 -6.42,-4.78 h -4.53 l 3.19,12.66 c 0.43,1.75 0.5,1.94 2.68,1.94 h 6.58 c 6.13,0 7.27,-1.64 7.27,-5.47 0,-1.16 0,-1.35 -0.14,-2.7 -0.11,-0.65 -0.11,-0.74 -0.11,-0.9 0,-0.25 0.15,-0.59 0.61,-0.59 0.54,0 0.59,0.3 0.69,1.25 l 1,8.61 c 0.15,1.34 -0.1,1.34 -1.35,1.34 h -24.4 c -1,0 -1.5,0 -1.5,-1 0,-0.54 0.45,-0.54 1.39,-0.54 1.84,0 3.23,0 3.23,-0.89 0,-0.21 0,-0.3 -0.25,-1.21 l -6.56,-26.34 c -0.5,-1.95 -0.61,-2.34 -4.55,-2.34 -0.84,0 -1.39,0 -1.39,-0.96 0,-0.59 0.59,-0.59 0.75,-0.59 1.44,0 5.13,0.16 6.58,0.16 1.64,0 5.78,-0.16 7.42,-0.16 0.45,0 1.05,0 1.05,0.95 0,0.39 -0.3,0.49 -0.3,0.55 -0.16,0.05 -0.25,0.05 -1.39,0.05 -1.11,0 -1.36,0 -2.59,0.09 -1.46,0.16 -1.6,0.36 -1.6,1 0,0.09 0,0.41 0.19,1.14 z"
           id="path11808"
           inkscape:connector-curvature="0"
           style="fill:#000000;stroke-width:0" /><path
           d="m 511,394.25 0,0.02 0,0.03 0,0.01 0,0.02 0,0.01 -0.01,0.02 0,0.01 -0.01,0.02 -0.01,0.02 -0.01,0.02 -0.01,0.02 -0.02,0.03 -0.01,0.02 -0.02,0.03 -0.02,0.03 -0.03,0.03 -0.02,0.03 -0.03,0.04 -0.02,0.02 -0.01,0.02 -0.02,0.02 -0.02,0.02 -0.02,0.02 -0.02,0.03 -0.02,0.02 -0.02,0.02 -0.02,0.03 -0.03,0.02 -0.02,0.03 -0.03,0.03 -0.03,0.03 -0.02,0.03 -0.03,0.03 -0.03,0.03 -0.03,0.03 -0.03,0.03 -0.04,0.04 -0.03,0.03 -0.04,0.04 -0.03,0.03 -0.04,0.04 -0.04,0.04 c -6.22,6.28 -7.81,15.69 -7.81,23.31 0,8.67 1.89,17.35 8.01,23.56 0.64,0.61 0.64,0.71 0.64,0.86 0,0.35 -0.18,0.49 -0.48,0.49 -0.5,0 -4.98,-3.38 -7.92,-9.7 -2.55,-5.49 -3.14,-11.02 -3.14,-15.21 0,-3.89 0.54,-9.9 3.28,-15.54 2.98,-6.13 7.28,-9.36 7.78,-9.36 0.3,0 0.48,0.14 0.48,0.5 z"
           id="path11810"
           inkscape:connector-curvature="0"
           style="fill:#000000;stroke-width:0" /><path
           d="m 537.99,426.68 -4.17,9.91 c -0.16,0.41 -0.25,0.59 -0.25,0.64 0,0.31 0.84,1.25 2.94,1.45 0.5,0.05 1,0.1 1,0.96 0,0.59 -0.61,0.59 -0.75,0.59 -2.05,0 -4.19,-0.16 -6.28,-0.16 -1.25,0 -4.33,0.16 -5.58,0.16 -0.3,0 -0.91,0 -0.91,-1 0,-0.55 0.5,-0.55 1.16,-0.55 2.98,0 3.28,-0.5 3.73,-1.59 l 5.88,-13.91 -10.52,-11.31 -0.64,-0.55 c -2.44,-2.64 -4.78,-3.43 -7.33,-3.57 -0.64,-0.05 -1.09,-0.05 -1.09,-1 0,-0.05 0,-0.55 0.66,-0.55 1.48,0 3.12,0.16 4.67,0.16 1.84,0 3.79,-0.16 5.58,-0.16 0.31,0 0.9,0 0.9,1 0,0.5 -0.5,0.55 -0.59,0.55 -0.45,0.04 -2,0.14 -2,1.54 0,0.8 0.75,1.6 1.34,2.24 l 5.08,5.39 4.48,4.87 5.04,-11.9 c 0.2,-0.55 0.25,-0.6 0.25,-0.71 0,-0.39 -0.94,-1.23 -2.89,-1.43 -0.55,-0.05 -0.99,-0.11 -0.99,-0.96 0,-0.59 0.55,-0.59 0.74,-0.59 1.4,0 4.89,0.16 6.28,0.16 1.25,0 4.28,-0.16 5.53,-0.16 0.34,0 0.95,0 0.95,0.95 0,0.6 -0.5,0.6 -0.91,0.6 -3.32,0.04 -3.43,0.2 -4.28,2.18 -1.93,4.64 -5.28,12.41 -6.42,15.39 3.39,3.5 8.61,9.43 10.2,10.82 1.46,1.2 3.35,2.39 6.33,2.54 0.66,0.05 1.1,0.05 1.1,1 0,0.05 0,0.55 -0.64,0.55 -1.5,0 -3.14,-0.16 -4.69,-0.16 -1.85,0 -3.74,0.16 -5.53,0.16 -0.3,0 -0.94,0 -0.94,-1 0,-0.34 0.25,-0.5 0.59,-0.55 0.46,-0.04 2,-0.15 2,-1.54 0,-0.71 -0.54,-1.35 -0.95,-1.8 z"
           id="path11812"
           inkscape:connector-curvature="0"
           style="fill:#000000;stroke-width:0" /><path
           d="m 573.47,418.65 -0.01,0.37 0,0.39 -0.01,0.39 -0.01,0.41 -0.04,0.84 -0.06,0.88 -0.09,0.92 -0.1,0.95 -0.14,0.97 -0.16,1.01 -0.2,1.02 -0.23,1.03 -0.26,1.05 -0.31,1.06 -0.35,1.07 -0.39,1.07 -0.21,0.53 -0.23,0.53 -0.24,0.53 -0.25,0.53 c -2.98,6.12 -7.26,9.36 -7.76,9.36 -0.3,0 -0.5,-0.19 -0.5,-0.49 0,-0.15 0,-0.25 0.93,-1.15 4.9,-4.92 7.74,-12.85 7.74,-23.27 0,-8.51 -1.84,-17.28 -8.03,-23.56 -0.64,-0.59 -0.64,-0.7 -0.64,-0.84 0,-0.3 0.2,-0.5 0.5,-0.5 0.5,0 4.97,3.39 7.92,9.71 2.53,5.47 3.13,11 3.13,15.19 z"
           id="path11814"
           inkscape:connector-curvature="0"
           style="fill:#000000;stroke-width:0" /></g>    </g>
    <g
       id="g12078"
       transform="translate(44.996289,-29.385331)">
      <g
         word-spacing="normal"
         letter-spacing="normal"
         font-size-adjust="none"
         font-stretch="normal"
         font-weight="normal"
         font-variant="normal"
         font-style="normal"
         stroke-miterlimit="10.433"
         xml:space="preserve"
         transform="matrix(1.0629921,0,0,-1.0629921,-186.02362,789.27165)"
         id="g12080"
         style="font-style:normal;font-variant:normal;font-weight:normal;font-stretch:normal;letter-spacing:normal;word-spacing:normal;text-anchor:start;fill:none;stroke:#000000;stroke-linecap:butt;stroke-linejoin:miter;stroke-miterlimit:10.43299961;stroke-opacity:1;stroke-dasharray:none;stroke-dashoffset:0"><path
           id="path12082"
           d="m 493.38,440.82 0,0.02 0,0.02 0,0.01 -0.01,0.02 0,0.02 0,0.02 -0.01,0.02 0,0.02 -0.01,0.02 -0.01,0.02 -0.01,0.02 0,0.02 -0.02,0.02 -0.01,0.02 -0.01,0.02 -0.01,0.02 -0.02,0.02 -0.02,0.02 -0.02,0.02 -0.02,0.02 -0.02,0.01 -0.02,0.02 -0.03,0.01 -0.02,0.02 -0.03,0.01 -0.01,0.01 -0.02,0 -0.01,0.01 -0.02,0 -0.02,0.01 -0.01,0 -0.02,0 -0.02,0.01 -0.02,0 -0.02,0 -0.02,0 -0.02,0 -0.02,0 -0.02,0 c -0.14,0 -0.2,-0.04 -0.75,-0.59 l -3.48,-3.84 c -0.44,0.7 -2.74,4.43 -8.27,4.43 -11.11,0 -22.33,-11.01 -22.33,-22.56 0,-7.92 5.54,-13.65 13.61,-13.65 2.19,0 4.44,0.45 6.22,1.18 2.5,1 3.44,2.05 4.35,3.05 0.45,-1.25 1.73,-3.09 2.23,-3.09 0.25,0 0.36,0.15 0.36,0.2 0.09,0.09 0.59,1.98 0.84,3.03 l 0.94,3.84 c 0.2,0.85 0.45,1.69 0.66,2.55 0.54,2.24 0.59,2.33 3.43,2.39 0.25,0 0.8,0.05 0.8,0.99 0,0.36 -0.25,0.54 -0.64,0.54 -1.16,0 -4.09,-0.14 -5.23,-0.14 -1.55,0 -5.44,0.14 -6.99,0.14 -0.44,0 -1.04,0 -1.04,-0.98 0,-0.55 0.4,-0.55 1.5,-0.55 0.04,0 1.5,0 2.64,-0.11 1.29,-0.14 1.54,-0.29 1.54,-0.94 0,-0.45 -0.54,-2.7 -1.04,-4.53 -1.39,-5.48 -7.88,-6.03 -9.63,-6.03 -4.78,0 -10,2.83 -10,10.46 0,1.54 0.49,9.76 5.72,16.25 2.69,3.39 7.53,6.42 12.45,6.42 5.1,0 8.03,-3.83 8.03,-9.61 0,-2 -0.15,-2.05 -0.15,-2.55 0,-0.5 0.54,-0.5 0.75,-0.5 0.64,0 0.64,0.11 0.89,1 z"
           inkscape:connector-curvature="0"
           style="fill:#000000;stroke-width:0" /><path
           id="path12084"
           d="m 527.92,418.65 -0.01,0.5 -0.04,0.49 -0.06,0.48 -0.09,0.48 -0.11,0.46 -0.13,0.46 -0.16,0.45 -0.17,0.44 -0.2,0.43 -0.22,0.42 -0.23,0.4 -0.26,0.39 -0.27,0.38 -0.29,0.37 -0.31,0.35 -0.32,0.34 -0.34,0.32 -0.35,0.3 -0.37,0.29 -0.38,0.27 -0.39,0.25 -0.41,0.23 -0.41,0.22 -0.43,0.19 -0.44,0.18 -0.44,0.15 -0.46,0.13 -0.46,0.11 -0.47,0.08 -0.48,0.06 -0.48,0.04 -0.49,0.01 c -5.37,0 -9.72,-4.43 -9.72,-9.67 0,-5.28 4.35,-9.65 9.72,-9.65 v 1.98 c -4.33,0 -7.72,3.48 -7.72,7.67 0,4.19 3.44,7.67 7.72,7.67 4.14,0 7.67,-3.39 7.67,-7.67 0,-4.28 -3.53,-7.67 -7.67,-7.67 h 0 V 409 c 5.23,0 9.67,4.32 9.67,9.65 z"
           inkscape:connector-curvature="0"
           style="fill:#000000;stroke-width:0" /><path
           id="path12086"
           d="m 556.89,422.39 h 4.83 c 3.75,0 4.13,-0.8 4.13,-2.24 0,-0.36 0,-0.95 -0.34,-2.44 -0.11,-0.25 -0.16,-0.45 -0.16,-0.56 0,-0.39 0.3,-0.59 0.6,-0.59 0.5,0 0.5,0.15 0.75,1.05 l 2.75,10.81 c 0.14,0.54 0.14,0.65 0.14,0.79 0,0.1 -0.09,0.55 -0.59,0.55 -0.5,0 -0.55,-0.25 -0.75,-1.05 -1.05,-3.87 -2.19,-4.78 -6.43,-4.78 h -4.53 l 3.19,12.66 c 0.44,1.75 0.5,1.94 2.69,1.94 h 6.58 c 6.12,0 7.26,-1.64 7.26,-5.47 0,-1.16 0,-1.35 -0.14,-2.7 -0.11,-0.65 -0.11,-0.74 -0.11,-0.9 0,-0.25 0.16,-0.59 0.61,-0.59 0.55,0 0.6,0.3 0.69,1.25 l 1,8.61 c 0.16,1.34 -0.09,1.34 -1.34,1.34 h -24.41 c -1,0 -1.5,0 -1.5,-1 0,-0.54 0.45,-0.54 1.39,-0.54 1.84,0 3.23,0 3.23,-0.89 0,-0.21 0,-0.3 -0.25,-1.21 l -6.56,-26.34 c -0.5,-1.95 -0.61,-2.34 -4.55,-2.34 -0.84,0 -1.39,0 -1.39,-0.96 0,-0.59 0.6,-0.59 0.75,-0.59 1.44,0 5.13,0.16 6.58,0.16 1.64,0 5.78,-0.16 7.42,-0.16 0.46,0 1.05,0 1.05,0.95 0,0.39 -0.3,0.49 -0.3,0.55 -0.15,0.05 -0.25,0.05 -1.39,0.05 -1.11,0 -1.36,0 -2.59,0.09 -1.45,0.16 -1.6,0.36 -1.6,1 0,0.09 0,0.41 0.19,1.14 z"
           inkscape:connector-curvature="0"
           style="fill:#000000;stroke-width:0" /><path
           id="path12088"
           d="m 597.28,394.25 0,0.02 0,0.03 -0.01,0.01 0,0.02 0,0.01 -0.01,0.02 0,0.01 -0.01,0.02 -0.01,0.02 -0.01,0.02 -0.01,0.02 -0.01,0.03 -0.02,0.02 -0.02,0.03 -0.02,0.03 -0.02,0.03 -0.03,0.03 -0.03,0.04 -0.01,0.02 -0.02,0.02 -0.02,0.02 -0.02,0.02 -0.02,0.02 -0.02,0.03 -0.02,0.02 -0.02,0.02 -0.02,0.03 -0.02,0.02 -0.03,0.03 -0.03,0.03 -0.02,0.03 -0.03,0.03 -0.03,0.03 -0.03,0.03 -0.03,0.03 -0.03,0.03 -0.03,0.04 -0.04,0.03 -0.03,0.04 -0.04,0.03 -0.04,0.04 -0.04,0.04 c -6.21,6.28 -7.81,15.69 -7.81,23.31 0,8.67 1.89,17.35 8.02,23.56 0.64,0.61 0.64,0.71 0.64,0.86 0,0.35 -0.19,0.49 -0.49,0.49 -0.5,0 -4.98,-3.38 -7.92,-9.7 -2.55,-5.49 -3.14,-11.02 -3.14,-15.21 0,-3.89 0.55,-9.9 3.28,-15.54 2.99,-6.13 7.28,-9.36 7.78,-9.36 0.3,0 0.49,0.14 0.49,0.5 z"
           inkscape:connector-curvature="0"
           style="fill:#000000;stroke-width:0" /><path
           id="path12090"
           d="m 624.27,426.68 -4.18,9.91 c -0.15,0.41 -0.25,0.59 -0.25,0.64 0,0.31 0.85,1.25 2.94,1.45 0.5,0.05 1,0.1 1,0.96 0,0.59 -0.61,0.59 -0.75,0.59 -2.05,0 -4.19,-0.16 -6.28,-0.16 -1.25,0 -4.33,0.16 -5.58,0.16 -0.29,0 -0.9,0 -0.9,-1 0,-0.55 0.5,-0.55 1.15,-0.55 2.99,0 3.28,-0.5 3.74,-1.59 l 5.87,-13.91 -10.51,-11.31 -0.64,-0.55 c -2.44,-2.64 -4.79,-3.43 -7.33,-3.57 -0.64,-0.05 -1.1,-0.05 -1.1,-1 0,-0.05 0,-0.55 0.66,-0.55 1.48,0 3.12,0.16 4.67,0.16 1.84,0 3.8,-0.16 5.58,-0.16 0.31,0 0.91,0 0.91,1 0,0.5 -0.5,0.55 -0.6,0.55 -0.45,0.04 -2,0.14 -2,1.54 0,0.8 0.75,1.6 1.35,2.24 l 5.07,5.39 4.49,4.87 5.03,-11.9 c 0.2,-0.55 0.25,-0.6 0.25,-0.71 0,-0.39 -0.94,-1.23 -2.89,-1.43 -0.55,-0.05 -0.99,-0.11 -0.99,-0.96 0,-0.59 0.55,-0.59 0.74,-0.59 1.4,0 4.89,0.16 6.28,0.16 1.25,0 4.28,-0.16 5.53,-0.16 0.35,0 0.95,0 0.95,0.95 0,0.6 -0.5,0.6 -0.9,0.6 -3.33,0.04 -3.44,0.2 -4.28,2.18 -1.94,4.64 -5.28,12.41 -6.42,15.39 3.39,3.5 8.6,9.43 10.2,10.82 1.45,1.2 3.34,2.39 6.33,2.54 0.65,0.05 1.09,0.05 1.09,1 0,0.05 0,0.55 -0.64,0.55 -1.5,0 -3.14,-0.16 -4.69,-0.16 -1.84,0 -3.73,0.16 -5.53,0.16 -0.3,0 -0.94,0 -0.94,-1 0,-0.34 0.25,-0.5 0.6,-0.55 0.45,-0.04 2,-0.15 2,-1.54 0,-0.71 -0.55,-1.35 -0.96,-1.8 z"
           inkscape:connector-curvature="0"
           style="fill:#000000;stroke-width:0" /><path
           id="path12092"
           d="m 659.74,418.65 0,0.37 -0.01,0.39 -0.01,0.39 -0.01,0.41 -0.04,0.84 -0.06,0.88 -0.08,0.92 -0.11,0.95 -0.13,0.97 -0.17,1.01 -0.19,1.02 -0.23,1.03 -0.27,1.05 -0.31,1.06 -0.35,1.07 -0.39,1.07 -0.21,0.53 -0.23,0.53 -0.23,0.53 -0.25,0.53 c -2.99,6.12 -7.27,9.36 -7.77,9.36 -0.29,0 -0.5,-0.19 -0.5,-0.49 0,-0.15 0,-0.25 0.94,-1.15 4.89,-4.92 7.73,-12.85 7.73,-23.27 0,-8.51 -1.84,-17.28 -8.03,-23.56 -0.64,-0.59 -0.64,-0.7 -0.64,-0.84 0,-0.3 0.21,-0.5 0.5,-0.5 0.5,0 4.97,3.39 7.92,9.71 2.54,5.47 3.13,11 3.13,15.19 z"
           inkscape:connector-curvature="0"
           style="fill:#000000;stroke-width:0" /></g>    </g>
    <g
       id="g12372"
       transform="matrix(0.8,0,0,0.8,-13.647957,-104.53532)">
      <g
         id="g12374"
         transform="matrix(1.0629921,0,0,-1.0629921,-186.02362,789.27165)"
         xml:space="preserve"
         stroke-miterlimit="10.433"
         font-style="normal"
         font-variant="normal"
         font-weight="normal"
         font-stretch="normal"
         font-size-adjust="none"
         letter-spacing="normal"
         word-spacing="normal"
         style="font-style:normal;font-variant:normal;font-weight:normal;font-stretch:normal;letter-spacing:normal;word-spacing:normal;text-anchor:start;fill:none;stroke:#000000;stroke-linecap:butt;stroke-linejoin:miter;stroke-miterlimit:10.43299961;stroke-opacity:1;stroke-dasharray:none;stroke-dashoffset:0"><path
           d="m 470.16,438.09 0,0.05 0,0.06 0,0.05 0,0.05 0,0.05 0,0.05 0,0.04 0,0.05 0,0.04 0,0.04 -0.01,0.04 0,0.04 0,0.04 0,0.03 0,0.04 -0.01,0.03 -0.01,0.07 0,0.06 -0.02,0.05 -0.01,0.05 -0.02,0.05 -0.02,0.04 -0.02,0.04 -0.02,0.03 -0.03,0.03 -0.03,0.03 -0.04,0.03 -0.04,0.02 -0.04,0.02 -0.03,0.01 -0.02,0.01 -0.03,0 -0.02,0.01 -0.03,0.01 -0.03,0 -0.03,0.01 -0.03,0 -0.04,0.01 -0.03,0 -0.04,0 -0.03,0.01 -0.04,0 -0.04,0 -0.05,0 -0.04,0 -0.04,0 -0.05,0.01 -0.05,0 -0.05,0 -0.05,0 -0.05,0 c -3.09,-3.19 -7.47,-3.19 -9.06,-3.19 v -1.55 c 1,0 3.93,0 6.51,1.3 v -25.81 c 0,-1.8 -0.14,-2.39 -4.62,-2.39 h -1.6 v -1.55 c 1.75,0.16 6.08,0.16 8.07,0.16 2,0 6.32,0 8.07,-0.16 v 1.55 h -1.59 c -4.48,0 -4.64,0.54 -4.64,2.39 z"
           id="path12376"
           inkscape:connector-curvature="0"
           style="fill:#000000;stroke-width:0" /><path
           d="m 492.4,408.42 h 3.72 c 2.66,0 3.11,-0.42 3.11,-1.56 0,-0.54 0,-0.6 -0.25,-1.58 -0.06,-0.21 -0.11,-0.32 -0.11,-0.41 0,-0.36 0.25,-0.53 0.59,-0.53 0.46,0 0.5,0.17 0.68,0.8 l 1.87,7.39 c 0.03,0.11 0.14,0.62 0.14,0.7 0,0.34 -0.25,0.52 -0.59,0.52 -0.49,0 -0.52,-0.21 -0.69,-0.83 -0.7,-2.72 -1.72,-3.25 -4.67,-3.25 h -3.49 l 2.19,8.75 c 0.28,1.08 0.31,1.19 1.78,1.19 h 5.33 c 4.64,0 5.52,-1.11 5.52,-4.02 0,-1.14 -0.14,-1.88 -0.14,-2.16 0,-0.28 0.09,-0.59 0.59,-0.59 0.52,0 0.55,0.31 0.63,0.91 l 0.62,6.06 c 0.09,1.05 -0.14,1.05 -1.02,1.05 h -18.6 c -0.66,0 -1.11,0 -1.11,-0.77 0,-0.48 0.42,-0.48 1.11,-0.48 0.04,0 0.7,0 1.32,-0.08 0.74,-0.07 0.8,-0.13 0.8,-0.49 0,-0.23 -0.09,-0.59 -0.14,-0.76 l -4.56,-18.22 c -0.35,-1.36 -0.38,-1.61 -3.1,-1.61 -0.59,0 -1.04,0 -1.04,-0.74 0,-0.34 0.23,-0.51 0.56,-0.51 1,0 3.58,0.14 4.59,0.14 l 2.69,-0.03 c 0.91,0 1.88,-0.11 2.75,-0.11 0.23,0 0.77,0 0.77,0.76 0,0.49 -0.43,0.49 -1.22,0.49 -0.08,0 -0.94,0 -1.82,0.08 -0.73,0.06 -1.07,0.09 -1.07,0.59 0,0.14 0,0.24 0.09,0.63 z"
           id="path12378"
           inkscape:connector-curvature="0"
           style="fill:#000000;stroke-width:0" /><path
           d="m 523.57,423.34 -0.61,-0.45 -0.58,-0.46 -0.55,-0.47 -0.52,-0.49 -0.5,-0.5 -0.47,-0.51 -0.45,-0.53 -0.42,-0.53 -0.4,-0.54 -0.38,-0.55 -0.35,-0.56 -0.33,-0.56 -0.31,-0.57 -0.29,-0.57 -0.26,-0.58 -0.25,-0.58 -0.23,-0.58 -0.21,-0.58 -0.19,-0.59 -0.17,-0.58 -0.16,-0.58 -0.14,-0.58 -0.12,-0.57 -0.11,-0.57 -0.09,-0.57 -0.08,-0.56 -0.06,-0.55 -0.06,-0.55 -0.04,-0.53 -0.02,-0.53 -0.02,-0.52 0,-0.5 c 0,-4.92 1.46,-12.55 8.37,-17.42 0.28,0 0.69,0 0.69,0.4 0,0.22 -0.1,0.28 -0.35,0.53 -4.64,4.19 -6.34,10.11 -6.34,16.46 0,9.4 3.59,14 6.45,16.58 0.14,0.14 0.24,0.25 0.24,0.42 0,0.42 -0.41,0.42 -0.69,0.42 z"
           id="path12380"
           inkscape:connector-curvature="0"
           style="fill:#000000;stroke-width:0" /><path
           d="m 546.17,410.51 3.31,3.31 c 4.45,4.39 5.81,5.75 8.95,5.93 0.46,0.03 0.88,0.03 0.88,0.73 0,0.41 -0.39,0.52 -0.5,0.52 -1,0 -2.22,-0.14 -3.27,-0.14 -0.9,0 -3.14,0.14 -4.04,0.14 -0.28,0 -0.71,-0.11 -0.71,-0.77 0,-0.03 0,-0.45 0.53,-0.48 0.32,-0.04 1.19,-0.11 1.19,-0.88 0,-0.51 -0.53,-1.08 -0.87,-1.42 -0.29,-0.25 -4.71,-4.56 -6,-5.89 l -3.52,6.83 c -0.06,0.11 -0.17,0.34 -0.17,0.48 0,0.25 0.65,0.8 1.84,0.88 0.25,0 0.74,0.03 0.74,0.76 0,0.03 -0.03,0.49 -0.6,0.49 -0.73,0 -1.59,-0.11 -2.33,-0.11 -0.73,0 -1.53,-0.03 -2.26,-0.03 -0.59,0 -1.44,0 -2.06,0.03 -0.6,0.04 -1.31,0.11 -1.88,0.11 -0.17,0 -0.73,0 -0.73,-0.77 0,-0.48 0.45,-0.48 1.01,-0.48 2.02,0 2.19,-0.35 2.54,-1.05 l 4.88,-9.63 -1.95,-1.93 c -0.67,-0.64 -2.3,-2.21 -2.93,-2.86 -4.25,-4.22 -5.68,-5.69 -8.82,-5.83 -0.48,-0.03 -0.86,-0.03 -0.86,-0.77 0,-0.14 0.1,-0.48 0.49,-0.48 1,0 2.19,0.14 3.23,0.14 0.59,0 1.47,0 2.06,-0.03 0.63,-0.05 1.4,-0.11 1.99,-0.11 0.17,0 0.73,0 0.73,0.73 0,0.49 -0.42,0.52 -0.64,0.52 -0.34,0.05 -1.08,0.14 -1.08,0.87 0,0.57 0.46,1.02 1.22,1.79 l 7.08,6.93 4.22,-8.26 c 0.17,-0.35 0.2,-0.42 0.2,-0.46 0,-0.2 -0.62,-0.76 -1.84,-0.87 -0.31,-0.03 -0.77,-0.03 -0.77,-0.77 0,-0.03 0.04,-0.48 0.6,-0.48 0.73,0 1.61,0.11 2.32,0.11 0.74,0 1.55,0.03 2.27,0.03 0.6,0 1.44,0 2.06,-0.03 0.6,-0.05 1.33,-0.11 1.88,-0.11 0.17,0 0.73,0 0.73,0.76 0,0.49 -0.45,0.49 -1,0.49 -2.03,0 -2.2,0.39 -2.51,0.98 z"
           id="path12382"
           inkscape:connector-curvature="0"
           style="fill:#000000;stroke-width:0" /><path
           d="m 565.33,423.34 -0.02,0 -0.03,0 -0.02,0 -0.03,0 -0.03,0 -0.02,0 -0.03,0 -0.03,-0.01 -0.03,0 -0.02,0 -0.03,-0.01 -0.03,0 -0.03,-0.01 -0.03,-0.01 -0.02,0 -0.03,-0.01 -0.02,-0.01 -0.03,-0.02 -0.02,-0.01 -0.02,-0.01 -0.02,-0.02 -0.02,-0.02 -0.02,-0.02 -0.01,-0.01 -0.01,-0.01 -0.01,-0.01 -0.01,-0.01 0,-0.01 -0.01,-0.02 -0.01,-0.01 0,-0.01 -0.01,-0.02 0,-0.01 -0.01,-0.02 0,-0.01 0,-0.02 -0.01,-0.02 0,-0.02 0,-0.01 0,-0.02 0,-0.02 c 0,-0.17 0.11,-0.28 0.31,-0.53 3,-2.75 6.35,-7.46 6.35,-16.44 0,-7.28 -2.27,-12.8 -6.04,-16.2 -0.57,-0.6 -0.62,-0.63 -0.62,-0.82 0,-0.17 0.11,-0.4 0.45,-0.4 0.42,0 3.74,2.29 6.04,6.65 1.53,2.89 2.54,6.66 2.54,10.74 0,4.9 -1.47,12.53 -8.36,17.42 z"
           id="path12384"
           inkscape:connector-curvature="0"
           style="fill:#000000;stroke-width:0" /></g>    </g>
    <g
       id="g12678"
       transform="matrix(0.8,0,0,0.8,10.594942,70.123744)">
      <g
         word-spacing="normal"
         letter-spacing="normal"
         font-size-adjust="none"
         font-stretch="normal"
         font-weight="normal"
         font-variant="normal"
         font-style="normal"
         stroke-miterlimit="10.433"
         xml:space="preserve"
         transform="matrix(1.0629921,0,0,-1.0629921,-186.02362,789.27165)"
         id="g12680"
         style="font-style:normal;font-variant:normal;font-weight:normal;font-stretch:normal;letter-spacing:normal;word-spacing:normal;text-anchor:start;fill:none;stroke:#000000;stroke-linecap:butt;stroke-linejoin:miter;stroke-miterlimit:10.43299961;stroke-opacity:1;stroke-dasharray:none;stroke-dashoffset:0"><path
           id="path12682"
           d="m 479.83,420 0.05,0.16 0.04,0.17 0.04,0.15 0.04,0.16 0.04,0.16 0.03,0.15 0.03,0.16 0.03,0.17 0.02,0.17 0.03,0.17 0.01,0.09 0,0.09 0.01,0.1 0.01,0.1 0.01,0.1 0,0.1 0.01,0.1 0,0.11 0,0.12 0.01,0.11 0,0.12 0,0.13 c 0,3.23 -2,5.32 -5.74,5.32 -3.93,0 -6.53,-2.57 -7.71,-4.32 -0.25,2.84 -2.35,4.32 -4.6,4.32 -2.28,0 -3.23,-1.93 -3.69,-2.82 -0.89,-1.71 -1.54,-4.69 -1.54,-4.85 0,-0.5 0.5,-0.5 0.61,-0.5 0.5,0 0.54,0.07 0.84,1.16 0.84,3.53 1.84,5.92 3.64,5.92 0.84,0 1.55,-0.39 1.55,-2.28 0,-1.05 -0.16,-1.61 -0.8,-4.19 l -2.89,-11.51 c -0.16,-0.75 -0.45,-1.89 -0.45,-2.14 0,-0.89 0.7,-1.35 1.43,-1.35 0.61,0 1.5,0.39 1.85,1.39 0.06,0.11 0.65,2.44 0.95,3.69 l 1.1,4.48 c 0.29,1.1 0.59,2.19 0.84,3.35 0.11,0.3 0.5,1.94 0.55,2.23 0.15,0.46 1.7,3.25 3.39,4.6 1.09,0.79 2.64,1.73 4.78,1.73 2.14,0 2.69,-1.69 2.69,-3.48 0,-0.25 0,-1.14 -0.49,-3.14 l -5.69,-22.93 c -0.14,-0.59 -0.14,-0.68 -0.14,-0.79 0,-0.74 0.55,-1.35 1.39,-1.35 1.55,0 1.89,1.46 2.05,2 z"
           inkscape:connector-curvature="0"
           style="fill:#000000;stroke-width:0" /><path
           id="path12684"
           d="m 499.61,412.07 3.32,3.32 c 4.45,4.39 5.81,5.75 8.95,5.92 0.45,0.03 0.87,0.03 0.87,0.73 0,0.41 -0.39,0.52 -0.5,0.52 -1,0 -2.21,-0.14 -3.26,-0.14 -0.91,0 -3.14,0.14 -4.05,0.14 -0.28,0 -0.7,-0.11 -0.7,-0.77 0,-0.03 0,-0.45 0.53,-0.48 0.31,-0.03 1.19,-0.11 1.19,-0.88 0,-0.51 -0.53,-1.07 -0.88,-1.42 -0.28,-0.25 -4.7,-4.56 -6,-5.89 l -3.51,6.83 c -0.07,0.11 -0.18,0.34 -0.18,0.48 0,0.25 0.66,0.8 1.85,0.88 0.25,0 0.73,0.03 0.73,0.76 0,0.04 -0.03,0.49 -0.59,0.49 -0.74,0 -1.59,-0.11 -2.33,-0.11 -0.73,0 -1.53,-0.03 -2.26,-0.03 -0.6,0 -1.44,0 -2.07,0.03 -0.59,0.05 -1.31,0.11 -1.87,0.11 -0.17,0 -0.74,0 -0.74,-0.77 0,-0.48 0.46,-0.48 1.02,-0.48 2.01,0 2.19,-0.35 2.53,-1.05 l 4.89,-9.62 -1.95,-1.94 c -0.67,-0.64 -2.3,-2.2 -2.94,-2.86 -4.25,-4.22 -5.67,-5.69 -8.81,-5.83 -0.49,-0.03 -0.86,-0.03 -0.86,-0.76 0,-0.14 0.09,-0.49 0.48,-0.49 1,0 2.19,0.14 3.24,0.14 0.59,0 1.47,0 2.06,-0.03 0.62,-0.05 1.39,-0.11 1.98,-0.11 0.18,0 0.74,0 0.74,0.74 0,0.48 -0.42,0.51 -0.64,0.51 -0.35,0.05 -1.08,0.14 -1.08,0.88 0,0.56 0.45,1.01 1.22,1.78 l 7.08,6.94 4.22,-8.27 c 0.17,-0.34 0.2,-0.42 0.2,-0.45 0,-0.21 -0.63,-0.77 -1.85,-0.88 -0.31,-0.03 -0.76,-0.03 -0.76,-0.76 0,-0.04 0.03,-0.49 0.59,-0.49 0.74,0 1.61,0.11 2.33,0.11 0.74,0 1.55,0.03 2.27,0.03 0.59,0 1.43,0 2.06,-0.03 0.59,-0.05 1.33,-0.11 1.87,-0.11 0.18,0 0.74,0 0.74,0.77 0,0.48 -0.45,0.48 -1,0.48 -2.03,0 -2.2,0.39 -2.52,0.99 z"
           inkscape:connector-curvature="0"
           style="fill:#000000;stroke-width:0" /></g>    </g>
  </g>
</svg>
