<?xml version="1.0" encoding="UTF-8" standalone="no"?>
<!-- Created with Inkscape (http://www.inkscape.org/) -->

<svg
   xmlns:dc="http://purl.org/dc/elements/1.1/"
   xmlns:cc="http://creativecommons.org/ns#"
   xmlns:rdf="http://www.w3.org/1999/02/22-rdf-syntax-ns#"
   xmlns:svg="http://www.w3.org/2000/svg"
   xmlns="http://www.w3.org/2000/svg"
   xmlns:sodipodi="http://sodipodi.sourceforge.net/DTD/sodipodi-0.dtd"
   xmlns:inkscape="http://www.inkscape.org/namespaces/inkscape"
   width="1052.3622"
   height="744.09448"
   id="svg2"
   version="1.1"
   inkscape:version="0.48.3.1 r9886"
   sodipodi:docname="universe4.svg"
   inkscape:export-filename="/home/koichi/work/category-seminar/fig/universe4.png"
   inkscape:export-xdpi="90"
   inkscape:export-ydpi="90">
  <sodipodi:namedview
     id="base"
     pagecolor="#ffffff"
     bordercolor="#666666"
     borderopacity="1.0"
     inkscape:pageopacity="0.0"
     inkscape:pageshadow="2"
     inkscape:zoom="0.98994949"
     inkscape:cx="490.64214"
     inkscape:cy="345.73022"
     inkscape:document-units="px"
     inkscape:current-layer="layer1"
     showgrid="false"
     inkscape:window-width="1920"
     inkscape:window-height="1058"
     inkscape:window-x="0"
     inkscape:window-y="22"
     inkscape:window-maximized="0" />
  <defs
     id="defs4" />
  <metadata
     id="metadata7">
    <rdf:RDF>
      <cc:Work
         rdf:about="">
        <dc:format>image/svg+xml</dc:format>
        <dc:type
           rdf:resource="http://purl.org/dc/dcmitype/StillImage" />
        <dc:title></dc:title>
      </cc:Work>
    </rdf:RDF>
  </metadata>
  <g
     transform="translate(0,-308.2677)"
     id="layer1"
     inkscape:groupmode="layer"
     inkscape:label="レイヤー 1">
    <rect
       y="308.07373"
       x="-1.6235962"
       height="744.48242"
       width="1055.6094"
       id="rect3822"
       style="fill:#000000;stroke:#333333;stroke-width:2;stroke-linecap:square;stroke-miterlimit:4;stroke-dasharray:none;stroke-dashoffset:0" />
    <g
       transform="translate(214.77756,341.20982)"
       style="fill:#ffffff;stroke:#ffffff"
       id="g3905">
      <g
         style="font-style:normal;font-variant:normal;font-weight:normal;font-stretch:normal;letter-spacing:normal;word-spacing:normal;text-anchor:start;fill:#ffffff;fill-opacity:1;fill-rule:evenodd;stroke:#ffffff;stroke-linecap:butt;stroke-linejoin:miter;stroke-miterlimit:10.43299961;stroke-opacity:1;stroke-dasharray:none;stroke-dashoffset:0"
         id="content"
         transform="matrix(1.0629921,0,0,-1.0629921,-186.02362,789.27165)"
         xml:space="preserve"
         stroke-miterlimit="10.433"
         font-style="normal"
         font-variant="normal"
         font-weight="normal"
         font-stretch="normal"
         font-size-adjust="none"
         letter-spacing="normal"
         word-spacing="normal"><path
           inkscape:connector-curvature="0"
           style="fill:#ffffff;stroke:#ffffff;stroke-width:0"
           d="m 474.85,443.67 0,0.05 -0.01,0.05 0,0.05 -0.01,0.05 -0.01,0.05 -0.01,0.04 -0.02,0.05 -0.01,0.05 -0.02,0.04 -0.02,0.04 -0.02,0.04 -0.03,0.04 -0.02,0.04 -0.03,0.04 -0.03,0.04 -0.03,0.03 -0.04,0.04 -0.03,0.03 -0.04,0.03 -0.04,0.03 -0.04,0.02 -0.04,0.03 -0.04,0.02 -0.05,0.02 -0.05,0.02 -0.04,0.01 -0.05,0.02 -0.05,0.01 -0.06,0.01 -0.05,0 -0.06,0.01 -0.05,0 c -0.74,0 -0.89,-0.55 -1.19,-1.6 -0.59,-2 -0.11,-0.25 -0.66,-2.25 -0.59,0.3 -2.18,1.05 -4.03,1.05 v -1.09 c 1,0 2.3,-0.3 3.6,-1.39 l -8.72,-29.71 c -1.66,3.44 -1.66,9.57 -1.66,14.3 0,4.05 0,7.48 0.7,10.67 0.96,4.63 3.85,6.13 6.08,6.13 v 1.09 c -2.84,0 -6.08,-1.5 -7.92,-5.33 -1.94,-4.03 -2.19,-8.51 -2.19,-13.15 0,-3.14 0,-12.11 4.33,-15.99 -1.14,-3.84 -1.14,-3.94 -1.14,-4.09 0,-0.55 0.39,-1 1,-1 0.75,0 0.89,0.5 1.19,1.59 0.59,2 0.11,0.25 0.65,2.25 1.19,-0.65 2.69,-1.04 4.04,-1.04 v 1.09 c -1.14,0 -2.35,0.41 -3.54,1.44 l 8.66,29.75 c 1.66,-2.89 1.66,-8.68 1.66,-13.41 0,-3.62 0,-7.31 -0.61,-10.66 -0.89,-5.23 -3.53,-7.12 -6.17,-7.12 v -1.09 c 5.57,0 7.76,4.68 8.67,7.07 1.29,3.49 1.44,7.61 1.44,11.21 0,3.68 0,11.95 -4.33,16.09 z"
           id="path3908" /></g>    </g>
    <g
       id="g4045"
       transform="translate(21.213205,201.02035)"
       style="fill:#ffffff;stroke:#ffffff">
      <g
         word-spacing="normal"
         letter-spacing="normal"
         font-size-adjust="none"
         font-stretch="normal"
         font-weight="normal"
         font-variant="normal"
         font-style="normal"
         stroke-miterlimit="10.433"
         xml:space="preserve"
         transform="matrix(1.0629921,0,0,-1.0629921,-186.02362,789.27165)"
         id="g4047"
         style="font-style:normal;font-variant:normal;font-weight:normal;font-stretch:normal;letter-spacing:normal;word-spacing:normal;text-anchor:start;fill:#ffffff;stroke:#ffffff;stroke-linecap:butt;stroke-linejoin:miter;stroke-miterlimit:10.43299961;stroke-opacity:1;stroke-dasharray:none;stroke-dashoffset:0"><path
           id="path4049"
           d="m 469.61,436.93 0.01,0.19 0.01,0.2 0.02,0.2 0.03,0.21 0.04,0.21 0.05,0.22 0.06,0.21 0.07,0.22 0.08,0.22 0.1,0.22 0.11,0.22 0.12,0.22 0.14,0.22 0.15,0.21 0.16,0.21 0.18,0.21 0.2,0.2 0.21,0.2 0.23,0.19 0.25,0.18 0.26,0.18 0.29,0.16 0.3,0.16 0.32,0.15 0.34,0.13 0.37,0.13 0.38,0.11 0.41,0.1 0.21,0.05 0.22,0.04 0.22,0.03 0.23,0.04 0.23,0.03 0.24,0.02 0.25,0.03 0.25,0.01 c 0.25,0.05 0.45,0.25 0.45,0.55 0,0.55 -0.41,0.55 -0.95,0.55 -4.99,0 -9.52,-2.53 -9.56,-6.22 v -11.36 c 0,-1.94 0,-3.55 -2,-5.19 -1.74,-1.43 -3.65,-1.54 -4.74,-1.59 -0.25,-0.05 -0.44,-0.25 -0.44,-0.55 0,-0.5 0.3,-0.5 0.8,-0.54 3.28,-0.21 5.67,-1.99 6.22,-4.44 0.16,-0.55 0.16,-0.64 0.16,-2.44 v -9.86 c 0,-2.09 0,-3.69 2.39,-5.58 1.93,-1.5 5.23,-2.04 7.17,-2.04 0.54,0 0.95,0 0.95,0.54 0,0.5 -0.31,0.5 -0.8,0.55 -3.14,0.2 -5.59,1.8 -6.23,4.33 -0.16,0.45 -0.16,0.54 -0.16,2.34 v 10.47 c 0,2.3 -0.39,3.14 -1.98,4.73 -1.05,1.05 -2.5,1.55 -3.89,1.94 4.09,1.14 5.87,3.44 5.87,6.33 z"
           inkscape:connector-curvature="0"
           style="fill:#ffffff;stroke:#ffffff;stroke-width:0" /><path
           id="path4051"
           d="m 499.8,443.67 0,0.05 0,0.05 -0.01,0.05 0,0.05 -0.01,0.05 -0.02,0.04 -0.01,0.05 -0.02,0.05 -0.01,0.04 -0.02,0.04 -0.03,0.04 -0.02,0.04 -0.03,0.04 -0.03,0.04 -0.02,0.04 -0.04,0.03 -0.03,0.04 -0.04,0.03 -0.03,0.03 -0.04,0.03 -0.04,0.02 -0.04,0.03 -0.05,0.02 -0.04,0.02 -0.05,0.02 -0.05,0.01 -0.05,0.02 -0.05,0.01 -0.05,0.01 -0.05,0 -0.06,0.01 -0.06,0 c -0.73,0 -0.89,-0.55 -1.18,-1.6 -0.6,-2 -0.11,-0.25 -0.66,-2.25 -0.59,0.3 -2.19,1.05 -4.03,1.05 v -1.09 c 1,0 2.3,-0.3 3.59,-1.39 l -8.72,-29.71 c -1.65,3.44 -1.65,9.57 -1.65,14.3 0,4.05 0,7.48 0.7,10.67 0.95,4.63 3.85,6.13 6.08,6.13 v 1.09 c -2.84,0 -6.08,-1.5 -7.92,-5.33 -1.94,-4.03 -2.19,-8.51 -2.19,-13.15 0,-3.14 0,-12.11 4.33,-15.99 -1.14,-3.84 -1.14,-3.94 -1.14,-4.09 0,-0.55 0.39,-1 1,-1 0.75,0 0.89,0.5 1.19,1.59 0.59,2 0.1,0.25 0.65,2.25 1.19,-0.65 2.69,-1.04 4.03,-1.04 v 1.09 c -1.14,0 -2.34,0.41 -3.53,1.44 l 8.66,29.75 c 1.65,-2.89 1.65,-8.68 1.65,-13.41 0,-3.62 0,-7.31 -0.61,-10.66 -0.89,-5.23 -3.53,-7.12 -6.17,-7.12 v -1.09 c 5.58,0 7.77,4.68 8.67,7.07 1.3,3.49 1.44,7.61 1.44,11.21 0,3.68 0,11.95 -4.33,16.09 z"
           inkscape:connector-curvature="0"
           style="fill:#ffffff;stroke:#ffffff;stroke-width:0" /><path
           id="path4053"
           d="m 516.2,400.37 0,-0.19 -0.02,-0.2 -0.02,-0.2 -0.03,-0.21 -0.04,-0.21 -0.05,-0.21 -0.06,-0.22 -0.07,-0.22 -0.08,-0.22 -0.1,-0.22 -0.11,-0.22 -0.12,-0.22 -0.13,-0.21 -0.15,-0.22 -0.17,-0.21 -0.18,-0.21 -0.2,-0.2 -0.21,-0.19 -0.23,-0.19 -0.25,-0.19 -0.26,-0.17 -0.28,-0.17 -0.31,-0.15 -0.32,-0.15 -0.34,-0.14 -0.36,-0.12 -0.39,-0.12 -0.4,-0.1 -0.22,-0.04 -0.21,-0.04 -0.23,-0.04 -0.22,-0.03 -0.24,-0.03 -0.24,-0.03 -0.24,-0.02 -0.26,-0.02 c -0.25,-0.05 -0.43,-0.25 -0.43,-0.55 0,-0.54 0.54,-0.54 0.98,-0.54 4.84,0 9.47,2.43 9.52,6.21 v 11.36 c 0,1.96 0,3.55 2,5.19 1.75,1.45 3.64,1.55 4.73,1.6 0.25,0.04 0.46,0.25 0.46,0.54 0,0.5 -0.32,0.5 -0.8,0.55 -3.3,0.2 -5.69,2 -6.24,4.44 -0.15,0.54 -0.15,0.64 -0.15,2.43 v 9.88 c 0,2.08 0,3.69 -2.39,5.58 -1.99,1.54 -5.43,2.03 -7.13,2.03 -0.44,0 -0.98,0 -0.98,-0.55 0,-0.5 0.29,-0.5 0.79,-0.55 3.13,-0.18 5.58,-1.79 6.22,-4.32 0.16,-0.46 0.16,-0.55 0.16,-2.35 v -10.47 c 0,-2.28 0.39,-3.12 1.98,-4.73 1.05,-1.03 2.5,-1.53 3.89,-1.94 -4.07,-1.14 -5.87,-3.44 -5.87,-6.33 z"
           inkscape:connector-curvature="0"
           style="fill:#ffffff;stroke:#ffffff;stroke-width:0" /></g>    </g>
    <g
       id="g4164"
       style="fill:#ffffff;stroke:#ffffff"
       transform="translate(343.45187,165.66502)">
      <g
         word-spacing="normal"
         letter-spacing="normal"
         font-size-adjust="none"
         font-stretch="normal"
         font-weight="normal"
         font-variant="normal"
         font-style="normal"
         stroke-miterlimit="10.433"
         xml:space="preserve"
         transform="matrix(1.0629921,0,0,-1.0629921,-186.02362,789.27165)"
         id="g4166"
         style="font-style:normal;font-variant:normal;font-weight:normal;font-stretch:normal;letter-spacing:normal;word-spacing:normal;text-anchor:start;fill:#ffffff;fill-opacity:1;fill-rule:evenodd;stroke:#ffffff;stroke-linecap:butt;stroke-linejoin:miter;stroke-miterlimit:10.43299961;stroke-opacity:1;stroke-dasharray:none;stroke-dashoffset:0"><path
           id="path4168"
           d="m 469.61,436.93 0.01,0.19 0.01,0.2 0.02,0.2 0.03,0.21 0.04,0.21 0.05,0.22 0.06,0.21 0.07,0.22 0.08,0.22 0.1,0.22 0.11,0.22 0.12,0.22 0.14,0.22 0.15,0.21 0.16,0.21 0.18,0.21 0.2,0.2 0.21,0.2 0.23,0.19 0.25,0.18 0.26,0.18 0.29,0.16 0.3,0.16 0.32,0.15 0.34,0.13 0.37,0.13 0.38,0.11 0.41,0.1 0.21,0.05 0.22,0.04 0.22,0.03 0.23,0.04 0.23,0.03 0.24,0.02 0.25,0.03 0.25,0.01 c 0.25,0.05 0.45,0.25 0.45,0.55 0,0.55 -0.41,0.55 -0.95,0.55 -4.99,0 -9.52,-2.53 -9.56,-6.22 v -11.36 c 0,-1.94 0,-3.55 -2,-5.19 -1.74,-1.43 -3.65,-1.54 -4.74,-1.59 -0.25,-0.05 -0.44,-0.25 -0.44,-0.55 0,-0.5 0.3,-0.5 0.8,-0.54 3.28,-0.21 5.67,-1.99 6.22,-4.44 0.16,-0.55 0.16,-0.64 0.16,-2.44 v -9.86 c 0,-2.09 0,-3.69 2.39,-5.58 1.93,-1.5 5.23,-2.04 7.17,-2.04 0.54,0 0.95,0 0.95,0.54 0,0.5 -0.31,0.5 -0.8,0.55 -3.14,0.2 -5.59,1.8 -6.23,4.33 -0.16,0.45 -0.16,0.54 -0.16,2.34 v 10.47 c 0,2.3 -0.39,3.14 -1.98,4.73 -1.05,1.05 -2.5,1.55 -3.89,1.94 4.09,1.14 5.87,3.44 5.87,6.33 z"
           style="fill:#ffffff;stroke:#ffffff;stroke-width:0"
           inkscape:connector-curvature="0" /><path
           id="path4170"
           d="m 499.8,443.67 0,0.05 0,0.05 -0.01,0.05 0,0.05 -0.01,0.05 -0.02,0.04 -0.01,0.05 -0.02,0.05 -0.01,0.04 -0.02,0.04 -0.03,0.04 -0.02,0.04 -0.03,0.04 -0.03,0.04 -0.02,0.04 -0.04,0.03 -0.03,0.04 -0.04,0.03 -0.03,0.03 -0.04,0.03 -0.04,0.02 -0.04,0.03 -0.05,0.02 -0.04,0.02 -0.05,0.02 -0.05,0.01 -0.05,0.02 -0.05,0.01 -0.05,0.01 -0.05,0 -0.06,0.01 -0.06,0 c -0.73,0 -0.89,-0.55 -1.18,-1.6 -0.6,-2 -0.11,-0.25 -0.66,-2.25 -0.59,0.3 -2.19,1.05 -4.03,1.05 v -1.09 c 1,0 2.3,-0.3 3.59,-1.39 l -8.72,-29.71 c -1.65,3.44 -1.65,9.57 -1.65,14.3 0,4.05 0,7.48 0.7,10.67 0.95,4.63 3.85,6.13 6.08,6.13 v 1.09 c -2.84,0 -6.08,-1.5 -7.92,-5.33 -1.94,-4.03 -2.19,-8.51 -2.19,-13.15 0,-3.14 0,-12.11 4.33,-15.99 -1.14,-3.84 -1.14,-3.94 -1.14,-4.09 0,-0.55 0.39,-1 1,-1 0.75,0 0.89,0.5 1.19,1.59 0.59,2 0.1,0.25 0.65,2.25 1.19,-0.65 2.69,-1.04 4.03,-1.04 v 1.09 c -1.14,0 -2.34,0.41 -3.53,1.44 l 8.66,29.75 c 1.65,-2.89 1.65,-8.68 1.65,-13.41 0,-3.62 0,-7.31 -0.61,-10.66 -0.89,-5.23 -3.53,-7.12 -6.17,-7.12 v -1.09 c 5.58,0 7.77,4.68 8.67,7.07 1.3,3.49 1.44,7.61 1.44,11.21 0,3.68 0,11.95 -4.33,16.09 z"
           style="fill:#ffffff;stroke:#ffffff;stroke-width:0"
           inkscape:connector-curvature="0" /><path
           id="path4172"
           d="m 515.54,406.25 0,0.3 -0.01,0.3 -0.02,0.29 -0.02,0.28 -0.04,0.27 -0.03,0.26 -0.05,0.26 -0.05,0.24 -0.06,0.24 -0.06,0.23 -0.07,0.22 -0.08,0.21 -0.08,0.2 -0.09,0.19 -0.1,0.19 -0.1,0.17 -0.1,0.16 -0.12,0.16 -0.11,0.14 -0.13,0.13 -0.13,0.13 -0.13,0.11 -0.14,0.1 -0.14,0.1 -0.15,0.08 -0.16,0.07 -0.15,0.06 -0.17,0.05 -0.16,0.04 -0.18,0.03 -0.17,0.01 -0.19,0.01 c -1.64,0 -2.64,-1.25 -2.64,-2.64 0,-1.34 1,-2.64 2.64,-2.64 0.6,0 1.25,0.2 1.75,0.64 0.15,0.11 0.21,0.16 0.25,0.16 0.05,0 0.1,-0.05 0.1,-0.75 0,-3.69 -1.73,-6.68 -3.39,-8.32 -0.55,-0.54 -0.55,-0.65 -0.55,-0.79 0,-0.36 0.25,-0.55 0.5,-0.55 0.55,0 4.53,3.83 4.53,9.66 z"
           style="fill:#ffffff;stroke:#ffffff;stroke-width:0"
           inkscape:connector-curvature="0" /><path
           id="path4174"
           d="m 541.6,436.93 0.01,0.19 0.01,0.2 0.02,0.2 0.03,0.21 0.04,0.21 0.05,0.22 0.06,0.21 0.07,0.22 0.09,0.22 0.09,0.22 0.11,0.22 0.12,0.22 0.14,0.22 0.15,0.21 0.16,0.21 0.18,0.21 0.2,0.2 0.21,0.2 0.23,0.19 0.25,0.18 0.26,0.18 0.29,0.16 0.3,0.16 0.32,0.15 0.35,0.13 0.36,0.13 0.38,0.11 0.41,0.1 0.21,0.05 0.22,0.04 0.22,0.03 0.23,0.04 0.23,0.03 0.24,0.02 0.25,0.03 0.25,0.01 c 0.25,0.05 0.45,0.25 0.45,0.55 0,0.55 -0.4,0.55 -0.95,0.55 -4.99,0 -9.52,-2.53 -9.56,-6.22 v -11.36 c 0,-1.94 0,-3.55 -2,-5.19 -1.74,-1.43 -3.64,-1.54 -4.74,-1.59 -0.25,-0.05 -0.44,-0.25 -0.44,-0.55 0,-0.5 0.3,-0.5 0.8,-0.54 3.28,-0.21 5.67,-1.99 6.22,-4.44 0.16,-0.55 0.16,-0.64 0.16,-2.44 v -9.86 c 0,-2.09 0,-3.69 2.39,-5.58 1.93,-1.5 5.23,-2.04 7.17,-2.04 0.55,0 0.95,0 0.95,0.54 0,0.5 -0.31,0.5 -0.79,0.55 -3.15,0.2 -5.6,1.8 -6.24,4.33 -0.16,0.45 -0.16,0.54 -0.16,2.34 v 10.47 c 0,2.3 -0.38,3.14 -1.98,4.73 -1.05,1.05 -2.5,1.55 -3.89,1.94 4.09,1.14 5.87,3.44 5.87,6.33 z"
           style="fill:#ffffff;stroke:#ffffff;stroke-width:0"
           inkscape:connector-curvature="0" /><path
           id="path4176"
           d="m 571.8,443.67 0,0.05 -0.01,0.05 0,0.05 -0.01,0.05 -0.01,0.05 -0.01,0.04 -0.02,0.05 -0.01,0.05 -0.02,0.04 -0.02,0.04 -0.02,0.04 -0.03,0.04 -0.02,0.04 -0.03,0.04 -0.03,0.04 -0.03,0.03 -0.04,0.04 -0.03,0.03 -0.04,0.03 -0.04,0.03 -0.04,0.02 -0.04,0.03 -0.04,0.02 -0.05,0.02 -0.05,0.02 -0.04,0.01 -0.05,0.02 -0.06,0.01 -0.05,0.01 -0.05,0 -0.06,0.01 -0.05,0 c -0.74,0 -0.89,-0.55 -1.19,-1.6 -0.59,-2 -0.11,-0.25 -0.66,-2.25 -0.59,0.3 -2.18,1.05 -4.03,1.05 v -1.09 c 1,0 2.3,-0.3 3.6,-1.39 l -8.72,-29.71 c -1.66,3.44 -1.66,9.57 -1.66,14.3 0,4.05 0,7.48 0.7,10.67 0.96,4.63 3.85,6.13 6.08,6.13 v 1.09 c -2.84,0 -6.08,-1.5 -7.92,-5.33 -1.94,-4.03 -2.19,-8.51 -2.19,-13.15 0,-3.14 0,-12.11 4.33,-15.99 -1.14,-3.84 -1.14,-3.94 -1.14,-4.09 0,-0.55 0.39,-1 1,-1 0.75,0 0.89,0.5 1.19,1.59 0.59,2 0.11,0.25 0.65,2.25 1.19,-0.65 2.69,-1.04 4.04,-1.04 v 1.09 c -1.15,0 -2.35,0.41 -3.54,1.44 l 8.66,29.75 c 1.66,-2.89 1.66,-8.68 1.66,-13.41 0,-3.62 0,-7.31 -0.61,-10.66 -0.89,-5.23 -3.53,-7.12 -6.17,-7.12 v -1.09 c 5.57,0 7.76,4.68 8.67,7.07 1.29,3.49 1.43,7.61 1.43,11.21 0,3.68 0,11.95 -4.32,16.09 z"
           style="fill:#ffffff;stroke:#ffffff;stroke-width:0"
           inkscape:connector-curvature="0" /><path
           id="path4178"
           d="m 588.19,400.37 0,-0.19 -0.01,-0.2 -0.03,-0.2 -0.03,-0.21 -0.03,-0.21 -0.05,-0.21 -0.06,-0.22 -0.08,-0.22 -0.08,-0.22 -0.1,-0.22 -0.1,-0.22 -0.13,-0.22 -0.13,-0.21 -0.15,-0.22 -0.17,-0.21 -0.18,-0.21 -0.19,-0.2 -0.22,-0.19 -0.23,-0.19 -0.24,-0.19 -0.27,-0.17 -0.28,-0.17 -0.3,-0.15 -0.33,-0.15 -0.34,-0.14 -0.36,-0.12 -0.39,-0.12 -0.4,-0.1 -0.21,-0.04 -0.22,-0.04 -0.22,-0.04 -0.23,-0.03 -0.24,-0.03 -0.24,-0.03 -0.24,-0.02 -0.25,-0.02 c -0.25,-0.05 -0.44,-0.25 -0.44,-0.55 0,-0.54 0.55,-0.54 0.98,-0.54 4.85,0 9.47,2.43 9.52,6.21 v 11.36 c 0,1.96 0,3.55 2,5.19 1.75,1.45 3.64,1.55 4.73,1.6 0.25,0.04 0.46,0.25 0.46,0.54 0,0.5 -0.31,0.5 -0.8,0.55 -3.3,0.2 -5.69,2 -6.23,4.44 -0.16,0.54 -0.16,0.64 -0.16,2.43 v 9.88 c 0,2.08 0,3.69 -2.39,5.58 -1.98,1.54 -5.42,2.03 -7.13,2.03 -0.43,0 -0.98,0 -0.98,-0.55 0,-0.5 0.3,-0.5 0.8,-0.55 3.12,-0.18 5.58,-1.79 6.21,-4.32 0.16,-0.46 0.16,-0.55 0.16,-2.35 v -10.47 c 0,-2.28 0.39,-3.12 1.99,-4.73 1.04,-1.03 2.5,-1.53 3.89,-1.94 -4.08,-1.14 -5.88,-3.44 -5.88,-6.33 z"
           style="fill:#ffffff;stroke:#ffffff;stroke-width:0"
           inkscape:connector-curvature="0" /><path
           id="path4180"
           d="m 613.15,400.37 -0.01,-0.19 -0.01,-0.2 -0.02,-0.2 -0.03,-0.21 -0.04,-0.21 -0.05,-0.21 -0.06,-0.22 -0.07,-0.22 -0.08,-0.22 -0.1,-0.22 -0.11,-0.22 -0.12,-0.22 -0.13,-0.21 -0.15,-0.22 -0.17,-0.21 -0.18,-0.21 -0.2,-0.2 -0.21,-0.19 -0.23,-0.19 -0.25,-0.19 -0.26,-0.17 -0.28,-0.17 -0.31,-0.15 -0.32,-0.15 -0.34,-0.14 -0.37,-0.12 -0.38,-0.12 -0.41,-0.1 -0.21,-0.04 -0.21,-0.04 -0.23,-0.04 -0.22,-0.03 -0.24,-0.03 -0.24,-0.03 -0.24,-0.02 -0.26,-0.02 c -0.25,-0.05 -0.43,-0.25 -0.43,-0.55 0,-0.54 0.54,-0.54 0.98,-0.54 4.84,0 9.47,2.43 9.52,6.21 v 11.36 c 0,1.96 0,3.55 2,5.19 1.75,1.45 3.64,1.55 4.73,1.6 0.25,0.04 0.45,0.25 0.45,0.54 0,0.5 -0.31,0.5 -0.79,0.55 -3.3,0.2 -5.69,2 -6.24,4.44 -0.15,0.54 -0.15,0.64 -0.15,2.43 v 9.88 c 0,2.08 0,3.69 -2.39,5.58 -1.99,1.54 -5.43,2.03 -7.13,2.03 -0.44,0 -0.98,0 -0.98,-0.55 0,-0.5 0.29,-0.5 0.79,-0.55 3.13,-0.18 5.58,-1.79 6.22,-4.32 0.16,-0.46 0.16,-0.55 0.16,-2.35 v -10.47 c 0,-2.28 0.39,-3.12 1.98,-4.73 1.05,-1.03 2.5,-1.53 3.89,-1.94 -4.07,-1.14 -5.87,-3.44 -5.87,-6.33 z"
           style="fill:#ffffff;stroke:#ffffff;stroke-width:0"
           inkscape:connector-curvature="0" /></g>    </g>
    <g
       transform="translate(-105.05586,492.95446)"
       style="fill:#ffffff;stroke:#ffffff"
       id="g4234">
      <g
         style="font-style:normal;font-variant:normal;font-weight:normal;font-stretch:normal;letter-spacing:normal;word-spacing:normal;text-anchor:start;fill:#ffffff;fill-opacity:1;fill-rule:evenodd;stroke:#ffffff;stroke-linecap:butt;stroke-linejoin:miter;stroke-miterlimit:10.43299961;stroke-opacity:1;stroke-dasharray:none;stroke-dashoffset:0"
         id="g4236"
         transform="matrix(1.0629921,0,0,-1.0629921,-186.02362,789.27165)"
         xml:space="preserve"
         stroke-miterlimit="10.433"
         font-style="normal"
         font-variant="normal"
         font-weight="normal"
         font-stretch="normal"
         font-size-adjust="none"
         letter-spacing="normal"
         word-spacing="normal"><path
           inkscape:connector-curvature="0"
           style="fill:#ffffff;stroke:#ffffff;stroke-width:0"
           d="m 469.61,436.93 0.01,0.19 0.01,0.2 0.02,0.2 0.03,0.21 0.04,0.21 0.05,0.22 0.06,0.21 0.07,0.22 0.08,0.22 0.1,0.22 0.11,0.22 0.12,0.22 0.14,0.22 0.15,0.21 0.16,0.21 0.18,0.21 0.2,0.2 0.21,0.2 0.23,0.19 0.25,0.18 0.26,0.18 0.29,0.16 0.3,0.16 0.32,0.15 0.34,0.13 0.37,0.13 0.38,0.11 0.41,0.1 0.21,0.05 0.22,0.04 0.22,0.03 0.23,0.04 0.23,0.03 0.24,0.02 0.25,0.03 0.25,0.01 c 0.25,0.05 0.45,0.25 0.45,0.55 0,0.55 -0.41,0.55 -0.95,0.55 -4.99,0 -9.52,-2.53 -9.56,-6.22 v -11.36 c 0,-1.94 0,-3.55 -2,-5.19 -1.74,-1.43 -3.65,-1.54 -4.74,-1.59 -0.25,-0.05 -0.44,-0.25 -0.44,-0.55 0,-0.5 0.3,-0.5 0.8,-0.54 3.28,-0.21 5.67,-1.99 6.22,-4.44 0.16,-0.55 0.16,-0.64 0.16,-2.44 v -9.86 c 0,-2.09 0,-3.69 2.39,-5.58 1.93,-1.5 5.23,-2.04 7.17,-2.04 0.54,0 0.95,0 0.95,0.54 0,0.5 -0.31,0.5 -0.8,0.55 -3.14,0.2 -5.59,1.8 -6.23,4.33 -0.16,0.45 -0.16,0.54 -0.16,2.34 v 10.47 c 0,2.3 -0.39,3.14 -1.98,4.73 -1.05,1.05 -2.5,1.55 -3.89,1.94 4.09,1.14 5.87,3.44 5.87,6.33 z"
           id="path4238" /><path
           inkscape:connector-curvature="0"
           style="fill:#ffffff;stroke:#ffffff;stroke-width:0"
           d="m 499.8,443.67 0,0.05 0,0.05 -0.01,0.05 0,0.05 -0.01,0.05 -0.02,0.04 -0.01,0.05 -0.02,0.05 -0.01,0.04 -0.02,0.04 -0.03,0.04 -0.02,0.04 -0.03,0.04 -0.03,0.04 -0.02,0.04 -0.04,0.03 -0.03,0.04 -0.04,0.03 -0.03,0.03 -0.04,0.03 -0.04,0.02 -0.04,0.03 -0.05,0.02 -0.04,0.02 -0.05,0.02 -0.05,0.01 -0.05,0.02 -0.05,0.01 -0.05,0.01 -0.05,0 -0.06,0.01 -0.06,0 c -0.73,0 -0.89,-0.55 -1.18,-1.6 -0.6,-2 -0.11,-0.25 -0.66,-2.25 -0.59,0.3 -2.19,1.05 -4.03,1.05 v -1.09 c 1,0 2.3,-0.3 3.59,-1.39 l -8.72,-29.71 c -1.65,3.44 -1.65,9.57 -1.65,14.3 0,4.05 0,7.48 0.7,10.67 0.95,4.63 3.85,6.13 6.08,6.13 v 1.09 c -2.84,0 -6.08,-1.5 -7.92,-5.33 -1.94,-4.03 -2.19,-8.51 -2.19,-13.15 0,-3.14 0,-12.11 4.33,-15.99 -1.14,-3.84 -1.14,-3.94 -1.14,-4.09 0,-0.55 0.39,-1 1,-1 0.75,0 0.89,0.5 1.19,1.59 0.59,2 0.1,0.25 0.65,2.25 1.19,-0.65 2.69,-1.04 4.03,-1.04 v 1.09 c -1.14,0 -2.34,0.41 -3.53,1.44 l 8.66,29.75 c 1.65,-2.89 1.65,-8.68 1.65,-13.41 0,-3.62 0,-7.31 -0.61,-10.66 -0.89,-5.23 -3.53,-7.12 -6.17,-7.12 v -1.09 c 5.58,0 7.77,4.68 8.67,7.07 1.3,3.49 1.44,7.61 1.44,11.21 0,3.68 0,11.95 -4.33,16.09 z"
           id="path4240" /><path
           inkscape:connector-curvature="0"
           style="fill:#ffffff;stroke:#ffffff;stroke-width:0"
           d="m 515.54,406.25 0,0.3 -0.01,0.3 -0.02,0.29 -0.02,0.28 -0.04,0.27 -0.03,0.26 -0.05,0.26 -0.05,0.24 -0.06,0.24 -0.06,0.23 -0.07,0.22 -0.08,0.21 -0.08,0.2 -0.09,0.19 -0.1,0.19 -0.1,0.17 -0.1,0.16 -0.12,0.16 -0.11,0.14 -0.13,0.13 -0.13,0.13 -0.13,0.11 -0.14,0.1 -0.14,0.1 -0.15,0.08 -0.16,0.07 -0.15,0.06 -0.17,0.05 -0.16,0.04 -0.18,0.03 -0.17,0.01 -0.19,0.01 c -1.64,0 -2.64,-1.25 -2.64,-2.64 0,-1.34 1,-2.64 2.64,-2.64 0.6,0 1.25,0.2 1.75,0.64 0.15,0.11 0.21,0.16 0.25,0.16 0.05,0 0.1,-0.05 0.1,-0.75 0,-3.69 -1.73,-6.68 -3.39,-8.32 -0.55,-0.54 -0.55,-0.65 -0.55,-0.79 0,-0.36 0.25,-0.55 0.5,-0.55 0.55,0 4.53,3.83 4.53,9.66 z"
           id="path4242" /><path
           inkscape:connector-curvature="0"
           style="fill:#ffffff;stroke:#ffffff;stroke-width:0"
           d="m 541.6,436.93 0.01,0.19 0.01,0.2 0.02,0.2 0.03,0.21 0.04,0.21 0.05,0.22 0.06,0.21 0.07,0.22 0.09,0.22 0.09,0.22 0.11,0.22 0.12,0.22 0.14,0.22 0.15,0.21 0.16,0.21 0.18,0.21 0.2,0.2 0.21,0.2 0.23,0.19 0.25,0.18 0.26,0.18 0.29,0.16 0.3,0.16 0.32,0.15 0.35,0.13 0.36,0.13 0.38,0.11 0.41,0.1 0.21,0.05 0.22,0.04 0.22,0.03 0.23,0.04 0.23,0.03 0.24,0.02 0.25,0.03 0.25,0.01 c 0.25,0.05 0.45,0.25 0.45,0.55 0,0.55 -0.4,0.55 -0.95,0.55 -4.99,0 -9.52,-2.53 -9.56,-6.22 v -11.36 c 0,-1.94 0,-3.55 -2,-5.19 -1.74,-1.43 -3.64,-1.54 -4.74,-1.59 -0.25,-0.05 -0.44,-0.25 -0.44,-0.55 0,-0.5 0.3,-0.5 0.8,-0.54 3.28,-0.21 5.67,-1.99 6.22,-4.44 0.16,-0.55 0.16,-0.64 0.16,-2.44 v -9.86 c 0,-2.09 0,-3.69 2.39,-5.58 1.93,-1.5 5.23,-2.04 7.17,-2.04 0.55,0 0.95,0 0.95,0.54 0,0.5 -0.31,0.5 -0.79,0.55 -3.15,0.2 -5.6,1.8 -6.24,4.33 -0.16,0.45 -0.16,0.54 -0.16,2.34 v 10.47 c 0,2.3 -0.38,3.14 -1.98,4.73 -1.05,1.05 -2.5,1.55 -3.89,1.94 4.09,1.14 5.87,3.44 5.87,6.33 z"
           id="path4244" /><path
           inkscape:connector-curvature="0"
           style="fill:#ffffff;stroke:#ffffff;stroke-width:0"
           d="m 571.8,443.67 0,0.05 -0.01,0.05 0,0.05 -0.01,0.05 -0.01,0.05 -0.01,0.04 -0.02,0.05 -0.01,0.05 -0.02,0.04 -0.02,0.04 -0.02,0.04 -0.03,0.04 -0.02,0.04 -0.03,0.04 -0.03,0.04 -0.03,0.03 -0.04,0.04 -0.03,0.03 -0.04,0.03 -0.04,0.03 -0.04,0.02 -0.04,0.03 -0.04,0.02 -0.05,0.02 -0.05,0.02 -0.04,0.01 -0.05,0.02 -0.06,0.01 -0.05,0.01 -0.05,0 -0.06,0.01 -0.05,0 c -0.74,0 -0.89,-0.55 -1.19,-1.6 -0.59,-2 -0.11,-0.25 -0.66,-2.25 -0.59,0.3 -2.18,1.05 -4.03,1.05 v -1.09 c 1,0 2.3,-0.3 3.6,-1.39 l -8.72,-29.71 c -1.66,3.44 -1.66,9.57 -1.66,14.3 0,4.05 0,7.48 0.7,10.67 0.96,4.63 3.85,6.13 6.08,6.13 v 1.09 c -2.84,0 -6.08,-1.5 -7.92,-5.33 -1.94,-4.03 -2.19,-8.51 -2.19,-13.15 0,-3.14 0,-12.11 4.33,-15.99 -1.14,-3.84 -1.14,-3.94 -1.14,-4.09 0,-0.55 0.39,-1 1,-1 0.75,0 0.89,0.5 1.19,1.59 0.59,2 0.11,0.25 0.65,2.25 1.19,-0.65 2.69,-1.04 4.04,-1.04 v 1.09 c -1.15,0 -2.35,0.41 -3.54,1.44 l 8.66,29.75 c 1.66,-2.89 1.66,-8.68 1.66,-13.41 0,-3.62 0,-7.31 -0.61,-10.66 -0.89,-5.23 -3.53,-7.12 -6.17,-7.12 v -1.09 c 5.57,0 7.76,4.68 8.67,7.07 1.29,3.49 1.43,7.61 1.43,11.21 0,3.68 0,11.95 -4.32,16.09 z"
           id="path4246" /><path
           inkscape:connector-curvature="0"
           style="fill:#ffffff;stroke:#ffffff;stroke-width:0"
           d="m 588.19,400.37 0,-0.19 -0.01,-0.2 -0.03,-0.2 -0.03,-0.21 -0.03,-0.21 -0.05,-0.21 -0.06,-0.22 -0.08,-0.22 -0.08,-0.22 -0.1,-0.22 -0.1,-0.22 -0.13,-0.22 -0.13,-0.21 -0.15,-0.22 -0.17,-0.21 -0.18,-0.21 -0.19,-0.2 -0.22,-0.19 -0.23,-0.19 -0.24,-0.19 -0.27,-0.17 -0.28,-0.17 -0.3,-0.15 -0.33,-0.15 -0.34,-0.14 -0.36,-0.12 -0.39,-0.12 -0.4,-0.1 -0.21,-0.04 -0.22,-0.04 -0.22,-0.04 -0.23,-0.03 -0.24,-0.03 -0.24,-0.03 -0.24,-0.02 -0.25,-0.02 c -0.25,-0.05 -0.44,-0.25 -0.44,-0.55 0,-0.54 0.55,-0.54 0.98,-0.54 4.85,0 9.47,2.43 9.52,6.21 v 11.36 c 0,1.96 0,3.55 2,5.19 1.75,1.45 3.64,1.55 4.73,1.6 0.25,0.04 0.46,0.25 0.46,0.54 0,0.5 -0.31,0.5 -0.8,0.55 -3.3,0.2 -5.69,2 -6.23,4.44 -0.16,0.54 -0.16,0.64 -0.16,2.43 v 9.88 c 0,2.08 0,3.69 -2.39,5.58 -1.98,1.54 -5.42,2.03 -7.13,2.03 -0.43,0 -0.98,0 -0.98,-0.55 0,-0.5 0.3,-0.5 0.8,-0.55 3.12,-0.18 5.58,-1.79 6.21,-4.32 0.16,-0.46 0.16,-0.55 0.16,-2.35 v -10.47 c 0,-2.28 0.39,-3.12 1.99,-4.73 1.04,-1.03 2.5,-1.53 3.89,-1.94 -4.08,-1.14 -5.88,-3.44 -5.88,-6.33 z"
           id="path4248" /><path
           inkscape:connector-curvature="0"
           style="fill:#ffffff;stroke:#ffffff;stroke-width:0"
           d="m 612.49,406.25 0,0.3 -0.01,0.3 -0.02,0.29 -0.02,0.28 -0.04,0.27 -0.03,0.26 -0.05,0.26 -0.05,0.24 -0.06,0.24 -0.06,0.23 -0.07,0.22 -0.08,0.21 -0.08,0.2 -0.09,0.19 -0.1,0.19 -0.1,0.17 -0.11,0.16 -0.11,0.16 -0.12,0.14 -0.12,0.13 -0.13,0.13 -0.13,0.11 -0.14,0.1 -0.14,0.1 -0.15,0.08 -0.16,0.07 -0.15,0.06 -0.17,0.05 -0.17,0.04 -0.17,0.03 -0.17,0.01 -0.19,0.01 c -1.64,0 -2.64,-1.25 -2.64,-2.64 0,-1.34 1,-2.64 2.64,-2.64 0.6,0 1.25,0.2 1.75,0.64 0.15,0.11 0.21,0.16 0.25,0.16 0.05,0 0.1,-0.05 0.1,-0.75 0,-3.69 -1.74,-6.68 -3.39,-8.32 -0.55,-0.54 -0.55,-0.65 -0.55,-0.79 0,-0.36 0.25,-0.55 0.5,-0.55 0.55,0 4.53,3.83 4.53,9.66 z"
           id="path4250" /><path
           inkscape:connector-curvature="0"
           style="fill:#ffffff;stroke:#ffffff;stroke-width:0"
           d="m 638.55,436.93 0,0.19 0.02,0.2 0.02,0.2 0.03,0.21 0.04,0.21 0.05,0.22 0.06,0.21 0.07,0.22 0.08,0.22 0.1,0.22 0.11,0.22 0.12,0.22 0.13,0.22 0.15,0.21 0.17,0.21 0.18,0.21 0.2,0.2 0.21,0.2 0.23,0.19 0.25,0.18 0.26,0.18 0.28,0.16 0.31,0.16 0.32,0.15 0.34,0.13 0.36,0.13 0.39,0.11 0.4,0.1 0.22,0.05 0.21,0.04 0.23,0.03 0.22,0.04 0.24,0.03 0.24,0.02 0.24,0.03 0.25,0.01 c 0.25,0.05 0.46,0.25 0.46,0.55 0,0.55 -0.41,0.55 -0.96,0.55 -4.98,0 -9.51,-2.53 -9.56,-6.22 v -11.36 c 0,-1.94 0,-3.55 -2,-5.19 -1.73,-1.43 -3.64,-1.54 -4.73,-1.59 -0.25,-0.05 -0.44,-0.25 -0.44,-0.55 0,-0.5 0.3,-0.5 0.8,-0.54 3.28,-0.21 5.67,-1.99 6.22,-4.44 0.15,-0.55 0.15,-0.64 0.15,-2.44 v -9.86 c 0,-2.09 0,-3.69 2.39,-5.58 1.94,-1.5 5.24,-2.04 7.17,-2.04 0.55,0 0.96,0 0.96,0.54 0,0.5 -0.31,0.5 -0.8,0.55 -3.14,0.2 -5.59,1.8 -6.23,4.33 -0.16,0.45 -0.16,0.54 -0.16,2.34 v 10.47 c 0,2.3 -0.39,3.14 -1.98,4.73 -1.05,1.05 -2.5,1.55 -3.89,1.94 4.09,1.14 5.87,3.44 5.87,6.33 z"
           id="path4252" /><path
           inkscape:connector-curvature="0"
           style="fill:#ffffff;stroke:#ffffff;stroke-width:0"
           d="m 668.74,443.67 0,0.05 0,0.05 -0.01,0.05 -0.01,0.05 -0.01,0.05 -0.01,0.04 -0.01,0.05 -0.02,0.05 -0.02,0.04 -0.02,0.04 -0.02,0.04 -0.02,0.04 -0.03,0.04 -0.03,0.04 -0.03,0.04 -0.03,0.03 -0.03,0.04 -0.04,0.03 -0.03,0.03 -0.04,0.03 -0.04,0.02 -0.05,0.03 -0.04,0.02 -0.04,0.02 -0.05,0.02 -0.05,0.01 -0.05,0.02 -0.05,0.01 -0.05,0.01 -0.06,0 -0.05,0.01 -0.06,0 c -0.73,0 -0.89,-0.55 -1.19,-1.6 -0.59,-2 -0.1,-0.25 -0.65,-2.25 -0.6,0.3 -2.19,1.05 -4.03,1.05 v -1.09 c 1,0 2.29,-0.3 3.59,-1.39 l -8.72,-29.71 c -1.65,3.44 -1.65,9.57 -1.65,14.3 0,4.05 0,7.48 0.7,10.67 0.95,4.63 3.84,6.13 6.08,6.13 v 1.09 c -2.85,0 -6.08,-1.5 -7.92,-5.33 -1.94,-4.03 -2.19,-8.51 -2.19,-13.15 0,-3.14 0,-12.11 4.33,-15.99 -1.14,-3.84 -1.14,-3.94 -1.14,-4.09 0,-0.55 0.39,-1 1,-1 0.75,0 0.89,0.5 1.18,1.59 0.6,2 0.11,0.25 0.66,2.25 1.19,-0.65 2.69,-1.04 4.03,-1.04 v 1.09 c -1.14,0 -2.34,0.41 -3.53,1.44 l 8.66,29.75 c 1.65,-2.89 1.65,-8.68 1.65,-13.41 0,-3.62 0,-7.31 -0.61,-10.66 -0.89,-5.23 -3.53,-7.12 -6.17,-7.12 v -1.09 c 5.58,0 7.77,4.68 8.67,7.07 1.3,3.49 1.44,7.61 1.44,11.21 0,3.68 0,11.95 -4.33,16.09 z"
           id="path4254" /><path
           inkscape:connector-curvature="0"
           style="fill:#ffffff;stroke:#ffffff;stroke-width:0"
           d="m 684.48,406.25 0,0.3 -0.01,0.3 -0.02,0.29 -0.03,0.28 -0.03,0.27 -0.04,0.26 -0.04,0.26 -0.05,0.24 -0.06,0.24 -0.07,0.23 -0.07,0.22 -0.07,0.21 -0.09,0.2 -0.09,0.19 -0.09,0.19 -0.1,0.17 -0.11,0.16 -0.11,0.16 -0.12,0.14 -0.12,0.13 -0.13,0.13 -0.13,0.11 -0.14,0.1 -0.15,0.1 -0.14,0.08 -0.16,0.07 -0.16,0.06 -0.16,0.05 -0.17,0.04 -0.17,0.03 -0.18,0.01 -0.18,0.01 c -1.64,0 -2.64,-1.25 -2.64,-2.64 0,-1.34 1,-2.64 2.64,-2.64 0.6,0 1.25,0.2 1.75,0.64 0.14,0.11 0.21,0.16 0.25,0.16 0.05,0 0.1,-0.05 0.1,-0.75 0,-3.69 -1.74,-6.68 -3.39,-8.32 -0.55,-0.54 -0.55,-0.65 -0.55,-0.79 0,-0.36 0.25,-0.55 0.5,-0.55 0.55,0 4.53,3.83 4.53,9.66 z"
           id="path4256" /><path
           inkscape:connector-curvature="0"
           style="fill:#ffffff;stroke:#ffffff;stroke-width:0"
           d="m 710.54,436.93 0.01,0.19 0.01,0.2 0.02,0.2 0.03,0.21 0.04,0.21 0.05,0.22 0.06,0.21 0.07,0.22 0.08,0.22 0.1,0.22 0.11,0.22 0.12,0.22 0.14,0.22 0.15,0.21 0.16,0.21 0.18,0.21 0.2,0.2 0.21,0.2 0.23,0.19 0.25,0.18 0.26,0.18 0.29,0.16 0.3,0.16 0.32,0.15 0.34,0.13 0.37,0.13 0.38,0.11 0.41,0.1 0.21,0.05 0.21,0.04 0.23,0.03 0.23,0.04 0.23,0.03 0.24,0.02 0.25,0.03 0.25,0.01 c 0.25,0.05 0.45,0.25 0.45,0.55 0,0.55 -0.41,0.55 -0.95,0.55 -4.99,0 -9.52,-2.53 -9.56,-6.22 v -11.36 c 0,-1.94 0,-3.55 -2,-5.19 -1.74,-1.43 -3.65,-1.54 -4.74,-1.59 -0.25,-0.05 -0.44,-0.25 -0.44,-0.55 0,-0.5 0.3,-0.5 0.8,-0.54 3.28,-0.21 5.67,-1.99 6.22,-4.44 0.16,-0.55 0.16,-0.64 0.16,-2.44 v -9.86 c 0,-2.09 0,-3.69 2.38,-5.58 1.94,-1.5 5.24,-2.04 7.18,-2.04 0.54,0 0.95,0 0.95,0.54 0,0.5 -0.31,0.5 -0.8,0.55 -3.14,0.2 -5.59,1.8 -6.23,4.33 -0.16,0.45 -0.16,0.54 -0.16,2.34 v 10.47 c 0,2.3 -0.39,3.14 -1.98,4.73 -1.05,1.05 -2.5,1.55 -3.89,1.94 4.09,1.14 5.87,3.44 5.87,6.33 z"
           id="path4258" /><path
           inkscape:connector-curvature="0"
           style="fill:#ffffff;stroke:#ffffff;stroke-width:0"
           d="m 740.73,443.67 0,0.05 0,0.05 -0.01,0.05 0,0.05 -0.01,0.05 -0.02,0.04 -0.01,0.05 -0.02,0.05 -0.01,0.04 -0.03,0.04 -0.02,0.04 -0.02,0.04 -0.03,0.04 -0.03,0.04 -0.03,0.04 -0.03,0.03 -0.03,0.04 -0.04,0.03 -0.03,0.03 -0.04,0.03 -0.04,0.02 -0.04,0.03 -0.05,0.02 -0.04,0.02 -0.05,0.02 -0.05,0.01 -0.05,0.02 -0.05,0.01 -0.05,0.01 -0.05,0 -0.06,0.01 -0.06,0 c -0.73,0 -0.89,-0.55 -1.18,-1.6 -0.6,-2 -0.11,-0.25 -0.66,-2.25 -0.59,0.3 -2.19,1.05 -4.03,1.05 v -1.09 c 1,0 2.3,-0.3 3.59,-1.39 l -8.72,-29.71 c -1.65,3.44 -1.65,9.57 -1.65,14.3 0,4.05 0,7.48 0.7,10.67 0.95,4.63 3.84,6.13 6.08,6.13 v 1.09 c -2.84,0 -6.08,-1.5 -7.92,-5.33 -1.94,-4.03 -2.19,-8.51 -2.19,-13.15 0,-3.14 0,-12.11 4.33,-15.99 -1.14,-3.84 -1.14,-3.94 -1.14,-4.09 0,-0.55 0.39,-1 1,-1 0.75,0 0.89,0.5 1.18,1.59 0.6,2 0.11,0.25 0.66,2.25 1.19,-0.65 2.69,-1.04 4.03,-1.04 v 1.09 c -1.14,0 -2.34,0.41 -3.53,1.44 l 8.66,29.75 c 1.65,-2.89 1.65,-8.68 1.65,-13.41 0,-3.62 0,-7.31 -0.61,-10.66 -0.89,-5.23 -3.53,-7.12 -6.17,-7.12 v -1.09 c 5.58,0 7.77,4.68 8.67,7.07 1.3,3.49 1.44,7.61 1.44,11.21 0,3.68 0,11.95 -4.33,16.09 z"
           id="path4260" /><path
           inkscape:connector-curvature="0"
           style="fill:#ffffff;stroke:#ffffff;stroke-width:0"
           d="m 757.13,400.37 0,-0.19 -0.02,-0.2 -0.02,-0.2 -0.03,-0.21 -0.04,-0.21 -0.05,-0.21 -0.06,-0.22 -0.07,-0.22 -0.08,-0.22 -0.1,-0.22 -0.11,-0.22 -0.12,-0.22 -0.13,-0.21 -0.15,-0.22 -0.17,-0.21 -0.18,-0.21 -0.2,-0.2 -0.21,-0.19 -0.23,-0.19 -0.25,-0.19 -0.26,-0.17 -0.28,-0.17 -0.31,-0.15 -0.32,-0.15 -0.34,-0.14 -0.36,-0.12 -0.39,-0.12 -0.4,-0.1 -0.22,-0.04 -0.21,-0.04 -0.23,-0.04 -0.22,-0.03 -0.24,-0.03 -0.24,-0.03 -0.24,-0.02 -0.25,-0.02 c -0.25,-0.05 -0.44,-0.25 -0.44,-0.55 0,-0.54 0.54,-0.54 0.98,-0.54 4.84,0 9.47,2.43 9.52,6.21 v 11.36 c 0,1.96 0,3.55 2,5.19 1.75,1.45 3.64,1.55 4.73,1.6 0.25,0.04 0.46,0.25 0.46,0.54 0,0.5 -0.32,0.5 -0.8,0.55 -3.3,0.2 -5.69,2 -6.24,4.44 -0.15,0.54 -0.15,0.64 -0.15,2.43 v 9.88 c 0,2.08 0,3.69 -2.39,5.58 -1.99,1.54 -5.42,2.03 -7.13,2.03 -0.44,0 -0.98,0 -0.98,-0.55 0,-0.5 0.29,-0.5 0.79,-0.55 3.13,-0.18 5.58,-1.79 6.22,-4.32 0.16,-0.46 0.16,-0.55 0.16,-2.35 v -10.47 c 0,-2.28 0.39,-3.12 1.98,-4.73 1.05,-1.03 2.5,-1.53 3.89,-1.94 -4.07,-1.14 -5.87,-3.44 -5.87,-6.33 z"
           id="path4262" /><path
           inkscape:connector-curvature="0"
           style="fill:#ffffff;stroke:#ffffff;stroke-width:0"
           d="m 782.09,400.37 -0.01,-0.19 -0.01,-0.2 -0.02,-0.2 -0.03,-0.21 -0.04,-0.21 -0.05,-0.21 -0.06,-0.22 -0.07,-0.22 -0.09,-0.22 -0.09,-0.22 -0.11,-0.22 -0.12,-0.22 -0.14,-0.21 -0.15,-0.22 -0.16,-0.21 -0.18,-0.21 -0.2,-0.2 -0.21,-0.19 -0.23,-0.19 -0.25,-0.19 -0.26,-0.17 -0.29,-0.17 -0.3,-0.15 -0.32,-0.15 -0.34,-0.14 -0.37,-0.12 -0.38,-0.12 -0.41,-0.1 -0.21,-0.04 -0.22,-0.04 -0.22,-0.04 -0.23,-0.03 -0.23,-0.03 -0.24,-0.03 -0.25,-0.02 -0.25,-0.02 c -0.25,-0.05 -0.44,-0.25 -0.44,-0.55 0,-0.54 0.55,-0.54 0.99,-0.54 4.84,0 9.47,2.43 9.51,6.21 v 11.36 c 0,1.96 0,3.55 2,5.19 1.75,1.45 3.64,1.55 4.74,1.6 0.25,0.04 0.45,0.25 0.45,0.54 0,0.5 -0.31,0.5 -0.8,0.55 -3.29,0.2 -5.68,2 -6.23,4.44 -0.16,0.54 -0.16,0.64 -0.16,2.43 v 9.88 c 0,2.08 0,3.69 -2.39,5.58 -1.98,1.54 -5.42,2.03 -7.12,2.03 -0.44,0 -0.99,0 -0.99,-0.55 0,-0.5 0.3,-0.5 0.8,-0.55 3.13,-0.18 5.58,-1.79 6.22,-4.32 0.16,-0.46 0.16,-0.55 0.16,-2.35 v -10.47 c 0,-2.28 0.39,-3.12 1.98,-4.73 1.05,-1.03 2.5,-1.53 3.89,-1.94 -4.08,-1.14 -5.87,-3.44 -5.87,-6.33 z"
           id="path4264" /><path
           inkscape:connector-curvature="0"
           style="fill:#ffffff;stroke:#ffffff;stroke-width:0"
           d="m 807.04,400.37 0,-0.19 -0.01,-0.2 -0.02,-0.2 -0.03,-0.21 -0.04,-0.21 -0.05,-0.21 -0.06,-0.22 -0.07,-0.22 -0.09,-0.22 -0.09,-0.22 -0.11,-0.22 -0.12,-0.22 -0.14,-0.21 -0.15,-0.22 -0.16,-0.21 -0.19,-0.21 -0.19,-0.2 -0.21,-0.19 -0.23,-0.19 -0.25,-0.19 -0.27,-0.17 -0.28,-0.17 -0.3,-0.15 -0.33,-0.15 -0.34,-0.14 -0.36,-0.12 -0.38,-0.12 -0.41,-0.1 -0.21,-0.04 -0.22,-0.04 -0.22,-0.04 -0.23,-0.03 -0.23,-0.03 -0.24,-0.03 -0.25,-0.02 -0.25,-0.02 c -0.25,-0.05 -0.44,-0.25 -0.44,-0.55 0,-0.54 0.55,-0.54 0.98,-0.54 4.85,0 9.47,2.43 9.52,6.21 v 11.36 c 0,1.96 0,3.55 2,5.19 1.75,1.45 3.64,1.55 4.73,1.6 0.25,0.04 0.46,0.25 0.46,0.54 0,0.5 -0.31,0.5 -0.8,0.55 -3.29,0.2 -5.69,2 -6.23,4.44 -0.16,0.54 -0.16,0.64 -0.16,2.43 v 9.88 c 0,2.08 0,3.69 -2.39,5.58 -1.98,1.54 -5.42,2.03 -7.13,2.03 -0.43,0 -0.98,0 -0.98,-0.55 0,-0.5 0.3,-0.5 0.8,-0.55 3.12,-0.18 5.58,-1.79 6.22,-4.32 0.15,-0.46 0.15,-0.55 0.15,-2.35 v -10.47 c 0,-2.28 0.39,-3.12 1.99,-4.73 1.04,-1.03 2.5,-1.53 3.89,-1.94 -4.08,-1.14 -5.88,-3.44 -5.88,-6.33 z"
           id="path4266" /></g>    </g>
    <g
       id="g4365"
       style="stroke:#ffffff;fill:none">
      <g
         text-anchor="start"
         word-spacing="normal"
         letter-spacing="normal"
         font-size-adjust="none"
         font-stretch="normal"
         font-weight="normal"
         font-variant="normal"
         font-style="normal"
         fill-opacity="1"
         fill-rule="evenodd"
         fill="none"
         stroke-opacity="1"
         stroke-dashoffset="0"
         stroke-dasharray="none"
         stroke-miterlimit="10.433"
         stroke-linejoin="miter"
         stroke-linecap="butt"
         stroke="black"
         xml:space="preserve"
         transform="matrix(1.06299211429,0,0,-1.06299211429,-186.02362,789.27165)"
         id="g4367"
         style="stroke:#ffffff;fill:none"><path
           id="path4369"
           fill="black"
           stroke-width="0"
           d="M478.44,422.14 L478.44,422.88 L478.43,423.63 L478.41,424.38 L478.37,425.12 L478.33,425.87 L478.27,426.61 L478.19,427.35 L478.1,428.08 L477.98,428.81 L477.84,429.54 L477.68,430.26 L477.49,430.98 L477.28,431.7 L477.03,432.4 L476.75,433.1 L476.6,433.45 L476.44,433.79 C474.16,438.59,470.07,439.39,467.97,439.39 C464.99,439.39,461.35,438.09,459.3,433.45 C457.71,430.01,457.46,426.12,457.46,422.14 C457.46,418.4,457.66,413.92,459.71,410.14 C461.85,406.11,465.49,405.11,467.93,405.11 V406.2 C465.99,406.2,463.04,407.45,462.14,412.23 C461.6,415.21,461.6,419.79,461.6,422.75 C461.6,425.93,461.6,429.21,462,431.9 C462.94,437.84,466.68,438.28,467.93,438.28 C469.57,438.28,472.86,437.39,473.8,432.45 C474.3,429.67,474.3,425.87,474.3,422.75 C474.3,419,474.3,415.62,473.75,412.43 C473,407.7,470.16,406.2,467.93,406.2 H467.93 V405.11 C470.61,405.11,474.39,406.15,476.6,410.89 C478.19,414.32,478.44,418.2,478.44,422.14 Z "
           style="stroke:#ffffff;fill:none" /><path
           id="path4371"
           fill="black"
           stroke-width="0"
           d="M528.51,422.5 L528.65,422.5 L528.8,422.5 L528.94,422.5 L529.01,422.51 L529.09,422.51 L529.16,422.52 L529.23,422.53 L529.3,422.54 L529.37,422.55 L529.44,422.56 L529.5,422.58 L529.57,422.6 L529.63,422.62 L529.69,422.64 L529.75,422.67 L529.81,422.7 L529.86,422.74 L529.91,422.77 L529.96,422.82 L530,422.86 L530.04,422.91 L530.06,422.94 L530.07,422.97 L530.09,422.99 L530.11,423.02 L530.12,423.05 L530.13,423.09 L530.15,423.12 L530.16,423.16 L530.17,423.19 L530.17,423.23 L530.18,423.27 L530.19,423.31 L530.19,423.35 L530.2,423.39 L530.2,423.43 L530.2,423.48 C530.2,424.48,529.25,424.48,528.56,424.48 H498.71 C498.01,424.48,497.07,424.48,497.07,423.48 C497.07,422.5,498.01,422.5,498.76,422.5 Z "
           style="stroke:#ffffff;fill:none" /><path
           id="path4373"
           fill="black"
           stroke-width="0"
           d="M528.56,412.82 L528.62,412.82 L528.69,412.82 L528.83,412.83 L528.97,412.83 L529.04,412.83 L529.11,412.84 L529.17,412.85 L529.24,412.85 L529.31,412.86 L529.38,412.88 L529.45,412.89 L529.51,412.91 L529.57,412.93 L529.64,412.95 L529.7,412.97 L529.75,413 L529.81,413.03 L529.86,413.07 L529.91,413.11 L529.96,413.15 L530,413.2 L530.02,413.22 L530.04,413.25 L530.06,413.27 L530.07,413.3 L530.09,413.33 L530.11,413.36 L530.12,413.39 L530.13,413.42 L530.15,413.46 L530.16,413.49 L530.17,413.53 L530.17,413.57 L530.18,413.61 L530.19,413.65 L530.19,413.69 L530.2,413.73 L530.2,413.78 L530.2,413.82 C530.2,414.82,529.25,414.82,528.51,414.82 H498.76 C498.01,414.82,497.07,414.82,497.07,413.82 C497.07,412.82,498.01,412.82,498.71,412.82 Z "
           style="stroke:#ffffff;fill:none" /><path
           id="path4375"
           fill="black"
           stroke-width="0"
           d="M566.16,443.67 L566.16,443.72 L566.16,443.77 L566.15,443.82 L566.15,443.87 L566.14,443.92 L566.12,443.96 L566.11,444.01 L566.09,444.06 L566.08,444.1 L566.05,444.14 L566.03,444.18 L566.01,444.22 L565.98,444.26 L565.95,444.3 L565.92,444.34 L565.89,444.37 L565.86,444.41 L565.82,444.44 L565.79,444.47 L565.75,444.5 L565.71,444.52 L565.67,444.55 L565.62,444.57 L565.58,444.59 L565.53,444.61 L565.48,444.62 L565.43,444.64 L565.38,444.65 L565.33,444.66 L565.28,444.66 L565.22,444.67 L565.16,444.67 C564.43,444.67,564.27,444.12,563.98,443.07 C563.38,441.07,563.87,442.82,563.32,440.82 C562.73,441.12,561.13,441.87,559.29,441.87 V440.78 C560.29,440.78,561.59,440.48,562.88,439.39 L554.16,409.68 C552.51,413.12,552.51,419.25,552.51,423.98 C552.51,428.03,552.51,431.46,553.21,434.65 C554.16,439.28,557.05,440.78,559.29,440.78 V441.87 C556.45,441.87,553.21,440.37,551.37,436.54 C549.43,432.51,549.18,428.03,549.18,423.39 C549.18,420.25,549.18,411.28,553.51,407.4 C552.37,403.56,552.37,403.46,552.37,403.31 C552.37,402.76,552.76,402.31,553.37,402.31 C554.12,402.31,554.26,402.81,554.55,403.9 C555.15,405.9,554.66,404.15,555.21,406.15 C556.4,405.5,557.9,405.11,559.24,405.11 V406.2 C558.1,406.2,556.9,406.61,555.71,407.64 L564.37,437.39 C566.02,434.5,566.02,428.71,566.02,423.98 C566.02,420.36,566.02,416.67,565.41,413.32 C564.52,408.09,561.88,406.2,559.24,406.2 V405.11 C564.82,405.11,567.01,409.79,567.91,412.18 C569.21,415.67,569.35,419.79,569.35,423.39 C569.35,427.07,569.35,435.34,565.02,439.48 Z "
           style="stroke:#ffffff;fill:none" /></g>    </g>
    <g
       id="g4467"
       style="stroke:#ffffff;fill:none">
      <g
         id="g4469"
         transform="matrix(1.06299211429,0,0,-1.06299211429,-186.02362,789.27165)"
         xml:space="preserve"
         stroke="black"
         stroke-linecap="butt"
         stroke-linejoin="miter"
         stroke-miterlimit="10.433"
         stroke-dasharray="none"
         stroke-dashoffset="0"
         stroke-opacity="1"
         fill="none"
         fill-rule="evenodd"
         fill-opacity="1"
         font-style="normal"
         font-variant="normal"
         font-weight="normal"
         font-stretch="normal"
         font-size-adjust="none"
         letter-spacing="normal"
         word-spacing="normal"
         text-anchor="start"
         style="stroke:#ffffff;fill:none"><path
           d="M470.16,438.09 L470.16,438.14 L470.16,438.2 L470.16,438.25 L470.16,438.3 L470.16,438.35 L470.16,438.4 L470.16,438.44 L470.16,438.49 L470.16,438.53 L470.16,438.57 L470.15,438.61 L470.15,438.65 L470.15,438.69 L470.15,438.72 L470.15,438.76 L470.14,438.79 L470.13,438.86 L470.13,438.92 L470.11,438.97 L470.1,439.02 L470.08,439.07 L470.06,439.11 L470.04,439.15 L470.02,439.18 L469.99,439.21 L469.96,439.24 L469.92,439.27 L469.88,439.29 L469.84,439.31 L469.81,439.32 L469.79,439.33 L469.76,439.33 L469.74,439.34 L469.71,439.35 L469.68,439.35 L469.65,439.36 L469.62,439.36 L469.58,439.37 L469.55,439.37 L469.51,439.37 L469.48,439.38 L469.44,439.38 L469.4,439.38 L469.35,439.38 L469.31,439.38 L469.27,439.38 L469.22,439.39 L469.17,439.39 L469.12,439.39 L469.07,439.39 L469.02,439.39 C465.93,436.2,461.55,436.2,459.96,436.2 V434.65 C460.96,434.65,463.89,434.65,466.47,435.95 V410.14 C466.47,408.34,466.33,407.75,461.85,407.75 H460.25 V406.2 C462,406.36,466.33,406.36,468.32,406.36 C470.32,406.36,474.64,406.36,476.39,406.2 V407.75 H474.8 C470.32,407.75,470.16,408.29,470.16,410.14 Z "
           stroke-width="0"
           fill="black"
           id="path4471"
           style="stroke:#ffffff;fill:none" /><path
           d="M528.51,422.5 L528.65,422.5 L528.8,422.5 L528.94,422.5 L529.01,422.51 L529.09,422.51 L529.16,422.52 L529.23,422.53 L529.3,422.54 L529.37,422.55 L529.44,422.56 L529.5,422.58 L529.57,422.6 L529.63,422.62 L529.69,422.64 L529.75,422.67 L529.81,422.7 L529.86,422.74 L529.91,422.77 L529.96,422.82 L530,422.86 L530.04,422.91 L530.06,422.94 L530.07,422.97 L530.09,422.99 L530.11,423.02 L530.12,423.05 L530.13,423.09 L530.15,423.12 L530.16,423.16 L530.17,423.19 L530.17,423.23 L530.18,423.27 L530.19,423.31 L530.19,423.35 L530.2,423.39 L530.2,423.43 L530.2,423.48 C530.2,424.48,529.25,424.48,528.56,424.48 H498.71 C498.01,424.48,497.07,424.48,497.07,423.48 C497.07,422.5,498.01,422.5,498.76,422.5 Z "
           stroke-width="0"
           fill="black"
           id="path4473"
           style="stroke:#ffffff;fill:none" /><path
           d="M528.56,412.82 L528.62,412.82 L528.69,412.82 L528.83,412.83 L528.97,412.83 L529.04,412.83 L529.11,412.84 L529.17,412.85 L529.24,412.85 L529.31,412.86 L529.38,412.88 L529.45,412.89 L529.51,412.91 L529.57,412.93 L529.64,412.95 L529.7,412.97 L529.75,413 L529.81,413.03 L529.86,413.07 L529.91,413.11 L529.96,413.15 L530,413.2 L530.02,413.22 L530.04,413.25 L530.06,413.27 L530.07,413.3 L530.09,413.33 L530.11,413.36 L530.12,413.39 L530.13,413.42 L530.15,413.46 L530.16,413.49 L530.17,413.53 L530.17,413.57 L530.18,413.61 L530.19,413.65 L530.19,413.69 L530.2,413.73 L530.2,413.78 L530.2,413.82 C530.2,414.82,529.25,414.82,528.51,414.82 H498.76 C498.01,414.82,497.07,414.82,497.07,413.82 C497.07,412.82,498.01,412.82,498.71,412.82 Z "
           stroke-width="0"
           fill="black"
           id="path4475"
           style="stroke:#ffffff;fill:none" /><path
           d="M560.93,436.93 L560.93,437.12 L560.95,437.32 L560.97,437.52 L561,437.73 L561.04,437.94 L561.09,438.16 L561.15,438.37 L561.22,438.59 L561.3,438.81 L561.4,439.03 L561.51,439.25 L561.63,439.47 L561.76,439.69 L561.91,439.9 L562.08,440.11 L562.26,440.32 L562.45,440.52 L562.67,440.72 L562.9,440.91 L563.14,441.09 L563.41,441.27 L563.69,441.43 L564,441.59 L564.32,441.74 L564.66,441.87 L565.02,442 L565.41,442.11 L565.81,442.21 L566.02,442.26 L566.24,442.3 L566.46,442.33 L566.69,442.37 L566.93,442.4 L567.17,442.42 L567.41,442.45 L567.66,442.46 C567.91,442.51,568.12,442.71,568.12,443.01 C568.12,443.56,567.71,443.56,567.16,443.56 C562.18,443.56,557.65,441.03,557.6,437.34 V425.98 C557.6,424.04,557.6,422.43,555.6,420.79 C553.87,419.36,551.96,419.25,550.87,419.2 C550.62,419.15,550.43,418.95,550.43,418.65 C550.43,418.15,550.73,418.15,551.23,418.11 C554.51,417.9,556.9,416.12,557.45,413.67 C557.6,413.12,557.6,413.03,557.6,411.23 V401.37 C557.6,399.28,557.6,397.68,559.99,395.79 C561.93,394.29,565.23,393.75,567.16,393.75 C567.71,393.75,568.12,393.75,568.12,394.29 C568.12,394.79,567.8,394.79,567.32,394.84 C564.18,395.04,561.73,396.64,561.09,399.17 C560.93,399.62,560.93,399.71,560.93,401.51 V411.98 C560.93,414.28,560.54,415.12,558.95,416.71 C557.9,417.76,556.45,418.26,555.05,418.65 C559.15,419.79,560.93,422.09,560.93,424.98 Z "
           stroke-width="0"
           fill="black"
           id="path4477"
           style="stroke:#ffffff;fill:none" /><path
           d="M591.12,443.67 L591.12,443.72 L591.12,443.77 L591.11,443.82 L591.1,443.87 L591.09,443.92 L591.08,443.96 L591.07,444.01 L591.05,444.06 L591.03,444.1 L591.01,444.14 L590.99,444.18 L590.97,444.22 L590.94,444.26 L590.91,444.3 L590.88,444.34 L590.85,444.37 L590.82,444.41 L590.78,444.44 L590.74,444.47 L590.71,444.5 L590.66,444.52 L590.62,444.55 L590.58,444.57 L590.53,444.59 L590.49,444.61 L590.44,444.62 L590.39,444.64 L590.34,444.65 L590.29,444.66 L590.23,444.66 L590.18,444.67 L590.12,444.67 C589.39,444.67,589.23,444.12,588.93,443.07 C588.34,441.07,588.82,442.82,588.28,440.82 C587.68,441.12,586.09,441.87,584.25,441.87 V440.78 C585.25,440.78,586.54,440.48,587.84,439.39 L579.12,409.68 C577.47,413.12,577.47,419.25,577.47,423.98 C577.47,428.03,577.47,431.46,578.17,434.65 C579.12,439.28,582.01,440.78,584.25,440.78 V441.87 C581.4,441.87,578.17,440.37,576.32,436.54 C574.39,432.51,574.14,428.03,574.14,423.39 C574.14,420.25,574.14,411.28,578.47,407.4 C577.32,403.56,577.32,403.46,577.32,403.31 C577.32,402.76,577.72,402.31,578.32,402.31 C579.07,402.31,579.22,402.81,579.51,403.9 C580.1,405.9,579.62,404.15,580.17,406.15 C581.35,405.5,582.85,405.11,584.2,405.11 V406.2 C583.06,406.2,581.85,406.61,580.67,407.64 L589.32,437.39 C590.98,434.5,590.98,428.71,590.98,423.98 C590.98,420.36,590.98,416.67,590.37,413.32 C589.48,408.09,586.84,406.2,584.2,406.2 V405.11 C589.78,405.11,591.97,409.79,592.87,412.18 C594.17,415.67,594.31,419.79,594.31,423.39 C594.31,427.07,594.31,435.34,589.98,439.48 Z "
           stroke-width="0"
           fill="black"
           id="path4479"
           style="stroke:#ffffff;fill:none" /><path
           d="M607.52,400.37 L607.51,400.18 L607.5,399.98 L607.48,399.78 L607.45,399.57 L607.41,399.36 L607.36,399.15 L607.3,398.93 L607.23,398.71 L607.14,398.49 L607.05,398.27 L606.94,398.05 L606.82,397.83 L606.68,397.62 L606.53,397.4 L606.37,397.19 L606.19,396.98 L605.99,396.78 L605.78,396.59 L605.55,396.4 L605.3,396.21 L605.04,396.04 L604.75,395.87 L604.45,395.72 L604.13,395.57 L603.78,395.43 L603.42,395.31 L603.04,395.19 L602.63,395.09 L602.42,395.05 L602.2,395.01 L601.98,394.97 L601.75,394.94 L601.52,394.91 L601.28,394.88 L601.03,394.86 L600.78,394.84 C600.53,394.79,600.34,394.59,600.34,394.29 C600.34,393.75,600.89,393.75,601.33,393.75 C606.17,393.75,610.8,396.18,610.84,399.96 V411.32 C610.84,413.28,610.84,414.87,612.84,416.51 C614.59,417.96,616.48,418.06,617.58,418.11 C617.83,418.15,618.03,418.36,618.03,418.65 C618.03,419.15,617.72,419.15,617.23,419.2 C613.94,419.4,611.55,421.2,611,423.64 C610.84,424.18,610.84,424.28,610.84,426.07 V435.95 C610.84,438.03,610.84,439.64,608.45,441.53 C606.47,443.07,603.03,443.56,601.33,443.56 C600.89,443.56,600.34,443.56,600.34,443.01 C600.34,442.51,600.64,442.51,601.14,442.46 C604.27,442.28,606.72,440.67,607.36,438.14 C607.52,437.68,607.52,437.59,607.52,435.79 V425.32 C607.52,423.04,607.91,422.2,609.5,420.59 C610.55,419.56,612,419.06,613.39,418.65 C609.31,417.51,607.52,415.21,607.52,412.32 Z "
           stroke-width="0"
           fill="black"
           id="path4481"
           style="stroke:#ffffff;fill:none" /></g>    </g>
    <g
       id="g4589"
       style="stroke:#ffffff;fill:none">
      <g
         text-anchor="start"
         word-spacing="normal"
         letter-spacing="normal"
         font-size-adjust="none"
         font-stretch="normal"
         font-weight="normal"
         font-variant="normal"
         font-style="normal"
         fill-opacity="1"
         fill-rule="evenodd"
         fill="none"
         stroke-opacity="1"
         stroke-dashoffset="0"
         stroke-dasharray="none"
         stroke-miterlimit="10.433"
         stroke-linejoin="miter"
         stroke-linecap="butt"
         stroke="black"
         xml:space="preserve"
         transform="matrix(1.06299211429,0,0,-1.06299211429,-186.02362,789.27165)"
         id="g4591"
         style="stroke:#ffffff;fill:none"><path
           id="path4593"
           fill="black"
           stroke-width="0"
           d="M470.16,438.09 L470.16,438.14 L470.16,438.2 L470.16,438.25 L470.16,438.3 L470.16,438.35 L470.16,438.4 L470.16,438.44 L470.16,438.49 L470.16,438.53 L470.16,438.57 L470.15,438.61 L470.15,438.65 L470.15,438.69 L470.15,438.72 L470.15,438.76 L470.14,438.79 L470.13,438.86 L470.13,438.92 L470.11,438.97 L470.1,439.02 L470.08,439.07 L470.06,439.11 L470.04,439.15 L470.02,439.18 L469.99,439.21 L469.96,439.24 L469.92,439.27 L469.88,439.29 L469.84,439.31 L469.81,439.32 L469.79,439.33 L469.76,439.33 L469.74,439.34 L469.71,439.35 L469.68,439.35 L469.65,439.36 L469.62,439.36 L469.58,439.37 L469.55,439.37 L469.51,439.37 L469.48,439.38 L469.44,439.38 L469.4,439.38 L469.35,439.38 L469.31,439.38 L469.27,439.38 L469.22,439.39 L469.17,439.39 L469.12,439.39 L469.07,439.39 L469.02,439.39 C465.93,436.2,461.55,436.2,459.96,436.2 V434.65 C460.96,434.65,463.89,434.65,466.47,435.95 V410.14 C466.47,408.34,466.33,407.75,461.85,407.75 H460.25 V406.2 C462,406.36,466.33,406.36,468.32,406.36 C470.32,406.36,474.64,406.36,476.39,406.2 V407.75 H474.8 C470.32,407.75,470.16,408.29,470.16,410.14 Z "
           style="stroke:#ffffff;fill:none" /><path
           id="path4595"
           fill="black"
           stroke-width="0"
           d="M528.51,422.5 L528.65,422.5 L528.8,422.5 L528.94,422.5 L529.01,422.51 L529.09,422.51 L529.16,422.52 L529.23,422.53 L529.3,422.54 L529.37,422.55 L529.44,422.56 L529.5,422.58 L529.57,422.6 L529.63,422.62 L529.69,422.64 L529.75,422.67 L529.81,422.7 L529.86,422.74 L529.91,422.77 L529.96,422.82 L530,422.86 L530.04,422.91 L530.06,422.94 L530.07,422.97 L530.09,422.99 L530.11,423.02 L530.12,423.05 L530.13,423.09 L530.15,423.12 L530.16,423.16 L530.17,423.19 L530.17,423.23 L530.18,423.27 L530.19,423.31 L530.19,423.35 L530.2,423.39 L530.2,423.43 L530.2,423.48 C530.2,424.48,529.25,424.48,528.56,424.48 H498.71 C498.01,424.48,497.07,424.48,497.07,423.48 C497.07,422.5,498.01,422.5,498.76,422.5 Z "
           style="stroke:#ffffff;fill:none" /><path
           id="path4597"
           fill="black"
           stroke-width="0"
           d="M528.56,412.82 L528.62,412.82 L528.69,412.82 L528.83,412.83 L528.97,412.83 L529.04,412.83 L529.11,412.84 L529.17,412.85 L529.24,412.85 L529.31,412.86 L529.38,412.88 L529.45,412.89 L529.51,412.91 L529.57,412.93 L529.64,412.95 L529.7,412.97 L529.75,413 L529.81,413.03 L529.86,413.07 L529.91,413.11 L529.96,413.15 L530,413.2 L530.02,413.22 L530.04,413.25 L530.06,413.27 L530.07,413.3 L530.09,413.33 L530.11,413.36 L530.12,413.39 L530.13,413.42 L530.15,413.46 L530.16,413.49 L530.17,413.53 L530.17,413.57 L530.18,413.61 L530.19,413.65 L530.19,413.69 L530.2,413.73 L530.2,413.78 L530.2,413.82 C530.2,414.82,529.25,414.82,528.51,414.82 H498.76 C498.01,414.82,497.07,414.82,497.07,413.82 C497.07,412.82,498.01,412.82,498.71,412.82 Z "
           style="stroke:#ffffff;fill:none" /><path
           id="path4599"
           fill="black"
           stroke-width="0"
           d="M560.93,436.93 L560.93,437.12 L560.95,437.32 L560.97,437.52 L561,437.73 L561.04,437.94 L561.09,438.16 L561.15,438.37 L561.22,438.59 L561.3,438.81 L561.4,439.03 L561.51,439.25 L561.63,439.47 L561.76,439.69 L561.91,439.9 L562.08,440.11 L562.26,440.32 L562.45,440.52 L562.67,440.72 L562.9,440.91 L563.14,441.09 L563.41,441.27 L563.69,441.43 L564,441.59 L564.32,441.74 L564.66,441.87 L565.02,442 L565.41,442.11 L565.81,442.21 L566.02,442.26 L566.24,442.3 L566.46,442.33 L566.69,442.37 L566.93,442.4 L567.17,442.42 L567.41,442.45 L567.66,442.46 C567.91,442.51,568.12,442.71,568.12,443.01 C568.12,443.56,567.71,443.56,567.16,443.56 C562.18,443.56,557.65,441.03,557.6,437.34 V425.98 C557.6,424.04,557.6,422.43,555.6,420.79 C553.87,419.36,551.96,419.25,550.87,419.2 C550.62,419.15,550.43,418.95,550.43,418.65 C550.43,418.15,550.73,418.15,551.23,418.11 C554.51,417.9,556.9,416.12,557.45,413.67 C557.6,413.12,557.6,413.03,557.6,411.23 V401.37 C557.6,399.28,557.6,397.68,559.99,395.79 C561.93,394.29,565.23,393.75,567.16,393.75 C567.71,393.75,568.12,393.75,568.12,394.29 C568.12,394.79,567.8,394.79,567.32,394.84 C564.18,395.04,561.73,396.64,561.09,399.17 C560.93,399.62,560.93,399.71,560.93,401.51 V411.98 C560.93,414.28,560.54,415.12,558.95,416.71 C557.9,417.76,556.45,418.26,555.05,418.65 C559.15,419.79,560.93,422.09,560.93,424.98 Z "
           style="stroke:#ffffff;fill:none" /><path
           id="path4601"
           fill="black"
           stroke-width="0"
           d="M591.12,443.67 L591.12,443.72 L591.12,443.77 L591.11,443.82 L591.1,443.87 L591.09,443.92 L591.08,443.96 L591.07,444.01 L591.05,444.06 L591.03,444.1 L591.01,444.14 L590.99,444.18 L590.97,444.22 L590.94,444.26 L590.91,444.3 L590.88,444.34 L590.85,444.37 L590.82,444.41 L590.78,444.44 L590.74,444.47 L590.71,444.5 L590.66,444.52 L590.62,444.55 L590.58,444.57 L590.53,444.59 L590.49,444.61 L590.44,444.62 L590.39,444.64 L590.34,444.65 L590.29,444.66 L590.23,444.66 L590.18,444.67 L590.12,444.67 C589.39,444.67,589.23,444.12,588.93,443.07 C588.34,441.07,588.82,442.82,588.28,440.82 C587.68,441.12,586.09,441.87,584.25,441.87 V440.78 C585.25,440.78,586.54,440.48,587.84,439.39 L579.12,409.68 C577.47,413.12,577.47,419.25,577.47,423.98 C577.47,428.03,577.47,431.46,578.17,434.65 C579.12,439.28,582.01,440.78,584.25,440.78 V441.87 C581.4,441.87,578.17,440.37,576.32,436.54 C574.39,432.51,574.14,428.03,574.14,423.39 C574.14,420.25,574.14,411.28,578.47,407.4 C577.32,403.56,577.32,403.46,577.32,403.31 C577.32,402.76,577.72,402.31,578.32,402.31 C579.07,402.31,579.22,402.81,579.51,403.9 C580.1,405.9,579.62,404.15,580.17,406.15 C581.35,405.5,582.85,405.11,584.2,405.11 V406.2 C583.06,406.2,581.85,406.61,580.67,407.64 L589.32,437.39 C590.98,434.5,590.98,428.71,590.98,423.98 C590.98,420.36,590.98,416.67,590.37,413.32 C589.48,408.09,586.84,406.2,584.2,406.2 V405.11 C589.78,405.11,591.97,409.79,592.87,412.18 C594.17,415.67,594.31,419.79,594.31,423.39 C594.31,427.07,594.31,435.34,589.98,439.48 Z "
           style="stroke:#ffffff;fill:none" /><path
           id="path4603"
           fill="black"
           stroke-width="0"
           d="M606.86,406.25 L606.86,406.55 L606.84,406.85 L606.83,407.14 L606.8,407.42 L606.77,407.69 L606.73,407.95 L606.69,408.21 L606.64,408.45 L606.58,408.69 L606.51,408.92 L606.44,409.14 L606.37,409.35 L606.28,409.55 L606.19,409.74 L606.1,409.93 L606,410.1 L605.89,410.26 L605.78,410.42 L605.66,410.56 L605.54,410.69 L605.41,410.82 L605.28,410.93 L605.14,411.03 L604.99,411.13 L604.85,411.21 L604.69,411.28 L604.53,411.34 L604.37,411.39 L604.2,411.43 L604.03,411.46 L603.85,411.47 L603.67,411.48 C602.03,411.48,601.03,410.23,601.03,408.84 C601.03,407.5,602.03,406.2,603.67,406.2 C604.27,406.2,604.92,406.4,605.42,406.84 C605.56,406.95,605.62,407,605.67,407 C605.72,407,605.77,406.95,605.77,406.25 C605.77,402.56,604.03,399.57,602.38,397.93 C601.83,397.39,601.83,397.28,601.83,397.14 C601.83,396.78,602.08,396.59,602.33,396.59 C602.88,396.59,606.86,400.42,606.86,406.25 Z "
           style="stroke:#ffffff;fill:none" /><path
           id="path4605"
           fill="black"
           stroke-width="0"
           d="M632.92,436.93 L632.92,437.12 L632.93,437.32 L632.95,437.52 L632.98,437.73 L633.02,437.94 L633.07,438.16 L633.13,438.37 L633.21,438.59 L633.29,438.81 L633.38,439.03 L633.49,439.25 L633.62,439.47 L633.75,439.69 L633.9,439.9 L634.07,440.11 L634.25,440.32 L634.44,440.52 L634.66,440.72 L634.88,440.91 L635.13,441.09 L635.4,441.27 L635.68,441.43 L635.98,441.59 L636.31,441.74 L636.65,441.87 L637.01,442 L637.4,442.11 L637.8,442.21 L638.01,442.26 L638.23,442.3 L638.45,442.33 L638.68,442.37 L638.91,442.4 L639.15,442.42 L639.4,442.45 L639.65,442.46 C639.9,442.51,640.1,442.71,640.1,443.01 C640.1,443.56,639.7,443.56,639.15,443.56 C634.17,443.56,629.64,441.03,629.59,437.34 V425.98 C629.59,424.04,629.59,422.43,627.59,420.79 C625.85,419.36,623.95,419.25,622.85,419.2 C622.6,419.15,622.42,418.95,622.42,418.65 C622.42,418.15,622.72,418.15,623.22,418.11 C626.5,417.9,628.89,416.12,629.43,413.67 C629.59,413.12,629.59,413.03,629.59,411.23 V401.37 C629.59,399.28,629.59,397.68,631.98,395.79 C633.92,394.29,637.22,393.75,639.15,393.75 C639.7,393.75,640.1,393.75,640.1,394.29 C640.1,394.79,639.79,394.79,639.31,394.84 C636.17,395.04,633.72,396.64,633.07,399.17 C632.92,399.62,632.92,399.71,632.92,401.51 V411.98 C632.92,414.28,632.53,415.12,630.93,416.71 C629.89,417.76,628.43,418.26,627.04,418.65 C631.14,419.79,632.92,422.09,632.92,424.98 Z "
           style="stroke:#ffffff;fill:none" /><path
           id="path4607"
           fill="black"
           stroke-width="0"
           d="M663.11,443.67 L663.11,443.72 L663.1,443.77 L663.1,443.82 L663.09,443.87 L663.08,443.92 L663.07,443.96 L663.05,444.01 L663.04,444.06 L663.02,444.1 L663,444.14 L662.98,444.18 L662.95,444.22 L662.93,444.26 L662.9,444.3 L662.87,444.34 L662.84,444.37 L662.8,444.41 L662.77,444.44 L662.73,444.47 L662.69,444.5 L662.65,444.52 L662.61,444.55 L662.57,444.57 L662.52,444.59 L662.48,444.61 L662.43,444.62 L662.38,444.64 L662.33,444.65 L662.27,444.66 L662.22,444.66 L662.17,444.67 L662.11,444.67 C661.38,444.67,661.22,444.12,660.92,443.07 C660.33,441.07,660.81,442.82,660.27,440.82 C659.67,441.12,658.08,441.87,656.23,441.87 V440.78 C657.23,440.78,658.53,440.48,659.83,439.39 L651.11,409.68 C649.45,413.12,649.45,419.25,649.45,423.98 C649.45,428.03,649.45,431.46,650.16,434.65 C651.11,439.28,654,440.78,656.23,440.78 V441.87 C653.39,441.87,650.16,440.37,648.31,436.54 C646.38,432.51,646.12,428.03,646.12,423.39 C646.12,420.25,646.12,411.28,650.45,407.4 C649.31,403.56,649.31,403.46,649.31,403.31 C649.31,402.76,649.7,402.31,650.31,402.31 C651.06,402.31,651.2,402.81,651.5,403.9 C652.09,405.9,651.61,404.15,652.16,406.15 C653.34,405.5,654.84,405.11,656.19,405.11 V406.2 C655.05,406.2,653.84,406.61,652.66,407.64 L661.31,437.39 C662.97,434.5,662.97,428.71,662.97,423.98 C662.97,420.36,662.97,416.67,662.36,413.32 C661.47,408.09,658.83,406.2,656.19,406.2 V405.11 C661.77,405.11,663.95,409.79,664.86,412.18 C666.16,415.67,666.3,419.79,666.3,423.39 C666.3,427.07,666.3,435.34,661.97,439.48 Z "
           style="stroke:#ffffff;fill:none" /><path
           id="path4609"
           fill="black"
           stroke-width="0"
           d="M679.5,400.37 L679.5,400.18 L679.49,399.98 L679.47,399.78 L679.44,399.57 L679.4,399.36 L679.35,399.15 L679.29,398.93 L679.22,398.71 L679.13,398.49 L679.04,398.27 L678.93,398.05 L678.81,397.83 L678.67,397.62 L678.52,397.4 L678.36,397.19 L678.18,396.98 L677.98,396.78 L677.77,396.59 L677.54,396.4 L677.29,396.21 L677.02,396.04 L676.74,395.87 L676.44,395.72 L676.12,395.57 L675.77,395.43 L675.41,395.31 L675.03,395.19 L674.62,395.09 L674.41,395.05 L674.19,395.01 L673.97,394.97 L673.74,394.94 L673.51,394.91 L673.27,394.88 L673.02,394.86 L672.77,394.84 C672.52,394.79,672.33,394.59,672.33,394.29 C672.33,393.75,672.88,393.75,673.32,393.75 C678.16,393.75,682.78,396.18,682.83,399.96 V411.32 C682.83,413.28,682.83,414.87,684.83,416.51 C686.58,417.96,688.47,418.06,689.57,418.11 C689.82,418.15,690.02,418.36,690.02,418.65 C690.02,419.15,689.71,419.15,689.22,419.2 C685.93,419.4,683.53,421.2,682.99,423.64 C682.83,424.18,682.83,424.28,682.83,426.07 V435.95 C682.83,438.03,682.83,439.64,680.44,441.53 C678.46,443.07,675.02,443.56,673.32,443.56 C672.88,443.56,672.33,443.56,672.33,443.01 C672.33,442.51,672.63,442.51,673.13,442.46 C676.25,442.28,678.71,440.67,679.35,438.14 C679.5,437.68,679.5,437.59,679.5,435.79 V425.32 C679.5,423.04,679.9,422.2,681.49,420.59 C682.53,419.56,683.99,419.06,685.38,418.65 C681.3,417.51,679.5,415.21,679.5,412.32 Z "
           style="stroke:#ffffff;fill:none" /><path
           id="path4611"
           fill="black"
           stroke-width="0"
           d="M704.46,400.37 L704.46,400.18 L704.45,399.98 L704.42,399.78 L704.39,399.57 L704.36,399.36 L704.31,399.15 L704.25,398.93 L704.17,398.71 L704.09,398.49 L703.99,398.27 L703.89,398.05 L703.76,397.83 L703.63,397.62 L703.48,397.4 L703.31,397.19 L703.13,396.98 L702.94,396.78 L702.72,396.59 L702.49,396.4 L702.25,396.21 L701.98,396.04 L701.7,395.87 L701.4,395.72 L701.07,395.57 L700.73,395.43 L700.37,395.31 L699.98,395.19 L699.58,395.09 L699.37,395.05 L699.15,395.01 L698.93,394.97 L698.7,394.94 L698.46,394.91 L698.22,394.88 L697.98,394.86 L697.73,394.84 C697.48,394.79,697.29,394.59,697.29,394.29 C697.29,393.75,697.84,393.75,698.27,393.75 C703.12,393.75,707.74,396.18,707.79,399.96 V411.32 C707.79,413.28,707.79,414.87,709.79,416.51 C711.54,417.96,713.43,418.06,714.52,418.11 C714.77,418.15,714.98,418.36,714.98,418.65 C714.98,419.15,714.66,419.15,714.18,419.2 C710.88,419.4,708.49,421.2,707.95,423.64 C707.79,424.18,707.79,424.28,707.79,426.07 V435.95 C707.79,438.03,707.79,439.64,705.4,441.53 C703.41,443.07,699.98,443.56,698.27,443.56 C697.84,443.56,697.29,443.56,697.29,443.01 C697.29,442.51,697.59,442.51,698.09,442.46 C701.21,442.28,703.66,440.67,704.3,438.14 C704.46,437.68,704.46,437.59,704.46,435.79 V425.32 C704.46,423.04,704.85,422.2,706.45,420.59 C707.49,419.56,708.95,419.06,710.34,418.65 C706.26,417.51,704.46,415.21,704.46,412.32 Z "
           style="stroke:#ffffff;fill:none" /></g>    </g>
    <g
       id="g4743"
       style="stroke:#ffffff;fill:none">
      <g
         id="g4745"
         transform="matrix(1.06299211429,0,0,-1.06299211429,-186.02362,789.27165)"
         xml:space="preserve"
         stroke="black"
         stroke-linecap="butt"
         stroke-linejoin="miter"
         stroke-miterlimit="10.433"
         stroke-dasharray="none"
         stroke-dashoffset="0"
         stroke-opacity="1"
         fill="none"
         fill-rule="evenodd"
         fill-opacity="1"
         font-style="normal"
         font-variant="normal"
         font-weight="normal"
         font-stretch="normal"
         font-size-adjust="none"
         letter-spacing="normal"
         word-spacing="normal"
         text-anchor="start"
         style="stroke:#ffffff;fill:none"><path
           d="M461.85,410.04 L467.13,415.17 C474.89,422.04,477.89,424.73,477.89,429.71 C477.89,435.4,473.41,439.39,467.33,439.39 C461.69,439.39,458,434.79,458,430.36 C458,427.57,460.5,427.57,460.64,427.57 C461.5,427.57,463.24,428.17,463.24,430.21 C463.24,431.51,462.35,432.81,460.6,432.81 C460.21,432.81,460.1,432.81,459.96,432.76 C461.1,436,463.79,437.84,466.68,437.84 C471.21,437.84,473.36,433.79,473.36,429.71 C473.36,425.73,470.86,421.79,468.13,418.7 L458.57,408.04 C458,407.5,458,407.4,458,406.2 H476.49 L477.89,414.87 H476.64 C476.39,413.37,476.05,411.18,475.55,410.43 C475.19,410.04,471.91,410.04,470.82,410.04 Z "
           stroke-width="0"
           fill="black"
           id="path4747"
           style="stroke:#ffffff;fill:none" /><path
           d="M528.51,422.5 L528.65,422.5 L528.8,422.5 L528.94,422.5 L529.01,422.51 L529.09,422.51 L529.16,422.52 L529.23,422.53 L529.3,422.54 L529.37,422.55 L529.44,422.56 L529.5,422.58 L529.57,422.6 L529.63,422.62 L529.69,422.64 L529.75,422.67 L529.81,422.7 L529.86,422.74 L529.91,422.77 L529.96,422.82 L530,422.86 L530.04,422.91 L530.06,422.94 L530.07,422.97 L530.09,422.99 L530.11,423.02 L530.12,423.05 L530.13,423.09 L530.15,423.12 L530.16,423.16 L530.17,423.19 L530.17,423.23 L530.18,423.27 L530.19,423.31 L530.19,423.35 L530.2,423.39 L530.2,423.43 L530.2,423.48 C530.2,424.48,529.25,424.48,528.56,424.48 H498.71 C498.01,424.48,497.07,424.48,497.07,423.48 C497.07,422.5,498.01,422.5,498.76,422.5 Z "
           stroke-width="0"
           fill="black"
           id="path4749"
           style="stroke:#ffffff;fill:none" /><path
           d="M528.56,412.82 L528.62,412.82 L528.69,412.82 L528.83,412.83 L528.97,412.83 L529.04,412.83 L529.11,412.84 L529.17,412.85 L529.24,412.85 L529.31,412.86 L529.38,412.88 L529.45,412.89 L529.51,412.91 L529.57,412.93 L529.64,412.95 L529.7,412.97 L529.75,413 L529.81,413.03 L529.86,413.07 L529.91,413.11 L529.96,413.15 L530,413.2 L530.02,413.22 L530.04,413.25 L530.06,413.27 L530.07,413.3 L530.09,413.33 L530.11,413.36 L530.12,413.39 L530.13,413.42 L530.15,413.46 L530.16,413.49 L530.17,413.53 L530.17,413.57 L530.18,413.61 L530.19,413.65 L530.19,413.69 L530.2,413.73 L530.2,413.78 L530.2,413.82 C530.2,414.82,529.25,414.82,528.51,414.82 H498.76 C498.01,414.82,497.07,414.82,497.07,413.82 C497.07,412.82,498.01,412.82,498.71,412.82 Z "
           stroke-width="0"
           fill="black"
           id="path4751"
           style="stroke:#ffffff;fill:none" /><path
           d="M560.93,436.93 L560.93,437.12 L560.95,437.32 L560.97,437.52 L561,437.73 L561.04,437.94 L561.09,438.16 L561.15,438.37 L561.22,438.59 L561.3,438.81 L561.4,439.03 L561.51,439.25 L561.63,439.47 L561.76,439.69 L561.91,439.9 L562.08,440.11 L562.26,440.32 L562.45,440.52 L562.67,440.72 L562.9,440.91 L563.14,441.09 L563.41,441.27 L563.69,441.43 L564,441.59 L564.32,441.74 L564.66,441.87 L565.02,442 L565.41,442.11 L565.81,442.21 L566.02,442.26 L566.24,442.3 L566.46,442.33 L566.69,442.37 L566.93,442.4 L567.17,442.42 L567.41,442.45 L567.66,442.46 C567.91,442.51,568.12,442.71,568.12,443.01 C568.12,443.56,567.71,443.56,567.16,443.56 C562.18,443.56,557.65,441.03,557.6,437.34 V425.98 C557.6,424.04,557.6,422.43,555.6,420.79 C553.87,419.36,551.96,419.25,550.87,419.2 C550.62,419.15,550.43,418.95,550.43,418.65 C550.43,418.15,550.73,418.15,551.23,418.11 C554.51,417.9,556.9,416.12,557.45,413.67 C557.6,413.12,557.6,413.03,557.6,411.23 V401.37 C557.6,399.28,557.6,397.68,559.99,395.79 C561.93,394.29,565.23,393.75,567.16,393.75 C567.71,393.75,568.12,393.75,568.12,394.29 C568.12,394.79,567.8,394.79,567.32,394.84 C564.18,395.04,561.73,396.64,561.09,399.17 C560.93,399.62,560.93,399.71,560.93,401.51 V411.98 C560.93,414.28,560.54,415.12,558.95,416.71 C557.9,417.76,556.45,418.26,555.05,418.65 C559.15,419.79,560.93,422.09,560.93,424.98 Z "
           stroke-width="0"
           fill="black"
           id="path4753"
           style="stroke:#ffffff;fill:none" /><path
           d="M591.12,443.67 L591.12,443.72 L591.12,443.77 L591.11,443.82 L591.1,443.87 L591.09,443.92 L591.08,443.96 L591.07,444.01 L591.05,444.06 L591.03,444.1 L591.01,444.14 L590.99,444.18 L590.97,444.22 L590.94,444.26 L590.91,444.3 L590.88,444.34 L590.85,444.37 L590.82,444.41 L590.78,444.44 L590.74,444.47 L590.71,444.5 L590.66,444.52 L590.62,444.55 L590.58,444.57 L590.53,444.59 L590.49,444.61 L590.44,444.62 L590.39,444.64 L590.34,444.65 L590.29,444.66 L590.23,444.66 L590.18,444.67 L590.12,444.67 C589.39,444.67,589.23,444.12,588.93,443.07 C588.34,441.07,588.82,442.82,588.28,440.82 C587.68,441.12,586.09,441.87,584.25,441.87 V440.78 C585.25,440.78,586.54,440.48,587.84,439.39 L579.12,409.68 C577.47,413.12,577.47,419.25,577.47,423.98 C577.47,428.03,577.47,431.46,578.17,434.65 C579.12,439.28,582.01,440.78,584.25,440.78 V441.87 C581.4,441.87,578.17,440.37,576.32,436.54 C574.39,432.51,574.14,428.03,574.14,423.39 C574.14,420.25,574.14,411.28,578.47,407.4 C577.32,403.56,577.32,403.46,577.32,403.31 C577.32,402.76,577.72,402.31,578.32,402.31 C579.07,402.31,579.22,402.81,579.51,403.9 C580.1,405.9,579.62,404.15,580.17,406.15 C581.35,405.5,582.85,405.11,584.2,405.11 V406.2 C583.06,406.2,581.85,406.61,580.67,407.64 L589.32,437.39 C590.98,434.5,590.98,428.71,590.98,423.98 C590.98,420.36,590.98,416.67,590.37,413.32 C589.48,408.09,586.84,406.2,584.2,406.2 V405.11 C589.78,405.11,591.97,409.79,592.87,412.18 C594.17,415.67,594.31,419.79,594.31,423.39 C594.31,427.07,594.31,435.34,589.98,439.48 Z "
           stroke-width="0"
           fill="black"
           id="path4755"
           style="stroke:#ffffff;fill:none" /><path
           d="M606.86,406.25 L606.86,406.55 L606.84,406.85 L606.83,407.14 L606.8,407.42 L606.77,407.69 L606.73,407.95 L606.69,408.21 L606.64,408.45 L606.58,408.69 L606.51,408.92 L606.44,409.14 L606.37,409.35 L606.28,409.55 L606.19,409.74 L606.1,409.93 L606,410.1 L605.89,410.26 L605.78,410.42 L605.66,410.56 L605.54,410.69 L605.41,410.82 L605.28,410.93 L605.14,411.03 L604.99,411.13 L604.85,411.21 L604.69,411.28 L604.53,411.34 L604.37,411.39 L604.2,411.43 L604.03,411.46 L603.85,411.47 L603.67,411.48 C602.03,411.48,601.03,410.23,601.03,408.84 C601.03,407.5,602.03,406.2,603.67,406.2 C604.27,406.2,604.92,406.4,605.42,406.84 C605.56,406.95,605.62,407,605.67,407 C605.72,407,605.77,406.95,605.77,406.25 C605.77,402.56,604.03,399.57,602.38,397.93 C601.83,397.39,601.83,397.28,601.83,397.14 C601.83,396.78,602.08,396.59,602.33,396.59 C602.88,396.59,606.86,400.42,606.86,406.25 Z "
           stroke-width="0"
           fill="black"
           id="path4757"
           style="stroke:#ffffff;fill:none" /><path
           d="M632.92,436.93 L632.92,437.12 L632.93,437.32 L632.95,437.52 L632.98,437.73 L633.02,437.94 L633.07,438.16 L633.13,438.37 L633.21,438.59 L633.29,438.81 L633.38,439.03 L633.49,439.25 L633.62,439.47 L633.75,439.69 L633.9,439.9 L634.07,440.11 L634.25,440.32 L634.44,440.52 L634.66,440.72 L634.88,440.91 L635.13,441.09 L635.4,441.27 L635.68,441.43 L635.98,441.59 L636.31,441.74 L636.65,441.87 L637.01,442 L637.4,442.11 L637.8,442.21 L638.01,442.26 L638.23,442.3 L638.45,442.33 L638.68,442.37 L638.91,442.4 L639.15,442.42 L639.4,442.45 L639.65,442.46 C639.9,442.51,640.1,442.71,640.1,443.01 C640.1,443.56,639.7,443.56,639.15,443.56 C634.17,443.56,629.64,441.03,629.59,437.34 V425.98 C629.59,424.04,629.59,422.43,627.59,420.79 C625.85,419.36,623.95,419.25,622.85,419.2 C622.6,419.15,622.42,418.95,622.42,418.65 C622.42,418.15,622.72,418.15,623.22,418.11 C626.5,417.9,628.89,416.12,629.43,413.67 C629.59,413.12,629.59,413.03,629.59,411.23 V401.37 C629.59,399.28,629.59,397.68,631.98,395.79 C633.92,394.29,637.22,393.75,639.15,393.75 C639.7,393.75,640.1,393.75,640.1,394.29 C640.1,394.79,639.79,394.79,639.31,394.84 C636.17,395.04,633.72,396.64,633.07,399.17 C632.92,399.62,632.92,399.71,632.92,401.51 V411.98 C632.92,414.28,632.53,415.12,630.93,416.71 C629.89,417.76,628.43,418.26,627.04,418.65 C631.14,419.79,632.92,422.09,632.92,424.98 Z "
           stroke-width="0"
           fill="black"
           id="path4759"
           style="stroke:#ffffff;fill:none" /><path
           d="M663.11,443.67 L663.11,443.72 L663.1,443.77 L663.1,443.82 L663.09,443.87 L663.08,443.92 L663.07,443.96 L663.05,444.01 L663.04,444.06 L663.02,444.1 L663,444.14 L662.98,444.18 L662.95,444.22 L662.93,444.26 L662.9,444.3 L662.87,444.34 L662.84,444.37 L662.8,444.41 L662.77,444.44 L662.73,444.47 L662.69,444.5 L662.65,444.52 L662.61,444.55 L662.57,444.57 L662.52,444.59 L662.48,444.61 L662.43,444.62 L662.38,444.64 L662.33,444.65 L662.27,444.66 L662.22,444.66 L662.17,444.67 L662.11,444.67 C661.38,444.67,661.22,444.12,660.92,443.07 C660.33,441.07,660.81,442.82,660.27,440.82 C659.67,441.12,658.08,441.87,656.23,441.87 V440.78 C657.23,440.78,658.53,440.48,659.83,439.39 L651.11,409.68 C649.45,413.12,649.45,419.25,649.45,423.98 C649.45,428.03,649.45,431.46,650.16,434.65 C651.11,439.28,654,440.78,656.23,440.78 V441.87 C653.39,441.87,650.16,440.37,648.31,436.54 C646.38,432.51,646.12,428.03,646.12,423.39 C646.12,420.25,646.12,411.28,650.45,407.4 C649.31,403.56,649.31,403.46,649.31,403.31 C649.31,402.76,649.7,402.31,650.31,402.31 C651.06,402.31,651.2,402.81,651.5,403.9 C652.09,405.9,651.61,404.15,652.16,406.15 C653.34,405.5,654.84,405.11,656.19,405.11 V406.2 C655.05,406.2,653.84,406.61,652.66,407.64 L661.31,437.39 C662.97,434.5,662.97,428.71,662.97,423.98 C662.97,420.36,662.97,416.67,662.36,413.32 C661.47,408.09,658.83,406.2,656.19,406.2 V405.11 C661.77,405.11,663.95,409.79,664.86,412.18 C666.16,415.67,666.3,419.79,666.3,423.39 C666.3,427.07,666.3,435.34,661.97,439.48 Z "
           stroke-width="0"
           fill="black"
           id="path4761"
           style="stroke:#ffffff;fill:none" /><path
           d="M679.5,400.37 L679.5,400.18 L679.49,399.98 L679.47,399.78 L679.44,399.57 L679.4,399.36 L679.35,399.15 L679.29,398.93 L679.22,398.71 L679.13,398.49 L679.04,398.27 L678.93,398.05 L678.81,397.83 L678.67,397.62 L678.52,397.4 L678.36,397.19 L678.18,396.98 L677.98,396.78 L677.77,396.59 L677.54,396.4 L677.29,396.21 L677.02,396.04 L676.74,395.87 L676.44,395.72 L676.12,395.57 L675.77,395.43 L675.41,395.31 L675.03,395.19 L674.62,395.09 L674.41,395.05 L674.19,395.01 L673.97,394.97 L673.74,394.94 L673.51,394.91 L673.27,394.88 L673.02,394.86 L672.77,394.84 C672.52,394.79,672.33,394.59,672.33,394.29 C672.33,393.75,672.88,393.75,673.32,393.75 C678.16,393.75,682.78,396.18,682.83,399.96 V411.32 C682.83,413.28,682.83,414.87,684.83,416.51 C686.58,417.96,688.47,418.06,689.57,418.11 C689.82,418.15,690.02,418.36,690.02,418.65 C690.02,419.15,689.71,419.15,689.22,419.2 C685.93,419.4,683.53,421.2,682.99,423.64 C682.83,424.18,682.83,424.28,682.83,426.07 V435.95 C682.83,438.03,682.83,439.64,680.44,441.53 C678.46,443.07,675.02,443.56,673.32,443.56 C672.88,443.56,672.33,443.56,672.33,443.01 C672.33,442.51,672.63,442.51,673.13,442.46 C676.25,442.28,678.71,440.67,679.35,438.14 C679.5,437.68,679.5,437.59,679.5,435.79 V425.32 C679.5,423.04,679.9,422.2,681.49,420.59 C682.53,419.56,683.99,419.06,685.38,418.65 C681.3,417.51,679.5,415.21,679.5,412.32 Z "
           stroke-width="0"
           fill="black"
           id="path4763"
           style="stroke:#ffffff;fill:none" /><path
           d="M704.46,400.37 L704.46,400.18 L704.45,399.98 L704.42,399.78 L704.39,399.57 L704.36,399.36 L704.31,399.15 L704.25,398.93 L704.17,398.71 L704.09,398.49 L703.99,398.27 L703.89,398.05 L703.76,397.83 L703.63,397.62 L703.48,397.4 L703.31,397.19 L703.13,396.98 L702.94,396.78 L702.72,396.59 L702.49,396.4 L702.25,396.21 L701.98,396.04 L701.7,395.87 L701.4,395.72 L701.07,395.57 L700.73,395.43 L700.37,395.31 L699.98,395.19 L699.58,395.09 L699.37,395.05 L699.15,395.01 L698.93,394.97 L698.7,394.94 L698.46,394.91 L698.22,394.88 L697.98,394.86 L697.73,394.84 C697.48,394.79,697.29,394.59,697.29,394.29 C697.29,393.75,697.84,393.75,698.27,393.75 C703.12,393.75,707.74,396.18,707.79,399.96 V411.32 C707.79,413.28,707.79,414.87,709.79,416.51 C711.54,417.96,713.43,418.06,714.52,418.11 C714.77,418.15,714.98,418.36,714.98,418.65 C714.98,419.15,714.66,419.15,714.18,419.2 C710.88,419.4,708.49,421.2,707.95,423.64 C707.79,424.18,707.79,424.28,707.79,426.07 V435.95 C707.79,438.03,707.79,439.64,705.4,441.53 C703.41,443.07,699.98,443.56,698.27,443.56 C697.84,443.56,697.29,443.56,697.29,443.01 C697.29,442.51,697.59,442.51,698.09,442.46 C701.21,442.28,703.66,440.67,704.3,438.14 C704.46,437.68,704.46,437.59,704.46,435.79 V425.32 C704.46,423.04,704.85,422.2,706.45,420.59 C707.49,419.56,708.95,419.06,710.34,418.65 C706.26,417.51,704.46,415.21,704.46,412.32 Z "
           stroke-width="0"
           fill="black"
           id="path4765"
           style="stroke:#ffffff;fill:none" /></g>    </g>
    <g
       id="g4921"
       style="fill:none;stroke:#ffffff"
       transform="translate(58.588851,45.456867)">
      <g
         word-spacing="normal"
         letter-spacing="normal"
         font-size-adjust="none"
         font-stretch="normal"
         font-weight="normal"
         font-variant="normal"
         font-style="normal"
         stroke-miterlimit="10.433"
         xml:space="preserve"
         transform="matrix(1.0629921,0,0,-1.0629921,-186.02362,789.27165)"
         id="g4923"
         style="font-style:normal;font-variant:normal;font-weight:normal;font-stretch:normal;letter-spacing:normal;word-spacing:normal;text-anchor:start;fill:none;fill-opacity:1;fill-rule:evenodd;stroke:#ffffff;stroke-linecap:butt;stroke-linejoin:miter;stroke-miterlimit:10.43299960999999954;stroke-opacity:1;stroke-dasharray:none;stroke-dashoffset:0"><path
           id="path4925"
           d="m 469.97,423.73 0.38,0.13 0.37,0.15 0.37,0.15 0.35,0.17 0.35,0.18 0.34,0.19 0.33,0.2 0.32,0.22 0.31,0.22 0.31,0.23 0.29,0.24 0.28,0.25 0.27,0.26 0.26,0.27 0.25,0.27 0.24,0.29 0.22,0.29 0.21,0.3 0.2,0.3 0.19,0.32 0.18,0.32 0.16,0.32 0.14,0.33 0.14,0.34 0.11,0.34 0.11,0.34 0.09,0.35 0.07,0.36 0.06,0.36 0.04,0.36 0.02,0.36 0.01,0.37 c 0,4.08 -4.39,6.88 -9.17,6.88 -5.03,0 -8.81,-3 -8.81,-6.78 0,-1.65 1.09,-2.6 2.54,-2.6 1.54,0 2.54,1.1 2.54,2.55 0,2.48 -2.35,2.48 -3.08,2.48 1.53,2.44 4.83,3.1 6.62,3.1 2.03,0 4.78,-1.1 4.78,-5.58 0,-0.61 -0.11,-3.49 -1.4,-5.69 -1.49,-2.39 -3.19,-2.53 -4.42,-2.59 -0.41,-0.05 -1.6,-0.14 -1.96,-0.14 -0.39,-0.05 -0.75,-0.1 -0.75,-0.6 0,-0.54 0.36,-0.54 1.21,-0.54 h 2.18 c 4.1,0 5.94,-3.39 5.94,-8.29 0,-6.76 -3.44,-8.21 -5.64,-8.21 -2.14,0 -5.88,0.84 -7.61,3.78 1.73,-0.24 3.28,0.86 3.28,2.75 0,1.79 -1.34,2.78 -2.8,2.78 -1.18,0 -2.78,-0.69 -2.78,-2.89 0,-4.53 4.63,-7.81 10.07,-7.81 6.07,0 10.61,4.53 10.61,9.6 0,4.1 -3.15,7.97 -8.32,9.02 z"
           style="fill:none;stroke:#ffffff;stroke-width:0"
           inkscape:connector-curvature="0" /><path
           id="path4927"
           d="m 528.51,422.5 0.14,0 0.15,0 0.14,0 0.07,0.01 0.08,0 0.07,0.01 0.07,0.01 0.07,0.01 0.07,0.01 0.07,0.01 0.06,0.02 0.07,0.02 0.06,0.02 0.06,0.02 0.06,0.03 0.06,0.03 0.05,0.04 0.05,0.03 0.05,0.05 0.04,0.04 0.04,0.05 0.02,0.03 0.01,0.03 0.02,0.02 0.02,0.03 0.01,0.03 0.01,0.04 0.02,0.03 0.01,0.04 0.01,0.03 0,0.04 0.01,0.04 0.01,0.04 0,0.04 0.01,0.04 0,0.04 0,0.05 c 0,1 -0.95,1 -1.64,1 h -29.85 c -0.7,0 -1.64,0 -1.64,-1 0,-0.98 0.94,-0.98 1.69,-0.98 z"
           style="fill:none;stroke:#ffffff;stroke-width:0"
           inkscape:connector-curvature="0" /><path
           id="path4929"
           d="m 528.56,412.82 0.06,0 0.07,0 0.14,0.01 0.14,0 0.07,0 0.07,0.01 0.06,0.01 0.07,0 0.07,0.01 0.07,0.02 0.07,0.01 0.06,0.02 0.06,0.02 0.07,0.02 0.06,0.02 0.05,0.03 0.06,0.03 0.05,0.04 0.05,0.04 0.05,0.04 0.04,0.05 0.02,0.02 0.02,0.03 0.02,0.02 0.01,0.03 0.02,0.03 0.02,0.03 0.01,0.03 0.01,0.03 0.02,0.04 0.01,0.03 0.01,0.04 0,0.04 0.01,0.04 0.01,0.04 0,0.04 0.01,0.04 0,0.05 0,0.04 c 0,1 -0.95,1 -1.69,1 h -29.75 c -0.75,0 -1.69,0 -1.69,-1 0,-1 0.94,-1 1.64,-1 z"
           style="fill:none;stroke:#ffffff;stroke-width:0"
           inkscape:connector-curvature="0" /><path
           id="path4931"
           d="m 560.93,436.93 0,0.19 0.02,0.2 0.02,0.2 0.03,0.21 0.04,0.21 0.05,0.22 0.06,0.21 0.07,0.22 0.08,0.22 0.1,0.22 0.11,0.22 0.12,0.22 0.13,0.22 0.15,0.21 0.17,0.21 0.18,0.21 0.19,0.2 0.22,0.2 0.23,0.19 0.24,0.18 0.27,0.18 0.28,0.16 0.31,0.16 0.32,0.15 0.34,0.13 0.36,0.13 0.39,0.11 0.4,0.1 0.21,0.05 0.22,0.04 0.22,0.03 0.23,0.04 0.24,0.03 0.24,0.02 0.24,0.03 0.25,0.01 c 0.25,0.05 0.46,0.25 0.46,0.55 0,0.55 -0.41,0.55 -0.96,0.55 -4.98,0 -9.51,-2.53 -9.56,-6.22 v -11.36 c 0,-1.94 0,-3.55 -2,-5.19 -1.73,-1.43 -3.64,-1.54 -4.73,-1.59 -0.25,-0.05 -0.44,-0.25 -0.44,-0.55 0,-0.5 0.3,-0.5 0.8,-0.54 3.28,-0.21 5.67,-1.99 6.22,-4.44 0.15,-0.55 0.15,-0.64 0.15,-2.44 v -9.86 c 0,-2.09 0,-3.69 2.39,-5.58 1.94,-1.5 5.24,-2.04 7.17,-2.04 0.55,0 0.96,0 0.96,0.54 0,0.5 -0.32,0.5 -0.8,0.55 -3.14,0.2 -5.59,1.8 -6.23,4.33 -0.16,0.45 -0.16,0.54 -0.16,2.34 v 10.47 c 0,2.3 -0.39,3.14 -1.98,4.73 -1.05,1.05 -2.5,1.55 -3.9,1.94 4.1,1.14 5.88,3.44 5.88,6.33 z"
           style="fill:none;stroke:#ffffff;stroke-width:0"
           inkscape:connector-curvature="0" /><path
           id="path4933"
           d="m 591.12,443.67 0,0.05 0,0.05 -0.01,0.05 -0.01,0.05 -0.01,0.05 -0.01,0.04 -0.01,0.05 -0.02,0.05 -0.02,0.04 -0.02,0.04 -0.02,0.04 -0.02,0.04 -0.03,0.04 -0.03,0.04 -0.03,0.04 -0.03,0.03 -0.03,0.04 -0.04,0.03 -0.04,0.03 -0.03,0.03 -0.05,0.02 -0.04,0.03 -0.04,0.02 -0.05,0.02 -0.04,0.02 -0.05,0.01 -0.05,0.02 -0.05,0.01 -0.05,0.01 -0.06,0 -0.05,0.01 -0.06,0 c -0.73,0 -0.89,-0.55 -1.19,-1.6 -0.59,-2 -0.11,-0.25 -0.65,-2.25 -0.6,0.3 -2.19,1.05 -4.03,1.05 v -1.09 c 1,0 2.29,-0.3 3.59,-1.39 l -8.72,-29.71 c -1.65,3.44 -1.65,9.57 -1.65,14.3 0,4.05 0,7.48 0.7,10.67 0.95,4.63 3.84,6.13 6.08,6.13 v 1.09 c -2.85,0 -6.08,-1.5 -7.93,-5.33 -1.93,-4.03 -2.18,-8.51 -2.18,-13.15 0,-3.14 0,-12.11 4.33,-15.99 -1.15,-3.84 -1.15,-3.94 -1.15,-4.09 0,-0.55 0.4,-1 1,-1 0.75,0 0.9,0.5 1.19,1.59 0.59,2 0.11,0.25 0.66,2.25 1.18,-0.65 2.68,-1.04 4.03,-1.04 v 1.09 c -1.14,0 -2.35,0.41 -3.53,1.44 l 8.65,29.75 c 1.66,-2.89 1.66,-8.68 1.66,-13.41 0,-3.62 0,-7.31 -0.61,-10.66 -0.89,-5.23 -3.53,-7.12 -6.17,-7.12 v -1.09 c 5.58,0 7.77,4.68 8.67,7.07 1.3,3.49 1.44,7.61 1.44,11.21 0,3.68 0,11.95 -4.33,16.09 z"
           style="fill:none;stroke:#ffffff;stroke-width:0"
           inkscape:connector-curvature="0" /><path
           id="path4935"
           d="m 606.86,406.25 0,0.3 -0.02,0.3 -0.01,0.29 -0.03,0.28 -0.03,0.27 -0.04,0.26 -0.04,0.26 -0.05,0.24 -0.06,0.24 -0.07,0.23 -0.07,0.22 -0.07,0.21 -0.09,0.2 -0.09,0.19 -0.09,0.19 -0.1,0.17 -0.11,0.16 -0.11,0.16 -0.12,0.14 -0.12,0.13 -0.13,0.13 -0.13,0.11 -0.14,0.1 -0.15,0.1 -0.14,0.08 -0.16,0.07 -0.16,0.06 -0.16,0.05 -0.17,0.04 -0.17,0.03 -0.18,0.01 -0.18,0.01 c -1.64,0 -2.64,-1.25 -2.64,-2.64 0,-1.34 1,-2.64 2.64,-2.64 0.6,0 1.25,0.2 1.75,0.64 0.14,0.11 0.2,0.16 0.25,0.16 0.05,0 0.1,-0.05 0.1,-0.75 0,-3.69 -1.74,-6.68 -3.39,-8.32 -0.55,-0.54 -0.55,-0.65 -0.55,-0.79 0,-0.36 0.25,-0.55 0.5,-0.55 0.55,0 4.53,3.83 4.53,9.66 z"
           style="fill:none;stroke:#ffffff;stroke-width:0"
           inkscape:connector-curvature="0" /><path
           id="path4937"
           d="m 632.92,436.93 0,0.19 0.01,0.2 0.02,0.2 0.03,0.21 0.04,0.21 0.05,0.22 0.06,0.21 0.08,0.22 0.08,0.22 0.09,0.22 0.11,0.22 0.13,0.22 0.13,0.22 0.15,0.21 0.17,0.21 0.18,0.21 0.19,0.2 0.22,0.2 0.22,0.19 0.25,0.18 0.27,0.18 0.28,0.16 0.3,0.16 0.33,0.15 0.34,0.13 0.36,0.13 0.39,0.11 0.4,0.1 0.21,0.05 0.22,0.04 0.22,0.03 0.23,0.04 0.23,0.03 0.24,0.02 0.25,0.03 0.25,0.01 c 0.25,0.05 0.45,0.25 0.45,0.55 0,0.55 -0.4,0.55 -0.95,0.55 -4.98,0 -9.51,-2.53 -9.56,-6.22 v -11.36 c 0,-1.94 0,-3.55 -2,-5.19 -1.74,-1.43 -3.64,-1.54 -4.74,-1.59 -0.25,-0.05 -0.43,-0.25 -0.43,-0.55 0,-0.5 0.3,-0.5 0.8,-0.54 3.28,-0.21 5.67,-1.99 6.21,-4.44 0.16,-0.55 0.16,-0.64 0.16,-2.44 v -9.86 c 0,-2.09 0,-3.69 2.39,-5.58 1.94,-1.5 5.24,-2.04 7.17,-2.04 0.55,0 0.95,0 0.95,0.54 0,0.5 -0.31,0.5 -0.79,0.55 -3.14,0.2 -5.59,1.8 -6.24,4.33 -0.15,0.45 -0.15,0.54 -0.15,2.34 v 10.47 c 0,2.3 -0.39,3.14 -1.99,4.73 -1.04,1.05 -2.5,1.55 -3.89,1.94 4.1,1.14 5.88,3.44 5.88,6.33 z"
           style="fill:none;stroke:#ffffff;stroke-width:0"
           inkscape:connector-curvature="0" /><path
           id="path4939"
           d="m 663.11,443.67 0,0.05 -0.01,0.05 0,0.05 -0.01,0.05 -0.01,0.05 -0.01,0.04 -0.02,0.05 -0.01,0.05 -0.02,0.04 -0.02,0.04 -0.02,0.04 -0.03,0.04 -0.02,0.04 -0.03,0.04 -0.03,0.04 -0.03,0.03 -0.04,0.04 -0.03,0.03 -0.04,0.03 -0.04,0.03 -0.04,0.02 -0.04,0.03 -0.04,0.02 -0.05,0.02 -0.04,0.02 -0.05,0.01 -0.05,0.02 -0.05,0.01 -0.06,0.01 -0.05,0 -0.05,0.01 -0.06,0 c -0.73,0 -0.89,-0.55 -1.19,-1.6 -0.59,-2 -0.11,-0.25 -0.65,-2.25 -0.6,0.3 -2.19,1.05 -4.04,1.05 v -1.09 c 1,0 2.3,-0.3 3.6,-1.39 l -8.72,-29.71 c -1.66,3.44 -1.66,9.57 -1.66,14.3 0,4.05 0,7.48 0.71,10.67 0.95,4.63 3.84,6.13 6.07,6.13 v 1.09 c -2.84,0 -6.07,-1.5 -7.92,-5.33 -1.93,-4.03 -2.19,-8.51 -2.19,-13.15 0,-3.14 0,-12.11 4.33,-15.99 -1.14,-3.84 -1.14,-3.94 -1.14,-4.09 0,-0.55 0.39,-1 1,-1 0.75,0 0.89,0.5 1.19,1.59 0.59,2 0.11,0.25 0.66,2.25 1.18,-0.65 2.68,-1.04 4.03,-1.04 v 1.09 c -1.14,0 -2.35,0.41 -3.53,1.44 l 8.65,29.75 c 1.66,-2.89 1.66,-8.68 1.66,-13.41 0,-3.62 0,-7.31 -0.61,-10.66 -0.89,-5.23 -3.53,-7.12 -6.17,-7.12 v -1.09 c 5.58,0 7.76,4.68 8.67,7.07 1.3,3.49 1.44,7.61 1.44,11.21 0,3.68 0,11.95 -4.33,16.09 z"
           style="fill:none;stroke:#ffffff;stroke-width:0"
           inkscape:connector-curvature="0" /><path
           id="path4941"
           d="m 679.5,400.37 0,-0.19 -0.01,-0.2 -0.02,-0.2 -0.03,-0.21 -0.04,-0.21 -0.05,-0.21 -0.06,-0.22 -0.07,-0.22 -0.09,-0.22 -0.09,-0.22 -0.11,-0.22 -0.12,-0.22 -0.14,-0.21 -0.15,-0.22 -0.16,-0.21 -0.18,-0.21 -0.2,-0.2 -0.21,-0.19 -0.23,-0.19 -0.25,-0.19 -0.27,-0.17 -0.28,-0.17 -0.3,-0.15 -0.32,-0.15 -0.35,-0.14 -0.36,-0.12 -0.38,-0.12 -0.41,-0.1 -0.21,-0.04 -0.22,-0.04 -0.22,-0.04 -0.23,-0.03 -0.23,-0.03 -0.24,-0.03 -0.25,-0.02 -0.25,-0.02 c -0.25,-0.05 -0.44,-0.25 -0.44,-0.55 0,-0.54 0.55,-0.54 0.99,-0.54 4.84,0 9.46,2.43 9.51,6.21 v 11.36 c 0,1.96 0,3.55 2,5.19 1.75,1.45 3.64,1.55 4.74,1.6 0.25,0.04 0.45,0.25 0.45,0.54 0,0.5 -0.31,0.5 -0.8,0.55 -3.29,0.2 -5.69,2 -6.23,4.44 -0.16,0.54 -0.16,0.64 -0.16,2.43 v 9.88 c 0,2.08 0,3.69 -2.39,5.58 -1.98,1.54 -5.42,2.03 -7.12,2.03 -0.44,0 -0.99,0 -0.99,-0.55 0,-0.5 0.3,-0.5 0.8,-0.55 3.12,-0.18 5.58,-1.79 6.22,-4.32 0.15,-0.46 0.15,-0.55 0.15,-2.35 v -10.47 c 0,-2.28 0.4,-3.12 1.99,-4.73 1.04,-1.03 2.5,-1.53 3.89,-1.94 -4.08,-1.14 -5.88,-3.44 -5.88,-6.33 z"
           style="fill:none;stroke:#ffffff;stroke-width:0"
           inkscape:connector-curvature="0" /><path
           id="path4943"
           d="m 703.8,406.25 0,0.3 -0.01,0.3 -0.02,0.29 -0.02,0.28 -0.03,0.27 -0.04,0.26 -0.05,0.26 -0.05,0.24 -0.06,0.24 -0.06,0.23 -0.07,0.22 -0.08,0.21 -0.08,0.2 -0.09,0.19 -0.1,0.19 -0.1,0.17 -0.1,0.16 -0.12,0.16 -0.11,0.14 -0.13,0.13 -0.12,0.13 -0.14,0.11 -0.14,0.1 -0.14,0.1 -0.15,0.08 -0.15,0.07 -0.16,0.06 -0.17,0.05 -0.16,0.04 -0.18,0.03 -0.17,0.01 -0.18,0.01 c -1.64,0 -2.64,-1.25 -2.64,-2.64 0,-1.34 1,-2.64 2.64,-2.64 0.59,0 1.25,0.2 1.75,0.64 0.14,0.11 0.2,0.16 0.25,0.16 0.04,0 0.09,-0.05 0.09,-0.75 0,-3.69 -1.73,-6.68 -3.39,-8.32 -0.55,-0.54 -0.55,-0.65 -0.55,-0.79 0,-0.36 0.25,-0.55 0.5,-0.55 0.55,0 4.53,3.83 4.53,9.66 z"
           style="fill:none;stroke:#ffffff;stroke-width:0"
           inkscape:connector-curvature="0" /><path
           id="path4945"
           d="m 729.87,436.93 0,0.19 0.01,0.2 0.02,0.2 0.03,0.21 0.04,0.21 0.05,0.22 0.06,0.21 0.07,0.22 0.09,0.22 0.09,0.22 0.11,0.22 0.12,0.22 0.14,0.22 0.15,0.21 0.16,0.21 0.19,0.21 0.19,0.2 0.21,0.2 0.23,0.19 0.25,0.18 0.27,0.18 0.28,0.16 0.3,0.16 0.33,0.15 0.34,0.13 0.36,0.13 0.39,0.11 0.4,0.1 0.21,0.05 0.22,0.04 0.22,0.03 0.23,0.04 0.23,0.03 0.24,0.02 0.25,0.03 0.25,0.01 c 0.25,0.05 0.45,0.25 0.45,0.55 0,0.55 -0.4,0.55 -0.95,0.55 -4.98,0 -9.51,-2.53 -9.56,-6.22 v -11.36 c 0,-1.94 0,-3.55 -2,-5.19 -1.74,-1.43 -3.64,-1.54 -4.74,-1.59 -0.25,-0.05 -0.43,-0.25 -0.43,-0.55 0,-0.5 0.29,-0.5 0.79,-0.54 3.29,-0.21 5.68,-1.99 6.22,-4.44 0.16,-0.55 0.16,-0.64 0.16,-2.44 v -9.86 c 0,-2.09 0,-3.69 2.39,-5.58 1.94,-1.5 5.23,-2.04 7.17,-2.04 0.55,0 0.95,0 0.95,0.54 0,0.5 -0.31,0.5 -0.79,0.55 -3.14,0.2 -5.6,1.8 -6.24,4.33 -0.15,0.45 -0.15,0.54 -0.15,2.34 v 10.47 c 0,2.3 -0.39,3.14 -1.99,4.73 -1.04,1.05 -2.5,1.55 -3.89,1.94 4.1,1.14 5.88,3.44 5.88,6.33 z"
           style="fill:none;stroke:#ffffff;stroke-width:0"
           inkscape:connector-curvature="0" /><path
           id="path4947"
           d="m 760.06,443.67 0,0.05 -0.01,0.05 0,0.05 -0.01,0.05 -0.01,0.05 -0.01,0.04 -0.02,0.05 -0.01,0.05 -0.02,0.04 -0.02,0.04 -0.02,0.04 -0.03,0.04 -0.02,0.04 -0.03,0.04 -0.03,0.04 -0.03,0.03 -0.04,0.04 -0.03,0.03 -0.04,0.03 -0.04,0.03 -0.04,0.02 -0.04,0.03 -0.04,0.02 -0.05,0.02 -0.04,0.02 -0.05,0.01 -0.05,0.02 -0.05,0.01 -0.06,0.01 -0.05,0 -0.05,0.01 -0.06,0 c -0.74,0 -0.89,-0.55 -1.19,-1.6 -0.59,-2 -0.11,-0.25 -0.65,-2.25 -0.6,0.3 -2.19,1.05 -4.04,1.05 v -1.09 c 1,0 2.3,-0.3 3.6,-1.39 l -8.72,-29.71 c -1.66,3.44 -1.66,9.57 -1.66,14.3 0,4.05 0,7.48 0.7,10.67 0.96,4.63 3.85,6.13 6.08,6.13 v 1.09 c -2.84,0 -6.08,-1.5 -7.92,-5.33 -1.94,-4.03 -2.19,-8.51 -2.19,-13.15 0,-3.14 0,-12.11 4.33,-15.99 -1.14,-3.84 -1.14,-3.94 -1.14,-4.09 0,-0.55 0.39,-1 1,-1 0.75,0 0.89,0.5 1.19,1.59 0.59,2 0.11,0.25 0.65,2.25 1.19,-0.65 2.69,-1.04 4.04,-1.04 v 1.09 c -1.14,0 -2.35,0.41 -3.54,1.44 l 8.66,29.75 c 1.66,-2.89 1.66,-8.68 1.66,-13.41 0,-3.62 0,-7.31 -0.61,-10.66 -0.89,-5.23 -3.53,-7.12 -6.17,-7.12 v -1.09 c 5.58,0 7.76,4.68 8.67,7.07 1.29,3.49 1.44,7.61 1.44,11.21 0,3.68 0,11.95 -4.33,16.09 z"
           style="fill:none;stroke:#ffffff;stroke-width:0"
           inkscape:connector-curvature="0" /><path
           id="path4949"
           d="m 775.8,406.25 -0.01,0.3 -0.01,0.3 -0.02,0.29 -0.02,0.28 -0.03,0.27 -0.04,0.26 -0.04,0.26 -0.06,0.24 -0.05,0.24 -0.07,0.23 -0.07,0.22 -0.08,0.21 -0.08,0.2 -0.09,0.19 -0.09,0.19 -0.1,0.17 -0.11,0.16 -0.11,0.16 -0.12,0.14 -0.12,0.13 -0.13,0.13 -0.14,0.11 -0.14,0.1 -0.14,0.1 -0.15,0.08 -0.15,0.07 -0.16,0.06 -0.16,0.05 -0.17,0.04 -0.17,0.03 -0.18,0.01 -0.18,0.01 c -1.64,0 -2.64,-1.25 -2.64,-2.64 0,-1.34 1,-2.64 2.64,-2.64 0.59,0 1.25,0.2 1.75,0.64 0.14,0.11 0.2,0.16 0.25,0.16 0.05,0 0.09,-0.05 0.09,-0.75 0,-3.69 -1.73,-6.68 -3.39,-8.32 -0.54,-0.54 -0.54,-0.65 -0.54,-0.79 0,-0.36 0.25,-0.55 0.5,-0.55 0.54,0 4.53,3.83 4.53,9.66 z"
           style="fill:none;stroke:#ffffff;stroke-width:0"
           inkscape:connector-curvature="0" /><path
           id="path4951"
           d="m 801.86,436.93 0,0.19 0.01,0.2 0.03,0.2 0.03,0.21 0.03,0.21 0.05,0.22 0.06,0.21 0.08,0.22 0.08,0.22 0.1,0.22 0.1,0.22 0.13,0.22 0.13,0.22 0.15,0.21 0.17,0.21 0.18,0.21 0.19,0.2 0.22,0.2 0.23,0.19 0.24,0.18 0.27,0.18 0.28,0.16 0.31,0.16 0.32,0.15 0.34,0.13 0.36,0.13 0.39,0.11 0.4,0.1 0.21,0.05 0.22,0.04 0.22,0.03 0.23,0.04 0.24,0.03 0.24,0.02 0.24,0.03 0.25,0.01 c 0.25,0.05 0.46,0.25 0.46,0.55 0,0.55 -0.41,0.55 -0.96,0.55 -4.98,0 -9.51,-2.53 -9.56,-6.22 v -11.36 c 0,-1.94 0,-3.55 -2,-5.19 -1.73,-1.43 -3.64,-1.54 -4.73,-1.59 -0.25,-0.05 -0.44,-0.25 -0.44,-0.55 0,-0.5 0.3,-0.5 0.8,-0.54 3.28,-0.21 5.67,-1.99 6.22,-4.44 0.15,-0.55 0.15,-0.64 0.15,-2.44 v -9.86 c 0,-2.09 0,-3.69 2.39,-5.58 1.94,-1.5 5.24,-2.04 7.17,-2.04 0.55,0 0.96,0 0.96,0.54 0,0.5 -0.32,0.5 -0.8,0.55 -3.14,0.2 -5.59,1.8 -6.23,4.33 -0.16,0.45 -0.16,0.54 -0.16,2.34 v 10.47 c 0,2.3 -0.39,3.14 -1.98,4.73 -1.05,1.05 -2.5,1.55 -3.9,1.94 4.1,1.14 5.88,3.44 5.88,6.33 z"
           style="fill:none;stroke:#ffffff;stroke-width:0"
           inkscape:connector-curvature="0" /><path
           id="path4953"
           d="m 832.05,443.67 0,0.05 0,0.05 -0.01,0.05 -0.01,0.05 -0.01,0.05 -0.01,0.04 -0.01,0.05 -0.02,0.05 -0.02,0.04 -0.02,0.04 -0.02,0.04 -0.02,0.04 -0.03,0.04 -0.03,0.04 -0.03,0.04 -0.03,0.03 -0.03,0.04 -0.04,0.03 -0.04,0.03 -0.03,0.03 -0.05,0.02 -0.04,0.03 -0.04,0.02 -0.05,0.02 -0.04,0.02 -0.05,0.01 -0.05,0.02 -0.05,0.01 -0.05,0.01 -0.06,0 -0.05,0.01 -0.06,0 c -0.73,0 -0.89,-0.55 -1.19,-1.6 -0.59,-2 -0.11,-0.25 -0.65,-2.25 -0.6,0.3 -2.19,1.05 -4.03,1.05 v -1.09 c 1,0 2.29,-0.3 3.59,-1.39 l -8.72,-29.71 c -1.65,3.44 -1.65,9.57 -1.65,14.3 0,4.05 0,7.48 0.7,10.67 0.95,4.63 3.84,6.13 6.08,6.13 v 1.09 c -2.85,0 -6.08,-1.5 -7.93,-5.33 -1.93,-4.03 -2.18,-8.51 -2.18,-13.15 0,-3.14 0,-12.11 4.33,-15.99 -1.15,-3.84 -1.15,-3.94 -1.15,-4.09 0,-0.55 0.4,-1 1,-1 0.75,0 0.9,0.5 1.19,1.59 0.59,2 0.11,0.25 0.66,2.25 1.18,-0.65 2.68,-1.04 4.03,-1.04 v 1.09 c -1.14,0 -2.35,0.41 -3.53,1.44 l 8.65,29.75 c 1.66,-2.89 1.66,-8.68 1.66,-13.41 0,-3.62 0,-7.31 -0.61,-10.66 -0.89,-5.23 -3.53,-7.12 -6.17,-7.12 v -1.09 c 5.58,0 7.77,4.68 8.67,7.07 1.3,3.49 1.44,7.61 1.44,11.21 0,3.68 0,11.95 -4.33,16.09 z"
           style="fill:none;stroke:#ffffff;stroke-width:0"
           inkscape:connector-curvature="0" /><path
           id="path4955"
           d="m 848.45,400.37 -0.01,-0.19 -0.01,-0.2 -0.02,-0.2 -0.03,-0.21 -0.04,-0.21 -0.05,-0.21 -0.06,-0.22 -0.07,-0.22 -0.09,-0.22 -0.09,-0.22 -0.11,-0.22 -0.12,-0.22 -0.14,-0.21 -0.15,-0.22 -0.16,-0.21 -0.18,-0.21 -0.2,-0.2 -0.21,-0.19 -0.23,-0.19 -0.25,-0.19 -0.26,-0.17 -0.29,-0.17 -0.3,-0.15 -0.32,-0.15 -0.35,-0.14 -0.36,-0.12 -0.38,-0.12 -0.41,-0.1 -0.21,-0.04 -0.22,-0.04 -0.22,-0.04 -0.23,-0.03 -0.23,-0.03 -0.24,-0.03 -0.25,-0.02 -0.25,-0.02 c -0.25,-0.05 -0.44,-0.25 -0.44,-0.55 0,-0.54 0.55,-0.54 0.99,-0.54 4.84,0 9.47,2.43 9.51,6.21 v 11.36 c 0,1.96 0,3.55 2,5.19 1.75,1.45 3.64,1.55 4.74,1.6 0.25,0.04 0.45,0.25 0.45,0.54 0,0.5 -0.31,0.5 -0.8,0.55 -3.29,0.2 -5.68,2 -6.23,4.44 -0.16,0.54 -0.16,0.64 -0.16,2.43 v 9.88 c 0,2.08 0,3.69 -2.39,5.58 -1.98,1.54 -5.42,2.03 -7.12,2.03 -0.44,0 -0.99,0 -0.99,-0.55 0,-0.5 0.3,-0.5 0.8,-0.55 3.13,-0.18 5.58,-1.79 6.22,-4.32 0.16,-0.46 0.16,-0.55 0.16,-2.35 v -10.47 c 0,-2.28 0.39,-3.12 1.98,-4.73 1.05,-1.03 2.5,-1.53 3.89,-1.94 -4.08,-1.14 -5.87,-3.44 -5.87,-6.33 z"
           style="fill:none;stroke:#ffffff;stroke-width:0"
           inkscape:connector-curvature="0" /><path
           id="path4957"
           d="m 873.4,400.37 0,-0.19 -0.01,-0.2 -0.02,-0.2 -0.03,-0.21 -0.04,-0.21 -0.05,-0.21 -0.06,-0.22 -0.08,-0.22 -0.08,-0.22 -0.09,-0.22 -0.11,-0.22 -0.13,-0.22 -0.13,-0.21 -0.15,-0.22 -0.17,-0.21 -0.18,-0.21 -0.19,-0.2 -0.22,-0.19 -0.22,-0.19 -0.25,-0.19 -0.27,-0.17 -0.28,-0.17 -0.3,-0.15 -0.33,-0.15 -0.34,-0.14 -0.36,-0.12 -0.39,-0.12 -0.4,-0.1 -0.21,-0.04 -0.22,-0.04 -0.22,-0.04 -0.23,-0.03 -0.23,-0.03 -0.24,-0.03 -0.25,-0.02 -0.25,-0.02 c -0.25,-0.05 -0.44,-0.25 -0.44,-0.55 0,-0.54 0.55,-0.54 0.99,-0.54 4.84,0 9.46,2.43 9.51,6.21 v 11.36 c 0,1.96 0,3.55 2,5.19 1.75,1.45 3.64,1.55 4.74,1.6 0.25,0.04 0.45,0.25 0.45,0.54 0,0.5 -0.32,0.5 -0.8,0.55 -3.3,0.2 -5.69,2 -6.23,4.44 -0.16,0.54 -0.16,0.64 -0.16,2.43 v 9.88 c 0,2.08 0,3.69 -2.39,5.58 -1.99,1.54 -5.42,2.03 -7.12,2.03 -0.44,0 -0.99,0 -0.99,-0.55 0,-0.5 0.3,-0.5 0.8,-0.55 3.12,-0.18 5.57,-1.79 6.22,-4.32 0.15,-0.46 0.15,-0.55 0.15,-2.35 v -10.47 c 0,-2.28 0.39,-3.12 1.99,-4.73 1.04,-1.03 2.5,-1.53 3.89,-1.94 -4.08,-1.14 -5.88,-3.44 -5.88,-6.33 z"
           style="fill:none;stroke:#ffffff;stroke-width:0"
           inkscape:connector-curvature="0" /><path
           id="path4959"
           d="m 898.36,400.37 0,-0.19 -0.02,-0.2 -0.02,-0.2 -0.03,-0.21 -0.04,-0.21 -0.05,-0.21 -0.06,-0.22 -0.07,-0.22 -0.08,-0.22 -0.1,-0.22 -0.11,-0.22 -0.12,-0.22 -0.13,-0.21 -0.15,-0.22 -0.17,-0.21 -0.18,-0.21 -0.2,-0.2 -0.21,-0.19 -0.23,-0.19 -0.25,-0.19 -0.26,-0.17 -0.28,-0.17 -0.31,-0.15 -0.32,-0.15 -0.34,-0.14 -0.36,-0.12 -0.39,-0.12 -0.4,-0.1 -0.22,-0.04 -0.21,-0.04 -0.23,-0.04 -0.22,-0.03 -0.24,-0.03 -0.24,-0.03 -0.24,-0.02 -0.26,-0.02 c -0.24,-0.05 -0.43,-0.25 -0.43,-0.55 0,-0.54 0.54,-0.54 0.98,-0.54 4.85,0 9.47,2.43 9.52,6.21 v 11.36 c 0,1.96 0,3.55 2,5.19 1.75,1.45 3.64,1.55 4.73,1.6 0.25,0.04 0.46,0.25 0.46,0.54 0,0.5 -0.32,0.5 -0.8,0.55 -3.3,0.2 -5.69,2 -6.24,4.44 -0.15,0.54 -0.15,0.64 -0.15,2.43 v 9.88 c 0,2.08 0,3.69 -2.39,5.58 -1.99,1.54 -5.42,2.03 -7.13,2.03 -0.44,0 -0.98,0 -0.98,-0.55 0,-0.5 0.29,-0.5 0.79,-0.55 3.13,-0.18 5.58,-1.79 6.22,-4.32 0.16,-0.46 0.16,-0.55 0.16,-2.35 v -10.47 c 0,-2.28 0.39,-3.12 1.98,-4.73 1.05,-1.03 2.5,-1.53 3.89,-1.94 -4.07,-1.14 -5.87,-3.44 -5.87,-6.33 z"
           style="fill:none;stroke:#ffffff;stroke-width:0"
           inkscape:connector-curvature="0" /></g>    </g>
  </g>
</svg>
