<?xml version="1.0" encoding="UTF-8" standalone="no"?>
<!-- Created with Inkscape (http://www.inkscape.org/) -->

<svg
   xmlns:dc="http://purl.org/dc/elements/1.1/"
   xmlns:cc="http://creativecommons.org/ns#"
   xmlns:rdf="http://www.w3.org/1999/02/22-rdf-syntax-ns#"
   xmlns:svg="http://www.w3.org/2000/svg"
   xmlns="http://www.w3.org/2000/svg"
   xmlns:sodipodi="http://sodipodi.sourceforge.net/DTD/sodipodi-0.dtd"
   xmlns:inkscape="http://www.inkscape.org/namespaces/inkscape"
   width="1052.3622"
   height="744.09448"
   id="svg2"
   version="1.1"
   inkscape:version="0.48.3.1 r9886"
   sodipodi:docname="universe1.svg"
   inkscape:export-filename="/home/koichi/work/category-seminar/fig/universe1.png"
   inkscape:export-xdpi="90"
   inkscape:export-ydpi="90">
  <sodipodi:namedview
     id="base"
     pagecolor="#ffffff"
     bordercolor="#666666"
     borderopacity="1.0"
     inkscape:pageopacity="0.0"
     inkscape:pageshadow="2"
     inkscape:zoom="0.98994949"
     inkscape:cx="490.64214"
     inkscape:cy="345.73022"
     inkscape:document-units="px"
     inkscape:current-layer="layer1"
     showgrid="false"
     inkscape:window-width="1920"
     inkscape:window-height="1058"
     inkscape:window-x="0"
     inkscape:window-y="22"
     inkscape:window-maximized="0" />
  <defs
     id="defs4" />
  <metadata
     id="metadata7">
    <rdf:RDF>
      <cc:Work
         rdf:about="">
        <dc:format>image/svg+xml</dc:format>
        <dc:type
           rdf:resource="http://purl.org/dc/dcmitype/StillImage" />
        <dc:title></dc:title>
      </cc:Work>
    </rdf:RDF>
  </metadata>
  <g
     inkscape:label="レイヤー 1"
     inkscape:groupmode="layer"
     id="layer1"
     transform="translate(0,-308.2677)">
    <rect
       style="fill:#000000;stroke:#333333;stroke-width:2;stroke-linecap:square;stroke-miterlimit:4;stroke-dasharray:none;stroke-dashoffset:0"
       id="rect3822"
       width="1055.6094"
       height="744.48242"
       x="-1.6235962"
       y="308.07373" />
    <g
       id="g3905"
       style="fill:#ffffff;stroke:#ffffff"
       transform="translate(214.77756,341.20982)">
      <g
         word-spacing="normal"
         letter-spacing="normal"
         font-size-adjust="none"
         font-stretch="normal"
         font-weight="normal"
         font-variant="normal"
         font-style="normal"
         stroke-miterlimit="10.433"
         xml:space="preserve"
         transform="matrix(1.0629921,0,0,-1.0629921,-186.02362,789.27165)"
         id="content"
         style="font-style:normal;font-variant:normal;font-weight:normal;font-stretch:normal;letter-spacing:normal;word-spacing:normal;text-anchor:start;fill:#ffffff;fill-opacity:1;fill-rule:evenodd;stroke:#ffffff;stroke-linecap:butt;stroke-linejoin:miter;stroke-miterlimit:10.43299961;stroke-opacity:1;stroke-dasharray:none;stroke-dashoffset:0"><path
           id="path3908"
           d="m 474.85,443.67 0,0.05 -0.01,0.05 0,0.05 -0.01,0.05 -0.01,0.05 -0.01,0.04 -0.02,0.05 -0.01,0.05 -0.02,0.04 -0.02,0.04 -0.02,0.04 -0.03,0.04 -0.02,0.04 -0.03,0.04 -0.03,0.04 -0.03,0.03 -0.04,0.04 -0.03,0.03 -0.04,0.03 -0.04,0.03 -0.04,0.02 -0.04,0.03 -0.04,0.02 -0.05,0.02 -0.05,0.02 -0.04,0.01 -0.05,0.02 -0.05,0.01 -0.06,0.01 -0.05,0 -0.06,0.01 -0.05,0 c -0.74,0 -0.89,-0.55 -1.19,-1.6 -0.59,-2 -0.11,-0.25 -0.66,-2.25 -0.59,0.3 -2.18,1.05 -4.03,1.05 v -1.09 c 1,0 2.3,-0.3 3.6,-1.39 l -8.72,-29.71 c -1.66,3.44 -1.66,9.57 -1.66,14.3 0,4.05 0,7.48 0.7,10.67 0.96,4.63 3.85,6.13 6.08,6.13 v 1.09 c -2.84,0 -6.08,-1.5 -7.92,-5.33 -1.94,-4.03 -2.19,-8.51 -2.19,-13.15 0,-3.14 0,-12.11 4.33,-15.99 -1.14,-3.84 -1.14,-3.94 -1.14,-4.09 0,-0.55 0.39,-1 1,-1 0.75,0 0.89,0.5 1.19,1.59 0.59,2 0.11,0.25 0.65,2.25 1.19,-0.65 2.69,-1.04 4.04,-1.04 v 1.09 c -1.14,0 -2.35,0.41 -3.54,1.44 l 8.66,29.75 c 1.66,-2.89 1.66,-8.68 1.66,-13.41 0,-3.62 0,-7.31 -0.61,-10.66 -0.89,-5.23 -3.53,-7.12 -6.17,-7.12 v -1.09 c 5.57,0 7.76,4.68 8.67,7.07 1.29,3.49 1.44,7.61 1.44,11.21 0,3.68 0,11.95 -4.33,16.09 z"
           style="fill:#ffffff;stroke:#ffffff;stroke-width:0"
           inkscape:connector-curvature="0" /></g>    </g>
  </g>
</svg>
