<?xml version="1.0" encoding="UTF-8" standalone="no"?>
<!-- Created with Inkscape (http://www.inkscape.org/) -->

<svg
   xmlns:dc="http://purl.org/dc/elements/1.1/"
   xmlns:cc="http://creativecommons.org/ns#"
   xmlns:rdf="http://www.w3.org/1999/02/22-rdf-syntax-ns#"
   xmlns:svg="http://www.w3.org/2000/svg"
   xmlns="http://www.w3.org/2000/svg"
   version="1.1"
   width="1052.3622"
   height="744.09448"
   id="svg2">
  <defs
     id="defs4" />
  <metadata
     id="metadata7">
    <rdf:RDF>
      <cc:Work
         rdf:about="">
        <dc:format>image/svg+xml</dc:format>
        <dc:type
           rdf:resource="http://purl.org/dc/dcmitype/StillImage" />
        <dc:title></dc:title>
      </cc:Work>
    </rdf:RDF>
  </metadata>
  <g
     transform="translate(0,-308.2677)"
     id="layer1">
    <rect
       width="1052.8572"
       height="744.28571"
       x="0"
       y="-0.19123225"
       transform="translate(0,308.2677)"
       id="rect3020"
       style="fill:#000000;stroke:#000000" />
    <g
       transform="translate(214.77756,341.20982)"
       id="g3047"
       style="fill:#ffffff">
      <g
         transform="matrix(1.0629921,0,0,-1.0629921,-186.02362,789.27165)"
         id="content"
         xml:space="preserve"
         style="font-style:normal;font-variant:normal;font-weight:normal;font-stretch:normal;letter-spacing:normal;word-spacing:normal;text-anchor:start;fill:#ffffff;fill-opacity:1;fill-rule:evenodd;stroke:#000000;stroke-linecap:butt;stroke-linejoin:miter;stroke-miterlimit:10.43299961;stroke-opacity:1;stroke-dasharray:none;stroke-dashoffset:0"><path
           d="m 474.85,443.67 0,0.05 -0.01,0.05 0,0.05 -0.01,0.05 -0.01,0.05 -0.01,0.04 -0.02,0.05 -0.01,0.05 -0.02,0.04 -0.02,0.04 -0.02,0.04 -0.03,0.04 -0.02,0.04 -0.03,0.04 -0.03,0.04 -0.03,0.03 -0.04,0.04 -0.03,0.03 -0.04,0.03 -0.04,0.03 -0.04,0.02 -0.04,0.03 -0.04,0.02 -0.05,0.02 -0.05,0.02 -0.04,0.01 -0.05,0.02 -0.05,0.01 -0.06,0.01 -0.05,0 -0.06,0.01 -0.05,0 c -0.74,0 -0.89,-0.55 -1.19,-1.6 -0.59,-2 -0.11,-0.25 -0.66,-2.25 -0.59,0.3 -2.18,1.05 -4.03,1.05 v -1.09 c 1,0 2.3,-0.3 3.6,-1.39 l -8.72,-29.71 c -1.66,3.44 -1.66,9.57 -1.66,14.3 0,4.05 0,7.48 0.7,10.67 0.96,4.63 3.85,6.13 6.08,6.13 v 1.09 c -2.84,0 -6.08,-1.5 -7.92,-5.33 -1.94,-4.03 -2.19,-8.51 -2.19,-13.15 0,-3.14 0,-12.11 4.33,-15.99 -1.14,-3.84 -1.14,-3.94 -1.14,-4.09 0,-0.55 0.39,-1 1,-1 0.75,0 0.89,0.5 1.19,1.59 0.59,2 0.11,0.25 0.65,2.25 1.19,-0.65 2.69,-1.04 4.04,-1.04 v 1.09 c -1.14,0 -2.35,0.41 -3.54,1.44 l 8.66,29.75 c 1.66,-2.89 1.66,-8.68 1.66,-13.41 0,-3.62 0,-7.31 -0.61,-10.66 -0.89,-5.23 -3.53,-7.12 -6.17,-7.12 v -1.09 c 5.57,0 7.76,4.68 8.67,7.07 1.29,3.49 1.44,7.61 1.44,11.21 0,3.68 0,11.95 -4.33,16.09 z"
           id="path3050"
           style="fill:#ffffff;stroke-width:0" /></g>    </g>
    <g
       transform="translate(122.85714,339.89171)"
       id="g3087"
       style="fill:#ffffff">
      <g
         transform="matrix(1.0629921,0,0,-1.0629921,-186.02362,789.27165)"
         id="g3089"
         xml:space="preserve"
         style="font-style:normal;font-variant:normal;font-weight:normal;font-stretch:normal;letter-spacing:normal;word-spacing:normal;text-anchor:start;fill:#ffffff;fill-opacity:1;fill-rule:evenodd;stroke:#000000;stroke-linecap:butt;stroke-linejoin:miter;stroke-miterlimit:10.43299961;stroke-opacity:1;stroke-dasharray:none;stroke-dashoffset:0"><path
           d="m 478.44,422.14 0,0.74 -0.01,0.75 -0.02,0.75 -0.04,0.74 -0.04,0.75 -0.06,0.74 -0.08,0.74 -0.09,0.73 -0.12,0.73 -0.14,0.73 -0.16,0.72 -0.19,0.72 -0.21,0.72 -0.25,0.7 -0.28,0.7 -0.15,0.35 -0.16,0.34 c -2.28,4.8 -6.37,5.6 -8.47,5.6 -2.98,0 -6.62,-1.3 -8.67,-5.94 -1.59,-3.44 -1.84,-7.33 -1.84,-11.31 0,-3.74 0.2,-8.22 2.25,-12 2.14,-4.03 5.78,-5.03 8.22,-5.03 v 1.09 c -1.94,0 -4.89,1.25 -5.79,6.03 -0.54,2.98 -0.54,7.56 -0.54,10.52 0,3.18 0,6.46 0.4,9.15 0.94,5.94 4.68,6.38 5.93,6.38 1.64,0 4.93,-0.89 5.87,-5.83 0.5,-2.78 0.5,-6.58 0.5,-9.7 0,-3.75 0,-7.13 -0.55,-10.32 -0.75,-4.73 -3.59,-6.23 -5.82,-6.23 h 0 v -1.09 c 2.68,0 6.46,1.04 8.67,5.78 1.59,3.43 1.84,7.31 1.84,11.25 z"
           id="path3091"
           style="fill:#ffffff;stroke-width:0" /><path
           d="m 528.51,422.5 0.14,0 0.15,0 0.14,0 0.07,0.01 0.08,0 0.07,0.01 0.07,0.01 0.07,0.01 0.07,0.01 0.07,0.01 0.06,0.02 0.07,0.02 0.06,0.02 0.06,0.02 0.06,0.03 0.06,0.03 0.05,0.04 0.05,0.03 0.05,0.05 0.04,0.04 0.04,0.05 0.02,0.03 0.01,0.03 0.02,0.02 0.02,0.03 0.01,0.03 0.01,0.04 0.02,0.03 0.01,0.04 0.01,0.03 0,0.04 0.01,0.04 0.01,0.04 0,0.04 0.01,0.04 0,0.04 0,0.05 c 0,1 -0.95,1 -1.64,1 h -29.85 c -0.7,0 -1.64,0 -1.64,-1 0,-0.98 0.94,-0.98 1.69,-0.98 z"
           id="path3093"
           style="fill:#ffffff;stroke-width:0" /><path
           d="m 528.56,412.82 0.06,0 0.07,0 0.14,0.01 0.14,0 0.07,0 0.07,0.01 0.06,0.01 0.07,0 0.07,0.01 0.07,0.02 0.07,0.01 0.06,0.02 0.06,0.02 0.07,0.02 0.06,0.02 0.05,0.03 0.06,0.03 0.05,0.04 0.05,0.04 0.05,0.04 0.04,0.05 0.02,0.02 0.02,0.03 0.02,0.02 0.01,0.03 0.02,0.03 0.02,0.03 0.01,0.03 0.01,0.03 0.02,0.04 0.01,0.03 0.01,0.04 0,0.04 0.01,0.04 0.01,0.04 0,0.04 0.01,0.04 0,0.05 0,0.04 c 0,1 -0.95,1 -1.69,1 h -29.75 c -0.75,0 -1.69,0 -1.69,-1 0,-1 0.94,-1 1.64,-1 z"
           id="path3095"
           style="fill:#ffffff;stroke-width:0" /></g>    </g>
    <g
       transform="translate(25.714286,234.28571)"
       id="g3142"
       style="fill:#ffffff">
      <g
         transform="matrix(1.0629921,0,0,-1.0629921,-186.02362,789.27165)"
         id="g3144"
         xml:space="preserve"
         style="font-style:normal;font-variant:normal;font-weight:normal;font-stretch:normal;letter-spacing:normal;word-spacing:normal;text-anchor:start;fill:#ffffff;fill-opacity:1;fill-rule:evenodd;stroke:#000000;stroke-linecap:butt;stroke-linejoin:miter;stroke-miterlimit:10.43299961;stroke-opacity:1;stroke-dasharray:none;stroke-dashoffset:0"><path
           d="m 469.61,436.93 0.01,0.19 0.01,0.2 0.02,0.2 0.03,0.21 0.04,0.21 0.05,0.22 0.06,0.21 0.07,0.22 0.08,0.22 0.1,0.22 0.11,0.22 0.12,0.22 0.14,0.22 0.15,0.21 0.16,0.21 0.18,0.21 0.2,0.2 0.21,0.2 0.23,0.19 0.25,0.18 0.26,0.18 0.29,0.16 0.3,0.16 0.32,0.15 0.34,0.13 0.37,0.13 0.38,0.11 0.41,0.1 0.21,0.05 0.22,0.04 0.22,0.03 0.23,0.04 0.23,0.03 0.24,0.02 0.25,0.03 0.25,0.01 c 0.25,0.05 0.45,0.25 0.45,0.55 0,0.55 -0.41,0.55 -0.95,0.55 -4.99,0 -9.52,-2.53 -9.56,-6.22 v -11.36 c 0,-1.94 0,-3.55 -2,-5.19 -1.74,-1.43 -3.65,-1.54 -4.74,-1.59 -0.25,-0.05 -0.44,-0.25 -0.44,-0.55 0,-0.5 0.3,-0.5 0.8,-0.54 3.28,-0.21 5.67,-1.99 6.22,-4.44 0.16,-0.55 0.16,-0.64 0.16,-2.44 v -9.86 c 0,-2.09 0,-3.69 2.39,-5.58 1.93,-1.5 5.23,-2.04 7.17,-2.04 0.54,0 0.95,0 0.95,0.54 0,0.5 -0.31,0.5 -0.8,0.55 -3.14,0.2 -5.59,1.8 -6.23,4.33 -0.16,0.45 -0.16,0.54 -0.16,2.34 v 10.47 c 0,2.3 -0.39,3.14 -1.98,4.73 -1.05,1.05 -2.5,1.55 -3.89,1.94 4.09,1.14 5.87,3.44 5.87,6.33 z"
           id="path3146"
           style="fill:#ffffff;stroke-width:0" /><path
           d="m 503.4,422.14 -0.01,0.74 -0.01,0.75 -0.02,0.75 -0.03,0.74 -0.04,0.75 -0.06,0.74 -0.08,0.74 -0.1,0.73 -0.11,0.73 -0.14,0.73 -0.16,0.72 -0.19,0.72 -0.22,0.72 -0.24,0.7 -0.28,0.7 -0.15,0.35 -0.16,0.34 c -2.28,4.8 -6.38,5.6 -8.47,5.6 -2.98,0 -6.63,-1.3 -8.67,-5.94 -1.6,-3.44 -1.85,-7.33 -1.85,-11.31 0,-3.74 0.21,-8.22 2.25,-12 2.14,-4.03 5.79,-5.03 8.22,-5.03 v 1.09 c -1.93,0 -4.89,1.25 -5.78,6.03 -0.55,2.98 -0.55,7.56 -0.55,10.52 0,3.18 0,6.46 0.41,9.15 0.94,5.94 4.67,6.38 5.92,6.38 1.64,0 4.94,-0.89 5.88,-5.83 0.5,-2.78 0.5,-6.58 0.5,-9.7 0,-3.75 0,-7.13 -0.55,-10.32 -0.75,-4.73 -3.59,-6.23 -5.83,-6.23 h 0 v -1.09 c 2.69,0 6.47,1.04 8.67,5.78 1.6,3.43 1.85,7.31 1.85,11.25 z"
           id="path3148"
           style="fill:#ffffff;stroke-width:0" /><path
           d="m 516.2,400.37 0,-0.19 -0.02,-0.2 -0.02,-0.2 -0.03,-0.21 -0.04,-0.21 -0.05,-0.21 -0.06,-0.22 -0.07,-0.22 -0.08,-0.22 -0.1,-0.22 -0.11,-0.22 -0.12,-0.22 -0.13,-0.21 -0.15,-0.22 -0.17,-0.21 -0.18,-0.21 -0.2,-0.2 -0.21,-0.19 -0.23,-0.19 -0.25,-0.19 -0.26,-0.17 -0.28,-0.17 -0.31,-0.15 -0.32,-0.15 -0.34,-0.14 -0.36,-0.12 -0.39,-0.12 -0.4,-0.1 -0.22,-0.04 -0.21,-0.04 -0.23,-0.04 -0.22,-0.03 -0.24,-0.03 -0.24,-0.03 -0.24,-0.02 -0.26,-0.02 c -0.25,-0.05 -0.43,-0.25 -0.43,-0.55 0,-0.54 0.54,-0.54 0.98,-0.54 4.84,0 9.47,2.43 9.52,6.21 v 11.36 c 0,1.96 0,3.55 2,5.19 1.75,1.45 3.64,1.55 4.73,1.6 0.25,0.04 0.46,0.25 0.46,0.54 0,0.5 -0.32,0.5 -0.8,0.55 -3.3,0.2 -5.69,2 -6.24,4.44 -0.15,0.54 -0.15,0.64 -0.15,2.43 v 9.88 c 0,2.08 0,3.69 -2.39,5.58 -1.99,1.54 -5.43,2.03 -7.13,2.03 -0.44,0 -0.98,0 -0.98,-0.55 0,-0.5 0.29,-0.5 0.79,-0.55 3.13,-0.18 5.58,-1.79 6.22,-4.32 0.16,-0.46 0.16,-0.55 0.16,-2.35 v -10.47 c 0,-2.28 0.39,-3.12 1.98,-4.73 1.05,-1.03 2.5,-1.53 3.89,-1.94 -4.07,-1.14 -5.87,-3.44 -5.87,-6.33 z"
           id="path3150"
           style="fill:#ffffff;stroke-width:0" /></g>    </g>
  </g>
</svg>
